<?xml version="1.0" encoding="UTF-8" standalone="no"?>
<!DOCTYPE svg PUBLIC "-//W3C//DTD SVG 1.1//EN"
 "http://www.w3.org/Graphics/SVG/1.1/DTD/svg11.dtd">
<!-- Generated by graphviz version 2.38.0 (20140413.2041)
 -->
<!-- Title: project.android.ConnectionFragment.resetIcon Pages: 1 -->
<svg width="921pt" height="139pt"
 viewBox="0.00 0.00 921.00 138.74" xmlns="http://www.w3.org/2000/svg" xmlns:xlink="http://www.w3.org/1999/xlink">
<g id="graph0" class="graph" transform="scale(1 1) rotate(0) translate(4 134.737)">
<title>project.android.ConnectionFragment.resetIcon</title>
<polygon fill="white" stroke="none" points="-4,4 -4,-134.737 917,-134.737 917,4 -4,4"/>
<!-- Node74 -->
<g id="node1" class="node"><title>Node74</title>
<polygon fill="#bfbfbf" stroke="black" points="0,-22.2372 0,-48.2372 113,-48.2372 113,-22.2372 0,-22.2372"/>
<text text-anchor="start" x="8" y="-37.8372" font-family="Helvetica,sans-Serif" font-size="8.00">project.android.Connection</text>
<text text-anchor="middle" x="56.5" y="-28.8372" font-family="Helvetica,sans-Serif" font-size="8.00">Fragment.resetIcon</text>
</g>
<!-- Node75 -->
<g id="node2" class="node"><title>Node75</title>
<g id="a_node2"><a xlink:href="../../d9/d38/a00166.html#aee2a392b8b0500023dba15b60d3315d2" target="_top" xlink:title="Returns a list of ServerInfo objects. ">
<polygon fill="white" stroke="black" points="149,-67.2372 149,-93.2372 262,-93.2372 262,-67.2372 149,-67.2372"/>
<text text-anchor="start" x="157" y="-82.8372" font-family="Helvetica,sans-Serif" font-size="8.00">project.android.Connection</text>
<text text-anchor="middle" x="205.5" y="-73.8372" font-family="Helvetica,sans-Serif" font-size="8.00">Fragment.getNetworkList</text>
</a>
</g>
</g>
<!-- Node74&#45;&gt;Node75 -->
<g id="edge1" class="edge"><title>Node74&#45;&gt;Node75</title>
<path fill="none" stroke="midnightblue" d="M109.83,-51.2566C126.872,-56.4736 145.574,-62.1988 161.823,-67.1727"/>
<polygon fill="midnightblue" stroke="midnightblue" points="110.605,-47.8336 100.018,-48.2531 108.556,-54.527 110.605,-47.8336"/>
</g>
<!-- Node81 -->
<g id="node8" class="node"><title>Node81</title>
<g id="a_node8"><a xlink:href="../../db/d53/a00202.html#a9f6765867ad54f586cc7b329213a2ac3" target="_top" xlink:title="Performs operations for reading data from a server. ">
<polygon fill="white" stroke="black" points="152.5,-22.2372 152.5,-48.2372 258.5,-48.2372 258.5,-22.2372 152.5,-22.2372"/>
<text text-anchor="start" x="160.5" y="-37.8372" font-family="Helvetica,sans-Serif" font-size="8.00">project.android.net.Client</text>
<text text-anchor="middle" x="205.5" y="-28.8372" font-family="Helvetica,sans-Serif" font-size="8.00">IOThread.run</text>
</a>
</g>
</g>
<!-- Node74&#45;&gt;Node81 -->
<g id="edge8" class="edge"><title>Node74&#45;&gt;Node81</title>
<path fill="none" stroke="midnightblue" d="M123.136,-35.2372C132.884,-35.2372 142.818,-35.2372 152.243,-35.2372"/>
<polygon fill="midnightblue" stroke="midnightblue" points="123.074,-31.7373 113.074,-35.2372 123.074,-38.7373 123.074,-31.7373"/>
</g>
<!-- Node76 -->
<g id="node3" class="node"><title>Node76</title>
<g id="a_node3"><a xlink:href="../../d5/dcb/a00170.html#a9b4dd18431aa7ebd37321a0d2b1d2539" target="_top" xlink:title="Overrides the ArrayAdapter.getCount() method. ">
<polygon fill="white" stroke="black" points="306.5,-104.237 306.5,-130.237 448.5,-130.237 448.5,-104.237 306.5,-104.237"/>
<text text-anchor="start" x="314.5" y="-119.837" font-family="Helvetica,sans-Serif" font-size="8.00">project.android.CustomAdapter.get</text>
<text text-anchor="middle" x="377.5" y="-110.837" font-family="Helvetica,sans-Serif" font-size="8.00">Count</text>
</a>
</g>
</g>
<!-- Node75&#45;&gt;Node76 -->
<g id="edge2" class="edge"><title>Node75&#45;&gt;Node76</title>
<path fill="none" stroke="midnightblue" d="M272.144,-94.5244C286.778,-97.7095 302.221,-101.071 316.609,-104.202"/>
<polygon fill="midnightblue" stroke="midnightblue" points="272.68,-91.0593 262.164,-92.3524 271.191,-97.8991 272.68,-91.0593"/>
</g>
<!-- Node77 -->
<g id="node4" class="node"><title>Node77</title>
<g id="a_node4"><a xlink:href="../../d5/dcb/a00170.html#aeff09458fb87bd73b69188560508baf5" target="_top" xlink:title="Overrides ArrayAdapter.getView(int, View, ViewGroup) method. ">
<polygon fill="white" stroke="black" points="298,-67.7372 298,-84.7372 457,-84.7372 457,-67.7372 298,-67.7372"/>
<text text-anchor="middle" x="377.5" y="-74.3372" font-family="Helvetica,sans-Serif" font-size="8.00">project.android.CustomAdapter.getView</text>
</a>
</g>
</g>
<!-- Node75&#45;&gt;Node77 -->
<g id="edge3" class="edge"><title>Node75&#45;&gt;Node77</title>
<path fill="none" stroke="midnightblue" d="M272.252,-78.6901C280.648,-78.4926 289.31,-78.2888 297.884,-78.087"/>
<polygon fill="midnightblue" stroke="midnightblue" points="272.079,-75.1931 262.164,-78.9275 272.244,-82.1912 272.079,-75.1931"/>
</g>
<!-- Node78 -->
<g id="node5" class="node"><title>Node78</title>
<g id="a_node5"><a xlink:href="../../d9/d38/a00166.html#a863b30e1ce16c16e6dba6bebe8d8c45e" target="_top" xlink:title="Returns the View of the clicked list item. ">
<polygon fill="white" stroke="black" points="493,-21.2372 493,-47.2372 612,-47.2372 612,-21.2372 493,-21.2372"/>
<text text-anchor="start" x="501" y="-36.8372" font-family="Helvetica,sans-Serif" font-size="8.00">project.android.Connection</text>
<text text-anchor="middle" x="552.5" y="-27.8372" font-family="Helvetica,sans-Serif" font-size="8.00">Fragment.getViewByPosition</text>
</a>
</g>
</g>
<!-- Node77&#45;&gt;Node78 -->
<g id="edge4" class="edge"><title>Node77&#45;&gt;Node78</title>
<path fill="none" stroke="midnightblue" d="M423.491,-65.3582C434.455,-62.704 446.15,-59.8707 457,-57.2372 470.291,-54.0113 484.632,-50.5242 498.028,-47.2641"/>
<polygon fill="midnightblue" stroke="midnightblue" points="422.568,-61.9804 413.672,-67.7344 424.214,-68.784 422.568,-61.9804"/>
</g>
<!-- Node78&#45;&gt;Node74 -->
<g id="edge5" class="edge"><title>Node78&#45;&gt;Node74</title>
<path fill="none" stroke="midnightblue" d="M494.987,-18.8653C482.565,-16.1094 469.413,-13.663 457,-12.2372 321.005,3.38396 284.852,4.5756 149,-12.2372 132.907,-14.2289 115.577,-18.1198 100.373,-22.1432"/>
<polygon fill="midnightblue" stroke="midnightblue" points="494.233,-22.2832 504.765,-21.1283 495.812,-15.4635 494.233,-22.2832"/>
</g>
<!-- Node79 -->
<g id="node6" class="node"><title>Node79</title>
<g id="a_node6"><a xlink:href="../../d9/d38/a00166.html#af0e6f7c8aa02553792fd18fbb5e98a2e" target="_top" xlink:title="Sets an icon for an active server. ">
<polygon fill="white" stroke="black" points="648,-21.2372 648,-47.2372 761,-47.2372 761,-21.2372 648,-21.2372"/>
<text text-anchor="start" x="656" y="-36.8372" font-family="Helvetica,sans-Serif" font-size="8.00">project.android.Connection</text>
<text text-anchor="middle" x="704.5" y="-27.8372" font-family="Helvetica,sans-Serif" font-size="8.00">Fragment.setIcon</text>
</a>
</g>
</g>
<!-- Node78&#45;&gt;Node79 -->
<g id="edge6" class="edge"><title>Node78&#45;&gt;Node79</title>
<path fill="none" stroke="midnightblue" d="M622.568,-34.2372C631.008,-34.2372 639.547,-34.2372 647.757,-34.2372"/>
<polygon fill="midnightblue" stroke="midnightblue" points="622.353,-30.7373 612.353,-34.2372 622.353,-37.7373 622.353,-30.7373"/>
</g>
<!-- Node80 -->
<g id="node7" class="node"><title>Node80</title>
<g id="a_node7"><a xlink:href="../../dc/d9a/a00218.html#a6b623423ab726a2d5008717960032b6d" target="_top" xlink:title="Overrides the Service.onStartCommand(Intent, int, int) method of the Android API. ...">
<polygon fill="white" stroke="black" points="797,-21.2372 797,-47.2372 913,-47.2372 913,-21.2372 797,-21.2372"/>
<text text-anchor="start" x="805" y="-36.8372" font-family="Helvetica,sans-Serif" font-size="8.00">project.android.net.Network</text>
<text text-anchor="middle" x="855" y="-27.8372" font-family="Helvetica,sans-Serif" font-size="8.00">Service.onStartCommand</text>
</a>
</g>
</g>
<!-- Node79&#45;&gt;Node80 -->
<g id="edge7" class="edge"><title>Node79&#45;&gt;Node80</title>
<path fill="none" stroke="midnightblue" d="M771.486,-34.2372C779.989,-34.2372 788.638,-34.2372 796.979,-34.2372"/>
<polygon fill="midnightblue" stroke="midnightblue" points="771.218,-30.7373 761.218,-34.2372 771.218,-37.7373 771.218,-30.7373"/>
</g>
<!-- Node82 -->
<g id="node9" class="node"><title>Node82</title>
<g id="a_node9"><a xlink:href="../../db/d53/a00202.html#aa57b04eb44ae7982a7a79cdb7c484144" target="_top" xlink:title="Constructor. ">
<polygon fill="white" stroke="black" points="323.5,-22.2372 323.5,-48.2372 431.5,-48.2372 431.5,-22.2372 323.5,-22.2372"/>
<text text-anchor="start" x="331.5" y="-37.8372" font-family="Helvetica,sans-Serif" font-size="8.00">project.android.net.Client</text>
<text text-anchor="middle" x="377.5" y="-28.8372" font-family="Helvetica,sans-Serif" font-size="8.00">IOThread.ClientIOThread</text>
</a>
</g>
</g>
<!-- Node81&#45;&gt;Node82 -->
<g id="edge9" class="edge"><title>Node81&#45;&gt;Node82</title>
<path fill="none" stroke="midnightblue" d="M269.191,-35.2372C287.002,-35.2372 306.219,-35.2372 323.401,-35.2372"/>
<polygon fill="midnightblue" stroke="midnightblue" points="268.893,-31.7373 258.893,-35.2372 268.893,-38.7373 268.893,-31.7373"/>
</g>
</g>
</svg>
