<?xml version="1.0" encoding="UTF-8" standalone="no"?>
<!DOCTYPE svg PUBLIC "-//W3C//DTD SVG 1.1//EN"
 "http://www.w3.org/Graphics/SVG/1.1/DTD/svg11.dtd">
<!-- Generated by graphviz version 2.38.0 (20140413.2041)
 -->
<!-- Title: project.android.ConnectionFragment.getNetworkList Pages: 1 -->
<svg width="916pt" height="115pt"
 viewBox="0.00 0.00 916.00 115.00" xmlns="http://www.w3.org/2000/svg" xmlns:xlink="http://www.w3.org/1999/xlink">
<g id="graph0" class="graph" transform="scale(1 1) rotate(0) translate(4 111)">
<title>project.android.ConnectionFragment.getNetworkList</title>
<polygon fill="white" stroke="none" points="-4,4 -4,-111 912,-111 912,4 -4,4"/>
<!-- Node18 -->
<g id="node1" class="node"><title>Node18</title>
<polygon fill="#bfbfbf" stroke="black" points="0,-39.5 0,-65.5 113,-65.5 113,-39.5 0,-39.5"/>
<text text-anchor="start" x="8" y="-55.1" font-family="Helvetica,sans-Serif" font-size="8.00">project.android.Connection</text>
<text text-anchor="middle" x="56.5" y="-46.1" font-family="Helvetica,sans-Serif" font-size="8.00">Fragment.getNetworkList</text>
</g>
<!-- Node19 -->
<g id="node2" class="node"><title>Node19</title>
<g id="a_node2"><a xlink:href="../../d5/dcb/a00170.html#a9b4dd18431aa7ebd37321a0d2b1d2539" target="_top" xlink:title="Overrides the ArrayAdapter.getCount() method. ">
<polygon fill="white" stroke="black" points="157.5,-80.5 157.5,-106.5 299.5,-106.5 299.5,-80.5 157.5,-80.5"/>
<text text-anchor="start" x="165.5" y="-96.1" font-family="Helvetica,sans-Serif" font-size="8.00">project.android.CustomAdapter.get</text>
<text text-anchor="middle" x="228.5" y="-87.1" font-family="Helvetica,sans-Serif" font-size="8.00">Count</text>
</a>
</g>
</g>
<!-- Node18&#45;&gt;Node19 -->
<g id="edge1" class="edge"><title>Node18&#45;&gt;Node19</title>
<path fill="none" stroke="midnightblue" d="M121.649,-67.9712C138.723,-72.0891 156.994,-76.4956 173.467,-80.4686"/>
<polygon fill="midnightblue" stroke="midnightblue" points="122.298,-64.5276 111.756,-65.5854 120.657,-71.3324 122.298,-64.5276"/>
</g>
<!-- Node20 -->
<g id="node3" class="node"><title>Node20</title>
<g id="a_node3"><a xlink:href="../../d5/dcb/a00170.html#aeff09458fb87bd73b69188560508baf5" target="_top" xlink:title="Overrides ArrayAdapter.getView(int, View, ViewGroup) method. ">
<polygon fill="white" stroke="black" points="149,-44 149,-61 308,-61 308,-44 149,-44"/>
<text text-anchor="middle" x="228.5" y="-50.6" font-family="Helvetica,sans-Serif" font-size="8.00">project.android.CustomAdapter.getView</text>
</a>
</g>
</g>
<!-- Node18&#45;&gt;Node20 -->
<g id="edge2" class="edge"><title>Node18&#45;&gt;Node20</title>
<path fill="none" stroke="midnightblue" d="M123.252,-52.5C131.648,-52.5 140.31,-52.5 148.884,-52.5"/>
<polygon fill="midnightblue" stroke="midnightblue" points="123.164,-49.0001 113.164,-52.5 123.164,-56.0001 123.164,-49.0001"/>
</g>
<!-- Node21 -->
<g id="node4" class="node"><title>Node21</title>
<g id="a_node4"><a xlink:href="../../d9/d38/a00166.html#a863b30e1ce16c16e6dba6bebe8d8c45e" target="_top" xlink:title="Returns the View of the clicked list item. ">
<polygon fill="white" stroke="black" points="344,-42.5 344,-68.5 463,-68.5 463,-42.5 344,-42.5"/>
<text text-anchor="start" x="352" y="-58.1" font-family="Helvetica,sans-Serif" font-size="8.00">project.android.Connection</text>
<text text-anchor="middle" x="403.5" y="-49.1" font-family="Helvetica,sans-Serif" font-size="8.00">Fragment.getViewByPosition</text>
</a>
</g>
</g>
<!-- Node20&#45;&gt;Node21 -->
<g id="edge3" class="edge"><title>Node20&#45;&gt;Node21</title>
<path fill="none" stroke="midnightblue" d="M318.348,-54.0407C327.038,-54.1914 335.697,-54.3416 343.972,-54.4851"/>
<polygon fill="midnightblue" stroke="midnightblue" points="318.213,-50.5379 308.154,-53.8639 318.091,-57.5369 318.213,-50.5379"/>
</g>
<!-- Node22 -->
<g id="node5" class="node"><title>Node22</title>
<g id="a_node5"><a xlink:href="../../d9/d38/a00166.html#a5ae4f9d7872792288afb3de65ab4c2b0" target="_top" xlink:title="Sets an icon for an inactive server. ">
<polygon fill="white" stroke="black" points="499,-0.5 499,-26.5 612,-26.5 612,-0.5 499,-0.5"/>
<text text-anchor="start" x="507" y="-16.1" font-family="Helvetica,sans-Serif" font-size="8.00">project.android.Connection</text>
<text text-anchor="middle" x="555.5" y="-7.1" font-family="Helvetica,sans-Serif" font-size="8.00">Fragment.resetIcon</text>
</a>
</g>
</g>
<!-- Node21&#45;&gt;Node22 -->
<g id="edge4" class="edge"><title>Node21&#45;&gt;Node22</title>
<path fill="none" stroke="midnightblue" d="M461.094,-39.6538C476.531,-35.3313 493.077,-30.6984 507.89,-26.5508"/>
<polygon fill="midnightblue" stroke="midnightblue" points="459.825,-36.3744 451.139,-42.4412 461.712,-43.1152 459.825,-36.3744"/>
</g>
<!-- Node25 -->
<g id="node8" class="node"><title>Node25</title>
<g id="a_node8"><a xlink:href="../../d9/d38/a00166.html#af0e6f7c8aa02553792fd18fbb5e98a2e" target="_top" xlink:title="Sets an icon for an active server. ">
<polygon fill="white" stroke="black" points="499,-45.5 499,-71.5 612,-71.5 612,-45.5 499,-45.5"/>
<text text-anchor="start" x="507" y="-61.1" font-family="Helvetica,sans-Serif" font-size="8.00">project.android.Connection</text>
<text text-anchor="middle" x="555.5" y="-52.1" font-family="Helvetica,sans-Serif" font-size="8.00">Fragment.setIcon</text>
</a>
</g>
</g>
<!-- Node21&#45;&gt;Node25 -->
<g id="edge8" class="edge"><title>Node21&#45;&gt;Node25</title>
<path fill="none" stroke="midnightblue" d="M473.568,-56.8814C482.008,-57.0502 490.547,-57.2209 498.757,-57.3851"/>
<polygon fill="midnightblue" stroke="midnightblue" points="473.421,-53.3778 463.353,-56.6771 473.281,-60.3764 473.421,-53.3778"/>
</g>
<!-- Node22&#45;&gt;Node18 -->
<g id="edge5" class="edge"><title>Node22&#45;&gt;Node18</title>
<path fill="none" stroke="midnightblue" d="M488.386,-14.0373C407.91,-15.3556 268.013,-19.7882 149,-34.5 137.431,-35.9301 125.132,-37.9795 113.429,-40.1869"/>
<polygon fill="midnightblue" stroke="midnightblue" points="488.913,-17.5298 498.859,-13.8779 488.806,-10.5306 488.913,-17.5298"/>
</g>
<!-- Node23 -->
<g id="node6" class="node"><title>Node23</title>
<g id="a_node6"><a xlink:href="../../db/d53/a00202.html#a9f6765867ad54f586cc7b329213a2ac3" target="_top" xlink:title="Performs operations for reading data from a server. ">
<polygon fill="white" stroke="black" points="653,-0.5 653,-26.5 759,-26.5 759,-0.5 653,-0.5"/>
<text text-anchor="start" x="661" y="-16.1" font-family="Helvetica,sans-Serif" font-size="8.00">project.android.net.Client</text>
<text text-anchor="middle" x="706" y="-7.1" font-family="Helvetica,sans-Serif" font-size="8.00">IOThread.run</text>
</a>
</g>
</g>
<!-- Node22&#45;&gt;Node23 -->
<g id="edge6" class="edge"><title>Node22&#45;&gt;Node23</title>
<path fill="none" stroke="midnightblue" d="M622.348,-13.5C632.579,-13.5 643.026,-13.5 652.897,-13.5"/>
<polygon fill="midnightblue" stroke="midnightblue" points="622.218,-10.0001 612.218,-13.5 622.218,-17.0001 622.218,-10.0001"/>
</g>
<!-- Node24 -->
<g id="node7" class="node"><title>Node24</title>
<g id="a_node7"><a xlink:href="../../db/d53/a00202.html#aa57b04eb44ae7982a7a79cdb7c484144" target="_top" xlink:title="Constructor. ">
<polygon fill="white" stroke="black" points="800,-0.5 800,-26.5 908,-26.5 908,-0.5 800,-0.5"/>
<text text-anchor="start" x="808" y="-16.1" font-family="Helvetica,sans-Serif" font-size="8.00">project.android.net.Client</text>
<text text-anchor="middle" x="854" y="-7.1" font-family="Helvetica,sans-Serif" font-size="8.00">IOThread.ClientIOThread</text>
</a>
</g>
</g>
<!-- Node23&#45;&gt;Node24 -->
<g id="edge7" class="edge"><title>Node23&#45;&gt;Node24</title>
<path fill="none" stroke="midnightblue" d="M769.583,-13.5C779.577,-13.5 789.837,-13.5 799.593,-13.5"/>
<polygon fill="midnightblue" stroke="midnightblue" points="769.297,-10.0001 759.297,-13.5 769.297,-17.0001 769.297,-10.0001"/>
</g>
<!-- Node26 -->
<g id="node9" class="node"><title>Node26</title>
<g id="a_node9"><a xlink:href="../../dc/d9a/a00218.html#a6b623423ab726a2d5008717960032b6d" target="_top" xlink:title="Overrides the Service.onStartCommand(Intent, int, int) method of the Android API. ...">
<polygon fill="white" stroke="black" points="648,-45.5 648,-71.5 764,-71.5 764,-45.5 648,-45.5"/>
<text text-anchor="start" x="656" y="-61.1" font-family="Helvetica,sans-Serif" font-size="8.00">project.android.net.Network</text>
<text text-anchor="middle" x="706" y="-52.1" font-family="Helvetica,sans-Serif" font-size="8.00">Service.onStartCommand</text>
</a>
</g>
</g>
<!-- Node25&#45;&gt;Node26 -->
<g id="edge9" class="edge"><title>Node25&#45;&gt;Node26</title>
<path fill="none" stroke="midnightblue" d="M622.486,-58.5C630.989,-58.5 639.638,-58.5 647.979,-58.5"/>
<polygon fill="midnightblue" stroke="midnightblue" points="622.218,-55.0001 612.218,-58.5 622.218,-62.0001 622.218,-55.0001"/>
</g>
</g>
</svg>
