<?xml version="1.0" encoding="UTF-8" standalone="no"?>
<!DOCTYPE svg PUBLIC "-//W3C//DTD SVG 1.1//EN"
 "http://www.w3.org/Graphics/SVG/1.1/DTD/svg11.dtd">
<!-- Generated by graphviz version 2.38.0 (20140413.2041)
 -->
<!-- Title: project.android.ConnectionFragment.getViewByPosition Pages: 1 -->
<svg width="960pt" height="207pt"
 viewBox="0.00 0.00 960.00 207.00" xmlns="http://www.w3.org/2000/svg" xmlns:xlink="http://www.w3.org/1999/xlink">
<g id="graph0" class="graph" transform="scale(1 1) rotate(0) translate(4 203)">
<title>project.android.ConnectionFragment.getViewByPosition</title>
<polygon fill="white" stroke="none" points="-4,4 -4,-203 956,-203 956,4 -4,4"/>
<!-- Node27 -->
<g id="node1" class="node"><title>Node27</title>
<polygon fill="#bfbfbf" stroke="black" points="0,-32.5 0,-58.5 119,-58.5 119,-32.5 0,-32.5"/>
<text text-anchor="start" x="8" y="-48.1" font-family="Helvetica,sans-Serif" font-size="8.00">project.android.Connection</text>
<text text-anchor="middle" x="59.5" y="-39.1" font-family="Helvetica,sans-Serif" font-size="8.00">Fragment.getViewByPosition</text>
</g>
<!-- Node28 -->
<g id="node2" class="node"><title>Node28</title>
<g id="a_node2"><a xlink:href="../../d5/dcb/a00170.html#aeff09458fb87bd73b69188560508baf5" target="_top" xlink:title="Overrides ArrayAdapter.getView(int, View, ViewGroup) method. ">
<polygon fill="white" stroke="black" points="155,-69 155,-86 314,-86 314,-69 155,-69"/>
<text text-anchor="middle" x="234.5" y="-75.6" font-family="Helvetica,sans-Serif" font-size="8.00">project.android.CustomAdapter.getView</text>
</a>
</g>
</g>
<!-- Node27&#45;&gt;Node28 -->
<g id="edge1" class="edge"><title>Node27&#45;&gt;Node28</title>
<path fill="none" stroke="midnightblue" d="M119.07,-56.3337C137.932,-59.8226 158.778,-63.6786 177.454,-67.133"/>
<polygon fill="midnightblue" stroke="midnightblue" points="176.819,-70.5749 187.288,-68.9522 178.092,-63.6916 176.819,-70.5749"/>
</g>
<!-- Node29 -->
<g id="node3" class="node"><title>Node29</title>
<g id="a_node3"><a xlink:href="../../d9/d38/a00166.html#aee2a392b8b0500023dba15b60d3315d2" target="_top" xlink:title="Returns a list of ServerInfo objects. ">
<polygon fill="white" stroke="black" points="350,-87.5 350,-113.5 463,-113.5 463,-87.5 350,-87.5"/>
<text text-anchor="start" x="358" y="-103.1" font-family="Helvetica,sans-Serif" font-size="8.00">project.android.Connection</text>
<text text-anchor="middle" x="406.5" y="-94.1" font-family="Helvetica,sans-Serif" font-size="8.00">Fragment.getNetworkList</text>
</a>
</g>
</g>
<!-- Node28&#45;&gt;Node29 -->
<g id="edge2" class="edge"><title>Node28&#45;&gt;Node29</title>
<path fill="none" stroke="midnightblue" d="M298.802,-86.0644C312.192,-87.876 326.352,-89.7918 339.828,-91.6149"/>
<polygon fill="midnightblue" stroke="midnightblue" points="339.596,-95.1154 349.975,-92.9878 340.535,-88.1786 339.596,-95.1154"/>
</g>
<!-- Node31 -->
<g id="node5" class="node"><title>Node31</title>
<g id="a_node5"><a xlink:href="../../d0/d24/a00222.html#a914c65a49cf5940901d475693ee8e205" target="_top" xlink:title="Returns the IPv4 address of the server. ">
<polygon fill="white" stroke="black" points="507,-172.5 507,-198.5 617,-198.5 617,-172.5 507,-172.5"/>
<text text-anchor="start" x="515" y="-188.1" font-family="Helvetica,sans-Serif" font-size="8.00">project.android.net.Server</text>
<text text-anchor="middle" x="562" y="-179.1" font-family="Helvetica,sans-Serif" font-size="8.00">Info.getAddress</text>
</a>
</g>
</g>
<!-- Node28&#45;&gt;Node31 -->
<g id="edge13" class="edge"><title>Node28&#45;&gt;Node31</title>
<path fill="none" stroke="midnightblue" d="M255.139,-86.0622C277.773,-95.7721 316.2,-111.775 350,-123.5 400.593,-141.05 459.084,-157.98 501.632,-169.701"/>
<polygon fill="midnightblue" stroke="midnightblue" points="500.976,-173.151 511.546,-172.418 502.826,-166.4 500.976,-173.151"/>
</g>
<!-- Node38 -->
<g id="node12" class="node"><title>Node38</title>
<g id="a_node12"><a xlink:href="../../d0/d24/a00222.html#adc1c8edd1eafda5cad71f9babd18dfd4" target="_top" xlink:title="Returns the canonical host name of the server. ">
<polygon fill="white" stroke="black" points="351.5,-42.5 351.5,-68.5 461.5,-68.5 461.5,-42.5 351.5,-42.5"/>
<text text-anchor="start" x="359.5" y="-58.1" font-family="Helvetica,sans-Serif" font-size="8.00">project.android.net.Server</text>
<text text-anchor="middle" x="406.5" y="-49.1" font-family="Helvetica,sans-Serif" font-size="8.00">Info.getServerInfo</text>
</a>
</g>
</g>
<!-- Node28&#45;&gt;Node38 -->
<g id="edge12" class="edge"><title>Node28&#45;&gt;Node38</title>
<path fill="none" stroke="midnightblue" d="M301.226,-68.9942C314.276,-67.3055 327.965,-65.534 340.974,-63.8505"/>
<polygon fill="midnightblue" stroke="midnightblue" points="341.767,-67.277 351.235,-62.5225 340.869,-60.3349 341.767,-67.277"/>
</g>
<!-- Node30 -->
<g id="node4" class="node"><title>Node30</title>
<g id="a_node4"><a xlink:href="../../d9/d38/a00166.html#a5ae4f9d7872792288afb3de65ab4c2b0" target="_top" xlink:title="Sets an icon for an inactive server. ">
<polygon fill="white" stroke="black" points="505.5,-0.5 505.5,-26.5 618.5,-26.5 618.5,-0.5 505.5,-0.5"/>
<text text-anchor="start" x="513.5" y="-16.1" font-family="Helvetica,sans-Serif" font-size="8.00">project.android.Connection</text>
<text text-anchor="middle" x="562" y="-7.1" font-family="Helvetica,sans-Serif" font-size="8.00">Fragment.resetIcon</text>
</a>
</g>
</g>
<!-- Node29&#45;&gt;Node30 -->
<g id="edge3" class="edge"><title>Node29&#45;&gt;Node30</title>
<path fill="none" stroke="midnightblue" d="M445.753,-87.3811C451.777,-84.5562 457.743,-81.2655 463,-77.5 482.714,-63.3794 479.023,-50.2471 499,-36.5 501.877,-34.52 504.946,-32.6858 508.121,-30.9907"/>
<polygon fill="midnightblue" stroke="midnightblue" points="509.788,-34.0726 517.275,-26.5763 506.747,-27.7674 509.788,-34.0726"/>
</g>
<!-- Node29&#45;&gt;Node31 -->
<g id="edge5" class="edge"><title>Node29&#45;&gt;Node31</title>
<path fill="none" stroke="midnightblue" d="M423.867,-113.743C441.561,-127.574 471,-149.207 499,-163.5 502.505,-165.289 506.189,-166.995 509.941,-168.608"/>
<polygon fill="midnightblue" stroke="midnightblue" points="508.762,-171.906 519.344,-172.42 511.392,-165.419 508.762,-171.906"/>
</g>
<!-- Node32 -->
<g id="node6" class="node"><title>Node32</title>
<g id="a_node6"><a xlink:href="../../d0/d24/a00222.html#a19b6bb0a1264932dfc136820ec21620f" target="_top" xlink:title="Sets the pairing key used during client&#45;server authentication. ">
<polygon fill="white" stroke="black" points="507,-127.5 507,-153.5 617,-153.5 617,-127.5 507,-127.5"/>
<text text-anchor="start" x="515" y="-143.1" font-family="Helvetica,sans-Serif" font-size="8.00">project.android.net.Server</text>
<text text-anchor="middle" x="562" y="-134.1" font-family="Helvetica,sans-Serif" font-size="8.00">Info.setPairingKey</text>
</a>
</g>
</g>
<!-- Node29&#45;&gt;Node32 -->
<g id="edge6" class="edge"><title>Node29&#45;&gt;Node32</title>
<path fill="none" stroke="midnightblue" d="M457.762,-113.597C471.615,-117.207 486.78,-121.159 501.119,-124.896"/>
<polygon fill="midnightblue" stroke="midnightblue" points="500.328,-128.307 510.888,-127.441 502.093,-121.533 500.328,-128.307"/>
</g>
<!-- Node33 -->
<g id="node7" class="node"><title>Node33</title>
<g id="a_node7"><a xlink:href="../../dc/d57/a00194.html#aa23e2b087d09db0524a34b73cd5e07d3" target="_top" xlink:title="Sends a stop signal if the user disconnects the server. ">
<polygon fill="white" stroke="black" points="499.5,-82.5 499.5,-108.5 624.5,-108.5 624.5,-82.5 499.5,-82.5"/>
<text text-anchor="start" x="507.5" y="-98.1" font-family="Helvetica,sans-Serif" font-size="8.00">project.android.net.Client.send</text>
<text text-anchor="middle" x="562" y="-89.1" font-family="Helvetica,sans-Serif" font-size="8.00">StopSignal</text>
</a>
</g>
</g>
<!-- Node29&#45;&gt;Node33 -->
<g id="edge7" class="edge"><title>Node29&#45;&gt;Node33</title>
<path fill="none" stroke="midnightblue" d="M463.351,-98.6807C471.792,-98.4058 480.598,-98.119 489.316,-97.835"/>
<polygon fill="midnightblue" stroke="midnightblue" points="489.603,-101.328 499.484,-97.5038 489.375,-94.3313 489.603,-101.328"/>
</g>
<!-- Node37 -->
<g id="node11" class="node"><title>Node37</title>
<g id="a_node11"><a xlink:href="../../dc/d57/a00194.html#a2f8cb3f32f139e5c370c8b74f539368a" target="_top" xlink:title="Closes the client socket. ">
<polygon fill="white" stroke="black" points="499,-46 499,-63 625,-63 625,-46 499,-46"/>
<text text-anchor="middle" x="562" y="-52.6" font-family="Helvetica,sans-Serif" font-size="8.00">project.android.net.Client.close</text>
</a>
</g>
</g>
<!-- Node29&#45;&gt;Node37 -->
<g id="edge11" class="edge"><title>Node29&#45;&gt;Node37</title>
<path fill="none" stroke="midnightblue" d="M449.827,-87.4084C465.287,-82.6636 482.921,-77.294 499,-72.5 506.319,-70.3178 514.134,-68.0221 521.663,-65.8278"/>
<polygon fill="midnightblue" stroke="midnightblue" points="522.703,-69.1704 531.33,-63.0197 520.751,-62.4483 522.703,-69.1704"/>
</g>
<!-- Node30&#45;&gt;Node27 -->
<g id="edge4" class="edge"><title>Node30&#45;&gt;Node27</title>
<path fill="none" stroke="midnightblue" d="M505.402,-17.0547C413.354,-22.9399 229.538,-34.6924 129.4,-41.0948"/>
<polygon fill="midnightblue" stroke="midnightblue" points="129.142,-37.6041 119.385,-41.7351 129.588,-44.5898 129.142,-37.6041"/>
</g>
<!-- Node34 -->
<g id="node8" class="node"><title>Node34</title>
<g id="a_node8"><a xlink:href="../../dc/d57/a00194.html#a3d6c629d64e1911979c9f483c8785b5f" target="_top" xlink:title="Sends mouse button or keyboard data. ">
<polygon fill="white" stroke="black" points="661,-87 661,-104 804,-104 804,-87 661,-87"/>
<text text-anchor="middle" x="732.5" y="-93.6" font-family="Helvetica,sans-Serif" font-size="8.00">project.android.net.Client.sendData</text>
</a>
</g>
</g>
<!-- Node33&#45;&gt;Node34 -->
<g id="edge8" class="edge"><title>Node33&#45;&gt;Node34</title>
<path fill="none" stroke="midnightblue" d="M624.786,-95.5C633.225,-95.5 641.988,-95.5 650.702,-95.5"/>
<polygon fill="midnightblue" stroke="midnightblue" points="650.886,-99.0001 660.886,-95.5 650.886,-92.0001 650.886,-99.0001"/>
</g>
<!-- Node35 -->
<g id="node9" class="node"><title>Node35</title>
<g id="a_node9"><a xlink:href="../../da/de7/a00210.html#af8add0417bec5bd0d019410c91f69e38" target="_top" xlink:title="Returns a JSon&#45;string of an object. ">
<polygon fill="white" stroke="black" points="844.5,-105.5 844.5,-131.5 947.5,-131.5 947.5,-105.5 844.5,-105.5"/>
<text text-anchor="start" x="852.5" y="-121.1" font-family="Helvetica,sans-Serif" font-size="8.00">project.android.net.Data</text>
<text text-anchor="middle" x="896" y="-112.1" font-family="Helvetica,sans-Serif" font-size="8.00">Wrapper.getGsonString</text>
</a>
</g>
</g>
<!-- Node34&#45;&gt;Node35 -->
<g id="edge9" class="edge"><title>Node34&#45;&gt;Node35</title>
<path fill="none" stroke="midnightblue" d="M793.637,-104.064C806.929,-105.957 821.02,-107.964 834.333,-109.86"/>
<polygon fill="midnightblue" stroke="midnightblue" points="833.943,-113.34 844.337,-111.285 834.93,-106.41 833.943,-113.34"/>
</g>
<!-- Node36 -->
<g id="node10" class="node"><title>Node36</title>
<g id="a_node10"><a xlink:href="../../dc/d55/a00226.html#a73624750dc6ff111d72bcb4b54c4995c" target="_top" xlink:title="Encrypts plaintext using AES 256&#45;bit encryption algorithm. ">
<polygon fill="white" stroke="black" points="840,-60.5 840,-86.5 952,-86.5 952,-60.5 840,-60.5"/>
<text text-anchor="start" x="848" y="-76.1" font-family="Helvetica,sans-Serif" font-size="8.00">project.android.security.</text>
<text text-anchor="middle" x="896" y="-67.1" font-family="Helvetica,sans-Serif" font-size="8.00">EKEProvider.encryptString</text>
</a>
</g>
</g>
<!-- Node34&#45;&gt;Node36 -->
<g id="edge10" class="edge"><title>Node34&#45;&gt;Node36</title>
<path fill="none" stroke="midnightblue" d="M795.94,-86.9942C807.017,-85.4853 818.58,-83.9102 829.733,-82.3909"/>
<polygon fill="midnightblue" stroke="midnightblue" points="830.399,-85.8326 839.835,-81.0148 829.454,-78.8967 830.399,-85.8326"/>
</g>
</g>
</svg>
