<?xml version="1.0" encoding="UTF-8" standalone="no"?>
<!DOCTYPE svg PUBLIC "-//W3C//DTD SVG 1.1//EN"
 "http://www.w3.org/Graphics/SVG/1.1/DTD/svg11.dtd">
<!-- Generated by graphviz version 2.38.0 (20140413.2041)
 -->
<!-- Title: project.android.ConnectionFragment.getNetworkList Pages: 1 -->
<svg width="803pt" height="270pt"
 viewBox="0.00 0.00 803.00 270.49" xmlns="http://www.w3.org/2000/svg" xmlns:xlink="http://www.w3.org/1999/xlink">
<g id="graph0" class="graph" transform="scale(1 1) rotate(0) translate(4 266.487)">
<title>project.android.ConnectionFragment.getNetworkList</title>
<polygon fill="white" stroke="none" points="-4,4 -4,-266.487 799,-266.487 799,4 -4,4"/>
<!-- Node6 -->
<g id="node1" class="node"><title>Node6</title>
<polygon fill="#bfbfbf" stroke="black" points="0,-126.5 0,-152.5 113,-152.5 113,-126.5 0,-126.5"/>
<text text-anchor="start" x="8" y="-142.1" font-family="Helvetica,sans-Serif" font-size="8.00">project.android.Connection</text>
<text text-anchor="middle" x="56.5" y="-133.1" font-family="Helvetica,sans-Serif" font-size="8.00">Fragment.getNetworkList</text>
</g>
<!-- Node7 -->
<g id="node2" class="node"><title>Node7</title>
<g id="a_node2"><a xlink:href="../../d9/d38/a00166.html#a5ae4f9d7872792288afb3de65ab4c2b0" target="_top" xlink:title="Sets an icon for an inactive server. ">
<polygon fill="white" stroke="black" points="155.5,-104.5 155.5,-130.5 268.5,-130.5 268.5,-104.5 155.5,-104.5"/>
<text text-anchor="start" x="163.5" y="-120.1" font-family="Helvetica,sans-Serif" font-size="8.00">project.android.Connection</text>
<text text-anchor="middle" x="212" y="-111.1" font-family="Helvetica,sans-Serif" font-size="8.00">Fragment.resetIcon</text>
</a>
</g>
</g>
<!-- Node6&#45;&gt;Node7 -->
<g id="edge1" class="edge"><title>Node6&#45;&gt;Node7</title>
<path fill="none" stroke="midnightblue" d="M113.351,-131.495C123.745,-130.006 134.692,-128.437 145.348,-126.909"/>
<polygon fill="midnightblue" stroke="midnightblue" points="146.045,-130.345 155.447,-125.462 145.052,-123.416 146.045,-130.345"/>
</g>
<!-- Node11 -->
<g id="node6" class="node"><title>Node11</title>
<g id="a_node6"><a xlink:href="../../d0/d24/a00222.html#a914c65a49cf5940901d475693ee8e205" target="_top" xlink:title="Returns the IPv4 address of the server. ">
<polygon fill="white" stroke="black" points="685,-229.5 685,-255.5 795,-255.5 795,-229.5 685,-229.5"/>
<text text-anchor="start" x="693" y="-245.1" font-family="Helvetica,sans-Serif" font-size="8.00">project.android.net.Server</text>
<text text-anchor="middle" x="740" y="-236.1" font-family="Helvetica,sans-Serif" font-size="8.00">Info.getAddress</text>
</a>
</g>
</g>
<!-- Node6&#45;&gt;Node11 -->
<g id="edge7" class="edge"><title>Node6&#45;&gt;Node11</title>
<path fill="none" stroke="midnightblue" d="M69.6611,-152.575C85.9403,-169.107 116.549,-196.927 149,-209.5 328.966,-279.225 563.049,-264.293 674.523,-251.475"/>
<polygon fill="midnightblue" stroke="midnightblue" points="675.08,-254.933 684.6,-250.283 674.258,-247.982 675.08,-254.933"/>
</g>
<!-- Node12 -->
<g id="node7" class="node"><title>Node12</title>
<g id="a_node7"><a xlink:href="../../d0/d24/a00222.html#a19b6bb0a1264932dfc136820ec21620f" target="_top" xlink:title="Sets the pairing key used during client&#45;server authentication. ">
<polygon fill="white" stroke="black" points="157,-149.5 157,-175.5 267,-175.5 267,-149.5 157,-149.5"/>
<text text-anchor="start" x="165" y="-165.1" font-family="Helvetica,sans-Serif" font-size="8.00">project.android.net.Server</text>
<text text-anchor="middle" x="212" y="-156.1" font-family="Helvetica,sans-Serif" font-size="8.00">Info.setPairingKey</text>
</a>
</g>
</g>
<!-- Node6&#45;&gt;Node12 -->
<g id="edge8" class="edge"><title>Node6&#45;&gt;Node12</title>
<path fill="none" stroke="midnightblue" d="M113.351,-147.869C124.246,-149.501 135.749,-151.225 146.887,-152.893"/>
<polygon fill="midnightblue" stroke="midnightblue" points="146.576,-156.386 156.985,-154.406 147.614,-149.463 146.576,-156.386"/>
</g>
<!-- Node13 -->
<g id="node8" class="node"><title>Node13</title>
<g id="a_node8"><a xlink:href="../../dc/d57/a00194.html#aa23e2b087d09db0524a34b73cd5e07d3" target="_top" xlink:title="Sends a stop signal if the user disconnects the server. ">
<polygon fill="white" stroke="black" points="149.5,-22.5 149.5,-48.5 274.5,-48.5 274.5,-22.5 149.5,-22.5"/>
<text text-anchor="start" x="157.5" y="-38.1" font-family="Helvetica,sans-Serif" font-size="8.00">project.android.net.Client.send</text>
<text text-anchor="middle" x="212" y="-29.1" font-family="Helvetica,sans-Serif" font-size="8.00">StopSignal</text>
</a>
</g>
</g>
<!-- Node6&#45;&gt;Node13 -->
<g id="edge9" class="edge"><title>Node6&#45;&gt;Node13</title>
<path fill="none" stroke="midnightblue" d="M69.3387,-126.337C85.7345,-108.782 116.972,-77.6949 149,-58.5 152.447,-56.4344 156.11,-54.5036 159.866,-52.7095"/>
<polygon fill="midnightblue" stroke="midnightblue" points="161.59,-55.7744 169.323,-48.5323 158.761,-49.3712 161.59,-55.7744"/>
</g>
<!-- Node17 -->
<g id="node12" class="node"><title>Node17</title>
<g id="a_node12"><a xlink:href="../../dc/d57/a00194.html#a2f8cb3f32f139e5c370c8b74f539368a" target="_top" xlink:title="Closes the client socket. ">
<polygon fill="white" stroke="black" points="149,-68 149,-85 275,-85 275,-68 149,-68"/>
<text text-anchor="middle" x="212" y="-74.6" font-family="Helvetica,sans-Serif" font-size="8.00">project.android.net.Client.close</text>
</a>
</g>
</g>
<!-- Node6&#45;&gt;Node17 -->
<g id="edge13" class="edge"><title>Node6&#45;&gt;Node17</title>
<path fill="none" stroke="midnightblue" d="M81.0683,-126.487C99.2515,-116.8 125.232,-103.714 149,-94.5 154.967,-92.1871 161.356,-90.0105 167.682,-88.0245"/>
<polygon fill="midnightblue" stroke="midnightblue" points="168.935,-91.3024 177.502,-85.0683 166.917,-84.5996 168.935,-91.3024"/>
</g>
<!-- Node8 -->
<g id="node3" class="node"><title>Node8</title>
<g id="a_node3"><a xlink:href="../../d9/d38/a00166.html#a863b30e1ce16c16e6dba6bebe8d8c45e" target="_top" xlink:title="Returns the View of the clicked list item. ">
<polygon fill="white" stroke="black" points="323,-126.5 323,-152.5 442,-152.5 442,-126.5 323,-126.5"/>
<text text-anchor="start" x="331" y="-142.1" font-family="Helvetica,sans-Serif" font-size="8.00">project.android.Connection</text>
<text text-anchor="middle" x="382.5" y="-133.1" font-family="Helvetica,sans-Serif" font-size="8.00">Fragment.getViewByPosition</text>
</a>
</g>
</g>
<!-- Node7&#45;&gt;Node8 -->
<g id="edge2" class="edge"><title>Node7&#45;&gt;Node8</title>
<path fill="none" stroke="midnightblue" d="M268.64,-124.765C282.738,-126.605 298.048,-128.604 312.711,-130.519"/>
<polygon fill="midnightblue" stroke="midnightblue" points="312.367,-134.003 322.736,-131.828 313.273,-127.062 312.367,-134.003"/>
</g>
<!-- Node9 -->
<g id="node4" class="node"><title>Node9</title>
<g id="a_node4"><a xlink:href="../../d5/dcb/a00170.html#aeff09458fb87bd73b69188560508baf5" target="_top" xlink:title="Overrides ArrayAdapter.getView(int, View, ViewGroup) method. ">
<polygon fill="white" stroke="black" points="490,-192 490,-209 649,-209 649,-192 490,-192"/>
<text text-anchor="middle" x="569.5" y="-198.6" font-family="Helvetica,sans-Serif" font-size="8.00">project.android.CustomAdapter.getView</text>
</a>
</g>
</g>
<!-- Node8&#45;&gt;Node9 -->
<g id="edge3" class="edge"><title>Node8&#45;&gt;Node9</title>
<path fill="none" stroke="midnightblue" d="M423.187,-152.586C455.76,-163.326 501.472,-178.399 532.882,-188.756"/>
<polygon fill="midnightblue" stroke="midnightblue" points="531.949,-192.133 542.542,-191.941 534.141,-185.485 531.949,-192.133"/>
</g>
<!-- Node9&#45;&gt;Node6 -->
<g id="edge4" class="edge"><title>Node9&#45;&gt;Node6</title>
<path fill="none" stroke="midnightblue" d="M489.764,-207.572C404.379,-212.974 264.779,-215.16 149,-185.5 126.559,-179.751 103.26,-167.939 85.789,-157.724"/>
<polygon fill="midnightblue" stroke="midnightblue" points="87.5926,-154.725 77.2194,-152.569 83.984,-160.723 87.5926,-154.725"/>
</g>
<!-- Node10 -->
<g id="node5" class="node"><title>Node10</title>
<g id="a_node5"><a xlink:href="../../d0/d24/a00222.html#adc1c8edd1eafda5cad71f9babd18dfd4" target="_top" xlink:title="Returns the canonical host name of the server. ">
<polygon fill="white" stroke="black" points="685,-184.5 685,-210.5 795,-210.5 795,-184.5 685,-184.5"/>
<text text-anchor="start" x="693" y="-200.1" font-family="Helvetica,sans-Serif" font-size="8.00">project.android.net.Server</text>
<text text-anchor="middle" x="740" y="-191.1" font-family="Helvetica,sans-Serif" font-size="8.00">Info.getServerInfo</text>
</a>
</g>
</g>
<!-- Node9&#45;&gt;Node10 -->
<g id="edge5" class="edge"><title>Node9&#45;&gt;Node10</title>
<path fill="none" stroke="midnightblue" d="M649.323,-199.097C657.755,-198.947 666.259,-198.795 674.496,-198.648"/>
<polygon fill="midnightblue" stroke="midnightblue" points="674.826,-202.143 684.762,-198.466 674.701,-195.144 674.826,-202.143"/>
</g>
<!-- Node9&#45;&gt;Node11 -->
<g id="edge6" class="edge"><title>Node9&#45;&gt;Node11</title>
<path fill="none" stroke="midnightblue" d="M605.005,-209.101C625.653,-214.247 652.512,-220.942 676.757,-226.985"/>
<polygon fill="midnightblue" stroke="midnightblue" points="676.056,-230.418 686.606,-229.44 677.749,-223.626 676.056,-230.418"/>
</g>
<!-- Node14 -->
<g id="node9" class="node"><title>Node14</title>
<g id="a_node9"><a xlink:href="../../dc/d57/a00194.html#a3d6c629d64e1911979c9f483c8785b5f" target="_top" xlink:title="Sends mouse button or keyboard data. ">
<polygon fill="white" stroke="black" points="311,-27 311,-44 454,-44 454,-27 311,-27"/>
<text text-anchor="middle" x="382.5" y="-33.6" font-family="Helvetica,sans-Serif" font-size="8.00">project.android.net.Client.sendData</text>
</a>
</g>
</g>
<!-- Node13&#45;&gt;Node14 -->
<g id="edge10" class="edge"><title>Node13&#45;&gt;Node14</title>
<path fill="none" stroke="midnightblue" d="M274.786,-35.5C283.225,-35.5 291.988,-35.5 300.702,-35.5"/>
<polygon fill="midnightblue" stroke="midnightblue" points="300.886,-39.0001 310.886,-35.5 300.886,-32.0001 300.886,-39.0001"/>
</g>
<!-- Node15 -->
<g id="node10" class="node"><title>Node15</title>
<g id="a_node10"><a xlink:href="../../da/de7/a00210.html#af8add0417bec5bd0d019410c91f69e38" target="_top" xlink:title="Returns a JSon&#45;string of an object. ">
<polygon fill="white" stroke="black" points="518,-45.5 518,-71.5 621,-71.5 621,-45.5 518,-45.5"/>
<text text-anchor="start" x="526" y="-61.1" font-family="Helvetica,sans-Serif" font-size="8.00">project.android.net.Data</text>
<text text-anchor="middle" x="569.5" y="-52.1" font-family="Helvetica,sans-Serif" font-size="8.00">Wrapper.getGsonString</text>
</a>
</g>
</g>
<!-- Node14&#45;&gt;Node15 -->
<g id="edge11" class="edge"><title>Node14&#45;&gt;Node15</title>
<path fill="none" stroke="midnightblue" d="M452.124,-44.0317C470.348,-46.2973 489.898,-48.7279 507.674,-50.9379"/>
<polygon fill="midnightblue" stroke="midnightblue" points="507.556,-54.4501 517.912,-52.2106 508.42,-47.5035 507.556,-54.4501"/>
</g>
<!-- Node16 -->
<g id="node11" class="node"><title>Node16</title>
<g id="a_node11"><a xlink:href="../../dc/d55/a00226.html#a73624750dc6ff111d72bcb4b54c4995c" target="_top" xlink:title="Encrypts plaintext using AES 256&#45;bit encryption algorithm. ">
<polygon fill="white" stroke="black" points="513.5,-0.5 513.5,-26.5 625.5,-26.5 625.5,-0.5 513.5,-0.5"/>
<text text-anchor="start" x="521.5" y="-16.1" font-family="Helvetica,sans-Serif" font-size="8.00">project.android.security.</text>
<text text-anchor="middle" x="569.5" y="-7.1" font-family="Helvetica,sans-Serif" font-size="8.00">EKEProvider.encryptString</text>
</a>
</g>
</g>
<!-- Node14&#45;&gt;Node16 -->
<g id="edge12" class="edge"><title>Node14&#45;&gt;Node16</title>
<path fill="none" stroke="midnightblue" d="M454.232,-27.0886C470.298,-25.1781 487.293,-23.1571 503.124,-21.2744"/>
<polygon fill="midnightblue" stroke="midnightblue" points="503.822,-24.7162 513.338,-20.0598 502.995,-17.7652 503.822,-24.7162"/>
</g>
</g>
</svg>
