<?xml version="1.0" encoding="UTF-8" standalone="no"?>
<!DOCTYPE svg PUBLIC "-//W3C//DTD SVG 1.1//EN"
 "http://www.w3.org/Graphics/SVG/1.1/DTD/svg11.dtd">
<!-- Generated by graphviz version 2.38.0 (20140413.2041)
 -->
<!-- Title: project.android.ConnectionFragment.setIcon Pages: 1 -->
<svg width="1109pt" height="207pt"
 viewBox="0.00 0.00 1109.00 207.00" xmlns="http://www.w3.org/2000/svg" xmlns:xlink="http://www.w3.org/1999/xlink">
<g id="graph0" class="graph" transform="scale(1 1) rotate(0) translate(4 203)">
<title>project.android.ConnectionFragment.setIcon</title>
<polygon fill="white" stroke="none" points="-4,4 -4,-203 1105,-203 1105,4 -4,4"/>
<!-- Node97 -->
<g id="node1" class="node"><title>Node97</title>
<polygon fill="#bfbfbf" stroke="black" points="0,-22.5 0,-48.5 113,-48.5 113,-22.5 0,-22.5"/>
<text text-anchor="start" x="8" y="-38.1" font-family="Helvetica,sans-Serif" font-size="8.00">project.android.Connection</text>
<text text-anchor="middle" x="56.5" y="-29.1" font-family="Helvetica,sans-Serif" font-size="8.00">Fragment.setIcon</text>
</g>
<!-- Node98 -->
<g id="node2" class="node"><title>Node98</title>
<g id="a_node2"><a xlink:href="../../d9/d38/a00166.html#a863b30e1ce16c16e6dba6bebe8d8c45e" target="_top" xlink:title="Returns the View of the clicked list item. ">
<polygon fill="white" stroke="black" points="149,-64.5 149,-90.5 268,-90.5 268,-64.5 149,-64.5"/>
<text text-anchor="start" x="157" y="-80.1" font-family="Helvetica,sans-Serif" font-size="8.00">project.android.Connection</text>
<text text-anchor="middle" x="208.5" y="-71.1" font-family="Helvetica,sans-Serif" font-size="8.00">Fragment.getViewByPosition</text>
</a>
</g>
</g>
<!-- Node97&#45;&gt;Node98 -->
<g id="edge1" class="edge"><title>Node97&#45;&gt;Node98</title>
<path fill="none" stroke="midnightblue" d="M104.139,-48.5588C118.954,-52.7071 135.5,-57.3401 150.936,-61.6622"/>
<polygon fill="midnightblue" stroke="midnightblue" points="150.317,-65.1232 160.89,-64.4492 152.204,-58.3825 150.317,-65.1232"/>
</g>
<!-- Node102 -->
<g id="node6" class="node"><title>Node102</title>
<g id="a_node6"><a xlink:href="../../d0/d24/a00222.html#a914c65a49cf5940901d475693ee8e205" target="_top" xlink:title="Returns the IPv4 address of the server. ">
<polygon fill="white" stroke="black" points="656,-0.5 656,-26.5 766,-26.5 766,-0.5 656,-0.5"/>
<text text-anchor="start" x="664" y="-16.1" font-family="Helvetica,sans-Serif" font-size="8.00">project.android.net.Server</text>
<text text-anchor="middle" x="711" y="-7.1" font-family="Helvetica,sans-Serif" font-size="8.00">Info.getAddress</text>
</a>
</g>
</g>
<!-- Node97&#45;&gt;Node102 -->
<g id="edge16" class="edge"><title>Node97&#45;&gt;Node102</title>
<path fill="none" stroke="midnightblue" d="M113.22,-31.6652C196.924,-26.1157 360.124,-16.1149 499,-12.5 549.205,-11.1932 561.778,-12.2438 612,-12.5 622.877,-12.5555 634.434,-12.6456 645.651,-12.7497"/>
<polygon fill="midnightblue" stroke="midnightblue" points="645.795,-16.2511 655.829,-12.8485 645.863,-9.25145 645.795,-16.2511"/>
</g>
<!-- Node109 -->
<g id="node13" class="node"><title>Node109</title>
<g id="a_node13"><a xlink:href="../../d0/d24/a00222.html#adc1c8edd1eafda5cad71f9babd18dfd4" target="_top" xlink:title="Returns the canonical host name of the server. ">
<polygon fill="white" stroke="black" points="500.5,-22.5 500.5,-48.5 610.5,-48.5 610.5,-22.5 500.5,-22.5"/>
<text text-anchor="start" x="508.5" y="-38.1" font-family="Helvetica,sans-Serif" font-size="8.00">project.android.net.Server</text>
<text text-anchor="middle" x="555.5" y="-29.1" font-family="Helvetica,sans-Serif" font-size="8.00">Info.getServerInfo</text>
</a>
</g>
</g>
<!-- Node97&#45;&gt;Node109 -->
<g id="edge15" class="edge"><title>Node97&#45;&gt;Node109</title>
<path fill="none" stroke="midnightblue" d="M113.066,-35.5C205.908,-35.5 392.049,-35.5 490.328,-35.5"/>
<polygon fill="midnightblue" stroke="midnightblue" points="490.424,-39.0001 500.424,-35.5 490.424,-32.0001 490.424,-39.0001"/>
</g>
<!-- Node99 -->
<g id="node3" class="node"><title>Node99</title>
<g id="a_node3"><a xlink:href="../../d5/dcb/a00170.html#aeff09458fb87bd73b69188560508baf5" target="_top" xlink:title="Overrides ArrayAdapter.getView(int, View, ViewGroup) method. ">
<polygon fill="white" stroke="black" points="304,-69 304,-86 463,-86 463,-69 304,-69"/>
<text text-anchor="middle" x="383.5" y="-75.6" font-family="Helvetica,sans-Serif" font-size="8.00">project.android.CustomAdapter.getView</text>
</a>
</g>
</g>
<!-- Node98&#45;&gt;Node99 -->
<g id="edge2" class="edge"><title>Node98&#45;&gt;Node99</title>
<path fill="none" stroke="midnightblue" d="M268.07,-77.5C276.313,-77.5 284.936,-77.5 293.59,-77.5"/>
<polygon fill="midnightblue" stroke="midnightblue" points="293.744,-81.0001 303.744,-77.5 293.744,-74.0001 293.744,-81.0001"/>
</g>
<!-- Node100 -->
<g id="node4" class="node"><title>Node100</title>
<g id="a_node4"><a xlink:href="../../d9/d38/a00166.html#aee2a392b8b0500023dba15b60d3315d2" target="_top" xlink:title="Returns a list of ServerInfo objects. ">
<polygon fill="white" stroke="black" points="499,-106.5 499,-132.5 612,-132.5 612,-106.5 499,-106.5"/>
<text text-anchor="start" x="507" y="-122.1" font-family="Helvetica,sans-Serif" font-size="8.00">project.android.Connection</text>
<text text-anchor="middle" x="555.5" y="-113.1" font-family="Helvetica,sans-Serif" font-size="8.00">Fragment.getNetworkList</text>
</a>
</g>
</g>
<!-- Node99&#45;&gt;Node100 -->
<g id="edge3" class="edge"><title>Node99&#45;&gt;Node100</title>
<path fill="none" stroke="midnightblue" d="M419.312,-86.1007C440.144,-91.2474 467.242,-97.9422 491.702,-103.985"/>
<polygon fill="midnightblue" stroke="midnightblue" points="491.092,-107.44 501.639,-106.44 492.771,-100.644 491.092,-107.44"/>
</g>
<!-- Node99&#45;&gt;Node102 -->
<g id="edge14" class="edge"><title>Node99&#45;&gt;Node102</title>
<path fill="none" stroke="midnightblue" d="M463.15,-79.3804C507.809,-78.2949 564.172,-73.2497 612,-57.5 629.81,-51.635 631.073,-43.5676 648,-35.5 651.828,-33.6757 655.849,-31.9178 659.928,-30.2455"/>
<polygon fill="midnightblue" stroke="midnightblue" points="661.445,-33.4101 669.483,-26.5076 658.895,-26.8911 661.445,-33.4101"/>
</g>
<!-- Node99&#45;&gt;Node109 -->
<g id="edge13" class="edge"><title>Node99&#45;&gt;Node109</title>
<path fill="none" stroke="midnightblue" d="M419.312,-68.8993C440.144,-63.7526 467.242,-57.0578 491.702,-51.0147"/>
<polygon fill="midnightblue" stroke="midnightblue" points="492.771,-54.3561 501.639,-48.5597 491.092,-47.5604 492.771,-54.3561"/>
</g>
<!-- Node101 -->
<g id="node5" class="node"><title>Node101</title>
<g id="a_node5"><a xlink:href="../../d9/d38/a00166.html#a5ae4f9d7872792288afb3de65ab4c2b0" target="_top" xlink:title="Sets an icon for an inactive server. ">
<polygon fill="white" stroke="black" points="654.5,-172.5 654.5,-198.5 767.5,-198.5 767.5,-172.5 654.5,-172.5"/>
<text text-anchor="start" x="662.5" y="-188.1" font-family="Helvetica,sans-Serif" font-size="8.00">project.android.Connection</text>
<text text-anchor="middle" x="711" y="-179.1" font-family="Helvetica,sans-Serif" font-size="8.00">Fragment.resetIcon</text>
</a>
</g>
</g>
<!-- Node100&#45;&gt;Node101 -->
<g id="edge4" class="edge"><title>Node100&#45;&gt;Node101</title>
<path fill="none" stroke="midnightblue" d="M582.663,-132.512C600.821,-141.365 625.664,-153.128 648,-162.5 653.029,-164.61 658.326,-166.729 663.618,-168.78"/>
<polygon fill="midnightblue" stroke="midnightblue" points="662.491,-172.096 673.082,-172.385 664.982,-165.555 662.491,-172.096"/>
</g>
<!-- Node100&#45;&gt;Node102 -->
<g id="edge6" class="edge"><title>Node100&#45;&gt;Node102</title>
<path fill="none" stroke="midnightblue" d="M589.453,-106.488C597.368,-102.425 605.425,-97.4236 612,-91.5 633.982,-71.6948 624.812,-53.8789 648,-35.5 649.782,-34.0877 651.661,-32.7621 653.613,-31.5181"/>
<polygon fill="midnightblue" stroke="midnightblue" points="655.494,-34.4773 662.548,-26.5719 652.104,-28.3531 655.494,-34.4773"/>
</g>
<!-- Node103 -->
<g id="node7" class="node"><title>Node103</title>
<g id="a_node7"><a xlink:href="../../d0/d24/a00222.html#a19b6bb0a1264932dfc136820ec21620f" target="_top" xlink:title="Sets the pairing key used during client&#45;server authentication. ">
<polygon fill="white" stroke="black" points="656,-45.5 656,-71.5 766,-71.5 766,-45.5 656,-45.5"/>
<text text-anchor="start" x="664" y="-61.1" font-family="Helvetica,sans-Serif" font-size="8.00">project.android.net.Server</text>
<text text-anchor="middle" x="711" y="-52.1" font-family="Helvetica,sans-Serif" font-size="8.00">Info.setPairingKey</text>
</a>
</g>
</g>
<!-- Node100&#45;&gt;Node103 -->
<g id="edge7" class="edge"><title>Node100&#45;&gt;Node103</title>
<path fill="none" stroke="midnightblue" d="M587.298,-106.364C604.991,-98.9042 627.668,-89.4896 648,-81.5 653.408,-79.3749 659.1,-77.1912 664.754,-75.055"/>
<polygon fill="midnightblue" stroke="midnightblue" points="666.04,-78.3111 674.175,-71.5237 663.582,-71.7565 666.04,-78.3111"/>
</g>
<!-- Node104 -->
<g id="node8" class="node"><title>Node104</title>
<g id="a_node8"><a xlink:href="../../dc/d57/a00194.html#aa23e2b087d09db0524a34b73cd5e07d3" target="_top" xlink:title="Sends a stop signal if the user disconnects the server. ">
<polygon fill="white" stroke="black" points="648.5,-127.5 648.5,-153.5 773.5,-153.5 773.5,-127.5 648.5,-127.5"/>
<text text-anchor="start" x="656.5" y="-143.1" font-family="Helvetica,sans-Serif" font-size="8.00">project.android.net.Client.send</text>
<text text-anchor="middle" x="711" y="-134.1" font-family="Helvetica,sans-Serif" font-size="8.00">StopSignal</text>
</a>
</g>
</g>
<!-- Node100&#45;&gt;Node104 -->
<g id="edge8" class="edge"><title>Node100&#45;&gt;Node104</title>
<path fill="none" stroke="midnightblue" d="M612.351,-127.141C620.792,-128.296 629.598,-129.5 638.316,-130.693"/>
<polygon fill="midnightblue" stroke="midnightblue" points="638.102,-134.196 648.484,-132.084 639.051,-127.261 638.102,-134.196"/>
</g>
<!-- Node108 -->
<g id="node12" class="node"><title>Node108</title>
<g id="a_node12"><a xlink:href="../../dc/d57/a00194.html#a2f8cb3f32f139e5c370c8b74f539368a" target="_top" xlink:title="Closes the client socket. ">
<polygon fill="white" stroke="black" points="648,-91 648,-108 774,-108 774,-91 648,-91"/>
<text text-anchor="middle" x="711" y="-97.6" font-family="Helvetica,sans-Serif" font-size="8.00">project.android.net.Client.close</text>
</a>
</g>
</g>
<!-- Node100&#45;&gt;Node108 -->
<g id="edge12" class="edge"><title>Node100&#45;&gt;Node108</title>
<path fill="none" stroke="midnightblue" d="M612.351,-112.223C620.669,-111.139 629.341,-110.009 637.935,-108.89"/>
<polygon fill="midnightblue" stroke="midnightblue" points="638.497,-112.346 647.961,-107.583 637.592,-105.405 638.497,-112.346"/>
</g>
<!-- Node101&#45;&gt;Node98 -->
<g id="edge5" class="edge"><title>Node101&#45;&gt;Node98</title>
<path fill="none" stroke="midnightblue" d="M654.43,-174.101C611.859,-165.323 551.683,-152.816 499,-141.5 423.001,-125.176 335.925,-105.84 277.287,-92.7265"/>
<polygon fill="midnightblue" stroke="midnightblue" points="277.926,-89.2831 267.403,-90.5148 276.398,-96.1141 277.926,-89.2831"/>
</g>
<!-- Node105 -->
<g id="node9" class="node"><title>Node105</title>
<g id="a_node9"><a xlink:href="../../dc/d57/a00194.html#a3d6c629d64e1911979c9f483c8785b5f" target="_top" xlink:title="Sends mouse button or keyboard data. ">
<polygon fill="white" stroke="black" points="810,-132 810,-149 953,-149 953,-132 810,-132"/>
<text text-anchor="middle" x="881.5" y="-138.6" font-family="Helvetica,sans-Serif" font-size="8.00">project.android.net.Client.sendData</text>
</a>
</g>
</g>
<!-- Node104&#45;&gt;Node105 -->
<g id="edge9" class="edge"><title>Node104&#45;&gt;Node105</title>
<path fill="none" stroke="midnightblue" d="M773.786,-140.5C782.225,-140.5 790.988,-140.5 799.702,-140.5"/>
<polygon fill="midnightblue" stroke="midnightblue" points="799.886,-144 809.886,-140.5 799.886,-137 799.886,-144"/>
</g>
<!-- Node106 -->
<g id="node10" class="node"><title>Node106</title>
<g id="a_node10"><a xlink:href="../../da/de7/a00210.html#af8add0417bec5bd0d019410c91f69e38" target="_top" xlink:title="Returns a JSon&#45;string of an object. ">
<polygon fill="white" stroke="black" points="993.5,-150.5 993.5,-176.5 1096.5,-176.5 1096.5,-150.5 993.5,-150.5"/>
<text text-anchor="start" x="1001.5" y="-166.1" font-family="Helvetica,sans-Serif" font-size="8.00">project.android.net.Data</text>
<text text-anchor="middle" x="1045" y="-157.1" font-family="Helvetica,sans-Serif" font-size="8.00">Wrapper.getGsonString</text>
</a>
</g>
</g>
<!-- Node105&#45;&gt;Node106 -->
<g id="edge10" class="edge"><title>Node105&#45;&gt;Node106</title>
<path fill="none" stroke="midnightblue" d="M942.637,-149.064C955.929,-150.957 970.02,-152.964 983.333,-154.86"/>
<polygon fill="midnightblue" stroke="midnightblue" points="982.943,-158.34 993.337,-156.285 983.93,-151.41 982.943,-158.34"/>
</g>
<!-- Node107 -->
<g id="node11" class="node"><title>Node107</title>
<g id="a_node11"><a xlink:href="../../dc/d55/a00226.html#a73624750dc6ff111d72bcb4b54c4995c" target="_top" xlink:title="Encrypts plaintext using AES 256&#45;bit encryption algorithm. ">
<polygon fill="white" stroke="black" points="989,-105.5 989,-131.5 1101,-131.5 1101,-105.5 989,-105.5"/>
<text text-anchor="start" x="997" y="-121.1" font-family="Helvetica,sans-Serif" font-size="8.00">project.android.security.</text>
<text text-anchor="middle" x="1045" y="-112.1" font-family="Helvetica,sans-Serif" font-size="8.00">EKEProvider.encryptString</text>
</a>
</g>
</g>
<!-- Node105&#45;&gt;Node107 -->
<g id="edge11" class="edge"><title>Node105&#45;&gt;Node107</title>
<path fill="none" stroke="midnightblue" d="M944.94,-131.994C956.017,-130.485 967.58,-128.91 978.733,-127.391"/>
<polygon fill="midnightblue" stroke="midnightblue" points="979.399,-130.833 988.835,-126.015 978.454,-123.897 979.399,-130.833"/>
</g>
</g>
</svg>
