<?xml version="1.0" encoding="UTF-8" standalone="no"?>
<!DOCTYPE svg PUBLIC "-//W3C//DTD SVG 1.1//EN"
 "http://www.w3.org/Graphics/SVG/1.1/DTD/svg11.dtd">
<!-- Generated by graphviz version 2.38.0 (20140413.2041)
 -->
<!-- Title: project.android.sensor.representation.MatrixF4x4.set Pages: 1 -->
<svg width="347pt" height="35pt"
 viewBox="0.00 0.00 347.00 35.00" xmlns="http://www.w3.org/2000/svg" xmlns:xlink="http://www.w3.org/1999/xlink">
<g id="graph0" class="graph" transform="scale(1 1) rotate(0) translate(4 31)">
<title>project.android.sensor.representation.MatrixF4x4.set</title>
<polygon fill="white" stroke="none" points="-4,4 -4,-31 343,-31 343,4 -4,4"/>
<!-- Node15 -->
<g id="node1" class="node"><title>Node15</title>
<polygon fill="#bfbfbf" stroke="black" points="0,-0.5 0,-26.5 152,-26.5 152,-0.5 0,-0.5"/>
<text text-anchor="start" x="8" y="-16.1" font-family="Helvetica,sans-Serif" font-size="8.00">project.android.sensor.representation.</text>
<text text-anchor="middle" x="76" y="-7.1" font-family="Helvetica,sans-Serif" font-size="8.00">MatrixF4x4.set</text>
</g>
<!-- Node16 -->
<g id="node2" class="node"><title>Node16</title>
<g id="a_node2"><a xlink:href="../../da/d2e/a00238.html#a25e989d3d8de7b31d388b9235b679aa4" target="_top" xlink:title="Gets the current rotation of the device. ">
<polygon fill="white" stroke="black" points="188,-0.5 188,-26.5 339,-26.5 339,-0.5 188,-0.5"/>
<text text-anchor="start" x="196" y="-16.1" font-family="Helvetica,sans-Serif" font-size="8.00">project.android.sensor.orientation.</text>
<text text-anchor="middle" x="263.5" y="-7.1" font-family="Helvetica,sans-Serif" font-size="8.00">OrientationProvider.getRotationMatrix</text>
</a>
</g>
</g>
<!-- Node15&#45;&gt;Node16 -->
<g id="edge1" class="edge"><title>Node15&#45;&gt;Node16</title>
<path fill="none" stroke="midnightblue" d="M162.451,-13.5C170.918,-13.5 179.467,-13.5 187.813,-13.5"/>
<polygon fill="midnightblue" stroke="midnightblue" points="162.183,-10.0001 152.183,-13.5 162.183,-17.0001 162.183,-10.0001"/>
</g>
</g>
</svg>
