<?xml version="1.0" encoding="UTF-8" standalone="no"?>
<!DOCTYPE svg PUBLIC "-//W3C//DTD SVG 1.1//EN"
 "http://www.w3.org/Graphics/SVG/1.1/DTD/svg11.dtd">
<!-- Generated by graphviz version 2.38.0 (20140413.2041)
 -->
<!-- Title: project.android.ConnectionFragment.getViewByPosition Pages: 1 -->
<svg width="633pt" height="207pt"
 viewBox="0.00 0.00 633.00 207.00" xmlns="http://www.w3.org/2000/svg" xmlns:xlink="http://www.w3.org/1999/xlink">
<g id="graph0" class="graph" transform="scale(1 1) rotate(0) translate(4 203)">
<title>project.android.ConnectionFragment.getViewByPosition</title>
<polygon fill="white" stroke="none" points="-4,4 -4,-203 629,-203 629,4 -4,4"/>
<!-- Node1 -->
<g id="node1" class="node"><title>Node1</title>
<polygon fill="#bfbfbf" stroke="black" points="0,-32.5 0,-58.5 119,-58.5 119,-32.5 0,-32.5"/>
<text text-anchor="start" x="8" y="-48.1" font-family="Helvetica,sans-Serif" font-size="8.00">project.android.Connection</text>
<text text-anchor="middle" x="59.5" y="-39.1" font-family="Helvetica,sans-Serif" font-size="8.00">Fragment.getViewByPosition</text>
</g>
<!-- Node2 -->
<g id="node2" class="node"><title>Node2</title>
<g id="a_node2"><a xlink:href="a00008.html#a6b2523e50305753cb8c2893dc659a1ae" target="_top" xlink:title="Overrides ArrayAdapter.getView(int, View, ViewGroup) method. ">
<polygon fill="white" stroke="black" points="155,-69 155,-86 314,-86 314,-69 155,-69"/>
<text text-anchor="middle" x="234.5" y="-75.6" font-family="Helvetica,sans-Serif" font-size="8.00">project.android.CustomAdapter.getView</text>
</a>
</g>
</g>
<!-- Node1&#45;&gt;Node2 -->
<g id="edge1" class="edge"><title>Node1&#45;&gt;Node2</title>
<path fill="none" stroke="midnightblue" d="M119.07,-56.3337C137.932,-59.8226 158.778,-63.6786 177.454,-67.133"/>
<polygon fill="midnightblue" stroke="midnightblue" points="176.819,-70.5749 187.288,-68.9522 178.092,-63.6916 176.819,-70.5749"/>
</g>
<!-- Node3 -->
<g id="node3" class="node"><title>Node3</title>
<g id="a_node3"><a xlink:href="a00006.html#aee2a392b8b0500023dba15b60d3315d2" target="_top" xlink:title="Returns a list of ServerInfo objects. ">
<polygon fill="white" stroke="black" points="350,-87.5 350,-113.5 463,-113.5 463,-87.5 350,-87.5"/>
<text text-anchor="start" x="358" y="-103.1" font-family="Helvetica,sans-Serif" font-size="8.00">project.android.Connection</text>
<text text-anchor="middle" x="406.5" y="-94.1" font-family="Helvetica,sans-Serif" font-size="8.00">Fragment.getNetworkList</text>
</a>
</g>
</g>
<!-- Node2&#45;&gt;Node3 -->
<g id="edge2" class="edge"><title>Node2&#45;&gt;Node3</title>
<path fill="none" stroke="midnightblue" d="M298.802,-86.0644C312.192,-87.876 326.352,-89.7918 339.828,-91.6149"/>
<polygon fill="midnightblue" stroke="midnightblue" points="339.596,-95.1154 349.975,-92.9878 340.535,-88.1786 339.596,-95.1154"/>
</g>
<!-- Node5 -->
<g id="node5" class="node"><title>Node5</title>
<g id="a_node5"><a xlink:href="a00022.html#a914c65a49cf5940901d475693ee8e205" target="_top" xlink:title="Returns the IPv4 address of the server. ">
<polygon fill="white" stroke="black" points="507,-172.5 507,-198.5 617,-198.5 617,-172.5 507,-172.5"/>
<text text-anchor="start" x="515" y="-188.1" font-family="Helvetica,sans-Serif" font-size="8.00">project.android.net.Server</text>
<text text-anchor="middle" x="562" y="-179.1" font-family="Helvetica,sans-Serif" font-size="8.00">Info.getAddress</text>
</a>
</g>
</g>
<!-- Node2&#45;&gt;Node5 -->
<g id="edge10" class="edge"><title>Node2&#45;&gt;Node5</title>
<path fill="none" stroke="midnightblue" d="M255.99,-86.1577C278.75,-95.6326 316.686,-111.003 350,-122.5 401.464,-140.261 460.964,-157.757 503.635,-169.786"/>
<polygon fill="midnightblue" stroke="midnightblue" points="502.714,-173.163 513.288,-172.496 504.606,-166.424 502.714,-173.163"/>
</g>
<!-- Node9 -->
<g id="node9" class="node"><title>Node9</title>
<g id="a_node9"><a xlink:href="a00022.html#adc1c8edd1eafda5cad71f9babd18dfd4" target="_top" xlink:title="Returns the canonical host name of the server. ">
<polygon fill="white" stroke="black" points="351.5,-42.5 351.5,-68.5 461.5,-68.5 461.5,-42.5 351.5,-42.5"/>
<text text-anchor="start" x="359.5" y="-58.1" font-family="Helvetica,sans-Serif" font-size="8.00">project.android.net.Server</text>
<text text-anchor="middle" x="406.5" y="-49.1" font-family="Helvetica,sans-Serif" font-size="8.00">Info.getServerInfo</text>
</a>
</g>
</g>
<!-- Node2&#45;&gt;Node9 -->
<g id="edge9" class="edge"><title>Node2&#45;&gt;Node9</title>
<path fill="none" stroke="midnightblue" d="M301.226,-68.9942C314.276,-67.3055 327.965,-65.534 340.974,-63.8505"/>
<polygon fill="midnightblue" stroke="midnightblue" points="341.767,-67.277 351.235,-62.5225 340.869,-60.3349 341.767,-67.277"/>
</g>
<!-- Node4 -->
<g id="node4" class="node"><title>Node4</title>
<g id="a_node4"><a xlink:href="a00006.html#a5ae4f9d7872792288afb3de65ab4c2b0" target="_top" xlink:title="Sets an icon for an inactive server. ">
<polygon fill="white" stroke="black" points="505.5,-0.5 505.5,-26.5 618.5,-26.5 618.5,-0.5 505.5,-0.5"/>
<text text-anchor="start" x="513.5" y="-16.1" font-family="Helvetica,sans-Serif" font-size="8.00">project.android.Connection</text>
<text text-anchor="middle" x="562" y="-7.1" font-family="Helvetica,sans-Serif" font-size="8.00">Fragment.resetIcon</text>
</a>
</g>
</g>
<!-- Node3&#45;&gt;Node4 -->
<g id="edge3" class="edge"><title>Node3&#45;&gt;Node4</title>
<path fill="none" stroke="midnightblue" d="M445.753,-87.3811C451.777,-84.5562 457.743,-81.2655 463,-77.5 482.714,-63.3794 479.023,-50.2471 499,-36.5 501.877,-34.52 504.946,-32.6858 508.121,-30.9907"/>
<polygon fill="midnightblue" stroke="midnightblue" points="509.788,-34.0726 517.275,-26.5763 506.747,-27.7674 509.788,-34.0726"/>
</g>
<!-- Node3&#45;&gt;Node5 -->
<g id="edge5" class="edge"><title>Node3&#45;&gt;Node5</title>
<path fill="none" stroke="midnightblue" d="M423.867,-113.743C441.561,-127.574 471,-149.207 499,-163.5 502.505,-165.289 506.189,-166.995 509.941,-168.608"/>
<polygon fill="midnightblue" stroke="midnightblue" points="508.762,-171.906 519.344,-172.42 511.392,-165.419 508.762,-171.906"/>
</g>
<!-- Node6 -->
<g id="node6" class="node"><title>Node6</title>
<g id="a_node6"><a xlink:href="a00022.html#a19b6bb0a1264932dfc136820ec21620f" target="_top" xlink:title="Sets the pairing key used during client&#45;server authentication. ">
<polygon fill="white" stroke="black" points="507,-127.5 507,-153.5 617,-153.5 617,-127.5 507,-127.5"/>
<text text-anchor="start" x="515" y="-143.1" font-family="Helvetica,sans-Serif" font-size="8.00">project.android.net.Server</text>
<text text-anchor="middle" x="562" y="-134.1" font-family="Helvetica,sans-Serif" font-size="8.00">Info.setPairingKey</text>
</a>
</g>
</g>
<!-- Node3&#45;&gt;Node6 -->
<g id="edge6" class="edge"><title>Node3&#45;&gt;Node6</title>
<path fill="none" stroke="midnightblue" d="M457.762,-113.597C471.615,-117.207 486.78,-121.159 501.119,-124.896"/>
<polygon fill="midnightblue" stroke="midnightblue" points="500.328,-128.307 510.888,-127.441 502.093,-121.533 500.328,-128.307"/>
</g>
<!-- Node7 -->
<g id="node7" class="node"><title>Node7</title>
<g id="a_node7"><a xlink:href="a00003.html#aa23e2b087d09db0524a34b73cd5e07d3" target="_top" xlink:title="Send a stop signal if the user disconnects the server from the app. ">
<polygon fill="white" stroke="red" points="499.5,-82.5 499.5,-108.5 624.5,-108.5 624.5,-82.5 499.5,-82.5"/>
<text text-anchor="start" x="507.5" y="-98.1" font-family="Helvetica,sans-Serif" font-size="8.00">project.android.net.Client.send</text>
<text text-anchor="middle" x="562" y="-89.1" font-family="Helvetica,sans-Serif" font-size="8.00">StopSignal</text>
</a>
</g>
</g>
<!-- Node3&#45;&gt;Node7 -->
<g id="edge7" class="edge"><title>Node3&#45;&gt;Node7</title>
<path fill="none" stroke="midnightblue" d="M463.351,-98.6807C471.792,-98.4058 480.598,-98.119 489.316,-97.835"/>
<polygon fill="midnightblue" stroke="midnightblue" points="489.603,-101.328 499.484,-97.5038 489.375,-94.3313 489.603,-101.328"/>
</g>
<!-- Node8 -->
<g id="node8" class="node"><title>Node8</title>
<g id="a_node8"><a xlink:href="a00003.html#a2f8cb3f32f139e5c370c8b74f539368a" target="_top" xlink:title="Close client socket. ">
<polygon fill="white" stroke="black" points="499,-46 499,-63 625,-63 625,-46 499,-46"/>
<text text-anchor="middle" x="562" y="-52.6" font-family="Helvetica,sans-Serif" font-size="8.00">project.android.net.Client.close</text>
</a>
</g>
</g>
<!-- Node3&#45;&gt;Node8 -->
<g id="edge8" class="edge"><title>Node3&#45;&gt;Node8</title>
<path fill="none" stroke="midnightblue" d="M449.827,-87.4084C465.287,-82.6636 482.921,-77.294 499,-72.5 506.319,-70.3178 514.134,-68.0221 521.663,-65.8278"/>
<polygon fill="midnightblue" stroke="midnightblue" points="522.703,-69.1704 531.33,-63.0197 520.751,-62.4483 522.703,-69.1704"/>
</g>
<!-- Node4&#45;&gt;Node1 -->
<g id="edge4" class="edge"><title>Node4&#45;&gt;Node1</title>
<path fill="none" stroke="midnightblue" d="M505.402,-17.0547C413.354,-22.9399 229.538,-34.6924 129.4,-41.0948"/>
<polygon fill="midnightblue" stroke="midnightblue" points="129.142,-37.6041 119.385,-41.7351 129.588,-44.5898 129.142,-37.6041"/>
</g>
</g>
</svg>
