<?xml version="1.0" encoding="UTF-8" standalone="no"?>
<!DOCTYPE svg PUBLIC "-//W3C//DTD SVG 1.1//EN"
 "http://www.w3.org/Graphics/SVG/1.1/DTD/svg11.dtd">
<!-- Generated by graphviz version 2.38.0 (20140413.2041)
 -->
<!-- Title: project.android.sensor.representation.Quaternion.subQuat Pages: 1 -->
<svg width="348pt" height="1070pt"
 viewBox="0.00 0.00 348.00 1070.00" xmlns="http://www.w3.org/2000/svg" xmlns:xlink="http://www.w3.org/1999/xlink">
<g id="graph0" class="graph" transform="scale(1 1) rotate(0) translate(4 1066)">
<title>project.android.sensor.representation.Quaternion.subQuat</title>
<polygon fill="white" stroke="none" points="-4,4 -4,-1066 344,-1066 344,4 -4,4"/>
<!-- Node1 -->
<g id="node1" class="node"><title>Node1</title>
<polygon fill="#bfbfbf" stroke="black" points="0,-517.5 0,-543.5 152,-543.5 152,-517.5 0,-517.5"/>
<text text-anchor="start" x="8" y="-533.1" font-family="Helvetica,sans-Serif" font-size="8.00">project.android.sensor.representation.</text>
<text text-anchor="middle" x="76" y="-524.1" font-family="Helvetica,sans-Serif" font-size="8.00">Quaternion.subQuat</text>
</g>
<!-- Node2 -->
<g id="node2" class="node"><title>Node2</title>
<g id="a_node2"><a xlink:href="a00027.html#a887ec4cfb002f50f8eec8f73501110f3" target="_top" xlink:title="Sets the X&#45;dimension of this Vector4f. ">
<polygon fill="white" stroke="black" points="188,-1035.5 188,-1061.5 340,-1061.5 340,-1035.5 188,-1035.5"/>
<text text-anchor="start" x="196" y="-1051.1" font-family="Helvetica,sans-Serif" font-size="8.00">project.android.sensor.representation.</text>
<text text-anchor="middle" x="264" y="-1042.1" font-family="Helvetica,sans-Serif" font-size="8.00">Vector4f.setX</text>
</a>
</g>
</g>
<!-- Node1&#45;&gt;Node2 -->
<g id="edge1" class="edge"><title>Node1&#45;&gt;Node2</title>
<path fill="none" stroke="midnightblue" d="M78.1813,-543.894C84.7582,-615.532 119.073,-952.928 188,-1026.5 188.913,-1027.47 189.867,-1028.41 190.857,-1029.3"/>
<polygon fill="midnightblue" stroke="midnightblue" points="188.958,-1032.25 199.082,-1035.37 193.115,-1026.62 188.958,-1032.25"/>
</g>
<!-- Node3 -->
<g id="node3" class="node"><title>Node3</title>
<g id="a_node3"><a xlink:href="a00027.html#af69dc14afa12c757152f93bd643e791f" target="_top" xlink:title="Returns the X&#45;dimension of this Vector4f. ">
<polygon fill="white" stroke="black" points="188,-990.5 188,-1016.5 340,-1016.5 340,-990.5 188,-990.5"/>
<text text-anchor="start" x="196" y="-1006.1" font-family="Helvetica,sans-Serif" font-size="8.00">project.android.sensor.representation.</text>
<text text-anchor="middle" x="264" y="-997.1" font-family="Helvetica,sans-Serif" font-size="8.00">Vector4f.getX</text>
</a>
</g>
</g>
<!-- Node1&#45;&gt;Node3 -->
<g id="edge2" class="edge"><title>Node1&#45;&gt;Node3</title>
<path fill="none" stroke="midnightblue" d="M78.463,-543.56C86.2194,-610.573 124.585,-915.231 188,-981.5 188.924,-982.465 189.887,-983.388 190.886,-984.272"/>
<polygon fill="midnightblue" stroke="midnightblue" points="189.018,-987.241 199.164,-990.293 193.135,-981.58 189.018,-987.241"/>
</g>
<!-- Node4 -->
<g id="node4" class="node"><title>Node4</title>
<g id="a_node4"><a xlink:href="a00027.html#a85c790b5bbb7c702cb0e49585b261082" target="_top" xlink:title="Sets the Y&#45;dimension of this Vector4f. ">
<polygon fill="white" stroke="black" points="188,-945.5 188,-971.5 340,-971.5 340,-945.5 188,-945.5"/>
<text text-anchor="start" x="196" y="-961.1" font-family="Helvetica,sans-Serif" font-size="8.00">project.android.sensor.representation.</text>
<text text-anchor="middle" x="264" y="-952.1" font-family="Helvetica,sans-Serif" font-size="8.00">Vector4f.setY</text>
</a>
</g>
</g>
<!-- Node1&#45;&gt;Node4 -->
<g id="edge3" class="edge"><title>Node1&#45;&gt;Node4</title>
<path fill="none" stroke="midnightblue" d="M78.8935,-543.912C88.1204,-607.47 130.282,-877.707 188,-936.5 189.069,-937.589 190.19,-938.625 191.354,-939.611"/>
<polygon fill="midnightblue" stroke="midnightblue" points="189.418,-942.528 199.614,-945.406 193.438,-936.798 189.418,-942.528"/>
</g>
<!-- Node5 -->
<g id="node5" class="node"><title>Node5</title>
<g id="a_node5"><a xlink:href="a00027.html#ae3ecced2eebe634a5d3842d7c9f6659c" target="_top" xlink:title="Returns the Y&#45;dimension of this Vector4f. ">
<polygon fill="white" stroke="black" points="188,-900.5 188,-926.5 340,-926.5 340,-900.5 188,-900.5"/>
<text text-anchor="start" x="196" y="-916.1" font-family="Helvetica,sans-Serif" font-size="8.00">project.android.sensor.representation.</text>
<text text-anchor="middle" x="264" y="-907.1" font-family="Helvetica,sans-Serif" font-size="8.00">Vector4f.getY</text>
</a>
</g>
</g>
<!-- Node1&#45;&gt;Node5 -->
<g id="edge4" class="edge"><title>Node1&#45;&gt;Node5</title>
<path fill="none" stroke="midnightblue" d="M76.8756,-543.541C77.1134,-595.51 85.105,-789.932 188,-891.5 189.117,-892.602 190.285,-893.65 191.499,-894.645"/>
<polygon fill="midnightblue" stroke="midnightblue" points="189.855,-897.76 200.092,-900.489 193.792,-891.971 189.855,-897.76"/>
</g>
<!-- Node6 -->
<g id="node6" class="node"><title>Node6</title>
<g id="a_node6"><a xlink:href="a00027.html#a8bd26391867c8d1d4b105a63764d394f" target="_top" xlink:title="Sets the Z&#45;dimension of this Vector4f. ">
<polygon fill="white" stroke="black" points="188,-855.5 188,-881.5 340,-881.5 340,-855.5 188,-855.5"/>
<text text-anchor="start" x="196" y="-871.1" font-family="Helvetica,sans-Serif" font-size="8.00">project.android.sensor.representation.</text>
<text text-anchor="middle" x="264" y="-862.1" font-family="Helvetica,sans-Serif" font-size="8.00">Vector4f.setZ</text>
</a>
</g>
</g>
<!-- Node1&#45;&gt;Node6 -->
<g id="edge5" class="edge"><title>Node1&#45;&gt;Node6</title>
<path fill="none" stroke="midnightblue" d="M77.5329,-543.553C80.2085,-591.447 96.0458,-759.249 188,-846.5 189.138,-847.58 190.326,-848.607 191.558,-849.584"/>
<polygon fill="midnightblue" stroke="midnightblue" points="189.973,-852.732 200.243,-855.333 193.836,-846.895 189.973,-852.732"/>
</g>
<!-- Node7 -->
<g id="node7" class="node"><title>Node7</title>
<g id="a_node7"><a xlink:href="a00027.html#a6dc64afde1e04300a5175f67865c45ac" target="_top" xlink:title="Returns the Z&#45;dimension of this Vector4f. ">
<polygon fill="white" stroke="black" points="188,-810.5 188,-836.5 340,-836.5 340,-810.5 188,-810.5"/>
<text text-anchor="start" x="196" y="-826.1" font-family="Helvetica,sans-Serif" font-size="8.00">project.android.sensor.representation.</text>
<text text-anchor="middle" x="264" y="-817.1" font-family="Helvetica,sans-Serif" font-size="8.00">Vector4f.getZ</text>
</a>
</g>
</g>
<!-- Node1&#45;&gt;Node7 -->
<g id="edge6" class="edge"><title>Node1&#45;&gt;Node7</title>
<path fill="none" stroke="midnightblue" d="M78.4196,-543.799C83.8104,-587.565 107.003,-728.474 188,-801.5 189.316,-802.687 190.694,-803.81 192.123,-804.873"/>
<polygon fill="midnightblue" stroke="midnightblue" points="190.469,-807.967 200.798,-810.322 194.192,-802.039 190.469,-807.967"/>
</g>
<!-- Node8 -->
<g id="node8" class="node"><title>Node8</title>
<g id="a_node8"><a xlink:href="a00027.html#af52ccfec44e8d3fa81707b1fd816b153" target="_top" xlink:title="Sets the W&#45;dimension of this Vector4f. ">
<polygon fill="white" stroke="black" points="188,-765.5 188,-791.5 340,-791.5 340,-765.5 188,-765.5"/>
<text text-anchor="start" x="196" y="-781.1" font-family="Helvetica,sans-Serif" font-size="8.00">project.android.sensor.representation.</text>
<text text-anchor="middle" x="264" y="-772.1" font-family="Helvetica,sans-Serif" font-size="8.00">Vector4f.setW</text>
</a>
</g>
</g>
<!-- Node1&#45;&gt;Node8 -->
<g id="edge7" class="edge"><title>Node1&#45;&gt;Node8</title>
<path fill="none" stroke="midnightblue" d="M79.6021,-543.764C87.9291,-582.63 117.61,-697.236 188,-756.5 189.557,-757.811 191.189,-759.044 192.882,-760.203"/>
<polygon fill="midnightblue" stroke="midnightblue" points="191.389,-763.385 201.789,-765.41 194.922,-757.341 191.389,-763.385"/>
</g>
<!-- Node9 -->
<g id="node9" class="node"><title>Node9</title>
<g id="a_node9"><a xlink:href="a00027.html#ac1059d3ba0cf2ae04a9fb47c8f1edb3c" target="_top" xlink:title="Returns the W&#45;dimension of this Vector4f. ">
<polygon fill="white" stroke="black" points="188,-720.5 188,-746.5 340,-746.5 340,-720.5 188,-720.5"/>
<text text-anchor="start" x="196" y="-736.1" font-family="Helvetica,sans-Serif" font-size="8.00">project.android.sensor.representation.</text>
<text text-anchor="middle" x="264" y="-727.1" font-family="Helvetica,sans-Serif" font-size="8.00">Vector4f.getW</text>
</a>
</g>
</g>
<!-- Node1&#45;&gt;Node9 -->
<g id="edge8" class="edge"><title>Node1&#45;&gt;Node9</title>
<path fill="none" stroke="midnightblue" d="M81.3146,-543.722C92.907,-577.14 127.98,-665.587 188,-711.5 189.839,-712.907 191.766,-714.224 193.761,-715.457"/>
<polygon fill="midnightblue" stroke="midnightblue" points="192.415,-718.706 202.883,-720.341 195.72,-712.535 192.415,-718.706"/>
</g>
<!-- Node10 -->
<g id="node10" class="node"><title>Node10</title>
<g id="a_node10"><a xlink:href="a00017.html#afd65aed27265c0f416f9a9ade0d1ed4b" target="_top" xlink:title="Sets the value of X0. ">
<polygon fill="white" stroke="black" points="188,-675.5 188,-701.5 340,-701.5 340,-675.5 188,-675.5"/>
<text text-anchor="start" x="196" y="-691.1" font-family="Helvetica,sans-Serif" font-size="8.00">project.android.sensor.representation.</text>
<text text-anchor="middle" x="264" y="-682.1" font-family="Helvetica,sans-Serif" font-size="8.00">MatrixF4x4.setX0</text>
</a>
</g>
</g>
<!-- Node1&#45;&gt;Node10 -->
<g id="edge9" class="edge"><title>Node1&#45;&gt;Node10</title>
<path fill="none" stroke="midnightblue" d="M83.9979,-543.552C99.2078,-570.663 137.971,-633.306 188,-666.5 190.438,-668.118 192.998,-669.619 195.641,-671.012"/>
<polygon fill="midnightblue" stroke="midnightblue" points="194.354,-674.274 204.894,-675.342 197.321,-667.934 194.354,-674.274"/>
</g>
<!-- Node11 -->
<g id="node11" class="node"><title>Node11</title>
<g id="a_node11"><a xlink:href="a00017.html#a7492e6750afed9614867a13425fbf21e" target="_top" xlink:title="Sets the value of X1. ">
<polygon fill="white" stroke="black" points="188,-630.5 188,-656.5 340,-656.5 340,-630.5 188,-630.5"/>
<text text-anchor="start" x="196" y="-646.1" font-family="Helvetica,sans-Serif" font-size="8.00">project.android.sensor.representation.</text>
<text text-anchor="middle" x="264" y="-637.1" font-family="Helvetica,sans-Serif" font-size="8.00">MatrixF4x4.setX1</text>
</a>
</g>
</g>
<!-- Node1&#45;&gt;Node11 -->
<g id="edge10" class="edge"><title>Node1&#45;&gt;Node11</title>
<path fill="none" stroke="midnightblue" d="M89.4104,-543.605C108.714,-563.258 147.899,-600.315 188,-621.5 191.543,-623.372 195.267,-625.105 199.082,-626.705"/>
<polygon fill="midnightblue" stroke="midnightblue" points="198.116,-630.084 208.705,-630.417 200.635,-623.553 198.116,-630.084"/>
</g>
<!-- Node12 -->
<g id="node12" class="node"><title>Node12</title>
<g id="a_node12"><a xlink:href="a00017.html#a0dff40370bcd98e9317c1b78fdc4568a" target="_top" xlink:title="Sets the value of X2. ">
<polygon fill="white" stroke="black" points="188,-585.5 188,-611.5 340,-611.5 340,-585.5 188,-585.5"/>
<text text-anchor="start" x="196" y="-601.1" font-family="Helvetica,sans-Serif" font-size="8.00">project.android.sensor.representation.</text>
<text text-anchor="middle" x="264" y="-592.1" font-family="Helvetica,sans-Serif" font-size="8.00">MatrixF4x4.setX2</text>
</a>
</g>
</g>
<!-- Node1&#45;&gt;Node12 -->
<g id="edge11" class="edge"><title>Node1&#45;&gt;Node12</title>
<path fill="none" stroke="midnightblue" d="M106.346,-543.676C128.53,-553.387 159.869,-566.577 188,-576.5 193.657,-578.495 199.596,-580.457 205.551,-582.338"/>
<polygon fill="midnightblue" stroke="midnightblue" points="204.955,-585.817 215.543,-585.419 207.018,-579.128 204.955,-585.817"/>
</g>
<!-- Node13 -->
<g id="node13" class="node"><title>Node13</title>
<g id="a_node13"><a xlink:href="a00017.html#a6ab2db47168017fba6fbfe2eb296c542" target="_top" xlink:title="Sets the value of X3. ">
<polygon fill="white" stroke="black" points="188,-540.5 188,-566.5 340,-566.5 340,-540.5 188,-540.5"/>
<text text-anchor="start" x="196" y="-556.1" font-family="Helvetica,sans-Serif" font-size="8.00">project.android.sensor.representation.</text>
<text text-anchor="middle" x="264" y="-547.1" font-family="Helvetica,sans-Serif" font-size="8.00">MatrixF4x4.setX3</text>
</a>
</g>
</g>
<!-- Node1&#45;&gt;Node13 -->
<g id="edge12" class="edge"><title>Node1&#45;&gt;Node13</title>
<path fill="none" stroke="midnightblue" d="M152.117,-539.789C160.596,-540.837 169.281,-541.911 177.875,-542.974"/>
<polygon fill="midnightblue" stroke="midnightblue" points="177.551,-546.46 187.905,-544.214 178.41,-539.513 177.551,-546.46"/>
</g>
<!-- Node14 -->
<g id="node14" class="node"><title>Node14</title>
<g id="a_node14"><a xlink:href="a00017.html#ab5c2de1de1bd47fa73d6cd63ab935015" target="_top" xlink:title="Sets the value of Y0. ">
<polygon fill="white" stroke="black" points="188,-495.5 188,-521.5 340,-521.5 340,-495.5 188,-495.5"/>
<text text-anchor="start" x="196" y="-511.1" font-family="Helvetica,sans-Serif" font-size="8.00">project.android.sensor.representation.</text>
<text text-anchor="middle" x="264" y="-502.1" font-family="Helvetica,sans-Serif" font-size="8.00">MatrixF4x4.setY0</text>
</a>
</g>
</g>
<!-- Node1&#45;&gt;Node14 -->
<g id="edge13" class="edge"><title>Node1&#45;&gt;Node14</title>
<path fill="none" stroke="midnightblue" d="M152.117,-521.615C160.596,-520.612 169.281,-519.585 177.875,-518.569"/>
<polygon fill="midnightblue" stroke="midnightblue" points="178.385,-522.033 187.905,-517.382 177.563,-515.081 178.385,-522.033"/>
</g>
<!-- Node15 -->
<g id="node15" class="node"><title>Node15</title>
<g id="a_node15"><a xlink:href="a00017.html#a5117bfdd475899254489c2dbd02b7220" target="_top" xlink:title="Sets the value of Y1. ">
<polygon fill="white" stroke="black" points="188,-450.5 188,-476.5 340,-476.5 340,-450.5 188,-450.5"/>
<text text-anchor="start" x="196" y="-466.1" font-family="Helvetica,sans-Serif" font-size="8.00">project.android.sensor.representation.</text>
<text text-anchor="middle" x="264" y="-457.1" font-family="Helvetica,sans-Serif" font-size="8.00">MatrixF4x4.setY1</text>
</a>
</g>
</g>
<!-- Node1&#45;&gt;Node15 -->
<g id="edge14" class="edge"><title>Node1&#45;&gt;Node15</title>
<path fill="none" stroke="midnightblue" d="M108.326,-517.307C130.423,-508.193 160.811,-496.041 188,-486.5 194.562,-484.197 201.49,-481.898 208.378,-479.693"/>
<polygon fill="midnightblue" stroke="midnightblue" points="209.904,-482.881 218.391,-476.539 207.802,-476.205 209.904,-482.881"/>
</g>
<!-- Node16 -->
<g id="node16" class="node"><title>Node16</title>
<g id="a_node16"><a xlink:href="a00017.html#a1217e17a1bc720160952abcbc521be38" target="_top" xlink:title="Sets the value of Y2. ">
<polygon fill="white" stroke="black" points="188,-405.5 188,-431.5 340,-431.5 340,-405.5 188,-405.5"/>
<text text-anchor="start" x="196" y="-421.1" font-family="Helvetica,sans-Serif" font-size="8.00">project.android.sensor.representation.</text>
<text text-anchor="middle" x="264" y="-412.1" font-family="Helvetica,sans-Serif" font-size="8.00">MatrixF4x4.setY2</text>
</a>
</g>
</g>
<!-- Node1&#45;&gt;Node16 -->
<g id="edge15" class="edge"><title>Node1&#45;&gt;Node16</title>
<path fill="none" stroke="midnightblue" d="M89.8241,-517.443C109.358,-498.243 148.484,-462.41 188,-441.5 192.288,-439.231 196.836,-437.148 201.487,-435.243"/>
<polygon fill="midnightblue" stroke="midnightblue" points="203.024,-438.403 211.13,-431.581 200.539,-431.859 203.024,-438.403"/>
</g>
<!-- Node17 -->
<g id="node17" class="node"><title>Node17</title>
<g id="a_node17"><a xlink:href="a00017.html#a7364c248402d13b7a4c32c174b47c048" target="_top" xlink:title="Sets the value of Y3. ">
<polygon fill="white" stroke="black" points="188,-360.5 188,-386.5 340,-386.5 340,-360.5 188,-360.5"/>
<text text-anchor="start" x="196" y="-376.1" font-family="Helvetica,sans-Serif" font-size="8.00">project.android.sensor.representation.</text>
<text text-anchor="middle" x="264" y="-367.1" font-family="Helvetica,sans-Serif" font-size="8.00">MatrixF4x4.setY3</text>
</a>
</g>
</g>
<!-- Node1&#45;&gt;Node17 -->
<g id="edge16" class="edge"><title>Node1&#45;&gt;Node17</title>
<path fill="none" stroke="midnightblue" d="M84.3169,-517.283C99.8451,-490.45 138.744,-429.357 188,-396.5 191.13,-394.412 194.458,-392.507 197.904,-390.77"/>
<polygon fill="midnightblue" stroke="midnightblue" points="199.575,-393.856 207.25,-386.552 196.695,-387.475 199.575,-393.856"/>
</g>
<!-- Node18 -->
<g id="node18" class="node"><title>Node18</title>
<g id="a_node18"><a xlink:href="a00017.html#adac6df8e977123a0d0f6e2793382241e" target="_top" xlink:title="Sets the value of Z0. ">
<polygon fill="white" stroke="black" points="188,-315.5 188,-341.5 340,-341.5 340,-315.5 188,-315.5"/>
<text text-anchor="start" x="196" y="-331.1" font-family="Helvetica,sans-Serif" font-size="8.00">project.android.sensor.representation.</text>
<text text-anchor="middle" x="264" y="-322.1" font-family="Helvetica,sans-Serif" font-size="8.00">MatrixF4x4.setZ0</text>
</a>
</g>
</g>
<!-- Node1&#45;&gt;Node18 -->
<g id="edge17" class="edge"><title>Node1&#45;&gt;Node18</title>
<path fill="none" stroke="midnightblue" d="M81.3917,-517.467C93.1648,-484.517 128.627,-397.261 188,-351.5 190.456,-349.607 193.068,-347.869 195.789,-346.273"/>
<polygon fill="midnightblue" stroke="midnightblue" points="197.499,-349.33 204.793,-341.645 194.299,-343.104 197.499,-349.33"/>
</g>
<!-- Node19 -->
<g id="node19" class="node"><title>Node19</title>
<g id="a_node19"><a xlink:href="a00017.html#aa1ec7abf7c6ef7008d3e049bcad8ef61" target="_top" xlink:title="Sets the value of Z1. ">
<polygon fill="white" stroke="black" points="188,-270.5 188,-296.5 340,-296.5 340,-270.5 188,-270.5"/>
<text text-anchor="start" x="196" y="-286.1" font-family="Helvetica,sans-Serif" font-size="8.00">project.android.sensor.representation.</text>
<text text-anchor="middle" x="264" y="-277.1" font-family="Helvetica,sans-Serif" font-size="8.00">MatrixF4x4.setZ1</text>
</a>
</g>
</g>
<!-- Node1&#45;&gt;Node19 -->
<g id="edge18" class="edge"><title>Node1&#45;&gt;Node19</title>
<path fill="none" stroke="midnightblue" d="M79.674,-517.392C88.1986,-478.975 118.368,-365.645 188,-306.5 190.044,-304.764 192.216,-303.159 194.487,-301.676"/>
<polygon fill="midnightblue" stroke="midnightblue" points="196.648,-304.476 203.657,-296.532 193.223,-298.371 196.648,-304.476"/>
</g>
<!-- Node20 -->
<g id="node20" class="node"><title>Node20</title>
<g id="a_node20"><a xlink:href="a00017.html#a177284552a94bc991246f8aaeee6fc77" target="_top" xlink:title="Sets the value of Z2. ">
<polygon fill="white" stroke="black" points="188,-225.5 188,-251.5 340,-251.5 340,-225.5 188,-225.5"/>
<text text-anchor="start" x="196" y="-241.1" font-family="Helvetica,sans-Serif" font-size="8.00">project.android.sensor.representation.</text>
<text text-anchor="middle" x="264" y="-232.1" font-family="Helvetica,sans-Serif" font-size="8.00">MatrixF4x4.setZ2</text>
</a>
</g>
</g>
<!-- Node1&#45;&gt;Node20 -->
<g id="edge19" class="edge"><title>Node1&#45;&gt;Node20</title>
<path fill="none" stroke="midnightblue" d="M78.4875,-517.336C84.0898,-474.006 107.864,-334.451 188,-261.5 189.895,-259.775 191.916,-258.18 194.035,-256.704"/>
<polygon fill="midnightblue" stroke="midnightblue" points="195.831,-259.708 202.631,-251.584 192.249,-253.694 195.831,-259.708"/>
</g>
<!-- Node21 -->
<g id="node21" class="node"><title>Node21</title>
<g id="a_node21"><a xlink:href="a00017.html#a28d91295768f896da1a32e8b8618a373" target="_top" xlink:title="Sets the value of Z3. ">
<polygon fill="white" stroke="black" points="188,-180.5 188,-206.5 340,-206.5 340,-180.5 188,-180.5"/>
<text text-anchor="start" x="196" y="-196.1" font-family="Helvetica,sans-Serif" font-size="8.00">project.android.sensor.representation.</text>
<text text-anchor="middle" x="264" y="-187.1" font-family="Helvetica,sans-Serif" font-size="8.00">MatrixF4x4.setZ3</text>
</a>
</g>
</g>
<!-- Node1&#45;&gt;Node21 -->
<g id="edge20" class="edge"><title>Node1&#45;&gt;Node21</title>
<path fill="none" stroke="midnightblue" d="M77.6167,-517.236C80.5706,-469.333 97.2179,-303.527 188,-216.5 189.678,-214.892 191.465,-213.396 193.339,-212.004"/>
<polygon fill="midnightblue" stroke="midnightblue" points="195.434,-214.822 202.05,-206.548 191.718,-208.89 195.434,-214.822"/>
</g>
<!-- Node22 -->
<g id="node22" class="node"><title>Node22</title>
<g id="a_node22"><a xlink:href="a00017.html#a6a37c8a5cd0331fdcc4aa8129bc9e0cf" target="_top" xlink:title="Sets the value of W0. ">
<polygon fill="white" stroke="black" points="188,-135.5 188,-161.5 340,-161.5 340,-135.5 188,-135.5"/>
<text text-anchor="start" x="196" y="-151.1" font-family="Helvetica,sans-Serif" font-size="8.00">project.android.sensor.representation.</text>
<text text-anchor="middle" x="264" y="-142.1" font-family="Helvetica,sans-Serif" font-size="8.00">MatrixF4x4.setW0</text>
</a>
</g>
</g>
<!-- Node1&#45;&gt;Node22 -->
<g id="edge21" class="edge"><title>Node1&#45;&gt;Node22</title>
<path fill="none" stroke="midnightblue" d="M76.9401,-517.212C77.4479,-465.141 86.3971,-272.869 188,-171.5 189.606,-169.898 191.32,-168.407 193.122,-167.019"/>
<polygon fill="midnightblue" stroke="midnightblue" points="195.034,-169.951 201.52,-161.574 191.225,-164.078 195.034,-169.951"/>
</g>
<!-- Node23 -->
<g id="node23" class="node"><title>Node23</title>
<g id="a_node23"><a xlink:href="a00017.html#a71660c154f43631d5fbf0c9c8a27f2b3" target="_top" xlink:title="Sets the value of W1. ">
<polygon fill="white" stroke="black" points="188,-90.5 188,-116.5 340,-116.5 340,-90.5 188,-90.5"/>
<text text-anchor="start" x="196" y="-106.1" font-family="Helvetica,sans-Serif" font-size="8.00">project.android.sensor.representation.</text>
<text text-anchor="middle" x="264" y="-97.1" font-family="Helvetica,sans-Serif" font-size="8.00">MatrixF4x4.setW1</text>
</a>
</g>
</g>
<!-- Node1&#45;&gt;Node23 -->
<g id="edge22" class="edge"><title>Node1&#45;&gt;Node23</title>
<path fill="none" stroke="midnightblue" d="M76.4011,-517.145C74.6462,-461.086 75.5097,-242.35 188,-126.5 189.423,-125.034 190.937,-123.661 192.526,-122.376"/>
<polygon fill="midnightblue" stroke="midnightblue" points="194.692,-125.136 201.026,-116.644 190.778,-119.333 194.692,-125.136"/>
</g>
<!-- Node24 -->
<g id="node24" class="node"><title>Node24</title>
<g id="a_node24"><a xlink:href="a00017.html#ace3802c0489f49af58e92665d0a5b8e1" target="_top" xlink:title="Sets the value of W2. ">
<polygon fill="white" stroke="black" points="188,-45.5 188,-71.5 340,-71.5 340,-45.5 188,-45.5"/>
<text text-anchor="start" x="196" y="-61.1" font-family="Helvetica,sans-Serif" font-size="8.00">project.android.sensor.representation.</text>
<text text-anchor="middle" x="264" y="-52.1" font-family="Helvetica,sans-Serif" font-size="8.00">MatrixF4x4.setW2</text>
</a>
</g>
</g>
<!-- Node1&#45;&gt;Node24 -->
<g id="edge23" class="edge"><title>Node1&#45;&gt;Node24</title>
<path fill="none" stroke="midnightblue" d="M78.539,-517.068C86.5318,-449.533 125.359,-147.699 188,-81.5 189.404,-80.0161 190.901,-78.6272 192.476,-77.3271"/>
<polygon fill="midnightblue" stroke="midnightblue" points="194.649,-80.0808 200.918,-71.5398 190.691,-74.3071 194.649,-80.0808"/>
</g>
<!-- Node25 -->
<g id="node25" class="node"><title>Node25</title>
<g id="a_node25"><a xlink:href="a00017.html#a2675a0afd2975f24a4ea962b60eef602" target="_top" xlink:title="Sets the value of W3. ">
<polygon fill="white" stroke="black" points="188,-0.5 188,-26.5 340,-26.5 340,-0.5 188,-0.5"/>
<text text-anchor="start" x="196" y="-16.1" font-family="Helvetica,sans-Serif" font-size="8.00">project.android.sensor.representation.</text>
<text text-anchor="middle" x="264" y="-7.1" font-family="Helvetica,sans-Serif" font-size="8.00">MatrixF4x4.setW3</text>
</a>
</g>
</g>
<!-- Node1&#45;&gt;Node25 -->
<g id="edge24" class="edge"><title>Node1&#45;&gt;Node25</title>
<path fill="none" stroke="midnightblue" d="M78.2049,-517.174C84.9048,-445.897 119.755,-110.178 188,-36.5 189.241,-35.1605 190.557,-33.8982 191.938,-32.7087"/>
<polygon fill="midnightblue" stroke="midnightblue" points="194.336,-35.299 200.472,-26.6615 190.289,-29.5875 194.336,-35.299"/>
</g>
</g>
</svg>
