<?xml version="1.0" encoding="UTF-8" standalone="no"?>
<!DOCTYPE svg PUBLIC "-//W3C//DTD SVG 1.1//EN"
 "http://www.w3.org/Graphics/SVG/1.1/DTD/svg11.dtd">
<!-- Generated by graphviz version 2.38.0 (20140413.2041)
 -->
<!-- Title: project.android.SettingsFragment Pages: 1 -->
<svg width="109pt" height="175pt"
 viewBox="0.00 0.00 109.00 175.00" xmlns="http://www.w3.org/2000/svg" xmlns:xlink="http://www.w3.org/1999/xlink">
<g id="graph0" class="graph" transform="scale(1 1) rotate(0) translate(4 171)">
<title>project.android.SettingsFragment</title>
<polygon fill="white" stroke="none" points="-4,4 -4,-171 105,-171 105,4 -4,4"/>
<!-- Node1 -->
<g id="node1" class="node"><title>Node1</title>
<polygon fill="#bfbfbf" stroke="black" points="0,-0.5 0,-78.5 101,-78.5 101,-0.5 0,-0.5"/>
<text text-anchor="start" x="8" y="-68.1" font-family="Helvetica,sans-Serif" font-size="8.00">project.android.Settings</text>
<text text-anchor="middle" x="50.5" y="-59.1" font-family="Helvetica,sans-Serif" font-size="8.00">Fragment</text>
<polyline fill="none" stroke="black" points="0,-52.5 101,-52.5 "/>
<text text-anchor="middle" x="50.5" y="-42.1" font-family="Helvetica,sans-Serif" font-size="8.00"> </text>
<polyline fill="none" stroke="black" points="0,-35.5 101,-35.5 "/>
<text text-anchor="start" x="8" y="-25.1" font-family="Helvetica,sans-Serif" font-size="8.00">+ onCreate()</text>
<text text-anchor="start" x="8" y="-16.1" font-family="Helvetica,sans-Serif" font-size="8.00">+ onPause()</text>
<text text-anchor="start" x="8" y="-7.1" font-family="Helvetica,sans-Serif" font-size="8.00">+ onResume()</text>
</g>
<!-- Node2 -->
<g id="node2" class="node"><title>Node2</title>
<polygon fill="white" stroke="#bfbfbf" points="4.5,-115.5 4.5,-166.5 96.5,-166.5 96.5,-115.5 4.5,-115.5"/>
<text text-anchor="middle" x="50.5" y="-156.1" font-family="Helvetica,sans-Serif" font-size="8.00">PreferenceFragment</text>
<polyline fill="none" stroke="#bfbfbf" points="4.5,-149.5 96.5,-149.5 "/>
<text text-anchor="middle" x="50.5" y="-139.1" font-family="Helvetica,sans-Serif" font-size="8.00"> </text>
<polyline fill="none" stroke="#bfbfbf" points="4.5,-132.5 96.5,-132.5 "/>
<text text-anchor="middle" x="50.5" y="-122.1" font-family="Helvetica,sans-Serif" font-size="8.00"> </text>
</g>
<!-- Node2&#45;&gt;Node1 -->
<g id="edge1" class="edge"><title>Node2&#45;&gt;Node1</title>
<path fill="none" stroke="midnightblue" d="M50.5,-105.338C50.5,-96.7515 50.5,-87.5029 50.5,-78.7558"/>
<polygon fill="none" stroke="midnightblue" points="47.0001,-105.404 50.5,-115.404 54.0001,-105.405 47.0001,-105.404"/>
</g>
</g>
</svg>
