<?xml version="1.0" encoding="UTF-8" standalone="no"?>
<!DOCTYPE svg PUBLIC "-//W3C//DTD SVG 1.1//EN"
 "http://www.w3.org/Graphics/SVG/1.1/DTD/svg11.dtd">
<!-- Generated by graphviz version 2.38.0 (20140413.2041)
 -->
<!-- Title: project.android.security.EKEProvider.encryptString Pages: 1 -->
<svg width="609pt" height="76pt"
 viewBox="0.00 0.00 609.00 76.00" xmlns="http://www.w3.org/2000/svg" xmlns:xlink="http://www.w3.org/1999/xlink">
<g id="graph0" class="graph" transform="scale(1 1) rotate(0) translate(4 72)">
<title>project.android.security.EKEProvider.encryptString</title>
<polygon fill="white" stroke="none" points="-4,4 -4,-72 605,-72 605,4 -4,4"/>
<!-- Node1 -->
<g id="node1" class="node"><title>Node1</title>
<polygon fill="#bfbfbf" stroke="black" points="0,-20.5 0,-46.5 112,-46.5 112,-20.5 0,-20.5"/>
<text text-anchor="start" x="8" y="-36.1" font-family="Helvetica,sans-Serif" font-size="8.00">project.android.security.</text>
<text text-anchor="middle" x="56" y="-27.1" font-family="Helvetica,sans-Serif" font-size="8.00">EKEProvider.encryptString</text>
</g>
<!-- Node2 -->
<g id="node2" class="node"><title>Node2</title>
<g id="a_node2"><a xlink:href="a00003.html#a3d6c629d64e1911979c9f483c8785b5f" target="_top" xlink:title="Send mouse button or keyboard data. ">
<polygon fill="white" stroke="black" points="148,-46 148,-63 291,-63 291,-46 148,-46"/>
<text text-anchor="middle" x="219.5" y="-52.6" font-family="Helvetica,sans-Serif" font-size="8.00">project.android.net.Client.sendData</text>
</a>
</g>
</g>
<!-- Node1&#45;&gt;Node2 -->
<g id="edge1" class="edge"><title>Node1&#45;&gt;Node2</title>
<path fill="none" stroke="midnightblue" d="M122.161,-41.9729C132.334,-43.2957 142.85,-44.6632 153.03,-45.9869"/>
<polygon fill="midnightblue" stroke="midnightblue" points="122.495,-38.487 112.127,-40.6683 121.593,-45.4286 122.495,-38.487"/>
</g>
<!-- Node5 -->
<g id="node5" class="node"><title>Node5</title>
<g id="a_node5"><a xlink:href="a00005.html#aa57b04eb44ae7982a7a79cdb7c484144" target="_top" xlink:title="Constructor. ">
<polygon fill="white" stroke="black" points="165.5,-0.5 165.5,-26.5 273.5,-26.5 273.5,-0.5 165.5,-0.5"/>
<text text-anchor="start" x="173.5" y="-16.1" font-family="Helvetica,sans-Serif" font-size="8.00">project.android.net.Client</text>
<text text-anchor="middle" x="219.5" y="-7.1" font-family="Helvetica,sans-Serif" font-size="8.00">IOThread.ClientIOThread</text>
</a>
</g>
</g>
<!-- Node1&#45;&gt;Node5 -->
<g id="edge4" class="edge"><title>Node1&#45;&gt;Node5</title>
<path fill="none" stroke="midnightblue" d="M122.364,-25.4054C136.62,-23.6399 151.541,-21.7921 165.259,-20.0933"/>
<polygon fill="midnightblue" stroke="midnightblue" points="121.621,-21.9705 112.127,-26.6731 122.482,-28.9175 121.621,-21.9705"/>
</g>
<!-- Node3 -->
<g id="node3" class="node"><title>Node3</title>
<g id="a_node3"><a xlink:href="a00003.html#aa23e2b087d09db0524a34b73cd5e07d3" target="_top" xlink:title="Send a stop signal if the user disconnects the server from the app. ">
<polygon fill="white" stroke="black" points="327,-41.5 327,-67.5 452,-67.5 452,-41.5 327,-41.5"/>
<text text-anchor="start" x="335" y="-57.1" font-family="Helvetica,sans-Serif" font-size="8.00">project.android.net.Client.send</text>
<text text-anchor="middle" x="389.5" y="-48.1" font-family="Helvetica,sans-Serif" font-size="8.00">StopSignal</text>
</a>
</g>
</g>
<!-- Node2&#45;&gt;Node3 -->
<g id="edge2" class="edge"><title>Node2&#45;&gt;Node3</title>
<path fill="none" stroke="midnightblue" d="M301.311,-54.5C309.909,-54.5 318.552,-54.5 326.878,-54.5"/>
<polygon fill="midnightblue" stroke="midnightblue" points="301.26,-51.0001 291.26,-54.5 301.26,-58.0001 301.26,-51.0001"/>
</g>
<!-- Node4 -->
<g id="node4" class="node"><title>Node4</title>
<g id="a_node4"><a xlink:href="a00006.html#aee2a392b8b0500023dba15b60d3315d2" target="_top" xlink:title="Returns a list of ServerInfo objects. ">
<polygon fill="white" stroke="red" points="488,-41.5 488,-67.5 601,-67.5 601,-41.5 488,-41.5"/>
<text text-anchor="start" x="496" y="-57.1" font-family="Helvetica,sans-Serif" font-size="8.00">project.android.Connection</text>
<text text-anchor="middle" x="544.5" y="-48.1" font-family="Helvetica,sans-Serif" font-size="8.00">Fragment.getNetworkList</text>
</a>
</g>
</g>
<!-- Node3&#45;&gt;Node4 -->
<g id="edge3" class="edge"><title>Node3&#45;&gt;Node4</title>
<path fill="none" stroke="midnightblue" d="M462.315,-54.5C470.909,-54.5 479.581,-54.5 487.897,-54.5"/>
<polygon fill="midnightblue" stroke="midnightblue" points="462.29,-51.0001 452.29,-54.5 462.29,-58.0001 462.29,-51.0001"/>
</g>
</g>
</svg>
