<?xml version="1.0" encoding="UTF-8" standalone="no"?>
<!DOCTYPE svg PUBLIC "-//W3C//DTD SVG 1.1//EN"
 "http://www.w3.org/Graphics/SVG/1.1/DTD/svg11.dtd">
<!-- Generated by graphviz version 2.38.0 (20140413.2041)
 -->
<!-- Title: project.android.CustomAdapter.getView Pages: 1 -->
<svg width="805pt" height="222pt"
 viewBox="0.00 0.00 805.00 221.50" xmlns="http://www.w3.org/2000/svg" xmlns:xlink="http://www.w3.org/1999/xlink">
<g id="graph0" class="graph" transform="scale(1 1) rotate(0) translate(4 217.503)">
<title>project.android.CustomAdapter.getView</title>
<polygon fill="white" stroke="none" points="-4,4 -4,-217.503 801,-217.503 801,4 -4,4"/>
<!-- Node1 -->
<g id="node1" class="node"><title>Node1</title>
<polygon fill="#bfbfbf" stroke="black" points="0,-82.5031 0,-99.5031 159,-99.5031 159,-82.5031 0,-82.5031"/>
<text text-anchor="middle" x="79.5" y="-89.1031" font-family="Helvetica,sans-Serif" font-size="8.00">project.android.CustomAdapter.getView</text>
</g>
<!-- Node2 -->
<g id="node2" class="node"><title>Node2</title>
<g id="a_node2"><a xlink:href="a00006.html#aee2a392b8b0500023dba15b60d3315d2" target="_top" xlink:title="Returns a list of ServerInfo objects. ">
<polygon fill="white" stroke="black" points="195,-101.003 195,-127.003 308,-127.003 308,-101.003 195,-101.003"/>
<text text-anchor="start" x="203" y="-116.603" font-family="Helvetica,sans-Serif" font-size="8.00">project.android.Connection</text>
<text text-anchor="middle" x="251.5" y="-107.603" font-family="Helvetica,sans-Serif" font-size="8.00">Fragment.getNetworkList</text>
</a>
</g>
</g>
<!-- Node1&#45;&gt;Node2 -->
<g id="edge1" class="edge"><title>Node1&#45;&gt;Node2</title>
<path fill="none" stroke="midnightblue" d="M143.802,-99.5674C157.192,-101.379 171.352,-103.295 184.828,-105.118"/>
<polygon fill="midnightblue" stroke="midnightblue" points="184.596,-108.618 194.975,-106.491 185.535,-101.682 184.596,-108.618"/>
</g>
<!-- Node5 -->
<g id="node5" class="node"><title>Node5</title>
<g id="a_node5"><a xlink:href="a00022.html#a914c65a49cf5940901d475693ee8e205" target="_top" xlink:title="Returns the IPv4 address of the server. ">
<polygon fill="white" stroke="black" points="352,-187.003 352,-213.003 462,-213.003 462,-187.003 352,-187.003"/>
<text text-anchor="start" x="360" y="-202.603" font-family="Helvetica,sans-Serif" font-size="8.00">project.android.net.Server</text>
<text text-anchor="middle" x="407" y="-193.603" font-family="Helvetica,sans-Serif" font-size="8.00">Info.getAddress</text>
</a>
</g>
</g>
<!-- Node1&#45;&gt;Node5 -->
<g id="edge13" class="edge"><title>Node1&#45;&gt;Node5</title>
<path fill="none" stroke="midnightblue" d="M100.999,-99.6334C123.768,-109.084 161.711,-124.434 195,-136.003 246.828,-154.015 306.765,-171.921 349.483,-184.192"/>
<polygon fill="midnightblue" stroke="midnightblue" points="348.563,-187.57 359.14,-186.955 350.489,-180.84 348.563,-187.57"/>
</g>
<!-- Node12 -->
<g id="node12" class="node"><title>Node12</title>
<g id="a_node12"><a xlink:href="a00022.html#adc1c8edd1eafda5cad71f9babd18dfd4" target="_top" xlink:title="Returns the canonical host name of the server. ">
<polygon fill="white" stroke="black" points="196.5,-56.0031 196.5,-82.0031 306.5,-82.0031 306.5,-56.0031 196.5,-56.0031"/>
<text text-anchor="start" x="204.5" y="-71.6031" font-family="Helvetica,sans-Serif" font-size="8.00">project.android.net.Server</text>
<text text-anchor="middle" x="251.5" y="-62.6031" font-family="Helvetica,sans-Serif" font-size="8.00">Info.getServerInfo</text>
</a>
</g>
</g>
<!-- Node1&#45;&gt;Node12 -->
<g id="edge12" class="edge"><title>Node1&#45;&gt;Node12</title>
<path fill="none" stroke="midnightblue" d="M146.226,-82.4973C159.276,-80.8086 172.965,-79.037 185.974,-77.3535"/>
<polygon fill="midnightblue" stroke="midnightblue" points="186.767,-80.7801 196.235,-76.0256 185.869,-73.838 186.767,-80.7801"/>
</g>
<!-- Node3 -->
<g id="node3" class="node"><title>Node3</title>
<g id="a_node3"><a xlink:href="a00006.html#a5ae4f9d7872792288afb3de65ab4c2b0" target="_top" xlink:title="Sets an icon for an inactive server. ">
<polygon fill="white" stroke="black" points="350.5,-60.0031 350.5,-86.0031 463.5,-86.0031 463.5,-60.0031 350.5,-60.0031"/>
<text text-anchor="start" x="358.5" y="-75.6031" font-family="Helvetica,sans-Serif" font-size="8.00">project.android.Connection</text>
<text text-anchor="middle" x="407" y="-66.6031" font-family="Helvetica,sans-Serif" font-size="8.00">Fragment.resetIcon</text>
</a>
</g>
</g>
<!-- Node2&#45;&gt;Node3 -->
<g id="edge2" class="edge"><title>Node2&#45;&gt;Node3</title>
<path fill="none" stroke="midnightblue" d="M301.49,-100.918C316.101,-97.0151 332.263,-92.6983 347.422,-88.6494"/>
<polygon fill="midnightblue" stroke="midnightblue" points="348.454,-91.9966 357.212,-86.0345 346.647,-85.2336 348.454,-91.9966"/>
</g>
<!-- Node2&#45;&gt;Node5 -->
<g id="edge5" class="edge"><title>Node2&#45;&gt;Node5</title>
<path fill="none" stroke="midnightblue" d="M268.908,-127.167C286.636,-140.933 316.102,-162.511 344,-177.003 348.064,-179.114 352.367,-181.126 356.736,-183.018"/>
<polygon fill="midnightblue" stroke="midnightblue" points="355.757,-186.4 366.337,-186.961 358.416,-179.924 355.757,-186.4"/>
</g>
<!-- Node6 -->
<g id="node6" class="node"><title>Node6</title>
<g id="a_node6"><a xlink:href="a00022.html#a19b6bb0a1264932dfc136820ec21620f" target="_top" xlink:title="Sets the pairing key used during client&#45;server authentication. ">
<polygon fill="white" stroke="black" points="352,-15.0031 352,-41.0031 462,-41.0031 462,-15.0031 352,-15.0031"/>
<text text-anchor="start" x="360" y="-30.6031" font-family="Helvetica,sans-Serif" font-size="8.00">project.android.net.Server</text>
<text text-anchor="middle" x="407" y="-21.6031" font-family="Helvetica,sans-Serif" font-size="8.00">Info.setPairingKey</text>
</a>
</g>
</g>
<!-- Node2&#45;&gt;Node6 -->
<g id="edge6" class="edge"><title>Node2&#45;&gt;Node6</title>
<path fill="none" stroke="midnightblue" d="M290.753,-100.884C296.777,-98.0592 302.743,-94.7686 308,-91.0031 327.714,-76.8824 323.926,-63.6075 344,-50.0031 346.393,-48.3811 348.919,-46.8649 351.529,-45.4492"/>
<polygon fill="midnightblue" stroke="midnightblue" points="353.185,-48.5358 360.649,-41.0164 350.125,-42.2401 353.185,-48.5358"/>
</g>
<!-- Node7 -->
<g id="node7" class="node"><title>Node7</title>
<g id="a_node7"><a xlink:href="a00003.html#aa23e2b087d09db0524a34b73cd5e07d3" target="_top" xlink:title="Send a stop signal if the user disconnects the server from the app. ">
<polygon fill="white" stroke="black" points="344.5,-142.003 344.5,-168.003 469.5,-168.003 469.5,-142.003 344.5,-142.003"/>
<text text-anchor="start" x="352.5" y="-157.603" font-family="Helvetica,sans-Serif" font-size="8.00">project.android.net.Client.send</text>
<text text-anchor="middle" x="407" y="-148.603" font-family="Helvetica,sans-Serif" font-size="8.00">StopSignal</text>
</a>
</g>
</g>
<!-- Node2&#45;&gt;Node7 -->
<g id="edge7" class="edge"><title>Node2&#45;&gt;Node7</title>
<path fill="none" stroke="midnightblue" d="M301.49,-127.088C316.101,-130.991 332.263,-135.308 347.422,-139.357"/>
<polygon fill="midnightblue" stroke="midnightblue" points="346.647,-142.772 357.212,-141.972 348.454,-136.01 346.647,-142.772"/>
</g>
<!-- Node11 -->
<g id="node11" class="node"><title>Node11</title>
<g id="a_node11"><a xlink:href="a00003.html#a2f8cb3f32f139e5c370c8b74f539368a" target="_top" xlink:title="Close client socket. ">
<polygon fill="white" stroke="black" points="344,-105.503 344,-122.503 470,-122.503 470,-105.503 344,-105.503"/>
<text text-anchor="middle" x="407" y="-112.103" font-family="Helvetica,sans-Serif" font-size="8.00">project.android.net.Client.close</text>
</a>
</g>
</g>
<!-- Node2&#45;&gt;Node11 -->
<g id="edge11" class="edge"><title>Node2&#45;&gt;Node11</title>
<path fill="none" stroke="midnightblue" d="M308.351,-114.003C316.669,-114.003 325.341,-114.003 333.935,-114.003"/>
<polygon fill="midnightblue" stroke="midnightblue" points="333.961,-117.503 343.961,-114.003 333.961,-110.503 333.961,-117.503"/>
</g>
<!-- Node4 -->
<g id="node4" class="node"><title>Node4</title>
<g id="a_node4"><a xlink:href="a00006.html#a863b30e1ce16c16e6dba6bebe8d8c45e" target="_top" xlink:title="Returns the View of the clicked list item. ">
<polygon fill="white" stroke="black" points="518,-16.0031 518,-42.0031 637,-42.0031 637,-16.0031 518,-16.0031"/>
<text text-anchor="start" x="526" y="-31.6031" font-family="Helvetica,sans-Serif" font-size="8.00">project.android.Connection</text>
<text text-anchor="middle" x="577.5" y="-22.6031" font-family="Helvetica,sans-Serif" font-size="8.00">Fragment.getViewByPosition</text>
</a>
</g>
</g>
<!-- Node3&#45;&gt;Node4 -->
<g id="edge3" class="edge"><title>Node3&#45;&gt;Node4</title>
<path fill="none" stroke="midnightblue" d="M458.099,-59.9207C476.521,-55.1102 497.566,-49.615 516.753,-44.6047"/>
<polygon fill="midnightblue" stroke="midnightblue" points="517.802,-47.9481 526.594,-42.035 516.034,-41.1752 517.802,-47.9481"/>
</g>
<!-- Node4&#45;&gt;Node1 -->
<g id="edge4" class="edge"><title>Node4&#45;&gt;Node1</title>
<path fill="none" stroke="midnightblue" d="M529.168,-15.9733C510.84,-11.5528 489.59,-7.18311 470,-5.00307 347.185,8.66388 312.242,-6.95571 195,-46.0031 165.698,-55.7622 132.966,-68.854 110.029,-78.3997"/>
<polygon fill="midnightblue" stroke="midnightblue" points="108.4,-75.2873 100.532,-82.3823 111.108,-81.7426 108.4,-75.2873"/>
</g>
<!-- Node8 -->
<g id="node8" class="node"><title>Node8</title>
<g id="a_node8"><a xlink:href="a00003.html#a3d6c629d64e1911979c9f483c8785b5f" target="_top" xlink:title="Send mouse button or keyboard data. ">
<polygon fill="white" stroke="black" points="506,-146.503 506,-163.503 649,-163.503 649,-146.503 506,-146.503"/>
<text text-anchor="middle" x="577.5" y="-153.103" font-family="Helvetica,sans-Serif" font-size="8.00">project.android.net.Client.sendData</text>
</a>
</g>
</g>
<!-- Node7&#45;&gt;Node8 -->
<g id="edge8" class="edge"><title>Node7&#45;&gt;Node8</title>
<path fill="none" stroke="midnightblue" d="M469.786,-155.003C478.225,-155.003 486.988,-155.003 495.702,-155.003"/>
<polygon fill="midnightblue" stroke="midnightblue" points="495.886,-158.503 505.886,-155.003 495.886,-151.503 495.886,-158.503"/>
</g>
<!-- Node9 -->
<g id="node9" class="node"><title>Node9</title>
<g id="a_node9"><a xlink:href="a00009.html#af8add0417bec5bd0d019410c91f69e38" target="_top" xlink:title="Returns a JSon&#45;string of an object. ">
<polygon fill="white" stroke="black" points="689.5,-165.003 689.5,-191.003 792.5,-191.003 792.5,-165.003 689.5,-165.003"/>
<text text-anchor="start" x="697.5" y="-180.603" font-family="Helvetica,sans-Serif" font-size="8.00">project.android.net.Data</text>
<text text-anchor="middle" x="741" y="-171.603" font-family="Helvetica,sans-Serif" font-size="8.00">Wrapper.getGsonString</text>
</a>
</g>
</g>
<!-- Node8&#45;&gt;Node9 -->
<g id="edge9" class="edge"><title>Node8&#45;&gt;Node9</title>
<path fill="none" stroke="midnightblue" d="M638.637,-163.567C651.929,-165.46 666.02,-167.467 679.333,-169.363"/>
<polygon fill="midnightblue" stroke="midnightblue" points="678.943,-172.843 689.337,-170.788 679.93,-165.913 678.943,-172.843"/>
</g>
<!-- Node10 -->
<g id="node10" class="node"><title>Node10</title>
<g id="a_node10"><a xlink:href="a00010.html#a73624750dc6ff111d72bcb4b54c4995c" target="_top" xlink:title="Encrypt plaintext using AES 256&#45;bit encryption algorithm. ">
<polygon fill="white" stroke="black" points="685,-120.003 685,-146.003 797,-146.003 797,-120.003 685,-120.003"/>
<text text-anchor="start" x="693" y="-135.603" font-family="Helvetica,sans-Serif" font-size="8.00">project.android.security.</text>
<text text-anchor="middle" x="741" y="-126.603" font-family="Helvetica,sans-Serif" font-size="8.00">EKEProvider.encryptString</text>
</a>
</g>
</g>
<!-- Node8&#45;&gt;Node10 -->
<g id="edge10" class="edge"><title>Node8&#45;&gt;Node10</title>
<path fill="none" stroke="midnightblue" d="M640.94,-146.497C652.017,-144.988 663.58,-143.413 674.733,-141.894"/>
<polygon fill="midnightblue" stroke="midnightblue" points="675.399,-145.336 684.835,-140.518 674.454,-138.4 675.399,-145.336"/>
</g>
</g>
</svg>
