<?xml version="1.0" encoding="UTF-8" standalone="no"?>
<!DOCTYPE svg PUBLIC "-//W3C//DTD SVG 1.1//EN"
 "http://www.w3.org/Graphics/SVG/1.1/DTD/svg11.dtd">
<!-- Generated by graphviz version 2.38.0 (20140413.2041)
 -->
<!-- Title: project.android.ConnectionFragment.resetIcon Pages: 1 -->
<svg width="1109pt" height="201pt"
 viewBox="0.00 0.00 1109.00 200.50" xmlns="http://www.w3.org/2000/svg" xmlns:xlink="http://www.w3.org/1999/xlink">
<g id="graph0" class="graph" transform="scale(1 1) rotate(0) translate(4 196.5)">
<title>project.android.ConnectionFragment.resetIcon</title>
<polygon fill="white" stroke="none" points="-4,4 -4,-196.5 1105,-196.5 1105,4 -4,4"/>
<!-- Node1 -->
<g id="node1" class="node"><title>Node1</title>
<polygon fill="#bfbfbf" stroke="black" points="0,-63.5 0,-89.5 113,-89.5 113,-63.5 0,-63.5"/>
<text text-anchor="start" x="8" y="-79.1" font-family="Helvetica,sans-Serif" font-size="8.00">project.android.Connection</text>
<text text-anchor="middle" x="56.5" y="-70.1" font-family="Helvetica,sans-Serif" font-size="8.00">Fragment.resetIcon</text>
</g>
<!-- Node2 -->
<g id="node2" class="node"><title>Node2</title>
<g id="a_node2"><a xlink:href="a00006.html#a863b30e1ce16c16e6dba6bebe8d8c45e" target="_top" xlink:title="Returns the View of the clicked list item. ">
<polygon fill="white" stroke="black" points="149,-42.5 149,-68.5 268,-68.5 268,-42.5 149,-42.5"/>
<text text-anchor="start" x="157" y="-58.1" font-family="Helvetica,sans-Serif" font-size="8.00">project.android.Connection</text>
<text text-anchor="middle" x="208.5" y="-49.1" font-family="Helvetica,sans-Serif" font-size="8.00">Fragment.getViewByPosition</text>
</a>
</g>
</g>
<!-- Node1&#45;&gt;Node2 -->
<g id="edge1" class="edge"><title>Node1&#45;&gt;Node2</title>
<path fill="none" stroke="midnightblue" d="M113.354,-68.6804C121.676,-67.5153 130.335,-66.3031 138.882,-65.1065"/>
<polygon fill="midnightblue" stroke="midnightblue" points="139.42,-68.5654 148.838,-63.7127 138.449,-61.633 139.42,-68.5654"/>
</g>
<!-- Node3 -->
<g id="node3" class="node"><title>Node3</title>
<g id="a_node3"><a xlink:href="a00008.html#a6b2523e50305753cb8c2893dc659a1ae" target="_top" xlink:title="Overrides ArrayAdapter.getView(int, View, ViewGroup) method. ">
<polygon fill="white" stroke="black" points="304,-47 304,-64 463,-64 463,-47 304,-47"/>
<text text-anchor="middle" x="383.5" y="-53.6" font-family="Helvetica,sans-Serif" font-size="8.00">project.android.CustomAdapter.getView</text>
</a>
</g>
</g>
<!-- Node2&#45;&gt;Node3 -->
<g id="edge2" class="edge"><title>Node2&#45;&gt;Node3</title>
<path fill="none" stroke="midnightblue" d="M268.07,-55.5C276.313,-55.5 284.936,-55.5 293.59,-55.5"/>
<polygon fill="midnightblue" stroke="midnightblue" points="293.744,-59.0001 303.744,-55.5 293.744,-52.0001 293.744,-59.0001"/>
</g>
<!-- Node4 -->
<g id="node4" class="node"><title>Node4</title>
<g id="a_node4"><a xlink:href="a00006.html#aee2a392b8b0500023dba15b60d3315d2" target="_top" xlink:title="Returns a list of ServerInfo objects. ">
<polygon fill="white" stroke="black" points="499,-84.5 499,-110.5 612,-110.5 612,-84.5 499,-84.5"/>
<text text-anchor="start" x="507" y="-100.1" font-family="Helvetica,sans-Serif" font-size="8.00">project.android.Connection</text>
<text text-anchor="middle" x="555.5" y="-91.1" font-family="Helvetica,sans-Serif" font-size="8.00">Fragment.getNetworkList</text>
</a>
</g>
</g>
<!-- Node3&#45;&gt;Node4 -->
<g id="edge3" class="edge"><title>Node3&#45;&gt;Node4</title>
<path fill="none" stroke="midnightblue" d="M419.312,-64.1007C440.144,-69.2474 467.242,-75.9422 491.702,-81.9853"/>
<polygon fill="midnightblue" stroke="midnightblue" points="491.092,-85.4396 501.639,-84.4403 492.771,-78.6439 491.092,-85.4396"/>
</g>
<!-- Node5 -->
<g id="node5" class="node"><title>Node5</title>
<g id="a_node5"><a xlink:href="a00022.html#a914c65a49cf5940901d475693ee8e205" target="_top" xlink:title="Returns the IPv4 address of the server. ">
<polygon fill="white" stroke="black" points="656,-39.5 656,-65.5 766,-65.5 766,-39.5 656,-39.5"/>
<text text-anchor="start" x="664" y="-55.1" font-family="Helvetica,sans-Serif" font-size="8.00">project.android.net.Server</text>
<text text-anchor="middle" x="711" y="-46.1" font-family="Helvetica,sans-Serif" font-size="8.00">Info.getAddress</text>
</a>
</g>
</g>
<!-- Node3&#45;&gt;Node5 -->
<g id="edge13" class="edge"><title>Node3&#45;&gt;Node5</title>
<path fill="none" stroke="midnightblue" d="M463.294,-54.7738C519.21,-54.2584 593.333,-53.5753 645.687,-53.0927"/>
<polygon fill="midnightblue" stroke="midnightblue" points="645.889,-56.5911 655.856,-52.999 645.824,-49.5914 645.889,-56.5911"/>
</g>
<!-- Node12 -->
<g id="node12" class="node"><title>Node12</title>
<g id="a_node12"><a xlink:href="a00022.html#adc1c8edd1eafda5cad71f9babd18dfd4" target="_top" xlink:title="Returns the canonical host name of the server. ">
<polygon fill="white" stroke="black" points="500.5,-0.5 500.5,-26.5 610.5,-26.5 610.5,-0.5 500.5,-0.5"/>
<text text-anchor="start" x="508.5" y="-16.1" font-family="Helvetica,sans-Serif" font-size="8.00">project.android.net.Server</text>
<text text-anchor="middle" x="555.5" y="-7.1" font-family="Helvetica,sans-Serif" font-size="8.00">Info.getServerInfo</text>
</a>
</g>
</g>
<!-- Node3&#45;&gt;Node12 -->
<g id="edge12" class="edge"><title>Node3&#45;&gt;Node12</title>
<path fill="none" stroke="midnightblue" d="M419.312,-46.8993C440.144,-41.7526 467.242,-35.0578 491.702,-29.0147"/>
<polygon fill="midnightblue" stroke="midnightblue" points="492.771,-32.3561 501.639,-26.5597 491.092,-25.5604 492.771,-32.3561"/>
</g>
<!-- Node4&#45;&gt;Node1 -->
<g id="edge4" class="edge"><title>Node4&#45;&gt;Node1</title>
<path fill="none" stroke="midnightblue" d="M498.912,-95.1512C406.545,-91.2484 221.873,-83.4453 123.209,-79.2765"/>
<polygon fill="midnightblue" stroke="midnightblue" points="123.204,-75.7732 113.066,-78.8478 122.909,-82.767 123.204,-75.7732"/>
</g>
<!-- Node4&#45;&gt;Node5 -->
<g id="edge5" class="edge"><title>Node4&#45;&gt;Node5</title>
<path fill="none" stroke="midnightblue" d="M600.899,-84.4841C618.007,-79.4687 637.74,-73.6836 655.681,-68.4241"/>
<polygon fill="midnightblue" stroke="midnightblue" points="656.824,-71.7364 665.436,-65.5645 654.855,-65.0191 656.824,-71.7364"/>
</g>
<!-- Node6 -->
<g id="node6" class="node"><title>Node6</title>
<g id="a_node6"><a xlink:href="a00022.html#a19b6bb0a1264932dfc136820ec21620f" target="_top" xlink:title="Sets the pairing key used during client&#45;server authentication. ">
<polygon fill="white" stroke="black" points="656,-129.5 656,-155.5 766,-155.5 766,-129.5 656,-129.5"/>
<text text-anchor="start" x="664" y="-145.1" font-family="Helvetica,sans-Serif" font-size="8.00">project.android.net.Server</text>
<text text-anchor="middle" x="711" y="-136.1" font-family="Helvetica,sans-Serif" font-size="8.00">Info.setPairingKey</text>
</a>
</g>
</g>
<!-- Node4&#45;&gt;Node6 -->
<g id="edge6" class="edge"><title>Node4&#45;&gt;Node6</title>
<path fill="none" stroke="midnightblue" d="M600.899,-110.516C618.007,-115.531 637.74,-121.316 655.681,-126.576"/>
<polygon fill="midnightblue" stroke="midnightblue" points="654.855,-129.981 665.436,-129.436 656.824,-123.264 654.855,-129.981"/>
</g>
<!-- Node7 -->
<g id="node7" class="node"><title>Node7</title>
<g id="a_node7"><a xlink:href="a00003.html#aa23e2b087d09db0524a34b73cd5e07d3" target="_top" xlink:title="Send a stop signal if the user disconnects the server from the app. ">
<polygon fill="white" stroke="black" points="648.5,-84.5 648.5,-110.5 773.5,-110.5 773.5,-84.5 648.5,-84.5"/>
<text text-anchor="start" x="656.5" y="-100.1" font-family="Helvetica,sans-Serif" font-size="8.00">project.android.net.Client.send</text>
<text text-anchor="middle" x="711" y="-91.1" font-family="Helvetica,sans-Serif" font-size="8.00">StopSignal</text>
</a>
</g>
</g>
<!-- Node4&#45;&gt;Node7 -->
<g id="edge7" class="edge"><title>Node4&#45;&gt;Node7</title>
<path fill="none" stroke="midnightblue" d="M612.351,-97.5C620.792,-97.5 629.598,-97.5 638.316,-97.5"/>
<polygon fill="midnightblue" stroke="midnightblue" points="638.484,-101 648.484,-97.5 638.484,-94.0001 638.484,-101"/>
</g>
<!-- Node11 -->
<g id="node11" class="node"><title>Node11</title>
<g id="a_node11"><a xlink:href="a00003.html#a2f8cb3f32f139e5c370c8b74f539368a" target="_top" xlink:title="Close client socket. ">
<polygon fill="white" stroke="black" points="648,-175 648,-192 774,-192 774,-175 648,-175"/>
<text text-anchor="middle" x="711" y="-181.6" font-family="Helvetica,sans-Serif" font-size="8.00">project.android.net.Client.close</text>
</a>
</g>
</g>
<!-- Node4&#45;&gt;Node11 -->
<g id="edge11" class="edge"><title>Node4&#45;&gt;Node11</title>
<path fill="none" stroke="midnightblue" d="M570.64,-110.569C587.761,-125.755 618.041,-150.626 648,-165.5 652.649,-167.808 657.646,-169.871 662.711,-171.7"/>
<polygon fill="midnightblue" stroke="midnightblue" points="661.871,-175.109 672.465,-174.936 664.075,-168.465 661.871,-175.109"/>
</g>
<!-- Node8 -->
<g id="node8" class="node"><title>Node8</title>
<g id="a_node8"><a xlink:href="a00003.html#a3d6c629d64e1911979c9f483c8785b5f" target="_top" xlink:title="Send mouse button or keyboard data. ">
<polygon fill="white" stroke="black" points="810,-89 810,-106 953,-106 953,-89 810,-89"/>
<text text-anchor="middle" x="881.5" y="-95.6" font-family="Helvetica,sans-Serif" font-size="8.00">project.android.net.Client.sendData</text>
</a>
</g>
</g>
<!-- Node7&#45;&gt;Node8 -->
<g id="edge8" class="edge"><title>Node7&#45;&gt;Node8</title>
<path fill="none" stroke="midnightblue" d="M773.786,-97.5C782.225,-97.5 790.988,-97.5 799.702,-97.5"/>
<polygon fill="midnightblue" stroke="midnightblue" points="799.886,-101 809.886,-97.5 799.886,-94.0001 799.886,-101"/>
</g>
<!-- Node9 -->
<g id="node9" class="node"><title>Node9</title>
<g id="a_node9"><a xlink:href="a00009.html#af8add0417bec5bd0d019410c91f69e38" target="_top" xlink:title="Returns a JSon&#45;string of an object. ">
<polygon fill="white" stroke="black" points="993.5,-107.5 993.5,-133.5 1096.5,-133.5 1096.5,-107.5 993.5,-107.5"/>
<text text-anchor="start" x="1001.5" y="-123.1" font-family="Helvetica,sans-Serif" font-size="8.00">project.android.net.Data</text>
<text text-anchor="middle" x="1045" y="-114.1" font-family="Helvetica,sans-Serif" font-size="8.00">Wrapper.getGsonString</text>
</a>
</g>
</g>
<!-- Node8&#45;&gt;Node9 -->
<g id="edge9" class="edge"><title>Node8&#45;&gt;Node9</title>
<path fill="none" stroke="midnightblue" d="M942.637,-106.064C955.929,-107.957 970.02,-109.964 983.333,-111.86"/>
<polygon fill="midnightblue" stroke="midnightblue" points="982.943,-115.34 993.337,-113.285 983.93,-108.41 982.943,-115.34"/>
</g>
<!-- Node10 -->
<g id="node10" class="node"><title>Node10</title>
<g id="a_node10"><a xlink:href="a00010.html#a73624750dc6ff111d72bcb4b54c4995c" target="_top" xlink:title="Encrypt plaintext using AES 256&#45;bit encryption algorithm. ">
<polygon fill="white" stroke="black" points="989,-62.5 989,-88.5 1101,-88.5 1101,-62.5 989,-62.5"/>
<text text-anchor="start" x="997" y="-78.1" font-family="Helvetica,sans-Serif" font-size="8.00">project.android.security.</text>
<text text-anchor="middle" x="1045" y="-69.1" font-family="Helvetica,sans-Serif" font-size="8.00">EKEProvider.encryptString</text>
</a>
</g>
</g>
<!-- Node8&#45;&gt;Node10 -->
<g id="edge10" class="edge"><title>Node8&#45;&gt;Node10</title>
<path fill="none" stroke="midnightblue" d="M944.94,-88.9942C956.017,-87.4853 967.58,-85.9102 978.733,-84.3909"/>
<polygon fill="midnightblue" stroke="midnightblue" points="979.399,-87.8326 988.835,-83.0148 978.454,-80.8967 979.399,-87.8326"/>
</g>
</g>
</svg>
