<?xml version="1.0" encoding="UTF-8" standalone="no"?>
<!DOCTYPE svg PUBLIC "-//W3C//DTD SVG 1.1//EN"
 "http://www.w3.org/Graphics/SVG/1.1/DTD/svg11.dtd">
<!-- Generated by graphviz version 2.38.0 (20140413.2041)
 -->
<!-- Title: project.android.net.Client.sendData Pages: 1 -->
<svg width="656pt" height="72pt"
 viewBox="0.00 0.00 656.00 71.50" xmlns="http://www.w3.org/2000/svg" xmlns:xlink="http://www.w3.org/1999/xlink">
<g id="graph0" class="graph" transform="scale(1 1) rotate(0) translate(4 67.5)">
<title>project.android.net.Client.sendData</title>
<polygon fill="white" stroke="none" points="-4,4 -4,-67.5 652,-67.5 652,4 -4,4"/>
<!-- Node1 -->
<g id="node1" class="node"><title>Node1</title>
<polygon fill="#bfbfbf" stroke="black" points="0,-20.5 0,-37.5 143,-37.5 143,-20.5 0,-20.5"/>
<text text-anchor="middle" x="71.5" y="-27.1" font-family="Helvetica,sans-Serif" font-size="8.00">project.android.net.Client.sendData</text>
</g>
<!-- Node2 -->
<g id="node2" class="node"><title>Node2</title>
<g id="a_node2"><a xlink:href="a00003.html#aa23e2b087d09db0524a34b73cd5e07d3" target="_top" xlink:title="Send a stop signal if the user disconnects the server from the app. ">
<polygon fill="white" stroke="black" points="179,-16 179,-42 304,-42 304,-16 179,-16"/>
<text text-anchor="start" x="187" y="-31.6" font-family="Helvetica,sans-Serif" font-size="8.00">project.android.net.Client.send</text>
<text text-anchor="middle" x="241.5" y="-22.6" font-family="Helvetica,sans-Serif" font-size="8.00">StopSignal</text>
</a>
</g>
</g>
<!-- Node1&#45;&gt;Node2 -->
<g id="edge1" class="edge"><title>Node1&#45;&gt;Node2</title>
<path fill="none" stroke="midnightblue" d="M153.311,-29C161.909,-29 170.552,-29 178.878,-29"/>
<polygon fill="midnightblue" stroke="midnightblue" points="153.26,-25.5001 143.26,-29 153.26,-32.5001 153.26,-25.5001"/>
</g>
<!-- Node3 -->
<g id="node3" class="node"><title>Node3</title>
<g id="a_node3"><a xlink:href="a00006.html#aee2a392b8b0500023dba15b60d3315d2" target="_top" xlink:title="Returns a list of ServerInfo objects. ">
<polygon fill="white" stroke="black" points="340,-16 340,-42 453,-42 453,-16 340,-16"/>
<text text-anchor="start" x="348" y="-31.6" font-family="Helvetica,sans-Serif" font-size="8.00">project.android.Connection</text>
<text text-anchor="middle" x="396.5" y="-22.6" font-family="Helvetica,sans-Serif" font-size="8.00">Fragment.getNetworkList</text>
</a>
</g>
</g>
<!-- Node2&#45;&gt;Node3 -->
<g id="edge2" class="edge"><title>Node2&#45;&gt;Node3</title>
<path fill="none" stroke="midnightblue" d="M314.315,-29C322.909,-29 331.581,-29 339.897,-29"/>
<polygon fill="midnightblue" stroke="midnightblue" points="314.29,-25.5001 304.29,-29 314.29,-32.5001 314.29,-25.5001"/>
</g>
<!-- Node4 -->
<g id="node4" class="node"><title>Node4</title>
<g id="a_node4"><a xlink:href="a00008.html#a9b4dd18431aa7ebd37321a0d2b1d2539" target="_top" xlink:title="Overrides the ArrayAdapter.getCount() method. ">
<polygon fill="white" stroke="black" points="497.5,-37 497.5,-63 639.5,-63 639.5,-37 497.5,-37"/>
<text text-anchor="start" x="505.5" y="-52.6" font-family="Helvetica,sans-Serif" font-size="8.00">project.android.CustomAdapter.get</text>
<text text-anchor="middle" x="568.5" y="-43.6" font-family="Helvetica,sans-Serif" font-size="8.00">Count</text>
</a>
</g>
</g>
<!-- Node3&#45;&gt;Node4 -->
<g id="edge3" class="edge"><title>Node3&#45;&gt;Node4</title>
<path fill="none" stroke="midnightblue" d="M463.285,-37.1263C474.474,-38.5085 486.132,-39.9486 497.427,-41.3439"/>
<polygon fill="midnightblue" stroke="midnightblue" points="463.518,-33.6286 453.164,-35.8762 462.66,-40.5758 463.518,-33.6286"/>
</g>
<!-- Node5 -->
<g id="node5" class="node"><title>Node5</title>
<g id="a_node5"><a xlink:href="a00008.html#a6b2523e50305753cb8c2893dc659a1ae" target="_top" xlink:title="Overrides ArrayAdapter.getView(int, View, ViewGroup) method. ">
<polygon fill="white" stroke="red" points="489,-0.5 489,-17.5 648,-17.5 648,-0.5 489,-0.5"/>
<text text-anchor="middle" x="568.5" y="-7.1" font-family="Helvetica,sans-Serif" font-size="8.00">project.android.CustomAdapter.getView</text>
</a>
</g>
</g>
<!-- Node3&#45;&gt;Node5 -->
<g id="edge4" class="edge"><title>Node3&#45;&gt;Node5</title>
<path fill="none" stroke="midnightblue" d="M463.369,-21.2507C473.731,-20.0316 484.494,-18.7654 494.996,-17.5298"/>
<polygon fill="midnightblue" stroke="midnightblue" points="462.687,-17.8067 453.164,-22.4513 463.505,-24.7588 462.687,-17.8067"/>
</g>
</g>
</svg>
