<?xml version="1.0" encoding="UTF-8" standalone="no"?>
<!DOCTYPE svg PUBLIC "-//W3C//DTD SVG 1.1//EN"
 "http://www.w3.org/Graphics/SVG/1.1/DTD/svg11.dtd">
<!-- Generated by graphviz version 2.38.0 (20140413.2041)
 -->
<!-- Title: project.android.ConnectionFragment.setIcon Pages: 1 -->
<svg width="766pt" height="132pt"
 viewBox="0.00 0.00 766.00 132.40" xmlns="http://www.w3.org/2000/svg" xmlns:xlink="http://www.w3.org/1999/xlink">
<g id="graph0" class="graph" transform="scale(1 1) rotate(0) translate(4 128.4)">
<title>project.android.ConnectionFragment.setIcon</title>
<polygon fill="white" stroke="none" points="-4,4 -4,-128.4 762,-128.4 762,4 -4,4"/>
<!-- Node1 -->
<g id="node1" class="node"><title>Node1</title>
<polygon fill="#bfbfbf" stroke="black" points="0,-42.5 0,-68.5 113,-68.5 113,-42.5 0,-42.5"/>
<text text-anchor="start" x="8" y="-58.1" font-family="Helvetica,sans-Serif" font-size="8.00">project.android.Connection</text>
<text text-anchor="middle" x="56.5" y="-49.1" font-family="Helvetica,sans-Serif" font-size="8.00">Fragment.setIcon</text>
</g>
<!-- Node2 -->
<g id="node2" class="node"><title>Node2</title>
<g id="a_node2"><a xlink:href="a00006.html#a863b30e1ce16c16e6dba6bebe8d8c45e" target="_top" xlink:title="Returns the View of the clicked list item. ">
<polygon fill="white" stroke="black" points="149,-42.5 149,-68.5 268,-68.5 268,-42.5 149,-42.5"/>
<text text-anchor="start" x="157" y="-58.1" font-family="Helvetica,sans-Serif" font-size="8.00">project.android.Connection</text>
<text text-anchor="middle" x="208.5" y="-49.1" font-family="Helvetica,sans-Serif" font-size="8.00">Fragment.getViewByPosition</text>
</a>
</g>
</g>
<!-- Node1&#45;&gt;Node2 -->
<g id="edge1" class="edge"><title>Node1&#45;&gt;Node2</title>
<path fill="none" stroke="midnightblue" d="M113.354,-55.5C121.586,-55.5 130.147,-55.5 138.604,-55.5"/>
<polygon fill="midnightblue" stroke="midnightblue" points="138.838,-59.0001 148.838,-55.5 138.838,-52.0001 138.838,-59.0001"/>
</g>
<!-- Node5 -->
<g id="node5" class="node"><title>Node5</title>
<g id="a_node5"><a xlink:href="a00022.html#a914c65a49cf5940901d475693ee8e205" target="_top" xlink:title="Returns the IPv4 address of the server. ">
<polygon fill="white" stroke="black" points="648,-84.5 648,-110.5 758,-110.5 758,-84.5 648,-84.5"/>
<text text-anchor="start" x="656" y="-100.1" font-family="Helvetica,sans-Serif" font-size="8.00">project.android.net.Server</text>
<text text-anchor="middle" x="703" y="-91.1" font-family="Helvetica,sans-Serif" font-size="8.00">Info.getAddress</text>
</a>
</g>
</g>
<!-- Node1&#45;&gt;Node5 -->
<g id="edge8" class="edge"><title>Node1&#45;&gt;Node5</title>
<path fill="none" stroke="midnightblue" d="M107.145,-68.5229C120.657,-71.7695 135.335,-75.026 149,-77.5 303.218,-105.42 342.568,-110.927 499,-120.5 549.128,-123.568 562.17,-126.766 612,-120.5 624.5,-118.928 637.751,-116.174 650.132,-113.105"/>
<polygon fill="midnightblue" stroke="midnightblue" points="651.038,-116.486 659.843,-110.594 649.285,-109.709 651.038,-116.486"/>
</g>
<!-- Node6 -->
<g id="node6" class="node"><title>Node6</title>
<g id="a_node6"><a xlink:href="a00022.html#adc1c8edd1eafda5cad71f9babd18dfd4" target="_top" xlink:title="Returns the canonical host name of the server. ">
<polygon fill="white" stroke="black" points="500.5,-0.5 500.5,-26.5 610.5,-26.5 610.5,-0.5 500.5,-0.5"/>
<text text-anchor="start" x="508.5" y="-16.1" font-family="Helvetica,sans-Serif" font-size="8.00">project.android.net.Server</text>
<text text-anchor="middle" x="555.5" y="-7.1" font-family="Helvetica,sans-Serif" font-size="8.00">Info.getServerInfo</text>
</a>
</g>
</g>
<!-- Node1&#45;&gt;Node6 -->
<g id="edge7" class="edge"><title>Node1&#45;&gt;Node6</title>
<path fill="none" stroke="midnightblue" d="M101.819,-42.468C116.688,-38.6044 133.444,-34.7961 149,-32.5 268.438,-14.8708 409.607,-12.3275 489.94,-12.5742"/>
<polygon fill="midnightblue" stroke="midnightblue" points="490.368,-16.0762 500.385,-12.6232 490.401,-9.07623 490.368,-16.0762"/>
</g>
<!-- Node3 -->
<g id="node3" class="node"><title>Node3</title>
<g id="a_node3"><a xlink:href="a00008.html#a6b2523e50305753cb8c2893dc659a1ae" target="_top" xlink:title="Overrides ArrayAdapter.getView(int, View, ViewGroup) method. ">
<polygon fill="white" stroke="black" points="304,-47 304,-64 463,-64 463,-47 304,-47"/>
<text text-anchor="middle" x="383.5" y="-53.6" font-family="Helvetica,sans-Serif" font-size="8.00">project.android.CustomAdapter.getView</text>
</a>
</g>
</g>
<!-- Node2&#45;&gt;Node3 -->
<g id="edge2" class="edge"><title>Node2&#45;&gt;Node3</title>
<path fill="none" stroke="midnightblue" d="M268.07,-55.5C276.313,-55.5 284.936,-55.5 293.59,-55.5"/>
<polygon fill="midnightblue" stroke="midnightblue" points="293.744,-59.0001 303.744,-55.5 293.744,-52.0001 293.744,-59.0001"/>
</g>
<!-- Node4 -->
<g id="node4" class="node"><title>Node4</title>
<g id="a_node4"><a xlink:href="a00006.html#aee2a392b8b0500023dba15b60d3315d2" target="_top" xlink:title="Returns a list of ServerInfo objects. ">
<polygon fill="white" stroke="red" points="499,-84.5 499,-110.5 612,-110.5 612,-84.5 499,-84.5"/>
<text text-anchor="start" x="507" y="-100.1" font-family="Helvetica,sans-Serif" font-size="8.00">project.android.Connection</text>
<text text-anchor="middle" x="555.5" y="-91.1" font-family="Helvetica,sans-Serif" font-size="8.00">Fragment.getNetworkList</text>
</a>
</g>
</g>
<!-- Node3&#45;&gt;Node4 -->
<g id="edge3" class="edge"><title>Node3&#45;&gt;Node4</title>
<path fill="none" stroke="midnightblue" d="M419.312,-64.1007C440.144,-69.2474 467.242,-75.9422 491.702,-81.9853"/>
<polygon fill="midnightblue" stroke="midnightblue" points="491.092,-85.4396 501.639,-84.4403 492.771,-78.6439 491.092,-85.4396"/>
</g>
<!-- Node3&#45;&gt;Node5 -->
<g id="edge6" class="edge"><title>Node3&#45;&gt;Node5</title>
<path fill="none" stroke="midnightblue" d="M463.08,-58.8257C507.095,-61.4972 562.852,-66.2271 612,-74.5 623.439,-76.4255 635.556,-79.0848 647.065,-81.9134"/>
<polygon fill="midnightblue" stroke="midnightblue" points="646.438,-85.365 656.991,-84.4286 648.157,-78.5795 646.438,-85.365"/>
</g>
<!-- Node3&#45;&gt;Node6 -->
<g id="edge5" class="edge"><title>Node3&#45;&gt;Node6</title>
<path fill="none" stroke="midnightblue" d="M419.312,-46.8993C440.144,-41.7526 467.242,-35.0578 491.702,-29.0147"/>
<polygon fill="midnightblue" stroke="midnightblue" points="492.771,-32.3561 501.639,-26.5597 491.092,-25.5604 492.771,-32.3561"/>
</g>
<!-- Node4&#45;&gt;Node5 -->
<g id="edge4" class="edge"><title>Node4&#45;&gt;Node5</title>
<path fill="none" stroke="midnightblue" d="M612.338,-97.5C620.656,-97.5 629.287,-97.5 637.761,-97.5"/>
<polygon fill="midnightblue" stroke="midnightblue" points="637.989,-101 647.989,-97.5 637.989,-94.0001 637.989,-101"/>
</g>
</g>
</svg>
