<?xml version="1.0" encoding="UTF-8" standalone="no"?>
<!DOCTYPE svg PUBLIC "-//W3C//DTD SVG 1.1//EN"
 "http://www.w3.org/Graphics/SVG/1.1/DTD/svg11.dtd">
<!-- Generated by graphviz version 2.38.0 (20140413.2041)
 -->
<!-- Title: project.android.net.Client.sendData Pages: 1 -->
<svg width="1256pt" height="115pt"
 viewBox="0.00 0.00 1256.00 115.00" xmlns="http://www.w3.org/2000/svg" xmlns:xlink="http://www.w3.org/1999/xlink">
<g id="graph0" class="graph" transform="scale(1 1) rotate(0) translate(4 111)">
<title>project.android.net.Client.sendData</title>
<polygon fill="white" stroke="none" points="-4,4 -4,-111 1252,-111 1252,4 -4,4"/>
<!-- Node1 -->
<g id="node1" class="node"><title>Node1</title>
<polygon fill="#bfbfbf" stroke="black" points="0,-44 0,-61 143,-61 143,-44 0,-44"/>
<text text-anchor="middle" x="71.5" y="-50.6" font-family="Helvetica,sans-Serif" font-size="8.00">project.android.net.Client.sendData</text>
</g>
<!-- Node2 -->
<g id="node2" class="node"><title>Node2</title>
<g id="a_node2"><a xlink:href="a00003.html#aa23e2b087d09db0524a34b73cd5e07d3" target="_top" xlink:title="Send a stop signal if the user disconnects the server from the app. ">
<polygon fill="white" stroke="black" points="179,-39.5 179,-65.5 304,-65.5 304,-39.5 179,-39.5"/>
<text text-anchor="start" x="187" y="-55.1" font-family="Helvetica,sans-Serif" font-size="8.00">project.android.net.Client.send</text>
<text text-anchor="middle" x="241.5" y="-46.1" font-family="Helvetica,sans-Serif" font-size="8.00">StopSignal</text>
</a>
</g>
</g>
<!-- Node1&#45;&gt;Node2 -->
<g id="edge1" class="edge"><title>Node1&#45;&gt;Node2</title>
<path fill="none" stroke="midnightblue" d="M153.311,-52.5C161.909,-52.5 170.552,-52.5 178.878,-52.5"/>
<polygon fill="midnightblue" stroke="midnightblue" points="153.26,-49.0001 143.26,-52.5 153.26,-56.0001 153.26,-49.0001"/>
</g>
<!-- Node3 -->
<g id="node3" class="node"><title>Node3</title>
<g id="a_node3"><a xlink:href="a00006.html#aee2a392b8b0500023dba15b60d3315d2" target="_top" xlink:title="Returns a list of ServerInfo objects. ">
<polygon fill="white" stroke="black" points="340,-39.5 340,-65.5 453,-65.5 453,-39.5 340,-39.5"/>
<text text-anchor="start" x="348" y="-55.1" font-family="Helvetica,sans-Serif" font-size="8.00">project.android.Connection</text>
<text text-anchor="middle" x="396.5" y="-46.1" font-family="Helvetica,sans-Serif" font-size="8.00">Fragment.getNetworkList</text>
</a>
</g>
</g>
<!-- Node2&#45;&gt;Node3 -->
<g id="edge2" class="edge"><title>Node2&#45;&gt;Node3</title>
<path fill="none" stroke="midnightblue" d="M314.315,-52.5C322.909,-52.5 331.581,-52.5 339.897,-52.5"/>
<polygon fill="midnightblue" stroke="midnightblue" points="314.29,-49.0001 304.29,-52.5 314.29,-56.0001 314.29,-49.0001"/>
</g>
<!-- Node4 -->
<g id="node4" class="node"><title>Node4</title>
<g id="a_node4"><a xlink:href="a00008.html#a9b4dd18431aa7ebd37321a0d2b1d2539" target="_top" xlink:title="Overrides the ArrayAdapter.getCount() method. ">
<polygon fill="white" stroke="black" points="497.5,-80.5 497.5,-106.5 639.5,-106.5 639.5,-80.5 497.5,-80.5"/>
<text text-anchor="start" x="505.5" y="-96.1" font-family="Helvetica,sans-Serif" font-size="8.00">project.android.CustomAdapter.get</text>
<text text-anchor="middle" x="568.5" y="-87.1" font-family="Helvetica,sans-Serif" font-size="8.00">Count</text>
</a>
</g>
</g>
<!-- Node3&#45;&gt;Node4 -->
<g id="edge3" class="edge"><title>Node3&#45;&gt;Node4</title>
<path fill="none" stroke="midnightblue" d="M461.649,-67.9712C478.723,-72.0891 496.994,-76.4956 513.467,-80.4686"/>
<polygon fill="midnightblue" stroke="midnightblue" points="462.298,-64.5276 451.756,-65.5854 460.657,-71.3324 462.298,-64.5276"/>
</g>
<!-- Node5 -->
<g id="node5" class="node"><title>Node5</title>
<g id="a_node5"><a xlink:href="a00008.html#a6b2523e50305753cb8c2893dc659a1ae" target="_top" xlink:title="Overrides ArrayAdapter.getView(int, View, ViewGroup) method. ">
<polygon fill="white" stroke="black" points="489,-44 489,-61 648,-61 648,-44 489,-44"/>
<text text-anchor="middle" x="568.5" y="-50.6" font-family="Helvetica,sans-Serif" font-size="8.00">project.android.CustomAdapter.getView</text>
</a>
</g>
</g>
<!-- Node3&#45;&gt;Node5 -->
<g id="edge4" class="edge"><title>Node3&#45;&gt;Node5</title>
<path fill="none" stroke="midnightblue" d="M463.252,-52.5C471.648,-52.5 480.31,-52.5 488.884,-52.5"/>
<polygon fill="midnightblue" stroke="midnightblue" points="463.164,-49.0001 453.164,-52.5 463.164,-56.0001 463.164,-49.0001"/>
</g>
<!-- Node6 -->
<g id="node6" class="node"><title>Node6</title>
<g id="a_node6"><a xlink:href="a00006.html#a863b30e1ce16c16e6dba6bebe8d8c45e" target="_top" xlink:title="Returns the View of the clicked list item. ">
<polygon fill="white" stroke="black" points="684,-42.5 684,-68.5 803,-68.5 803,-42.5 684,-42.5"/>
<text text-anchor="start" x="692" y="-58.1" font-family="Helvetica,sans-Serif" font-size="8.00">project.android.Connection</text>
<text text-anchor="middle" x="743.5" y="-49.1" font-family="Helvetica,sans-Serif" font-size="8.00">Fragment.getViewByPosition</text>
</a>
</g>
</g>
<!-- Node5&#45;&gt;Node6 -->
<g id="edge5" class="edge"><title>Node5&#45;&gt;Node6</title>
<path fill="none" stroke="midnightblue" d="M658.348,-54.0407C667.038,-54.1914 675.697,-54.3416 683.972,-54.4851"/>
<polygon fill="midnightblue" stroke="midnightblue" points="658.213,-50.5379 648.154,-53.8639 658.091,-57.5369 658.213,-50.5379"/>
</g>
<!-- Node7 -->
<g id="node7" class="node"><title>Node7</title>
<g id="a_node7"><a xlink:href="a00006.html#a5ae4f9d7872792288afb3de65ab4c2b0" target="_top" xlink:title="Sets an icon for an inactive server. ">
<polygon fill="white" stroke="black" points="839,-0.5 839,-26.5 952,-26.5 952,-0.5 839,-0.5"/>
<text text-anchor="start" x="847" y="-16.1" font-family="Helvetica,sans-Serif" font-size="8.00">project.android.Connection</text>
<text text-anchor="middle" x="895.5" y="-7.1" font-family="Helvetica,sans-Serif" font-size="8.00">Fragment.resetIcon</text>
</a>
</g>
</g>
<!-- Node6&#45;&gt;Node7 -->
<g id="edge6" class="edge"><title>Node6&#45;&gt;Node7</title>
<path fill="none" stroke="midnightblue" d="M801.094,-39.6538C816.531,-35.3313 833.077,-30.6984 847.89,-26.5508"/>
<polygon fill="midnightblue" stroke="midnightblue" points="799.825,-36.3744 791.139,-42.4412 801.712,-43.1152 799.825,-36.3744"/>
</g>
<!-- Node10 -->
<g id="node10" class="node"><title>Node10</title>
<g id="a_node10"><a xlink:href="a00006.html#af0e6f7c8aa02553792fd18fbb5e98a2e" target="_top" xlink:title="Sets an icon for an active server. ">
<polygon fill="white" stroke="black" points="839,-45.5 839,-71.5 952,-71.5 952,-45.5 839,-45.5"/>
<text text-anchor="start" x="847" y="-61.1" font-family="Helvetica,sans-Serif" font-size="8.00">project.android.Connection</text>
<text text-anchor="middle" x="895.5" y="-52.1" font-family="Helvetica,sans-Serif" font-size="8.00">Fragment.setIcon</text>
</a>
</g>
</g>
<!-- Node6&#45;&gt;Node10 -->
<g id="edge10" class="edge"><title>Node6&#45;&gt;Node10</title>
<path fill="none" stroke="midnightblue" d="M813.568,-56.8814C822.008,-57.0502 830.547,-57.2209 838.757,-57.3851"/>
<polygon fill="midnightblue" stroke="midnightblue" points="813.421,-53.3778 803.353,-56.6771 813.281,-60.3764 813.421,-53.3778"/>
</g>
<!-- Node7&#45;&gt;Node3 -->
<g id="edge9" class="edge"><title>Node7&#45;&gt;Node3</title>
<path fill="none" stroke="midnightblue" d="M828.386,-14.0373C747.91,-15.3556 608.013,-19.7882 489,-34.5 477.431,-35.9301 465.132,-37.9795 453.429,-40.1869"/>
<polygon fill="midnightblue" stroke="midnightblue" points="828.913,-17.5298 838.859,-13.8779 828.806,-10.5306 828.913,-17.5298"/>
</g>
<!-- Node8 -->
<g id="node8" class="node"><title>Node8</title>
<g id="a_node8"><a xlink:href="a00005.html#a9f6765867ad54f586cc7b329213a2ac3" target="_top" xlink:title="Performs operations for reading data from a server. ">
<polygon fill="white" stroke="black" points="993,-0.5 993,-26.5 1099,-26.5 1099,-0.5 993,-0.5"/>
<text text-anchor="start" x="1001" y="-16.1" font-family="Helvetica,sans-Serif" font-size="8.00">project.android.net.Client</text>
<text text-anchor="middle" x="1046" y="-7.1" font-family="Helvetica,sans-Serif" font-size="8.00">IOThread.run</text>
</a>
</g>
</g>
<!-- Node7&#45;&gt;Node8 -->
<g id="edge7" class="edge"><title>Node7&#45;&gt;Node8</title>
<path fill="none" stroke="midnightblue" d="M962.348,-13.5C972.579,-13.5 983.026,-13.5 992.897,-13.5"/>
<polygon fill="midnightblue" stroke="midnightblue" points="962.218,-10.0001 952.218,-13.5 962.218,-17.0001 962.218,-10.0001"/>
</g>
<!-- Node9 -->
<g id="node9" class="node"><title>Node9</title>
<g id="a_node9"><a xlink:href="a00005.html#aa57b04eb44ae7982a7a79cdb7c484144" target="_top" xlink:title="Constructor. ">
<polygon fill="white" stroke="black" points="1140,-0.5 1140,-26.5 1248,-26.5 1248,-0.5 1140,-0.5"/>
<text text-anchor="start" x="1148" y="-16.1" font-family="Helvetica,sans-Serif" font-size="8.00">project.android.net.Client</text>
<text text-anchor="middle" x="1194" y="-7.1" font-family="Helvetica,sans-Serif" font-size="8.00">IOThread.ClientIOThread</text>
</a>
</g>
</g>
<!-- Node8&#45;&gt;Node9 -->
<g id="edge8" class="edge"><title>Node8&#45;&gt;Node9</title>
<path fill="none" stroke="midnightblue" d="M1109.58,-13.5C1119.58,-13.5 1129.84,-13.5 1139.59,-13.5"/>
<polygon fill="midnightblue" stroke="midnightblue" points="1109.3,-10.0001 1099.3,-13.5 1109.3,-17.0001 1109.3,-10.0001"/>
</g>
<!-- Node11 -->
<g id="node11" class="node"><title>Node11</title>
<g id="a_node11"><a xlink:href="a00019.html#a6b623423ab726a2d5008717960032b6d" target="_top" xlink:title="Overrides the android.app.Service.onStartCommand(Intent, int, int). ">
<polygon fill="white" stroke="black" points="988,-45.5 988,-71.5 1104,-71.5 1104,-45.5 988,-45.5"/>
<text text-anchor="start" x="996" y="-61.1" font-family="Helvetica,sans-Serif" font-size="8.00">project.android.net.Network</text>
<text text-anchor="middle" x="1046" y="-52.1" font-family="Helvetica,sans-Serif" font-size="8.00">Service.onStartCommand</text>
</a>
</g>
</g>
<!-- Node10&#45;&gt;Node11 -->
<g id="edge11" class="edge"><title>Node10&#45;&gt;Node11</title>
<path fill="none" stroke="midnightblue" d="M962.486,-58.5C970.989,-58.5 979.638,-58.5 987.979,-58.5"/>
<polygon fill="midnightblue" stroke="midnightblue" points="962.218,-55.0001 952.218,-58.5 962.218,-62.0001 962.218,-55.0001"/>
</g>
</g>
</svg>
