<?xml version="1.0" encoding="UTF-8" standalone="no"?>
<!DOCTYPE svg PUBLIC "-//W3C//DTD SVG 1.1//EN"
 "http://www.w3.org/Graphics/SVG/1.1/DTD/svg11.dtd">
<!-- Generated by graphviz version 2.38.0 (20140413.2041)
 -->
<!-- Title: project.android.net.DataWrapper.isInitQuat Pages: 1 -->
<svg width="250pt" height="35pt"
 viewBox="0.00 0.00 250.00 35.00" xmlns="http://www.w3.org/2000/svg" xmlns:xlink="http://www.w3.org/1999/xlink">
<g id="graph0" class="graph" transform="scale(1 1) rotate(0) translate(4 31)">
<title>project.android.net.DataWrapper.isInitQuat</title>
<polygon fill="white" stroke="none" points="-4,4 -4,-31 246,-31 246,4 -4,4"/>
<!-- Node1 -->
<g id="node1" class="node"><title>Node1</title>
<polygon fill="#bfbfbf" stroke="black" points="0,-0.5 0,-26.5 103,-26.5 103,-0.5 0,-0.5"/>
<text text-anchor="start" x="8" y="-16.1" font-family="Helvetica,sans-Serif" font-size="8.00">project.android.net.Data</text>
<text text-anchor="middle" x="51.5" y="-7.1" font-family="Helvetica,sans-Serif" font-size="8.00">Wrapper.isInitQuat</text>
</g>
<!-- Node2 -->
<g id="node2" class="node"><title>Node2</title>
<g id="a_node2"><a xlink:href="a00009.html#a2e994155c226a362c804bcba81376a8b" target="_top" xlink:title="Constructor. ">
<polygon fill="white" stroke="black" points="139,-0.5 139,-26.5 242,-26.5 242,-0.5 139,-0.5"/>
<text text-anchor="start" x="147" y="-16.1" font-family="Helvetica,sans-Serif" font-size="8.00">project.android.net.Data</text>
<text text-anchor="middle" x="190.5" y="-7.1" font-family="Helvetica,sans-Serif" font-size="8.00">Wrapper.DataWrapper</text>
</a>
</g>
</g>
<!-- Node1&#45;&gt;Node2 -->
<g id="edge1" class="edge"><title>Node1&#45;&gt;Node2</title>
<path fill="none" stroke="midnightblue" d="M113.32,-13.5C121.772,-13.5 130.382,-13.5 138.626,-13.5"/>
<polygon fill="midnightblue" stroke="midnightblue" points="113.125,-10.0001 103.125,-13.5 113.124,-17.0001 113.125,-10.0001"/>
</g>
</g>
</svg>
