<?xml version="1.0" encoding="UTF-8" standalone="no"?>
<!DOCTYPE svg PUBLIC "-//W3C//DTD SVG 1.1//EN"
 "http://www.w3.org/Graphics/SVG/1.1/DTD/svg11.dtd">
<!-- Generated by graphviz version 2.38.0 (20140413.2041)
 -->
<!-- Title: project.android.ConnectionFragment.resetIcon Pages: 1 -->
<svg width="620pt" height="140pt"
 viewBox="0.00 0.00 620.00 140.00" xmlns="http://www.w3.org/2000/svg" xmlns:xlink="http://www.w3.org/1999/xlink">
<g id="graph0" class="graph" transform="scale(1 1) rotate(0) translate(4 136)">
<title>project.android.ConnectionFragment.resetIcon</title>
<polygon fill="white" stroke="none" points="-4,4 -4,-136 616,-136 616,4 -4,4"/>
<!-- Node1 -->
<g id="node1" class="node"><title>Node1</title>
<polygon fill="#bfbfbf" stroke="black" points="0,-42.5 0,-68.5 113,-68.5 113,-42.5 0,-42.5"/>
<text text-anchor="start" x="8" y="-58.1" font-family="Helvetica,sans-Serif" font-size="8.00">project.android.Connection</text>
<text text-anchor="middle" x="56.5" y="-49.1" font-family="Helvetica,sans-Serif" font-size="8.00">Fragment.resetIcon</text>
</g>
<!-- Node2 -->
<g id="node2" class="node"><title>Node2</title>
<g id="a_node2"><a xlink:href="a00005.html#a9f6765867ad54f586cc7b329213a2ac3" target="_top" xlink:title="Performs operations for reading data from a server. ">
<polygon fill="white" stroke="black" points="152.5,-96.5 152.5,-122.5 258.5,-122.5 258.5,-96.5 152.5,-96.5"/>
<text text-anchor="start" x="160.5" y="-112.1" font-family="Helvetica,sans-Serif" font-size="8.00">project.android.net.Client</text>
<text text-anchor="middle" x="205.5" y="-103.1" font-family="Helvetica,sans-Serif" font-size="8.00">IOThread.run</text>
</a>
</g>
</g>
<!-- Node1&#45;&gt;Node2 -->
<g id="edge1" class="edge"><title>Node1&#45;&gt;Node2</title>
<path fill="none" stroke="midnightblue" d="M102.589,-72.0634C123.924,-79.9005 149.032,-89.1242 168.989,-96.455"/>
<polygon fill="midnightblue" stroke="midnightblue" points="103.678,-68.7348 93.0846,-68.5719 101.264,-75.3055 103.678,-68.7348"/>
</g>
<!-- Node4 -->
<g id="node4" class="node"><title>Node4</title>
<g id="a_node4"><a xlink:href="a00006.html#aee2a392b8b0500023dba15b60d3315d2" target="_top" xlink:title="Returns a list of ServerInfo objects. ">
<polygon fill="white" stroke="black" points="149,-42.5 149,-68.5 262,-68.5 262,-42.5 149,-42.5"/>
<text text-anchor="start" x="157" y="-58.1" font-family="Helvetica,sans-Serif" font-size="8.00">project.android.Connection</text>
<text text-anchor="middle" x="205.5" y="-49.1" font-family="Helvetica,sans-Serif" font-size="8.00">Fragment.getNetworkList</text>
</a>
</g>
</g>
<!-- Node1&#45;&gt;Node4 -->
<g id="edge3" class="edge"><title>Node1&#45;&gt;Node4</title>
<path fill="none" stroke="midnightblue" d="M123.078,-55.5C131.681,-55.5 140.43,-55.5 148.847,-55.5"/>
<polygon fill="midnightblue" stroke="midnightblue" points="123.074,-52.0001 113.074,-55.5 123.074,-59.0001 123.074,-52.0001"/>
</g>
<!-- Node3 -->
<g id="node3" class="node"><title>Node3</title>
<g id="a_node3"><a xlink:href="a00005.html#aa57b04eb44ae7982a7a79cdb7c484144" target="_top" xlink:title="Constructor. ">
<polygon fill="white" stroke="black" points="323.5,-105.5 323.5,-131.5 431.5,-131.5 431.5,-105.5 323.5,-105.5"/>
<text text-anchor="start" x="331.5" y="-121.1" font-family="Helvetica,sans-Serif" font-size="8.00">project.android.net.Client</text>
<text text-anchor="middle" x="377.5" y="-112.1" font-family="Helvetica,sans-Serif" font-size="8.00">IOThread.ClientIOThread</text>
</a>
</g>
</g>
<!-- Node2&#45;&gt;Node3 -->
<g id="edge2" class="edge"><title>Node2&#45;&gt;Node3</title>
<path fill="none" stroke="midnightblue" d="M269.191,-112.819C287.002,-113.762 306.219,-114.779 323.401,-115.689"/>
<polygon fill="midnightblue" stroke="midnightblue" points="269.064,-109.307 258.893,-112.274 268.694,-116.298 269.064,-109.307"/>
</g>
<!-- Node5 -->
<g id="node5" class="node"><title>Node5</title>
<g id="a_node5"><a xlink:href="a00008.html#a9b4dd18431aa7ebd37321a0d2b1d2539" target="_top" xlink:title="Overrides the ArrayAdapter.getCount() method. ">
<polygon fill="white" stroke="black" points="306.5,-60.5 306.5,-86.5 448.5,-86.5 448.5,-60.5 306.5,-60.5"/>
<text text-anchor="start" x="314.5" y="-76.1" font-family="Helvetica,sans-Serif" font-size="8.00">project.android.CustomAdapter.get</text>
<text text-anchor="middle" x="377.5" y="-67.1" font-family="Helvetica,sans-Serif" font-size="8.00">Count</text>
</a>
</g>
</g>
<!-- Node4&#45;&gt;Node5 -->
<g id="edge4" class="edge"><title>Node4&#45;&gt;Node5</title>
<path fill="none" stroke="midnightblue" d="M272.285,-62.4654C283.474,-63.6502 295.132,-64.8845 306.427,-66.0805"/>
<polygon fill="midnightblue" stroke="midnightblue" points="272.477,-58.9664 262.164,-61.3939 271.74,-65.9274 272.477,-58.9664"/>
</g>
<!-- Node6 -->
<g id="node6" class="node"><title>Node6</title>
<g id="a_node6"><a xlink:href="a00008.html#a6b2523e50305753cb8c2893dc659a1ae" target="_top" xlink:title="Overrides ArrayAdapter.getView(int, View, ViewGroup) method. ">
<polygon fill="white" stroke="black" points="298,-24 298,-41 457,-41 457,-24 298,-24"/>
<text text-anchor="middle" x="377.5" y="-30.6" font-family="Helvetica,sans-Serif" font-size="8.00">project.android.CustomAdapter.getView</text>
</a>
</g>
</g>
<!-- Node4&#45;&gt;Node6 -->
<g id="edge5" class="edge"><title>Node4&#45;&gt;Node6</title>
<path fill="none" stroke="midnightblue" d="M272.378,-46.587C285.942,-44.752 300.19,-42.8242 313.644,-41.0041"/>
<polygon fill="midnightblue" stroke="midnightblue" points="271.605,-43.1597 262.164,-47.9689 272.543,-50.0965 271.605,-43.1597"/>
</g>
<!-- Node7 -->
<g id="node7" class="node"><title>Node7</title>
<g id="a_node7"><a xlink:href="a00006.html#a863b30e1ce16c16e6dba6bebe8d8c45e" target="_top" xlink:title="Returns the View of the clicked list item. ">
<polygon fill="white" stroke="red" points="493,-0.5 493,-26.5 612,-26.5 612,-0.5 493,-0.5"/>
<text text-anchor="start" x="501" y="-16.1" font-family="Helvetica,sans-Serif" font-size="8.00">project.android.Connection</text>
<text text-anchor="middle" x="552.5" y="-7.1" font-family="Helvetica,sans-Serif" font-size="8.00">Fragment.getViewByPosition</text>
</a>
</g>
</g>
<!-- Node6&#45;&gt;Node7 -->
<g id="edge6" class="edge"><title>Node6&#45;&gt;Node7</title>
<path fill="none" stroke="midnightblue" d="M466.273,-22.8602C475.255,-21.8737 484.219,-20.8893 492.777,-19.9494"/>
<polygon fill="midnightblue" stroke="midnightblue" points="465.702,-19.4017 456.144,-23.9726 466.467,-26.3599 465.702,-19.4017"/>
</g>
<!-- Node7&#45;&gt;Node1 -->
<g id="edge7" class="edge"><title>Node7&#45;&gt;Node1</title>
<path fill="none" stroke="midnightblue" d="M482.536,-11.611C431.518,-10.7389 360.361,-10.6234 298,-14.5 231.425,-18.6386 214.587,-20.3453 149,-32.5 134.505,-35.1862 118.893,-38.8264 104.741,-42.4178"/>
<polygon fill="midnightblue" stroke="midnightblue" points="482.721,-15.1149 492.784,-11.801 482.851,-8.11613 482.721,-15.1149"/>
</g>
</g>
</svg>
