<?xml version="1.0" encoding="UTF-8" standalone="no"?>
<!DOCTYPE svg PUBLIC "-//W3C//DTD SVG 1.1//EN"
 "http://www.w3.org/Graphics/SVG/1.1/DTD/svg11.dtd">
<!-- Generated by graphviz version 2.38.0 (20140413.2041)
 -->
<!-- Title: project.android.ConnectionFragment.getNetworkList Pages: 1 -->
<svg width="803pt" height="264pt"
 viewBox="0.00 0.00 803.00 263.93" xmlns="http://www.w3.org/2000/svg" xmlns:xlink="http://www.w3.org/1999/xlink">
<g id="graph0" class="graph" transform="scale(1 1) rotate(0) translate(4 259.931)">
<title>project.android.ConnectionFragment.getNetworkList</title>
<polygon fill="white" stroke="none" points="-4,4 -4,-259.931 799,-259.931 799,4 -4,4"/>
<!-- Node1 -->
<g id="node1" class="node"><title>Node1</title>
<polygon fill="#bfbfbf" stroke="black" points="0,-126.5 0,-152.5 113,-152.5 113,-126.5 0,-126.5"/>
<text text-anchor="start" x="8" y="-142.1" font-family="Helvetica,sans-Serif" font-size="8.00">project.android.Connection</text>
<text text-anchor="middle" x="56.5" y="-133.1" font-family="Helvetica,sans-Serif" font-size="8.00">Fragment.getNetworkList</text>
</g>
<!-- Node2 -->
<g id="node2" class="node"><title>Node2</title>
<g id="a_node2"><a xlink:href="a00006.html#a5ae4f9d7872792288afb3de65ab4c2b0" target="_top" xlink:title="Sets an icon for an inactive server. ">
<polygon fill="white" stroke="black" points="155.5,-104.5 155.5,-130.5 268.5,-130.5 268.5,-104.5 155.5,-104.5"/>
<text text-anchor="start" x="163.5" y="-120.1" font-family="Helvetica,sans-Serif" font-size="8.00">project.android.Connection</text>
<text text-anchor="middle" x="212" y="-111.1" font-family="Helvetica,sans-Serif" font-size="8.00">Fragment.resetIcon</text>
</a>
</g>
</g>
<!-- Node1&#45;&gt;Node2 -->
<g id="edge1" class="edge"><title>Node1&#45;&gt;Node2</title>
<path fill="none" stroke="midnightblue" d="M113.351,-131.495C123.745,-130.006 134.692,-128.437 145.348,-126.909"/>
<polygon fill="midnightblue" stroke="midnightblue" points="146.045,-130.345 155.447,-125.462 145.052,-123.416 146.045,-130.345"/>
</g>
<!-- Node5 -->
<g id="node5" class="node"><title>Node5</title>
<g id="a_node5"><a xlink:href="a00022.html#a914c65a49cf5940901d475693ee8e205" target="_top" xlink:title="Returns the IPv4 address of the server. ">
<polygon fill="white" stroke="black" points="685,-210.5 685,-236.5 795,-236.5 795,-210.5 685,-210.5"/>
<text text-anchor="start" x="693" y="-226.1" font-family="Helvetica,sans-Serif" font-size="8.00">project.android.net.Server</text>
<text text-anchor="middle" x="740" y="-217.1" font-family="Helvetica,sans-Serif" font-size="8.00">Info.getAddress</text>
</a>
</g>
</g>
<!-- Node1&#45;&gt;Node5 -->
<g id="edge6" class="edge"><title>Node1&#45;&gt;Node5</title>
<path fill="none" stroke="midnightblue" d="M69.673,-152.545C85.965,-169.044 116.587,-196.828 149,-209.5 328.753,-279.776 563.417,-254.211 674.861,-235.799"/>
<polygon fill="midnightblue" stroke="midnightblue" points="675.654,-239.215 684.932,-234.099 674.489,-232.312 675.654,-239.215"/>
</g>
<!-- Node6 -->
<g id="node6" class="node"><title>Node6</title>
<g id="a_node6"><a xlink:href="a00022.html#a19b6bb0a1264932dfc136820ec21620f" target="_top" xlink:title="Sets the pairing key used during client&#45;server authentication. ">
<polygon fill="white" stroke="black" points="157,-149.5 157,-175.5 267,-175.5 267,-149.5 157,-149.5"/>
<text text-anchor="start" x="165" y="-165.1" font-family="Helvetica,sans-Serif" font-size="8.00">project.android.net.Server</text>
<text text-anchor="middle" x="212" y="-156.1" font-family="Helvetica,sans-Serif" font-size="8.00">Info.setPairingKey</text>
</a>
</g>
</g>
<!-- Node1&#45;&gt;Node6 -->
<g id="edge7" class="edge"><title>Node1&#45;&gt;Node6</title>
<path fill="none" stroke="midnightblue" d="M113.351,-147.869C124.246,-149.501 135.749,-151.225 146.887,-152.893"/>
<polygon fill="midnightblue" stroke="midnightblue" points="146.576,-156.386 156.985,-154.406 147.614,-149.463 146.576,-156.386"/>
</g>
<!-- Node7 -->
<g id="node7" class="node"><title>Node7</title>
<g id="a_node7"><a xlink:href="a00003.html#aa23e2b087d09db0524a34b73cd5e07d3" target="_top" xlink:title="Send a stop signal if the user disconnects the server from the app. ">
<polygon fill="white" stroke="black" points="149.5,-22.5 149.5,-48.5 274.5,-48.5 274.5,-22.5 149.5,-22.5"/>
<text text-anchor="start" x="157.5" y="-38.1" font-family="Helvetica,sans-Serif" font-size="8.00">project.android.net.Client.send</text>
<text text-anchor="middle" x="212" y="-29.1" font-family="Helvetica,sans-Serif" font-size="8.00">StopSignal</text>
</a>
</g>
</g>
<!-- Node1&#45;&gt;Node7 -->
<g id="edge8" class="edge"><title>Node1&#45;&gt;Node7</title>
<path fill="none" stroke="midnightblue" d="M69.3387,-126.337C85.7345,-108.782 116.972,-77.6949 149,-58.5 152.447,-56.4344 156.11,-54.5036 159.866,-52.7095"/>
<polygon fill="midnightblue" stroke="midnightblue" points="161.59,-55.7744 169.323,-48.5323 158.761,-49.3712 161.59,-55.7744"/>
</g>
<!-- Node11 -->
<g id="node11" class="node"><title>Node11</title>
<g id="a_node11"><a xlink:href="a00003.html#a2f8cb3f32f139e5c370c8b74f539368a" target="_top" xlink:title="Close client socket. ">
<polygon fill="white" stroke="black" points="149,-68 149,-85 275,-85 275,-68 149,-68"/>
<text text-anchor="middle" x="212" y="-74.6" font-family="Helvetica,sans-Serif" font-size="8.00">project.android.net.Client.close</text>
</a>
</g>
</g>
<!-- Node1&#45;&gt;Node11 -->
<g id="edge12" class="edge"><title>Node1&#45;&gt;Node11</title>
<path fill="none" stroke="midnightblue" d="M81.0683,-126.487C99.2515,-116.8 125.232,-103.714 149,-94.5 154.967,-92.1871 161.356,-90.0105 167.682,-88.0245"/>
<polygon fill="midnightblue" stroke="midnightblue" points="168.935,-91.3024 177.502,-85.0683 166.917,-84.5996 168.935,-91.3024"/>
</g>
<!-- Node3 -->
<g id="node3" class="node"><title>Node3</title>
<g id="a_node3"><a xlink:href="a00006.html#a863b30e1ce16c16e6dba6bebe8d8c45e" target="_top" xlink:title="Returns the View of the clicked list item. ">
<polygon fill="white" stroke="black" points="323,-126.5 323,-152.5 442,-152.5 442,-126.5 323,-126.5"/>
<text text-anchor="start" x="331" y="-142.1" font-family="Helvetica,sans-Serif" font-size="8.00">project.android.Connection</text>
<text text-anchor="middle" x="382.5" y="-133.1" font-family="Helvetica,sans-Serif" font-size="8.00">Fragment.getViewByPosition</text>
</a>
</g>
</g>
<!-- Node2&#45;&gt;Node3 -->
<g id="edge2" class="edge"><title>Node2&#45;&gt;Node3</title>
<path fill="none" stroke="midnightblue" d="M268.64,-124.765C282.738,-126.605 298.048,-128.604 312.711,-130.519"/>
<polygon fill="midnightblue" stroke="midnightblue" points="312.367,-134.003 322.736,-131.828 313.273,-127.062 312.367,-134.003"/>
</g>
<!-- Node4 -->
<g id="node4" class="node"><title>Node4</title>
<g id="a_node4"><a xlink:href="a00008.html#a6b2523e50305753cb8c2893dc659a1ae" target="_top" xlink:title="Overrides ArrayAdapter.getView(int, View, ViewGroup) method. ">
<polygon fill="white" stroke="red" points="490,-196 490,-213 649,-213 649,-196 490,-196"/>
<text text-anchor="middle" x="569.5" y="-202.6" font-family="Helvetica,sans-Serif" font-size="8.00">project.android.CustomAdapter.getView</text>
</a>
</g>
</g>
<!-- Node3&#45;&gt;Node4 -->
<g id="edge3" class="edge"><title>Node3&#45;&gt;Node4</title>
<path fill="none" stroke="midnightblue" d="M420.938,-152.654C454.092,-164.302 502.084,-181.165 534.243,-192.464"/>
<polygon fill="midnightblue" stroke="midnightblue" points="533.494,-195.91 544.089,-195.923 535.814,-189.306 533.494,-195.91"/>
</g>
<!-- Node4&#45;&gt;Node1 -->
<g id="edge4" class="edge"><title>Node4&#45;&gt;Node1</title>
<path fill="none" stroke="midnightblue" d="M489.726,-210.612C404.308,-215.02 264.681,-215.722 149,-185.5 126.793,-179.698 103.715,-168.05 86.2915,-157.928"/>
<polygon fill="midnightblue" stroke="midnightblue" points="87.6132,-154.64 77.2351,-152.508 84.0186,-160.647 87.6132,-154.64"/>
</g>
<!-- Node4&#45;&gt;Node5 -->
<g id="edge5" class="edge"><title>Node4&#45;&gt;Node5</title>
<path fill="none" stroke="midnightblue" d="M646.37,-213.055C655.763,-214.114 665.297,-215.189 674.497,-216.227"/>
<polygon fill="midnightblue" stroke="midnightblue" points="674.389,-219.737 684.718,-217.379 675.173,-212.781 674.389,-219.737"/>
</g>
<!-- Node8 -->
<g id="node8" class="node"><title>Node8</title>
<g id="a_node8"><a xlink:href="a00003.html#a3d6c629d64e1911979c9f483c8785b5f" target="_top" xlink:title="Send mouse button or keyboard data. ">
<polygon fill="white" stroke="black" points="311,-27 311,-44 454,-44 454,-27 311,-27"/>
<text text-anchor="middle" x="382.5" y="-33.6" font-family="Helvetica,sans-Serif" font-size="8.00">project.android.net.Client.sendData</text>
</a>
</g>
</g>
<!-- Node7&#45;&gt;Node8 -->
<g id="edge9" class="edge"><title>Node7&#45;&gt;Node8</title>
<path fill="none" stroke="midnightblue" d="M274.786,-35.5C283.225,-35.5 291.988,-35.5 300.702,-35.5"/>
<polygon fill="midnightblue" stroke="midnightblue" points="300.886,-39.0001 310.886,-35.5 300.886,-32.0001 300.886,-39.0001"/>
</g>
<!-- Node9 -->
<g id="node9" class="node"><title>Node9</title>
<g id="a_node9"><a xlink:href="a00009.html#af8add0417bec5bd0d019410c91f69e38" target="_top" xlink:title="Returns a JSon&#45;string of an object. ">
<polygon fill="white" stroke="black" points="518,-45.5 518,-71.5 621,-71.5 621,-45.5 518,-45.5"/>
<text text-anchor="start" x="526" y="-61.1" font-family="Helvetica,sans-Serif" font-size="8.00">project.android.net.Data</text>
<text text-anchor="middle" x="569.5" y="-52.1" font-family="Helvetica,sans-Serif" font-size="8.00">Wrapper.getGsonString</text>
</a>
</g>
</g>
<!-- Node8&#45;&gt;Node9 -->
<g id="edge10" class="edge"><title>Node8&#45;&gt;Node9</title>
<path fill="none" stroke="midnightblue" d="M452.124,-44.0317C470.348,-46.2973 489.898,-48.7279 507.674,-50.9379"/>
<polygon fill="midnightblue" stroke="midnightblue" points="507.556,-54.4501 517.912,-52.2106 508.42,-47.5035 507.556,-54.4501"/>
</g>
<!-- Node10 -->
<g id="node10" class="node"><title>Node10</title>
<g id="a_node10"><a xlink:href="a00010.html#a73624750dc6ff111d72bcb4b54c4995c" target="_top" xlink:title="Encrypt plaintext using AES 256&#45;bit encryption algorithm. ">
<polygon fill="white" stroke="black" points="513.5,-0.5 513.5,-26.5 625.5,-26.5 625.5,-0.5 513.5,-0.5"/>
<text text-anchor="start" x="521.5" y="-16.1" font-family="Helvetica,sans-Serif" font-size="8.00">project.android.security.</text>
<text text-anchor="middle" x="569.5" y="-7.1" font-family="Helvetica,sans-Serif" font-size="8.00">EKEProvider.encryptString</text>
</a>
</g>
</g>
<!-- Node8&#45;&gt;Node10 -->
<g id="edge11" class="edge"><title>Node8&#45;&gt;Node10</title>
<path fill="none" stroke="midnightblue" d="M454.232,-27.0886C470.298,-25.1781 487.293,-23.1571 503.124,-21.2744"/>
<polygon fill="midnightblue" stroke="midnightblue" points="503.822,-24.7162 513.338,-20.0598 502.995,-17.7652 503.822,-24.7162"/>
</g>
</g>
</svg>
