<?xml version="1.0" encoding="UTF-8" standalone="no"?>
<!DOCTYPE svg PUBLIC "-//W3C//DTD SVG 1.1//EN"
 "http://www.w3.org/Graphics/SVG/1.1/DTD/svg11.dtd">
<!-- Generated by graphviz version 2.38.0 (20140413.2041)
 -->
<!-- Title: project.android.CustomAdapter.getCount Pages: 1 -->
<svg width="640pt" height="207pt"
 viewBox="0.00 0.00 640.00 206.50" xmlns="http://www.w3.org/2000/svg" xmlns:xlink="http://www.w3.org/1999/xlink">
<g id="graph0" class="graph" transform="scale(1 1) rotate(0) translate(4 202.5)">
<title>project.android.CustomAdapter.getCount</title>
<polygon fill="white" stroke="none" points="-4,4 -4,-202.5 636,-202.5 636,4 -4,4"/>
<!-- Node1 -->
<g id="node1" class="node"><title>Node1</title>
<polygon fill="#bfbfbf" stroke="black" points="0,-82 0,-108 142,-108 142,-82 0,-82"/>
<text text-anchor="start" x="8" y="-97.6" font-family="Helvetica,sans-Serif" font-size="8.00">project.android.CustomAdapter.get</text>
<text text-anchor="middle" x="71" y="-88.6" font-family="Helvetica,sans-Serif" font-size="8.00">Count</text>
</g>
<!-- Node2 -->
<g id="node2" class="node"><title>Node2</title>
<g id="a_node2"><a xlink:href="a00006.html#aee2a392b8b0500023dba15b60d3315d2" target="_top" xlink:title="Returns a list of ServerInfo objects. ">
<polygon fill="white" stroke="black" points="178,-82 178,-108 291,-108 291,-82 178,-82"/>
<text text-anchor="start" x="186" y="-97.6" font-family="Helvetica,sans-Serif" font-size="8.00">project.android.Connection</text>
<text text-anchor="middle" x="234.5" y="-88.6" font-family="Helvetica,sans-Serif" font-size="8.00">Fragment.getNetworkList</text>
</a>
</g>
</g>
<!-- Node1&#45;&gt;Node2 -->
<g id="edge1" class="edge"><title>Node1&#45;&gt;Node2</title>
<path fill="none" stroke="midnightblue" d="M142.366,-95C150.827,-95 159.442,-95 167.831,-95"/>
<polygon fill="midnightblue" stroke="midnightblue" points="167.928,-98.5001 177.928,-95 167.928,-91.5001 167.928,-98.5001"/>
</g>
<!-- Node3 -->
<g id="node3" class="node"><title>Node3</title>
<g id="a_node3"><a xlink:href="a00006.html#a5ae4f9d7872792288afb3de65ab4c2b0" target="_top" xlink:title="Sets an icon for an inactive server. ">
<polygon fill="white" stroke="black" points="333.5,-172 333.5,-198 446.5,-198 446.5,-172 333.5,-172"/>
<text text-anchor="start" x="341.5" y="-187.6" font-family="Helvetica,sans-Serif" font-size="8.00">project.android.Connection</text>
<text text-anchor="middle" x="390" y="-178.6" font-family="Helvetica,sans-Serif" font-size="8.00">Fragment.resetIcon</text>
</a>
</g>
</g>
<!-- Node2&#45;&gt;Node3 -->
<g id="edge2" class="edge"><title>Node2&#45;&gt;Node3</title>
<path fill="none" stroke="midnightblue" d="M250.103,-108.034C267.425,-122.956 297.663,-147.35 327,-163 330.319,-164.771 333.811,-166.45 337.375,-168.032"/>
<polygon fill="midnightblue" stroke="midnightblue" points="336.335,-171.389 346.912,-171.988 339.017,-164.924 336.335,-171.389"/>
</g>
<!-- Node5 -->
<g id="node5" class="node"><title>Node5</title>
<g id="a_node5"><a xlink:href="a00022.html#a914c65a49cf5940901d475693ee8e205" target="_top" xlink:title="Returns the IPv4 address of the server. ">
<polygon fill="white" stroke="black" points="335,-127 335,-153 445,-153 445,-127 335,-127"/>
<text text-anchor="start" x="343" y="-142.6" font-family="Helvetica,sans-Serif" font-size="8.00">project.android.net.Server</text>
<text text-anchor="middle" x="390" y="-133.6" font-family="Helvetica,sans-Serif" font-size="8.00">Info.getAddress</text>
</a>
</g>
</g>
<!-- Node2&#45;&gt;Node5 -->
<g id="edge4" class="edge"><title>Node2&#45;&gt;Node5</title>
<path fill="none" stroke="midnightblue" d="M279.899,-108.016C297.007,-113.031 316.74,-118.816 334.681,-124.076"/>
<polygon fill="midnightblue" stroke="midnightblue" points="333.855,-127.481 344.436,-126.936 335.824,-120.764 333.855,-127.481"/>
</g>
<!-- Node6 -->
<g id="node6" class="node"><title>Node6</title>
<g id="a_node6"><a xlink:href="a00022.html#a19b6bb0a1264932dfc136820ec21620f" target="_top" xlink:title="Sets the pairing key used during client&#45;server authentication. ">
<polygon fill="white" stroke="black" points="335,-82 335,-108 445,-108 445,-82 335,-82"/>
<text text-anchor="start" x="343" y="-97.6" font-family="Helvetica,sans-Serif" font-size="8.00">project.android.net.Server</text>
<text text-anchor="middle" x="390" y="-88.6" font-family="Helvetica,sans-Serif" font-size="8.00">Info.setPairingKey</text>
</a>
</g>
</g>
<!-- Node2&#45;&gt;Node6 -->
<g id="edge5" class="edge"><title>Node2&#45;&gt;Node6</title>
<path fill="none" stroke="midnightblue" d="M291.351,-95C302.246,-95 313.749,-95 324.887,-95"/>
<polygon fill="midnightblue" stroke="midnightblue" points="324.985,-98.5001 334.985,-95 324.984,-91.5001 324.985,-98.5001"/>
</g>
<!-- Node7 -->
<g id="node7" class="node"><title>Node7</title>
<g id="a_node7"><a xlink:href="a00003.html#aa23e2b087d09db0524a34b73cd5e07d3" target="_top" xlink:title="Send a stop signal if the user disconnects the server from the app. ">
<polygon fill="white" stroke="black" points="327.5,-37 327.5,-63 452.5,-63 452.5,-37 327.5,-37"/>
<text text-anchor="start" x="335.5" y="-52.6" font-family="Helvetica,sans-Serif" font-size="8.00">project.android.net.Client.send</text>
<text text-anchor="middle" x="390" y="-43.6" font-family="Helvetica,sans-Serif" font-size="8.00">StopSignal</text>
</a>
</g>
</g>
<!-- Node2&#45;&gt;Node7 -->
<g id="edge6" class="edge"><title>Node2&#45;&gt;Node7</title>
<path fill="none" stroke="midnightblue" d="M279.899,-81.9841C297.007,-76.9687 316.74,-71.1836 334.681,-65.9241"/>
<polygon fill="midnightblue" stroke="midnightblue" points="335.824,-69.2364 344.436,-63.0645 333.855,-62.5191 335.824,-69.2364"/>
</g>
<!-- Node9 -->
<g id="node9" class="node"><title>Node9</title>
<g id="a_node9"><a xlink:href="a00003.html#a2f8cb3f32f139e5c370c8b74f539368a" target="_top" xlink:title="Close client socket. ">
<polygon fill="white" stroke="black" points="327,-0.5 327,-17.5 453,-17.5 453,-0.5 327,-0.5"/>
<text text-anchor="middle" x="390" y="-7.1" font-family="Helvetica,sans-Serif" font-size="8.00">project.android.net.Client.close</text>
</a>
</g>
</g>
<!-- Node2&#45;&gt;Node9 -->
<g id="edge8" class="edge"><title>Node2&#45;&gt;Node9</title>
<path fill="none" stroke="midnightblue" d="M249.64,-81.9309C266.761,-66.7447 297.041,-41.8743 327,-27 331.649,-24.6916 336.646,-22.6294 341.711,-20.7997"/>
<polygon fill="midnightblue" stroke="midnightblue" points="343.075,-24.0349 351.465,-17.5644 340.871,-17.3909 343.075,-24.0349"/>
</g>
<!-- Node4 -->
<g id="node4" class="node"><title>Node4</title>
<g id="a_node4"><a xlink:href="a00006.html#a863b30e1ce16c16e6dba6bebe8d8c45e" target="_top" xlink:title="Returns the View of the clicked list item. ">
<polygon fill="white" stroke="red" points="501,-172 501,-198 620,-198 620,-172 501,-172"/>
<text text-anchor="start" x="509" y="-187.6" font-family="Helvetica,sans-Serif" font-size="8.00">project.android.Connection</text>
<text text-anchor="middle" x="560.5" y="-178.6" font-family="Helvetica,sans-Serif" font-size="8.00">Fragment.getViewByPosition</text>
</a>
</g>
</g>
<!-- Node3&#45;&gt;Node4 -->
<g id="edge3" class="edge"><title>Node3&#45;&gt;Node4</title>
<path fill="none" stroke="midnightblue" d="M446.64,-185C460.738,-185 476.048,-185 490.711,-185"/>
<polygon fill="midnightblue" stroke="midnightblue" points="490.736,-188.5 500.736,-185 490.736,-181.5 490.736,-188.5"/>
</g>
<!-- Node8 -->
<g id="node8" class="node"><title>Node8</title>
<g id="a_node8"><a xlink:href="a00003.html#a3d6c629d64e1911979c9f483c8785b5f" target="_top" xlink:title="Send mouse button or keyboard data. ">
<polygon fill="white" stroke="red" points="489,-41.5 489,-58.5 632,-58.5 632,-41.5 489,-41.5"/>
<text text-anchor="middle" x="560.5" y="-48.1" font-family="Helvetica,sans-Serif" font-size="8.00">project.android.net.Client.sendData</text>
</a>
</g>
</g>
<!-- Node7&#45;&gt;Node8 -->
<g id="edge7" class="edge"><title>Node7&#45;&gt;Node8</title>
<path fill="none" stroke="midnightblue" d="M452.786,-50C461.225,-50 469.988,-50 478.702,-50"/>
<polygon fill="midnightblue" stroke="midnightblue" points="478.886,-53.5001 488.886,-50 478.886,-46.5001 478.886,-53.5001"/>
</g>
</g>
</svg>
