<?xml version="1.0" encoding="UTF-8" standalone="no"?>
<!DOCTYPE svg PUBLIC "-//W3C//DTD SVG 1.1//EN"
 "http://www.w3.org/Graphics/SVG/1.1/DTD/svg11.dtd">
<!-- Generated by graphviz version 2.38.0 (20140413.2041)
 -->
<!-- Title: project.android.net.NetworkService.onStartCommand Pages: 1 -->
<svg width="783pt" height="103pt"
 viewBox="0.00 0.00 783.00 103.00" xmlns="http://www.w3.org/2000/svg" xmlns:xlink="http://www.w3.org/1999/xlink">
<g id="graph0" class="graph" transform="scale(1 1) rotate(0) translate(4 99)">
<title>project.android.net.NetworkService.onStartCommand</title>
<polygon fill="white" stroke="none" points="-4,4 -4,-99 779,-99 779,4 -4,4"/>
<!-- Node1 -->
<g id="node1" class="node"><title>Node1</title>
<polygon fill="#bfbfbf" stroke="black" points="0,-45.5 0,-71.5 116,-71.5 116,-45.5 0,-45.5"/>
<text text-anchor="start" x="8" y="-61.1" font-family="Helvetica,sans-Serif" font-size="8.00">project.android.net.Network</text>
<text text-anchor="middle" x="58" y="-52.1" font-family="Helvetica,sans-Serif" font-size="8.00">Service.onStartCommand</text>
</g>
<!-- Node2 -->
<g id="node2" class="node"><title>Node2</title>
<g id="a_node2"><a xlink:href="a00015.html#a2025eaa4f93363e6f4a03b26d7c4f8f6" target="_top" xlink:title="Returns the project.android.ConnectionFragment object. ">
<polygon fill="white" stroke="black" points="152,-68.5 152,-94.5 279,-94.5 279,-68.5 152,-68.5"/>
<text text-anchor="start" x="160" y="-84.1" font-family="Helvetica,sans-Serif" font-size="8.00">project.android.MainActivity.get</text>
<text text-anchor="middle" x="215.5" y="-75.1" font-family="Helvetica,sans-Serif" font-size="8.00">ConnectionFragment</text>
</a>
</g>
</g>
<!-- Node1&#45;&gt;Node2 -->
<g id="edge1" class="edge"><title>Node1&#45;&gt;Node2</title>
<path fill="none" stroke="midnightblue" d="M116.019,-66.9338C124.43,-68.1778 133.19,-69.4734 141.864,-70.7564"/>
<polygon fill="midnightblue" stroke="midnightblue" points="141.578,-74.252 151.982,-72.253 142.602,-67.3274 141.578,-74.252"/>
</g>
<!-- Node3 -->
<g id="node3" class="node"><title>Node3</title>
<g id="a_node3"><a xlink:href="a00006.html#af0e6f7c8aa02553792fd18fbb5e98a2e" target="_top" xlink:title="Sets an icon for an active server. ">
<polygon fill="white" stroke="black" points="159,-23.5 159,-49.5 272,-49.5 272,-23.5 159,-23.5"/>
<text text-anchor="start" x="167" y="-39.1" font-family="Helvetica,sans-Serif" font-size="8.00">project.android.Connection</text>
<text text-anchor="middle" x="215.5" y="-30.1" font-family="Helvetica,sans-Serif" font-size="8.00">Fragment.setIcon</text>
</a>
</g>
</g>
<!-- Node1&#45;&gt;Node3 -->
<g id="edge2" class="edge"><title>Node1&#45;&gt;Node3</title>
<path fill="none" stroke="midnightblue" d="M116.019,-50.4329C126.704,-48.9213 137.952,-47.3299 148.873,-45.7849"/>
<polygon fill="midnightblue" stroke="midnightblue" points="149.374,-49.249 158.785,-44.3825 148.393,-42.318 149.374,-49.249"/>
</g>
<!-- Node4 -->
<g id="node4" class="node"><title>Node4</title>
<g id="a_node4"><a xlink:href="a00006.html#a863b30e1ce16c16e6dba6bebe8d8c45e" target="_top" xlink:title="Returns the View of the clicked list item. ">
<polygon fill="white" stroke="black" points="315,-23.5 315,-49.5 434,-49.5 434,-23.5 315,-23.5"/>
<text text-anchor="start" x="323" y="-39.1" font-family="Helvetica,sans-Serif" font-size="8.00">project.android.Connection</text>
<text text-anchor="middle" x="374.5" y="-30.1" font-family="Helvetica,sans-Serif" font-size="8.00">Fragment.getViewByPosition</text>
</a>
</g>
</g>
<!-- Node3&#45;&gt;Node4 -->
<g id="edge3" class="edge"><title>Node3&#45;&gt;Node4</title>
<path fill="none" stroke="midnightblue" d="M272.294,-36.5C282.781,-36.5 293.858,-36.5 304.686,-36.5"/>
<polygon fill="midnightblue" stroke="midnightblue" points="304.964,-40.0001 314.964,-36.5 304.964,-33.0001 304.964,-40.0001"/>
</g>
<!-- Node6 -->
<g id="node6" class="node"><title>Node6</title>
<g id="a_node6"><a xlink:href="a00022.html#adc1c8edd1eafda5cad71f9babd18dfd4" target="_top" xlink:title="Returns the canonical host name of the server. ">
<polygon fill="white" stroke="black" points="665,-55.5 665,-81.5 775,-81.5 775,-55.5 665,-55.5"/>
<text text-anchor="start" x="673" y="-71.1" font-family="Helvetica,sans-Serif" font-size="8.00">project.android.net.Server</text>
<text text-anchor="middle" x="720" y="-62.1" font-family="Helvetica,sans-Serif" font-size="8.00">Info.getServerInfo</text>
</a>
</g>
</g>
<!-- Node3&#45;&gt;Node6 -->
<g id="edge7" class="edge"><title>Node3&#45;&gt;Node6</title>
<path fill="none" stroke="midnightblue" d="M266.028,-49.5403C281.591,-53.1032 298.913,-56.5236 315,-58.5 434.127,-73.1357 574.447,-72.6766 654.441,-70.761"/>
<polygon fill="midnightblue" stroke="midnightblue" points="654.936,-74.2496 664.843,-70.4954 654.757,-67.2519 654.936,-74.2496"/>
</g>
<!-- Node7 -->
<g id="node7" class="node"><title>Node7</title>
<g id="a_node7"><a xlink:href="a00022.html#a914c65a49cf5940901d475693ee8e205" target="_top" xlink:title="Returns the IPv4 address of the server. ">
<polygon fill="white" stroke="black" points="665,-0.5 665,-26.5 775,-26.5 775,-0.5 665,-0.5"/>
<text text-anchor="start" x="673" y="-16.1" font-family="Helvetica,sans-Serif" font-size="8.00">project.android.net.Server</text>
<text text-anchor="middle" x="720" y="-7.1" font-family="Helvetica,sans-Serif" font-size="8.00">Info.getAddress</text>
</a>
</g>
</g>
<!-- Node3&#45;&gt;Node7 -->
<g id="edge8" class="edge"><title>Node3&#45;&gt;Node7</title>
<path fill="none" stroke="midnightblue" d="M262.713,-23.4037C279.085,-19.3801 297.729,-15.4896 315,-13.5 434.198,0.231799 574.494,-4.38867 654.464,-8.96583"/>
<polygon fill="midnightblue" stroke="midnightblue" points="654.674,-12.4843 664.863,-9.58042 655.087,-5.49646 654.674,-12.4843"/>
</g>
<!-- Node5 -->
<g id="node5" class="node"><title>Node5</title>
<g id="a_node5"><a xlink:href="a00008.html#a6b2523e50305753cb8c2893dc659a1ae" target="_top" xlink:title="Overrides ArrayAdapter.getView(int, View, ViewGroup) method. ">
<polygon fill="white" stroke="red" points="470,-28 470,-45 629,-45 629,-28 470,-28"/>
<text text-anchor="middle" x="549.5" y="-34.6" font-family="Helvetica,sans-Serif" font-size="8.00">project.android.CustomAdapter.getView</text>
</a>
</g>
</g>
<!-- Node4&#45;&gt;Node5 -->
<g id="edge4" class="edge"><title>Node4&#45;&gt;Node5</title>
<path fill="none" stroke="midnightblue" d="M434.07,-36.5C442.313,-36.5 450.936,-36.5 459.59,-36.5"/>
<polygon fill="midnightblue" stroke="midnightblue" points="459.744,-40.0001 469.744,-36.5 459.744,-33.0001 459.744,-40.0001"/>
</g>
<!-- Node5&#45;&gt;Node6 -->
<g id="edge5" class="edge"><title>Node5&#45;&gt;Node6</title>
<path fill="none" stroke="midnightblue" d="M595.655,-45.0754C613.835,-48.528 635.136,-52.5732 654.872,-56.3213"/>
<polygon fill="midnightblue" stroke="midnightblue" points="654.241,-59.764 664.718,-58.1913 655.547,-52.8869 654.241,-59.764"/>
</g>
<!-- Node5&#45;&gt;Node7 -->
<g id="edge6" class="edge"><title>Node5&#45;&gt;Node7</title>
<path fill="none" stroke="midnightblue" d="M613.243,-27.9356C626.739,-26.0935 641.024,-24.1436 654.582,-22.293"/>
<polygon fill="midnightblue" stroke="midnightblue" points="655.349,-25.7208 664.783,-20.9005 654.402,-18.7852 655.349,-25.7208"/>
</g>
</g>
</svg>
