<?xml version="1.0" encoding="UTF-8" standalone="no"?>
<!DOCTYPE svg PUBLIC "-//W3C//DTD SVG 1.1//EN"
 "http://www.w3.org/Graphics/SVG/1.1/DTD/svg11.dtd">
<!-- Generated by graphviz version 2.38.0 (20140413.2041)
 -->
<!-- Title: project.android.CustomAdapter.getView Pages: 1 -->
<svg width="801pt" height="125pt"
 viewBox="0.00 0.00 801.00 125.00" xmlns="http://www.w3.org/2000/svg" xmlns:xlink="http://www.w3.org/1999/xlink">
<g id="graph0" class="graph" transform="scale(1 1) rotate(0) translate(4 121)">
<title>project.android.CustomAdapter.getView</title>
<polygon fill="white" stroke="none" points="-4,4 -4,-121 797,-121 797,4 -4,4"/>
<!-- Node1 -->
<g id="node1" class="node"><title>Node1</title>
<polygon fill="#bfbfbf" stroke="black" points="0,-26 0,-43 159,-43 159,-26 0,-26"/>
<text text-anchor="middle" x="79.5" y="-32.6" font-family="Helvetica,sans-Serif" font-size="8.00">project.android.CustomAdapter.getView</text>
</g>
<!-- Node2 -->
<g id="node2" class="node"><title>Node2</title>
<g id="a_node2"><a xlink:href="a00006.html#a863b30e1ce16c16e6dba6bebe8d8c45e" target="_top" xlink:title="Returns the View of the clicked list item. ">
<polygon fill="white" stroke="black" points="195,-43.5 195,-69.5 314,-69.5 314,-43.5 195,-43.5"/>
<text text-anchor="start" x="203" y="-59.1" font-family="Helvetica,sans-Serif" font-size="8.00">project.android.Connection</text>
<text text-anchor="middle" x="254.5" y="-50.1" font-family="Helvetica,sans-Serif" font-size="8.00">Fragment.getViewByPosition</text>
</a>
</g>
</g>
<!-- Node1&#45;&gt;Node2 -->
<g id="edge1" class="edge"><title>Node1&#45;&gt;Node2</title>
<path fill="none" stroke="midnightblue" d="M157.415,-44.2811C170.019,-45.8839 182.898,-47.5217 194.963,-49.056"/>
<polygon fill="midnightblue" stroke="midnightblue" points="157.748,-40.7953 147.386,-43.0058 156.865,-47.7394 157.748,-40.7953"/>
</g>
<!-- Node3 -->
<g id="node3" class="node"><title>Node3</title>
<g id="a_node3"><a xlink:href="a00006.html#a5ae4f9d7872792288afb3de65ab4c2b0" target="_top" xlink:title="Sets an icon for an inactive server. ">
<polygon fill="white" stroke="black" points="350,-43.5 350,-69.5 463,-69.5 463,-43.5 350,-43.5"/>
<text text-anchor="start" x="358" y="-59.1" font-family="Helvetica,sans-Serif" font-size="8.00">project.android.Connection</text>
<text text-anchor="middle" x="406.5" y="-50.1" font-family="Helvetica,sans-Serif" font-size="8.00">Fragment.resetIcon</text>
</a>
</g>
</g>
<!-- Node2&#45;&gt;Node3 -->
<g id="edge2" class="edge"><title>Node2&#45;&gt;Node3</title>
<path fill="none" stroke="midnightblue" d="M324.568,-56.5C333.008,-56.5 341.547,-56.5 349.757,-56.5"/>
<polygon fill="midnightblue" stroke="midnightblue" points="324.353,-53.0001 314.353,-56.5 324.353,-60.0001 324.353,-53.0001"/>
</g>
<!-- Node8 -->
<g id="node8" class="node"><title>Node8</title>
<g id="a_node8"><a xlink:href="a00006.html#af0e6f7c8aa02553792fd18fbb5e98a2e" target="_top" xlink:title="Sets an icon for an active server. ">
<polygon fill="white" stroke="black" points="350,-89.5 350,-115.5 463,-115.5 463,-89.5 350,-89.5"/>
<text text-anchor="start" x="358" y="-105.1" font-family="Helvetica,sans-Serif" font-size="8.00">project.android.Connection</text>
<text text-anchor="middle" x="406.5" y="-96.1" font-family="Helvetica,sans-Serif" font-size="8.00">Fragment.setIcon</text>
</a>
</g>
</g>
<!-- Node2&#45;&gt;Node8 -->
<g id="edge8" class="edge"><title>Node2&#45;&gt;Node8</title>
<path fill="none" stroke="midnightblue" d="M307.883,-72.564C325.934,-78.0997 345.913,-84.2268 363.071,-89.4883"/>
<polygon fill="midnightblue" stroke="midnightblue" points="308.669,-69.1445 298.083,-69.5587 306.617,-75.8369 308.669,-69.1445"/>
</g>
<!-- Node4 -->
<g id="node4" class="node"><title>Node4</title>
<g id="a_node4"><a xlink:href="a00005.html#a9f6765867ad54f586cc7b329213a2ac3" target="_top" xlink:title="Performs operations for reading data from a server. ">
<polygon fill="white" stroke="black" points="504,-45.5 504,-71.5 610,-71.5 610,-45.5 504,-45.5"/>
<text text-anchor="start" x="512" y="-61.1" font-family="Helvetica,sans-Serif" font-size="8.00">project.android.net.Client</text>
<text text-anchor="middle" x="557" y="-52.1" font-family="Helvetica,sans-Serif" font-size="8.00">IOThread.run</text>
</a>
</g>
</g>
<!-- Node3&#45;&gt;Node4 -->
<g id="edge3" class="edge"><title>Node3&#45;&gt;Node4</title>
<path fill="none" stroke="midnightblue" d="M473.348,-57.3868C483.579,-57.5246 494.026,-57.6653 503.897,-57.7983"/>
<polygon fill="midnightblue" stroke="midnightblue" points="473.265,-53.8855 463.218,-57.2504 473.17,-60.8849 473.265,-53.8855"/>
</g>
<!-- Node6 -->
<g id="node6" class="node"><title>Node6</title>
<g id="a_node6"><a xlink:href="a00006.html#aee2a392b8b0500023dba15b60d3315d2" target="_top" xlink:title="Returns a list of ServerInfo objects. ">
<polygon fill="white" stroke="black" points="500.5,-0.5 500.5,-26.5 613.5,-26.5 613.5,-0.5 500.5,-0.5"/>
<text text-anchor="start" x="508.5" y="-16.1" font-family="Helvetica,sans-Serif" font-size="8.00">project.android.Connection</text>
<text text-anchor="middle" x="557" y="-7.1" font-family="Helvetica,sans-Serif" font-size="8.00">Fragment.getNetworkList</text>
</a>
</g>
</g>
<!-- Node3&#45;&gt;Node6 -->
<g id="edge5" class="edge"><title>Node3&#45;&gt;Node6</title>
<path fill="none" stroke="midnightblue" d="M462.237,-40.6503C478.261,-36.0104 495.589,-30.9926 510.939,-26.548"/>
<polygon fill="midnightblue" stroke="midnightblue" points="461.09,-37.3386 452.458,-43.4819 463.037,-44.0624 461.09,-37.3386"/>
</g>
<!-- Node5 -->
<g id="node5" class="node"><title>Node5</title>
<g id="a_node5"><a xlink:href="a00005.html#aa57b04eb44ae7982a7a79cdb7c484144" target="_top" xlink:title="Constructor. ">
<polygon fill="white" stroke="black" points="668,-45.5 668,-71.5 776,-71.5 776,-45.5 668,-45.5"/>
<text text-anchor="start" x="676" y="-61.1" font-family="Helvetica,sans-Serif" font-size="8.00">project.android.net.Client</text>
<text text-anchor="middle" x="722" y="-52.1" font-family="Helvetica,sans-Serif" font-size="8.00">IOThread.ClientIOThread</text>
</a>
</g>
</g>
<!-- Node4&#45;&gt;Node5 -->
<g id="edge4" class="edge"><title>Node4&#45;&gt;Node5</title>
<path fill="none" stroke="midnightblue" d="M620.166,-58.5C635.865,-58.5 652.579,-58.5 667.792,-58.5"/>
<polygon fill="midnightblue" stroke="midnightblue" points="620.022,-55.0001 610.022,-58.5 620.022,-62.0001 620.022,-55.0001"/>
</g>
<!-- Node6&#45;&gt;Node1 -->
<g id="edge7" class="edge"><title>Node6&#45;&gt;Node1</title>
<path fill="none" stroke="midnightblue" d="M490.2,-16.406C403.595,-20.2308 251.538,-26.9463 159.019,-31.0323"/>
<polygon fill="midnightblue" stroke="midnightblue" points="490.593,-19.8922 500.429,-15.9543 490.284,-12.899 490.593,-19.8922"/>
</g>
<!-- Node7 -->
<g id="node7" class="node"><title>Node7</title>
<g id="a_node7"><a xlink:href="a00008.html#a9b4dd18431aa7ebd37321a0d2b1d2539" target="_top" xlink:title="Overrides the ArrayAdapter.getCount() method. ">
<polygon fill="white" stroke="black" points="651,-0.5 651,-26.5 793,-26.5 793,-0.5 651,-0.5"/>
<text text-anchor="start" x="659" y="-16.1" font-family="Helvetica,sans-Serif" font-size="8.00">project.android.CustomAdapter.get</text>
<text text-anchor="middle" x="722" y="-7.1" font-family="Helvetica,sans-Serif" font-size="8.00">Count</text>
</a>
</g>
</g>
<!-- Node6&#45;&gt;Node7 -->
<g id="edge6" class="edge"><title>Node6&#45;&gt;Node7</title>
<path fill="none" stroke="midnightblue" d="M623.927,-13.5C632.813,-13.5 641.955,-13.5 650.911,-13.5"/>
<polygon fill="midnightblue" stroke="midnightblue" points="623.639,-10.0001 613.639,-13.5 623.639,-17.0001 623.639,-10.0001"/>
</g>
<!-- Node9 -->
<g id="node9" class="node"><title>Node9</title>
<g id="a_node9"><a xlink:href="a00019.html#a6b623423ab726a2d5008717960032b6d" target="_top" xlink:title="Overrides the android.app.Service.onStartCommand(Intent, int, int). ">
<polygon fill="white" stroke="black" points="499,-90.5 499,-116.5 615,-116.5 615,-90.5 499,-90.5"/>
<text text-anchor="start" x="507" y="-106.1" font-family="Helvetica,sans-Serif" font-size="8.00">project.android.net.Network</text>
<text text-anchor="middle" x="557" y="-97.1" font-family="Helvetica,sans-Serif" font-size="8.00">Service.onStartCommand</text>
</a>
</g>
</g>
<!-- Node8&#45;&gt;Node9 -->
<g id="edge9" class="edge"><title>Node8&#45;&gt;Node9</title>
<path fill="none" stroke="midnightblue" d="M473.486,-102.944C481.989,-103.002 490.638,-103.06 498.979,-103.116"/>
<polygon fill="midnightblue" stroke="midnightblue" points="473.242,-99.4427 463.218,-102.875 473.195,-106.443 473.242,-99.4427"/>
</g>
</g>
</svg>
