<?xml version="1.0" encoding="UTF-8" standalone="no"?>
<!DOCTYPE svg PUBLIC "-//W3C//DTD SVG 1.1//EN"
 "http://www.w3.org/Graphics/SVG/1.1/DTD/svg11.dtd">
<!-- Generated by graphviz version 2.38.0 (20140413.2041)
 -->
<!-- Title: project.android.sensor.representation.Vector4f.getW Pages: 1 -->
<svg width="357pt" height="305pt"
 viewBox="0.00 0.00 357.00 305.00" xmlns="http://www.w3.org/2000/svg" xmlns:xlink="http://www.w3.org/1999/xlink">
<g id="graph0" class="graph" transform="scale(1 1) rotate(0) translate(4 301)">
<title>project.android.sensor.representation.Vector4f.getW</title>
<polygon fill="white" stroke="none" points="-4,4 -4,-301 353,-301 353,4 -4,4"/>
<!-- Node1 -->
<g id="node1" class="node"><title>Node1</title>
<polygon fill="#bfbfbf" stroke="black" points="0,-135.5 0,-161.5 152,-161.5 152,-135.5 0,-135.5"/>
<text text-anchor="start" x="8" y="-151.1" font-family="Helvetica,sans-Serif" font-size="8.00">project.android.sensor.representation.</text>
<text text-anchor="middle" x="76" y="-142.1" font-family="Helvetica,sans-Serif" font-size="8.00">Vector4f.getW</text>
</g>
<!-- Node2 -->
<g id="node2" class="node"><title>Node2</title>
<g id="a_node2"><a xlink:href="a00011.html#ab9a9911056de6fc82ef1859c2eb42bad" target="_top" xlink:title="project.android.sensor.orientation.\lKalmanFilterProvider.onSensorChanged">
<polygon fill="white" stroke="black" points="188,-270.5 188,-296.5 349,-296.5 349,-270.5 188,-270.5"/>
<text text-anchor="start" x="196" y="-286.1" font-family="Helvetica,sans-Serif" font-size="8.00">project.android.sensor.orientation.</text>
<text text-anchor="middle" x="268.5" y="-277.1" font-family="Helvetica,sans-Serif" font-size="8.00">KalmanFilterProvider.onSensorChanged</text>
</a>
</g>
</g>
<!-- Node1&#45;&gt;Node2 -->
<g id="edge1" class="edge"><title>Node1&#45;&gt;Node2</title>
<path fill="none" stroke="midnightblue" d="M92.2325,-169.774C111.625,-195.309 147.512,-237.661 188,-261.5 193.923,-264.988 200.421,-267.941 207.068,-270.438"/>
<polygon fill="midnightblue" stroke="midnightblue" points="94.8563,-167.437 86.0803,-161.501 89.2392,-171.614 94.8563,-167.437"/>
</g>
<!-- Node3 -->
<g id="node3" class="node"><title>Node3</title>
<g id="a_node3"><a xlink:href="a00021.html#afa04a8074ebd55e5f22231176f9f51bf" target="_top" xlink:title="Add a quaternion to this quaternion. ">
<polygon fill="white" stroke="black" points="192.5,-225.5 192.5,-251.5 344.5,-251.5 344.5,-225.5 192.5,-225.5"/>
<text text-anchor="start" x="200.5" y="-241.1" font-family="Helvetica,sans-Serif" font-size="8.00">project.android.sensor.representation.</text>
<text text-anchor="middle" x="268.5" y="-232.1" font-family="Helvetica,sans-Serif" font-size="8.00">Quaternion.addQuat</text>
</a>
</g>
</g>
<!-- Node1&#45;&gt;Node3 -->
<g id="edge2" class="edge"><title>Node1&#45;&gt;Node3</title>
<path fill="none" stroke="midnightblue" d="M103.37,-167.586C125.166,-182.624 157.394,-203.204 188,-216.5 195.75,-219.866 204.15,-222.85 212.489,-225.448"/>
<polygon fill="midnightblue" stroke="midnightblue" points="105.186,-164.585 94.9866,-161.719 101.173,-170.32 105.186,-164.585"/>
</g>
<!-- Node4 -->
<g id="node4" class="node"><title>Node4</title>
<g id="a_node4"><a xlink:href="a00021.html#af3a4458d4f500899485390e60168e8cc" target="_top" xlink:title="Subtract a quaternion to this quaternion. ">
<polygon fill="white" stroke="black" points="192.5,-180.5 192.5,-206.5 344.5,-206.5 344.5,-180.5 192.5,-180.5"/>
<text text-anchor="start" x="200.5" y="-196.1" font-family="Helvetica,sans-Serif" font-size="8.00">project.android.sensor.representation.</text>
<text text-anchor="middle" x="268.5" y="-187.1" font-family="Helvetica,sans-Serif" font-size="8.00">Quaternion.subQuat</text>
</a>
</g>
</g>
<!-- Node1&#45;&gt;Node4 -->
<g id="edge3" class="edge"><title>Node1&#45;&gt;Node4</title>
<path fill="none" stroke="midnightblue" d="M142.04,-163.864C164.856,-169.253 190.252,-175.252 212.194,-180.436"/>
<polygon fill="midnightblue" stroke="midnightblue" points="142.637,-160.409 132.1,-161.516 141.028,-167.221 142.637,-160.409"/>
</g>
<!-- Node5 -->
<g id="node5" class="node"><title>Node5</title>
<g id="a_node5"><a xlink:href="a00021.html#a0e949c250006b4448e606f093ef7c047" target="_top" xlink:title="Get an axis angle representation of this quaternion. ">
<polygon fill="white" stroke="black" points="192.5,-135.5 192.5,-161.5 344.5,-161.5 344.5,-135.5 192.5,-135.5"/>
<text text-anchor="start" x="200.5" y="-151.1" font-family="Helvetica,sans-Serif" font-size="8.00">project.android.sensor.representation.</text>
<text text-anchor="middle" x="268.5" y="-142.1" font-family="Helvetica,sans-Serif" font-size="8.00">Quaternion.toAxisAngle</text>
</a>
</g>
</g>
<!-- Node1&#45;&gt;Node5 -->
<g id="edge4" class="edge"><title>Node1&#45;&gt;Node5</title>
<path fill="none" stroke="midnightblue" d="M162.02,-148.5C172.091,-148.5 182.316,-148.5 192.239,-148.5"/>
<polygon fill="midnightblue" stroke="midnightblue" points="162.017,-145 152.017,-148.5 162.017,-152 162.017,-145"/>
</g>
<!-- Node6 -->
<g id="node6" class="node"><title>Node6</title>
<g id="a_node6"><a xlink:href="a00021.html#ad65d775928e1fddeb2f15e772fec5caf" target="_top" xlink:title="Returns the heading, attitude and bank of this quaternion as euler angles in the double array respect...">
<polygon fill="white" stroke="black" points="192.5,-90.5 192.5,-116.5 344.5,-116.5 344.5,-90.5 192.5,-90.5"/>
<text text-anchor="start" x="200.5" y="-106.1" font-family="Helvetica,sans-Serif" font-size="8.00">project.android.sensor.representation.</text>
<text text-anchor="middle" x="268.5" y="-97.1" font-family="Helvetica,sans-Serif" font-size="8.00">Quaternion.toEulerAngles</text>
</a>
</g>
</g>
<!-- Node1&#45;&gt;Node6 -->
<g id="edge5" class="edge"><title>Node1&#45;&gt;Node6</title>
<path fill="none" stroke="midnightblue" d="M142.04,-133.136C164.856,-127.747 190.252,-121.748 212.194,-116.564"/>
<polygon fill="midnightblue" stroke="midnightblue" points="141.028,-129.779 132.1,-135.484 142.637,-136.591 141.028,-129.779"/>
</g>
<!-- Node7 -->
<g id="node7" class="node"><title>Node7</title>
<g id="a_node7"><a xlink:href="a00021.html#ad97bd17455f6ca6ef3f38190789fc956" target="_top" xlink:title="Returns a String representing this Quaternion. ">
<polygon fill="white" stroke="black" points="192.5,-45.5 192.5,-71.5 344.5,-71.5 344.5,-45.5 192.5,-45.5"/>
<text text-anchor="start" x="200.5" y="-61.1" font-family="Helvetica,sans-Serif" font-size="8.00">project.android.sensor.representation.</text>
<text text-anchor="middle" x="268.5" y="-52.1" font-family="Helvetica,sans-Serif" font-size="8.00">Quaternion.toString</text>
</a>
</g>
</g>
<!-- Node1&#45;&gt;Node7 -->
<g id="edge6" class="edge"><title>Node1&#45;&gt;Node7</title>
<path fill="none" stroke="midnightblue" d="M103.845,-129.549C125.682,-114.823 157.731,-94.7404 188,-81.5 196.556,-77.7572 205.893,-74.4323 215.062,-71.5544"/>
<polygon fill="midnightblue" stroke="midnightblue" points="101.713,-126.767 95.432,-135.299 105.663,-132.546 101.713,-126.767"/>
</g>
<!-- Node8 -->
<g id="node8" class="node"><title>Node8</title>
<g id="a_node8"><a xlink:href="a00026.html#ad0c35f3031117ce87b4d7e5b377474f9" target="_top" xlink:title="Constructor. ">
<polygon fill="white" stroke="black" points="192.5,-0.5 192.5,-26.5 344.5,-26.5 344.5,-0.5 192.5,-0.5"/>
<text text-anchor="start" x="200.5" y="-16.1" font-family="Helvetica,sans-Serif" font-size="8.00">project.android.sensor.representation.</text>
<text text-anchor="middle" x="268.5" y="-7.1" font-family="Helvetica,sans-Serif" font-size="8.00">Vector3f.Vector3f</text>
</a>
</g>
</g>
<!-- Node1&#45;&gt;Node8 -->
<g id="edge7" class="edge"><title>Node1&#45;&gt;Node8</title>
<path fill="none" stroke="midnightblue" d="M92.6287,-127.099C112.18,-101.833 147.991,-60.2523 188,-36.5 194.548,-32.6126 201.792,-29.349 209.164,-26.6175"/>
<polygon fill="midnightblue" stroke="midnightblue" points="89.6636,-125.217 86.4108,-135.3 95.2416,-129.446 89.6636,-125.217"/>
</g>
</g>
</svg>
