<?xml version="1.0" encoding="UTF-8" standalone="no"?>
<!DOCTYPE svg PUBLIC "-//W3C//DTD SVG 1.1//EN"
 "http://www.w3.org/Graphics/SVG/1.1/DTD/svg11.dtd">
<!-- Generated by graphviz version 2.38.0 (20140413.2041)
 -->
<!-- Title: project.android.net.ConnectionTask.onPreExecute Pages: 1 -->
<svg width="297pt" height="35pt"
 viewBox="0.00 0.00 297.00 35.00" xmlns="http://www.w3.org/2000/svg" xmlns:xlink="http://www.w3.org/1999/xlink">
<g id="graph0" class="graph" transform="scale(1 1) rotate(0) translate(4 31)">
<title>project.android.net.ConnectionTask.onPreExecute</title>
<polygon fill="white" stroke="none" points="-4,4 -4,-31 293,-31 293,4 -4,4"/>
<!-- Node1 -->
<g id="node1" class="node"><title>Node1</title>
<polygon fill="#bfbfbf" stroke="black" points="0,-0.5 0,-26.5 126,-26.5 126,-0.5 0,-0.5"/>
<text text-anchor="start" x="8" y="-16.1" font-family="Helvetica,sans-Serif" font-size="8.00">project.android.net.Connection</text>
<text text-anchor="middle" x="63" y="-7.1" font-family="Helvetica,sans-Serif" font-size="8.00">Task.onPreExecute</text>
</g>
<!-- Node2 -->
<g id="node2" class="node"><title>Node2</title>
<g id="a_node2"><a xlink:href="a00015.html#a2025eaa4f93363e6f4a03b26d7c4f8f6" target="_top" xlink:title="Returns the project.android.ConnectionFragment object. ">
<polygon fill="white" stroke="black" points="162,-0.5 162,-26.5 289,-26.5 289,-0.5 162,-0.5"/>
<text text-anchor="start" x="170" y="-16.1" font-family="Helvetica,sans-Serif" font-size="8.00">project.android.MainActivity.get</text>
<text text-anchor="middle" x="225.5" y="-7.1" font-family="Helvetica,sans-Serif" font-size="8.00">ConnectionFragment</text>
</a>
</g>
</g>
<!-- Node1&#45;&gt;Node2 -->
<g id="edge1" class="edge"><title>Node1&#45;&gt;Node2</title>
<path fill="none" stroke="midnightblue" d="M126.053,-13.5C134.486,-13.5 143.202,-13.5 151.8,-13.5"/>
<polygon fill="midnightblue" stroke="midnightblue" points="151.817,-17.0001 161.817,-13.5 151.817,-10.0001 151.817,-17.0001"/>
</g>
</g>
</svg>
