<?xml version="1.0" encoding="UTF-8" standalone="no"?>
<!DOCTYPE svg PUBLIC "-//W3C//DTD SVG 1.1//EN"
 "http://www.w3.org/Graphics/SVG/1.1/DTD/svg11.dtd">
<!-- Generated by graphviz version 2.38.0 (20140413.2041)
 -->
<!-- Title: project.android.net.KeyboardThread Pages: 1 -->
<svg width="128pt" height="193pt"
 viewBox="0.00 0.00 128.00 193.00" xmlns="http://www.w3.org/2000/svg" xmlns:xlink="http://www.w3.org/1999/xlink">
<g id="graph0" class="graph" transform="scale(1 1) rotate(0) translate(4 189)">
<title>project.android.net.KeyboardThread</title>
<polygon fill="white" stroke="none" points="-4,4 -4,-189 124,-189 124,4 -4,4"/>
<!-- Node1 -->
<g id="node1" class="node"><title>Node1</title>
<polygon fill="#bfbfbf" stroke="black" points="-7.10543e-15,-0.5 -7.10543e-15,-96.5 120,-96.5 120,-0.5 -7.10543e-15,-0.5"/>
<text text-anchor="start" x="8" y="-86.1" font-family="Helvetica,sans-Serif" font-size="8.00">project.android.net.Keyboard</text>
<text text-anchor="middle" x="60" y="-77.1" font-family="Helvetica,sans-Serif" font-size="8.00">Thread</text>
<polyline fill="none" stroke="black" points="-7.10543e-15,-70.5 120,-70.5 "/>
<text text-anchor="middle" x="60" y="-60.1" font-family="Helvetica,sans-Serif" font-size="8.00"> </text>
<polyline fill="none" stroke="black" points="-7.10543e-15,-53.5 120,-53.5 "/>
<text text-anchor="start" x="8" y="-43.1" font-family="Helvetica,sans-Serif" font-size="8.00">+ KeyboardThread()</text>
<text text-anchor="start" x="8" y="-34.1" font-family="Helvetica,sans-Serif" font-size="8.00">+ addToBuffer()</text>
<text text-anchor="start" x="8" y="-25.1" font-family="Helvetica,sans-Serif" font-size="8.00">+ run()</text>
<text text-anchor="start" x="8" y="-16.1" font-family="Helvetica,sans-Serif" font-size="8.00">+ setSpecialKey()</text>
<text text-anchor="start" x="8" y="-7.1" font-family="Helvetica,sans-Serif" font-size="8.00">+ setStopFlag()</text>
</g>
<!-- Node2 -->
<g id="node2" class="node"><title>Node2</title>
<polygon fill="white" stroke="#bfbfbf" points="34.5,-133.5 34.5,-184.5 85.5,-184.5 85.5,-133.5 34.5,-133.5"/>
<text text-anchor="middle" x="60" y="-174.1" font-family="Helvetica,sans-Serif" font-size="8.00">Runnable</text>
<polyline fill="none" stroke="#bfbfbf" points="34.5,-167.5 85.5,-167.5 "/>
<text text-anchor="middle" x="60" y="-157.1" font-family="Helvetica,sans-Serif" font-size="8.00"> </text>
<polyline fill="none" stroke="#bfbfbf" points="34.5,-150.5 85.5,-150.5 "/>
<text text-anchor="middle" x="60" y="-140.1" font-family="Helvetica,sans-Serif" font-size="8.00"> </text>
</g>
<!-- Node2&#45;&gt;Node1 -->
<g id="edge1" class="edge"><title>Node2&#45;&gt;Node1</title>
<path fill="none" stroke="midnightblue" d="M60,-123.158C60,-114.726 60,-105.573 60,-96.6779"/>
<polygon fill="none" stroke="midnightblue" points="56.5001,-123.38 60,-133.38 63.5001,-123.38 56.5001,-123.38"/>
</g>
</g>
</svg>
