<?xml version="1.0" encoding="UTF-8" standalone="no"?>
<!DOCTYPE svg PUBLIC "-//W3C//DTD SVG 1.1//EN"
 "http://www.w3.org/Graphics/SVG/1.1/DTD/svg11.dtd">
<!-- Generated by graphviz version 2.38.0 (20140413.2041)
 -->
<!-- Title: project.android.MouseFragment Pages: 1 -->
<svg width="290pt" height="193pt"
 viewBox="0.00 0.00 290.00 193.00" xmlns="http://www.w3.org/2000/svg" xmlns:xlink="http://www.w3.org/1999/xlink">
<g id="graph0" class="graph" transform="scale(1 1) rotate(0) translate(4 189)">
<title>project.android.MouseFragment</title>
<polygon fill="white" stroke="none" points="-4,4 -4,-189 286,-189 286,4 -4,4"/>
<!-- Node1 -->
<g id="node1" class="node"><title>Node1</title>
<polygon fill="#bfbfbf" stroke="black" points="51.5,-0.5 51.5,-96.5 182.5,-96.5 182.5,-0.5 51.5,-0.5"/>
<text text-anchor="middle" x="117" y="-86.1" font-family="Helvetica,sans-Serif" font-size="8.00">project.android.MouseFragment</text>
<polyline fill="none" stroke="black" points="51.5,-79.5 182.5,-79.5 "/>
<text text-anchor="start" x="59.5" y="-69.1" font-family="Helvetica,sans-Serif" font-size="8.00">+ sMouseAlive</text>
<polyline fill="none" stroke="black" points="51.5,-62.5 182.5,-62.5 "/>
<text text-anchor="start" x="59.5" y="-52.1" font-family="Helvetica,sans-Serif" font-size="8.00">+ onClick()</text>
<text text-anchor="start" x="59.5" y="-43.1" font-family="Helvetica,sans-Serif" font-size="8.00">+ onCreateView()</text>
<text text-anchor="start" x="59.5" y="-34.1" font-family="Helvetica,sans-Serif" font-size="8.00">+ onDestroyView()</text>
<text text-anchor="start" x="59.5" y="-25.1" font-family="Helvetica,sans-Serif" font-size="8.00">+ onPause()</text>
<text text-anchor="start" x="59.5" y="-16.1" font-family="Helvetica,sans-Serif" font-size="8.00">+ onResume()</text>
<text text-anchor="start" x="59.5" y="-7.1" font-family="Helvetica,sans-Serif" font-size="8.00">+ onTouch()</text>
</g>
<!-- Node2 -->
<g id="node2" class="node"><title>Node2</title>
<polygon fill="white" stroke="#bfbfbf" points="0,-133.5 0,-184.5 52,-184.5 52,-133.5 0,-133.5"/>
<text text-anchor="middle" x="26" y="-174.1" font-family="Helvetica,sans-Serif" font-size="8.00">Fragment</text>
<polyline fill="none" stroke="#bfbfbf" points="0,-167.5 52,-167.5 "/>
<text text-anchor="middle" x="26" y="-157.1" font-family="Helvetica,sans-Serif" font-size="8.00"> </text>
<polyline fill="none" stroke="#bfbfbf" points="0,-150.5 52,-150.5 "/>
<text text-anchor="middle" x="26" y="-140.1" font-family="Helvetica,sans-Serif" font-size="8.00"> </text>
</g>
<!-- Node2&#45;&gt;Node1 -->
<g id="edge1" class="edge"><title>Node2&#45;&gt;Node1</title>
<path fill="none" stroke="midnightblue" d="M53.1198,-125.665C60.7572,-116.559 69.2253,-106.462 77.4314,-96.6779"/>
<polygon fill="none" stroke="midnightblue" points="50.3938,-123.469 46.6493,-133.38 55.7571,-127.967 50.3938,-123.469"/>
</g>
<!-- Node3 -->
<g id="node3" class="node"><title>Node3</title>
<polygon fill="white" stroke="#bfbfbf" points="70,-133.5 70,-184.5 164,-184.5 164,-133.5 70,-133.5"/>
<text text-anchor="middle" x="117" y="-174.1" font-family="Helvetica,sans-Serif" font-size="8.00">View::OnClickListener</text>
<polyline fill="none" stroke="#bfbfbf" points="70,-167.5 164,-167.5 "/>
<text text-anchor="middle" x="117" y="-157.1" font-family="Helvetica,sans-Serif" font-size="8.00"> </text>
<polyline fill="none" stroke="#bfbfbf" points="70,-150.5 164,-150.5 "/>
<text text-anchor="middle" x="117" y="-140.1" font-family="Helvetica,sans-Serif" font-size="8.00"> </text>
</g>
<!-- Node3&#45;&gt;Node1 -->
<g id="edge2" class="edge"><title>Node3&#45;&gt;Node1</title>
<path fill="none" stroke="midnightblue" d="M117,-123.158C117,-114.726 117,-105.573 117,-96.6779"/>
<polygon fill="none" stroke="midnightblue" points="113.5,-123.38 117,-133.38 120.5,-123.38 113.5,-123.38"/>
</g>
<!-- Node4 -->
<g id="node4" class="node"><title>Node4</title>
<polygon fill="white" stroke="#bfbfbf" points="182,-133.5 182,-184.5 282,-184.5 282,-133.5 182,-133.5"/>
<text text-anchor="middle" x="232" y="-174.1" font-family="Helvetica,sans-Serif" font-size="8.00">View::OnTouchListener</text>
<polyline fill="none" stroke="#bfbfbf" points="182,-167.5 282,-167.5 "/>
<text text-anchor="middle" x="232" y="-157.1" font-family="Helvetica,sans-Serif" font-size="8.00"> </text>
<polyline fill="none" stroke="#bfbfbf" points="182,-150.5 282,-150.5 "/>
<text text-anchor="middle" x="232" y="-140.1" font-family="Helvetica,sans-Serif" font-size="8.00"> </text>
</g>
<!-- Node4&#45;&gt;Node1 -->
<g id="edge3" class="edge"><title>Node4&#45;&gt;Node1</title>
<path fill="none" stroke="midnightblue" d="M198.602,-126.49C188.725,-117.171 177.689,-106.759 167.004,-96.6779"/>
<polygon fill="none" stroke="midnightblue" points="196.229,-129.063 205.905,-133.38 201.033,-123.971 196.229,-129.063"/>
</g>
</g>
</svg>
