<?xml version="1.0" encoding="UTF-8" standalone="no"?>
<!DOCTYPE svg PUBLIC "-//W3C//DTD SVG 1.1//EN"
 "http://www.w3.org/Graphics/SVG/1.1/DTD/svg11.dtd">
<!-- Generated by graphviz version 2.38.0 (20140413.2041)
 -->
<!-- Title: project.android.net.ServerInfo.getAddress Pages: 1 -->
<svg width="1062pt" height="263pt"
 viewBox="0.00 0.00 1062.00 262.95" xmlns="http://www.w3.org/2000/svg" xmlns:xlink="http://www.w3.org/1999/xlink">
<g id="graph0" class="graph" transform="scale(1 1) rotate(0) translate(4 258.947)">
<title>project.android.net.ServerInfo.getAddress</title>
<polygon fill="white" stroke="none" points="-4,4 -4,-258.947 1058,-258.947 1058,4 -4,4"/>
<!-- Node1 -->
<g id="node1" class="node"><title>Node1</title>
<polygon fill="#bfbfbf" stroke="black" points="0,-130.26 0,-156.26 110,-156.26 110,-130.26 0,-130.26"/>
<text text-anchor="start" x="8" y="-145.86" font-family="Helvetica,sans-Serif" font-size="8.00">project.android.net.Server</text>
<text text-anchor="middle" x="55" y="-136.86" font-family="Helvetica,sans-Serif" font-size="8.00">Info.getAddress</text>
</g>
<!-- Node2 -->
<g id="node2" class="node"><title>Node2</title>
<g id="a_node2"><a xlink:href="a00002.html#a03c170017a27365b50ab860fa21e3d46" target="_top" xlink:title="Performs the broadcast receiving operation. ">
<polygon fill="white" stroke="black" points="313.5,-223.26 313.5,-249.26 435.5,-249.26 435.5,-223.26 313.5,-223.26"/>
<text text-anchor="start" x="321.5" y="-238.86" font-family="Helvetica,sans-Serif" font-size="8.00">project.android.net.Broadcast</text>
<text text-anchor="middle" x="374.5" y="-229.86" font-family="Helvetica,sans-Serif" font-size="8.00">ReceiverThread.run</text>
</a>
</g>
</g>
<!-- Node1&#45;&gt;Node2 -->
<g id="edge1" class="edge"><title>Node1&#45;&gt;Node2</title>
<path fill="none" stroke="midnightblue" d="M69.2141,-165.168C84.4528,-188.075 111.849,-222.678 146,-237.26 199.215,-259.983 266.027,-256.371 313.447,-249.124"/>
<polygon fill="midnightblue" stroke="midnightblue" points="71.9669,-162.977 63.6219,-156.45 66.0747,-166.757 71.9669,-162.977"/>
</g>
<!-- Node3 -->
<g id="node3" class="node"><title>Node3</title>
<g id="a_node3"><a xlink:href="a00005.html#aa57b04eb44ae7982a7a79cdb7c484144" target="_top" xlink:title="Constructor. ">
<polygon fill="white" stroke="black" points="946,-139.26 946,-165.26 1054,-165.26 1054,-139.26 946,-139.26"/>
<text text-anchor="start" x="954" y="-154.86" font-family="Helvetica,sans-Serif" font-size="8.00">project.android.net.Client</text>
<text text-anchor="middle" x="1000" y="-145.86" font-family="Helvetica,sans-Serif" font-size="8.00">IOThread.ClientIOThread</text>
</a>
</g>
</g>
<!-- Node1&#45;&gt;Node3 -->
<g id="edge2" class="edge"><title>Node1&#45;&gt;Node3</title>
<path fill="none" stroke="midnightblue" d="M120.01,-152.879C184.015,-161.654 285.338,-173.26 373.5,-173.26 373.5,-173.26 373.5,-173.26 702.5,-173.26 787.777,-173.26 886.506,-164.51 945.787,-158.306"/>
<polygon fill="midnightblue" stroke="midnightblue" points="120.453,-149.407 110.066,-151.498 119.489,-156.341 120.453,-149.407"/>
</g>
<!-- Node4 -->
<g id="node4" class="node"><title>Node4</title>
<g id="a_node4"><a xlink:href="a00006.html#aee2a392b8b0500023dba15b60d3315d2" target="_top" xlink:title="Returns a list of ServerInfo objects. ">
<polygon fill="white" stroke="black" points="146,-100.26 146,-126.26 259,-126.26 259,-100.26 146,-100.26"/>
<text text-anchor="start" x="154" y="-115.86" font-family="Helvetica,sans-Serif" font-size="8.00">project.android.Connection</text>
<text text-anchor="middle" x="202.5" y="-106.86" font-family="Helvetica,sans-Serif" font-size="8.00">Fragment.getNetworkList</text>
</a>
</g>
</g>
<!-- Node1&#45;&gt;Node4 -->
<g id="edge3" class="edge"><title>Node1&#45;&gt;Node4</title>
<path fill="none" stroke="midnightblue" d="M120.128,-130.038C128.691,-128.272 137.415,-126.474 145.818,-124.741"/>
<polygon fill="midnightblue" stroke="midnightblue" points="119.266,-126.642 110.179,-132.089 120.68,-133.498 119.266,-126.642"/>
</g>
<!-- Node6 -->
<g id="node6" class="node"><title>Node6</title>
<g id="a_node6"><a xlink:href="a00008.html#a6b2523e50305753cb8c2893dc659a1ae" target="_top" xlink:title="Overrides ArrayAdapter.getView(int, View, ViewGroup) method. ">
<polygon fill="white" stroke="black" points="295,-43.7602 295,-60.7602 454,-60.7602 454,-43.7602 295,-43.7602"/>
<text text-anchor="middle" x="374.5" y="-50.3602" font-family="Helvetica,sans-Serif" font-size="8.00">project.android.CustomAdapter.getView</text>
</a>
</g>
</g>
<!-- Node1&#45;&gt;Node6 -->
<g id="edge16" class="edge"><title>Node1&#45;&gt;Node6</title>
<path fill="none" stroke="midnightblue" d="M82.0688,-124.423C99.3844,-112.813 123.072,-98.5999 146,-90.2602 193.792,-72.8766 250.155,-63.3886 294.823,-58.2407"/>
<polygon fill="midnightblue" stroke="midnightblue" points="79.8978,-121.668 73.6324,-130.212 83.8582,-127.44 79.8978,-121.668"/>
</g>
<!-- Node10 -->
<g id="node10" class="node"><title>Node10</title>
<g id="a_node10"><a xlink:href="a00006.html#af0e6f7c8aa02553792fd18fbb5e98a2e" target="_top" xlink:title="Sets an icon for an active server. ">
<polygon fill="white" stroke="black" points="645,-11.2602 645,-37.2602 758,-37.2602 758,-11.2602 645,-11.2602"/>
<text text-anchor="start" x="653" y="-26.8602" font-family="Helvetica,sans-Serif" font-size="8.00">project.android.Connection</text>
<text text-anchor="middle" x="701.5" y="-17.8602" font-family="Helvetica,sans-Serif" font-size="8.00">Fragment.setIcon</text>
</a>
</g>
</g>
<!-- Node1&#45;&gt;Node10 -->
<g id="edge15" class="edge"><title>Node1&#45;&gt;Node10</title>
<path fill="none" stroke="midnightblue" d="M72.6095,-122.179C89.0796,-102.837 116.12,-75.0217 146,-60.2602 312.063,21.7792 540.938,1.0095 644.996,-14.5028"/>
<polygon fill="midnightblue" stroke="midnightblue" points="69.7,-120.205 66.0172,-130.139 75.0912,-124.669 69.7,-120.205"/>
</g>
<!-- Node12 -->
<g id="node12" class="node"><title>Node12</title>
<g id="a_node12"><a xlink:href="a00006.html#aa3204a474571d554c95ddb6bdd2ca012" target="_top" xlink:title="Removes the ServerInfo object of an inactive server from the list of servers. ">
<polygon fill="white" stroke="black" points="146,-202.26 146,-228.26 259,-228.26 259,-202.26 146,-202.26"/>
<text text-anchor="start" x="154" y="-217.86" font-family="Helvetica,sans-Serif" font-size="8.00">project.android.Connection</text>
<text text-anchor="middle" x="202.5" y="-208.86" font-family="Helvetica,sans-Serif" font-size="8.00">Fragment.removeItem</text>
</a>
</g>
</g>
<!-- Node1&#45;&gt;Node12 -->
<g id="edge13" class="edge"><title>Node1&#45;&gt;Node12</title>
<path fill="none" stroke="midnightblue" d="M91.4065,-160.781C117.139,-173.515 151.424,-190.48 174.855,-202.075"/>
<polygon fill="midnightblue" stroke="midnightblue" points="92.864,-157.597 82.349,-156.299 89.7593,-163.871 92.864,-157.597"/>
</g>
<!-- Node5 -->
<g id="node5" class="node"><title>Node5</title>
<g id="a_node5"><a xlink:href="a00008.html#a9b4dd18431aa7ebd37321a0d2b1d2539" target="_top" xlink:title="Overrides the ArrayAdapter.getCount() method. ">
<polygon fill="white" stroke="black" points="303.5,-118.26 303.5,-144.26 445.5,-144.26 445.5,-118.26 303.5,-118.26"/>
<text text-anchor="start" x="311.5" y="-133.86" font-family="Helvetica,sans-Serif" font-size="8.00">project.android.CustomAdapter.get</text>
<text text-anchor="middle" x="374.5" y="-124.86" font-family="Helvetica,sans-Serif" font-size="8.00">Count</text>
</a>
</g>
</g>
<!-- Node4&#45;&gt;Node5 -->
<g id="edge4" class="edge"><title>Node4&#45;&gt;Node5</title>
<path fill="none" stroke="midnightblue" d="M269.285,-120.226C280.474,-121.41 292.132,-122.645 303.427,-123.841"/>
<polygon fill="midnightblue" stroke="midnightblue" points="269.477,-116.727 259.164,-119.154 268.74,-123.688 269.477,-116.727"/>
</g>
<!-- Node4&#45;&gt;Node6 -->
<g id="edge5" class="edge"><title>Node4&#45;&gt;Node6</title>
<path fill="none" stroke="midnightblue" d="M242.475,-95.9776C258.581,-89.1237 277.538,-81.4238 295,-75.2602 310.133,-69.9188 327.201,-64.8116 341.547,-60.7725"/>
<polygon fill="midnightblue" stroke="midnightblue" points="240.658,-92.949 232.854,-100.115 243.423,-99.3798 240.658,-92.949"/>
</g>
<!-- Node7 -->
<g id="node7" class="node"><title>Node7</title>
<g id="a_node7"><a xlink:href="a00006.html#a863b30e1ce16c16e6dba6bebe8d8c45e" target="_top" xlink:title="Returns the View of the clicked list item. ">
<polygon fill="white" stroke="black" points="490,-34.2602 490,-60.2602 609,-60.2602 609,-34.2602 490,-34.2602"/>
<text text-anchor="start" x="498" y="-49.8602" font-family="Helvetica,sans-Serif" font-size="8.00">project.android.Connection</text>
<text text-anchor="middle" x="549.5" y="-40.8602" font-family="Helvetica,sans-Serif" font-size="8.00">Fragment.getViewByPosition</text>
</a>
</g>
</g>
<!-- Node6&#45;&gt;Node7 -->
<g id="edge6" class="edge"><title>Node6&#45;&gt;Node7</title>
<path fill="none" stroke="midnightblue" d="M464.348,-49.6924C473.038,-49.4412 481.697,-49.191 489.972,-48.9518"/>
<polygon fill="midnightblue" stroke="midnightblue" points="464.048,-46.1995 454.154,-49.987 464.251,-53.1966 464.048,-46.1995"/>
</g>
<!-- Node8 -->
<g id="node8" class="node"><title>Node8</title>
<g id="a_node8"><a xlink:href="a00006.html#a5ae4f9d7872792288afb3de65ab4c2b0" target="_top" xlink:title="Sets an icon for an inactive server. ">
<polygon fill="white" stroke="black" points="645,-76.2602 645,-102.26 758,-102.26 758,-76.2602 645,-76.2602"/>
<text text-anchor="start" x="653" y="-91.8602" font-family="Helvetica,sans-Serif" font-size="8.00">project.android.Connection</text>
<text text-anchor="middle" x="701.5" y="-82.8602" font-family="Helvetica,sans-Serif" font-size="8.00">Fragment.resetIcon</text>
</a>
</g>
</g>
<!-- Node7&#45;&gt;Node8 -->
<g id="edge7" class="edge"><title>Node7&#45;&gt;Node8</title>
<path fill="none" stroke="midnightblue" d="M607.094,-63.1065C622.531,-67.4289 639.077,-72.0619 653.89,-76.2095"/>
<polygon fill="midnightblue" stroke="midnightblue" points="607.712,-59.6451 597.139,-60.3191 605.825,-66.3858 607.712,-59.6451"/>
</g>
<!-- Node7&#45;&gt;Node10 -->
<g id="edge11" class="edge"><title>Node7&#45;&gt;Node10</title>
<path fill="none" stroke="midnightblue" d="M619.29,-36.7124C627.82,-35.4045 636.457,-34.0801 644.757,-32.8075"/>
<polygon fill="midnightblue" stroke="midnightblue" points="618.707,-33.2608 609.353,-38.236 619.768,-40.1799 618.707,-33.2608"/>
</g>
<!-- Node8&#45;&gt;Node4 -->
<g id="edge10" class="edge"><title>Node8&#45;&gt;Node4</title>
<path fill="none" stroke="midnightblue" d="M634.291,-92.2044C554.003,-95.8112 414.567,-102.192 295,-108.26 283.401,-108.849 270.977,-109.508 259.142,-110.15"/>
<polygon fill="midnightblue" stroke="midnightblue" points="634.907,-95.6804 644.74,-91.7357 634.593,-88.6874 634.907,-95.6804"/>
</g>
<!-- Node9 -->
<g id="node9" class="node"><title>Node9</title>
<g id="a_node9"><a xlink:href="a00005.html#a9f6765867ad54f586cc7b329213a2ac3" target="_top" xlink:title="Performs operations for reading data from a server. ">
<polygon fill="white" stroke="black" points="799,-97.2602 799,-123.26 905,-123.26 905,-97.2602 799,-97.2602"/>
<text text-anchor="start" x="807" y="-112.86" font-family="Helvetica,sans-Serif" font-size="8.00">project.android.net.Client</text>
<text text-anchor="middle" x="852" y="-103.86" font-family="Helvetica,sans-Serif" font-size="8.00">IOThread.run</text>
</a>
</g>
</g>
<!-- Node8&#45;&gt;Node9 -->
<g id="edge8" class="edge"><title>Node8&#45;&gt;Node9</title>
<path fill="none" stroke="midnightblue" d="M768.348,-98.5721C778.579,-100.019 789.026,-101.496 798.897,-102.892"/>
<polygon fill="midnightblue" stroke="midnightblue" points="768.61,-95.0744 758.218,-97.1396 767.63,-102.005 768.61,-95.0744"/>
</g>
<!-- Node9&#45;&gt;Node3 -->
<g id="edge9" class="edge"><title>Node9&#45;&gt;Node3</title>
<path fill="none" stroke="midnightblue" d="M908.085,-126.106C923.11,-130.429 939.215,-135.062 953.633,-139.209"/>
<polygon fill="midnightblue" stroke="midnightblue" points="908.973,-122.72 898.395,-123.319 907.038,-129.447 908.973,-122.72"/>
</g>
<!-- Node11 -->
<g id="node11" class="node"><title>Node11</title>
<g id="a_node11"><a xlink:href="a00019.html#a6b623423ab726a2d5008717960032b6d" target="_top" xlink:title="Overrides the android.app.Service.onStartCommand(Intent, int, int). ">
<polygon fill="white" stroke="black" points="794,-11.2602 794,-37.2602 910,-37.2602 910,-11.2602 794,-11.2602"/>
<text text-anchor="start" x="802" y="-26.8602" font-family="Helvetica,sans-Serif" font-size="8.00">project.android.net.Network</text>
<text text-anchor="middle" x="852" y="-17.8602" font-family="Helvetica,sans-Serif" font-size="8.00">Service.onStartCommand</text>
</a>
</g>
</g>
<!-- Node10&#45;&gt;Node11 -->
<g id="edge12" class="edge"><title>Node10&#45;&gt;Node11</title>
<path fill="none" stroke="midnightblue" d="M768.486,-24.2602C776.989,-24.2602 785.638,-24.2602 793.979,-24.2602"/>
<polygon fill="midnightblue" stroke="midnightblue" points="768.218,-20.7603 758.218,-24.2602 768.218,-27.7603 768.218,-20.7603"/>
</g>
<!-- Node12&#45;&gt;Node2 -->
<g id="edge14" class="edge"><title>Node12&#45;&gt;Node2</title>
<path fill="none" stroke="midnightblue" d="M269.507,-223.414C283.934,-225.196 299.129,-227.073 313.314,-228.825"/>
<polygon fill="midnightblue" stroke="midnightblue" points="269.518,-219.889 259.164,-222.136 268.66,-226.836 269.518,-219.889"/>
</g>
</g>
</svg>
