<?xml version="1.0" encoding="UTF-8" standalone="no"?>
<!DOCTYPE svg PUBLIC "-//W3C//DTD SVG 1.1//EN"
 "http://www.w3.org/Graphics/SVG/1.1/DTD/svg11.dtd">
<!-- Generated by graphviz version 2.38.0 (20140413.2041)
 -->
<!-- Title: project.android.sensor.representation.Vector4f.copyVec4 Pages: 1 -->
<svg width="545pt" height="102pt"
 viewBox="0.00 0.00 545.00 102.00" xmlns="http://www.w3.org/2000/svg" xmlns:xlink="http://www.w3.org/1999/xlink">
<g id="graph0" class="graph" transform="scale(1 1) rotate(0) translate(4 98)">
<title>project.android.sensor.representation.Vector4f.copyVec4</title>
<polygon fill="white" stroke="none" points="-4,4 -4,-98 541,-98 541,4 -4,4"/>
<!-- Node1 -->
<g id="node1" class="node"><title>Node1</title>
<polygon fill="#bfbfbf" stroke="black" points="0,-22.5 0,-48.5 152,-48.5 152,-22.5 0,-22.5"/>
<text text-anchor="start" x="8" y="-38.1" font-family="Helvetica,sans-Serif" font-size="8.00">project.android.sensor.representation.</text>
<text text-anchor="middle" x="76" y="-29.1" font-family="Helvetica,sans-Serif" font-size="8.00">Vector4f.copyVec4</text>
</g>
<!-- Node2 -->
<g id="node2" class="node"><title>Node2</title>
<g id="a_node2"><a xlink:href="a00021.html#a63276a34f5007701782c0d5c1aeb467c" target="_top" xlink:title="Copies the values from the given quaternion to this one. ">
<polygon fill="white" stroke="black" points="188,-45.5 188,-71.5 340,-71.5 340,-45.5 188,-45.5"/>
<text text-anchor="start" x="196" y="-61.1" font-family="Helvetica,sans-Serif" font-size="8.00">project.android.sensor.representation.</text>
<text text-anchor="middle" x="264" y="-52.1" font-family="Helvetica,sans-Serif" font-size="8.00">Quaternion.set</text>
</a>
</g>
</g>
<!-- Node1&#45;&gt;Node2 -->
<g id="edge1" class="edge"><title>Node1&#45;&gt;Node2</title>
<path fill="none" stroke="midnightblue" d="M162.147,-46.029C170.742,-47.0917 179.426,-48.1656 187.905,-49.214"/>
<polygon fill="midnightblue" stroke="midnightblue" points="162.471,-42.5424 152.117,-44.7887 161.612,-49.4895 162.471,-42.5424"/>
</g>
<!-- Node5 -->
<g id="node5" class="node"><title>Node5</title>
<g id="a_node5"><a xlink:href="a00021.html#ad65bf4d90dd8d310b37e9318eae5546f" target="_top" xlink:title="Multiply this quaternion by the input quaternion. ">
<polygon fill="white" stroke="black" points="188,-0.5 188,-26.5 340,-26.5 340,-0.5 188,-0.5"/>
<text text-anchor="start" x="196" y="-16.1" font-family="Helvetica,sans-Serif" font-size="8.00">project.android.sensor.representation.</text>
<text text-anchor="middle" x="264" y="-7.1" font-family="Helvetica,sans-Serif" font-size="8.00">Quaternion.multiplyByQuat</text>
</a>
</g>
</g>
<!-- Node1&#45;&gt;Node5 -->
<g id="edge4" class="edge"><title>Node1&#45;&gt;Node5</title>
<path fill="none" stroke="midnightblue" d="M162.147,-25.4288C170.742,-24.4123 179.426,-23.385 187.905,-22.3822"/>
<polygon fill="midnightblue" stroke="midnightblue" points="161.637,-21.9647 152.117,-26.6152 162.459,-28.9162 161.637,-21.9647"/>
</g>
<!-- Node3 -->
<g id="node3" class="node"><title>Node3</title>
<g id="a_node3"><a xlink:href="a00011.html#ab9a9911056de6fc82ef1859c2eb42bad" target="_top" xlink:title="project.android.sensor.orientation.\lKalmanFilterProvider.onSensorChanged">
<polygon fill="white" stroke="black" points="376,-67.5 376,-93.5 537,-93.5 537,-67.5 376,-67.5"/>
<text text-anchor="start" x="384" y="-83.1" font-family="Helvetica,sans-Serif" font-size="8.00">project.android.sensor.orientation.</text>
<text text-anchor="middle" x="456.5" y="-74.1" font-family="Helvetica,sans-Serif" font-size="8.00">KalmanFilterProvider.onSensorChanged</text>
</a>
</g>
</g>
<!-- Node2&#45;&gt;Node3 -->
<g id="edge2" class="edge"><title>Node2&#45;&gt;Node3</title>
<path fill="none" stroke="midnightblue" d="M350.03,-68.3197C358.617,-69.3115 367.317,-70.3161 375.845,-71.301"/>
<polygon fill="midnightblue" stroke="midnightblue" points="350.353,-64.8338 340.017,-67.1634 349.55,-71.7876 350.353,-64.8338"/>
</g>
<!-- Node4 -->
<g id="node4" class="node"><title>Node4</title>
<g id="a_node4"><a xlink:href="a00020.html#a467add7b43d10e83cd33ef234664f077" target="_top" xlink:title="Get the current rotation of the device in the quaternion format (vector4f) ">
<polygon fill="white" stroke="black" points="387,-22.5 387,-48.5 526,-48.5 526,-22.5 387,-22.5"/>
<text text-anchor="start" x="395" y="-38.1" font-family="Helvetica,sans-Serif" font-size="8.00">project.android.sensor.orientation.</text>
<text text-anchor="middle" x="456.5" y="-29.1" font-family="Helvetica,sans-Serif" font-size="8.00">OrientationProvider.getQuaternion</text>
</a>
</g>
</g>
<!-- Node2&#45;&gt;Node4 -->
<g id="edge3" class="edge"><title>Node2&#45;&gt;Node4</title>
<path fill="none" stroke="midnightblue" d="M350.218,-48.2112C362.446,-46.7349 374.897,-45.2316 386.752,-43.8002"/>
<polygon fill="midnightblue" stroke="midnightblue" points="349.526,-44.7693 340.017,-49.4428 350.365,-51.7188 349.526,-44.7693"/>
</g>
</g>
</svg>
