<?xml version="1.0" encoding="UTF-8" standalone="no"?>
<!DOCTYPE svg PUBLIC "-//W3C//DTD SVG 1.1//EN"
 "http://www.w3.org/Graphics/SVG/1.1/DTD/svg11.dtd">
<!-- Generated by graphviz version 2.38.0 (20140413.2041)
 -->
<!-- Title: project.android.security.EKEProvider.decryptString Pages: 1 -->
<svg width="406pt" height="35pt"
 viewBox="0.00 0.00 406.00 35.00" xmlns="http://www.w3.org/2000/svg" xmlns:xlink="http://www.w3.org/1999/xlink">
<g id="graph0" class="graph" transform="scale(1 1) rotate(0) translate(4 31)">
<title>project.android.security.EKEProvider.decryptString</title>
<polygon fill="white" stroke="none" points="-4,4 -4,-31 402,-31 402,4 -4,4"/>
<!-- Node1 -->
<g id="node1" class="node"><title>Node1</title>
<polygon fill="#bfbfbf" stroke="black" points="0,-0.5 0,-26.5 112,-26.5 112,-0.5 0,-0.5"/>
<text text-anchor="start" x="8" y="-16.1" font-family="Helvetica,sans-Serif" font-size="8.00">project.android.security.</text>
<text text-anchor="middle" x="56" y="-7.1" font-family="Helvetica,sans-Serif" font-size="8.00">EKEProvider.decryptString</text>
</g>
<!-- Node2 -->
<g id="node2" class="node"><title>Node2</title>
<g id="a_node2"><a xlink:href="a00005.html#a9f6765867ad54f586cc7b329213a2ac3" target="_top" xlink:title="Performs operations for reading data from a server. ">
<polygon fill="white" stroke="black" points="148,-0.5 148,-26.5 254,-26.5 254,-0.5 148,-0.5"/>
<text text-anchor="start" x="156" y="-16.1" font-family="Helvetica,sans-Serif" font-size="8.00">project.android.net.Client</text>
<text text-anchor="middle" x="201" y="-7.1" font-family="Helvetica,sans-Serif" font-size="8.00">IOThread.run</text>
</a>
</g>
</g>
<!-- Node1&#45;&gt;Node2 -->
<g id="edge1" class="edge"><title>Node1&#45;&gt;Node2</title>
<path fill="none" stroke="midnightblue" d="M122.494,-13.5C130.934,-13.5 139.485,-13.5 147.675,-13.5"/>
<polygon fill="midnightblue" stroke="midnightblue" points="122.288,-10.0001 112.288,-13.5 122.287,-17.0001 122.288,-10.0001"/>
</g>
<!-- Node3 -->
<g id="node3" class="node"><title>Node3</title>
<g id="a_node3"><a xlink:href="a00005.html#aa57b04eb44ae7982a7a79cdb7c484144" target="_top" xlink:title="Constructor. ">
<polygon fill="white" stroke="black" points="290,-0.5 290,-26.5 398,-26.5 398,-0.5 290,-0.5"/>
<text text-anchor="start" x="298" y="-16.1" font-family="Helvetica,sans-Serif" font-size="8.00">project.android.net.Client</text>
<text text-anchor="middle" x="344" y="-7.1" font-family="Helvetica,sans-Serif" font-size="8.00">IOThread.ClientIOThread</text>
</a>
</g>
</g>
<!-- Node2&#45;&gt;Node3 -->
<g id="edge2" class="edge"><title>Node2&#45;&gt;Node3</title>
<path fill="none" stroke="midnightblue" d="M264.317,-13.5C272.783,-13.5 281.409,-13.5 289.697,-13.5"/>
<polygon fill="midnightblue" stroke="midnightblue" points="264.103,-10.0001 254.103,-13.5 264.103,-17.0001 264.103,-10.0001"/>
</g>
</g>
</svg>
