<?xml version="1.0" encoding="UTF-8" standalone="no"?>
<!DOCTYPE svg PUBLIC "-//W3C//DTD SVG 1.1//EN"
 "http://www.w3.org/Graphics/SVG/1.1/DTD/svg11.dtd">
<!-- Generated by graphviz version 2.38.0 (20140413.2041)
 -->
<!-- Title: project.android.sensor.representation.Vector4f.array Pages: 1 -->
<svg width="357pt" height="35pt"
 viewBox="0.00 0.00 357.00 35.00" xmlns="http://www.w3.org/2000/svg" xmlns:xlink="http://www.w3.org/1999/xlink">
<g id="graph0" class="graph" transform="scale(1 1) rotate(0) translate(4 31)">
<title>project.android.sensor.representation.Vector4f.array</title>
<polygon fill="white" stroke="none" points="-4,4 -4,-31 353,-31 353,4 -4,4"/>
<!-- Node1 -->
<g id="node1" class="node"><title>Node1</title>
<polygon fill="#bfbfbf" stroke="black" points="0,-0.5 0,-26.5 152,-26.5 152,-0.5 0,-0.5"/>
<text text-anchor="start" x="8" y="-16.1" font-family="Helvetica,sans-Serif" font-size="8.00">project.android.sensor.representation.</text>
<text text-anchor="middle" x="76" y="-7.1" font-family="Helvetica,sans-Serif" font-size="8.00">Vector4f.array</text>
</g>
<!-- Node2 -->
<g id="node2" class="node"><title>Node2</title>
<g id="a_node2"><a xlink:href="a00011.html#ab9a9911056de6fc82ef1859c2eb42bad" target="_top" xlink:title="project.android.sensor.orientation.\lKalmanFilterProvider.onSensorChanged">
<polygon fill="white" stroke="black" points="188,-0.5 188,-26.5 349,-26.5 349,-0.5 188,-0.5"/>
<text text-anchor="start" x="196" y="-16.1" font-family="Helvetica,sans-Serif" font-size="8.00">project.android.sensor.orientation.</text>
<text text-anchor="middle" x="268.5" y="-7.1" font-family="Helvetica,sans-Serif" font-size="8.00">KalmanFilterProvider.onSensorChanged</text>
</a>
</g>
</g>
<!-- Node1&#45;&gt;Node2 -->
<g id="edge1" class="edge"><title>Node1&#45;&gt;Node2</title>
<path fill="none" stroke="midnightblue" d="M162.03,-13.5C170.617,-13.5 179.317,-13.5 187.845,-13.5"/>
<polygon fill="midnightblue" stroke="midnightblue" points="162.017,-10.0001 152.017,-13.5 162.017,-17.0001 162.017,-10.0001"/>
</g>
</g>
</svg>
