<?xml version="1.0" encoding="UTF-8" standalone="no"?>
<!DOCTYPE svg PUBLIC "-//W3C//DTD SVG 1.1//EN"
 "http://www.w3.org/Graphics/SVG/1.1/DTD/svg11.dtd">
<!-- Generated by graphviz version 2.38.0 (20140413.2041)
 -->
<!-- Title: project.android.net.ClientIOThread.ClientIOThread Pages: 1 -->
<svg width="582pt" height="125pt"
 viewBox="0.00 0.00 582.00 125.00" xmlns="http://www.w3.org/2000/svg" xmlns:xlink="http://www.w3.org/1999/xlink">
<g id="graph0" class="graph" transform="scale(1 1) rotate(0) translate(4 121)">
<title>project.android.net.ClientIOThread.ClientIOThread</title>
<polygon fill="white" stroke="none" points="-4,4 -4,-121 578,-121 578,4 -4,4"/>
<!-- Node1 -->
<g id="node1" class="node"><title>Node1</title>
<polygon fill="#bfbfbf" stroke="black" points="0,-45.5 0,-71.5 108,-71.5 108,-45.5 0,-45.5"/>
<text text-anchor="start" x="8" y="-61.1" font-family="Helvetica,sans-Serif" font-size="8.00">project.android.net.Client</text>
<text text-anchor="middle" x="54" y="-52.1" font-family="Helvetica,sans-Serif" font-size="8.00">IOThread.ClientIOThread</text>
</g>
<!-- Node2 -->
<g id="node2" class="node"><title>Node2</title>
<g id="a_node2"><a xlink:href="a00022.html#a914c65a49cf5940901d475693ee8e205" target="_top" xlink:title="Returns the IPv4 address of the server. ">
<polygon fill="white" stroke="black" points="145,-90.5 145,-116.5 255,-116.5 255,-90.5 145,-90.5"/>
<text text-anchor="start" x="153" y="-106.1" font-family="Helvetica,sans-Serif" font-size="8.00">project.android.net.Server</text>
<text text-anchor="middle" x="200" y="-97.1" font-family="Helvetica,sans-Serif" font-size="8.00">Info.getAddress</text>
</a>
</g>
</g>
<!-- Node1&#45;&gt;Node2 -->
<g id="edge1" class="edge"><title>Node1&#45;&gt;Node2</title>
<path fill="none" stroke="midnightblue" d="M96.6508,-71.5159C112.482,-76.4632 130.71,-82.1593 147.356,-87.3612"/>
<polygon fill="midnightblue" stroke="midnightblue" points="146.355,-90.7154 156.944,-90.3575 148.443,-84.034 146.355,-90.7154"/>
</g>
<!-- Node3 -->
<g id="node3" class="node"><title>Node3</title>
<g id="a_node3"><a xlink:href="a00005.html#a9f6765867ad54f586cc7b329213a2ac3" target="_top" xlink:title="Performs operations for reading data from a server. ">
<polygon fill="white" stroke="black" points="147,-45.5 147,-71.5 253,-71.5 253,-45.5 147,-45.5"/>
<text text-anchor="start" x="155" y="-61.1" font-family="Helvetica,sans-Serif" font-size="8.00">project.android.net.Client</text>
<text text-anchor="middle" x="200" y="-52.1" font-family="Helvetica,sans-Serif" font-size="8.00">IOThread.run</text>
</a>
</g>
</g>
<!-- Node1&#45;&gt;Node3 -->
<g id="edge2" class="edge"><title>Node1&#45;&gt;Node3</title>
<path fill="none" stroke="midnightblue" d="M108.211,-58.5C117.507,-58.5 127.253,-58.5 136.766,-58.5"/>
<polygon fill="midnightblue" stroke="midnightblue" points="136.967,-62.0001 146.967,-58.5 136.967,-55.0001 136.967,-62.0001"/>
</g>
<!-- Node8 -->
<g id="node8" class="node"><title>Node8</title>
<g id="a_node8"><a xlink:href="a00010.html#a73624750dc6ff111d72bcb4b54c4995c" target="_top" xlink:title="Encrypt plaintext using AES 256&#45;bit encryption algorithm. ">
<polygon fill="white" stroke="black" points="144,-0.5 144,-26.5 256,-26.5 256,-0.5 144,-0.5"/>
<text text-anchor="start" x="152" y="-16.1" font-family="Helvetica,sans-Serif" font-size="8.00">project.android.security.</text>
<text text-anchor="middle" x="200" y="-7.1" font-family="Helvetica,sans-Serif" font-size="8.00">EKEProvider.encryptString</text>
</a>
</g>
</g>
<!-- Node1&#45;&gt;Node8 -->
<g id="edge7" class="edge"><title>Node1&#45;&gt;Node8</title>
<path fill="none" stroke="midnightblue" d="M96.6508,-45.4841C112.482,-40.5368 130.71,-34.8407 147.356,-29.6388"/>
<polygon fill="midnightblue" stroke="midnightblue" points="148.443,-32.966 156.944,-26.6425 146.355,-26.2846 148.443,-32.966"/>
</g>
<!-- Node4 -->
<g id="node4" class="node"><title>Node4</title>
<g id="a_node4"><a xlink:href="a00015.html#a2025eaa4f93363e6f4a03b26d7c4f8f6" target="_top" xlink:title="Returns the project.android.ConnectionFragment object. ">
<polygon fill="white" stroke="black" points="292,-90.5 292,-116.5 419,-116.5 419,-90.5 292,-90.5"/>
<text text-anchor="start" x="300" y="-106.1" font-family="Helvetica,sans-Serif" font-size="8.00">project.android.MainActivity.get</text>
<text text-anchor="middle" x="355.5" y="-97.1" font-family="Helvetica,sans-Serif" font-size="8.00">ConnectionFragment</text>
</a>
</g>
</g>
<!-- Node3&#45;&gt;Node4 -->
<g id="edge3" class="edge"><title>Node3&#45;&gt;Node4</title>
<path fill="none" stroke="midnightblue" d="M245.399,-71.5159C262.507,-76.5313 282.24,-82.3164 300.181,-87.5759"/>
<polygon fill="midnightblue" stroke="midnightblue" points="299.355,-90.9809 309.936,-90.4355 301.324,-84.2636 299.355,-90.9809"/>
</g>
<!-- Node5 -->
<g id="node5" class="node"><title>Node5</title>
<g id="a_node5"><a xlink:href="a00006.html#a5ae4f9d7872792288afb3de65ab4c2b0" target="_top" xlink:title="Sets an icon for an inactive server. ">
<polygon fill="white" stroke="black" points="299,-45.5 299,-71.5 412,-71.5 412,-45.5 299,-45.5"/>
<text text-anchor="start" x="307" y="-61.1" font-family="Helvetica,sans-Serif" font-size="8.00">project.android.Connection</text>
<text text-anchor="middle" x="355.5" y="-52.1" font-family="Helvetica,sans-Serif" font-size="8.00">Fragment.resetIcon</text>
</a>
</g>
</g>
<!-- Node3&#45;&gt;Node5 -->
<g id="edge4" class="edge"><title>Node3&#45;&gt;Node5</title>
<path fill="none" stroke="midnightblue" d="M253.397,-58.5C264.749,-58.5 276.894,-58.5 288.688,-58.5"/>
<polygon fill="midnightblue" stroke="midnightblue" points="288.933,-62.0001 298.933,-58.5 288.933,-55.0001 288.933,-62.0001"/>
</g>
<!-- Node7 -->
<g id="node7" class="node"><title>Node7</title>
<g id="a_node7"><a xlink:href="a00010.html#a1843f8e6646edd0fbea0ae49e620aa92" target="_top" xlink:title="Decrypt ciphertext using AES&#45;256 bit algorithm. ">
<polygon fill="white" stroke="black" points="299.5,-0.5 299.5,-26.5 411.5,-26.5 411.5,-0.5 299.5,-0.5"/>
<text text-anchor="start" x="307.5" y="-16.1" font-family="Helvetica,sans-Serif" font-size="8.00">project.android.security.</text>
<text text-anchor="middle" x="355.5" y="-7.1" font-family="Helvetica,sans-Serif" font-size="8.00">EKEProvider.decryptString</text>
</a>
</g>
</g>
<!-- Node3&#45;&gt;Node7 -->
<g id="edge6" class="edge"><title>Node3&#45;&gt;Node7</title>
<path fill="none" stroke="midnightblue" d="M245.399,-45.4841C262.507,-40.4687 282.24,-34.6836 300.181,-29.4241"/>
<polygon fill="midnightblue" stroke="midnightblue" points="301.324,-32.7364 309.936,-26.5645 299.355,-26.0191 301.324,-32.7364"/>
</g>
<!-- Node6 -->
<g id="node6" class="node"><title>Node6</title>
<g id="a_node6"><a xlink:href="a00006.html#a863b30e1ce16c16e6dba6bebe8d8c45e" target="_top" xlink:title="Returns the View of the clicked list item. ">
<polygon fill="white" stroke="red" points="455,-45.5 455,-71.5 574,-71.5 574,-45.5 455,-45.5"/>
<text text-anchor="start" x="463" y="-61.1" font-family="Helvetica,sans-Serif" font-size="8.00">project.android.Connection</text>
<text text-anchor="middle" x="514.5" y="-52.1" font-family="Helvetica,sans-Serif" font-size="8.00">Fragment.getViewByPosition</text>
</a>
</g>
</g>
<!-- Node5&#45;&gt;Node6 -->
<g id="edge5" class="edge"><title>Node5&#45;&gt;Node6</title>
<path fill="none" stroke="midnightblue" d="M412.294,-58.5C422.781,-58.5 433.858,-58.5 444.686,-58.5"/>
<polygon fill="midnightblue" stroke="midnightblue" points="444.964,-62.0001 454.964,-58.5 444.964,-55.0001 444.964,-62.0001"/>
</g>
</g>
</svg>
