<?xml version="1.0" encoding="UTF-8" standalone="no"?>
<!DOCTYPE svg PUBLIC "-//W3C//DTD SVG 1.1//EN"
 "http://www.w3.org/Graphics/SVG/1.1/DTD/svg11.dtd">
<!-- Generated by graphviz version 2.38.0 (20140413.2041)
 -->
<!-- Title: project.android.ConnectionFragment.removeItem Pages: 1 -->
<svg width="267pt" height="35pt"
 viewBox="0.00 0.00 267.00 35.00" xmlns="http://www.w3.org/2000/svg" xmlns:xlink="http://www.w3.org/1999/xlink">
<g id="graph0" class="graph" transform="scale(1 1) rotate(0) translate(4 31)">
<title>project.android.ConnectionFragment.removeItem</title>
<polygon fill="white" stroke="none" points="-4,4 -4,-31 263,-31 263,4 -4,4"/>
<!-- Node1 -->
<g id="node1" class="node"><title>Node1</title>
<polygon fill="#bfbfbf" stroke="black" points="0,-0.5 0,-26.5 113,-26.5 113,-0.5 0,-0.5"/>
<text text-anchor="start" x="8" y="-16.1" font-family="Helvetica,sans-Serif" font-size="8.00">project.android.Connection</text>
<text text-anchor="middle" x="56.5" y="-7.1" font-family="Helvetica,sans-Serif" font-size="8.00">Fragment.removeItem</text>
</g>
<!-- Node2 -->
<g id="node2" class="node"><title>Node2</title>
<g id="a_node2"><a xlink:href="a00022.html#a914c65a49cf5940901d475693ee8e205" target="_top" xlink:title="Returns the IPv4 address of the server. ">
<polygon fill="white" stroke="black" points="149,-0.5 149,-26.5 259,-26.5 259,-0.5 149,-0.5"/>
<text text-anchor="start" x="157" y="-16.1" font-family="Helvetica,sans-Serif" font-size="8.00">project.android.net.Server</text>
<text text-anchor="middle" x="204" y="-7.1" font-family="Helvetica,sans-Serif" font-size="8.00">Info.getAddress</text>
</a>
</g>
</g>
<!-- Node1&#45;&gt;Node2 -->
<g id="edge1" class="edge"><title>Node1&#45;&gt;Node2</title>
<path fill="none" stroke="midnightblue" d="M113.338,-13.5C121.656,-13.5 130.287,-13.5 138.761,-13.5"/>
<polygon fill="midnightblue" stroke="midnightblue" points="138.989,-17.0001 148.989,-13.5 138.989,-10.0001 138.989,-17.0001"/>
</g>
</g>
</svg>
