<?xml version="1.0" encoding="UTF-8" standalone="no"?>
<!DOCTYPE svg PUBLIC "-//W3C//DTD SVG 1.1//EN"
 "http://www.w3.org/Graphics/SVG/1.1/DTD/svg11.dtd">
<!-- Generated by graphviz version 2.38.0 (20140413.2041)
 -->
<!-- Title: project.android.net.ClientIOThread Pages: 1 -->
<svg width="114pt" height="166pt"
 viewBox="0.00 0.00 114.00 166.00" xmlns="http://www.w3.org/2000/svg" xmlns:xlink="http://www.w3.org/1999/xlink">
<g id="graph0" class="graph" transform="scale(1 1) rotate(0) translate(4 162)">
<title>project.android.net.ClientIOThread</title>
<polygon fill="white" stroke="none" points="-4,4 -4,-162 110,-162 110,4 -4,4"/>
<!-- Node1 -->
<g id="node1" class="node"><title>Node1</title>
<polygon fill="#bfbfbf" stroke="black" points="-7.10543e-15,-0.5 -7.10543e-15,-69.5 106,-69.5 106,-0.5 -7.10543e-15,-0.5"/>
<text text-anchor="start" x="8" y="-59.1" font-family="Helvetica,sans-Serif" font-size="8.00">project.android.net.Client</text>
<text text-anchor="middle" x="53" y="-50.1" font-family="Helvetica,sans-Serif" font-size="8.00">IOThread</text>
<polyline fill="none" stroke="black" points="-7.10543e-15,-43.5 106,-43.5 "/>
<text text-anchor="middle" x="53" y="-33.1" font-family="Helvetica,sans-Serif" font-size="8.00"> </text>
<polyline fill="none" stroke="black" points="-7.10543e-15,-26.5 106,-26.5 "/>
<text text-anchor="start" x="8" y="-16.1" font-family="Helvetica,sans-Serif" font-size="8.00">+ run()</text>
<text text-anchor="start" x="8" y="-7.1" font-family="Helvetica,sans-Serif" font-size="8.00">~ ClientIOThread()</text>
</g>
<!-- Node2 -->
<g id="node2" class="node"><title>Node2</title>
<polygon fill="white" stroke="#bfbfbf" points="27.5,-106.5 27.5,-157.5 78.5,-157.5 78.5,-106.5 27.5,-106.5"/>
<text text-anchor="middle" x="53" y="-147.1" font-family="Helvetica,sans-Serif" font-size="8.00">Runnable</text>
<polyline fill="none" stroke="#bfbfbf" points="27.5,-140.5 78.5,-140.5 "/>
<text text-anchor="middle" x="53" y="-130.1" font-family="Helvetica,sans-Serif" font-size="8.00"> </text>
<polyline fill="none" stroke="#bfbfbf" points="27.5,-123.5 78.5,-123.5 "/>
<text text-anchor="middle" x="53" y="-113.1" font-family="Helvetica,sans-Serif" font-size="8.00"> </text>
</g>
<!-- Node2&#45;&gt;Node1 -->
<g id="edge1" class="edge"><title>Node2&#45;&gt;Node1</title>
<path fill="none" stroke="midnightblue" d="M53,-95.9561C53,-87.3848 53,-78.2313 53,-69.7233"/>
<polygon fill="none" stroke="midnightblue" points="49.5001,-96.0398 53,-106.04 56.5001,-96.0399 49.5001,-96.0398"/>
</g>
</g>
</svg>
