<?xml version="1.0" encoding="UTF-8" standalone="no"?>
<!DOCTYPE svg PUBLIC "-//W3C//DTD SVG 1.1//EN"
 "http://www.w3.org/Graphics/SVG/1.1/DTD/svg11.dtd">
<!-- Generated by graphviz version 2.38.0 (20140413.2041)
 -->
<!-- Title: project.android.net.ServerInfo.getServerInfo Pages: 1 -->
<svg width="947pt" height="125pt"
 viewBox="0.00 0.00 947.00 125.00" xmlns="http://www.w3.org/2000/svg" xmlns:xlink="http://www.w3.org/1999/xlink">
<g id="graph0" class="graph" transform="scale(1 1) rotate(0) translate(4 121)">
<title>project.android.net.ServerInfo.getServerInfo</title>
<polygon fill="white" stroke="none" points="-4,4 -4,-121 943,-121 943,4 -4,4"/>
<!-- Node1 -->
<g id="node1" class="node"><title>Node1</title>
<polygon fill="#bfbfbf" stroke="black" points="0,-66.5 0,-92.5 110,-92.5 110,-66.5 0,-66.5"/>
<text text-anchor="start" x="8" y="-82.1" font-family="Helvetica,sans-Serif" font-size="8.00">project.android.net.Server</text>
<text text-anchor="middle" x="55" y="-73.1" font-family="Helvetica,sans-Serif" font-size="8.00">Info.getServerInfo</text>
</g>
<!-- Node2 -->
<g id="node2" class="node"><title>Node2</title>
<g id="a_node2"><a xlink:href="a00006.html#af0e6f7c8aa02553792fd18fbb5e98a2e" target="_top" xlink:title="Sets an icon for an active server. ">
<polygon fill="white" stroke="black" points="496,-89.5 496,-115.5 609,-115.5 609,-89.5 496,-89.5"/>
<text text-anchor="start" x="504" y="-105.1" font-family="Helvetica,sans-Serif" font-size="8.00">project.android.Connection</text>
<text text-anchor="middle" x="552.5" y="-96.1" font-family="Helvetica,sans-Serif" font-size="8.00">Fragment.setIcon</text>
</a>
</g>
</g>
<!-- Node1&#45;&gt;Node2 -->
<g id="edge1" class="edge"><title>Node1&#45;&gt;Node2</title>
<path fill="none" stroke="midnightblue" d="M120.518,-82.4948C218.544,-87.0449 403.345,-95.623 495.829,-99.9159"/>
<polygon fill="midnightblue" stroke="midnightblue" points="120.596,-78.9947 110.445,-82.0272 120.271,-85.9872 120.596,-78.9947"/>
</g>
<!-- Node4 -->
<g id="node4" class="node"><title>Node4</title>
<g id="a_node4"><a xlink:href="a00008.html#a6b2523e50305753cb8c2893dc659a1ae" target="_top" xlink:title="Overrides ArrayAdapter.getView(int, View, ViewGroup) method. ">
<polygon fill="white" stroke="black" points="146,-50 146,-67 305,-67 305,-50 146,-50"/>
<text text-anchor="middle" x="225.5" y="-56.6" font-family="Helvetica,sans-Serif" font-size="8.00">project.android.CustomAdapter.getView</text>
</a>
</g>
</g>
<!-- Node1&#45;&gt;Node4 -->
<g id="edge3" class="edge"><title>Node1&#45;&gt;Node4</title>
<path fill="none" stroke="midnightblue" d="M120.37,-71.4776C132.083,-70.0178 144.339,-68.4903 156.162,-67.0169"/>
<polygon fill="midnightblue" stroke="midnightblue" points="119.732,-68.0299 110.242,-72.7399 120.598,-74.9762 119.732,-68.0299"/>
</g>
<!-- Node3 -->
<g id="node3" class="node"><title>Node3</title>
<g id="a_node3"><a xlink:href="a00019.html#a6b623423ab726a2d5008717960032b6d" target="_top" xlink:title="Overrides the android.app.Service.onStartCommand(Intent, int, int). ">
<polygon fill="white" stroke="black" points="645,-90.5 645,-116.5 761,-116.5 761,-90.5 645,-90.5"/>
<text text-anchor="start" x="653" y="-106.1" font-family="Helvetica,sans-Serif" font-size="8.00">project.android.net.Network</text>
<text text-anchor="middle" x="703" y="-97.1" font-family="Helvetica,sans-Serif" font-size="8.00">Service.onStartCommand</text>
</a>
</g>
</g>
<!-- Node2&#45;&gt;Node3 -->
<g id="edge2" class="edge"><title>Node2&#45;&gt;Node3</title>
<path fill="none" stroke="midnightblue" d="M619.486,-102.944C627.989,-103.002 636.638,-103.06 644.979,-103.116"/>
<polygon fill="midnightblue" stroke="midnightblue" points="619.242,-99.4427 609.218,-102.875 619.195,-106.443 619.242,-99.4427"/>
</g>
<!-- Node5 -->
<g id="node5" class="node"><title>Node5</title>
<g id="a_node5"><a xlink:href="a00006.html#a863b30e1ce16c16e6dba6bebe8d8c45e" target="_top" xlink:title="Returns the View of the clicked list item. ">
<polygon fill="white" stroke="black" points="341,-45.5 341,-71.5 460,-71.5 460,-45.5 341,-45.5"/>
<text text-anchor="start" x="349" y="-61.1" font-family="Helvetica,sans-Serif" font-size="8.00">project.android.Connection</text>
<text text-anchor="middle" x="400.5" y="-52.1" font-family="Helvetica,sans-Serif" font-size="8.00">Fragment.getViewByPosition</text>
</a>
</g>
</g>
<!-- Node4&#45;&gt;Node5 -->
<g id="edge4" class="edge"><title>Node4&#45;&gt;Node5</title>
<path fill="none" stroke="midnightblue" d="M315.348,-58.5C324.038,-58.5 332.697,-58.5 340.972,-58.5"/>
<polygon fill="midnightblue" stroke="midnightblue" points="315.154,-55.0001 305.154,-58.5 315.154,-62.0001 315.154,-55.0001"/>
</g>
<!-- Node5&#45;&gt;Node2 -->
<g id="edge11" class="edge"><title>Node5&#45;&gt;Node2</title>
<path fill="none" stroke="midnightblue" d="M455.809,-74.4306C472.645,-79.3692 490.991,-84.7506 507.073,-89.4681"/>
<polygon fill="midnightblue" stroke="midnightblue" points="456.68,-71.0386 446.099,-71.5823 454.709,-77.7556 456.68,-71.0386"/>
</g>
<!-- Node6 -->
<g id="node6" class="node"><title>Node6</title>
<g id="a_node6"><a xlink:href="a00006.html#a5ae4f9d7872792288afb3de65ab4c2b0" target="_top" xlink:title="Sets an icon for an inactive server. ">
<polygon fill="white" stroke="black" points="496,-44.5 496,-70.5 609,-70.5 609,-44.5 496,-44.5"/>
<text text-anchor="start" x="504" y="-60.1" font-family="Helvetica,sans-Serif" font-size="8.00">project.android.Connection</text>
<text text-anchor="middle" x="552.5" y="-51.1" font-family="Helvetica,sans-Serif" font-size="8.00">Fragment.resetIcon</text>
</a>
</g>
</g>
<!-- Node5&#45;&gt;Node6 -->
<g id="edge5" class="edge"><title>Node5&#45;&gt;Node6</title>
<path fill="none" stroke="midnightblue" d="M470.568,-58.0395C479.008,-57.9833 487.547,-57.9264 495.757,-57.8716"/>
<polygon fill="midnightblue" stroke="midnightblue" points="470.33,-54.541 460.353,-58.1076 470.377,-61.5408 470.33,-54.541"/>
</g>
<!-- Node7 -->
<g id="node7" class="node"><title>Node7</title>
<g id="a_node7"><a xlink:href="a00005.html#a9f6765867ad54f586cc7b329213a2ac3" target="_top" xlink:title="Performs operations for reading data from a server. ">
<polygon fill="white" stroke="black" points="650,-45.5 650,-71.5 756,-71.5 756,-45.5 650,-45.5"/>
<text text-anchor="start" x="658" y="-61.1" font-family="Helvetica,sans-Serif" font-size="8.00">project.android.net.Client</text>
<text text-anchor="middle" x="703" y="-52.1" font-family="Helvetica,sans-Serif" font-size="8.00">IOThread.run</text>
</a>
</g>
</g>
<!-- Node6&#45;&gt;Node7 -->
<g id="edge6" class="edge"><title>Node6&#45;&gt;Node7</title>
<path fill="none" stroke="midnightblue" d="M619.348,-57.9434C629.579,-58.0123 640.026,-58.0827 649.897,-58.1491"/>
<polygon fill="midnightblue" stroke="midnightblue" points="619.242,-54.4427 609.218,-57.8752 619.195,-61.4426 619.242,-54.4427"/>
</g>
<!-- Node9 -->
<g id="node9" class="node"><title>Node9</title>
<g id="a_node9"><a xlink:href="a00006.html#aee2a392b8b0500023dba15b60d3315d2" target="_top" xlink:title="Returns a list of ServerInfo objects. ">
<polygon fill="white" stroke="black" points="646.5,-0.5 646.5,-26.5 759.5,-26.5 759.5,-0.5 646.5,-0.5"/>
<text text-anchor="start" x="654.5" y="-16.1" font-family="Helvetica,sans-Serif" font-size="8.00">project.android.Connection</text>
<text text-anchor="middle" x="703" y="-7.1" font-family="Helvetica,sans-Serif" font-size="8.00">Fragment.getNetworkList</text>
</a>
</g>
</g>
<!-- Node6&#45;&gt;Node9 -->
<g id="edge8" class="edge"><title>Node6&#45;&gt;Node9</title>
<path fill="none" stroke="midnightblue" d="M607.266,-41.5694C623.934,-36.6308 642.096,-31.2494 658.017,-26.5319"/>
<polygon fill="midnightblue" stroke="midnightblue" points="606.246,-38.2209 597.653,-44.4177 608.235,-44.9325 606.246,-38.2209"/>
</g>
<!-- Node8 -->
<g id="node8" class="node"><title>Node8</title>
<g id="a_node8"><a xlink:href="a00005.html#aa57b04eb44ae7982a7a79cdb7c484144" target="_top" xlink:title="Constructor. ">
<polygon fill="white" stroke="black" points="814,-45.5 814,-71.5 922,-71.5 922,-45.5 814,-45.5"/>
<text text-anchor="start" x="822" y="-61.1" font-family="Helvetica,sans-Serif" font-size="8.00">project.android.net.Client</text>
<text text-anchor="middle" x="868" y="-52.1" font-family="Helvetica,sans-Serif" font-size="8.00">IOThread.ClientIOThread</text>
</a>
</g>
</g>
<!-- Node7&#45;&gt;Node8 -->
<g id="edge7" class="edge"><title>Node7&#45;&gt;Node8</title>
<path fill="none" stroke="midnightblue" d="M766.166,-58.5C781.865,-58.5 798.579,-58.5 813.792,-58.5"/>
<polygon fill="midnightblue" stroke="midnightblue" points="766.022,-55.0001 756.022,-58.5 766.022,-62.0001 766.022,-55.0001"/>
</g>
<!-- Node9&#45;&gt;Node4 -->
<g id="edge10" class="edge"><title>Node9&#45;&gt;Node4</title>
<path fill="none" stroke="midnightblue" d="M636.069,-14.8027C563.498,-16.8675 443.519,-22.1438 341,-35.5 314.461,-38.9576 284.848,-44.9645 262.387,-49.9725"/>
<polygon fill="midnightblue" stroke="midnightblue" points="636.523,-18.2917 646.424,-14.5207 636.333,-11.2943 636.523,-18.2917"/>
</g>
<!-- Node10 -->
<g id="node10" class="node"><title>Node10</title>
<g id="a_node10"><a xlink:href="a00008.html#a9b4dd18431aa7ebd37321a0d2b1d2539" target="_top" xlink:title="Overrides the ArrayAdapter.getCount() method. ">
<polygon fill="white" stroke="black" points="797,-0.5 797,-26.5 939,-26.5 939,-0.5 797,-0.5"/>
<text text-anchor="start" x="805" y="-16.1" font-family="Helvetica,sans-Serif" font-size="8.00">project.android.CustomAdapter.get</text>
<text text-anchor="middle" x="868" y="-7.1" font-family="Helvetica,sans-Serif" font-size="8.00">Count</text>
</a>
</g>
</g>
<!-- Node9&#45;&gt;Node10 -->
<g id="edge9" class="edge"><title>Node9&#45;&gt;Node10</title>
<path fill="none" stroke="midnightblue" d="M769.927,-13.5C778.813,-13.5 787.955,-13.5 796.911,-13.5"/>
<polygon fill="midnightblue" stroke="midnightblue" points="769.639,-10.0001 759.639,-13.5 769.639,-17.0001 769.639,-10.0001"/>
</g>
</g>
</svg>
