<?xml version="1.0" encoding="UTF-8" standalone="no"?>
<!DOCTYPE svg PUBLIC "-//W3C//DTD SVG 1.1//EN"
 "http://www.w3.org/Graphics/SVG/1.1/DTD/svg11.dtd">
<!-- Generated by graphviz version 2.38.0 (20140413.2041)
 -->
<!-- Title: project.android.sensor.representation.Quaternion.toString Pages: 1 -->
<svg width="348pt" height="485pt"
 viewBox="0.00 0.00 348.00 485.00" xmlns="http://www.w3.org/2000/svg" xmlns:xlink="http://www.w3.org/1999/xlink">
<g id="graph0" class="graph" transform="scale(1 1) rotate(0) translate(4 481)">
<title>project.android.sensor.representation.Quaternion.toString</title>
<polygon fill="white" stroke="none" points="-4,4 -4,-481 344,-481 344,4 -4,4"/>
<!-- Node1 -->
<g id="node1" class="node"><title>Node1</title>
<polygon fill="#bfbfbf" stroke="black" points="0,-225.5 0,-251.5 152,-251.5 152,-225.5 0,-225.5"/>
<text text-anchor="start" x="8" y="-241.1" font-family="Helvetica,sans-Serif" font-size="8.00">project.android.sensor.representation.</text>
<text text-anchor="middle" x="76" y="-232.1" font-family="Helvetica,sans-Serif" font-size="8.00">Quaternion.toString</text>
</g>
<!-- Node2 -->
<g id="node2" class="node"><title>Node2</title>
<g id="a_node2"><a xlink:href="a00027.html#af69dc14afa12c757152f93bd643e791f" target="_top" xlink:title="Returns the X&#45;dimension of this Vector4f. ">
<polygon fill="white" stroke="black" points="188,-450.5 188,-476.5 340,-476.5 340,-450.5 188,-450.5"/>
<text text-anchor="start" x="196" y="-466.1" font-family="Helvetica,sans-Serif" font-size="8.00">project.android.sensor.representation.</text>
<text text-anchor="middle" x="264" y="-457.1" font-family="Helvetica,sans-Serif" font-size="8.00">Vector4f.getX</text>
</a>
</g>
</g>
<!-- Node1&#45;&gt;Node2 -->
<g id="edge1" class="edge"><title>Node1&#45;&gt;Node2</title>
<path fill="none" stroke="midnightblue" d="M80.3801,-251.708C90.3189,-287.84 122.923,-389.104 188,-441.5 189.76,-442.917 191.609,-444.244 193.528,-445.484"/>
<polygon fill="midnightblue" stroke="midnightblue" points="191.887,-448.577 202.325,-450.395 195.299,-442.465 191.887,-448.577"/>
</g>
<!-- Node3 -->
<g id="node3" class="node"><title>Node3</title>
<g id="a_node3"><a xlink:href="a00027.html#ae3ecced2eebe634a5d3842d7c9f6659c" target="_top" xlink:title="Returns the Y&#45;dimension of this Vector4f. ">
<polygon fill="white" stroke="black" points="188,-405.5 188,-431.5 340,-431.5 340,-405.5 188,-405.5"/>
<text text-anchor="start" x="196" y="-421.1" font-family="Helvetica,sans-Serif" font-size="8.00">project.android.sensor.representation.</text>
<text text-anchor="middle" x="264" y="-412.1" font-family="Helvetica,sans-Serif" font-size="8.00">Vector4f.getY</text>
</a>
</g>
</g>
<!-- Node1&#45;&gt;Node3 -->
<g id="edge2" class="edge"><title>Node1&#45;&gt;Node3</title>
<path fill="none" stroke="midnightblue" d="M82.5852,-251.81C96.0388,-282.231 133.232,-357.248 188,-396.5 190.123,-398.022 192.351,-399.439 194.656,-400.759"/>
<polygon fill="midnightblue" stroke="midnightblue" points="193.362,-404.025 203.869,-405.382 196.501,-397.769 193.362,-404.025"/>
</g>
<!-- Node4 -->
<g id="node4" class="node"><title>Node4</title>
<g id="a_node4"><a xlink:href="a00027.html#a6dc64afde1e04300a5175f67865c45ac" target="_top" xlink:title="Returns the Z&#45;dimension of this Vector4f. ">
<polygon fill="white" stroke="black" points="188,-360.5 188,-386.5 340,-386.5 340,-360.5 188,-360.5"/>
<text text-anchor="start" x="196" y="-376.1" font-family="Helvetica,sans-Serif" font-size="8.00">project.android.sensor.representation.</text>
<text text-anchor="middle" x="264" y="-367.1" font-family="Helvetica,sans-Serif" font-size="8.00">Vector4f.getZ</text>
</a>
</g>
</g>
<!-- Node1&#45;&gt;Node4 -->
<g id="edge3" class="edge"><title>Node1&#45;&gt;Node4</title>
<path fill="none" stroke="midnightblue" d="M86.3923,-251.805C103.747,-275.407 143.181,-324.644 188,-351.5 191.001,-353.298 194.158,-354.957 197.409,-356.487"/>
<polygon fill="midnightblue" stroke="midnightblue" points="196.199,-359.775 206.771,-360.464 198.936,-353.333 196.199,-359.775"/>
</g>
<!-- Node5 -->
<g id="node5" class="node"><title>Node5</title>
<g id="a_node5"><a xlink:href="a00027.html#ac1059d3ba0cf2ae04a9fb47c8f1edb3c" target="_top" xlink:title="Returns the W&#45;dimension of this Vector4f. ">
<polygon fill="white" stroke="black" points="188,-315.5 188,-341.5 340,-341.5 340,-315.5 188,-315.5"/>
<text text-anchor="start" x="196" y="-331.1" font-family="Helvetica,sans-Serif" font-size="8.00">project.android.sensor.representation.</text>
<text text-anchor="middle" x="264" y="-322.1" font-family="Helvetica,sans-Serif" font-size="8.00">Vector4f.getW</text>
</a>
</g>
</g>
<!-- Node1&#45;&gt;Node5 -->
<g id="edge4" class="edge"><title>Node1&#45;&gt;Node5</title>
<path fill="none" stroke="midnightblue" d="M95.0282,-251.624C116.336,-266.631 153.294,-291.106 188,-306.5 192.611,-308.545 197.464,-310.46 202.392,-312.24"/>
<polygon fill="midnightblue" stroke="midnightblue" points="201.322,-315.573 211.916,-315.494 203.585,-308.949 201.322,-315.573"/>
</g>
<!-- Node6 -->
<g id="node6" class="node"><title>Node6</title>
<g id="a_node6"><a xlink:href="a00017.html#a89f079109958634b6e3df5edab414bb7" target="_top" xlink:title="Gets the matrix. ">
<polygon fill="white" stroke="black" points="188,-270.5 188,-296.5 340,-296.5 340,-270.5 188,-270.5"/>
<text text-anchor="start" x="196" y="-286.1" font-family="Helvetica,sans-Serif" font-size="8.00">project.android.sensor.representation.</text>
<text text-anchor="middle" x="264" y="-277.1" font-family="Helvetica,sans-Serif" font-size="8.00">MatrixF4x4.getMatrix</text>
</a>
</g>
</g>
<!-- Node1&#45;&gt;Node6 -->
<g id="edge5" class="edge"><title>Node1&#45;&gt;Node6</title>
<path fill="none" stroke="midnightblue" d="M130.799,-251.516C152.105,-256.671 176.772,-262.638 198.987,-268.013"/>
<polygon fill="midnightblue" stroke="midnightblue" points="198.457,-271.486 209,-270.436 200.104,-264.682 198.457,-271.486"/>
</g>
<!-- Node7 -->
<g id="node7" class="node"><title>Node7</title>
<g id="a_node7"><a xlink:href="a00017.html#ad9cd9ed72c90b2181bb6468d97258954" target="_top" xlink:title="Gets size of the Matrix. ">
<polygon fill="white" stroke="black" points="188,-225.5 188,-251.5 340,-251.5 340,-225.5 188,-225.5"/>
<text text-anchor="start" x="196" y="-241.1" font-family="Helvetica,sans-Serif" font-size="8.00">project.android.sensor.representation.</text>
<text text-anchor="middle" x="264" y="-232.1" font-family="Helvetica,sans-Serif" font-size="8.00">MatrixF4x4.size</text>
</a>
</g>
</g>
<!-- Node1&#45;&gt;Node7 -->
<g id="edge6" class="edge"><title>Node1&#45;&gt;Node7</title>
<path fill="none" stroke="midnightblue" d="M152.117,-238.5C160.596,-238.5 169.281,-238.5 177.875,-238.5"/>
<polygon fill="midnightblue" stroke="midnightblue" points="177.905,-242 187.905,-238.5 177.905,-235 177.905,-242"/>
</g>
<!-- Node8 -->
<g id="node8" class="node"><title>Node8</title>
<g id="a_node8"><a xlink:href="a00017.html#a52c88ec2c863fd42c440bf008f27e829" target="_top" xlink:title="Find out if the stored matrix is column major. ">
<polygon fill="white" stroke="black" points="188,-180.5 188,-206.5 340,-206.5 340,-180.5 188,-180.5"/>
<text text-anchor="start" x="196" y="-196.1" font-family="Helvetica,sans-Serif" font-size="8.00">project.android.sensor.representation.</text>
<text text-anchor="middle" x="264" y="-187.1" font-family="Helvetica,sans-Serif" font-size="8.00">MatrixF4x4.isColumnMajor</text>
</a>
</g>
</g>
<!-- Node1&#45;&gt;Node8 -->
<g id="edge7" class="edge"><title>Node1&#45;&gt;Node8</title>
<path fill="none" stroke="midnightblue" d="M130.799,-225.484C152.105,-220.329 176.772,-214.362 198.987,-208.987"/>
<polygon fill="midnightblue" stroke="midnightblue" points="200.104,-212.318 209,-206.564 198.457,-205.514 200.104,-212.318"/>
</g>
<!-- Node9 -->
<g id="node9" class="node"><title>Node9</title>
<g id="a_node9"><a xlink:href="a00027.html#a887ec4cfb002f50f8eec8f73501110f3" target="_top" xlink:title="Sets the X&#45;dimension of this Vector4f. ">
<polygon fill="white" stroke="black" points="188,-135.5 188,-161.5 340,-161.5 340,-135.5 188,-135.5"/>
<text text-anchor="start" x="196" y="-151.1" font-family="Helvetica,sans-Serif" font-size="8.00">project.android.sensor.representation.</text>
<text text-anchor="middle" x="264" y="-142.1" font-family="Helvetica,sans-Serif" font-size="8.00">Vector4f.setX</text>
</a>
</g>
</g>
<!-- Node1&#45;&gt;Node9 -->
<g id="edge8" class="edge"><title>Node1&#45;&gt;Node9</title>
<path fill="none" stroke="midnightblue" d="M95.4759,-225.398C116.902,-210.677 153.681,-186.839 188,-171.5 193.337,-169.115 198.992,-166.883 204.71,-164.82"/>
<polygon fill="midnightblue" stroke="midnightblue" points="206.024,-168.069 214.345,-161.51 203.75,-161.449 206.024,-168.069"/>
</g>
<!-- Node10 -->
<g id="node10" class="node"><title>Node10</title>
<g id="a_node10"><a xlink:href="a00027.html#a85c790b5bbb7c702cb0e49585b261082" target="_top" xlink:title="Sets the Y&#45;dimension of this Vector4f. ">
<polygon fill="white" stroke="black" points="188,-90.5 188,-116.5 340,-116.5 340,-90.5 188,-90.5"/>
<text text-anchor="start" x="196" y="-106.1" font-family="Helvetica,sans-Serif" font-size="8.00">project.android.sensor.representation.</text>
<text text-anchor="middle" x="264" y="-97.1" font-family="Helvetica,sans-Serif" font-size="8.00">Vector4f.setY</text>
</a>
</g>
</g>
<!-- Node1&#45;&gt;Node10 -->
<g id="edge9" class="edge"><title>Node1&#45;&gt;Node10</title>
<path fill="none" stroke="midnightblue" d="M86.4533,-225.371C103.904,-202.069 143.486,-153.408 188,-126.5 191.606,-124.32 195.436,-122.331 199.382,-120.519"/>
<polygon fill="midnightblue" stroke="midnightblue" points="200.875,-123.689 208.753,-116.605 198.177,-117.23 200.875,-123.689"/>
</g>
<!-- Node11 -->
<g id="node11" class="node"><title>Node11</title>
<g id="a_node11"><a xlink:href="a00027.html#a8bd26391867c8d1d4b105a63764d394f" target="_top" xlink:title="Sets the Z&#45;dimension of this Vector4f. ">
<polygon fill="white" stroke="black" points="188,-45.5 188,-71.5 340,-71.5 340,-45.5 188,-45.5"/>
<text text-anchor="start" x="196" y="-61.1" font-family="Helvetica,sans-Serif" font-size="8.00">project.android.sensor.representation.</text>
<text text-anchor="middle" x="264" y="-52.1" font-family="Helvetica,sans-Serif" font-size="8.00">Vector4f.setZ</text>
</a>
</g>
</g>
<!-- Node1&#45;&gt;Node11 -->
<g id="edge10" class="edge"><title>Node1&#45;&gt;Node11</title>
<path fill="none" stroke="midnightblue" d="M82.6424,-225.321C96.2162,-195.189 133.645,-120.838 188,-81.5 190.703,-79.5437 193.576,-77.7512 196.561,-76.109"/>
<polygon fill="midnightblue" stroke="midnightblue" points="198.332,-79.1398 205.795,-71.6202 195.271,-72.8442 198.332,-79.1398"/>
</g>
<!-- Node12 -->
<g id="node12" class="node"><title>Node12</title>
<g id="a_node12"><a xlink:href="a00027.html#af52ccfec44e8d3fa81707b1fd816b153" target="_top" xlink:title="Sets the W&#45;dimension of this Vector4f. ">
<polygon fill="white" stroke="black" points="188,-0.5 188,-26.5 340,-26.5 340,-0.5 188,-0.5"/>
<text text-anchor="start" x="196" y="-16.1" font-family="Helvetica,sans-Serif" font-size="8.00">project.android.sensor.representation.</text>
<text text-anchor="middle" x="264" y="-7.1" font-family="Helvetica,sans-Serif" font-size="8.00">Vector4f.setW</text>
</a>
</g>
</g>
<!-- Node1&#45;&gt;Node12 -->
<g id="edge11" class="edge"><title>Node1&#45;&gt;Node12</title>
<path fill="none" stroke="midnightblue" d="M80.4341,-225.398C90.511,-189.549 123.436,-89.0262 188,-36.5 190.278,-34.6467 192.704,-32.9425 195.238,-31.3753"/>
<polygon fill="midnightblue" stroke="midnightblue" points="197.052,-34.3736 204.205,-26.5576 193.739,-28.2072 197.052,-34.3736"/>
</g>
</g>
</svg>
