<?xml version="1.0" encoding="UTF-8" standalone="no"?>
<!DOCTYPE svg PUBLIC "-//W3C//DTD SVG 1.1//EN"
 "http://www.w3.org/Graphics/SVG/1.1/DTD/svg11.dtd">
<!-- Generated by graphviz version 2.38.0 (20140413.2041)
 -->
<!-- Title: project.android.MainActivity.onNavigationItemSelected Pages: 1 -->
<svg width="307pt" height="35pt"
 viewBox="0.00 0.00 307.00 35.00" xmlns="http://www.w3.org/2000/svg" xmlns:xlink="http://www.w3.org/1999/xlink">
<g id="graph0" class="graph" transform="scale(1 1) rotate(0) translate(4 31)">
<title>project.android.MainActivity.onNavigationItemSelected</title>
<polygon fill="white" stroke="none" points="-4,4 -4,-31 303,-31 303,4 -4,4"/>
<!-- Node1 -->
<g id="node1" class="node"><title>Node1</title>
<polygon fill="#bfbfbf" stroke="black" points="0,-0.5 0,-26.5 125,-26.5 125,-0.5 0,-0.5"/>
<text text-anchor="start" x="8" y="-16.1" font-family="Helvetica,sans-Serif" font-size="8.00">project.android.MainActivity.on</text>
<text text-anchor="middle" x="62.5" y="-7.1" font-family="Helvetica,sans-Serif" font-size="8.00">NavigationItemSelected</text>
</g>
<!-- Node2 -->
<g id="node2" class="node"><title>Node2</title>
<g id="a_node2"><a xlink:href="a00020.html#a80dc4ea773a3e8267fc5f78bf64b71c3" target="_top" xlink:title="Checks if Gyroscope is available. ">
<polygon fill="white" stroke="black" points="161,-0.5 161,-26.5 299,-26.5 299,-0.5 161,-0.5"/>
<text text-anchor="start" x="169" y="-16.1" font-family="Helvetica,sans-Serif" font-size="8.00">project.android.sensor.orientation.</text>
<text text-anchor="middle" x="230" y="-7.1" font-family="Helvetica,sans-Serif" font-size="8.00">OrientationProvider.checkGyro</text>
</a>
</g>
</g>
<!-- Node1&#45;&gt;Node2 -->
<g id="edge1" class="edge"><title>Node1&#45;&gt;Node2</title>
<path fill="none" stroke="midnightblue" d="M125.126,-13.5C133.515,-13.5 142.214,-13.5 150.847,-13.5"/>
<polygon fill="midnightblue" stroke="midnightblue" points="150.927,-17.0001 160.927,-13.5 150.927,-10.0001 150.927,-17.0001"/>
</g>
</g>
</svg>
