<?xml version="1.0" encoding="UTF-8" standalone="no"?>
<!DOCTYPE svg PUBLIC "-//W3C//DTD SVG 1.1//EN"
 "http://www.w3.org/Graphics/SVG/1.1/DTD/svg11.dtd">
<!-- Generated by graphviz version 2.38.0 (20140413.2041)
 -->
<!-- Title: project.android.net.ServerInfo.getServerInfo Pages: 1 -->
<svg width="769pt" height="80pt"
 viewBox="0.00 0.00 769.00 80.00" xmlns="http://www.w3.org/2000/svg" xmlns:xlink="http://www.w3.org/1999/xlink">
<g id="graph0" class="graph" transform="scale(1 1) rotate(0) translate(4 76)">
<title>project.android.net.ServerInfo.getServerInfo</title>
<polygon fill="white" stroke="none" points="-4,4 -4,-76 765,-76 765,4 -4,4"/>
<!-- Node1 -->
<g id="node1" class="node"><title>Node1</title>
<polygon fill="#bfbfbf" stroke="black" points="0,-25.5 0,-51.5 110,-51.5 110,-25.5 0,-25.5"/>
<text text-anchor="start" x="8" y="-41.1" font-family="Helvetica,sans-Serif" font-size="8.00">project.android.net.Server</text>
<text text-anchor="middle" x="55" y="-32.1" font-family="Helvetica,sans-Serif" font-size="8.00">Info.getServerInfo</text>
</g>
<!-- Node2 -->
<g id="node2" class="node"><title>Node2</title>
<g id="a_node2"><a xlink:href="a00006.html#af0e6f7c8aa02553792fd18fbb5e98a2e" target="_top" xlink:title="Sets an icon for an active server. ">
<polygon fill="white" stroke="black" points="496,-45.5 496,-71.5 609,-71.5 609,-45.5 496,-45.5"/>
<text text-anchor="start" x="504" y="-61.1" font-family="Helvetica,sans-Serif" font-size="8.00">project.android.Connection</text>
<text text-anchor="middle" x="552.5" y="-52.1" font-family="Helvetica,sans-Serif" font-size="8.00">Fragment.setIcon</text>
</a>
</g>
</g>
<!-- Node1&#45;&gt;Node2 -->
<g id="edge1" class="edge"><title>Node1&#45;&gt;Node2</title>
<path fill="none" stroke="midnightblue" d="M120.518,-41.1042C218.544,-45.0608 403.345,-52.52 495.829,-56.2529"/>
<polygon fill="midnightblue" stroke="midnightblue" points="120.578,-37.6038 110.445,-40.6976 120.295,-44.5981 120.578,-37.6038"/>
</g>
<!-- Node4 -->
<g id="node4" class="node"><title>Node4</title>
<g id="a_node4"><a xlink:href="a00008.html#a6b2523e50305753cb8c2893dc659a1ae" target="_top" xlink:title="Overrides ArrayAdapter.getView(int, View, ViewGroup) method. ">
<polygon fill="white" stroke="black" points="146,-11 146,-28 305,-28 305,-11 146,-11"/>
<text text-anchor="middle" x="225.5" y="-17.6" font-family="Helvetica,sans-Serif" font-size="8.00">project.android.CustomAdapter.getView</text>
</a>
</g>
</g>
<!-- Node1&#45;&gt;Node4 -->
<g id="edge3" class="edge"><title>Node1&#45;&gt;Node4</title>
<path fill="none" stroke="midnightblue" d="M120.24,-31.2564C129.602,-30.2007 139.313,-29.1056 148.875,-28.0274"/>
<polygon fill="midnightblue" stroke="midnightblue" points="119.787,-27.7852 110.242,-32.3837 120.571,-34.7411 119.787,-27.7852"/>
</g>
<!-- Node3 -->
<g id="node3" class="node"><title>Node3</title>
<g id="a_node3"><a xlink:href="a00019.html#a6b623423ab726a2d5008717960032b6d" target="_top" xlink:title="Overrides the android.app.Service.onStartCommand(Intent, int, int). ">
<polygon fill="white" stroke="black" points="645,-45.5 645,-71.5 761,-71.5 761,-45.5 645,-45.5"/>
<text text-anchor="start" x="653" y="-61.1" font-family="Helvetica,sans-Serif" font-size="8.00">project.android.net.Network</text>
<text text-anchor="middle" x="703" y="-52.1" font-family="Helvetica,sans-Serif" font-size="8.00">Service.onStartCommand</text>
</a>
</g>
</g>
<!-- Node2&#45;&gt;Node3 -->
<g id="edge2" class="edge"><title>Node2&#45;&gt;Node3</title>
<path fill="none" stroke="midnightblue" d="M619.486,-58.5C627.989,-58.5 636.638,-58.5 644.979,-58.5"/>
<polygon fill="midnightblue" stroke="midnightblue" points="619.218,-55.0001 609.218,-58.5 619.218,-62.0001 619.218,-55.0001"/>
</g>
<!-- Node5 -->
<g id="node5" class="node"><title>Node5</title>
<g id="a_node5"><a xlink:href="a00006.html#a863b30e1ce16c16e6dba6bebe8d8c45e" target="_top" xlink:title="Returns the View of the clicked list item. ">
<polygon fill="white" stroke="black" points="341,-3.5 341,-29.5 460,-29.5 460,-3.5 341,-3.5"/>
<text text-anchor="start" x="349" y="-19.1" font-family="Helvetica,sans-Serif" font-size="8.00">project.android.Connection</text>
<text text-anchor="middle" x="400.5" y="-10.1" font-family="Helvetica,sans-Serif" font-size="8.00">Fragment.getViewByPosition</text>
</a>
</g>
</g>
<!-- Node4&#45;&gt;Node5 -->
<g id="edge4" class="edge"><title>Node4&#45;&gt;Node5</title>
<path fill="none" stroke="midnightblue" d="M315.348,-17.9593C324.038,-17.8086 332.697,-17.6584 340.972,-17.5149"/>
<polygon fill="midnightblue" stroke="midnightblue" points="315.091,-14.4631 305.154,-18.1361 315.213,-21.4621 315.091,-14.4631"/>
</g>
<!-- Node5&#45;&gt;Node2 -->
<g id="edge6" class="edge"><title>Node5&#45;&gt;Node2</title>
<path fill="none" stroke="midnightblue" d="M458.094,-32.3462C473.531,-36.6687 490.077,-41.3016 504.89,-45.4492"/>
<polygon fill="midnightblue" stroke="midnightblue" points="458.712,-28.8848 448.139,-29.5588 456.825,-35.6256 458.712,-28.8848"/>
</g>
<!-- Node6 -->
<g id="node6" class="node"><title>Node6</title>
<g id="a_node6"><a xlink:href="a00006.html#a5ae4f9d7872792288afb3de65ab4c2b0" target="_top" xlink:title="Sets an icon for an inactive server. ">
<polygon fill="white" stroke="red" points="496,-0.5 496,-26.5 609,-26.5 609,-0.5 496,-0.5"/>
<text text-anchor="start" x="504" y="-16.1" font-family="Helvetica,sans-Serif" font-size="8.00">project.android.Connection</text>
<text text-anchor="middle" x="552.5" y="-7.1" font-family="Helvetica,sans-Serif" font-size="8.00">Fragment.resetIcon</text>
</a>
</g>
</g>
<!-- Node5&#45;&gt;Node6 -->
<g id="edge5" class="edge"><title>Node5&#45;&gt;Node6</title>
<path fill="none" stroke="midnightblue" d="M470.568,-15.1186C479.008,-14.9498 487.547,-14.7791 495.757,-14.6149"/>
<polygon fill="midnightblue" stroke="midnightblue" points="470.281,-11.6236 460.353,-15.3229 470.421,-18.6222 470.281,-11.6236"/>
</g>
</g>
</svg>
