<?xml version="1.0" encoding="UTF-8" standalone="no"?>
<!DOCTYPE svg PUBLIC "-//W3C//DTD SVG 1.1//EN"
 "http://www.w3.org/Graphics/SVG/1.1/DTD/svg11.dtd">
<!-- Generated by graphviz version 2.38.0 (20140413.2041)
 -->
<!-- Title: project.android.security.KeyStoreManager.setMasterKey Pages: 1 -->
<svg width="287pt" height="35pt"
 viewBox="0.00 0.00 287.00 35.00" xmlns="http://www.w3.org/2000/svg" xmlns:xlink="http://www.w3.org/1999/xlink">
<g id="graph0" class="graph" transform="scale(1 1) rotate(0) translate(4 31)">
<title>project.android.security.KeyStoreManager.setMasterKey</title>
<polygon fill="white" stroke="none" points="-4,4 -4,-31 283,-31 283,4 -4,4"/>
<!-- Node1 -->
<g id="node1" class="node"><title>Node1</title>
<polygon fill="#bfbfbf" stroke="black" points="0,-0.5 0,-26.5 133,-26.5 133,-0.5 0,-0.5"/>
<text text-anchor="start" x="8" y="-16.1" font-family="Helvetica,sans-Serif" font-size="8.00">project.android.security.</text>
<text text-anchor="middle" x="66.5" y="-7.1" font-family="Helvetica,sans-Serif" font-size="8.00">KeyStoreManager.setMasterKey</text>
</g>
<!-- Node2 -->
<g id="node2" class="node"><title>Node2</title>
<g id="a_node2"><a xlink:href="a00010.html#a7d7b75da1704e880cb65d4e2bdb27890" target="_top" xlink:title="Constructor. ">
<polygon fill="white" stroke="black" points="169,-0.5 169,-26.5 279,-26.5 279,-0.5 169,-0.5"/>
<text text-anchor="start" x="177" y="-16.1" font-family="Helvetica,sans-Serif" font-size="8.00">project.android.security.</text>
<text text-anchor="middle" x="224" y="-7.1" font-family="Helvetica,sans-Serif" font-size="8.00">EKEProvider.EKEProvider</text>
</a>
</g>
</g>
<!-- Node1&#45;&gt;Node2 -->
<g id="edge1" class="edge"><title>Node1&#45;&gt;Node2</title>
<path fill="none" stroke="midnightblue" d="M143.705,-13.5C152.147,-13.5 160.613,-13.5 168.706,-13.5"/>
<polygon fill="midnightblue" stroke="midnightblue" points="143.446,-10.0001 133.446,-13.5 143.446,-17.0001 143.446,-10.0001"/>
</g>
</g>
</svg>
