<?xml version="1.0" encoding="UTF-8" standalone="no"?>
<!DOCTYPE svg PUBLIC "-//W3C//DTD SVG 1.1//EN"
 "http://www.w3.org/Graphics/SVG/1.1/DTD/svg11.dtd">
<!-- Generated by graphviz version 2.38.0 (20140413.2041)
 -->
<!-- Title: project.android.sensor.orientation.KalmanFilterProvider.KalmanFilterProvider Pages: 1 -->
<svg width="351pt" height="35pt"
 viewBox="0.00 0.00 351.00 35.00" xmlns="http://www.w3.org/2000/svg" xmlns:xlink="http://www.w3.org/1999/xlink">
<g id="graph0" class="graph" transform="scale(1 1) rotate(0) translate(4 31)">
<title>project.android.sensor.orientation.KalmanFilterProvider.KalmanFilterProvider</title>
<polygon fill="white" stroke="none" points="-4,4 -4,-31 347,-31 347,4 -4,4"/>
<!-- Node1 -->
<g id="node1" class="node"><title>Node1</title>
<polygon fill="#bfbfbf" stroke="black" points="0,-0.5 0,-26.5 169,-26.5 169,-0.5 0,-0.5"/>
<text text-anchor="start" x="8" y="-16.1" font-family="Helvetica,sans-Serif" font-size="8.00">project.android.sensor.orientation.</text>
<text text-anchor="middle" x="84.5" y="-7.1" font-family="Helvetica,sans-Serif" font-size="8.00">KalmanFilterProvider.KalmanFilterProvider</text>
</g>
<!-- Node2 -->
<g id="node2" class="node"><title>Node2</title>
<g id="a_node2"><a xlink:href="a00020.html#a5c3bca50d0947f7d51da0155f9f8b324" target="_top" xlink:title="Starts the sensor fusion (e.g. ">
<polygon fill="white" stroke="black" points="205,-0.5 205,-26.5 343,-26.5 343,-0.5 205,-0.5"/>
<text text-anchor="start" x="213" y="-16.1" font-family="Helvetica,sans-Serif" font-size="8.00">project.android.sensor.orientation.</text>
<text text-anchor="middle" x="274" y="-7.1" font-family="Helvetica,sans-Serif" font-size="8.00">OrientationProvider.sensorStart</text>
</a>
</g>
</g>
<!-- Node1&#45;&gt;Node2 -->
<g id="edge1" class="edge"><title>Node1&#45;&gt;Node2</title>
<path fill="none" stroke="midnightblue" d="M169.105,-13.5C177.575,-13.5 186.157,-13.5 194.57,-13.5"/>
<polygon fill="midnightblue" stroke="midnightblue" points="194.729,-17.0001 204.729,-13.5 194.729,-10.0001 194.729,-17.0001"/>
</g>
</g>
</svg>
