<?xml version="1.0" encoding="UTF-8" standalone="no"?>
<!DOCTYPE svg PUBLIC "-//W3C//DTD SVG 1.1//EN"
 "http://www.w3.org/Graphics/SVG/1.1/DTD/svg11.dtd">
<!-- Generated by graphviz version 2.38.0 (20140413.2041)
 -->
<!-- Title: project.android.sensor.representation.Vector3f.getZ Pages: 1 -->
<svg width="733pt" height="260pt"
 viewBox="0.00 0.00 733.00 260.00" xmlns="http://www.w3.org/2000/svg" xmlns:xlink="http://www.w3.org/1999/xlink">
<g id="graph0" class="graph" transform="scale(1 1) rotate(0) translate(4 256)">
<title>project.android.sensor.representation.Vector3f.getZ</title>
<polygon fill="white" stroke="none" points="-4,4 -4,-256 729,-256 729,4 -4,4"/>
<!-- Node1 -->
<g id="node1" class="node"><title>Node1</title>
<polygon fill="#bfbfbf" stroke="black" points="0,-112.5 0,-138.5 152,-138.5 152,-112.5 0,-112.5"/>
<text text-anchor="start" x="8" y="-128.1" font-family="Helvetica,sans-Serif" font-size="8.00">project.android.sensor.representation.</text>
<text text-anchor="middle" x="76" y="-119.1" font-family="Helvetica,sans-Serif" font-size="8.00">Vector3f.getZ</text>
</g>
<!-- Node2 -->
<g id="node2" class="node"><title>Node2</title>
<g id="a_node2"><a xlink:href="a00021.html#adb18ffea80dcb69a5b2d73772f2cb319" target="_top" xlink:title="Rotation is in degrees. ">
<polygon fill="white" stroke="black" points="188,-225.5 188,-251.5 340,-251.5 340,-225.5 188,-225.5"/>
<text text-anchor="start" x="196" y="-241.1" font-family="Helvetica,sans-Serif" font-size="8.00">project.android.sensor.representation.</text>
<text text-anchor="middle" x="264" y="-232.1" font-family="Helvetica,sans-Serif" font-size="8.00">Quaternion.setAxisAngle</text>
</a>
</g>
</g>
<!-- Node1&#45;&gt;Node2 -->
<g id="edge1" class="edge"><title>Node1&#45;&gt;Node2</title>
<path fill="none" stroke="midnightblue" d="M96.7083,-145.906C117.603,-166.45 152.442,-197.715 188,-216.5 194.479,-219.923 201.562,-222.88 208.705,-225.417"/>
<polygon fill="midnightblue" stroke="midnightblue" points="98.9555,-143.203 89.4104,-138.605 94.0048,-148.152 98.9555,-143.203"/>
</g>
<!-- Node3 -->
<g id="node3" class="node"><title>Node3</title>
<g id="a_node3"><a xlink:href="a00021.html#afda7426f75d5e8d863831f28625d88c3" target="_top" xlink:title="Same as setAxisAngle Takes the angles in Radian. ">
<polygon fill="white" stroke="black" points="188,-180.5 188,-206.5 340,-206.5 340,-180.5 188,-180.5"/>
<text text-anchor="start" x="196" y="-196.1" font-family="Helvetica,sans-Serif" font-size="8.00">project.android.sensor.representation.</text>
<text text-anchor="middle" x="264" y="-187.1" font-family="Helvetica,sans-Serif" font-size="8.00">Quaternion.setAxisAngleRad</text>
</a>
</g>
</g>
<!-- Node1&#45;&gt;Node3 -->
<g id="edge2" class="edge"><title>Node1&#45;&gt;Node3</title>
<path fill="none" stroke="midnightblue" d="M115.64,-142.713C136.798,-151.833 163.605,-162.895 188,-171.5 196.83,-174.614 206.348,-177.648 215.543,-180.419"/>
<polygon fill="midnightblue" stroke="midnightblue" points="116.912,-139.45 106.346,-138.676 114.123,-145.87 116.912,-139.45"/>
</g>
<!-- Node4 -->
<g id="node4" class="node"><title>Node4</title>
<g id="a_node4"><a xlink:href="a00021.html#ac34b57f25622b82f725ddefd4d61c32d" target="_top" xlink:title="Rotate a 3&#45;D vector by this Quaternion. ">
<polygon fill="white" stroke="black" points="188,-135.5 188,-161.5 340,-161.5 340,-135.5 188,-135.5"/>
<text text-anchor="start" x="196" y="-151.1" font-family="Helvetica,sans-Serif" font-size="8.00">project.android.sensor.representation.</text>
<text text-anchor="middle" x="264" y="-142.1" font-family="Helvetica,sans-Serif" font-size="8.00">Quaternion.rotateVector</text>
</a>
</g>
</g>
<!-- Node1&#45;&gt;Node4 -->
<g id="edge3" class="edge"><title>Node1&#45;&gt;Node4</title>
<path fill="none" stroke="midnightblue" d="M162.147,-136.029C170.742,-137.092 179.426,-138.166 187.905,-139.214"/>
<polygon fill="midnightblue" stroke="midnightblue" points="162.471,-132.542 152.117,-134.789 161.612,-139.49 162.471,-132.542"/>
</g>
<!-- Node5 -->
<g id="node5" class="node"><title>Node5</title>
<g id="a_node5"><a xlink:href="a00027.html#a52de53b7a9f3dc583d81a7508e2395c7" target="_top" xlink:title="Constructor. ">
<polygon fill="white" stroke="black" points="188,-90.5 188,-116.5 340,-116.5 340,-90.5 188,-90.5"/>
<text text-anchor="start" x="196" y="-106.1" font-family="Helvetica,sans-Serif" font-size="8.00">project.android.sensor.representation.</text>
<text text-anchor="middle" x="264" y="-97.1" font-family="Helvetica,sans-Serif" font-size="8.00">Vector4f.Vector4f</text>
</a>
</g>
</g>
<!-- Node1&#45;&gt;Node5 -->
<g id="edge4" class="edge"><title>Node1&#45;&gt;Node5</title>
<path fill="none" stroke="midnightblue" d="M162.147,-115.429C170.742,-114.412 179.426,-113.385 187.905,-112.382"/>
<polygon fill="midnightblue" stroke="midnightblue" points="161.637,-111.965 152.117,-116.615 162.459,-118.916 161.637,-111.965"/>
</g>
<!-- Node6 -->
<g id="node6" class="node"><title>Node6</title>
<g id="a_node6"><a xlink:href="a00027.html#ad64f74d289c05e667cd27cf017ab8b95" target="_top" xlink:title="Copies another Vector4f to this one. ">
<polygon fill="white" stroke="black" points="188,-45.5 188,-71.5 340,-71.5 340,-45.5 188,-45.5"/>
<text text-anchor="start" x="196" y="-61.1" font-family="Helvetica,sans-Serif" font-size="8.00">project.android.sensor.representation.</text>
<text text-anchor="middle" x="264" y="-52.1" font-family="Helvetica,sans-Serif" font-size="8.00">Vector4f.copyVec4</text>
</a>
</g>
</g>
<!-- Node1&#45;&gt;Node6 -->
<g id="edge5" class="edge"><title>Node1&#45;&gt;Node6</title>
<path fill="none" stroke="midnightblue" d="M117.825,-108.413C138.673,-99.9186 164.528,-89.7363 188,-81.5 197.767,-78.0728 208.345,-74.6534 218.391,-71.5392"/>
<polygon fill="midnightblue" stroke="midnightblue" points="116.251,-105.276 108.326,-112.307 118.906,-111.752 116.251,-105.276"/>
</g>
<!-- Node11 -->
<g id="node11" class="node"><title>Node11</title>
<g id="a_node11"><a xlink:href="a00027.html#a2b2b04e7c99078e9619ad815546abeef" target="_top" xlink:title="Copies a Vector3f to this Vector4f using a separate value for W&#45;dimension. ">
<polygon fill="white" stroke="black" points="188,-0.5 188,-26.5 340,-26.5 340,-0.5 188,-0.5"/>
<text text-anchor="start" x="196" y="-16.1" font-family="Helvetica,sans-Serif" font-size="8.00">project.android.sensor.representation.</text>
<text text-anchor="middle" x="264" y="-7.1" font-family="Helvetica,sans-Serif" font-size="8.00">Vector4f.copyFromV3f</text>
</a>
</g>
</g>
<!-- Node1&#45;&gt;Node11 -->
<g id="edge10" class="edge"><title>Node1&#45;&gt;Node11</title>
<path fill="none" stroke="midnightblue" d="M97.0981,-104.994C118.065,-84.681 152.743,-54.0041 188,-35.5 194.488,-32.0948 201.576,-29.1473 208.723,-26.6159"/>
<polygon fill="midnightblue" stroke="midnightblue" points="94.4266,-102.713 89.761,-112.225 99.3402,-107.699 94.4266,-102.713"/>
</g>
<!-- Node7 -->
<g id="node7" class="node"><title>Node7</title>
<g id="a_node7"><a xlink:href="a00021.html#a63276a34f5007701782c0d5c1aeb467c" target="_top" xlink:title="Copies the values from the given quaternion to this one. ">
<polygon fill="white" stroke="black" points="376,-90.5 376,-116.5 528,-116.5 528,-90.5 376,-90.5"/>
<text text-anchor="start" x="384" y="-106.1" font-family="Helvetica,sans-Serif" font-size="8.00">project.android.sensor.representation.</text>
<text text-anchor="middle" x="452" y="-97.1" font-family="Helvetica,sans-Serif" font-size="8.00">Quaternion.set</text>
</a>
</g>
</g>
<!-- Node6&#45;&gt;Node7 -->
<g id="edge6" class="edge"><title>Node6&#45;&gt;Node7</title>
<path fill="none" stroke="midnightblue" d="M328.804,-73.9364C351.003,-79.3072 375.673,-85.2756 397,-90.4355"/>
<polygon fill="midnightblue" stroke="midnightblue" points="329.342,-70.4656 318.799,-71.5159 327.695,-77.2693 329.342,-70.4656"/>
</g>
<!-- Node10 -->
<g id="node10" class="node"><title>Node10</title>
<g id="a_node10"><a xlink:href="a00021.html#ad65bf4d90dd8d310b37e9318eae5546f" target="_top" xlink:title="Multiply this quaternion by the input quaternion. ">
<polygon fill="white" stroke="black" points="376,-45.5 376,-71.5 528,-71.5 528,-45.5 376,-45.5"/>
<text text-anchor="start" x="384" y="-61.1" font-family="Helvetica,sans-Serif" font-size="8.00">project.android.sensor.representation.</text>
<text text-anchor="middle" x="452" y="-52.1" font-family="Helvetica,sans-Serif" font-size="8.00">Quaternion.multiplyByQuat</text>
</a>
</g>
</g>
<!-- Node6&#45;&gt;Node10 -->
<g id="edge9" class="edge"><title>Node6&#45;&gt;Node10</title>
<path fill="none" stroke="midnightblue" d="M350.147,-58.5C358.742,-58.5 367.426,-58.5 375.905,-58.5"/>
<polygon fill="midnightblue" stroke="midnightblue" points="350.117,-55.0001 340.117,-58.5 350.117,-62.0001 350.117,-55.0001"/>
</g>
<!-- Node8 -->
<g id="node8" class="node"><title>Node8</title>
<g id="a_node8"><a xlink:href="a00011.html#ab9a9911056de6fc82ef1859c2eb42bad" target="_top" xlink:title="project.android.sensor.orientation.\lKalmanFilterProvider.onSensorChanged">
<polygon fill="white" stroke="black" points="564,-112.5 564,-138.5 725,-138.5 725,-112.5 564,-112.5"/>
<text text-anchor="start" x="572" y="-128.1" font-family="Helvetica,sans-Serif" font-size="8.00">project.android.sensor.orientation.</text>
<text text-anchor="middle" x="644.5" y="-119.1" font-family="Helvetica,sans-Serif" font-size="8.00">KalmanFilterProvider.onSensorChanged</text>
</a>
</g>
</g>
<!-- Node7&#45;&gt;Node8 -->
<g id="edge7" class="edge"><title>Node7&#45;&gt;Node8</title>
<path fill="none" stroke="midnightblue" d="M538.03,-113.32C546.617,-114.311 555.317,-115.316 563.845,-116.301"/>
<polygon fill="midnightblue" stroke="midnightblue" points="538.353,-109.834 528.017,-112.163 537.55,-116.788 538.353,-109.834"/>
</g>
<!-- Node9 -->
<g id="node9" class="node"><title>Node9</title>
<g id="a_node9"><a xlink:href="a00020.html#a467add7b43d10e83cd33ef234664f077" target="_top" xlink:title="Get the current rotation of the device in the quaternion format (vector4f) ">
<polygon fill="white" stroke="black" points="575,-67.5 575,-93.5 714,-93.5 714,-67.5 575,-67.5"/>
<text text-anchor="start" x="583" y="-83.1" font-family="Helvetica,sans-Serif" font-size="8.00">project.android.sensor.orientation.</text>
<text text-anchor="middle" x="644.5" y="-74.1" font-family="Helvetica,sans-Serif" font-size="8.00">OrientationProvider.getQuaternion</text>
</a>
</g>
</g>
<!-- Node7&#45;&gt;Node9 -->
<g id="edge8" class="edge"><title>Node7&#45;&gt;Node9</title>
<path fill="none" stroke="midnightblue" d="M538.218,-93.2112C550.446,-91.7349 562.897,-90.2316 574.752,-88.8002"/>
<polygon fill="midnightblue" stroke="midnightblue" points="537.526,-89.7693 528.017,-94.4428 538.365,-96.7188 537.526,-89.7693"/>
</g>
<!-- Node12 -->
<g id="node12" class="node"><title>Node12</title>
<g id="a_node12"><a xlink:href="a00021.html#a5b59ea322618fe2e156efae4e61f0a25" target="_top" xlink:title="project.android.sensor.representation.\lQuaternion.getMatrix4x4">
<polygon fill="white" stroke="black" points="376,-0.5 376,-26.5 528,-26.5 528,-0.5 376,-0.5"/>
<text text-anchor="start" x="384" y="-16.1" font-family="Helvetica,sans-Serif" font-size="8.00">project.android.sensor.representation.</text>
<text text-anchor="middle" x="452" y="-7.1" font-family="Helvetica,sans-Serif" font-size="8.00">Quaternion.getMatrix4x4</text>
</a>
</g>
</g>
<!-- Node11&#45;&gt;Node12 -->
<g id="edge11" class="edge"><title>Node11&#45;&gt;Node12</title>
<path fill="none" stroke="midnightblue" d="M350.147,-13.5C358.742,-13.5 367.426,-13.5 375.905,-13.5"/>
<polygon fill="midnightblue" stroke="midnightblue" points="350.117,-10.0001 340.117,-13.5 350.117,-17.0001 350.117,-10.0001"/>
</g>
</g>
</svg>
