<?xml version="1.0" encoding="UTF-8" standalone="no"?>
<!DOCTYPE svg PUBLIC "-//W3C//DTD SVG 1.1//EN"
 "http://www.w3.org/Graphics/SVG/1.1/DTD/svg11.dtd">
<!-- Generated by graphviz version 2.38.0 (20140413.2041)
 -->
<!-- Title: project.android.net.DataWrapper.getGsonString Pages: 1 -->
<svg width="600pt" height="35pt"
 viewBox="0.00 0.00 600.00 35.00" xmlns="http://www.w3.org/2000/svg" xmlns:xlink="http://www.w3.org/1999/xlink">
<g id="graph0" class="graph" transform="scale(1 1) rotate(0) translate(4 31)">
<title>project.android.net.DataWrapper.getGsonString</title>
<polygon fill="white" stroke="none" points="-4,4 -4,-31 596,-31 596,4 -4,4"/>
<!-- Node1 -->
<g id="node1" class="node"><title>Node1</title>
<polygon fill="#bfbfbf" stroke="black" points="0,-0.5 0,-26.5 103,-26.5 103,-0.5 0,-0.5"/>
<text text-anchor="start" x="8" y="-16.1" font-family="Helvetica,sans-Serif" font-size="8.00">project.android.net.Data</text>
<text text-anchor="middle" x="51.5" y="-7.1" font-family="Helvetica,sans-Serif" font-size="8.00">Wrapper.getGsonString</text>
</g>
<!-- Node2 -->
<g id="node2" class="node"><title>Node2</title>
<g id="a_node2"><a xlink:href="a00003.html#a3d6c629d64e1911979c9f483c8785b5f" target="_top" xlink:title="Send mouse button or keyboard data. ">
<polygon fill="white" stroke="black" points="139,-5 139,-22 282,-22 282,-5 139,-5"/>
<text text-anchor="middle" x="210.5" y="-11.6" font-family="Helvetica,sans-Serif" font-size="8.00">project.android.net.Client.sendData</text>
</a>
</g>
</g>
<!-- Node1&#45;&gt;Node2 -->
<g id="edge1" class="edge"><title>Node1&#45;&gt;Node2</title>
<path fill="none" stroke="midnightblue" d="M113.111,-13.5C121.507,-13.5 130.192,-13.5 138.752,-13.5"/>
<polygon fill="midnightblue" stroke="midnightblue" points="113.04,-10.0001 103.04,-13.5 113.04,-17.0001 113.04,-10.0001"/>
</g>
<!-- Node3 -->
<g id="node3" class="node"><title>Node3</title>
<g id="a_node3"><a xlink:href="a00003.html#aa23e2b087d09db0524a34b73cd5e07d3" target="_top" xlink:title="Send a stop signal if the user disconnects the server from the app. ">
<polygon fill="white" stroke="black" points="318,-0.5 318,-26.5 443,-26.5 443,-0.5 318,-0.5"/>
<text text-anchor="start" x="326" y="-16.1" font-family="Helvetica,sans-Serif" font-size="8.00">project.android.net.Client.send</text>
<text text-anchor="middle" x="380.5" y="-7.1" font-family="Helvetica,sans-Serif" font-size="8.00">StopSignal</text>
</a>
</g>
</g>
<!-- Node2&#45;&gt;Node3 -->
<g id="edge2" class="edge"><title>Node2&#45;&gt;Node3</title>
<path fill="none" stroke="midnightblue" d="M292.311,-13.5C300.909,-13.5 309.552,-13.5 317.878,-13.5"/>
<polygon fill="midnightblue" stroke="midnightblue" points="292.26,-10.0001 282.26,-13.5 292.26,-17.0001 292.26,-10.0001"/>
</g>
<!-- Node4 -->
<g id="node4" class="node"><title>Node4</title>
<g id="a_node4"><a xlink:href="a00006.html#aee2a392b8b0500023dba15b60d3315d2" target="_top" xlink:title="Returns a list of ServerInfo objects. ">
<polygon fill="white" stroke="red" points="479,-0.5 479,-26.5 592,-26.5 592,-0.5 479,-0.5"/>
<text text-anchor="start" x="487" y="-16.1" font-family="Helvetica,sans-Serif" font-size="8.00">project.android.Connection</text>
<text text-anchor="middle" x="535.5" y="-7.1" font-family="Helvetica,sans-Serif" font-size="8.00">Fragment.getNetworkList</text>
</a>
</g>
</g>
<!-- Node3&#45;&gt;Node4 -->
<g id="edge3" class="edge"><title>Node3&#45;&gt;Node4</title>
<path fill="none" stroke="midnightblue" d="M453.315,-13.5C461.909,-13.5 470.581,-13.5 478.897,-13.5"/>
<polygon fill="midnightblue" stroke="midnightblue" points="453.29,-10.0001 443.29,-13.5 453.29,-17.0001 453.29,-10.0001"/>
</g>
</g>
</svg>
