<?xml version="1.0" encoding="UTF-8" standalone="no"?>
<!DOCTYPE svg PUBLIC "-//W3C//DTD SVG 1.1//EN"
 "http://www.w3.org/Graphics/SVG/1.1/DTD/svg11.dtd">
<!-- Generated by graphviz version 2.38.0 (20140413.2041)
 -->
<!-- Title: project.android.sensor.representation.Vector4f.setX Pages: 1 -->
<svg width="357pt" height="350pt"
 viewBox="0.00 0.00 357.00 350.00" xmlns="http://www.w3.org/2000/svg" xmlns:xlink="http://www.w3.org/1999/xlink">
<g id="graph0" class="graph" transform="scale(1 1) rotate(0) translate(4 346)">
<title>project.android.sensor.representation.Vector4f.setX</title>
<polygon fill="white" stroke="none" points="-4,4 -4,-346 353,-346 353,4 -4,4"/>
<!-- Node1 -->
<g id="node1" class="node"><title>Node1</title>
<polygon fill="#bfbfbf" stroke="black" points="0,-157.5 0,-183.5 152,-183.5 152,-157.5 0,-157.5"/>
<text text-anchor="start" x="8" y="-173.1" font-family="Helvetica,sans-Serif" font-size="8.00">project.android.sensor.representation.</text>
<text text-anchor="middle" x="76" y="-164.1" font-family="Helvetica,sans-Serif" font-size="8.00">Vector4f.setX</text>
</g>
<!-- Node2 -->
<g id="node2" class="node"><title>Node2</title>
<g id="a_node2"><a xlink:href="a00011.html#ab9a9911056de6fc82ef1859c2eb42bad" target="_top" xlink:title="project.android.sensor.orientation.\lKalmanFilterProvider.onSensorChanged">
<polygon fill="white" stroke="black" points="188,-315.5 188,-341.5 349,-341.5 349,-315.5 188,-315.5"/>
<text text-anchor="start" x="196" y="-331.1" font-family="Helvetica,sans-Serif" font-size="8.00">project.android.sensor.orientation.</text>
<text text-anchor="middle" x="268.5" y="-322.1" font-family="Helvetica,sans-Serif" font-size="8.00">KalmanFilterProvider.onSensorChanged</text>
</a>
</g>
</g>
<!-- Node1&#45;&gt;Node2 -->
<g id="edge1" class="edge"><title>Node1&#45;&gt;Node2</title>
<path fill="none" stroke="midnightblue" d="M89.0523,-192.548C106.746,-222.83 142.628,-276.895 188,-306.5 193.397,-310.022 199.353,-312.985 205.505,-315.477"/>
<polygon fill="midnightblue" stroke="midnightblue" points="91.9515,-190.567 83.9575,-183.614 85.8706,-194.034 91.9515,-190.567"/>
</g>
<!-- Node3 -->
<g id="node3" class="node"><title>Node3</title>
<g id="a_node3"><a xlink:href="a00021.html#afa04a8074ebd55e5f22231176f9f51bf" target="_top" xlink:title="Add a quaternion to this quaternion. ">
<polygon fill="white" stroke="black" points="192.5,-270.5 192.5,-296.5 344.5,-296.5 344.5,-270.5 192.5,-270.5"/>
<text text-anchor="start" x="200.5" y="-286.1" font-family="Helvetica,sans-Serif" font-size="8.00">project.android.sensor.representation.</text>
<text text-anchor="middle" x="268.5" y="-277.1" font-family="Helvetica,sans-Serif" font-size="8.00">Quaternion.addQuat</text>
</a>
</g>
</g>
<!-- Node1&#45;&gt;Node3 -->
<g id="edge2" class="edge"><title>Node1&#45;&gt;Node3</title>
<path fill="none" stroke="midnightblue" d="M96.6497,-191.018C117.498,-211.653 152.299,-242.989 188,-261.5 194.611,-264.928 201.816,-267.871 209.102,-270.385"/>
<polygon fill="midnightblue" stroke="midnightblue" points="98.8983,-188.315 89.3699,-183.682 93.9297,-193.246 98.8983,-188.315"/>
</g>
<!-- Node4 -->
<g id="node4" class="node"><title>Node4</title>
<g id="a_node4"><a xlink:href="a00021.html#af3a4458d4f500899485390e60168e8cc" target="_top" xlink:title="Subtract a quaternion to this quaternion. ">
<polygon fill="white" stroke="black" points="192.5,-225.5 192.5,-251.5 344.5,-251.5 344.5,-225.5 192.5,-225.5"/>
<text text-anchor="start" x="200.5" y="-241.1" font-family="Helvetica,sans-Serif" font-size="8.00">project.android.sensor.representation.</text>
<text text-anchor="middle" x="268.5" y="-232.1" font-family="Helvetica,sans-Serif" font-size="8.00">Quaternion.subQuat</text>
</a>
</g>
</g>
<!-- Node1&#45;&gt;Node4 -->
<g id="edge3" class="edge"><title>Node1&#45;&gt;Node4</title>
<path fill="none" stroke="midnightblue" d="M115.145,-187.671C136.356,-196.872 163.369,-208.024 188,-216.5 197.208,-219.669 207.134,-222.706 216.746,-225.459"/>
<polygon fill="midnightblue" stroke="midnightblue" points="116.402,-184.4 105.838,-183.597 113.596,-190.813 116.402,-184.4"/>
</g>
<!-- Node5 -->
<g id="node5" class="node"><title>Node5</title>
<g id="a_node5"><a xlink:href="a00021.html#ad65d775928e1fddeb2f15e772fec5caf" target="_top" xlink:title="Returns the heading, attitude and bank of this quaternion as euler angles in the double array respect...">
<polygon fill="white" stroke="black" points="192.5,-180.5 192.5,-206.5 344.5,-206.5 344.5,-180.5 192.5,-180.5"/>
<text text-anchor="start" x="200.5" y="-196.1" font-family="Helvetica,sans-Serif" font-size="8.00">project.android.sensor.representation.</text>
<text text-anchor="middle" x="268.5" y="-187.1" font-family="Helvetica,sans-Serif" font-size="8.00">Quaternion.toEulerAngles</text>
</a>
</g>
</g>
<!-- Node1&#45;&gt;Node5 -->
<g id="edge4" class="edge"><title>Node1&#45;&gt;Node5</title>
<path fill="none" stroke="midnightblue" d="M162.02,-180.765C172.091,-181.981 182.316,-183.215 192.239,-184.413"/>
<polygon fill="midnightblue" stroke="midnightblue" points="162.365,-177.281 152.017,-179.557 161.526,-184.231 162.365,-177.281"/>
</g>
<!-- Node6 -->
<g id="node6" class="node"><title>Node6</title>
<g id="a_node6"><a xlink:href="a00021.html#ad97bd17455f6ca6ef3f38190789fc956" target="_top" xlink:title="Returns a String representing this Quaternion. ">
<polygon fill="white" stroke="black" points="192.5,-135.5 192.5,-161.5 344.5,-161.5 344.5,-135.5 192.5,-135.5"/>
<text text-anchor="start" x="200.5" y="-151.1" font-family="Helvetica,sans-Serif" font-size="8.00">project.android.sensor.representation.</text>
<text text-anchor="middle" x="268.5" y="-142.1" font-family="Helvetica,sans-Serif" font-size="8.00">Quaternion.toString</text>
</a>
</g>
</g>
<!-- Node1&#45;&gt;Node6 -->
<g id="edge5" class="edge"><title>Node1&#45;&gt;Node6</title>
<path fill="none" stroke="midnightblue" d="M162.02,-160.681C172.091,-159.518 182.316,-158.337 192.239,-157.192"/>
<polygon fill="midnightblue" stroke="midnightblue" points="161.55,-157.212 152.017,-161.837 162.353,-164.166 161.55,-157.212"/>
</g>
<!-- Node7 -->
<g id="node7" class="node"><title>Node7</title>
<g id="a_node7"><a xlink:href="a00021.html#ae122f173e221341c6f9d7059f1a9125a" target="_top" xlink:title="The values for this quaternion can be set based on a rotation matrix. ">
<polygon fill="white" stroke="black" points="192.5,-90.5 192.5,-116.5 344.5,-116.5 344.5,-90.5 192.5,-90.5"/>
<text text-anchor="start" x="200.5" y="-106.1" font-family="Helvetica,sans-Serif" font-size="8.00">project.android.sensor.representation.</text>
<text text-anchor="middle" x="268.5" y="-97.1" font-family="Helvetica,sans-Serif" font-size="8.00">Quaternion.setRowMajor</text>
</a>
</g>
</g>
<!-- Node1&#45;&gt;Node7 -->
<g id="edge6" class="edge"><title>Node1&#45;&gt;Node7</title>
<path fill="none" stroke="midnightblue" d="M117.321,-153.438C138.231,-144.866 164.294,-134.607 188,-126.5 198.196,-123.013 209.242,-119.595 219.764,-116.505"/>
<polygon fill="midnightblue" stroke="midnightblue" points="115.71,-150.317 107.804,-157.369 118.382,-156.787 115.71,-150.317"/>
</g>
<!-- Node8 -->
<g id="node8" class="node"><title>Node8</title>
<g id="a_node8"><a xlink:href="a00021.html#adb18ffea80dcb69a5b2d73772f2cb319" target="_top" xlink:title="Rotation is in degrees. ">
<polygon fill="white" stroke="black" points="192.5,-45.5 192.5,-71.5 344.5,-71.5 344.5,-45.5 192.5,-45.5"/>
<text text-anchor="start" x="200.5" y="-61.1" font-family="Helvetica,sans-Serif" font-size="8.00">project.android.sensor.representation.</text>
<text text-anchor="middle" x="268.5" y="-52.1" font-family="Helvetica,sans-Serif" font-size="8.00">Quaternion.setAxisAngle</text>
</a>
</g>
</g>
<!-- Node1&#45;&gt;Node8 -->
<g id="edge7" class="edge"><title>Node1&#45;&gt;Node8</title>
<path fill="none" stroke="midnightblue" d="M97.1276,-150.207C118.118,-130.107 152.813,-99.7617 188,-81.5 195.397,-77.6612 203.522,-74.3812 211.667,-71.6039"/>
<polygon fill="midnightblue" stroke="midnightblue" points="94.503,-147.877 89.7815,-157.362 99.3872,-152.892 94.503,-147.877"/>
</g>
<!-- Node9 -->
<g id="node9" class="node"><title>Node9</title>
<g id="a_node9"><a xlink:href="a00021.html#afda7426f75d5e8d863831f28625d88c3" target="_top" xlink:title="Same as setAxisAngle Takes the angles in Radian. ">
<polygon fill="white" stroke="black" points="192.5,-0.5 192.5,-26.5 344.5,-26.5 344.5,-0.5 192.5,-0.5"/>
<text text-anchor="start" x="200.5" y="-16.1" font-family="Helvetica,sans-Serif" font-size="8.00">project.android.sensor.representation.</text>
<text text-anchor="middle" x="268.5" y="-7.1" font-family="Helvetica,sans-Serif" font-size="8.00">Quaternion.setAxisAngleRad</text>
</a>
</g>
</g>
<!-- Node1&#45;&gt;Node9 -->
<g id="edge8" class="edge"><title>Node1&#45;&gt;Node9</title>
<path fill="none" stroke="midnightblue" d="M89.4554,-148.398C107.396,-118.568 143.319,-65.7932 188,-36.5 194.008,-32.5611 200.702,-29.2835 207.584,-26.559"/>
<polygon fill="midnightblue" stroke="midnightblue" points="86.3215,-146.823 84.274,-157.218 92.3571,-150.368 86.3215,-146.823"/>
</g>
</g>
</svg>
