<?xml version="1.0" encoding="UTF-8" standalone="no"?>
<!DOCTYPE svg PUBLIC "-//W3C//DTD SVG 1.1//EN"
 "http://www.w3.org/Graphics/SVG/1.1/DTD/svg11.dtd">
<!-- Generated by graphviz version 2.38.0 (20140413.2041)
 -->
<!-- Title: project.android.sensor.representation.Vector4f.getZ Pages: 1 -->
<svg width="348pt" height="170pt"
 viewBox="0.00 0.00 348.00 170.00" xmlns="http://www.w3.org/2000/svg" xmlns:xlink="http://www.w3.org/1999/xlink">
<g id="graph0" class="graph" transform="scale(1 1) rotate(0) translate(4 166)">
<title>project.android.sensor.representation.Vector4f.getZ</title>
<polygon fill="white" stroke="none" points="-4,4 -4,-166 344,-166 344,4 -4,4"/>
<!-- Node1 -->
<g id="node1" class="node"><title>Node1</title>
<polygon fill="#bfbfbf" stroke="black" points="0,-67.5 0,-93.5 152,-93.5 152,-67.5 0,-67.5"/>
<text text-anchor="start" x="8" y="-83.1" font-family="Helvetica,sans-Serif" font-size="8.00">project.android.sensor.representation.</text>
<text text-anchor="middle" x="76" y="-74.1" font-family="Helvetica,sans-Serif" font-size="8.00">Vector4f.getZ</text>
</g>
<!-- Node2 -->
<g id="node2" class="node"><title>Node2</title>
<g id="a_node2"><a xlink:href="a00021.html#afa04a8074ebd55e5f22231176f9f51bf" target="_top" xlink:title="Add a quaternion to this quaternion. ">
<polygon fill="white" stroke="black" points="188,-135.5 188,-161.5 340,-161.5 340,-135.5 188,-135.5"/>
<text text-anchor="start" x="196" y="-151.1" font-family="Helvetica,sans-Serif" font-size="8.00">project.android.sensor.representation.</text>
<text text-anchor="middle" x="264" y="-142.1" font-family="Helvetica,sans-Serif" font-size="8.00">Quaternion.addQuat</text>
</a>
</g>
</g>
<!-- Node1&#45;&gt;Node2 -->
<g id="edge1" class="edge"><title>Node1&#45;&gt;Node2</title>
<path fill="none" stroke="midnightblue" d="M115.64,-97.7133C136.798,-106.833 163.605,-117.895 188,-126.5 196.83,-129.614 206.348,-132.648 215.543,-135.419"/>
<polygon fill="midnightblue" stroke="midnightblue" points="116.912,-94.4498 106.346,-93.6756 114.123,-100.87 116.912,-94.4498"/>
</g>
<!-- Node3 -->
<g id="node3" class="node"><title>Node3</title>
<g id="a_node3"><a xlink:href="a00021.html#af3a4458d4f500899485390e60168e8cc" target="_top" xlink:title="Subtract a quaternion to this quaternion. ">
<polygon fill="white" stroke="black" points="188,-90.5 188,-116.5 340,-116.5 340,-90.5 188,-90.5"/>
<text text-anchor="start" x="196" y="-106.1" font-family="Helvetica,sans-Serif" font-size="8.00">project.android.sensor.representation.</text>
<text text-anchor="middle" x="264" y="-97.1" font-family="Helvetica,sans-Serif" font-size="8.00">Quaternion.subQuat</text>
</a>
</g>
</g>
<!-- Node1&#45;&gt;Node3 -->
<g id="edge2" class="edge"><title>Node1&#45;&gt;Node3</title>
<path fill="none" stroke="midnightblue" d="M162.147,-91.029C170.742,-92.0917 179.426,-93.1656 187.905,-94.214"/>
<polygon fill="midnightblue" stroke="midnightblue" points="162.471,-87.5424 152.117,-89.7887 161.612,-94.4895 162.471,-87.5424"/>
</g>
<!-- Node4 -->
<g id="node4" class="node"><title>Node4</title>
<g id="a_node4"><a xlink:href="a00021.html#ad97bd17455f6ca6ef3f38190789fc956" target="_top" xlink:title="Returns a String representing this Quaternion. ">
<polygon fill="white" stroke="black" points="188,-45.5 188,-71.5 340,-71.5 340,-45.5 188,-45.5"/>
<text text-anchor="start" x="196" y="-61.1" font-family="Helvetica,sans-Serif" font-size="8.00">project.android.sensor.representation.</text>
<text text-anchor="middle" x="264" y="-52.1" font-family="Helvetica,sans-Serif" font-size="8.00">Quaternion.toString</text>
</a>
</g>
</g>
<!-- Node1&#45;&gt;Node4 -->
<g id="edge3" class="edge"><title>Node1&#45;&gt;Node4</title>
<path fill="none" stroke="midnightblue" d="M162.147,-70.4288C170.742,-69.4123 179.426,-68.385 187.905,-67.3822"/>
<polygon fill="midnightblue" stroke="midnightblue" points="161.637,-66.9647 152.117,-71.6152 162.459,-73.9162 161.637,-66.9647"/>
</g>
<!-- Node5 -->
<g id="node5" class="node"><title>Node5</title>
<g id="a_node5"><a xlink:href="a00026.html#ad0c35f3031117ce87b4d7e5b377474f9" target="_top" xlink:title="Constructor. ">
<polygon fill="white" stroke="black" points="188,-0.5 188,-26.5 340,-26.5 340,-0.5 188,-0.5"/>
<text text-anchor="start" x="196" y="-16.1" font-family="Helvetica,sans-Serif" font-size="8.00">project.android.sensor.representation.</text>
<text text-anchor="middle" x="264" y="-7.1" font-family="Helvetica,sans-Serif" font-size="8.00">Vector3f.Vector3f</text>
</a>
</g>
</g>
<!-- Node1&#45;&gt;Node5 -->
<g id="edge4" class="edge"><title>Node1&#45;&gt;Node5</title>
<path fill="none" stroke="midnightblue" d="M117.825,-63.4131C138.673,-54.9186 164.528,-44.7363 188,-36.5 197.767,-33.0728 208.345,-29.6534 218.391,-26.5392"/>
<polygon fill="midnightblue" stroke="midnightblue" points="116.251,-60.2756 108.326,-67.3074 118.906,-66.7524 116.251,-60.2756"/>
</g>
</g>
</svg>
