<?xml version="1.0" encoding="UTF-8" standalone="no"?>
<!DOCTYPE svg PUBLIC "-//W3C//DTD SVG 1.1//EN"
 "http://www.w3.org/Graphics/SVG/1.1/DTD/svg11.dtd">
<!-- Generated by graphviz version 2.38.0 (20140413.2041)
 -->
<!-- Title: project.android.net.Client.sendData Pages: 1 -->
<svg width="299pt" height="80pt"
 viewBox="0.00 0.00 299.00 80.00" xmlns="http://www.w3.org/2000/svg" xmlns:xlink="http://www.w3.org/1999/xlink">
<g id="graph0" class="graph" transform="scale(1 1) rotate(0) translate(4 76)">
<title>project.android.net.Client.sendData</title>
<polygon fill="white" stroke="none" points="-4,4 -4,-76 295,-76 295,4 -4,4"/>
<!-- Node1 -->
<g id="node1" class="node"><title>Node1</title>
<polygon fill="#bfbfbf" stroke="black" points="0,-27 0,-44 143,-44 143,-27 0,-27"/>
<text text-anchor="middle" x="71.5" y="-33.6" font-family="Helvetica,sans-Serif" font-size="8.00">project.android.net.Client.sendData</text>
</g>
<!-- Node2 -->
<g id="node2" class="node"><title>Node2</title>
<g id="a_node2"><a xlink:href="a00009.html#af8add0417bec5bd0d019410c91f69e38" target="_top" xlink:title="Returns a JSon&#45;string of an object. ">
<polygon fill="white" stroke="black" points="183.5,-45.5 183.5,-71.5 286.5,-71.5 286.5,-45.5 183.5,-45.5"/>
<text text-anchor="start" x="191.5" y="-61.1" font-family="Helvetica,sans-Serif" font-size="8.00">project.android.net.Data</text>
<text text-anchor="middle" x="235" y="-52.1" font-family="Helvetica,sans-Serif" font-size="8.00">Wrapper.getGsonString</text>
</a>
</g>
</g>
<!-- Node1&#45;&gt;Node2 -->
<g id="edge1" class="edge"><title>Node1&#45;&gt;Node2</title>
<path fill="none" stroke="midnightblue" d="M132.637,-44.0644C145.929,-45.9574 160.02,-47.9642 173.333,-49.8602"/>
<polygon fill="midnightblue" stroke="midnightblue" points="172.943,-53.3398 183.337,-51.2848 173.93,-46.4097 172.943,-53.3398"/>
</g>
<!-- Node3 -->
<g id="node3" class="node"><title>Node3</title>
<g id="a_node3"><a xlink:href="a00010.html#a73624750dc6ff111d72bcb4b54c4995c" target="_top" xlink:title="Encrypt plaintext using AES 256&#45;bit encryption algorithm. ">
<polygon fill="white" stroke="black" points="179,-0.5 179,-26.5 291,-26.5 291,-0.5 179,-0.5"/>
<text text-anchor="start" x="187" y="-16.1" font-family="Helvetica,sans-Serif" font-size="8.00">project.android.security.</text>
<text text-anchor="middle" x="235" y="-7.1" font-family="Helvetica,sans-Serif" font-size="8.00">EKEProvider.encryptString</text>
</a>
</g>
</g>
<!-- Node1&#45;&gt;Node3 -->
<g id="edge2" class="edge"><title>Node1&#45;&gt;Node3</title>
<path fill="none" stroke="midnightblue" d="M134.94,-26.9942C146.017,-25.4853 157.58,-23.9102 168.733,-22.3909"/>
<polygon fill="midnightblue" stroke="midnightblue" points="169.399,-25.8326 178.835,-21.0148 168.454,-18.8967 169.399,-25.8326"/>
</g>
</g>
</svg>
