<?xml version="1.0" encoding="UTF-8" standalone="no"?>
<!DOCTYPE svg PUBLIC "-//W3C//DTD SVG 1.1//EN"
 "http://www.w3.org/Graphics/SVG/1.1/DTD/svg11.dtd">
<!-- Generated by graphviz version 2.38.0 (20140413.2041)
 -->
<!-- Title: project.android.net.ClientIOThread.run Pages: 1 -->
<svg width="627pt" height="125pt"
 viewBox="0.00 0.00 627.00 125.00" xmlns="http://www.w3.org/2000/svg" xmlns:xlink="http://www.w3.org/1999/xlink">
<g id="graph0" class="graph" transform="scale(1 1) rotate(0) translate(4 121)">
<title>project.android.net.ClientIOThread.run</title>
<polygon fill="white" stroke="none" points="-4,4 -4,-121 623,-121 623,4 -4,4"/>
<!-- Node1 -->
<g id="node1" class="node"><title>Node1</title>
<polygon fill="#bfbfbf" stroke="black" points="0,-45.5 0,-71.5 106,-71.5 106,-45.5 0,-45.5"/>
<text text-anchor="start" x="8" y="-61.1" font-family="Helvetica,sans-Serif" font-size="8.00">project.android.net.Client</text>
<text text-anchor="middle" x="53" y="-52.1" font-family="Helvetica,sans-Serif" font-size="8.00">IOThread.run</text>
</g>
<!-- Node2 -->
<g id="node2" class="node"><title>Node2</title>
<g id="a_node2"><a xlink:href="a00015.html#a2025eaa4f93363e6f4a03b26d7c4f8f6" target="_top" xlink:title="Returns the project.android.ConnectionFragment object. ">
<polygon fill="white" stroke="black" points="142,-90.5 142,-116.5 269,-116.5 269,-90.5 142,-90.5"/>
<text text-anchor="start" x="150" y="-106.1" font-family="Helvetica,sans-Serif" font-size="8.00">project.android.MainActivity.get</text>
<text text-anchor="middle" x="205.5" y="-97.1" font-family="Helvetica,sans-Serif" font-size="8.00">ConnectionFragment</text>
</a>
</g>
</g>
<!-- Node1&#45;&gt;Node2 -->
<g id="edge1" class="edge"><title>Node1&#45;&gt;Node2</title>
<path fill="none" stroke="midnightblue" d="M97.5308,-71.5159C114.149,-76.4849 133.294,-82.2093 150.754,-87.4296"/>
<polygon fill="midnightblue" stroke="midnightblue" points="150.223,-90.924 160.807,-90.4355 152.228,-84.2174 150.223,-90.924"/>
</g>
<!-- Node3 -->
<g id="node3" class="node"><title>Node3</title>
<g id="a_node3"><a xlink:href="a00006.html#a5ae4f9d7872792288afb3de65ab4c2b0" target="_top" xlink:title="Sets an icon for an inactive server. ">
<polygon fill="white" stroke="black" points="149,-45.5 149,-71.5 262,-71.5 262,-45.5 149,-45.5"/>
<text text-anchor="start" x="157" y="-61.1" font-family="Helvetica,sans-Serif" font-size="8.00">project.android.Connection</text>
<text text-anchor="middle" x="205.5" y="-52.1" font-family="Helvetica,sans-Serif" font-size="8.00">Fragment.resetIcon</text>
</a>
</g>
</g>
<!-- Node1&#45;&gt;Node3 -->
<g id="edge2" class="edge"><title>Node1&#45;&gt;Node3</title>
<path fill="none" stroke="midnightblue" d="M106.215,-58.5C116.638,-58.5 127.713,-58.5 138.528,-58.5"/>
<polygon fill="midnightblue" stroke="midnightblue" points="138.788,-62.0001 148.788,-58.5 138.788,-55.0001 138.788,-62.0001"/>
</g>
<!-- Node6 -->
<g id="node6" class="node"><title>Node6</title>
<g id="a_node6"><a xlink:href="a00010.html#a1843f8e6646edd0fbea0ae49e620aa92" target="_top" xlink:title="Decrypt ciphertext using AES&#45;256 bit algorithm. ">
<polygon fill="white" stroke="black" points="149.5,-0.5 149.5,-26.5 261.5,-26.5 261.5,-0.5 149.5,-0.5"/>
<text text-anchor="start" x="157.5" y="-16.1" font-family="Helvetica,sans-Serif" font-size="8.00">project.android.security.</text>
<text text-anchor="middle" x="205.5" y="-7.1" font-family="Helvetica,sans-Serif" font-size="8.00">EKEProvider.decryptString</text>
</a>
</g>
</g>
<!-- Node1&#45;&gt;Node6 -->
<g id="edge5" class="edge"><title>Node1&#45;&gt;Node6</title>
<path fill="none" stroke="midnightblue" d="M97.5308,-45.4841C114.149,-40.5151 133.294,-34.7907 150.754,-29.5704"/>
<polygon fill="midnightblue" stroke="midnightblue" points="152.228,-32.7826 160.807,-26.5645 150.223,-26.076 152.228,-32.7826"/>
</g>
<!-- Node4 -->
<g id="node4" class="node"><title>Node4</title>
<g id="a_node4"><a xlink:href="a00006.html#a863b30e1ce16c16e6dba6bebe8d8c45e" target="_top" xlink:title="Returns the View of the clicked list item. ">
<polygon fill="white" stroke="black" points="305,-45.5 305,-71.5 424,-71.5 424,-45.5 305,-45.5"/>
<text text-anchor="start" x="313" y="-61.1" font-family="Helvetica,sans-Serif" font-size="8.00">project.android.Connection</text>
<text text-anchor="middle" x="364.5" y="-52.1" font-family="Helvetica,sans-Serif" font-size="8.00">Fragment.getViewByPosition</text>
</a>
</g>
</g>
<!-- Node3&#45;&gt;Node4 -->
<g id="edge3" class="edge"><title>Node3&#45;&gt;Node4</title>
<path fill="none" stroke="midnightblue" d="M262.294,-58.5C272.781,-58.5 283.858,-58.5 294.686,-58.5"/>
<polygon fill="midnightblue" stroke="midnightblue" points="294.964,-62.0001 304.964,-58.5 294.964,-55.0001 294.964,-62.0001"/>
</g>
<!-- Node5 -->
<g id="node5" class="node"><title>Node5</title>
<g id="a_node5"><a xlink:href="a00008.html#a6b2523e50305753cb8c2893dc659a1ae" target="_top" xlink:title="Overrides ArrayAdapter.getView(int, View, ViewGroup) method. ">
<polygon fill="white" stroke="red" points="460,-50 460,-67 619,-67 619,-50 460,-50"/>
<text text-anchor="middle" x="539.5" y="-56.6" font-family="Helvetica,sans-Serif" font-size="8.00">project.android.CustomAdapter.getView</text>
</a>
</g>
</g>
<!-- Node4&#45;&gt;Node5 -->
<g id="edge4" class="edge"><title>Node4&#45;&gt;Node5</title>
<path fill="none" stroke="midnightblue" d="M424.07,-58.5C432.313,-58.5 440.936,-58.5 449.59,-58.5"/>
<polygon fill="midnightblue" stroke="midnightblue" points="449.744,-62.0001 459.744,-58.5 449.744,-55.0001 449.744,-62.0001"/>
</g>
</g>
</svg>
