<?xml version="1.0" encoding="UTF-8" standalone="no"?>
<!DOCTYPE svg PUBLIC "-//W3C//DTD SVG 1.1//EN"
 "http://www.w3.org/Graphics/SVG/1.1/DTD/svg11.dtd">
<!-- Generated by graphviz version 2.38.0 (20140413.2041)
 -->
<!-- Title: project.android.sensor.representation.Quaternion.multiplyByQuat Pages: 1 -->
<svg width="357pt" height="80pt"
 viewBox="0.00 0.00 357.00 80.00" xmlns="http://www.w3.org/2000/svg" xmlns:xlink="http://www.w3.org/1999/xlink">
<g id="graph0" class="graph" transform="scale(1 1) rotate(0) translate(4 76)">
<title>project.android.sensor.representation.Quaternion.multiplyByQuat</title>
<polygon fill="white" stroke="none" points="-4,4 -4,-76 353,-76 353,4 -4,4"/>
<!-- Node1 -->
<g id="node1" class="node"><title>Node1</title>
<polygon fill="#bfbfbf" stroke="black" points="0,-22.5 0,-48.5 152,-48.5 152,-22.5 0,-22.5"/>
<text text-anchor="start" x="8" y="-38.1" font-family="Helvetica,sans-Serif" font-size="8.00">project.android.sensor.representation.</text>
<text text-anchor="middle" x="76" y="-29.1" font-family="Helvetica,sans-Serif" font-size="8.00">Quaternion.multiplyByQuat</text>
</g>
<!-- Node2 -->
<g id="node2" class="node"><title>Node2</title>
<g id="a_node2"><a xlink:href="a00011.html#ab9a9911056de6fc82ef1859c2eb42bad" target="_top" xlink:title="project.android.sensor.orientation.\lKalmanFilterProvider.onSensorChanged">
<polygon fill="white" stroke="black" points="188,-45.5 188,-71.5 349,-71.5 349,-45.5 188,-45.5"/>
<text text-anchor="start" x="196" y="-61.1" font-family="Helvetica,sans-Serif" font-size="8.00">project.android.sensor.orientation.</text>
<text text-anchor="middle" x="268.5" y="-52.1" font-family="Helvetica,sans-Serif" font-size="8.00">KalmanFilterProvider.onSensorChanged</text>
</a>
</g>
</g>
<!-- Node1&#45;&gt;Node2 -->
<g id="edge1" class="edge"><title>Node1&#45;&gt;Node2</title>
<path fill="none" stroke="midnightblue" d="M162.03,-45.7661C170.617,-46.8029 179.317,-47.8532 187.845,-48.8829"/>
<polygon fill="midnightblue" stroke="midnightblue" points="162.365,-42.2812 152.017,-44.5572 161.526,-49.2307 162.365,-42.2812"/>
</g>
<!-- Node3 -->
<g id="node3" class="node"><title>Node3</title>
<g id="a_node3"><a xlink:href="a00021.html#ad65bf4d90dd8d310b37e9318eae5546f" target="_top" xlink:title="Multiply this quaternion by the input quaternion. ">
<polygon fill="white" stroke="black" points="192.5,-0.5 192.5,-26.5 344.5,-26.5 344.5,-0.5 192.5,-0.5"/>
<text text-anchor="start" x="200.5" y="-16.1" font-family="Helvetica,sans-Serif" font-size="8.00">project.android.sensor.representation.</text>
<text text-anchor="middle" x="268.5" y="-7.1" font-family="Helvetica,sans-Serif" font-size="8.00">Quaternion.multiplyByQuat</text>
</a>
</g>
</g>
<!-- Node1&#45;&gt;Node3 -->
<g id="edge2" class="edge"><title>Node1&#45;&gt;Node3</title>
<path fill="none" stroke="midnightblue" d="M162.02,-25.6814C172.091,-24.5184 182.316,-23.3375 192.239,-22.1916"/>
<polygon fill="midnightblue" stroke="midnightblue" points="161.55,-22.2124 152.017,-26.8366 162.353,-29.1662 161.55,-22.2124"/>
</g>
</g>
</svg>
