<?xml version="1.0" encoding="UTF-8" standalone="no"?>
<!DOCTYPE svg PUBLIC "-//W3C//DTD SVG 1.1//EN"
 "http://www.w3.org/Graphics/SVG/1.1/DTD/svg11.dtd">
<!-- Generated by graphviz version 2.38.0 (20140413.2041)
 -->
<!-- Title: project.android.net.ServerInfo.getAddress Pages: 1 -->
<svg width="766pt" height="221pt"
 viewBox="0.00 0.00 766.00 221.47" xmlns="http://www.w3.org/2000/svg" xmlns:xlink="http://www.w3.org/1999/xlink">
<g id="graph0" class="graph" transform="scale(1 1) rotate(0) translate(4 217.475)">
<title>project.android.net.ServerInfo.getAddress</title>
<polygon fill="white" stroke="none" points="-4,4 -4,-217.475 762,-217.475 762,4 -4,4"/>
<!-- Node1 -->
<g id="node1" class="node"><title>Node1</title>
<polygon fill="#bfbfbf" stroke="black" points="0,-95.9677 0,-121.968 110,-121.968 110,-95.9677 0,-95.9677"/>
<text text-anchor="start" x="8" y="-111.568" font-family="Helvetica,sans-Serif" font-size="8.00">project.android.net.Server</text>
<text text-anchor="middle" x="55" y="-102.568" font-family="Helvetica,sans-Serif" font-size="8.00">Info.getAddress</text>
</g>
<!-- Node2 -->
<g id="node2" class="node"><title>Node2</title>
<g id="a_node2"><a xlink:href="a00002.html#a03c170017a27365b50ab860fa21e3d46" target="_top" xlink:title="Performs the broadcast receiving operation. ">
<polygon fill="white" stroke="black" points="313.5,-162.968 313.5,-188.968 435.5,-188.968 435.5,-162.968 313.5,-162.968"/>
<text text-anchor="start" x="321.5" y="-178.568" font-family="Helvetica,sans-Serif" font-size="8.00">project.android.net.Broadcast</text>
<text text-anchor="middle" x="374.5" y="-169.568" font-family="Helvetica,sans-Serif" font-size="8.00">ReceiverThread.run</text>
</a>
</g>
</g>
<!-- Node1&#45;&gt;Node2 -->
<g id="edge1" class="edge"><title>Node1&#45;&gt;Node2</title>
<path fill="none" stroke="midnightblue" d="M69.6347,-130.552C85.0689,-152.744 112.479,-185.974 146,-199.968 211.054,-227.125 295.267,-205.085 340.795,-189.014"/>
<polygon fill="midnightblue" stroke="midnightblue" points="72.4319,-128.439 63.9525,-122.087 66.6199,-132.341 72.4319,-128.439"/>
</g>
<!-- Node3 -->
<g id="node3" class="node"><title>Node3</title>
<g id="a_node3"><a xlink:href="a00005.html#aa57b04eb44ae7982a7a79cdb7c484144" target="_top" xlink:title="Constructor. ">
<polygon fill="white" stroke="black" points="148.5,-163.968 148.5,-189.968 256.5,-189.968 256.5,-163.968 148.5,-163.968"/>
<text text-anchor="start" x="156.5" y="-179.568" font-family="Helvetica,sans-Serif" font-size="8.00">project.android.net.Client</text>
<text text-anchor="middle" x="202.5" y="-170.568" font-family="Helvetica,sans-Serif" font-size="8.00">IOThread.ClientIOThread</text>
</a>
</g>
</g>
<!-- Node1&#45;&gt;Node3 -->
<g id="edge2" class="edge"><title>Node1&#45;&gt;Node3</title>
<path fill="none" stroke="midnightblue" d="M89.0494,-126.812C105.907,-135.67 126.846,-146.3 146,-154.968 152.705,-158.002 159.959,-161.045 166.943,-163.859"/>
<polygon fill="midnightblue" stroke="midnightblue" points="90.617,-123.682 80.1413,-122.098 87.3426,-129.869 90.617,-123.682"/>
</g>
<!-- Node4 -->
<g id="node4" class="node"><title>Node4</title>
<g id="a_node4"><a xlink:href="a00006.html#aee2a392b8b0500023dba15b60d3315d2" target="_top" xlink:title="Returns a list of ServerInfo objects. ">
<polygon fill="white" stroke="black" points="146,-73.9677 146,-99.9677 259,-99.9677 259,-73.9677 146,-73.9677"/>
<text text-anchor="start" x="154" y="-89.5677" font-family="Helvetica,sans-Serif" font-size="8.00">project.android.Connection</text>
<text text-anchor="middle" x="202.5" y="-80.5677" font-family="Helvetica,sans-Serif" font-size="8.00">Fragment.getNetworkList</text>
</a>
</g>
</g>
<!-- Node1&#45;&gt;Node4 -->
<g id="edge3" class="edge"><title>Node1&#45;&gt;Node4</title>
<path fill="none" stroke="midnightblue" d="M120.128,-99.2714C128.691,-97.9766 137.415,-96.6575 145.818,-95.3869"/>
<polygon fill="midnightblue" stroke="midnightblue" points="119.543,-95.8199 110.179,-100.776 120.59,-102.741 119.543,-95.8199"/>
</g>
<!-- Node6 -->
<g id="node6" class="node"><title>Node6</title>
<g id="a_node6"><a xlink:href="a00008.html#a6b2523e50305753cb8c2893dc659a1ae" target="_top" xlink:title="Overrides ArrayAdapter.getView(int, View, ViewGroup) method. ">
<polygon fill="white" stroke="black" points="295,-38.4677 295,-55.4677 454,-55.4677 454,-38.4677 295,-38.4677"/>
<text text-anchor="middle" x="374.5" y="-45.0677" font-family="Helvetica,sans-Serif" font-size="8.00">project.android.CustomAdapter.getView</text>
</a>
</g>
</g>
<!-- Node1&#45;&gt;Node6 -->
<g id="edge11" class="edge"><title>Node1&#45;&gt;Node6</title>
<path fill="none" stroke="midnightblue" d="M85.4117,-90.5971C102.449,-80.9109 124.686,-69.8462 146,-63.9677 194.299,-50.6464 250.415,-46.3393 294.829,-45.3906"/>
<polygon fill="midnightblue" stroke="midnightblue" points="83.3869,-87.7265 76.52,-95.7948 86.9195,-93.7698 83.3869,-87.7265"/>
</g>
<!-- Node8 -->
<g id="node8" class="node"><title>Node8</title>
<g id="a_node8"><a xlink:href="a00006.html#af0e6f7c8aa02553792fd18fbb5e98a2e" target="_top" xlink:title="Sets an icon for an active server. ">
<polygon fill="white" stroke="red" points="645,-13.9677 645,-39.9677 758,-39.9677 758,-13.9677 645,-13.9677"/>
<text text-anchor="start" x="653" y="-29.5677" font-family="Helvetica,sans-Serif" font-size="8.00">project.android.Connection</text>
<text text-anchor="middle" x="701.5" y="-20.5677" font-family="Helvetica,sans-Serif" font-size="8.00">Fragment.setIcon</text>
</a>
</g>
</g>
<!-- Node1&#45;&gt;Node8 -->
<g id="edge10" class="edge"><title>Node1&#45;&gt;Node8</title>
<path fill="none" stroke="midnightblue" d="M76.966,-88.8402C94.0864,-73.7195 119.676,-53.9636 146,-43.9677 317.976,21.3362 541.997,-1.34238 644.671,-17.0689"/>
<polygon fill="midnightblue" stroke="midnightblue" points="74.3232,-86.5125 69.2757,-95.8277 79.0306,-91.6933 74.3232,-86.5125"/>
</g>
<!-- Node9 -->
<g id="node9" class="node"><title>Node9</title>
<g id="a_node9"><a xlink:href="a00006.html#aa3204a474571d554c95ddb6bdd2ca012" target="_top" xlink:title="Removes the ServerInfo object of an inactive server from the list of servers. ">
<polygon fill="white" stroke="black" points="146,-118.968 146,-144.968 259,-144.968 259,-118.968 146,-118.968"/>
<text text-anchor="start" x="154" y="-134.568" font-family="Helvetica,sans-Serif" font-size="8.00">project.android.Connection</text>
<text text-anchor="middle" x="202.5" y="-125.568" font-family="Helvetica,sans-Serif" font-size="8.00">Fragment.removeItem</text>
</a>
</g>
</g>
<!-- Node1&#45;&gt;Node9 -->
<g id="edge8" class="edge"><title>Node1&#45;&gt;Node9</title>
<path fill="none" stroke="midnightblue" d="M120.128,-119.105C128.691,-120.458 137.415,-121.837 145.818,-123.166"/>
<polygon fill="midnightblue" stroke="midnightblue" points="120.603,-115.636 110.179,-117.532 119.51,-122.551 120.603,-115.636"/>
</g>
<!-- Node5 -->
<g id="node5" class="node"><title>Node5</title>
<g id="a_node5"><a xlink:href="a00008.html#a9b4dd18431aa7ebd37321a0d2b1d2539" target="_top" xlink:title="Overrides the ArrayAdapter.getCount() method. ">
<polygon fill="white" stroke="black" points="303.5,-74.9677 303.5,-100.968 445.5,-100.968 445.5,-74.9677 303.5,-74.9677"/>
<text text-anchor="start" x="311.5" y="-90.5677" font-family="Helvetica,sans-Serif" font-size="8.00">project.android.CustomAdapter.get</text>
<text text-anchor="middle" x="374.5" y="-81.5677" font-family="Helvetica,sans-Serif" font-size="8.00">Count</text>
</a>
</g>
</g>
<!-- Node4&#45;&gt;Node5 -->
<g id="edge4" class="edge"><title>Node4&#45;&gt;Node5</title>
<path fill="none" stroke="midnightblue" d="M269.285,-87.3546C280.474,-87.4205 292.132,-87.489 303.427,-87.5555"/>
<polygon fill="midnightblue" stroke="midnightblue" points="269.185,-83.8541 259.164,-87.2951 269.144,-90.854 269.185,-83.8541"/>
</g>
<!-- Node4&#45;&gt;Node6 -->
<g id="edge5" class="edge"><title>Node4&#45;&gt;Node6</title>
<path fill="none" stroke="midnightblue" d="M267.201,-71.5603C276.521,-69.3326 286.006,-67.08 295,-64.9677 308.34,-61.8347 322.97,-58.4626 335.948,-55.4936"/>
<polygon fill="midnightblue" stroke="midnightblue" points="266.092,-68.2268 257.183,-73.9602 267.723,-75.0342 266.092,-68.2268"/>
</g>
<!-- Node7 -->
<g id="node7" class="node"><title>Node7</title>
<g id="a_node7"><a xlink:href="a00006.html#a863b30e1ce16c16e6dba6bebe8d8c45e" target="_top" xlink:title="Returns the View of the clicked list item. ">
<polygon fill="white" stroke="red" points="490,-34.9677 490,-60.9677 609,-60.9677 609,-34.9677 490,-34.9677"/>
<text text-anchor="start" x="498" y="-50.5677" font-family="Helvetica,sans-Serif" font-size="8.00">project.android.Connection</text>
<text text-anchor="middle" x="549.5" y="-41.5677" font-family="Helvetica,sans-Serif" font-size="8.00">Fragment.getViewByPosition</text>
</a>
</g>
</g>
<!-- Node6&#45;&gt;Node7 -->
<g id="edge6" class="edge"><title>Node6&#45;&gt;Node7</title>
<path fill="none" stroke="midnightblue" d="M464.348,-47.4812C473.038,-47.5315 481.697,-47.5815 489.972,-47.6294"/>
<polygon fill="midnightblue" stroke="midnightblue" points="464.174,-43.9803 454.154,-47.4223 464.133,-50.9802 464.174,-43.9803"/>
</g>
<!-- Node7&#45;&gt;Node8 -->
<g id="edge7" class="edge"><title>Node7&#45;&gt;Node8</title>
<path fill="none" stroke="midnightblue" d="M619.29,-38.337C627.82,-37.1429 636.457,-35.9337 644.757,-34.7717"/>
<polygon fill="midnightblue" stroke="midnightblue" points="618.772,-34.8754 609.353,-39.7282 619.742,-41.8078 618.772,-34.8754"/>
</g>
<!-- Node9&#45;&gt;Node2 -->
<g id="edge9" class="edge"><title>Node9&#45;&gt;Node2</title>
<path fill="none" stroke="midnightblue" d="M263.982,-147.622C283.353,-152.635 304.582,-158.13 323.149,-162.936"/>
<polygon fill="midnightblue" stroke="midnightblue" points="264.603,-144.167 254.045,-145.05 262.849,-150.944 264.603,-144.167"/>
</g>
</g>
</svg>
