<?xml version="1.0" encoding="UTF-8" standalone="no"?>
<!DOCTYPE svg PUBLIC "-//W3C//DTD SVG 1.1//EN"
 "http://www.w3.org/Graphics/SVG/1.1/DTD/svg11.dtd">
<!-- Generated by graphviz version 2.38.0 (20140413.2041)
 -->
<!-- Title: project.android.security.KeyStoreManager.keyStoreExists Pages: 1 -->
<svg width="290pt" height="35pt"
 viewBox="0.00 0.00 290.00 35.00" xmlns="http://www.w3.org/2000/svg" xmlns:xlink="http://www.w3.org/1999/xlink">
<g id="graph0" class="graph" transform="scale(1 1) rotate(0) translate(4 31)">
<title>project.android.security.KeyStoreManager.keyStoreExists</title>
<polygon fill="white" stroke="none" points="-4,4 -4,-31 286,-31 286,4 -4,4"/>
<!-- Node1 -->
<g id="node1" class="node"><title>Node1</title>
<polygon fill="#bfbfbf" stroke="black" points="0,-0.5 0,-26.5 136,-26.5 136,-0.5 0,-0.5"/>
<text text-anchor="start" x="8" y="-16.1" font-family="Helvetica,sans-Serif" font-size="8.00">project.android.security.</text>
<text text-anchor="middle" x="68" y="-7.1" font-family="Helvetica,sans-Serif" font-size="8.00">KeyStoreManager.keyStoreExists</text>
</g>
<!-- Node2 -->
<g id="node2" class="node"><title>Node2</title>
<g id="a_node2"><a xlink:href="a00010.html#a7d7b75da1704e880cb65d4e2bdb27890" target="_top" xlink:title="Constructor. ">
<polygon fill="white" stroke="black" points="172,-0.5 172,-26.5 282,-26.5 282,-0.5 172,-0.5"/>
<text text-anchor="start" x="180" y="-16.1" font-family="Helvetica,sans-Serif" font-size="8.00">project.android.security.</text>
<text text-anchor="middle" x="227" y="-7.1" font-family="Helvetica,sans-Serif" font-size="8.00">EKEProvider.EKEProvider</text>
</a>
</g>
</g>
<!-- Node1&#45;&gt;Node2 -->
<g id="edge1" class="edge"><title>Node1&#45;&gt;Node2</title>
<path fill="none" stroke="midnightblue" d="M146.225,-13.5C154.933,-13.5 163.662,-13.5 171.983,-13.5"/>
<polygon fill="midnightblue" stroke="midnightblue" points="146.038,-10.0001 136.038,-13.5 146.037,-17.0001 146.038,-10.0001"/>
</g>
</g>
</svg>
