<?xml version="1.0" encoding="UTF-8" standalone="no"?>
<!DOCTYPE svg PUBLIC "-//W3C//DTD SVG 1.1//EN"
 "http://www.w3.org/Graphics/SVG/1.1/DTD/svg11.dtd">
<!-- Generated by graphviz version 2.38.0 (20140413.2041)
 -->
<!-- Title: project.android.SettingsActivity Pages: 1 -->
<svg width="260pt" height="202pt"
 viewBox="0.00 0.00 259.50 202.00" xmlns="http://www.w3.org/2000/svg" xmlns:xlink="http://www.w3.org/1999/xlink">
<g id="graph0" class="graph" transform="scale(1 1) rotate(0) translate(4 198)">
<title>project.android.SettingsActivity</title>
<polygon fill="white" stroke="none" points="-4,4 -4,-198 255.5,-198 255.5,4 -4,4"/>
<!-- Node1 -->
<g id="node1" class="node"><title>Node1</title>
<polygon fill="#bfbfbf" stroke="black" points="40,-0.5 40,-96.5 177,-96.5 177,-0.5 40,-0.5"/>
<text text-anchor="start" x="48" y="-86.1" font-family="Helvetica,sans-Serif" font-size="8.00">project.android.Settings</text>
<text text-anchor="middle" x="108.5" y="-77.1" font-family="Helvetica,sans-Serif" font-size="8.00">Activity</text>
<polyline fill="none" stroke="black" points="40,-70.5 177,-70.5 "/>
<text text-anchor="start" x="48" y="-60.1" font-family="Helvetica,sans-Serif" font-size="8.00">+ sMouseSensitivity2d</text>
<text text-anchor="start" x="48" y="-51.1" font-family="Helvetica,sans-Serif" font-size="8.00">+ sMouseSensitivity3d</text>
<polyline fill="none" stroke="black" points="40,-44.5 177,-44.5 "/>
<text text-anchor="start" x="48" y="-34.1" font-family="Helvetica,sans-Serif" font-size="8.00">+ onPause()</text>
<text text-anchor="start" x="48" y="-25.1" font-family="Helvetica,sans-Serif" font-size="8.00">+ onResume()</text>
<text text-anchor="start" x="48" y="-16.1" font-family="Helvetica,sans-Serif" font-size="8.00">+ onSharedPreferenceChanged()</text>
<text text-anchor="start" x="48" y="-7.1" font-family="Helvetica,sans-Serif" font-size="8.00"># onCreate()</text>
</g>
<!-- Node2 -->
<g id="node2" class="node"><title>Node2</title>
<polygon fill="white" stroke="#bfbfbf" points="0,-138 0,-189 83,-189 83,-138 0,-138"/>
<text text-anchor="middle" x="41.5" y="-178.6" font-family="Helvetica,sans-Serif" font-size="8.00">AppCompatActivity</text>
<polyline fill="none" stroke="#bfbfbf" points="0,-172 83,-172 "/>
<text text-anchor="middle" x="41.5" y="-161.6" font-family="Helvetica,sans-Serif" font-size="8.00"> </text>
<polyline fill="none" stroke="#bfbfbf" points="0,-155 83,-155 "/>
<text text-anchor="middle" x="41.5" y="-144.6" font-family="Helvetica,sans-Serif" font-size="8.00"> </text>
</g>
<!-- Node2&#45;&gt;Node1 -->
<g id="edge1" class="edge"><title>Node2&#45;&gt;Node1</title>
<path fill="none" stroke="midnightblue" d="M61.1433,-129.37C67.1964,-119.161 73.9823,-107.716 80.4848,-96.7495"/>
<polygon fill="none" stroke="midnightblue" points="58.1276,-127.594 56.038,-137.981 64.1488,-131.164 58.1276,-127.594"/>
</g>
<!-- Node3 -->
<g id="node3" class="node"><title>Node3</title>
<polygon fill="white" stroke="#bfbfbf" points="101.5,-133.5 101.5,-193.5 251.5,-193.5 251.5,-133.5 101.5,-133.5"/>
<text text-anchor="start" x="109.5" y="-183.1" font-family="Helvetica,sans-Serif" font-size="8.00">SharedPreferences::</text>
<text text-anchor="middle" x="176.5" y="-174.1" font-family="Helvetica,sans-Serif" font-size="8.00">OnSharedPreferenceChangeListener</text>
<polyline fill="none" stroke="#bfbfbf" points="101.5,-167.5 251.5,-167.5 "/>
<text text-anchor="middle" x="176.5" y="-157.1" font-family="Helvetica,sans-Serif" font-size="8.00"> </text>
<polyline fill="none" stroke="#bfbfbf" points="101.5,-150.5 251.5,-150.5 "/>
<text text-anchor="middle" x="176.5" y="-140.1" font-family="Helvetica,sans-Serif" font-size="8.00"> </text>
</g>
<!-- Node3&#45;&gt;Node1 -->
<g id="edge2" class="edge"><title>Node3&#45;&gt;Node1</title>
<path fill="none" stroke="midnightblue" d="M153.784,-124.751C148.414,-115.828 142.622,-106.202 137.032,-96.9131"/>
<polygon fill="none" stroke="midnightblue" points="150.833,-126.636 158.988,-133.4 156.831,-123.027 150.833,-126.636"/>
</g>
</g>
</svg>
