<?xml version="1.0" encoding="UTF-8" standalone="no"?>
<!DOCTYPE svg PUBLIC "-//W3C//DTD SVG 1.1//EN"
 "http://www.w3.org/Graphics/SVG/1.1/DTD/svg11.dtd">
<!-- Generated by graphviz version 2.38.0 (20140413.2041)
 -->
<!-- Title: project.android.net.Client.sendStopSignal Pages: 1 -->
<svg width="1077pt" height="115pt"
 viewBox="0.00 0.00 1077.00 115.00" xmlns="http://www.w3.org/2000/svg" xmlns:xlink="http://www.w3.org/1999/xlink">
<g id="graph0" class="graph" transform="scale(1 1) rotate(0) translate(4 111)">
<title>project.android.net.Client.sendStopSignal</title>
<polygon fill="white" stroke="none" points="-4,4 -4,-111 1073,-111 1073,4 -4,4"/>
<!-- Node1 -->
<g id="node1" class="node"><title>Node1</title>
<polygon fill="#bfbfbf" stroke="black" points="0,-39.5 0,-65.5 125,-65.5 125,-39.5 0,-39.5"/>
<text text-anchor="start" x="8" y="-55.1" font-family="Helvetica,sans-Serif" font-size="8.00">project.android.net.Client.send</text>
<text text-anchor="middle" x="62.5" y="-46.1" font-family="Helvetica,sans-Serif" font-size="8.00">StopSignal</text>
</g>
<!-- Node2 -->
<g id="node2" class="node"><title>Node2</title>
<g id="a_node2"><a xlink:href="a00006.html#aee2a392b8b0500023dba15b60d3315d2" target="_top" xlink:title="Returns a list of ServerInfo objects. ">
<polygon fill="white" stroke="black" points="161,-39.5 161,-65.5 274,-65.5 274,-39.5 161,-39.5"/>
<text text-anchor="start" x="169" y="-55.1" font-family="Helvetica,sans-Serif" font-size="8.00">project.android.Connection</text>
<text text-anchor="middle" x="217.5" y="-46.1" font-family="Helvetica,sans-Serif" font-size="8.00">Fragment.getNetworkList</text>
</a>
</g>
</g>
<!-- Node1&#45;&gt;Node2 -->
<g id="edge1" class="edge"><title>Node1&#45;&gt;Node2</title>
<path fill="none" stroke="midnightblue" d="M135.315,-52.5C143.909,-52.5 152.581,-52.5 160.897,-52.5"/>
<polygon fill="midnightblue" stroke="midnightblue" points="135.29,-49.0001 125.29,-52.5 135.29,-56.0001 135.29,-49.0001"/>
</g>
<!-- Node3 -->
<g id="node3" class="node"><title>Node3</title>
<g id="a_node3"><a xlink:href="a00008.html#a9b4dd18431aa7ebd37321a0d2b1d2539" target="_top" xlink:title="Overrides the ArrayAdapter.getCount() method. ">
<polygon fill="white" stroke="black" points="318.5,-80.5 318.5,-106.5 460.5,-106.5 460.5,-80.5 318.5,-80.5"/>
<text text-anchor="start" x="326.5" y="-96.1" font-family="Helvetica,sans-Serif" font-size="8.00">project.android.CustomAdapter.get</text>
<text text-anchor="middle" x="389.5" y="-87.1" font-family="Helvetica,sans-Serif" font-size="8.00">Count</text>
</a>
</g>
</g>
<!-- Node2&#45;&gt;Node3 -->
<g id="edge2" class="edge"><title>Node2&#45;&gt;Node3</title>
<path fill="none" stroke="midnightblue" d="M282.649,-67.9712C299.723,-72.0891 317.994,-76.4956 334.467,-80.4686"/>
<polygon fill="midnightblue" stroke="midnightblue" points="283.298,-64.5276 272.756,-65.5854 281.657,-71.3324 283.298,-64.5276"/>
</g>
<!-- Node4 -->
<g id="node4" class="node"><title>Node4</title>
<g id="a_node4"><a xlink:href="a00008.html#a6b2523e50305753cb8c2893dc659a1ae" target="_top" xlink:title="Overrides ArrayAdapter.getView(int, View, ViewGroup) method. ">
<polygon fill="white" stroke="black" points="310,-44 310,-61 469,-61 469,-44 310,-44"/>
<text text-anchor="middle" x="389.5" y="-50.6" font-family="Helvetica,sans-Serif" font-size="8.00">project.android.CustomAdapter.getView</text>
</a>
</g>
</g>
<!-- Node2&#45;&gt;Node4 -->
<g id="edge3" class="edge"><title>Node2&#45;&gt;Node4</title>
<path fill="none" stroke="midnightblue" d="M284.252,-52.5C292.648,-52.5 301.31,-52.5 309.884,-52.5"/>
<polygon fill="midnightblue" stroke="midnightblue" points="284.164,-49.0001 274.164,-52.5 284.164,-56.0001 284.164,-49.0001"/>
</g>
<!-- Node5 -->
<g id="node5" class="node"><title>Node5</title>
<g id="a_node5"><a xlink:href="a00006.html#a863b30e1ce16c16e6dba6bebe8d8c45e" target="_top" xlink:title="Returns the View of the clicked list item. ">
<polygon fill="white" stroke="black" points="505,-42.5 505,-68.5 624,-68.5 624,-42.5 505,-42.5"/>
<text text-anchor="start" x="513" y="-58.1" font-family="Helvetica,sans-Serif" font-size="8.00">project.android.Connection</text>
<text text-anchor="middle" x="564.5" y="-49.1" font-family="Helvetica,sans-Serif" font-size="8.00">Fragment.getViewByPosition</text>
</a>
</g>
</g>
<!-- Node4&#45;&gt;Node5 -->
<g id="edge4" class="edge"><title>Node4&#45;&gt;Node5</title>
<path fill="none" stroke="midnightblue" d="M479.348,-54.0407C488.038,-54.1914 496.697,-54.3416 504.972,-54.4851"/>
<polygon fill="midnightblue" stroke="midnightblue" points="479.213,-50.5379 469.154,-53.8639 479.091,-57.5369 479.213,-50.5379"/>
</g>
<!-- Node6 -->
<g id="node6" class="node"><title>Node6</title>
<g id="a_node6"><a xlink:href="a00006.html#a5ae4f9d7872792288afb3de65ab4c2b0" target="_top" xlink:title="Sets an icon for an inactive server. ">
<polygon fill="white" stroke="black" points="660,-0.5 660,-26.5 773,-26.5 773,-0.5 660,-0.5"/>
<text text-anchor="start" x="668" y="-16.1" font-family="Helvetica,sans-Serif" font-size="8.00">project.android.Connection</text>
<text text-anchor="middle" x="716.5" y="-7.1" font-family="Helvetica,sans-Serif" font-size="8.00">Fragment.resetIcon</text>
</a>
</g>
</g>
<!-- Node5&#45;&gt;Node6 -->
<g id="edge5" class="edge"><title>Node5&#45;&gt;Node6</title>
<path fill="none" stroke="midnightblue" d="M622.094,-39.6538C637.531,-35.3313 654.077,-30.6984 668.89,-26.5508"/>
<polygon fill="midnightblue" stroke="midnightblue" points="620.825,-36.3744 612.139,-42.4412 622.712,-43.1152 620.825,-36.3744"/>
</g>
<!-- Node9 -->
<g id="node9" class="node"><title>Node9</title>
<g id="a_node9"><a xlink:href="a00006.html#af0e6f7c8aa02553792fd18fbb5e98a2e" target="_top" xlink:title="Sets an icon for an active server. ">
<polygon fill="white" stroke="black" points="660,-45.5 660,-71.5 773,-71.5 773,-45.5 660,-45.5"/>
<text text-anchor="start" x="668" y="-61.1" font-family="Helvetica,sans-Serif" font-size="8.00">project.android.Connection</text>
<text text-anchor="middle" x="716.5" y="-52.1" font-family="Helvetica,sans-Serif" font-size="8.00">Fragment.setIcon</text>
</a>
</g>
</g>
<!-- Node5&#45;&gt;Node9 -->
<g id="edge9" class="edge"><title>Node5&#45;&gt;Node9</title>
<path fill="none" stroke="midnightblue" d="M634.568,-56.8814C643.008,-57.0502 651.547,-57.2209 659.757,-57.3851"/>
<polygon fill="midnightblue" stroke="midnightblue" points="634.421,-53.3778 624.353,-56.6771 634.281,-60.3764 634.421,-53.3778"/>
</g>
<!-- Node6&#45;&gt;Node2 -->
<g id="edge8" class="edge"><title>Node6&#45;&gt;Node2</title>
<path fill="none" stroke="midnightblue" d="M649.386,-14.0373C568.91,-15.3556 429.013,-19.7882 310,-34.5 298.431,-35.9301 286.132,-37.9795 274.429,-40.1869"/>
<polygon fill="midnightblue" stroke="midnightblue" points="649.913,-17.5298 659.859,-13.8779 649.806,-10.5306 649.913,-17.5298"/>
</g>
<!-- Node7 -->
<g id="node7" class="node"><title>Node7</title>
<g id="a_node7"><a xlink:href="a00005.html#a9f6765867ad54f586cc7b329213a2ac3" target="_top" xlink:title="Performs operations for reading data from a server. ">
<polygon fill="white" stroke="black" points="814,-0.5 814,-26.5 920,-26.5 920,-0.5 814,-0.5"/>
<text text-anchor="start" x="822" y="-16.1" font-family="Helvetica,sans-Serif" font-size="8.00">project.android.net.Client</text>
<text text-anchor="middle" x="867" y="-7.1" font-family="Helvetica,sans-Serif" font-size="8.00">IOThread.run</text>
</a>
</g>
</g>
<!-- Node6&#45;&gt;Node7 -->
<g id="edge6" class="edge"><title>Node6&#45;&gt;Node7</title>
<path fill="none" stroke="midnightblue" d="M783.348,-13.5C793.579,-13.5 804.026,-13.5 813.897,-13.5"/>
<polygon fill="midnightblue" stroke="midnightblue" points="783.218,-10.0001 773.218,-13.5 783.218,-17.0001 783.218,-10.0001"/>
</g>
<!-- Node8 -->
<g id="node8" class="node"><title>Node8</title>
<g id="a_node8"><a xlink:href="a00005.html#aa57b04eb44ae7982a7a79cdb7c484144" target="_top" xlink:title="Constructor. ">
<polygon fill="white" stroke="black" points="961,-0.5 961,-26.5 1069,-26.5 1069,-0.5 961,-0.5"/>
<text text-anchor="start" x="969" y="-16.1" font-family="Helvetica,sans-Serif" font-size="8.00">project.android.net.Client</text>
<text text-anchor="middle" x="1015" y="-7.1" font-family="Helvetica,sans-Serif" font-size="8.00">IOThread.ClientIOThread</text>
</a>
</g>
</g>
<!-- Node7&#45;&gt;Node8 -->
<g id="edge7" class="edge"><title>Node7&#45;&gt;Node8</title>
<path fill="none" stroke="midnightblue" d="M930.583,-13.5C940.577,-13.5 950.837,-13.5 960.593,-13.5"/>
<polygon fill="midnightblue" stroke="midnightblue" points="930.297,-10.0001 920.297,-13.5 930.297,-17.0001 930.297,-10.0001"/>
</g>
<!-- Node10 -->
<g id="node10" class="node"><title>Node10</title>
<g id="a_node10"><a xlink:href="a00019.html#a6b623423ab726a2d5008717960032b6d" target="_top" xlink:title="Overrides the android.app.Service.onStartCommand(Intent, int, int). ">
<polygon fill="white" stroke="black" points="809,-45.5 809,-71.5 925,-71.5 925,-45.5 809,-45.5"/>
<text text-anchor="start" x="817" y="-61.1" font-family="Helvetica,sans-Serif" font-size="8.00">project.android.net.Network</text>
<text text-anchor="middle" x="867" y="-52.1" font-family="Helvetica,sans-Serif" font-size="8.00">Service.onStartCommand</text>
</a>
</g>
</g>
<!-- Node9&#45;&gt;Node10 -->
<g id="edge10" class="edge"><title>Node9&#45;&gt;Node10</title>
<path fill="none" stroke="midnightblue" d="M783.486,-58.5C791.989,-58.5 800.638,-58.5 808.979,-58.5"/>
<polygon fill="midnightblue" stroke="midnightblue" points="783.218,-55.0001 773.218,-58.5 783.218,-62.0001 783.218,-55.0001"/>
</g>
</g>
</svg>
