<?xml version="1.0" encoding="UTF-8" standalone="no"?>
<!DOCTYPE svg PUBLIC "-//W3C//DTD SVG 1.1//EN"
 "http://www.w3.org/Graphics/SVG/1.1/DTD/svg11.dtd">
<!-- Generated by graphviz version 2.38.0 (20140413.2041)
 -->
<!-- Title: project.android.TouchpadFragment Pages: 1 -->
<svg width="246pt" height="193pt"
 viewBox="0.00 0.00 246.00 193.00" xmlns="http://www.w3.org/2000/svg" xmlns:xlink="http://www.w3.org/1999/xlink">
<g id="graph0" class="graph" transform="scale(1 1) rotate(0) translate(4 189)">
<title>project.android.TouchpadFragment</title>
<polygon fill="white" stroke="none" points="-4,4 -4,-189 242,-189 242,4 -4,4"/>
<!-- Node1 -->
<g id="node1" class="node"><title>Node1</title>
<polygon fill="#bfbfbf" stroke="black" points="52,-0.5 52,-96.5 160,-96.5 160,-0.5 52,-0.5"/>
<text text-anchor="start" x="60" y="-86.1" font-family="Helvetica,sans-Serif" font-size="8.00">project.android.Touchpad</text>
<text text-anchor="middle" x="106" y="-77.1" font-family="Helvetica,sans-Serif" font-size="8.00">Fragment</text>
<polyline fill="none" stroke="black" points="52,-70.5 160,-70.5 "/>
<text text-anchor="middle" x="106" y="-60.1" font-family="Helvetica,sans-Serif" font-size="8.00"> </text>
<polyline fill="none" stroke="black" points="52,-53.5 160,-53.5 "/>
<text text-anchor="start" x="60" y="-43.1" font-family="Helvetica,sans-Serif" font-size="8.00">+ onClick()</text>
<text text-anchor="start" x="60" y="-34.1" font-family="Helvetica,sans-Serif" font-size="8.00">+ onCreateView()</text>
<text text-anchor="start" x="60" y="-25.1" font-family="Helvetica,sans-Serif" font-size="8.00">+ onPause()</text>
<text text-anchor="start" x="60" y="-16.1" font-family="Helvetica,sans-Serif" font-size="8.00">+ onResume()</text>
<text text-anchor="start" x="60" y="-7.1" font-family="Helvetica,sans-Serif" font-size="8.00">+ onTouch()</text>
</g>
<!-- Node2 -->
<g id="node2" class="node"><title>Node2</title>
<polygon fill="white" stroke="#bfbfbf" points="0,-133.5 0,-184.5 52,-184.5 52,-133.5 0,-133.5"/>
<text text-anchor="middle" x="26" y="-174.1" font-family="Helvetica,sans-Serif" font-size="8.00">Fragment</text>
<polyline fill="none" stroke="#bfbfbf" points="0,-167.5 52,-167.5 "/>
<text text-anchor="middle" x="26" y="-157.1" font-family="Helvetica,sans-Serif" font-size="8.00"> </text>
<polyline fill="none" stroke="#bfbfbf" points="0,-150.5 52,-150.5 "/>
<text text-anchor="middle" x="26" y="-140.1" font-family="Helvetica,sans-Serif" font-size="8.00"> </text>
</g>
<!-- Node2&#45;&gt;Node1 -->
<g id="edge1" class="edge"><title>Node2&#45;&gt;Node1</title>
<path fill="none" stroke="midnightblue" d="M50.2494,-125.112C56.8565,-116.151 64.146,-106.265 71.2144,-96.6779"/>
<polygon fill="none" stroke="midnightblue" points="47.2707,-123.254 44.1532,-133.38 52.9048,-127.408 47.2707,-123.254"/>
</g>
<!-- Node3 -->
<g id="node3" class="node"><title>Node3</title>
<polygon fill="white" stroke="#bfbfbf" points="70,-133.5 70,-184.5 142,-184.5 142,-133.5 70,-133.5"/>
<text text-anchor="middle" x="106" y="-174.1" font-family="Helvetica,sans-Serif" font-size="8.00">OnClickListener</text>
<polyline fill="none" stroke="#bfbfbf" points="70,-167.5 142,-167.5 "/>
<text text-anchor="middle" x="106" y="-157.1" font-family="Helvetica,sans-Serif" font-size="8.00"> </text>
<polyline fill="none" stroke="#bfbfbf" points="70,-150.5 142,-150.5 "/>
<text text-anchor="middle" x="106" y="-140.1" font-family="Helvetica,sans-Serif" font-size="8.00"> </text>
</g>
<!-- Node3&#45;&gt;Node1 -->
<g id="edge2" class="edge"><title>Node3&#45;&gt;Node1</title>
<path fill="none" stroke="midnightblue" d="M106,-123.158C106,-114.726 106,-105.573 106,-96.6779"/>
<polygon fill="none" stroke="midnightblue" points="102.5,-123.38 106,-133.38 109.5,-123.38 102.5,-123.38"/>
</g>
<!-- Node4 -->
<g id="node4" class="node"><title>Node4</title>
<polygon fill="white" stroke="#bfbfbf" points="160,-133.5 160,-184.5 238,-184.5 238,-133.5 160,-133.5"/>
<text text-anchor="middle" x="199" y="-174.1" font-family="Helvetica,sans-Serif" font-size="8.00">OnTouchListener</text>
<polyline fill="none" stroke="#bfbfbf" points="160,-167.5 238,-167.5 "/>
<text text-anchor="middle" x="199" y="-157.1" font-family="Helvetica,sans-Serif" font-size="8.00"> </text>
<polyline fill="none" stroke="#bfbfbf" points="160,-150.5 238,-150.5 "/>
<text text-anchor="middle" x="199" y="-140.1" font-family="Helvetica,sans-Serif" font-size="8.00"> </text>
</g>
<!-- Node4&#45;&gt;Node1 -->
<g id="edge3" class="edge"><title>Node4&#45;&gt;Node1</title>
<path fill="none" stroke="midnightblue" d="M171.284,-125.665C163.479,-116.559 154.825,-106.462 146.438,-96.6779"/>
<polygon fill="none" stroke="midnightblue" points="168.732,-128.065 177.897,-133.38 174.046,-123.509 168.732,-128.065"/>
</g>
</g>
</svg>
