<?xml version="1.0" encoding="UTF-8" standalone="no"?>
<!DOCTYPE svg PUBLIC "-//W3C//DTD SVG 1.1//EN"
 "http://www.w3.org/Graphics/SVG/1.1/DTD/svg11.dtd">
<!-- Generated by graphviz version 2.38.0 (20140413.2041)
 -->
<!-- Title: project.android.sensor.representation.Quaternion.addQuat Pages: 1 -->
<svg width="348pt" height="350pt"
 viewBox="0.00 0.00 348.00 350.00" xmlns="http://www.w3.org/2000/svg" xmlns:xlink="http://www.w3.org/1999/xlink">
<g id="graph0" class="graph" transform="scale(1 1) rotate(0) translate(4 346)">
<title>project.android.sensor.representation.Quaternion.addQuat</title>
<polygon fill="white" stroke="none" points="-4,4 -4,-346 344,-346 344,4 -4,4"/>
<!-- Node1 -->
<g id="node1" class="node"><title>Node1</title>
<polygon fill="#bfbfbf" stroke="black" points="0,-157.5 0,-183.5 152,-183.5 152,-157.5 0,-157.5"/>
<text text-anchor="start" x="8" y="-173.1" font-family="Helvetica,sans-Serif" font-size="8.00">project.android.sensor.representation.</text>
<text text-anchor="middle" x="76" y="-164.1" font-family="Helvetica,sans-Serif" font-size="8.00">Quaternion.addQuat</text>
</g>
<!-- Node2 -->
<g id="node2" class="node"><title>Node2</title>
<g id="a_node2"><a xlink:href="a00027.html#a887ec4cfb002f50f8eec8f73501110f3" target="_top" xlink:title="Sets the X&#45;dimension of this Vector4f. ">
<polygon fill="white" stroke="black" points="188,-315.5 188,-341.5 340,-341.5 340,-315.5 188,-315.5"/>
<text text-anchor="start" x="196" y="-331.1" font-family="Helvetica,sans-Serif" font-size="8.00">project.android.sensor.representation.</text>
<text text-anchor="middle" x="264" y="-322.1" font-family="Helvetica,sans-Serif" font-size="8.00">Vector4f.setX</text>
</a>
</g>
</g>
<!-- Node1&#45;&gt;Node2 -->
<g id="edge1" class="edge"><title>Node1&#45;&gt;Node2</title>
<path fill="none" stroke="midnightblue" d="M83.9979,-183.552C99.2078,-210.663 137.971,-273.306 188,-306.5 190.438,-308.118 192.998,-309.619 195.641,-311.012"/>
<polygon fill="midnightblue" stroke="midnightblue" points="194.354,-314.274 204.894,-315.342 197.321,-307.934 194.354,-314.274"/>
</g>
<!-- Node3 -->
<g id="node3" class="node"><title>Node3</title>
<g id="a_node3"><a xlink:href="a00027.html#af69dc14afa12c757152f93bd643e791f" target="_top" xlink:title="Returns the X&#45;dimension of this Vector4f. ">
<polygon fill="white" stroke="black" points="188,-270.5 188,-296.5 340,-296.5 340,-270.5 188,-270.5"/>
<text text-anchor="start" x="196" y="-286.1" font-family="Helvetica,sans-Serif" font-size="8.00">project.android.sensor.representation.</text>
<text text-anchor="middle" x="264" y="-277.1" font-family="Helvetica,sans-Serif" font-size="8.00">Vector4f.getX</text>
</a>
</g>
</g>
<!-- Node1&#45;&gt;Node3 -->
<g id="edge2" class="edge"><title>Node1&#45;&gt;Node3</title>
<path fill="none" stroke="midnightblue" d="M89.4104,-183.605C108.714,-203.258 147.899,-240.315 188,-261.5 191.543,-263.372 195.267,-265.105 199.082,-266.705"/>
<polygon fill="midnightblue" stroke="midnightblue" points="198.116,-270.084 208.705,-270.417 200.635,-263.553 198.116,-270.084"/>
</g>
<!-- Node4 -->
<g id="node4" class="node"><title>Node4</title>
<g id="a_node4"><a xlink:href="a00027.html#a85c790b5bbb7c702cb0e49585b261082" target="_top" xlink:title="Sets the Y&#45;dimension of this Vector4f. ">
<polygon fill="white" stroke="black" points="188,-225.5 188,-251.5 340,-251.5 340,-225.5 188,-225.5"/>
<text text-anchor="start" x="196" y="-241.1" font-family="Helvetica,sans-Serif" font-size="8.00">project.android.sensor.representation.</text>
<text text-anchor="middle" x="264" y="-232.1" font-family="Helvetica,sans-Serif" font-size="8.00">Vector4f.setY</text>
</a>
</g>
</g>
<!-- Node1&#45;&gt;Node4 -->
<g id="edge3" class="edge"><title>Node1&#45;&gt;Node4</title>
<path fill="none" stroke="midnightblue" d="M106.346,-183.676C128.53,-193.387 159.869,-206.577 188,-216.5 193.657,-218.495 199.596,-220.457 205.551,-222.338"/>
<polygon fill="midnightblue" stroke="midnightblue" points="204.955,-225.817 215.543,-225.419 207.018,-219.128 204.955,-225.817"/>
</g>
<!-- Node5 -->
<g id="node5" class="node"><title>Node5</title>
<g id="a_node5"><a xlink:href="a00027.html#ae3ecced2eebe634a5d3842d7c9f6659c" target="_top" xlink:title="Returns the Y&#45;dimension of this Vector4f. ">
<polygon fill="white" stroke="black" points="188,-180.5 188,-206.5 340,-206.5 340,-180.5 188,-180.5"/>
<text text-anchor="start" x="196" y="-196.1" font-family="Helvetica,sans-Serif" font-size="8.00">project.android.sensor.representation.</text>
<text text-anchor="middle" x="264" y="-187.1" font-family="Helvetica,sans-Serif" font-size="8.00">Vector4f.getY</text>
</a>
</g>
</g>
<!-- Node1&#45;&gt;Node5 -->
<g id="edge4" class="edge"><title>Node1&#45;&gt;Node5</title>
<path fill="none" stroke="midnightblue" d="M152.117,-179.789C160.596,-180.837 169.281,-181.911 177.875,-182.974"/>
<polygon fill="midnightblue" stroke="midnightblue" points="177.551,-186.46 187.905,-184.214 178.41,-179.513 177.551,-186.46"/>
</g>
<!-- Node6 -->
<g id="node6" class="node"><title>Node6</title>
<g id="a_node6"><a xlink:href="a00027.html#a8bd26391867c8d1d4b105a63764d394f" target="_top" xlink:title="Sets the Z&#45;dimension of this Vector4f. ">
<polygon fill="white" stroke="black" points="188,-135.5 188,-161.5 340,-161.5 340,-135.5 188,-135.5"/>
<text text-anchor="start" x="196" y="-151.1" font-family="Helvetica,sans-Serif" font-size="8.00">project.android.sensor.representation.</text>
<text text-anchor="middle" x="264" y="-142.1" font-family="Helvetica,sans-Serif" font-size="8.00">Vector4f.setZ</text>
</a>
</g>
</g>
<!-- Node1&#45;&gt;Node6 -->
<g id="edge5" class="edge"><title>Node1&#45;&gt;Node6</title>
<path fill="none" stroke="midnightblue" d="M152.117,-161.615C160.596,-160.612 169.281,-159.585 177.875,-158.569"/>
<polygon fill="midnightblue" stroke="midnightblue" points="178.385,-162.033 187.905,-157.382 177.563,-155.081 178.385,-162.033"/>
</g>
<!-- Node7 -->
<g id="node7" class="node"><title>Node7</title>
<g id="a_node7"><a xlink:href="a00027.html#a6dc64afde1e04300a5175f67865c45ac" target="_top" xlink:title="Returns the Z&#45;dimension of this Vector4f. ">
<polygon fill="white" stroke="black" points="188,-90.5 188,-116.5 340,-116.5 340,-90.5 188,-90.5"/>
<text text-anchor="start" x="196" y="-106.1" font-family="Helvetica,sans-Serif" font-size="8.00">project.android.sensor.representation.</text>
<text text-anchor="middle" x="264" y="-97.1" font-family="Helvetica,sans-Serif" font-size="8.00">Vector4f.getZ</text>
</a>
</g>
</g>
<!-- Node1&#45;&gt;Node7 -->
<g id="edge6" class="edge"><title>Node1&#45;&gt;Node7</title>
<path fill="none" stroke="midnightblue" d="M108.326,-157.307C130.423,-148.193 160.811,-136.041 188,-126.5 194.562,-124.197 201.49,-121.898 208.378,-119.693"/>
<polygon fill="midnightblue" stroke="midnightblue" points="209.904,-122.881 218.391,-116.539 207.802,-116.205 209.904,-122.881"/>
</g>
<!-- Node8 -->
<g id="node8" class="node"><title>Node8</title>
<g id="a_node8"><a xlink:href="a00027.html#af52ccfec44e8d3fa81707b1fd816b153" target="_top" xlink:title="Sets the W&#45;dimension of this Vector4f. ">
<polygon fill="white" stroke="black" points="188,-45.5 188,-71.5 340,-71.5 340,-45.5 188,-45.5"/>
<text text-anchor="start" x="196" y="-61.1" font-family="Helvetica,sans-Serif" font-size="8.00">project.android.sensor.representation.</text>
<text text-anchor="middle" x="264" y="-52.1" font-family="Helvetica,sans-Serif" font-size="8.00">Vector4f.setW</text>
</a>
</g>
</g>
<!-- Node1&#45;&gt;Node8 -->
<g id="edge7" class="edge"><title>Node1&#45;&gt;Node8</title>
<path fill="none" stroke="midnightblue" d="M89.8241,-157.443C109.358,-138.243 148.484,-102.41 188,-81.5 192.288,-79.2307 196.836,-77.1476 201.487,-75.2428"/>
<polygon fill="midnightblue" stroke="midnightblue" points="203.024,-78.4031 211.13,-71.5809 200.539,-71.8591 203.024,-78.4031"/>
</g>
<!-- Node9 -->
<g id="node9" class="node"><title>Node9</title>
<g id="a_node9"><a xlink:href="a00027.html#ac1059d3ba0cf2ae04a9fb47c8f1edb3c" target="_top" xlink:title="Returns the W&#45;dimension of this Vector4f. ">
<polygon fill="white" stroke="black" points="188,-0.5 188,-26.5 340,-26.5 340,-0.5 188,-0.5"/>
<text text-anchor="start" x="196" y="-16.1" font-family="Helvetica,sans-Serif" font-size="8.00">project.android.sensor.representation.</text>
<text text-anchor="middle" x="264" y="-7.1" font-family="Helvetica,sans-Serif" font-size="8.00">Vector4f.getW</text>
</a>
</g>
</g>
<!-- Node1&#45;&gt;Node9 -->
<g id="edge8" class="edge"><title>Node1&#45;&gt;Node9</title>
<path fill="none" stroke="midnightblue" d="M84.3169,-157.283C99.8451,-130.45 138.744,-69.3572 188,-36.5 191.13,-34.4122 194.458,-32.5071 197.904,-30.7696"/>
<polygon fill="midnightblue" stroke="midnightblue" points="199.575,-33.8556 207.25,-26.5517 196.695,-27.4753 199.575,-33.8556"/>
</g>
</g>
</svg>
