<?xml version="1.0" encoding="UTF-8" standalone="no"?>
<!DOCTYPE svg PUBLIC "-//W3C//DTD SVG 1.1//EN"
 "http://www.w3.org/Graphics/SVG/1.1/DTD/svg11.dtd">
<!-- Generated by graphviz version 2.38.0 (20140413.2041)
 -->
<!-- Title: project.android.MainActivity.getConnectionFragment Pages: 1 -->
<svg width="459pt" height="225pt"
 viewBox="0.00 0.00 459.00 224.50" xmlns="http://www.w3.org/2000/svg" xmlns:xlink="http://www.w3.org/1999/xlink">
<g id="graph0" class="graph" transform="scale(1 1) rotate(0) translate(4 220.5)">
<title>project.android.MainActivity.getConnectionFragment</title>
<polygon fill="white" stroke="none" points="-4,4 -4,-220.5 455,-220.5 455,4 -4,4"/>
<!-- Node1 -->
<g id="node1" class="node"><title>Node1</title>
<polygon fill="#bfbfbf" stroke="black" points="0,-90.5 0,-116.5 127,-116.5 127,-90.5 0,-90.5"/>
<text text-anchor="start" x="8" y="-106.1" font-family="Helvetica,sans-Serif" font-size="8.00">project.android.MainActivity.get</text>
<text text-anchor="middle" x="63.5" y="-97.1" font-family="Helvetica,sans-Serif" font-size="8.00">ConnectionFragment</text>
</g>
<!-- Node2 -->
<g id="node2" class="node"><title>Node2</title>
<g id="a_node2"><a xlink:href="a00002.html#a6a138aa4f09588a79c664ee9055f7c38" target="_top" xlink:title="Constructor. ">
<polygon fill="white" stroke="black" points="163,-181 163,-216 307,-216 307,-181 163,-181"/>
<text text-anchor="start" x="171" y="-205.6" font-family="Helvetica,sans-Serif" font-size="8.00">project.android.net.Broadcast</text>
<text text-anchor="start" x="171" y="-196.6" font-family="Helvetica,sans-Serif" font-size="8.00">ReceiverThread.BroadcastReceiver</text>
<text text-anchor="middle" x="235" y="-187.6" font-family="Helvetica,sans-Serif" font-size="8.00">Thread</text>
</a>
</g>
</g>
<!-- Node1&#45;&gt;Node2 -->
<g id="edge1" class="edge"><title>Node1&#45;&gt;Node2</title>
<path fill="none" stroke="midnightblue" d="M88.7638,-122.718C108.086,-137.4 136.24,-157.439 163,-171.5 169.421,-174.874 176.36,-178.044 183.298,-180.943"/>
<polygon fill="midnightblue" stroke="midnightblue" points="90.8585,-119.914 80.799,-116.589 86.5894,-125.461 90.8585,-119.914"/>
</g>
<!-- Node3 -->
<g id="node3" class="node"><title>Node3</title>
<g id="a_node3"><a xlink:href="a00005.html#a9f6765867ad54f586cc7b329213a2ac3" target="_top" xlink:title="Performs operations for reading data from a server. ">
<polygon fill="white" stroke="black" points="182,-135.5 182,-161.5 288,-161.5 288,-135.5 182,-135.5"/>
<text text-anchor="start" x="190" y="-151.1" font-family="Helvetica,sans-Serif" font-size="8.00">project.android.net.Client</text>
<text text-anchor="middle" x="235" y="-142.1" font-family="Helvetica,sans-Serif" font-size="8.00">IOThread.run</text>
</a>
</g>
</g>
<!-- Node1&#45;&gt;Node3 -->
<g id="edge2" class="edge"><title>Node1&#45;&gt;Node3</title>
<path fill="none" stroke="midnightblue" d="M123.465,-119.154C143.481,-124.468 165.617,-130.345 184.79,-135.436"/>
<polygon fill="midnightblue" stroke="midnightblue" points="124.09,-115.699 113.526,-116.516 122.293,-122.465 124.09,-115.699"/>
</g>
<!-- Node5 -->
<g id="node5" class="node"><title>Node5</title>
<g id="a_node5"><a xlink:href="a00007.html#a556383b01c61db89d1256691b1470657" target="_top" xlink:title="Overrides the android.os.AsyncTask.onPreExecute() method of the Android API. ">
<polygon fill="white" stroke="black" points="172,-90.5 172,-116.5 298,-116.5 298,-90.5 172,-90.5"/>
<text text-anchor="start" x="180" y="-106.1" font-family="Helvetica,sans-Serif" font-size="8.00">project.android.net.Connection</text>
<text text-anchor="middle" x="235" y="-97.1" font-family="Helvetica,sans-Serif" font-size="8.00">Task.onPreExecute</text>
</a>
</g>
</g>
<!-- Node1&#45;&gt;Node5 -->
<g id="edge4" class="edge"><title>Node1&#45;&gt;Node5</title>
<path fill="none" stroke="midnightblue" d="M137.192,-103.5C148.753,-103.5 160.619,-103.5 171.906,-103.5"/>
<polygon fill="midnightblue" stroke="midnightblue" points="137.134,-100 127.134,-103.5 137.134,-107 137.134,-100"/>
</g>
<!-- Node6 -->
<g id="node6" class="node"><title>Node6</title>
<g id="a_node6"><a xlink:href="a00008.html#ade9b132efdf8d16ea5c9ab6f7340e581" target="_top" xlink:title="Constructor. ">
<polygon fill="white" stroke="black" points="169.5,-45.5 169.5,-71.5 300.5,-71.5 300.5,-45.5 169.5,-45.5"/>
<text text-anchor="start" x="177.5" y="-61.1" font-family="Helvetica,sans-Serif" font-size="8.00">project.android.CustomAdapter.</text>
<text text-anchor="middle" x="235" y="-52.1" font-family="Helvetica,sans-Serif" font-size="8.00">CustomAdapter</text>
</a>
</g>
</g>
<!-- Node1&#45;&gt;Node6 -->
<g id="edge5" class="edge"><title>Node1&#45;&gt;Node6</title>
<path fill="none" stroke="midnightblue" d="M123.465,-87.8455C143.481,-82.5316 165.617,-76.6547 184.79,-71.5645"/>
<polygon fill="midnightblue" stroke="midnightblue" points="122.293,-84.5353 113.526,-90.4841 124.09,-91.3009 122.293,-84.5353"/>
</g>
<!-- Node7 -->
<g id="node7" class="node"><title>Node7</title>
<g id="a_node7"><a xlink:href="a00019.html#a6b623423ab726a2d5008717960032b6d" target="_top" xlink:title="Overrides the android.app.Service.onStartCommand(Intent, int, int). ">
<polygon fill="white" stroke="black" points="177,-0.5 177,-26.5 293,-26.5 293,-0.5 177,-0.5"/>
<text text-anchor="start" x="185" y="-16.1" font-family="Helvetica,sans-Serif" font-size="8.00">project.android.net.Network</text>
<text text-anchor="middle" x="235" y="-7.1" font-family="Helvetica,sans-Serif" font-size="8.00">Service.onStartCommand</text>
</a>
</g>
</g>
<!-- Node1&#45;&gt;Node7 -->
<g id="edge6" class="edge"><title>Node1&#45;&gt;Node7</title>
<path fill="none" stroke="midnightblue" d="M88.6174,-84.2151C107.86,-69.5589 135.979,-49.7298 163,-36.5 170.564,-32.7966 178.864,-29.491 187.039,-26.6201"/>
<polygon fill="midnightblue" stroke="midnightblue" points="86.4608,-81.4584 80.69,-90.3437 90.7422,-86.9964 86.4608,-81.4584"/>
</g>
<!-- Node4 -->
<g id="node4" class="node"><title>Node4</title>
<g id="a_node4"><a xlink:href="a00005.html#aa57b04eb44ae7982a7a79cdb7c484144" target="_top" xlink:title="Constructor. ">
<polygon fill="white" stroke="black" points="343,-135.5 343,-161.5 451,-161.5 451,-135.5 343,-135.5"/>
<text text-anchor="start" x="351" y="-151.1" font-family="Helvetica,sans-Serif" font-size="8.00">project.android.net.Client</text>
<text text-anchor="middle" x="397" y="-142.1" font-family="Helvetica,sans-Serif" font-size="8.00">IOThread.ClientIOThread</text>
</a>
</g>
</g>
<!-- Node3&#45;&gt;Node4 -->
<g id="edge3" class="edge"><title>Node3&#45;&gt;Node4</title>
<path fill="none" stroke="midnightblue" d="M298.419,-148.5C313.135,-148.5 328.686,-148.5 342.945,-148.5"/>
<polygon fill="midnightblue" stroke="midnightblue" points="298.39,-145 288.39,-148.5 298.39,-152 298.39,-145"/>
</g>
</g>
</svg>
