<?xml version="1.0" encoding="UTF-8" standalone="no"?>
<!DOCTYPE svg PUBLIC "-//W3C//DTD SVG 1.1//EN"
 "http://www.w3.org/Graphics/SVG/1.1/DTD/svg11.dtd">
<!-- Generated by graphviz version 2.38.0 (20140413.2041)
 -->
<!-- Title: project.android.net.ServerInfo.setPairingKey Pages: 1 -->
<svg width="617pt" height="76pt"
 viewBox="0.00 0.00 617.00 76.00" xmlns="http://www.w3.org/2000/svg" xmlns:xlink="http://www.w3.org/1999/xlink">
<g id="graph0" class="graph" transform="scale(1 1) rotate(0) translate(4 72)">
<title>project.android.net.ServerInfo.setPairingKey</title>
<polygon fill="white" stroke="none" points="-4,4 -4,-72 613,-72 613,4 -4,4"/>
<!-- Node1 -->
<g id="node1" class="node"><title>Node1</title>
<polygon fill="#bfbfbf" stroke="black" points="0,-20.5 0,-46.5 110,-46.5 110,-20.5 0,-20.5"/>
<text text-anchor="start" x="8" y="-36.1" font-family="Helvetica,sans-Serif" font-size="8.00">project.android.net.Server</text>
<text text-anchor="middle" x="55" y="-27.1" font-family="Helvetica,sans-Serif" font-size="8.00">Info.setPairingKey</text>
</g>
<!-- Node2 -->
<g id="node2" class="node"><title>Node2</title>
<g id="a_node2"><a xlink:href="a00006.html#aee2a392b8b0500023dba15b60d3315d2" target="_top" xlink:title="Returns a list of ServerInfo objects. ">
<polygon fill="white" stroke="black" points="146,-20.5 146,-46.5 259,-46.5 259,-20.5 146,-20.5"/>
<text text-anchor="start" x="154" y="-36.1" font-family="Helvetica,sans-Serif" font-size="8.00">project.android.Connection</text>
<text text-anchor="middle" x="202.5" y="-27.1" font-family="Helvetica,sans-Serif" font-size="8.00">Fragment.getNetworkList</text>
</a>
</g>
</g>
<!-- Node1&#45;&gt;Node2 -->
<g id="edge1" class="edge"><title>Node1&#45;&gt;Node2</title>
<path fill="none" stroke="midnightblue" d="M120.407,-33.5C128.88,-33.5 137.507,-33.5 145.818,-33.5"/>
<polygon fill="midnightblue" stroke="midnightblue" points="120.179,-30.0001 110.179,-33.5 120.179,-37.0001 120.179,-30.0001"/>
</g>
<!-- Node3 -->
<g id="node3" class="node"><title>Node3</title>
<g id="a_node3"><a xlink:href="a00008.html#a9b4dd18431aa7ebd37321a0d2b1d2539" target="_top" xlink:title="Overrides the ArrayAdapter.getCount() method. ">
<polygon fill="white" stroke="black" points="303.5,-41.5 303.5,-67.5 445.5,-67.5 445.5,-41.5 303.5,-41.5"/>
<text text-anchor="start" x="311.5" y="-57.1" font-family="Helvetica,sans-Serif" font-size="8.00">project.android.CustomAdapter.get</text>
<text text-anchor="middle" x="374.5" y="-48.1" font-family="Helvetica,sans-Serif" font-size="8.00">Count</text>
</a>
</g>
</g>
<!-- Node2&#45;&gt;Node3 -->
<g id="edge2" class="edge"><title>Node2&#45;&gt;Node3</title>
<path fill="none" stroke="midnightblue" d="M269.285,-41.6263C280.474,-43.0085 292.132,-44.4486 303.427,-45.8439"/>
<polygon fill="midnightblue" stroke="midnightblue" points="269.518,-38.1286 259.164,-40.3762 268.66,-45.0758 269.518,-38.1286"/>
</g>
<!-- Node4 -->
<g id="node4" class="node"><title>Node4</title>
<g id="a_node4"><a xlink:href="a00008.html#a6b2523e50305753cb8c2893dc659a1ae" target="_top" xlink:title="Overrides ArrayAdapter.getView(int, View, ViewGroup) method. ">
<polygon fill="white" stroke="black" points="295,-5 295,-22 454,-22 454,-5 295,-5"/>
<text text-anchor="middle" x="374.5" y="-11.6" font-family="Helvetica,sans-Serif" font-size="8.00">project.android.CustomAdapter.getView</text>
</a>
</g>
</g>
<!-- Node2&#45;&gt;Node4 -->
<g id="edge3" class="edge"><title>Node2&#45;&gt;Node4</title>
<path fill="none" stroke="midnightblue" d="M269.369,-25.7507C279.731,-24.5316 290.494,-23.2654 300.996,-22.0298"/>
<polygon fill="midnightblue" stroke="midnightblue" points="268.687,-22.3067 259.164,-26.9513 269.505,-29.2588 268.687,-22.3067"/>
</g>
<!-- Node5 -->
<g id="node5" class="node"><title>Node5</title>
<g id="a_node5"><a xlink:href="a00006.html#a863b30e1ce16c16e6dba6bebe8d8c45e" target="_top" xlink:title="Returns the View of the clicked list item. ">
<polygon fill="white" stroke="red" points="490,-0.5 490,-26.5 609,-26.5 609,-0.5 490,-0.5"/>
<text text-anchor="start" x="498" y="-16.1" font-family="Helvetica,sans-Serif" font-size="8.00">project.android.Connection</text>
<text text-anchor="middle" x="549.5" y="-7.1" font-family="Helvetica,sans-Serif" font-size="8.00">Fragment.getViewByPosition</text>
</a>
</g>
</g>
<!-- Node4&#45;&gt;Node5 -->
<g id="edge4" class="edge"><title>Node4&#45;&gt;Node5</title>
<path fill="none" stroke="midnightblue" d="M464.348,-13.5C473.038,-13.5 481.697,-13.5 489.972,-13.5"/>
<polygon fill="midnightblue" stroke="midnightblue" points="464.154,-10.0001 454.154,-13.5 464.154,-17.0001 464.154,-10.0001"/>
</g>
</g>
</svg>
