<?xml version="1.0" encoding="UTF-8" standalone="no"?>
<!DOCTYPE svg PUBLIC "-//W3C//DTD SVG 1.1//EN"
 "http://www.w3.org/Graphics/SVG/1.1/DTD/svg11.dtd">
<!-- Generated by graphviz version 2.38.0 (20140413.2041)
 -->
<!-- Title: project.android.net.ServerInfo.setPairingKey Pages: 1 -->
<svg width="1062pt" height="115pt"
 viewBox="0.00 0.00 1062.00 115.00" xmlns="http://www.w3.org/2000/svg" xmlns:xlink="http://www.w3.org/1999/xlink">
<g id="graph0" class="graph" transform="scale(1 1) rotate(0) translate(4 111)">
<title>project.android.net.ServerInfo.setPairingKey</title>
<polygon fill="white" stroke="none" points="-4,4 -4,-111 1058,-111 1058,4 -4,4"/>
<!-- Node1 -->
<g id="node1" class="node"><title>Node1</title>
<polygon fill="#bfbfbf" stroke="black" points="0,-39.5 0,-65.5 110,-65.5 110,-39.5 0,-39.5"/>
<text text-anchor="start" x="8" y="-55.1" font-family="Helvetica,sans-Serif" font-size="8.00">project.android.net.Server</text>
<text text-anchor="middle" x="55" y="-46.1" font-family="Helvetica,sans-Serif" font-size="8.00">Info.setPairingKey</text>
</g>
<!-- Node2 -->
<g id="node2" class="node"><title>Node2</title>
<g id="a_node2"><a xlink:href="a00006.html#aee2a392b8b0500023dba15b60d3315d2" target="_top" xlink:title="Returns a list of ServerInfo objects. ">
<polygon fill="white" stroke="black" points="146,-39.5 146,-65.5 259,-65.5 259,-39.5 146,-39.5"/>
<text text-anchor="start" x="154" y="-55.1" font-family="Helvetica,sans-Serif" font-size="8.00">project.android.Connection</text>
<text text-anchor="middle" x="202.5" y="-46.1" font-family="Helvetica,sans-Serif" font-size="8.00">Fragment.getNetworkList</text>
</a>
</g>
</g>
<!-- Node1&#45;&gt;Node2 -->
<g id="edge1" class="edge"><title>Node1&#45;&gt;Node2</title>
<path fill="none" stroke="midnightblue" d="M120.407,-52.5C128.88,-52.5 137.507,-52.5 145.818,-52.5"/>
<polygon fill="midnightblue" stroke="midnightblue" points="120.179,-49.0001 110.179,-52.5 120.179,-56.0001 120.179,-49.0001"/>
</g>
<!-- Node3 -->
<g id="node3" class="node"><title>Node3</title>
<g id="a_node3"><a xlink:href="a00008.html#a9b4dd18431aa7ebd37321a0d2b1d2539" target="_top" xlink:title="Overrides the ArrayAdapter.getCount() method. ">
<polygon fill="white" stroke="black" points="303.5,-80.5 303.5,-106.5 445.5,-106.5 445.5,-80.5 303.5,-80.5"/>
<text text-anchor="start" x="311.5" y="-96.1" font-family="Helvetica,sans-Serif" font-size="8.00">project.android.CustomAdapter.get</text>
<text text-anchor="middle" x="374.5" y="-87.1" font-family="Helvetica,sans-Serif" font-size="8.00">Count</text>
</a>
</g>
</g>
<!-- Node2&#45;&gt;Node3 -->
<g id="edge2" class="edge"><title>Node2&#45;&gt;Node3</title>
<path fill="none" stroke="midnightblue" d="M267.649,-67.9712C284.723,-72.0891 302.994,-76.4956 319.467,-80.4686"/>
<polygon fill="midnightblue" stroke="midnightblue" points="268.298,-64.5276 257.756,-65.5854 266.657,-71.3324 268.298,-64.5276"/>
</g>
<!-- Node4 -->
<g id="node4" class="node"><title>Node4</title>
<g id="a_node4"><a xlink:href="a00008.html#a6b2523e50305753cb8c2893dc659a1ae" target="_top" xlink:title="Overrides ArrayAdapter.getView(int, View, ViewGroup) method. ">
<polygon fill="white" stroke="black" points="295,-44 295,-61 454,-61 454,-44 295,-44"/>
<text text-anchor="middle" x="374.5" y="-50.6" font-family="Helvetica,sans-Serif" font-size="8.00">project.android.CustomAdapter.getView</text>
</a>
</g>
</g>
<!-- Node2&#45;&gt;Node4 -->
<g id="edge3" class="edge"><title>Node2&#45;&gt;Node4</title>
<path fill="none" stroke="midnightblue" d="M269.252,-52.5C277.648,-52.5 286.31,-52.5 294.884,-52.5"/>
<polygon fill="midnightblue" stroke="midnightblue" points="269.164,-49.0001 259.164,-52.5 269.164,-56.0001 269.164,-49.0001"/>
</g>
<!-- Node5 -->
<g id="node5" class="node"><title>Node5</title>
<g id="a_node5"><a xlink:href="a00006.html#a863b30e1ce16c16e6dba6bebe8d8c45e" target="_top" xlink:title="Returns the View of the clicked list item. ">
<polygon fill="white" stroke="black" points="490,-42.5 490,-68.5 609,-68.5 609,-42.5 490,-42.5"/>
<text text-anchor="start" x="498" y="-58.1" font-family="Helvetica,sans-Serif" font-size="8.00">project.android.Connection</text>
<text text-anchor="middle" x="549.5" y="-49.1" font-family="Helvetica,sans-Serif" font-size="8.00">Fragment.getViewByPosition</text>
</a>
</g>
</g>
<!-- Node4&#45;&gt;Node5 -->
<g id="edge4" class="edge"><title>Node4&#45;&gt;Node5</title>
<path fill="none" stroke="midnightblue" d="M464.348,-54.0407C473.038,-54.1914 481.697,-54.3416 489.972,-54.4851"/>
<polygon fill="midnightblue" stroke="midnightblue" points="464.213,-50.5379 454.154,-53.8639 464.091,-57.5369 464.213,-50.5379"/>
</g>
<!-- Node6 -->
<g id="node6" class="node"><title>Node6</title>
<g id="a_node6"><a xlink:href="a00006.html#a5ae4f9d7872792288afb3de65ab4c2b0" target="_top" xlink:title="Sets an icon for an inactive server. ">
<polygon fill="white" stroke="black" points="645,-0.5 645,-26.5 758,-26.5 758,-0.5 645,-0.5"/>
<text text-anchor="start" x="653" y="-16.1" font-family="Helvetica,sans-Serif" font-size="8.00">project.android.Connection</text>
<text text-anchor="middle" x="701.5" y="-7.1" font-family="Helvetica,sans-Serif" font-size="8.00">Fragment.resetIcon</text>
</a>
</g>
</g>
<!-- Node5&#45;&gt;Node6 -->
<g id="edge5" class="edge"><title>Node5&#45;&gt;Node6</title>
<path fill="none" stroke="midnightblue" d="M607.094,-39.6538C622.531,-35.3313 639.077,-30.6984 653.89,-26.5508"/>
<polygon fill="midnightblue" stroke="midnightblue" points="605.825,-36.3744 597.139,-42.4412 607.712,-43.1152 605.825,-36.3744"/>
</g>
<!-- Node9 -->
<g id="node9" class="node"><title>Node9</title>
<g id="a_node9"><a xlink:href="a00006.html#af0e6f7c8aa02553792fd18fbb5e98a2e" target="_top" xlink:title="Sets an icon for an active server. ">
<polygon fill="white" stroke="black" points="645,-45.5 645,-71.5 758,-71.5 758,-45.5 645,-45.5"/>
<text text-anchor="start" x="653" y="-61.1" font-family="Helvetica,sans-Serif" font-size="8.00">project.android.Connection</text>
<text text-anchor="middle" x="701.5" y="-52.1" font-family="Helvetica,sans-Serif" font-size="8.00">Fragment.setIcon</text>
</a>
</g>
</g>
<!-- Node5&#45;&gt;Node9 -->
<g id="edge9" class="edge"><title>Node5&#45;&gt;Node9</title>
<path fill="none" stroke="midnightblue" d="M619.568,-56.8814C628.008,-57.0502 636.547,-57.2209 644.757,-57.3851"/>
<polygon fill="midnightblue" stroke="midnightblue" points="619.421,-53.3778 609.353,-56.6771 619.281,-60.3764 619.421,-53.3778"/>
</g>
<!-- Node6&#45;&gt;Node2 -->
<g id="edge8" class="edge"><title>Node6&#45;&gt;Node2</title>
<path fill="none" stroke="midnightblue" d="M634.386,-14.0373C553.91,-15.3556 414.013,-19.7882 295,-34.5 283.431,-35.9301 271.132,-37.9795 259.429,-40.1869"/>
<polygon fill="midnightblue" stroke="midnightblue" points="634.913,-17.5298 644.859,-13.8779 634.806,-10.5306 634.913,-17.5298"/>
</g>
<!-- Node7 -->
<g id="node7" class="node"><title>Node7</title>
<g id="a_node7"><a xlink:href="a00005.html#a9f6765867ad54f586cc7b329213a2ac3" target="_top" xlink:title="Performs operations for reading data from a server. ">
<polygon fill="white" stroke="black" points="799,-0.5 799,-26.5 905,-26.5 905,-0.5 799,-0.5"/>
<text text-anchor="start" x="807" y="-16.1" font-family="Helvetica,sans-Serif" font-size="8.00">project.android.net.Client</text>
<text text-anchor="middle" x="852" y="-7.1" font-family="Helvetica,sans-Serif" font-size="8.00">IOThread.run</text>
</a>
</g>
</g>
<!-- Node6&#45;&gt;Node7 -->
<g id="edge6" class="edge"><title>Node6&#45;&gt;Node7</title>
<path fill="none" stroke="midnightblue" d="M768.348,-13.5C778.579,-13.5 789.026,-13.5 798.897,-13.5"/>
<polygon fill="midnightblue" stroke="midnightblue" points="768.218,-10.0001 758.218,-13.5 768.218,-17.0001 768.218,-10.0001"/>
</g>
<!-- Node8 -->
<g id="node8" class="node"><title>Node8</title>
<g id="a_node8"><a xlink:href="a00005.html#aa57b04eb44ae7982a7a79cdb7c484144" target="_top" xlink:title="Constructor. ">
<polygon fill="white" stroke="black" points="946,-0.5 946,-26.5 1054,-26.5 1054,-0.5 946,-0.5"/>
<text text-anchor="start" x="954" y="-16.1" font-family="Helvetica,sans-Serif" font-size="8.00">project.android.net.Client</text>
<text text-anchor="middle" x="1000" y="-7.1" font-family="Helvetica,sans-Serif" font-size="8.00">IOThread.ClientIOThread</text>
</a>
</g>
</g>
<!-- Node7&#45;&gt;Node8 -->
<g id="edge7" class="edge"><title>Node7&#45;&gt;Node8</title>
<path fill="none" stroke="midnightblue" d="M915.583,-13.5C925.577,-13.5 935.837,-13.5 945.593,-13.5"/>
<polygon fill="midnightblue" stroke="midnightblue" points="915.297,-10.0001 905.297,-13.5 915.297,-17.0001 915.297,-10.0001"/>
</g>
<!-- Node10 -->
<g id="node10" class="node"><title>Node10</title>
<g id="a_node10"><a xlink:href="a00019.html#a6b623423ab726a2d5008717960032b6d" target="_top" xlink:title="Overrides the android.app.Service.onStartCommand(Intent, int, int). ">
<polygon fill="white" stroke="black" points="794,-45.5 794,-71.5 910,-71.5 910,-45.5 794,-45.5"/>
<text text-anchor="start" x="802" y="-61.1" font-family="Helvetica,sans-Serif" font-size="8.00">project.android.net.Network</text>
<text text-anchor="middle" x="852" y="-52.1" font-family="Helvetica,sans-Serif" font-size="8.00">Service.onStartCommand</text>
</a>
</g>
</g>
<!-- Node9&#45;&gt;Node10 -->
<g id="edge10" class="edge"><title>Node9&#45;&gt;Node10</title>
<path fill="none" stroke="midnightblue" d="M768.486,-58.5C776.989,-58.5 785.638,-58.5 793.979,-58.5"/>
<polygon fill="midnightblue" stroke="midnightblue" points="768.218,-55.0001 758.218,-58.5 768.218,-62.0001 768.218,-55.0001"/>
</g>
</g>
</svg>
