<?xml version="1.0" encoding="UTF-8" standalone="no"?>
<!DOCTYPE svg PUBLIC "-//W3C//DTD SVG 1.1//EN"
 "http://www.w3.org/Graphics/SVG/1.1/DTD/svg11.dtd">
<!-- Generated by graphviz version 2.38.0 (20140413.2041)
 -->
<!-- Title: project.android.net.Client.close Pages: 1 -->
<svg width="633pt" height="76pt"
 viewBox="0.00 0.00 633.00 76.00" xmlns="http://www.w3.org/2000/svg" xmlns:xlink="http://www.w3.org/1999/xlink">
<g id="graph0" class="graph" transform="scale(1 1) rotate(0) translate(4 72)">
<title>project.android.net.Client.close</title>
<polygon fill="white" stroke="none" points="-4,4 -4,-72 629,-72 629,4 -4,4"/>
<!-- Node1 -->
<g id="node1" class="node"><title>Node1</title>
<polygon fill="#bfbfbf" stroke="black" points="0,-25 0,-42 126,-42 126,-25 0,-25"/>
<text text-anchor="middle" x="63" y="-31.6" font-family="Helvetica,sans-Serif" font-size="8.00">project.android.net.Client.close</text>
</g>
<!-- Node2 -->
<g id="node2" class="node"><title>Node2</title>
<g id="a_node2"><a xlink:href="a00006.html#aee2a392b8b0500023dba15b60d3315d2" target="_top" xlink:title="Returns a list of ServerInfo objects. ">
<polygon fill="white" stroke="black" points="162,-20.5 162,-46.5 275,-46.5 275,-20.5 162,-20.5"/>
<text text-anchor="start" x="170" y="-36.1" font-family="Helvetica,sans-Serif" font-size="8.00">project.android.Connection</text>
<text text-anchor="middle" x="218.5" y="-27.1" font-family="Helvetica,sans-Serif" font-size="8.00">Fragment.getNetworkList</text>
</a>
</g>
</g>
<!-- Node1&#45;&gt;Node2 -->
<g id="edge1" class="edge"><title>Node1&#45;&gt;Node2</title>
<path fill="none" stroke="midnightblue" d="M136.598,-33.5C144.98,-33.5 153.427,-33.5 161.54,-33.5"/>
<polygon fill="midnightblue" stroke="midnightblue" points="136.434,-30.0001 126.434,-33.5 136.434,-37.0001 136.434,-30.0001"/>
</g>
<!-- Node3 -->
<g id="node3" class="node"><title>Node3</title>
<g id="a_node3"><a xlink:href="a00008.html#a9b4dd18431aa7ebd37321a0d2b1d2539" target="_top" xlink:title="Overrides the ArrayAdapter.getCount() method. ">
<polygon fill="white" stroke="black" points="319.5,-41.5 319.5,-67.5 461.5,-67.5 461.5,-41.5 319.5,-41.5"/>
<text text-anchor="start" x="327.5" y="-57.1" font-family="Helvetica,sans-Serif" font-size="8.00">project.android.CustomAdapter.get</text>
<text text-anchor="middle" x="390.5" y="-48.1" font-family="Helvetica,sans-Serif" font-size="8.00">Count</text>
</a>
</g>
</g>
<!-- Node2&#45;&gt;Node3 -->
<g id="edge2" class="edge"><title>Node2&#45;&gt;Node3</title>
<path fill="none" stroke="midnightblue" d="M285.285,-41.6263C296.474,-43.0085 308.132,-44.4486 319.427,-45.8439"/>
<polygon fill="midnightblue" stroke="midnightblue" points="285.518,-38.1286 275.164,-40.3762 284.66,-45.0758 285.518,-38.1286"/>
</g>
<!-- Node4 -->
<g id="node4" class="node"><title>Node4</title>
<g id="a_node4"><a xlink:href="a00008.html#a6b2523e50305753cb8c2893dc659a1ae" target="_top" xlink:title="Overrides ArrayAdapter.getView(int, View, ViewGroup) method. ">
<polygon fill="white" stroke="black" points="311,-5 311,-22 470,-22 470,-5 311,-5"/>
<text text-anchor="middle" x="390.5" y="-11.6" font-family="Helvetica,sans-Serif" font-size="8.00">project.android.CustomAdapter.getView</text>
</a>
</g>
</g>
<!-- Node2&#45;&gt;Node4 -->
<g id="edge3" class="edge"><title>Node2&#45;&gt;Node4</title>
<path fill="none" stroke="midnightblue" d="M285.369,-25.7507C295.731,-24.5316 306.494,-23.2654 316.996,-22.0298"/>
<polygon fill="midnightblue" stroke="midnightblue" points="284.687,-22.3067 275.164,-26.9513 285.505,-29.2588 284.687,-22.3067"/>
</g>
<!-- Node5 -->
<g id="node5" class="node"><title>Node5</title>
<g id="a_node5"><a xlink:href="a00006.html#a863b30e1ce16c16e6dba6bebe8d8c45e" target="_top" xlink:title="Returns the View of the clicked list item. ">
<polygon fill="white" stroke="red" points="506,-0.5 506,-26.5 625,-26.5 625,-0.5 506,-0.5"/>
<text text-anchor="start" x="514" y="-16.1" font-family="Helvetica,sans-Serif" font-size="8.00">project.android.Connection</text>
<text text-anchor="middle" x="565.5" y="-7.1" font-family="Helvetica,sans-Serif" font-size="8.00">Fragment.getViewByPosition</text>
</a>
</g>
</g>
<!-- Node4&#45;&gt;Node5 -->
<g id="edge4" class="edge"><title>Node4&#45;&gt;Node5</title>
<path fill="none" stroke="midnightblue" d="M480.348,-13.5C489.038,-13.5 497.697,-13.5 505.972,-13.5"/>
<polygon fill="midnightblue" stroke="midnightblue" points="480.154,-10.0001 470.154,-13.5 480.154,-17.0001 480.154,-10.0001"/>
</g>
</g>
</svg>
