<?xml version="1.0" encoding="UTF-8" standalone="no"?>
<!DOCTYPE svg PUBLIC "-//W3C//DTD SVG 1.1//EN"
 "http://www.w3.org/Graphics/SVG/1.1/DTD/svg11.dtd">
<!-- Generated by graphviz version 2.38.0 (20140413.2041)
 -->
<!-- Title: project.android.ConnectionFragment.removeItem Pages: 1 -->
<svg width="279pt" height="35pt"
 viewBox="0.00 0.00 279.00 35.00" xmlns="http://www.w3.org/2000/svg" xmlns:xlink="http://www.w3.org/1999/xlink">
<g id="graph0" class="graph" transform="scale(1 1) rotate(0) translate(4 31)">
<title>project.android.ConnectionFragment.removeItem</title>
<polygon fill="white" stroke="none" points="-4,4 -4,-31 275,-31 275,4 -4,4"/>
<!-- Node1 -->
<g id="node1" class="node"><title>Node1</title>
<polygon fill="#bfbfbf" stroke="black" points="0,-0.5 0,-26.5 113,-26.5 113,-0.5 0,-0.5"/>
<text text-anchor="start" x="8" y="-16.1" font-family="Helvetica,sans-Serif" font-size="8.00">project.android.Connection</text>
<text text-anchor="middle" x="56.5" y="-7.1" font-family="Helvetica,sans-Serif" font-size="8.00">Fragment.removeItem</text>
</g>
<!-- Node2 -->
<g id="node2" class="node"><title>Node2</title>
<g id="a_node2"><a xlink:href="a00002.html#a03c170017a27365b50ab860fa21e3d46" target="_top" xlink:title="Performs the broadcast receiving operation. ">
<polygon fill="white" stroke="black" points="149,-0.5 149,-26.5 271,-26.5 271,-0.5 149,-0.5"/>
<text text-anchor="start" x="157" y="-16.1" font-family="Helvetica,sans-Serif" font-size="8.00">project.android.net.Broadcast</text>
<text text-anchor="middle" x="210" y="-7.1" font-family="Helvetica,sans-Serif" font-size="8.00">ReceiverThread.run</text>
</a>
</g>
</g>
<!-- Node1&#45;&gt;Node2 -->
<g id="edge1" class="edge"><title>Node1&#45;&gt;Node2</title>
<path fill="none" stroke="midnightblue" d="M123.302,-13.5C131.798,-13.5 140.463,-13.5 148.861,-13.5"/>
<polygon fill="midnightblue" stroke="midnightblue" points="123.053,-10.0001 113.053,-13.5 123.053,-17.0001 123.053,-10.0001"/>
</g>
</g>
</svg>
