<?xml version="1.0" encoding="UTF-8" standalone="no"?>
<!DOCTYPE svg PUBLIC "-//W3C//DTD SVG 1.1//EN"
 "http://www.w3.org/Graphics/SVG/1.1/DTD/svg11.dtd">
<!-- Generated by graphviz version 2.38.0 (20140413.2041)
 -->
<!-- Title: project.android.KeyboardFragment.onKey Pages: 1 -->
<svg width="271pt" height="35pt"
 viewBox="0.00 0.00 271.00 35.00" xmlns="http://www.w3.org/2000/svg" xmlns:xlink="http://www.w3.org/1999/xlink">
<g id="graph0" class="graph" transform="scale(1 1) rotate(0) translate(4 31)">
<title>project.android.KeyboardFragment.onKey</title>
<polygon fill="white" stroke="none" points="-4,4 -4,-31 267,-31 267,4 -4,4"/>
<!-- Node14 -->
<g id="node1" class="node"><title>Node14</title>
<polygon fill="#bfbfbf" stroke="black" points="0,-0.5 0,-26.5 107,-26.5 107,-0.5 0,-0.5"/>
<text text-anchor="start" x="8" y="-16.1" font-family="Helvetica,sans-Serif" font-size="8.00">project.android.Keyboard</text>
<text text-anchor="middle" x="53.5" y="-7.1" font-family="Helvetica,sans-Serif" font-size="8.00">Fragment.onKey</text>
</g>
<!-- Node15 -->
<g id="node2" class="node"><title>Node15</title>
<g id="a_node2"><a xlink:href="a00214.html#a91720e014b8532cad7428c471ef3d0c6" target="_top" xlink:title="Inserts keyboard data to the buffer. ">
<polygon fill="white" stroke="black" points="143,-0.5 143,-26.5 263,-26.5 263,-0.5 143,-0.5"/>
<text text-anchor="start" x="151" y="-16.1" font-family="Helvetica,sans-Serif" font-size="8.00">project.android.net.Keyboard</text>
<text text-anchor="middle" x="203" y="-7.1" font-family="Helvetica,sans-Serif" font-size="8.00">Thread.addToBuffer</text>
</a>
</g>
</g>
<!-- Node14&#45;&gt;Node15 -->
<g id="edge1" class="edge"><title>Node14&#45;&gt;Node15</title>
<path fill="none" stroke="midnightblue" d="M107.334,-13.5C115.503,-13.5 124.045,-13.5 132.512,-13.5"/>
<polygon fill="midnightblue" stroke="midnightblue" points="132.772,-17.0001 142.772,-13.5 132.772,-10.0001 132.772,-17.0001"/>
</g>
</g>
</svg>
