<?xml version="1.0" encoding="UTF-8" standalone="no"?>
<!DOCTYPE svg PUBLIC "-//W3C//DTD SVG 1.1//EN"
 "http://www.w3.org/Graphics/SVG/1.1/DTD/svg11.dtd">
<!-- Generated by graphviz version 2.38.0 (20140413.2041)
 -->
<!-- Title: project.android.MainActivity.getConnectionFragment Pages: 1 -->
<svg width="459pt" height="225pt"
 viewBox="0.00 0.00 459.00 225.00" xmlns="http://www.w3.org/2000/svg" xmlns:xlink="http://www.w3.org/1999/xlink">
<g id="graph0" class="graph" transform="scale(1 1) rotate(0) translate(4 221)">
<title>project.android.MainActivity.getConnectionFragment</title>
<polygon fill="white" stroke="none" points="-4,4 -4,-221 455,-221 455,4 -4,4"/>
<!-- Node1 -->
<g id="node1" class="node"><title>Node1</title>
<polygon fill="#bfbfbf" stroke="black" points="0,-90.5 0,-116.5 127,-116.5 127,-90.5 0,-90.5"/>
<text text-anchor="start" x="8" y="-106.1" font-family="Helvetica,sans-Serif" font-size="8.00">project.android.MainActivity.get</text>
<text text-anchor="middle" x="63.5" y="-97.1" font-family="Helvetica,sans-Serif" font-size="8.00">ConnectionFragment</text>
</g>
<!-- Node2 -->
<g id="node2" class="node"><title>Node2</title>
<g id="a_node2"><a xlink:href="a00170.html#ade9b132efdf8d16ea5c9ab6f7340e581" target="_top" xlink:title="Constructor. ">
<polygon fill="white" stroke="black" points="169.5,-190.5 169.5,-216.5 300.5,-216.5 300.5,-190.5 169.5,-190.5"/>
<text text-anchor="start" x="177.5" y="-206.1" font-family="Helvetica,sans-Serif" font-size="8.00">project.android.CustomAdapter.</text>
<text text-anchor="middle" x="235" y="-197.1" font-family="Helvetica,sans-Serif" font-size="8.00">CustomAdapter</text>
</a>
</g>
</g>
<!-- Node1&#45;&gt;Node2 -->
<g id="edge1" class="edge"><title>Node1&#45;&gt;Node2</title>
<path fill="none" stroke="midnightblue" d="M85.5417,-123.55C104.506,-140.697 133.817,-164.994 163,-180.5 170.094,-184.269 177.917,-187.562 185.698,-190.388"/>
<polygon fill="midnightblue" stroke="midnightblue" points="87.8078,-120.879 78.0782,-116.685 83.0691,-126.031 87.8078,-120.879"/>
</g>
<!-- Node3 -->
<g id="node3" class="node"><title>Node3</title>
<g id="a_node3"><a xlink:href="a00190.html#a6a138aa4f09588a79c664ee9055f7c38" target="_top" xlink:title="Constructor. ">
<polygon fill="white" stroke="black" points="163,-136 163,-171 307,-171 307,-136 163,-136"/>
<text text-anchor="start" x="171" y="-160.6" font-family="Helvetica,sans-Serif" font-size="8.00">project.android.net.Broadcast</text>
<text text-anchor="start" x="171" y="-151.6" font-family="Helvetica,sans-Serif" font-size="8.00">ReceiverThread.BroadcastReceiver</text>
<text text-anchor="middle" x="235" y="-142.6" font-family="Helvetica,sans-Serif" font-size="8.00">Thread</text>
</a>
</g>
</g>
<!-- Node1&#45;&gt;Node3 -->
<g id="edge2" class="edge"><title>Node1&#45;&gt;Node3</title>
<path fill="none" stroke="midnightblue" d="M118.286,-119.366C136.175,-124.643 156.199,-130.55 174.495,-135.947"/>
<polygon fill="midnightblue" stroke="midnightblue" points="119.173,-115.979 108.592,-116.506 117.193,-122.693 119.173,-115.979"/>
</g>
<!-- Node4 -->
<g id="node4" class="node"><title>Node4</title>
<g id="a_node4"><a xlink:href="a00202.html#a9f6765867ad54f586cc7b329213a2ac3" target="_top" xlink:title="Performs operations for reading data from a server. ">
<polygon fill="white" stroke="black" points="182,-90.5 182,-116.5 288,-116.5 288,-90.5 182,-90.5"/>
<text text-anchor="start" x="190" y="-106.1" font-family="Helvetica,sans-Serif" font-size="8.00">project.android.net.Client</text>
<text text-anchor="middle" x="235" y="-97.1" font-family="Helvetica,sans-Serif" font-size="8.00">IOThread.run</text>
</a>
</g>
</g>
<!-- Node1&#45;&gt;Node4 -->
<g id="edge3" class="edge"><title>Node1&#45;&gt;Node4</title>
<path fill="none" stroke="midnightblue" d="M137.393,-103.5C152.363,-103.5 167.836,-103.5 181.894,-103.5"/>
<polygon fill="midnightblue" stroke="midnightblue" points="137.134,-100 127.134,-103.5 137.134,-107 137.134,-100"/>
</g>
<!-- Node6 -->
<g id="node6" class="node"><title>Node6</title>
<g id="a_node6"><a xlink:href="a00206.html#a556383b01c61db89d1256691b1470657" target="_top" xlink:title="Overrides the AsyncTask.onPreExecute() method of the Android API. ">
<polygon fill="white" stroke="black" points="172,-45.5 172,-71.5 298,-71.5 298,-45.5 172,-45.5"/>
<text text-anchor="start" x="180" y="-61.1" font-family="Helvetica,sans-Serif" font-size="8.00">project.android.net.Connection</text>
<text text-anchor="middle" x="235" y="-52.1" font-family="Helvetica,sans-Serif" font-size="8.00">Task.onPreExecute</text>
</a>
</g>
</g>
<!-- Node1&#45;&gt;Node6 -->
<g id="edge5" class="edge"><title>Node1&#45;&gt;Node6</title>
<path fill="none" stroke="midnightblue" d="M123.465,-87.8455C143.481,-82.5316 165.617,-76.6547 184.79,-71.5645"/>
<polygon fill="midnightblue" stroke="midnightblue" points="122.293,-84.5353 113.526,-90.4841 124.09,-91.3009 122.293,-84.5353"/>
</g>
<!-- Node7 -->
<g id="node7" class="node"><title>Node7</title>
<g id="a_node7"><a xlink:href="a00218.html#a6b623423ab726a2d5008717960032b6d" target="_top" xlink:title="Overrides the Service.onStartCommand(Intent, int, int) method of the Android API. ...">
<polygon fill="white" stroke="black" points="177,-0.5 177,-26.5 293,-26.5 293,-0.5 177,-0.5"/>
<text text-anchor="start" x="185" y="-16.1" font-family="Helvetica,sans-Serif" font-size="8.00">project.android.net.Network</text>
<text text-anchor="middle" x="235" y="-7.1" font-family="Helvetica,sans-Serif" font-size="8.00">Service.onStartCommand</text>
</a>
</g>
</g>
<!-- Node1&#45;&gt;Node7 -->
<g id="edge6" class="edge"><title>Node1&#45;&gt;Node7</title>
<path fill="none" stroke="midnightblue" d="M88.6174,-84.2151C107.86,-69.5589 135.979,-49.7298 163,-36.5 170.564,-32.7966 178.864,-29.491 187.039,-26.6201"/>
<polygon fill="midnightblue" stroke="midnightblue" points="86.4608,-81.4584 80.69,-90.3437 90.7422,-86.9964 86.4608,-81.4584"/>
</g>
<!-- Node5 -->
<g id="node5" class="node"><title>Node5</title>
<g id="a_node5"><a xlink:href="a00202.html#aa57b04eb44ae7982a7a79cdb7c484144" target="_top" xlink:title="Constructor. ">
<polygon fill="white" stroke="black" points="343,-90.5 343,-116.5 451,-116.5 451,-90.5 343,-90.5"/>
<text text-anchor="start" x="351" y="-106.1" font-family="Helvetica,sans-Serif" font-size="8.00">project.android.net.Client</text>
<text text-anchor="middle" x="397" y="-97.1" font-family="Helvetica,sans-Serif" font-size="8.00">IOThread.ClientIOThread</text>
</a>
</g>
</g>
<!-- Node4&#45;&gt;Node5 -->
<g id="edge4" class="edge"><title>Node4&#45;&gt;Node5</title>
<path fill="none" stroke="midnightblue" d="M298.419,-103.5C313.135,-103.5 328.686,-103.5 342.945,-103.5"/>
<polygon fill="midnightblue" stroke="midnightblue" points="298.39,-100 288.39,-103.5 298.39,-107 298.39,-100"/>
</g>
</g>
</svg>
