<?xml version="1.0" encoding="UTF-8" standalone="no"?>
<!DOCTYPE svg PUBLIC "-//W3C//DTD SVG 1.1//EN"
 "http://www.w3.org/Graphics/SVG/1.1/DTD/svg11.dtd">
<!-- Generated by graphviz version 2.38.0 (20140413.2041)
 -->
<!-- Title: project.android.KeyboardFragment.onTextChanged Pages: 1 -->
<svg width="276pt" height="35pt"
 viewBox="0.00 0.00 276.00 35.00" xmlns="http://www.w3.org/2000/svg" xmlns:xlink="http://www.w3.org/1999/xlink">
<g id="graph0" class="graph" transform="scale(1 1) rotate(0) translate(4 31)">
<title>project.android.KeyboardFragment.onTextChanged</title>
<polygon fill="white" stroke="none" points="-4,4 -4,-31 272,-31 272,4 -4,4"/>
<!-- Node21 -->
<g id="node1" class="node"><title>Node21</title>
<polygon fill="#bfbfbf" stroke="black" points="0,-0.5 0,-26.5 112,-26.5 112,-0.5 0,-0.5"/>
<text text-anchor="start" x="8" y="-16.1" font-family="Helvetica,sans-Serif" font-size="8.00">project.android.Keyboard</text>
<text text-anchor="middle" x="56" y="-7.1" font-family="Helvetica,sans-Serif" font-size="8.00">Fragment.onTextChanged</text>
</g>
<!-- Node22 -->
<g id="node2" class="node"><title>Node22</title>
<g id="a_node2"><a xlink:href="a00214.html#a91720e014b8532cad7428c471ef3d0c6" target="_top" xlink:title="Inserts keyboard data to the buffer. ">
<polygon fill="white" stroke="black" points="148,-0.5 148,-26.5 268,-26.5 268,-0.5 148,-0.5"/>
<text text-anchor="start" x="156" y="-16.1" font-family="Helvetica,sans-Serif" font-size="8.00">project.android.net.Keyboard</text>
<text text-anchor="middle" x="208" y="-7.1" font-family="Helvetica,sans-Serif" font-size="8.00">Thread.addToBuffer</text>
</a>
</g>
</g>
<!-- Node21&#45;&gt;Node22 -->
<g id="edge1" class="edge"><title>Node21&#45;&gt;Node22</title>
<path fill="none" stroke="midnightblue" d="M112.003,-13.5C120.416,-13.5 129.192,-13.5 137.863,-13.5"/>
<polygon fill="midnightblue" stroke="midnightblue" points="137.965,-17.0001 147.965,-13.5 137.965,-10.0001 137.965,-17.0001"/>
</g>
</g>
</svg>
