<?xml version="1.0" encoding="UTF-8" standalone="no"?>
<!DOCTYPE svg PUBLIC "-//W3C//DTD SVG 1.1//EN"
 "http://www.w3.org/Graphics/SVG/1.1/DTD/svg11.dtd">
<!-- Generated by graphviz version 2.38.0 (20140413.2041)
 -->
<!-- Title: project.android.net.NetworkService Pages: 1 -->
<svg width="124pt" height="175pt"
 viewBox="0.00 0.00 124.00 175.00" xmlns="http://www.w3.org/2000/svg" xmlns:xlink="http://www.w3.org/1999/xlink">
<g id="graph0" class="graph" transform="scale(1 1) rotate(0) translate(4 171)">
<title>project.android.net.NetworkService</title>
<polygon fill="white" stroke="none" points="-4,4 -4,-171 120,-171 120,4 -4,4"/>
<!-- Node1 -->
<g id="node1" class="node"><title>Node1</title>
<polygon fill="#bfbfbf" stroke="black" points="-7.10543e-15,-0.5 -7.10543e-15,-78.5 116,-78.5 116,-0.5 -7.10543e-15,-0.5"/>
<text text-anchor="start" x="8" y="-68.1" font-family="Helvetica,sans-Serif" font-size="8.00">project.android.net.Network</text>
<text text-anchor="middle" x="58" y="-59.1" font-family="Helvetica,sans-Serif" font-size="8.00">Service</text>
<polyline fill="none" stroke="black" points="-7.10543e-15,-52.5 116,-52.5 "/>
<text text-anchor="middle" x="58" y="-42.1" font-family="Helvetica,sans-Serif" font-size="8.00"> </text>
<polyline fill="none" stroke="black" points="-7.10543e-15,-35.5 116,-35.5 "/>
<text text-anchor="start" x="8" y="-25.1" font-family="Helvetica,sans-Serif" font-size="8.00">+ onBind()</text>
<text text-anchor="start" x="8" y="-16.1" font-family="Helvetica,sans-Serif" font-size="8.00">+ onDestroy()</text>
<text text-anchor="start" x="8" y="-7.1" font-family="Helvetica,sans-Serif" font-size="8.00">+ onStartCommand()</text>
</g>
<!-- Node2 -->
<g id="node2" class="node"><title>Node2</title>
<polygon fill="white" stroke="#bfbfbf" points="36.5,-115.5 36.5,-166.5 79.5,-166.5 79.5,-115.5 36.5,-115.5"/>
<text text-anchor="middle" x="58" y="-156.1" font-family="Helvetica,sans-Serif" font-size="8.00">Service</text>
<polyline fill="none" stroke="#bfbfbf" points="36.5,-149.5 79.5,-149.5 "/>
<text text-anchor="middle" x="58" y="-139.1" font-family="Helvetica,sans-Serif" font-size="8.00"> </text>
<polyline fill="none" stroke="#bfbfbf" points="36.5,-132.5 79.5,-132.5 "/>
<text text-anchor="middle" x="58" y="-122.1" font-family="Helvetica,sans-Serif" font-size="8.00"> </text>
</g>
<!-- Node2&#45;&gt;Node1 -->
<g id="edge1" class="edge"><title>Node2&#45;&gt;Node1</title>
<path fill="none" stroke="midnightblue" d="M58,-105.338C58,-96.7515 58,-87.5029 58,-78.7558"/>
<polygon fill="none" stroke="midnightblue" points="54.5001,-105.404 58,-115.404 61.5001,-105.405 54.5001,-105.404"/>
</g>
</g>
</svg>
