<?xml version="1.0" encoding="UTF-8" standalone="no"?>
<!DOCTYPE svg PUBLIC "-//W3C//DTD SVG 1.1//EN"
 "http://www.w3.org/Graphics/SVG/1.1/DTD/svg11.dtd">
<!-- Generated by graphviz version 2.38.0 (20140413.2041)
 -->
<!-- Title: project.android.MouseFragment.onTouch Pages: 1 -->
<svg width="325pt" height="35pt"
 viewBox="0.00 0.00 325.00 35.00" xmlns="http://www.w3.org/2000/svg" xmlns:xlink="http://www.w3.org/1999/xlink">
<g id="graph0" class="graph" transform="scale(1 1) rotate(0) translate(4 31)">
<title>project.android.MouseFragment.onTouch</title>
<polygon fill="white" stroke="none" points="-4,4 -4,-31 321,-31 321,4 -4,4"/>
<!-- Node12 -->
<g id="node1" class="node"><title>Node12</title>
<polygon fill="#bfbfbf" stroke="black" points="0,-0.5 0,-26.5 143,-26.5 143,-0.5 0,-0.5"/>
<text text-anchor="start" x="8" y="-16.1" font-family="Helvetica,sans-Serif" font-size="8.00">project.android.MouseFragment.on</text>
<text text-anchor="middle" x="71.5" y="-7.1" font-family="Helvetica,sans-Serif" font-size="8.00">Touch</text>
</g>
<!-- Node13 -->
<g id="node2" class="node"><title>Node13</title>
<g id="a_node2"><a xlink:href="a00238.html#aefb2a1b0264403d2b69042b40dbaeea0" target="_top" xlink:title="Stops the sensor fusion (e.g., when pausing/suspending the activity). ">
<polygon fill="white" stroke="black" points="179,-0.5 179,-26.5 317,-26.5 317,-0.5 179,-0.5"/>
<text text-anchor="start" x="187" y="-16.1" font-family="Helvetica,sans-Serif" font-size="8.00">project.android.sensor.orientation.</text>
<text text-anchor="middle" x="248" y="-7.1" font-family="Helvetica,sans-Serif" font-size="8.00">OrientationProvider.sensorStop</text>
</a>
</g>
</g>
<!-- Node12&#45;&gt;Node13 -->
<g id="edge1" class="edge"><title>Node12&#45;&gt;Node13</title>
<path fill="none" stroke="midnightblue" d="M143.224,-13.5C151.553,-13.5 160.09,-13.5 168.517,-13.5"/>
<polygon fill="midnightblue" stroke="midnightblue" points="168.72,-17.0001 178.72,-13.5 168.719,-10.0001 168.72,-17.0001"/>
</g>
</g>
</svg>
