<?xml version="1.0" encoding="UTF-8" standalone="no"?>
<!DOCTYPE svg PUBLIC "-//W3C//DTD SVG 1.1//EN"
 "http://www.w3.org/Graphics/SVG/1.1/DTD/svg11.dtd">
<!-- Generated by graphviz version 2.38.0 (20140413.2041)
 -->
<!-- Title: project.android.net.Client.sendStopSignal Pages: 1 -->
<svg width="460pt" height="80pt"
 viewBox="0.00 0.00 460.00 80.00" xmlns="http://www.w3.org/2000/svg" xmlns:xlink="http://www.w3.org/1999/xlink">
<g id="graph0" class="graph" transform="scale(1 1) rotate(0) translate(4 76)">
<title>project.android.net.Client.sendStopSignal</title>
<polygon fill="white" stroke="none" points="-4,4 -4,-76 456,-76 456,4 -4,4"/>
<!-- Node41 -->
<g id="node1" class="node"><title>Node41</title>
<polygon fill="#bfbfbf" stroke="black" points="0,-22.5 0,-48.5 125,-48.5 125,-22.5 0,-22.5"/>
<text text-anchor="start" x="8" y="-38.1" font-family="Helvetica,sans-Serif" font-size="8.00">project.android.net.Client.send</text>
<text text-anchor="middle" x="62.5" y="-29.1" font-family="Helvetica,sans-Serif" font-size="8.00">StopSignal</text>
</g>
<!-- Node42 -->
<g id="node2" class="node"><title>Node42</title>
<g id="a_node2"><a xlink:href="a00194.html#a3d6c629d64e1911979c9f483c8785b5f" target="_top" xlink:title="Sends mouse button or keyboard data. ">
<polygon fill="white" stroke="black" points="161,-27 161,-44 304,-44 304,-27 161,-27"/>
<text text-anchor="middle" x="232.5" y="-33.6" font-family="Helvetica,sans-Serif" font-size="8.00">project.android.net.Client.sendData</text>
</a>
</g>
</g>
<!-- Node41&#45;&gt;Node42 -->
<g id="edge1" class="edge"><title>Node41&#45;&gt;Node42</title>
<path fill="none" stroke="midnightblue" d="M125.103,-35.5C133.449,-35.5 142.114,-35.5 150.733,-35.5"/>
<polygon fill="midnightblue" stroke="midnightblue" points="150.808,-39.0001 160.808,-35.5 150.808,-32.0001 150.808,-39.0001"/>
</g>
<!-- Node43 -->
<g id="node3" class="node"><title>Node43</title>
<g id="a_node3"><a xlink:href="a00210.html#af8add0417bec5bd0d019410c91f69e38" target="_top" xlink:title="Returns a JSon&#45;string of an object. ">
<polygon fill="white" stroke="black" points="344.5,-45.5 344.5,-71.5 447.5,-71.5 447.5,-45.5 344.5,-45.5"/>
<text text-anchor="start" x="352.5" y="-61.1" font-family="Helvetica,sans-Serif" font-size="8.00">project.android.net.Data</text>
<text text-anchor="middle" x="396" y="-52.1" font-family="Helvetica,sans-Serif" font-size="8.00">Wrapper.getGsonString</text>
</a>
</g>
</g>
<!-- Node42&#45;&gt;Node43 -->
<g id="edge2" class="edge"><title>Node42&#45;&gt;Node43</title>
<path fill="none" stroke="midnightblue" d="M293.637,-44.0644C306.929,-45.9574 321.02,-47.9642 334.333,-49.8602"/>
<polygon fill="midnightblue" stroke="midnightblue" points="333.943,-53.3398 344.337,-51.2848 334.93,-46.4097 333.943,-53.3398"/>
</g>
<!-- Node44 -->
<g id="node4" class="node"><title>Node44</title>
<g id="a_node4"><a xlink:href="a00226.html#a73624750dc6ff111d72bcb4b54c4995c" target="_top" xlink:title="Encrypts plaintext using AES 256&#45;bit encryption algorithm. ">
<polygon fill="white" stroke="black" points="340,-0.5 340,-26.5 452,-26.5 452,-0.5 340,-0.5"/>
<text text-anchor="start" x="348" y="-16.1" font-family="Helvetica,sans-Serif" font-size="8.00">project.android.security.</text>
<text text-anchor="middle" x="396" y="-7.1" font-family="Helvetica,sans-Serif" font-size="8.00">EKEProvider.encryptString</text>
</a>
</g>
</g>
<!-- Node42&#45;&gt;Node44 -->
<g id="edge3" class="edge"><title>Node42&#45;&gt;Node44</title>
<path fill="none" stroke="midnightblue" d="M295.94,-26.9942C307.017,-25.4853 318.58,-23.9102 329.733,-22.3909"/>
<polygon fill="midnightblue" stroke="midnightblue" points="330.399,-25.8326 339.835,-21.0148 329.454,-18.8967 330.399,-25.8326"/>
</g>
</g>
</svg>
