<?xml version="1.0" encoding="UTF-8" standalone="no"?>
<!DOCTYPE svg PUBLIC "-//W3C//DTD SVG 1.1//EN"
 "http://www.w3.org/Graphics/SVG/1.1/DTD/svg11.dtd">
<!-- Generated by graphviz version 2.38.0 (20140413.2041)
 -->
<!-- Title: project.android.net.KeyboardThread Pages: 1 -->
<svg width="128pt" height="184pt"
 viewBox="0.00 0.00 128.00 184.00" xmlns="http://www.w3.org/2000/svg" xmlns:xlink="http://www.w3.org/1999/xlink">
<g id="graph0" class="graph" transform="scale(1 1) rotate(0) translate(4 180)">
<title>project.android.net.KeyboardThread</title>
<polygon fill="white" stroke="none" points="-4,4 -4,-180 124,-180 124,4 -4,4"/>
<!-- Node1 -->
<g id="node1" class="node"><title>Node1</title>
<polygon fill="#bfbfbf" stroke="black" points="-7.10543e-15,-0.5 -7.10543e-15,-87.5 120,-87.5 120,-0.5 -7.10543e-15,-0.5"/>
<text text-anchor="start" x="8" y="-77.1" font-family="Helvetica,sans-Serif" font-size="8.00">project.android.net.Keyboard</text>
<text text-anchor="middle" x="60" y="-68.1" font-family="Helvetica,sans-Serif" font-size="8.00">Thread</text>
<polyline fill="none" stroke="black" points="-7.10543e-15,-61.5 120,-61.5 "/>
<text text-anchor="middle" x="60" y="-51.1" font-family="Helvetica,sans-Serif" font-size="8.00"> </text>
<polyline fill="none" stroke="black" points="-7.10543e-15,-44.5 120,-44.5 "/>
<text text-anchor="start" x="8" y="-34.1" font-family="Helvetica,sans-Serif" font-size="8.00">+ KeyboardThread()</text>
<text text-anchor="start" x="8" y="-25.1" font-family="Helvetica,sans-Serif" font-size="8.00">+ addToBuffer()</text>
<text text-anchor="start" x="8" y="-16.1" font-family="Helvetica,sans-Serif" font-size="8.00">+ run()</text>
<text text-anchor="start" x="8" y="-7.1" font-family="Helvetica,sans-Serif" font-size="8.00">+ setStopFlag()</text>
</g>
<!-- Node2 -->
<g id="node2" class="node"><title>Node2</title>
<polygon fill="white" stroke="#bfbfbf" points="34.5,-124.5 34.5,-175.5 85.5,-175.5 85.5,-124.5 34.5,-124.5"/>
<text text-anchor="middle" x="60" y="-165.1" font-family="Helvetica,sans-Serif" font-size="8.00">Runnable</text>
<polyline fill="none" stroke="#bfbfbf" points="34.5,-158.5 85.5,-158.5 "/>
<text text-anchor="middle" x="60" y="-148.1" font-family="Helvetica,sans-Serif" font-size="8.00"> </text>
<polyline fill="none" stroke="#bfbfbf" points="34.5,-141.5 85.5,-141.5 "/>
<text text-anchor="middle" x="60" y="-131.1" font-family="Helvetica,sans-Serif" font-size="8.00"> </text>
</g>
<!-- Node2&#45;&gt;Node1 -->
<g id="edge1" class="edge"><title>Node2&#45;&gt;Node1</title>
<path fill="none" stroke="midnightblue" d="M60,-114.099C60,-105.656 60,-96.536 60,-87.7768"/>
<polygon fill="none" stroke="midnightblue" points="56.5001,-114.353 60,-124.353 63.5001,-114.353 56.5001,-114.353"/>
</g>
</g>
</svg>
