<?xml version="1.0" encoding="UTF-8" standalone="no"?>
<!DOCTYPE svg PUBLIC "-//W3C//DTD SVG 1.1//EN"
 "http://www.w3.org/Graphics/SVG/1.1/DTD/svg11.dtd">
<!-- Generated by graphviz version 2.38.0 (20140413.2041)
 -->
<!-- Title: project.android.ConnectionFragment.resetIcon Pages: 1 -->
<svg width="1109pt" height="207pt"
 viewBox="0.00 0.00 1109.00 207.00" xmlns="http://www.w3.org/2000/svg" xmlns:xlink="http://www.w3.org/1999/xlink">
<g id="graph0" class="graph" transform="scale(1 1) rotate(0) translate(4 203)">
<title>project.android.ConnectionFragment.resetIcon</title>
<polygon fill="white" stroke="none" points="-4,4 -4,-203 1105,-203 1105,4 -4,4"/>
<!-- Node83 -->
<g id="node1" class="node"><title>Node83</title>
<polygon fill="#bfbfbf" stroke="black" points="0,-32.5 0,-58.5 113,-58.5 113,-32.5 0,-32.5"/>
<text text-anchor="start" x="8" y="-48.1" font-family="Helvetica,sans-Serif" font-size="8.00">project.android.Connection</text>
<text text-anchor="middle" x="56.5" y="-39.1" font-family="Helvetica,sans-Serif" font-size="8.00">Fragment.resetIcon</text>
</g>
<!-- Node84 -->
<g id="node2" class="node"><title>Node84</title>
<g id="a_node2"><a xlink:href="a00166.html#a863b30e1ce16c16e6dba6bebe8d8c45e" target="_top" xlink:title="Returns the View of the clicked list item. ">
<polygon fill="white" stroke="black" points="149,-32.5 149,-58.5 268,-58.5 268,-32.5 149,-32.5"/>
<text text-anchor="start" x="157" y="-48.1" font-family="Helvetica,sans-Serif" font-size="8.00">project.android.Connection</text>
<text text-anchor="middle" x="208.5" y="-39.1" font-family="Helvetica,sans-Serif" font-size="8.00">Fragment.getViewByPosition</text>
</a>
</g>
</g>
<!-- Node83&#45;&gt;Node84 -->
<g id="edge1" class="edge"><title>Node83&#45;&gt;Node84</title>
<path fill="none" stroke="midnightblue" d="M113.354,-45.5C121.586,-45.5 130.147,-45.5 138.604,-45.5"/>
<polygon fill="midnightblue" stroke="midnightblue" points="138.838,-49.0001 148.838,-45.5 138.838,-42.0001 138.838,-49.0001"/>
</g>
<!-- Node85 -->
<g id="node3" class="node"><title>Node85</title>
<g id="a_node3"><a xlink:href="a00170.html#aeff09458fb87bd73b69188560508baf5" target="_top" xlink:title="Overrides ArrayAdapter.getView(int, View, ViewGroup) method. ">
<polygon fill="white" stroke="black" points="304,-69 304,-86 463,-86 463,-69 304,-69"/>
<text text-anchor="middle" x="383.5" y="-75.6" font-family="Helvetica,sans-Serif" font-size="8.00">project.android.CustomAdapter.getView</text>
</a>
</g>
</g>
<!-- Node84&#45;&gt;Node85 -->
<g id="edge2" class="edge"><title>Node84&#45;&gt;Node85</title>
<path fill="none" stroke="midnightblue" d="M268.07,-56.3337C286.932,-59.8226 307.778,-63.6786 326.454,-67.133"/>
<polygon fill="midnightblue" stroke="midnightblue" points="325.819,-70.5749 336.288,-68.9522 327.092,-63.6916 325.819,-70.5749"/>
</g>
<!-- Node86 -->
<g id="node4" class="node"><title>Node86</title>
<g id="a_node4"><a xlink:href="a00166.html#aee2a392b8b0500023dba15b60d3315d2" target="_top" xlink:title="Returns a list of ServerInfo objects. ">
<polygon fill="white" stroke="black" points="499,-87.5 499,-113.5 612,-113.5 612,-87.5 499,-87.5"/>
<text text-anchor="start" x="507" y="-103.1" font-family="Helvetica,sans-Serif" font-size="8.00">project.android.Connection</text>
<text text-anchor="middle" x="555.5" y="-94.1" font-family="Helvetica,sans-Serif" font-size="8.00">Fragment.getNetworkList</text>
</a>
</g>
</g>
<!-- Node85&#45;&gt;Node86 -->
<g id="edge3" class="edge"><title>Node85&#45;&gt;Node86</title>
<path fill="none" stroke="midnightblue" d="M447.802,-86.0644C461.192,-87.876 475.352,-89.7918 488.828,-91.6149"/>
<polygon fill="midnightblue" stroke="midnightblue" points="488.596,-95.1154 498.975,-92.9878 489.535,-88.1786 488.596,-95.1154"/>
</g>
<!-- Node88 -->
<g id="node6" class="node"><title>Node88</title>
<g id="a_node6"><a xlink:href="a00222.html#a914c65a49cf5940901d475693ee8e205" target="_top" xlink:title="Returns the IPv4 address of the server. ">
<polygon fill="white" stroke="black" points="656,-172.5 656,-198.5 766,-198.5 766,-172.5 656,-172.5"/>
<text text-anchor="start" x="664" y="-188.1" font-family="Helvetica,sans-Serif" font-size="8.00">project.android.net.Server</text>
<text text-anchor="middle" x="711" y="-179.1" font-family="Helvetica,sans-Serif" font-size="8.00">Info.getAddress</text>
</a>
</g>
</g>
<!-- Node85&#45;&gt;Node88 -->
<g id="edge14" class="edge"><title>Node85&#45;&gt;Node88</title>
<path fill="none" stroke="midnightblue" d="M404.139,-86.0622C426.773,-95.7721 465.2,-111.775 499,-123.5 549.593,-141.05 608.084,-157.98 650.632,-169.701"/>
<polygon fill="midnightblue" stroke="midnightblue" points="649.976,-173.151 660.546,-172.418 651.826,-166.4 649.976,-173.151"/>
</g>
<!-- Node95 -->
<g id="node13" class="node"><title>Node95</title>
<g id="a_node13"><a xlink:href="a00222.html#adc1c8edd1eafda5cad71f9babd18dfd4" target="_top" xlink:title="Returns the canonical host name of the server. ">
<polygon fill="white" stroke="black" points="500.5,-42.5 500.5,-68.5 610.5,-68.5 610.5,-42.5 500.5,-42.5"/>
<text text-anchor="start" x="508.5" y="-58.1" font-family="Helvetica,sans-Serif" font-size="8.00">project.android.net.Server</text>
<text text-anchor="middle" x="555.5" y="-49.1" font-family="Helvetica,sans-Serif" font-size="8.00">Info.getServerInfo</text>
</a>
</g>
</g>
<!-- Node85&#45;&gt;Node95 -->
<g id="edge13" class="edge"><title>Node85&#45;&gt;Node95</title>
<path fill="none" stroke="midnightblue" d="M450.226,-68.9942C463.276,-67.3055 476.965,-65.534 489.974,-63.8505"/>
<polygon fill="midnightblue" stroke="midnightblue" points="490.767,-67.277 500.235,-62.5225 489.869,-60.3349 490.767,-67.277"/>
</g>
<!-- Node87 -->
<g id="node5" class="node"><title>Node87</title>
<g id="a_node5"><a xlink:href="a00166.html#a5ae4f9d7872792288afb3de65ab4c2b0" target="_top" xlink:title="Sets an icon for an inactive server. ">
<polygon fill="white" stroke="black" points="654.5,-0.5 654.5,-26.5 767.5,-26.5 767.5,-0.5 654.5,-0.5"/>
<text text-anchor="start" x="662.5" y="-16.1" font-family="Helvetica,sans-Serif" font-size="8.00">project.android.Connection</text>
<text text-anchor="middle" x="711" y="-7.1" font-family="Helvetica,sans-Serif" font-size="8.00">Fragment.resetIcon</text>
</a>
</g>
</g>
<!-- Node86&#45;&gt;Node87 -->
<g id="edge4" class="edge"><title>Node86&#45;&gt;Node87</title>
<path fill="none" stroke="midnightblue" d="M594.753,-87.3811C600.777,-84.5562 606.743,-81.2655 612,-77.5 631.714,-63.3794 628.023,-50.2471 648,-36.5 650.877,-34.52 653.946,-32.6858 657.121,-30.9907"/>
<polygon fill="midnightblue" stroke="midnightblue" points="658.788,-34.0726 666.275,-26.5763 655.747,-27.7674 658.788,-34.0726"/>
</g>
<!-- Node86&#45;&gt;Node88 -->
<g id="edge6" class="edge"><title>Node86&#45;&gt;Node88</title>
<path fill="none" stroke="midnightblue" d="M572.867,-113.743C590.561,-127.574 620,-149.207 648,-163.5 651.505,-165.289 655.189,-166.995 658.941,-168.608"/>
<polygon fill="midnightblue" stroke="midnightblue" points="657.762,-171.906 668.344,-172.42 660.392,-165.419 657.762,-171.906"/>
</g>
<!-- Node89 -->
<g id="node7" class="node"><title>Node89</title>
<g id="a_node7"><a xlink:href="a00222.html#a19b6bb0a1264932dfc136820ec21620f" target="_top" xlink:title="Sets the pairing key used during client&#45;server authentication. ">
<polygon fill="white" stroke="black" points="656,-127.5 656,-153.5 766,-153.5 766,-127.5 656,-127.5"/>
<text text-anchor="start" x="664" y="-143.1" font-family="Helvetica,sans-Serif" font-size="8.00">project.android.net.Server</text>
<text text-anchor="middle" x="711" y="-134.1" font-family="Helvetica,sans-Serif" font-size="8.00">Info.setPairingKey</text>
</a>
</g>
</g>
<!-- Node86&#45;&gt;Node89 -->
<g id="edge7" class="edge"><title>Node86&#45;&gt;Node89</title>
<path fill="none" stroke="midnightblue" d="M606.762,-113.597C620.615,-117.207 635.78,-121.159 650.119,-124.896"/>
<polygon fill="midnightblue" stroke="midnightblue" points="649.328,-128.307 659.888,-127.441 651.093,-121.533 649.328,-128.307"/>
</g>
<!-- Node90 -->
<g id="node8" class="node"><title>Node90</title>
<g id="a_node8"><a xlink:href="a00194.html#aa23e2b087d09db0524a34b73cd5e07d3" target="_top" xlink:title="Sends a stop signal if the user disconnects the server. ">
<polygon fill="white" stroke="black" points="648.5,-82.5 648.5,-108.5 773.5,-108.5 773.5,-82.5 648.5,-82.5"/>
<text text-anchor="start" x="656.5" y="-98.1" font-family="Helvetica,sans-Serif" font-size="8.00">project.android.net.Client.send</text>
<text text-anchor="middle" x="711" y="-89.1" font-family="Helvetica,sans-Serif" font-size="8.00">StopSignal</text>
</a>
</g>
</g>
<!-- Node86&#45;&gt;Node90 -->
<g id="edge8" class="edge"><title>Node86&#45;&gt;Node90</title>
<path fill="none" stroke="midnightblue" d="M612.351,-98.6807C620.792,-98.4058 629.598,-98.119 638.316,-97.835"/>
<polygon fill="midnightblue" stroke="midnightblue" points="638.603,-101.328 648.484,-97.5038 638.375,-94.3313 638.603,-101.328"/>
</g>
<!-- Node94 -->
<g id="node12" class="node"><title>Node94</title>
<g id="a_node12"><a xlink:href="a00194.html#a2f8cb3f32f139e5c370c8b74f539368a" target="_top" xlink:title="Closes the client socket. ">
<polygon fill="white" stroke="black" points="648,-46 648,-63 774,-63 774,-46 648,-46"/>
<text text-anchor="middle" x="711" y="-52.6" font-family="Helvetica,sans-Serif" font-size="8.00">project.android.net.Client.close</text>
</a>
</g>
</g>
<!-- Node86&#45;&gt;Node94 -->
<g id="edge12" class="edge"><title>Node86&#45;&gt;Node94</title>
<path fill="none" stroke="midnightblue" d="M598.827,-87.4084C614.287,-82.6636 631.921,-77.294 648,-72.5 655.319,-70.3178 663.134,-68.0221 670.663,-65.8278"/>
<polygon fill="midnightblue" stroke="midnightblue" points="671.703,-69.1704 680.33,-63.0197 669.751,-62.4483 671.703,-69.1704"/>
</g>
<!-- Node87&#45;&gt;Node84 -->
<g id="edge5" class="edge"><title>Node87&#45;&gt;Node84</title>
<path fill="none" stroke="midnightblue" d="M654.402,-17.0547C562.354,-22.9399 378.538,-34.6924 278.4,-41.0948"/>
<polygon fill="midnightblue" stroke="midnightblue" points="278.142,-37.6041 268.385,-41.7351 278.588,-44.5898 278.142,-37.6041"/>
</g>
<!-- Node91 -->
<g id="node9" class="node"><title>Node91</title>
<g id="a_node9"><a xlink:href="a00194.html#a3d6c629d64e1911979c9f483c8785b5f" target="_top" xlink:title="Sends mouse button or keyboard data. ">
<polygon fill="white" stroke="black" points="810,-87 810,-104 953,-104 953,-87 810,-87"/>
<text text-anchor="middle" x="881.5" y="-93.6" font-family="Helvetica,sans-Serif" font-size="8.00">project.android.net.Client.sendData</text>
</a>
</g>
</g>
<!-- Node90&#45;&gt;Node91 -->
<g id="edge9" class="edge"><title>Node90&#45;&gt;Node91</title>
<path fill="none" stroke="midnightblue" d="M773.786,-95.5C782.225,-95.5 790.988,-95.5 799.702,-95.5"/>
<polygon fill="midnightblue" stroke="midnightblue" points="799.886,-99.0001 809.886,-95.5 799.886,-92.0001 799.886,-99.0001"/>
</g>
<!-- Node92 -->
<g id="node10" class="node"><title>Node92</title>
<g id="a_node10"><a xlink:href="a00210.html#af8add0417bec5bd0d019410c91f69e38" target="_top" xlink:title="Returns a JSon&#45;string of an object. ">
<polygon fill="white" stroke="black" points="993.5,-105.5 993.5,-131.5 1096.5,-131.5 1096.5,-105.5 993.5,-105.5"/>
<text text-anchor="start" x="1001.5" y="-121.1" font-family="Helvetica,sans-Serif" font-size="8.00">project.android.net.Data</text>
<text text-anchor="middle" x="1045" y="-112.1" font-family="Helvetica,sans-Serif" font-size="8.00">Wrapper.getGsonString</text>
</a>
</g>
</g>
<!-- Node91&#45;&gt;Node92 -->
<g id="edge10" class="edge"><title>Node91&#45;&gt;Node92</title>
<path fill="none" stroke="midnightblue" d="M942.637,-104.064C955.929,-105.957 970.02,-107.964 983.333,-109.86"/>
<polygon fill="midnightblue" stroke="midnightblue" points="982.943,-113.34 993.337,-111.285 983.93,-106.41 982.943,-113.34"/>
</g>
<!-- Node93 -->
<g id="node11" class="node"><title>Node93</title>
<g id="a_node11"><a xlink:href="a00226.html#a73624750dc6ff111d72bcb4b54c4995c" target="_top" xlink:title="Encrypts plaintext using AES 256&#45;bit encryption algorithm. ">
<polygon fill="white" stroke="black" points="989,-60.5 989,-86.5 1101,-86.5 1101,-60.5 989,-60.5"/>
<text text-anchor="start" x="997" y="-76.1" font-family="Helvetica,sans-Serif" font-size="8.00">project.android.security.</text>
<text text-anchor="middle" x="1045" y="-67.1" font-family="Helvetica,sans-Serif" font-size="8.00">EKEProvider.encryptString</text>
</a>
</g>
</g>
<!-- Node91&#45;&gt;Node93 -->
<g id="edge11" class="edge"><title>Node91&#45;&gt;Node93</title>
<path fill="none" stroke="midnightblue" d="M944.94,-86.9942C956.017,-85.4853 967.58,-83.9102 978.733,-82.3909"/>
<polygon fill="midnightblue" stroke="midnightblue" points="979.399,-85.8326 988.835,-81.0148 978.454,-78.8967 979.399,-85.8326"/>
</g>
</g>
</svg>
