<?xml version="1.0" encoding="UTF-8" standalone="no"?>
<!DOCTYPE svg PUBLIC "-//W3C//DTD SVG 1.1//EN"
 "http://www.w3.org/Graphics/SVG/1.1/DTD/svg11.dtd">
<!-- Generated by graphviz version 2.38.0 (20140413.2041)
 -->
<!-- Title: project.android.net.ConnectionTask Pages: 1 -->
<svg width="151pt" height="175pt"
 viewBox="0.00 0.00 151.00 175.00" xmlns="http://www.w3.org/2000/svg" xmlns:xlink="http://www.w3.org/1999/xlink">
<g id="graph0" class="graph" transform="scale(1 1) rotate(0) translate(4 171)">
<title>project.android.net.ConnectionTask</title>
<polygon fill="white" stroke="none" points="-4,4 -4,-171 147,-171 147,4 -4,4"/>
<!-- Node1 -->
<g id="node1" class="node"><title>Node1</title>
<polygon fill="#bfbfbf" stroke="black" points="0,-0.5 0,-69.5 143,-69.5 143,-0.5 0,-0.5"/>
<text text-anchor="middle" x="71.5" y="-59.1" font-family="Helvetica,sans-Serif" font-size="8.00">project.android.net.ConnectionTask</text>
<polyline fill="none" stroke="black" points="0,-52.5 143,-52.5 "/>
<text text-anchor="middle" x="71.5" y="-42.1" font-family="Helvetica,sans-Serif" font-size="8.00"> </text>
<polyline fill="none" stroke="black" points="0,-35.5 143,-35.5 "/>
<text text-anchor="start" x="8" y="-25.1" font-family="Helvetica,sans-Serif" font-size="8.00"># doInBackground()</text>
<text text-anchor="start" x="8" y="-16.1" font-family="Helvetica,sans-Serif" font-size="8.00"># onPostExecute()</text>
<text text-anchor="start" x="8" y="-7.1" font-family="Helvetica,sans-Serif" font-size="8.00"># onPreExecute()</text>
</g>
<!-- Node2 -->
<g id="node2" class="node"><title>Node2</title>
<polygon fill="white" stroke="#bfbfbf" points="2.5,-106.5 2.5,-166.5 140.5,-166.5 140.5,-106.5 2.5,-106.5"/>
<text text-anchor="start" x="10.5" y="-156.1" font-family="Helvetica,sans-Serif" font-size="8.00">android::os::AsyncTask</text>
<text text-anchor="middle" x="71.5" y="-147.1" font-family="Helvetica,sans-Serif" font-size="8.00">&lt; ServerInfo, Void, EKEProvider &gt;</text>
<polyline fill="none" stroke="#bfbfbf" points="2.5,-140.5 140.5,-140.5 "/>
<text text-anchor="middle" x="71.5" y="-130.1" font-family="Helvetica,sans-Serif" font-size="8.00"> </text>
<polyline fill="none" stroke="#bfbfbf" points="2.5,-123.5 140.5,-123.5 "/>
<text text-anchor="middle" x="71.5" y="-113.1" font-family="Helvetica,sans-Serif" font-size="8.00"> </text>
</g>
<!-- Node2&#45;&gt;Node1 -->
<g id="edge1" class="edge"><title>Node2&#45;&gt;Node1</title>
<path fill="none" stroke="midnightblue" d="M71.5,-96.4191C71.5,-87.6297 71.5,-78.374 71.5,-69.8207"/>
<polygon fill="none" stroke="midnightblue" points="68.0001,-96.453 71.5,-106.453 75.0001,-96.453 68.0001,-96.453"/>
</g>
</g>
</svg>
