<?xml version="1.0" encoding="UTF-8" standalone="no"?>
<!DOCTYPE svg PUBLIC "-//W3C//DTD SVG 1.1//EN"
 "http://www.w3.org/Graphics/SVG/1.1/DTD/svg11.dtd">
<!-- Generated by graphviz version 2.38.0 (20140413.2041)
 -->
<!-- Title: project.android.CustomAdapter.CustomAdapter Pages: 1 -->
<svg width="302pt" height="35pt"
 viewBox="0.00 0.00 302.00 35.00" xmlns="http://www.w3.org/2000/svg" xmlns:xlink="http://www.w3.org/1999/xlink">
<g id="graph0" class="graph" transform="scale(1 1) rotate(0) translate(4 31)">
<title>project.android.CustomAdapter.CustomAdapter</title>
<polygon fill="white" stroke="none" points="-4,4 -4,-31 298,-31 298,4 -4,4"/>
<!-- Node0 -->
<g id="node1" class="node"><title>Node0</title>
<polygon fill="#bfbfbf" stroke="black" points="0,-0.5 0,-26.5 131,-26.5 131,-0.5 0,-0.5"/>
<text text-anchor="start" x="8" y="-16.1" font-family="Helvetica,sans-Serif" font-size="8.00">project.android.CustomAdapter.</text>
<text text-anchor="middle" x="65.5" y="-7.1" font-family="Helvetica,sans-Serif" font-size="8.00">CustomAdapter</text>
</g>
<!-- Node1 -->
<g id="node2" class="node"><title>Node1</title>
<g id="a_node2"><a xlink:href="a00182.html#a2025eaa4f93363e6f4a03b26d7c4f8f6" target="_top" xlink:title="Returns the project.android.ConnectionFragment object. ">
<polygon fill="white" stroke="black" points="167,-0.5 167,-26.5 294,-26.5 294,-0.5 167,-0.5"/>
<text text-anchor="start" x="175" y="-16.1" font-family="Helvetica,sans-Serif" font-size="8.00">project.android.MainActivity.get</text>
<text text-anchor="middle" x="230.5" y="-7.1" font-family="Helvetica,sans-Serif" font-size="8.00">ConnectionFragment</text>
</a>
</g>
</g>
<!-- Node0&#45;&gt;Node1 -->
<g id="edge1" class="edge"><title>Node0&#45;&gt;Node1</title>
<path fill="none" stroke="midnightblue" d="M131.39,-13.5C139.722,-13.5 148.295,-13.5 156.742,-13.5"/>
<polygon fill="midnightblue" stroke="midnightblue" points="156.957,-17.0001 166.957,-13.5 156.957,-10.0001 156.957,-17.0001"/>
</g>
</g>
</svg>
