<?xml version="1.0" encoding="UTF-8" standalone="no"?>
<!DOCTYPE svg PUBLIC "-//W3C//DTD SVG 1.1//EN"
 "http://www.w3.org/Graphics/SVG/1.1/DTD/svg11.dtd">
<!-- Generated by graphviz version 2.38.0 (20140413.2041)
 -->
<!-- Title: project.android.ConnectionFragment.getViewByPosition Pages: 1 -->
<svg width="623pt" height="143pt"
 viewBox="0.00 0.00 623.00 142.50" xmlns="http://www.w3.org/2000/svg" xmlns:xlink="http://www.w3.org/1999/xlink">
<g id="graph0" class="graph" transform="scale(1 1) rotate(0) translate(4 138.504)">
<title>project.android.ConnectionFragment.getViewByPosition</title>
<polygon fill="white" stroke="none" points="-4,4 -4,-138.504 619,-138.504 619,4 -4,4"/>
<!-- Node39 -->
<g id="node1" class="node"><title>Node39</title>
<polygon fill="#bfbfbf" stroke="black" points="0,-18.0044 0,-44.0044 119,-44.0044 119,-18.0044 0,-18.0044"/>
<text text-anchor="start" x="8" y="-33.6044" font-family="Helvetica,sans-Serif" font-size="8.00">project.android.Connection</text>
<text text-anchor="middle" x="59.5" y="-24.6044" font-family="Helvetica,sans-Serif" font-size="8.00">Fragment.getViewByPosition</text>
</g>
<!-- Node40 -->
<g id="node2" class="node"><title>Node40</title>
<g id="a_node2"><a xlink:href="a00166.html#a5ae4f9d7872792288afb3de65ab4c2b0" target="_top" xlink:title="Sets an icon for an inactive server. ">
<polygon fill="white" stroke="black" points="155,-63.0044 155,-89.0044 268,-89.0044 268,-63.0044 155,-63.0044"/>
<text text-anchor="start" x="163" y="-78.6044" font-family="Helvetica,sans-Serif" font-size="8.00">project.android.Connection</text>
<text text-anchor="middle" x="211.5" y="-69.6044" font-family="Helvetica,sans-Serif" font-size="8.00">Fragment.resetIcon</text>
</a>
</g>
</g>
<!-- Node39&#45;&gt;Node40 -->
<g id="edge1" class="edge"><title>Node39&#45;&gt;Node40</title>
<path fill="none" stroke="midnightblue" d="M113.898,-47.0237C131.288,-52.2407 150.372,-57.966 166.952,-62.9399"/>
<polygon fill="midnightblue" stroke="midnightblue" points="114.47,-43.5414 103.886,-44.0203 112.459,-50.2462 114.47,-43.5414"/>
</g>
<!-- Node46 -->
<g id="node8" class="node"><title>Node46</title>
<g id="a_node8"><a xlink:href="a00166.html#af0e6f7c8aa02553792fd18fbb5e98a2e" target="_top" xlink:title="Sets an icon for an active server. ">
<polygon fill="white" stroke="black" points="155,-18.0044 155,-44.0044 268,-44.0044 268,-18.0044 155,-18.0044"/>
<text text-anchor="start" x="163" y="-33.6044" font-family="Helvetica,sans-Serif" font-size="8.00">project.android.Connection</text>
<text text-anchor="middle" x="211.5" y="-24.6044" font-family="Helvetica,sans-Serif" font-size="8.00">Fragment.setIcon</text>
</a>
</g>
</g>
<!-- Node39&#45;&gt;Node46 -->
<g id="edge8" class="edge"><title>Node39&#45;&gt;Node46</title>
<path fill="none" stroke="midnightblue" d="M129.568,-31.0044C138.008,-31.0044 146.547,-31.0044 154.757,-31.0044"/>
<polygon fill="midnightblue" stroke="midnightblue" points="129.353,-27.5045 119.353,-31.0044 129.353,-34.5045 129.353,-27.5045"/>
</g>
<!-- Node41 -->
<g id="node3" class="node"><title>Node41</title>
<g id="a_node3"><a xlink:href="a00166.html#aee2a392b8b0500023dba15b60d3315d2" target="_top" xlink:title="Returns a list of ServerInfo objects. ">
<polygon fill="white" stroke="black" points="305.5,-63.0044 305.5,-89.0044 418.5,-89.0044 418.5,-63.0044 305.5,-63.0044"/>
<text text-anchor="start" x="313.5" y="-78.6044" font-family="Helvetica,sans-Serif" font-size="8.00">project.android.Connection</text>
<text text-anchor="middle" x="362" y="-69.6044" font-family="Helvetica,sans-Serif" font-size="8.00">Fragment.getNetworkList</text>
</a>
</g>
</g>
<!-- Node40&#45;&gt;Node41 -->
<g id="edge2" class="edge"><title>Node40&#45;&gt;Node41</title>
<path fill="none" stroke="midnightblue" d="M278.34,-76.0044C287.395,-76.0044 296.619,-76.0044 305.463,-76.0044"/>
<polygon fill="midnightblue" stroke="midnightblue" points="278.218,-72.5045 268.218,-76.0044 278.218,-79.5045 278.218,-72.5045"/>
</g>
<!-- Node44 -->
<g id="node6" class="node"><title>Node44</title>
<g id="a_node6"><a xlink:href="a00202.html#a9f6765867ad54f586cc7b329213a2ac3" target="_top" xlink:title="Performs operations for reading data from a server. ">
<polygon fill="white" stroke="black" points="309,-108.004 309,-134.004 415,-134.004 415,-108.004 309,-108.004"/>
<text text-anchor="start" x="317" y="-123.604" font-family="Helvetica,sans-Serif" font-size="8.00">project.android.net.Client</text>
<text text-anchor="middle" x="362" y="-114.604" font-family="Helvetica,sans-Serif" font-size="8.00">IOThread.run</text>
</a>
</g>
</g>
<!-- Node40&#45;&gt;Node44 -->
<g id="edge6" class="edge"><title>Node40&#45;&gt;Node44</title>
<path fill="none" stroke="midnightblue" d="M265.364,-92.0237C282.58,-97.2407 301.473,-102.966 317.887,-107.94"/>
<polygon fill="midnightblue" stroke="midnightblue" points="266.038,-88.5708 255.452,-89.0203 264.008,-95.27 266.038,-88.5708"/>
</g>
<!-- Node42 -->
<g id="node4" class="node"><title>Node42</title>
<g id="a_node4"><a xlink:href="a00170.html#a9b4dd18431aa7ebd37321a0d2b1d2539" target="_top" xlink:title="Overrides the ArrayAdapter.getCount() method. ">
<polygon fill="white" stroke="black" points="464.5,-63.0044 464.5,-89.0044 606.5,-89.0044 606.5,-63.0044 464.5,-63.0044"/>
<text text-anchor="start" x="472.5" y="-78.6044" font-family="Helvetica,sans-Serif" font-size="8.00">project.android.CustomAdapter.get</text>
<text text-anchor="middle" x="535.5" y="-69.6044" font-family="Helvetica,sans-Serif" font-size="8.00">Count</text>
</a>
</g>
</g>
<!-- Node41&#45;&gt;Node42 -->
<g id="edge3" class="edge"><title>Node41&#45;&gt;Node42</title>
<path fill="none" stroke="midnightblue" d="M428.767,-76.0044C440.424,-76.0044 452.602,-76.0044 464.374,-76.0044"/>
<polygon fill="midnightblue" stroke="midnightblue" points="428.681,-72.5045 418.681,-76.0044 428.681,-79.5045 428.681,-72.5045"/>
</g>
<!-- Node43 -->
<g id="node5" class="node"><title>Node43</title>
<g id="a_node5"><a xlink:href="a00170.html#aeff09458fb87bd73b69188560508baf5" target="_top" xlink:title="Overrides ArrayAdapter.getView(int, View, ViewGroup) method. ">
<polygon fill="white" stroke="black" points="456,-3.50441 456,-20.5044 615,-20.5044 615,-3.50441 456,-3.50441"/>
<text text-anchor="middle" x="535.5" y="-10.1044" font-family="Helvetica,sans-Serif" font-size="8.00">project.android.CustomAdapter.getView</text>
</a>
</g>
</g>
<!-- Node41&#45;&gt;Node43 -->
<g id="edge4" class="edge"><title>Node41&#45;&gt;Node43</title>
<path fill="none" stroke="midnightblue" d="M407.63,-59.3497C440.904,-46.9323 485.002,-30.4759 511.481,-20.5947"/>
<polygon fill="midnightblue" stroke="midnightblue" points="406.265,-56.1232 398.119,-62.8986 408.712,-62.6814 406.265,-56.1232"/>
</g>
<!-- Node43&#45;&gt;Node39 -->
<g id="edge5" class="edge"><title>Node43&#45;&gt;Node39</title>
<path fill="none" stroke="midnightblue" d="M445.521,-4.5784C368.387,0.313495 253.922,3.86059 155,-8.00441 138.403,-9.99514 120.51,-13.8858 104.805,-17.9093"/>
<polygon fill="midnightblue" stroke="midnightblue" points="445.473,-8.08264 455.68,-5.24417 445.93,-1.09762 445.473,-8.08264"/>
</g>
<!-- Node45 -->
<g id="node7" class="node"><title>Node45</title>
<g id="a_node7"><a xlink:href="a00202.html#aa57b04eb44ae7982a7a79cdb7c484144" target="_top" xlink:title="Constructor. ">
<polygon fill="white" stroke="black" points="481.5,-108.004 481.5,-134.004 589.5,-134.004 589.5,-108.004 481.5,-108.004"/>
<text text-anchor="start" x="489.5" y="-123.604" font-family="Helvetica,sans-Serif" font-size="8.00">project.android.net.Client</text>
<text text-anchor="middle" x="535.5" y="-114.604" font-family="Helvetica,sans-Serif" font-size="8.00">IOThread.ClientIOThread</text>
</a>
</g>
</g>
<!-- Node44&#45;&gt;Node45 -->
<g id="edge7" class="edge"><title>Node44&#45;&gt;Node45</title>
<path fill="none" stroke="midnightblue" d="M425.637,-121.004C443.884,-121.004 463.64,-121.004 481.25,-121.004"/>
<polygon fill="midnightblue" stroke="midnightblue" points="425.388,-117.505 415.388,-121.004 425.387,-124.505 425.388,-117.505"/>
</g>
<!-- Node47 -->
<g id="node9" class="node"><title>Node47</title>
<g id="a_node9"><a xlink:href="a00218.html#a6b623423ab726a2d5008717960032b6d" target="_top" xlink:title="Overrides the Service.onStartCommand(Intent, int, int) method of the Android API. ...">
<polygon fill="white" stroke="black" points="304,-18.0044 304,-44.0044 420,-44.0044 420,-18.0044 304,-18.0044"/>
<text text-anchor="start" x="312" y="-33.6044" font-family="Helvetica,sans-Serif" font-size="8.00">project.android.net.Network</text>
<text text-anchor="middle" x="362" y="-24.6044" font-family="Helvetica,sans-Serif" font-size="8.00">Service.onStartCommand</text>
</a>
</g>
</g>
<!-- Node46&#45;&gt;Node47 -->
<g id="edge9" class="edge"><title>Node46&#45;&gt;Node47</title>
<path fill="none" stroke="midnightblue" d="M278.486,-31.0044C286.989,-31.0044 295.638,-31.0044 303.979,-31.0044"/>
<polygon fill="midnightblue" stroke="midnightblue" points="278.218,-27.5045 268.218,-31.0044 278.218,-34.5045 278.218,-27.5045"/>
</g>
</g>
</svg>
