<?xml version="1.0" encoding="UTF-8" standalone="no"?>
<!DOCTYPE svg PUBLIC "-//W3C//DTD SVG 1.1//EN"
 "http://www.w3.org/Graphics/SVG/1.1/DTD/svg11.dtd">
<!-- Generated by graphviz version 2.38.0 (20140413.2041)
 -->
<!-- Title: project.android.net.BroadcastReceiverThread Pages: 1 -->
<svg width="131pt" height="166pt"
 viewBox="0.00 0.00 131.00 166.00" xmlns="http://www.w3.org/2000/svg" xmlns:xlink="http://www.w3.org/1999/xlink">
<g id="graph0" class="graph" transform="scale(1 1) rotate(0) translate(4 162)">
<title>project.android.net.BroadcastReceiverThread</title>
<polygon fill="white" stroke="none" points="-4,4 -4,-162 127,-162 127,4 -4,4"/>
<!-- Node0 -->
<g id="node1" class="node"><title>Node0</title>
<polygon fill="#bfbfbf" stroke="black" points="0,-0.5 0,-69.5 123,-69.5 123,-0.5 0,-0.5"/>
<text text-anchor="start" x="8" y="-59.1" font-family="Helvetica,sans-Serif" font-size="8.00">project.android.net.Broadcast</text>
<text text-anchor="middle" x="61.5" y="-50.1" font-family="Helvetica,sans-Serif" font-size="8.00">ReceiverThread</text>
<polyline fill="none" stroke="black" points="0,-43.5 123,-43.5 "/>
<text text-anchor="middle" x="61.5" y="-33.1" font-family="Helvetica,sans-Serif" font-size="8.00"> </text>
<polyline fill="none" stroke="black" points="0,-26.5 123,-26.5 "/>
<text text-anchor="start" x="8" y="-16.1" font-family="Helvetica,sans-Serif" font-size="8.00">+ BroadcastReceiverThread()</text>
<text text-anchor="start" x="8" y="-7.1" font-family="Helvetica,sans-Serif" font-size="8.00">+ run()</text>
</g>
<!-- Node1 -->
<g id="node2" class="node"><title>Node1</title>
<polygon fill="white" stroke="#bfbfbf" points="36,-106.5 36,-157.5 87,-157.5 87,-106.5 36,-106.5"/>
<text text-anchor="middle" x="61.5" y="-147.1" font-family="Helvetica,sans-Serif" font-size="8.00">Runnable</text>
<polyline fill="none" stroke="#bfbfbf" points="36,-140.5 87,-140.5 "/>
<text text-anchor="middle" x="61.5" y="-130.1" font-family="Helvetica,sans-Serif" font-size="8.00"> </text>
<polyline fill="none" stroke="#bfbfbf" points="36,-123.5 87,-123.5 "/>
<text text-anchor="middle" x="61.5" y="-113.1" font-family="Helvetica,sans-Serif" font-size="8.00"> </text>
</g>
<!-- Node1&#45;&gt;Node0 -->
<g id="edge1" class="edge"><title>Node1&#45;&gt;Node0</title>
<path fill="none" stroke="midnightblue" d="M61.5,-95.9561C61.5,-87.3848 61.5,-78.2313 61.5,-69.7233"/>
<polygon fill="none" stroke="midnightblue" points="58.0001,-96.0398 61.5,-106.04 65.0001,-96.0399 58.0001,-96.0398"/>
</g>
</g>
</svg>
