<?xml version="1.0" encoding="UTF-8" standalone="no"?>
<!DOCTYPE svg PUBLIC "-//W3C//DTD SVG 1.1//EN"
 "http://www.w3.org/Graphics/SVG/1.1/DTD/svg11.dtd">
<!-- Generated by graphviz version 2.38.0 (20140413.2041)
 -->
<!-- Title: project.android.security.EKEProvider.encryptString Pages: 1 -->
<svg width="1404pt" height="120pt"
 viewBox="0.00 0.00 1404.00 119.90" xmlns="http://www.w3.org/2000/svg" xmlns:xlink="http://www.w3.org/1999/xlink">
<g id="graph0" class="graph" transform="scale(1 1) rotate(0) translate(4 115.895)">
<title>project.android.security.EKEProvider.encryptString</title>
<polygon fill="white" stroke="none" points="-4,4 -4,-115.895 1400,-115.895 1400,4 -4,4"/>
<!-- Node13 -->
<g id="node1" class="node"><title>Node13</title>
<polygon fill="#bfbfbf" stroke="black" points="0,-9 0,-35 112,-35 112,-9 0,-9"/>
<text text-anchor="start" x="8" y="-24.6" font-family="Helvetica,sans-Serif" font-size="8.00">project.android.security.</text>
<text text-anchor="middle" x="56" y="-15.6" font-family="Helvetica,sans-Serif" font-size="8.00">EKEProvider.encryptString</text>
</g>
<!-- Node14 -->
<g id="node2" class="node"><title>Node14</title>
<g id="a_node2"><a xlink:href="a00194.html#a3d6c629d64e1911979c9f483c8785b5f" target="_top" xlink:title="Sends mouse button or keyboard data. ">
<polygon fill="white" stroke="black" points="148,-35.5 148,-52.5 291,-52.5 291,-35.5 148,-35.5"/>
<text text-anchor="middle" x="219.5" y="-42.1" font-family="Helvetica,sans-Serif" font-size="8.00">project.android.net.Client.sendData</text>
</a>
</g>
</g>
<!-- Node13&#45;&gt;Node14 -->
<g id="edge1" class="edge"><title>Node13&#45;&gt;Node14</title>
<path fill="none" stroke="midnightblue" d="M122.187,-30.88C133.294,-32.393 144.809,-33.9616 155.849,-35.4654"/>
<polygon fill="midnightblue" stroke="midnightblue" points="122.508,-27.3915 112.127,-29.5096 121.563,-34.3274 122.508,-27.3915"/>
</g>
<!-- Node22 -->
<g id="node10" class="node"><title>Node22</title>
<g id="a_node10"><a xlink:href="a00202.html#aa57b04eb44ae7982a7a79cdb7c484144" target="_top" xlink:title="Constructor. ">
<polygon fill="white" stroke="black" points="1288,-30 1288,-56 1396,-56 1396,-30 1288,-30"/>
<text text-anchor="start" x="1296" y="-45.6" font-family="Helvetica,sans-Serif" font-size="8.00">project.android.net.Client</text>
<text text-anchor="middle" x="1342" y="-36.6" font-family="Helvetica,sans-Serif" font-size="8.00">IOThread.ClientIOThread</text>
</a>
</g>
</g>
<!-- Node13&#45;&gt;Node22 -->
<g id="edge13" class="edge"><title>Node13&#45;&gt;Node22</title>
<path fill="none" stroke="midnightblue" d="M122.021,-15.1293C188.798,-8.67429 295.783,-0 388.5,-0 388.5,-0 388.5,-0 1044.5,-0 1137.11,-0 1160.84,-2.66151 1252,-19 1267.28,-21.7387 1283.76,-25.8477 1298.33,-29.8953"/>
<polygon fill="midnightblue" stroke="midnightblue" points="121.673,-11.6465 112.062,-16.1044 122.355,-18.6132 121.673,-11.6465"/>
</g>
<!-- Node15 -->
<g id="node3" class="node"><title>Node15</title>
<g id="a_node3"><a xlink:href="a00194.html#aa23e2b087d09db0524a34b73cd5e07d3" target="_top" xlink:title="Sends a stop signal if the user disconnects the server. ">
<polygon fill="white" stroke="black" points="327,-38 327,-64 452,-64 452,-38 327,-38"/>
<text text-anchor="start" x="335" y="-53.6" font-family="Helvetica,sans-Serif" font-size="8.00">project.android.net.Client.send</text>
<text text-anchor="middle" x="389.5" y="-44.6" font-family="Helvetica,sans-Serif" font-size="8.00">StopSignal</text>
</a>
</g>
</g>
<!-- Node14&#45;&gt;Node15 -->
<g id="edge2" class="edge"><title>Node14&#45;&gt;Node15</title>
<path fill="none" stroke="midnightblue" d="M301.311,-47.3671C309.909,-47.7254 318.552,-48.0855 326.878,-48.4324"/>
<polygon fill="midnightblue" stroke="midnightblue" points="301.397,-43.8678 291.26,-46.9483 301.106,-50.8617 301.397,-43.8678"/>
</g>
<!-- Node16 -->
<g id="node4" class="node"><title>Node16</title>
<g id="a_node4"><a xlink:href="a00166.html#aee2a392b8b0500023dba15b60d3315d2" target="_top" xlink:title="Returns a list of ServerInfo objects. ">
<polygon fill="white" stroke="black" points="488,-56 488,-82 601,-82 601,-56 488,-56"/>
<text text-anchor="start" x="496" y="-71.6" font-family="Helvetica,sans-Serif" font-size="8.00">project.android.Connection</text>
<text text-anchor="middle" x="544.5" y="-62.6" font-family="Helvetica,sans-Serif" font-size="8.00">Fragment.getNetworkList</text>
</a>
</g>
</g>
<!-- Node15&#45;&gt;Node16 -->
<g id="edge3" class="edge"><title>Node15&#45;&gt;Node16</title>
<path fill="none" stroke="midnightblue" d="M462.315,-59.4489C470.909,-60.4598 479.581,-61.4801 487.897,-62.4584"/>
<polygon fill="midnightblue" stroke="midnightblue" points="462.63,-55.9619 452.29,-58.2694 461.812,-62.9139 462.63,-55.9619"/>
</g>
<!-- Node17 -->
<g id="node5" class="node"><title>Node17</title>
<g id="a_node5"><a xlink:href="a00170.html#a9b4dd18431aa7ebd37321a0d2b1d2539" target="_top" xlink:title="Overrides the ArrayAdapter.getCount() method. ">
<polygon fill="white" stroke="black" points="645.5,-65 645.5,-91 787.5,-91 787.5,-65 645.5,-65"/>
<text text-anchor="start" x="653.5" y="-80.6" font-family="Helvetica,sans-Serif" font-size="8.00">project.android.CustomAdapter.get</text>
<text text-anchor="middle" x="716.5" y="-71.6" font-family="Helvetica,sans-Serif" font-size="8.00">Count</text>
</a>
</g>
</g>
<!-- Node16&#45;&gt;Node17 -->
<g id="edge4" class="edge"><title>Node16&#45;&gt;Node17</title>
<path fill="none" stroke="midnightblue" d="M611.285,-72.4827C622.474,-73.0751 634.132,-73.6923 645.427,-74.2902"/>
<polygon fill="midnightblue" stroke="midnightblue" points="611.335,-68.9806 601.164,-71.9469 610.965,-75.9708 611.335,-68.9806"/>
</g>
<!-- Node18 -->
<g id="node6" class="node"><title>Node18</title>
<g id="a_node6"><a xlink:href="a00170.html#aeff09458fb87bd73b69188560508baf5" target="_top" xlink:title="Overrides ArrayAdapter.getView(int, View, ViewGroup) method. ">
<polygon fill="white" stroke="black" points="637,-28.5 637,-45.5 796,-45.5 796,-28.5 637,-28.5"/>
<text text-anchor="middle" x="716.5" y="-35.1" font-family="Helvetica,sans-Serif" font-size="8.00">project.android.CustomAdapter.getView</text>
</a>
</g>
</g>
<!-- Node16&#45;&gt;Node18 -->
<g id="edge5" class="edge"><title>Node16&#45;&gt;Node18</title>
<path fill="none" stroke="midnightblue" d="M611.035,-56.664C630.803,-52.9429 652.056,-48.9424 670.198,-45.5275"/>
<polygon fill="midnightblue" stroke="midnightblue" points="610.344,-53.2325 601.164,-58.522 611.639,-60.1117 610.344,-53.2325"/>
</g>
<!-- Node19 -->
<g id="node7" class="node"><title>Node19</title>
<g id="a_node7"><a xlink:href="a00166.html#a863b30e1ce16c16e6dba6bebe8d8c45e" target="_top" xlink:title="Returns the View of the clicked list item. ">
<polygon fill="white" stroke="black" points="832,-29 832,-55 951,-55 951,-29 832,-29"/>
<text text-anchor="start" x="840" y="-44.6" font-family="Helvetica,sans-Serif" font-size="8.00">project.android.Connection</text>
<text text-anchor="middle" x="891.5" y="-35.6" font-family="Helvetica,sans-Serif" font-size="8.00">Fragment.getViewByPosition</text>
</a>
</g>
</g>
<!-- Node18&#45;&gt;Node19 -->
<g id="edge6" class="edge"><title>Node18&#45;&gt;Node19</title>
<path fill="none" stroke="midnightblue" d="M806.348,-39.5679C815.038,-39.819 823.697,-40.0693 831.972,-40.3084"/>
<polygon fill="midnightblue" stroke="midnightblue" points="806.251,-36.0637 796.154,-39.2732 806.048,-43.0608 806.251,-36.0637"/>
</g>
<!-- Node20 -->
<g id="node8" class="node"><title>Node20</title>
<g id="a_node8"><a xlink:href="a00166.html#a5ae4f9d7872792288afb3de65ab4c2b0" target="_top" xlink:title="Sets an icon for an inactive server. ">
<polygon fill="white" stroke="black" points="987,-74 987,-100 1100,-100 1100,-74 987,-74"/>
<text text-anchor="start" x="995" y="-89.6" font-family="Helvetica,sans-Serif" font-size="8.00">project.android.Connection</text>
<text text-anchor="middle" x="1043.5" y="-80.6" font-family="Helvetica,sans-Serif" font-size="8.00">Fragment.resetIcon</text>
</a>
</g>
</g>
<!-- Node19&#45;&gt;Node20 -->
<g id="edge7" class="edge"><title>Node19&#45;&gt;Node20</title>
<path fill="none" stroke="midnightblue" d="M945.898,-58.0193C963.288,-63.2363 982.372,-68.9616 998.952,-73.9355"/>
<polygon fill="midnightblue" stroke="midnightblue" points="946.47,-54.537 935.886,-55.0159 944.459,-61.2418 946.47,-54.537"/>
</g>
<!-- Node23 -->
<g id="node11" class="node"><title>Node23</title>
<g id="a_node11"><a xlink:href="a00166.html#af0e6f7c8aa02553792fd18fbb5e98a2e" target="_top" xlink:title="Sets an icon for an active server. ">
<polygon fill="white" stroke="black" points="987,-29 987,-55 1100,-55 1100,-29 987,-29"/>
<text text-anchor="start" x="995" y="-44.6" font-family="Helvetica,sans-Serif" font-size="8.00">project.android.Connection</text>
<text text-anchor="middle" x="1043.5" y="-35.6" font-family="Helvetica,sans-Serif" font-size="8.00">Fragment.setIcon</text>
</a>
</g>
</g>
<!-- Node19&#45;&gt;Node23 -->
<g id="edge11" class="edge"><title>Node19&#45;&gt;Node23</title>
<path fill="none" stroke="midnightblue" d="M961.568,-42C970.008,-42 978.547,-42 986.757,-42"/>
<polygon fill="midnightblue" stroke="midnightblue" points="961.353,-38.5001 951.353,-42 961.353,-45.5001 961.353,-38.5001"/>
</g>
<!-- Node20&#45;&gt;Node16 -->
<g id="edge8" class="edge"><title>Node20&#45;&gt;Node16</title>
<path fill="none" stroke="midnightblue" d="M976.924,-97.3326C896.291,-108.191 755.545,-121.131 637,-101 615.597,-97.3654 592.531,-89.2683 574.912,-82.129"/>
<polygon fill="midnightblue" stroke="midnightblue" points="977.505,-100.786 986.934,-95.9535 976.55,-93.8512 977.505,-100.786"/>
</g>
<!-- Node21 -->
<g id="node9" class="node"><title>Node21</title>
<g id="a_node9"><a xlink:href="a00202.html#a9f6765867ad54f586cc7b329213a2ac3" target="_top" xlink:title="Performs operations for reading data from a server. ">
<polygon fill="white" stroke="black" points="1141,-74 1141,-100 1247,-100 1247,-74 1141,-74"/>
<text text-anchor="start" x="1149" y="-89.6" font-family="Helvetica,sans-Serif" font-size="8.00">project.android.net.Client</text>
<text text-anchor="middle" x="1194" y="-80.6" font-family="Helvetica,sans-Serif" font-size="8.00">IOThread.run</text>
</a>
</g>
</g>
<!-- Node20&#45;&gt;Node21 -->
<g id="edge9" class="edge"><title>Node20&#45;&gt;Node21</title>
<path fill="none" stroke="midnightblue" d="M1110.35,-87C1120.58,-87 1131.03,-87 1140.9,-87"/>
<polygon fill="midnightblue" stroke="midnightblue" points="1110.22,-83.5001 1100.22,-87 1110.22,-90.5001 1110.22,-83.5001"/>
</g>
<!-- Node21&#45;&gt;Node22 -->
<g id="edge10" class="edge"><title>Node21&#45;&gt;Node22</title>
<path fill="none" stroke="midnightblue" d="M1248.32,-70.9308C1264.58,-66.0302 1282.25,-60.7054 1297.76,-56.0319"/>
<polygon fill="midnightblue" stroke="midnightblue" points="1246.97,-67.681 1238.41,-73.9177 1248.99,-74.3832 1246.97,-67.681"/>
</g>
<!-- Node24 -->
<g id="node12" class="node"><title>Node24</title>
<g id="a_node12"><a xlink:href="a00218.html#a6b623423ab726a2d5008717960032b6d" target="_top" xlink:title="Overrides the Service.onStartCommand(Intent, int, int) method of the Android API. ...">
<polygon fill="white" stroke="black" points="1136,-29 1136,-55 1252,-55 1252,-29 1136,-29"/>
<text text-anchor="start" x="1144" y="-44.6" font-family="Helvetica,sans-Serif" font-size="8.00">project.android.net.Network</text>
<text text-anchor="middle" x="1194" y="-35.6" font-family="Helvetica,sans-Serif" font-size="8.00">Service.onStartCommand</text>
</a>
</g>
</g>
<!-- Node23&#45;&gt;Node24 -->
<g id="edge12" class="edge"><title>Node23&#45;&gt;Node24</title>
<path fill="none" stroke="midnightblue" d="M1110.49,-42C1118.99,-42 1127.64,-42 1135.98,-42"/>
<polygon fill="midnightblue" stroke="midnightblue" points="1110.22,-38.5001 1100.22,-42 1110.22,-45.5001 1110.22,-38.5001"/>
</g>
</g>
</svg>
