<?xml version="1.0" encoding="UTF-8" standalone="no"?>
<!DOCTYPE svg PUBLIC "-//W3C//DTD SVG 1.1//EN"
 "http://www.w3.org/Graphics/SVG/1.1/DTD/svg11.dtd">
<!-- Generated by graphviz version 2.38.0 (20140413.2041)
 -->
<!-- Title: project.android.security.EKEProvider.getBase64EncodedPubKey Pages: 1 -->
<svg width="331pt" height="35pt"
 viewBox="0.00 0.00 331.00 35.00" xmlns="http://www.w3.org/2000/svg" xmlns:xlink="http://www.w3.org/1999/xlink">
<g id="graph0" class="graph" transform="scale(1 1) rotate(0) translate(4 31)">
<title>project.android.security.EKEProvider.getBase64EncodedPubKey</title>
<polygon fill="white" stroke="none" points="-4,4 -4,-31 327,-31 327,4 -4,4"/>
<!-- Node26 -->
<g id="node1" class="node"><title>Node26</title>
<polygon fill="#bfbfbf" stroke="black" points="0,-0.5 0,-26.5 162,-26.5 162,-0.5 0,-0.5"/>
<text text-anchor="start" x="8" y="-16.1" font-family="Helvetica,sans-Serif" font-size="8.00">project.android.security.</text>
<text text-anchor="middle" x="81" y="-7.1" font-family="Helvetica,sans-Serif" font-size="8.00">EKEProvider.getBase64EncodedPubKey</text>
</g>
<!-- Node27 -->
<g id="node2" class="node"><title>Node27</title>
<g id="a_node2"><a xlink:href="a00182.html#ab210a04fc41f7a41007b94e3c583463f" target="_top" xlink:title="Overrides the AppCompatActivity.onCreate(Bundle) method of the Android API. ">
<polygon fill="white" stroke="black" points="198,-0.5 198,-26.5 323,-26.5 323,-0.5 198,-0.5"/>
<text text-anchor="start" x="206" y="-16.1" font-family="Helvetica,sans-Serif" font-size="8.00">project.android.MainActivity.on</text>
<text text-anchor="middle" x="260.5" y="-7.1" font-family="Helvetica,sans-Serif" font-size="8.00">Create</text>
</a>
</g>
</g>
<!-- Node26&#45;&gt;Node27 -->
<g id="edge1" class="edge"><title>Node26&#45;&gt;Node27</title>
<path fill="none" stroke="midnightblue" d="M172.289,-13.5C180.908,-13.5 189.508,-13.5 197.763,-13.5"/>
<polygon fill="midnightblue" stroke="midnightblue" points="172.182,-10.0001 162.182,-13.5 172.182,-17.0001 172.182,-10.0001"/>
</g>
</g>
</svg>
