<?xml version="1.0" encoding="UTF-8" standalone="no"?>
<!DOCTYPE svg PUBLIC "-//W3C//DTD SVG 1.1//EN"
 "http://www.w3.org/Graphics/SVG/1.1/DTD/svg11.dtd">
<!-- Generated by graphviz version 2.38.0 (20140413.2041)
 -->
<!-- Title: project.android.sensor.orientation.OrientationProvider Pages: 1 -->
<svg width="526pt" height="633pt"
 viewBox="0.00 0.00 525.50 633.00" xmlns="http://www.w3.org/2000/svg" xmlns:xlink="http://www.w3.org/1999/xlink">
<g id="graph0" class="graph" transform="scale(1 1) rotate(0) translate(4 629)">
<title>project.android.sensor.orientation.OrientationProvider</title>
<polygon fill="white" stroke="none" points="-4,4 -4,-629 521.5,-629 521.5,4 -4,4"/>
<!-- Node0 -->
<g id="node1" class="node"><title>Node0</title>
<polygon fill="#bfbfbf" stroke="black" points="218.5,-0.5 218.5,-114.5 356.5,-114.5 356.5,-0.5 218.5,-0.5"/>
<text text-anchor="start" x="226.5" y="-104.1" font-family="Helvetica,sans-Serif" font-size="8.00">project.android.sensor.orientation.</text>
<text text-anchor="middle" x="287.5" y="-95.1" font-family="Helvetica,sans-Serif" font-size="8.00">OrientationProvider</text>
<polyline fill="none" stroke="black" points="218.5,-88.5 356.5,-88.5 "/>
<text text-anchor="start" x="226.5" y="-78.1" font-family="Helvetica,sans-Serif" font-size="8.00">~ synchronizationToken</text>
<polyline fill="none" stroke="black" points="218.5,-71.5 356.5,-71.5 "/>
<text text-anchor="start" x="226.5" y="-61.1" font-family="Helvetica,sans-Serif" font-size="8.00">+ getEulerAngles()</text>
<text text-anchor="start" x="226.5" y="-52.1" font-family="Helvetica,sans-Serif" font-size="8.00">+ getQuaternion()</text>
<text text-anchor="start" x="226.5" y="-43.1" font-family="Helvetica,sans-Serif" font-size="8.00">+ getRotationMatrix()</text>
<text text-anchor="start" x="226.5" y="-34.1" font-family="Helvetica,sans-Serif" font-size="8.00">+ sensorStop()</text>
<text text-anchor="start" x="226.5" y="-25.1" font-family="Helvetica,sans-Serif" font-size="8.00">+ checkGyro()</text>
<text text-anchor="start" x="226.5" y="-16.1" font-family="Helvetica,sans-Serif" font-size="8.00">~ OrientationProvider()</text>
<text text-anchor="start" x="226.5" y="-7.1" font-family="Helvetica,sans-Serif" font-size="8.00">~ sensorStart()</text>
</g>
<!-- Node1 -->
<g id="node2" class="node"><title>Node1</title>
<polygon fill="white" stroke="#bfbfbf" points="0,-264 0,-315 91,-315 91,-264 0,-264"/>
<text text-anchor="middle" x="45.5" y="-304.6" font-family="Helvetica,sans-Serif" font-size="8.00">SensorEventListener</text>
<polyline fill="none" stroke="#bfbfbf" points="0,-298 91,-298 "/>
<text text-anchor="middle" x="45.5" y="-287.6" font-family="Helvetica,sans-Serif" font-size="8.00"> </text>
<polyline fill="none" stroke="#bfbfbf" points="0,-281 91,-281 "/>
<text text-anchor="middle" x="45.5" y="-270.6" font-family="Helvetica,sans-Serif" font-size="8.00"> </text>
</g>
<!-- Node1&#45;&gt;Node0 -->
<g id="edge1" class="edge"><title>Node1&#45;&gt;Node0</title>
<path fill="none" stroke="midnightblue" d="M55.2361,-253.859C63.8379,-228.124 78.4808,-193.397 100.5,-169 132.84,-133.168 179.59,-105.543 218.255,-86.8758"/>
<polygon fill="none" stroke="midnightblue" points="51.8374,-252.997 52.1267,-263.587 58.5051,-255.128 51.8374,-252.997"/>
</g>
<!-- Node2 -->
<g id="node3" class="node"><title>Node2</title>
<g id="a_node3"><a xlink:href="a00250.html" target="_top" xlink:title="Class to represent a quaternion. ">
<polygon fill="white" stroke="black" points="109.5,-214.5 109.5,-364.5 261.5,-364.5 261.5,-214.5 109.5,-214.5"/>
<text text-anchor="start" x="117.5" y="-354.1" font-family="Helvetica,sans-Serif" font-size="8.00">project.android.sensor.representation.</text>
<text text-anchor="middle" x="185.5" y="-345.1" font-family="Helvetica,sans-Serif" font-size="8.00">Quaternion</text>
<polyline fill="none" stroke="black" points="109.5,-338.5 261.5,-338.5 "/>
<text text-anchor="middle" x="185.5" y="-328.1" font-family="Helvetica,sans-Serif" font-size="8.00"> </text>
<polyline fill="none" stroke="black" points="109.5,-321.5 261.5,-321.5 "/>
<text text-anchor="start" x="117.5" y="-311.1" font-family="Helvetica,sans-Serif" font-size="8.00">+ Quaternion()</text>
<text text-anchor="start" x="117.5" y="-302.1" font-family="Helvetica,sans-Serif" font-size="8.00">+ addQuat()</text>
<text text-anchor="start" x="117.5" y="-293.1" font-family="Helvetica,sans-Serif" font-size="8.00">+ copyFromVec3()</text>
<text text-anchor="start" x="117.5" y="-284.1" font-family="Helvetica,sans-Serif" font-size="8.00">+ getMatrix4x4()</text>
<text text-anchor="start" x="117.5" y="-275.1" font-family="Helvetica,sans-Serif" font-size="8.00">+ multiplyByQuat()</text>
<text text-anchor="start" x="117.5" y="-266.1" font-family="Helvetica,sans-Serif" font-size="8.00">+ multiplyByQuat()</text>
<text text-anchor="start" x="117.5" y="-257.1" font-family="Helvetica,sans-Serif" font-size="8.00">+ multiplyByScalar()</text>
<text text-anchor="start" x="117.5" y="-248.1" font-family="Helvetica,sans-Serif" font-size="8.00">+ normalize()</text>
<text text-anchor="start" x="117.5" y="-239.1" font-family="Helvetica,sans-Serif" font-size="8.00">+ rotateVector()</text>
<text text-anchor="start" x="117.5" y="-230.1" font-family="Helvetica,sans-Serif" font-size="8.00">+ set()</text>
<text text-anchor="start" x="117.5" y="-221.1" font-family="Helvetica,sans-Serif" font-size="8.00">and 10 more...</text>
</a>
</g>
</g>
<!-- Node2&#45;&gt;Node0 -->
<g id="edge2" class="edge"><title>Node2&#45;&gt;Node0</title>
<path fill="none" stroke="#404040" d="M182.642,-214.455C184.359,-187.538 189.645,-157.69 202.5,-133 204.845,-128.496 207.584,-124.142 210.614,-119.953"/>
<polygon fill="none" stroke="#404040" points="210.681,-119.868 211.294,-112.683 218.162,-110.485 217.549,-117.67 210.681,-119.868"/>
<text text-anchor="middle" x="258.5" y="-140.1" font-family="Helvetica,sans-Serif" font-size="8.00"> ~currentOrientationQuaternion</text>
</g>
<!-- Node3 -->
<g id="node4" class="node"><title>Node3</title>
<g id="a_node4"><a xlink:href="a00258.html" target="_top" xlink:title="Class to represent a four dimensional vector. ">
<polygon fill="white" stroke="black" points="109.5,-447.5 109.5,-624.5 261.5,-624.5 261.5,-447.5 109.5,-447.5"/>
<text text-anchor="start" x="117.5" y="-614.1" font-family="Helvetica,sans-Serif" font-size="8.00">project.android.sensor.representation.</text>
<text text-anchor="middle" x="185.5" y="-605.1" font-family="Helvetica,sans-Serif" font-size="8.00">Vector4f</text>
<polyline fill="none" stroke="black" points="109.5,-598.5 261.5,-598.5 "/>
<text text-anchor="start" x="117.5" y="-588.1" font-family="Helvetica,sans-Serif" font-size="8.00">~ mPoints</text>
<polyline fill="none" stroke="black" points="109.5,-581.5 261.5,-581.5 "/>
<text text-anchor="start" x="117.5" y="-571.1" font-family="Helvetica,sans-Serif" font-size="8.00">+ Vector4f()</text>
<text text-anchor="start" x="117.5" y="-562.1" font-family="Helvetica,sans-Serif" font-size="8.00">+ Vector4f()</text>
<text text-anchor="start" x="117.5" y="-553.1" font-family="Helvetica,sans-Serif" font-size="8.00">+ Vector4f()</text>
<text text-anchor="start" x="117.5" y="-544.1" font-family="Helvetica,sans-Serif" font-size="8.00">+ add()</text>
<text text-anchor="start" x="117.5" y="-535.1" font-family="Helvetica,sans-Serif" font-size="8.00">+ add()</text>
<text text-anchor="start" x="117.5" y="-526.1" font-family="Helvetica,sans-Serif" font-size="8.00">+ array()</text>
<text text-anchor="start" x="117.5" y="-517.1" font-family="Helvetica,sans-Serif" font-size="8.00">+ compareTo()</text>
<text text-anchor="start" x="117.5" y="-508.1" font-family="Helvetica,sans-Serif" font-size="8.00">+ getW()</text>
<text text-anchor="start" x="117.5" y="-499.1" font-family="Helvetica,sans-Serif" font-size="8.00">+ getX()</text>
<text text-anchor="start" x="117.5" y="-490.1" font-family="Helvetica,sans-Serif" font-size="8.00">+ getY()</text>
<text text-anchor="start" x="117.5" y="-481.1" font-family="Helvetica,sans-Serif" font-size="8.00">and 12 more...</text>
<text text-anchor="start" x="117.5" y="-472.1" font-family="Helvetica,sans-Serif" font-size="8.00">~ copyFromV3f()</text>
<text text-anchor="start" x="117.5" y="-463.1" font-family="Helvetica,sans-Serif" font-size="8.00">~ copyVec4()</text>
<text text-anchor="start" x="117.5" y="-454.1" font-family="Helvetica,sans-Serif" font-size="8.00">~ dotProduct()</text>
</a>
</g>
</g>
<!-- Node3&#45;&gt;Node2 -->
<g id="edge3" class="edge"><title>Node3&#45;&gt;Node2</title>
<path fill="none" stroke="midnightblue" d="M185.5,-437.142C185.5,-412.941 185.5,-387.41 185.5,-364.555"/>
<polygon fill="none" stroke="midnightblue" points="182,-437.42 185.5,-447.42 189,-437.421 182,-437.42"/>
</g>
<!-- Node4 -->
<g id="node5" class="node"><title>Node4</title>
<g id="a_node5"><a xlink:href="a00246.html" target="_top" xlink:title="Class to represent a 4x4 matrix (float). ">
<polygon fill="white" stroke="black" points="279.5,-169.5 279.5,-409.5 431.5,-409.5 431.5,-169.5 279.5,-169.5"/>
<text text-anchor="start" x="287.5" y="-399.1" font-family="Helvetica,sans-Serif" font-size="8.00">project.android.sensor.representation.</text>
<text text-anchor="middle" x="355.5" y="-390.1" font-family="Helvetica,sans-Serif" font-size="8.00">MatrixF4x4</text>
<polyline fill="none" stroke="black" points="279.5,-383.5 431.5,-383.5 "/>
<text text-anchor="start" x="287.5" y="-373.1" font-family="Helvetica,sans-Serif" font-size="8.00">+ matrix</text>
<text text-anchor="start" x="287.5" y="-364.1" font-family="Helvetica,sans-Serif" font-size="8.00">~ MAT_IND_COL16_3X3</text>
<text text-anchor="start" x="287.5" y="-355.1" font-family="Helvetica,sans-Serif" font-size="8.00">~ MAT_IND_COL9_3X3</text>
<text text-anchor="start" x="287.5" y="-346.1" font-family="Helvetica,sans-Serif" font-size="8.00">~ MAT_IND_ROW16_3X3</text>
<text text-anchor="start" x="287.5" y="-337.1" font-family="Helvetica,sans-Serif" font-size="8.00">~ MAT_IND_ROW9_3X3</text>
<polyline fill="none" stroke="black" points="279.5,-330.5 431.5,-330.5 "/>
<text text-anchor="start" x="287.5" y="-320.1" font-family="Helvetica,sans-Serif" font-size="8.00">+ MatrixF4x4()</text>
<text text-anchor="start" x="287.5" y="-311.1" font-family="Helvetica,sans-Serif" font-size="8.00">+ multiplyMatrix4x4ByMatrix()</text>
<text text-anchor="start" x="287.5" y="-302.1" font-family="Helvetica,sans-Serif" font-size="8.00">+ multiplyVector3fByMatrix()</text>
<text text-anchor="start" x="287.5" y="-293.1" font-family="Helvetica,sans-Serif" font-size="8.00">+ multiplyVector4fByMatrix()</text>
<text text-anchor="start" x="287.5" y="-284.1" font-family="Helvetica,sans-Serif" font-size="8.00">+ set()</text>
<text text-anchor="start" x="287.5" y="-275.1" font-family="Helvetica,sans-Serif" font-size="8.00">+ transpose()</text>
<text text-anchor="start" x="287.5" y="-266.1" font-family="Helvetica,sans-Serif" font-size="8.00">~ getMatrix()</text>
<text text-anchor="start" x="287.5" y="-257.1" font-family="Helvetica,sans-Serif" font-size="8.00">~ isColumnMajor()</text>
<text text-anchor="start" x="287.5" y="-248.1" font-family="Helvetica,sans-Serif" font-size="8.00">~ setColumnMajor()</text>
<text text-anchor="start" x="287.5" y="-239.1" font-family="Helvetica,sans-Serif" font-size="8.00">~ setMatrix()</text>
<text text-anchor="start" x="287.5" y="-230.1" font-family="Helvetica,sans-Serif" font-size="8.00">~ setW0()</text>
<text text-anchor="start" x="287.5" y="-221.1" font-family="Helvetica,sans-Serif" font-size="8.00">~ setW1()</text>
<text text-anchor="start" x="287.5" y="-212.1" font-family="Helvetica,sans-Serif" font-size="8.00">~ setW2()</text>
<text text-anchor="start" x="287.5" y="-203.1" font-family="Helvetica,sans-Serif" font-size="8.00">~ setW3()</text>
<text text-anchor="start" x="287.5" y="-194.1" font-family="Helvetica,sans-Serif" font-size="8.00">~ setX0()</text>
<text text-anchor="start" x="287.5" y="-185.1" font-family="Helvetica,sans-Serif" font-size="8.00">~ setX1()</text>
<text text-anchor="start" x="287.5" y="-176.1" font-family="Helvetica,sans-Serif" font-size="8.00">and 11 more...</text>
</a>
</g>
</g>
<!-- Node4&#45;&gt;Node0 -->
<g id="edge4" class="edge"><title>Node4&#45;&gt;Node0</title>
<path fill="none" stroke="#404040" d="M329.161,-169.095C325.838,-156.828 322.271,-144.613 318.5,-133 317.77,-130.752 317.001,-128.476 316.203,-126.186"/>
<polygon fill="none" stroke="#404040" points="316.118,-125.953 310.3,-121.693 311.995,-114.684 317.813,-118.944 316.118,-125.953"/>
<text text-anchor="start" x="324.5" y="-144.6" font-family="Helvetica,sans-Serif" font-size="8.00"> ~currentOrientationRotation</text>
<text text-anchor="middle" x="375.5" y="-135.6" font-family="Helvetica,sans-Serif" font-size="8.00">Matrix</text>
</g>
<!-- Node5 -->
<g id="node6" class="node"><title>Node5</title>
<polygon fill="white" stroke="#bfbfbf" points="449.5,-264 449.5,-315 517.5,-315 517.5,-264 449.5,-264"/>
<text text-anchor="middle" x="483.5" y="-304.6" font-family="Helvetica,sans-Serif" font-size="8.00">List&lt; Sensor &gt;</text>
<polyline fill="none" stroke="#bfbfbf" points="449.5,-298 517.5,-298 "/>
<text text-anchor="middle" x="483.5" y="-287.6" font-family="Helvetica,sans-Serif" font-size="8.00"> </text>
<polyline fill="none" stroke="#bfbfbf" points="449.5,-281 517.5,-281 "/>
<text text-anchor="middle" x="483.5" y="-270.6" font-family="Helvetica,sans-Serif" font-size="8.00"> </text>
</g>
<!-- Node5&#45;&gt;Node0 -->
<g id="edge5" class="edge"><title>Node5&#45;&gt;Node0</title>
<path fill="none" stroke="#404040" d="M480.829,-263.875C476.062,-230.638 463.294,-171.193 430.5,-133 413.731,-113.471 390.559,-98.3589 367.747,-87.011"/>
<polygon fill="none" stroke="#404040" points="367.454,-86.8724 360.32,-87.9217 356.607,-81.7397 363.741,-80.6904 367.454,-86.8724"/>
<text text-anchor="middle" x="470.5" y="-140.1" font-family="Helvetica,sans-Serif" font-size="8.00"> ~mSensorList</text>
</g>
</g>
</svg>
