<?xml version="1.0" encoding="UTF-8" standalone="no"?>
<!DOCTYPE svg PUBLIC "-//W3C//DTD SVG 1.1//EN"
 "http://www.w3.org/Graphics/SVG/1.1/DTD/svg11.dtd">
<!-- Generated by graphviz version 2.38.0 (20140413.2041)
 -->
<!-- Title: project.android.sensor.orientation.OrientationProvider.checkGyro Pages: 1 -->
<svg width="307pt" height="35pt"
 viewBox="0.00 0.00 307.00 35.00" xmlns="http://www.w3.org/2000/svg" xmlns:xlink="http://www.w3.org/1999/xlink">
<g id="graph0" class="graph" transform="scale(1 1) rotate(0) translate(4 31)">
<title>project.android.sensor.orientation.OrientationProvider.checkGyro</title>
<polygon fill="white" stroke="none" points="-4,4 -4,-31 303,-31 303,4 -4,4"/>
<!-- Node3 -->
<g id="node1" class="node"><title>Node3</title>
<polygon fill="#bfbfbf" stroke="black" points="0,-0.5 0,-26.5 138,-26.5 138,-0.5 0,-0.5"/>
<text text-anchor="start" x="8" y="-16.1" font-family="Helvetica,sans-Serif" font-size="8.00">project.android.sensor.orientation.</text>
<text text-anchor="middle" x="69" y="-7.1" font-family="Helvetica,sans-Serif" font-size="8.00">OrientationProvider.checkGyro</text>
</g>
<!-- Node4 -->
<g id="node2" class="node"><title>Node4</title>
<g id="a_node2"><a xlink:href="a00182.html#a78e0c2c257e8be10aebfdfd5f323c100" target="_top" xlink:title="Implements the &#160;NavigationView.OnNavigationItemSelectedListener.onNavigationItemSelected(MenuItem) &#160;m...">
<polygon fill="white" stroke="black" points="174,-0.5 174,-26.5 299,-26.5 299,-0.5 174,-0.5"/>
<text text-anchor="start" x="182" y="-16.1" font-family="Helvetica,sans-Serif" font-size="8.00">project.android.MainActivity.on</text>
<text text-anchor="middle" x="236.5" y="-7.1" font-family="Helvetica,sans-Serif" font-size="8.00">NavigationItemSelected</text>
</a>
</g>
</g>
<!-- Node3&#45;&gt;Node4 -->
<g id="edge1" class="edge"><title>Node3&#45;&gt;Node4</title>
<path fill="none" stroke="midnightblue" d="M148.54,-13.5C157.003,-13.5 165.524,-13.5 173.749,-13.5"/>
<polygon fill="midnightblue" stroke="midnightblue" points="148.271,-10.0001 138.271,-13.5 148.271,-17.0001 148.271,-10.0001"/>
</g>
</g>
</svg>
