<?xml version="1.0" encoding="UTF-8" standalone="no"?>
<!DOCTYPE svg PUBLIC "-//W3C//DTD SVG 1.1//EN"
 "http://www.w3.org/Graphics/SVG/1.1/DTD/svg11.dtd">
<!-- Generated by graphviz version 2.38.0 (20140413.2041)
 -->
<!-- Title: project.android.net.KeyboardThread.setStopFlag Pages: 1 -->
<svg width="272pt" height="35pt"
 viewBox="0.00 0.00 272.00 35.00" xmlns="http://www.w3.org/2000/svg" xmlns:xlink="http://www.w3.org/1999/xlink">
<g id="graph0" class="graph" transform="scale(1 1) rotate(0) translate(4 31)">
<title>project.android.net.KeyboardThread.setStopFlag</title>
<polygon fill="white" stroke="none" points="-4,4 -4,-31 268,-31 268,4 -4,4"/>
<!-- Node12 -->
<g id="node1" class="node"><title>Node12</title>
<polygon fill="#bfbfbf" stroke="black" points="0,-0.5 0,-26.5 120,-26.5 120,-0.5 0,-0.5"/>
<text text-anchor="start" x="8" y="-16.1" font-family="Helvetica,sans-Serif" font-size="8.00">project.android.net.Keyboard</text>
<text text-anchor="middle" x="60" y="-7.1" font-family="Helvetica,sans-Serif" font-size="8.00">Thread.setStopFlag</text>
</g>
<!-- Node13 -->
<g id="node2" class="node"><title>Node13</title>
<g id="a_node2"><a xlink:href="a00178.html#a194c67cbd55d9250cbe0d6f6db08003f" target="_top" xlink:title="Overrides the Fragment.onDestroyView() method of the Android API. ">
<polygon fill="white" stroke="black" points="156,-0.5 156,-26.5 264,-26.5 264,-0.5 156,-0.5"/>
<text text-anchor="start" x="164" y="-16.1" font-family="Helvetica,sans-Serif" font-size="8.00">project.android.Keyboard</text>
<text text-anchor="middle" x="210" y="-7.1" font-family="Helvetica,sans-Serif" font-size="8.00">Fragment.onDestroyView</text>
</a>
</g>
</g>
<!-- Node12&#45;&gt;Node13 -->
<g id="edge1" class="edge"><title>Node12&#45;&gt;Node13</title>
<path fill="none" stroke="midnightblue" d="M130.345,-13.5C138.921,-13.5 147.58,-13.5 155.859,-13.5"/>
<polygon fill="midnightblue" stroke="midnightblue" points="130.345,-10.0001 120.344,-13.5 130.344,-17.0001 130.345,-10.0001"/>
</g>
</g>
</svg>
