<?xml version="1.0" encoding="UTF-8" standalone="no"?>
<!DOCTYPE svg PUBLIC "-//W3C//DTD SVG 1.1//EN"
 "http://www.w3.org/Graphics/SVG/1.1/DTD/svg11.dtd">
<!-- Generated by graphviz version 2.38.0 (20140413.2041)
 -->
<!-- Title: project.android.sensor.representation.Quaternion.toString Pages: 1 -->
<!--zoomable 595 -->
<svg id="main" version="1.1" xmlns="http://www.w3.org/2000/svg" xmlns:xlink="http://www.w3.org/1999/xlink" xml:space="preserve" onload="init(evt)">
<style type="text/css"><![CDATA[
.edge:hover path { stroke: red; }
.edge:hover polygon { stroke: red; fill: red; }
]]></style>
<script type="text/javascript"><![CDATA[
var edges = document.getElementsByTagName('g');
if (edges && edges.length) {
  for (var i=0;i<edges.length;i++) {
    if (edges[i].id.substr(0,4)=='edge') {
      edges[i].setAttribute('class','edge');
    }
  }
}
]]></script>
        <defs>
                <circle id="rim" cx="0" cy="0" r="7"/>
                <circle id="rim2" cx="0" cy="0" r="3.5"/>
                <g id="zoomPlus">
                        <use xlink:href="#rim" fill="#404040">
                                <set attributeName="fill" to="#808080" begin="zoomplus.mouseover" end="zoomplus.mouseout"/>
                        </use>
                        <path d="M-4,0h8M0,-4v8" fill="none" stroke="white" stroke-width="1.5" pointer-events="none"/>
                </g>
                <g id="zoomMin">
                        <use xlink:href="#rim" fill="#404040">
                                <set attributeName="fill" to="#808080" begin="zoomminus.mouseover" end="zoomminus.mouseout"/>
                        </use>
                        <path d="M-4,0h8" fill="none" stroke="white" stroke-width="1.5" pointer-events="none"/>
                </g>
                <g id="dirArrow">
                        <path fill="none" stroke="white" stroke-width="1.5" d="M0,-3.0v7 M-2.5,-0.5L0,-3.0L2.5,-0.5"/>
                </g>
               <g id="resetDef">
                       <use xlink:href="#rim2" fill="#404040">
                               <set attributeName="fill" to="#808080" begin="reset.mouseover" end="reset.mouseout"/>
                       </use>
               </g>
        </defs>

<script type="text/javascript">
var viewWidth = 536;
var viewHeight = 595;
var sectionId = 'dynsection-12';
</script>
<script xlink:href="svgpan.js"/>
<svg id="graph" class="graph">
<g id="viewport">
<title>project.android.sensor.representation.Quaternion.toString</title>
<polygon fill="white" stroke="none" points="-4,4 -4,-590.925 532,-590.925 532,4 -4,4"/>
<!-- Node73 -->
<g id="node1" class="node"><title>Node73</title>
<polygon fill="#bfbfbf" stroke="black" points="0,-267.425 0,-293.425 152,-293.425 152,-267.425 0,-267.425"/>
<text text-anchor="start" x="8" y="-283.025" font-family="Helvetica,sans-Serif" font-size="8.00">project.android.sensor.representation.</text>
<text text-anchor="middle" x="76" y="-274.025" font-family="Helvetica,sans-Serif" font-size="8.00">Quaternion.toString</text>
</g>
<!-- Node74 -->
<g id="node2" class="node"><title>Node74</title>
<g id="a_node2"><a xlink:href="a00258.html#af69dc14afa12c757152f93bd643e791f" target="_top" xlink:title="Returns the X&#45;dimension of this Vector4f. ">
<polygon fill="white" stroke="black" points="188,-560.425 188,-586.425 340,-586.425 340,-560.425 188,-560.425"/>
<text text-anchor="start" x="196" y="-576.025" font-family="Helvetica,sans-Serif" font-size="8.00">project.android.sensor.representation.</text>
<text text-anchor="middle" x="264" y="-567.025" font-family="Helvetica,sans-Serif" font-size="8.00">Vector4f.getX</text>
</a>
</g>
</g>
<!-- Node73&#45;&gt;Node74 -->
<g id="edge1" class="edge"><title>Node73&#45;&gt;Node74</title>
<path fill="none" stroke="midnightblue" d="M78.4196,-293.724C83.8104,-337.49 107.003,-478.399 188,-551.425 189.316,-552.612 190.694,-553.735 192.123,-554.798"/>
<polygon fill="midnightblue" stroke="midnightblue" points="190.469,-557.892 200.798,-560.247 194.192,-551.964 190.469,-557.892"/>
</g>
<!-- Node75 -->
<g id="node3" class="node"><title>Node75</title>
<g id="a_node3"><a xlink:href="a00258.html#ae3ecced2eebe634a5d3842d7c9f6659c" target="_top" xlink:title="Returns the Y&#45;dimension of this Vector4f. ">
<polygon fill="white" stroke="black" points="188,-515.425 188,-541.425 340,-541.425 340,-515.425 188,-515.425"/>
<text text-anchor="start" x="196" y="-531.025" font-family="Helvetica,sans-Serif" font-size="8.00">project.android.sensor.representation.</text>
<text text-anchor="middle" x="264" y="-522.025" font-family="Helvetica,sans-Serif" font-size="8.00">Vector4f.getY</text>
</a>
</g>
</g>
<!-- Node73&#45;&gt;Node75 -->
<g id="edge2" class="edge"><title>Node73&#45;&gt;Node75</title>
<path fill="none" stroke="midnightblue" d="M79.6021,-293.689C87.9291,-332.555 117.61,-447.161 188,-506.425 189.557,-507.736 191.189,-508.969 192.882,-510.128"/>
<polygon fill="midnightblue" stroke="midnightblue" points="191.389,-513.31 201.789,-515.335 194.922,-507.266 191.389,-513.31"/>
</g>
<!-- Node76 -->
<g id="node4" class="node"><title>Node76</title>
<g id="a_node4"><a xlink:href="a00258.html#a6dc64afde1e04300a5175f67865c45ac" target="_top" xlink:title="Returns the Z&#45;dimension of this Vector4f. ">
<polygon fill="white" stroke="black" points="188,-470.425 188,-496.425 340,-496.425 340,-470.425 188,-470.425"/>
<text text-anchor="start" x="196" y="-486.025" font-family="Helvetica,sans-Serif" font-size="8.00">project.android.sensor.representation.</text>
<text text-anchor="middle" x="264" y="-477.025" font-family="Helvetica,sans-Serif" font-size="8.00">Vector4f.getZ</text>
</a>
</g>
</g>
<!-- Node73&#45;&gt;Node76 -->
<g id="edge3" class="edge"><title>Node73&#45;&gt;Node76</title>
<path fill="none" stroke="midnightblue" d="M81.3146,-293.647C92.907,-327.065 127.98,-415.512 188,-461.425 189.839,-462.832 191.766,-464.149 193.761,-465.382"/>
<polygon fill="midnightblue" stroke="midnightblue" points="192.415,-468.631 202.883,-470.266 195.72,-462.46 192.415,-468.631"/>
</g>
<!-- Node77 -->
<g id="node5" class="node"><title>Node77</title>
<g id="a_node5"><a xlink:href="a00258.html#ac1059d3ba0cf2ae04a9fb47c8f1edb3c" target="_top" xlink:title="Returns the W&#45;dimension of this Vector4f. ">
<polygon fill="white" stroke="black" points="188,-425.425 188,-451.425 340,-451.425 340,-425.425 188,-425.425"/>
<text text-anchor="start" x="196" y="-441.025" font-family="Helvetica,sans-Serif" font-size="8.00">project.android.sensor.representation.</text>
<text text-anchor="middle" x="264" y="-432.025" font-family="Helvetica,sans-Serif" font-size="8.00">Vector4f.getW</text>
</a>
</g>
</g>
<!-- Node73&#45;&gt;Node77 -->
<g id="edge4" class="edge"><title>Node73&#45;&gt;Node77</title>
<path fill="none" stroke="midnightblue" d="M83.9979,-293.477C99.2078,-320.588 137.971,-383.231 188,-416.425 190.438,-418.043 192.998,-419.544 195.641,-420.937"/>
<polygon fill="midnightblue" stroke="midnightblue" points="194.354,-424.199 204.894,-425.267 197.321,-417.859 194.354,-424.199"/>
</g>
<!-- Node78 -->
<g id="node6" class="node"><title>Node78</title>
<g id="a_node6"><a xlink:href="a00246.html#a89f079109958634b6e3df5edab414bb7" target="_top" xlink:title="Returns the matrix. ">
<polygon fill="white" stroke="black" points="188,-380.425 188,-406.425 340,-406.425 340,-380.425 188,-380.425"/>
<text text-anchor="start" x="196" y="-396.025" font-family="Helvetica,sans-Serif" font-size="8.00">project.android.sensor.representation.</text>
<text text-anchor="middle" x="264" y="-387.025" font-family="Helvetica,sans-Serif" font-size="8.00">MatrixF4x4.getMatrix</text>
</a>
</g>
</g>
<!-- Node73&#45;&gt;Node78 -->
<g id="edge5" class="edge"><title>Node73&#45;&gt;Node78</title>
<path fill="none" stroke="midnightblue" d="M89.4104,-293.53C108.714,-313.183 147.899,-350.24 188,-371.425 191.543,-373.297 195.267,-375.03 199.082,-376.63"/>
<polygon fill="midnightblue" stroke="midnightblue" points="198.116,-380.009 208.705,-380.342 200.635,-373.478 198.116,-380.009"/>
</g>
<!-- Node79 -->
<g id="node7" class="node"><title>Node79</title>
<g id="a_node7"><a xlink:href="a00246.html#ad9cd9ed72c90b2181bb6468d97258954" target="_top" xlink:title="Returns size of the matrix. ">
<polygon fill="white" stroke="black" points="188,-335.425 188,-361.425 340,-361.425 340,-335.425 188,-335.425"/>
<text text-anchor="start" x="196" y="-351.025" font-family="Helvetica,sans-Serif" font-size="8.00">project.android.sensor.representation.</text>
<text text-anchor="middle" x="264" y="-342.025" font-family="Helvetica,sans-Serif" font-size="8.00">MatrixF4x4.size</text>
</a>
</g>
</g>
<!-- Node73&#45;&gt;Node79 -->
<g id="edge6" class="edge"><title>Node73&#45;&gt;Node79</title>
<path fill="none" stroke="midnightblue" d="M106.346,-293.601C128.53,-303.312 159.869,-316.502 188,-326.425 193.657,-328.42 199.596,-330.382 205.551,-332.263"/>
<polygon fill="midnightblue" stroke="midnightblue" points="204.955,-335.742 215.543,-335.344 207.018,-329.053 204.955,-335.742"/>
</g>
<!-- Node80 -->
<g id="node8" class="node"><title>Node80</title>
<g id="a_node8"><a xlink:href="a00258.html#a887ec4cfb002f50f8eec8f73501110f3" target="_top" xlink:title="Sets the X&#45;dimension of this Vector4f. ">
<polygon fill="white" stroke="black" points="188,-290.425 188,-316.425 340,-316.425 340,-290.425 188,-290.425"/>
<text text-anchor="start" x="196" y="-306.025" font-family="Helvetica,sans-Serif" font-size="8.00">project.android.sensor.representation.</text>
<text text-anchor="middle" x="264" y="-297.025" font-family="Helvetica,sans-Serif" font-size="8.00">Vector4f.setX</text>
</a>
</g>
</g>
<!-- Node73&#45;&gt;Node80 -->
<g id="edge7" class="edge"><title>Node73&#45;&gt;Node80</title>
<path fill="none" stroke="midnightblue" d="M152.117,-289.714C160.596,-290.762 169.281,-291.836 177.875,-292.899"/>
<polygon fill="midnightblue" stroke="midnightblue" points="177.551,-296.385 187.905,-294.139 178.41,-289.438 177.551,-296.385"/>
</g>
<!-- Node81 -->
<g id="node9" class="node"><title>Node81</title>
<g id="a_node9"><a xlink:href="a00258.html#a85c790b5bbb7c702cb0e49585b261082" target="_top" xlink:title="Sets the Y&#45;dimension of this Vector4f. ">
<polygon fill="white" stroke="black" points="188,-245.425 188,-271.425 340,-271.425 340,-245.425 188,-245.425"/>
<text text-anchor="start" x="196" y="-261.025" font-family="Helvetica,sans-Serif" font-size="8.00">project.android.sensor.representation.</text>
<text text-anchor="middle" x="264" y="-252.025" font-family="Helvetica,sans-Serif" font-size="8.00">Vector4f.setY</text>
</a>
</g>
</g>
<!-- Node73&#45;&gt;Node81 -->
<g id="edge8" class="edge"><title>Node73&#45;&gt;Node81</title>
<path fill="none" stroke="midnightblue" d="M152.117,-271.54C160.596,-270.537 169.281,-269.51 177.875,-268.494"/>
<polygon fill="midnightblue" stroke="midnightblue" points="178.385,-271.958 187.905,-267.307 177.563,-265.006 178.385,-271.958"/>
</g>
<!-- Node82 -->
<g id="node10" class="node"><title>Node82</title>
<g id="a_node10"><a xlink:href="a00258.html#a8bd26391867c8d1d4b105a63764d394f" target="_top" xlink:title="Sets the Z&#45;dimension of this Vector4f. ">
<polygon fill="white" stroke="black" points="188,-200.425 188,-226.425 340,-226.425 340,-200.425 188,-200.425"/>
<text text-anchor="start" x="196" y="-216.025" font-family="Helvetica,sans-Serif" font-size="8.00">project.android.sensor.representation.</text>
<text text-anchor="middle" x="264" y="-207.025" font-family="Helvetica,sans-Serif" font-size="8.00">Vector4f.setZ</text>
</a>
</g>
</g>
<!-- Node73&#45;&gt;Node82 -->
<g id="edge9" class="edge"><title>Node73&#45;&gt;Node82</title>
<path fill="none" stroke="midnightblue" d="M108.326,-267.232C130.423,-258.118 160.811,-245.966 188,-236.425 194.562,-234.122 201.49,-231.823 208.378,-229.618"/>
<polygon fill="midnightblue" stroke="midnightblue" points="209.904,-232.807 218.391,-226.464 207.802,-226.13 209.904,-232.807"/>
</g>
<!-- Node83 -->
<g id="node11" class="node"><title>Node83</title>
<g id="a_node11"><a xlink:href="a00258.html#af52ccfec44e8d3fa81707b1fd816b153" target="_top" xlink:title="Sets the W&#45;dimension of this Vector4f. ">
<polygon fill="white" stroke="black" points="188,-155.425 188,-181.425 340,-181.425 340,-155.425 188,-155.425"/>
<text text-anchor="start" x="196" y="-171.025" font-family="Helvetica,sans-Serif" font-size="8.00">project.android.sensor.representation.</text>
<text text-anchor="middle" x="264" y="-162.025" font-family="Helvetica,sans-Serif" font-size="8.00">Vector4f.setW</text>
</a>
</g>
</g>
<!-- Node73&#45;&gt;Node83 -->
<g id="edge10" class="edge"><title>Node73&#45;&gt;Node83</title>
<path fill="none" stroke="midnightblue" d="M89.8241,-267.368C109.358,-248.168 148.484,-212.335 188,-191.425 192.288,-189.156 196.836,-187.073 201.487,-185.168"/>
<polygon fill="midnightblue" stroke="midnightblue" points="203.024,-188.328 211.13,-181.506 200.539,-181.784 203.024,-188.328"/>
</g>
<!-- Node84 -->
<g id="node12" class="node"><title>Node84</title>
<g id="a_node12"><a xlink:href="a00254.html#aba432e0cfec33788bed219adf0bf0c5e" target="_top" xlink:title="Returns the X&#45;dimension of this Vector3f. ">
<polygon fill="white" stroke="black" points="376,-109.425 376,-135.425 528,-135.425 528,-109.425 376,-109.425"/>
<text text-anchor="start" x="384" y="-125.025" font-family="Helvetica,sans-Serif" font-size="8.00">project.android.sensor.representation.</text>
<text text-anchor="middle" x="452" y="-116.025" font-family="Helvetica,sans-Serif" font-size="8.00">Vector3f.getX</text>
</a>
</g>
</g>
<!-- Node73&#45;&gt;Node84 -->
<g id="edge11" class="edge"><title>Node73&#45;&gt;Node84</title>
<path fill="none" stroke="midnightblue" d="M83.3628,-267.201C97.6219,-239.22 135.085,-174.311 188,-146.425 242.301,-117.809 311.731,-112.559 365.617,-114.062"/>
<polygon fill="midnightblue" stroke="midnightblue" points="365.714,-117.568 375.834,-114.432 365.968,-110.572 365.714,-117.568"/>
</g>
<!-- Node85 -->
<g id="node13" class="node"><title>Node85</title>
<g id="a_node13"><a xlink:href="a00254.html#aefe347d692330f7dfec6b146302809e3" target="_top" xlink:title="Returns the Y&#45;dimension of this Vector3f. ">
<polygon fill="white" stroke="black" points="376,-60.4251 376,-86.4251 528,-86.4251 528,-60.4251 376,-60.4251"/>
<text text-anchor="start" x="384" y="-76.0251" font-family="Helvetica,sans-Serif" font-size="8.00">project.android.sensor.representation.</text>
<text text-anchor="middle" x="452" y="-67.0251" font-family="Helvetica,sans-Serif" font-size="8.00">Vector3f.getY</text>
</a>
</g>
</g>
<!-- Node73&#45;&gt;Node85 -->
<g id="edge12" class="edge"><title>Node73&#45;&gt;Node85</title>
<path fill="none" stroke="midnightblue" d="M78.9325,-267.151C85.5295,-227.31 111.182,-108.612 188,-61.4251 255.235,-20.125 351.39,-39.9837 406.885,-57.2972"/>
<polygon fill="midnightblue" stroke="midnightblue" points="405.834,-60.6359 416.426,-60.3745 407.983,-53.9738 405.834,-60.6359"/>
</g>
<!-- Node86 -->
<g id="node14" class="node"><title>Node86</title>
<g id="a_node14"><a xlink:href="a00254.html#a6e8d105f170e17b3d1bb706ea75fb3ea" target="_top" xlink:title="Returns the Z&#45;dimension of this Vector3f. ">
<polygon fill="white" stroke="black" points="376,-7.42505 376,-33.4251 528,-33.4251 528,-7.42505 376,-7.42505"/>
<text text-anchor="start" x="384" y="-23.0251" font-family="Helvetica,sans-Serif" font-size="8.00">project.android.sensor.representation.</text>
<text text-anchor="middle" x="452" y="-14.0251" font-family="Helvetica,sans-Serif" font-size="8.00">Vector3f.getZ</text>
</a>
</g>
</g>
<!-- Node73&#45;&gt;Node86 -->
<g id="edge13" class="edge"><title>Node73&#45;&gt;Node86</title>
<path fill="none" stroke="midnightblue" d="M78.2728,-267.241C83.168,-224.637 104.903,-90.1427 188,-33.4251 245.526,5.83936 327.73,2.97343 384.864,-5.78355"/>
<polygon fill="midnightblue" stroke="midnightblue" points="384.44,-9.26061 394.874,-7.41676 385.568,-2.35197 384.44,-9.26061"/>
</g>
<!-- Node87 -->
<g id="node15" class="node"><title>Node87</title>
<g id="a_node15"><a xlink:href="a00258.html#a2b2b04e7c99078e9619ad815546abeef" target="_top" xlink:title="Copies a Vector3f to this Vector4f using a separate value for W&#45;dimension. ">
<polygon fill="white" stroke="black" points="188,-71.4251 188,-97.4251 340,-97.4251 340,-71.4251 188,-71.4251"/>
<text text-anchor="start" x="196" y="-87.0251" font-family="Helvetica,sans-Serif" font-size="8.00">project.android.sensor.representation.</text>
<text text-anchor="middle" x="264" y="-78.0251" font-family="Helvetica,sans-Serif" font-size="8.00">Vector4f.copyFromV3f</text>
</a>
</g>
</g>
<!-- Node73&#45;&gt;Node87 -->
<g id="edge14" class="edge"><title>Node73&#45;&gt;Node87</title>
<path fill="none" stroke="midnightblue" d="M82.3572,-267.022C95.5778,-235.574 132.743,-156.393 188,-112.425 193.067,-108.393 198.775,-104.901 204.721,-101.886"/>
<polygon fill="midnightblue" stroke="midnightblue" points="206.577,-104.885 214.205,-97.5322 203.656,-98.5238 206.577,-104.885"/>
</g>
<!-- Node87&#45;&gt;Node84 -->
<g id="edge15" class="edge"><title>Node87&#45;&gt;Node84</title>
<path fill="none" stroke="midnightblue" d="M328.75,-97.4493C344.426,-100.652 361.336,-104.107 377.434,-107.395"/>
<polygon fill="midnightblue" stroke="midnightblue" points="376.835,-110.845 387.333,-109.418 378.236,-103.987 376.835,-110.845"/>
</g>
<!-- Node87&#45;&gt;Node85 -->
<g id="edge16" class="edge"><title>Node87&#45;&gt;Node85</title>
<path fill="none" stroke="midnightblue" d="M340.117,-79.9826C348.596,-79.4812 357.281,-78.9676 365.875,-78.4593"/>
<polygon fill="midnightblue" stroke="midnightblue" points="366.129,-81.9505 375.905,-77.8662 365.716,-74.9627 366.129,-81.9505"/>
</g>
<!-- Node87&#45;&gt;Node86 -->
<g id="edge17" class="edge"><title>Node87&#45;&gt;Node86</title>
<path fill="none" stroke="midnightblue" d="M303.089,-71.3193C332.052,-61.3535 372.084,-47.5788 403.199,-36.8728"/>
<polygon fill="midnightblue" stroke="midnightblue" points="404.645,-40.0766 412.962,-33.5133 402.368,-33.4575 404.645,-40.0766"/>
</g>
</g>
</svg>
        <g id="navigator" transform="translate(0 0)" fill="#404254">
                <rect fill="#f2f5e9" fill-opacity="0.5" stroke="#606060" stroke-width=".5" x="0" y="0" width="60" height="60"/>
                <use id="zoomplus" xlink:href="#zoomPlus" x="17" y="9" onmousedown="handleZoom(evt,'in')"/>
                <use id="zoomminus" xlink:href="#zoomMin" x="42" y="9" onmousedown="handleZoom(evt,'out')"/>
                <use id="reset" xlink:href="#resetDef" x="30" y="36" onmousedown="handleReset()"/>
                <g id="arrowUp" xlink:href="#dirArrow" transform="translate(30 24)" onmousedown="handlePan(0,-1)">
                  <use xlink:href="#rim" fill="#404040">
                        <set attributeName="fill" to="#808080" begin="arrowUp.mouseover" end="arrowUp.mouseout"/>
                  </use>
                  <path fill="none" stroke="white" stroke-width="1.5" d="M0,-3.0v7 M-2.5,-0.5L0,-3.0L2.5,-0.5"/>
                </g>
                <g id="arrowRight" xlink:href="#dirArrow" transform="rotate(90) translate(36 -43)" onmousedown="handlePan(1,0)">
                  <use xlink:href="#rim" fill="#404040">
                        <set attributeName="fill" to="#808080" begin="arrowRight.mouseover" end="arrowRight.mouseout"/>
                  </use>
                  <path fill="none" stroke="white" stroke-width="1.5" d="M0,-3.0v7 M-2.5,-0.5L0,-3.0L2.5,-0.5"/>
                </g>
                <g id="arrowDown" xlink:href="#dirArrow" transform="rotate(180) translate(-30 -48)" onmousedown="handlePan(0,1)">
                  <use xlink:href="#rim" fill="#404040">
                        <set attributeName="fill" to="#808080" begin="arrowDown.mouseover" end="arrowDown.mouseout"/>
                  </use>
                  <path fill="none" stroke="white" stroke-width="1.5" d="M0,-3.0v7 M-2.5,-0.5L0,-3.0L2.5,-0.5"/>
                </g>
                <g id="arrowLeft" xlink:href="#dirArrow" transform="rotate(270) translate(-36 17)" onmousedown="handlePan(-1,0)">
                  <use xlink:href="#rim" fill="#404040">
                        <set attributeName="fill" to="#808080" begin="arrowLeft.mouseover" end="arrowLeft.mouseout"/>
                  </use>
                  <path fill="none" stroke="white" stroke-width="1.5" d="M0,-3.0v7 M-2.5,-0.5L0,-3.0L2.5,-0.5"/>
                </g>
        </g>
        <svg viewBox="0 0 15 15" width="100%" height="30px" preserveAspectRatio="xMaxYMin meet">
         <g id="arrow_out" transform="scale(0.3 0.3)">
          <a xlink:href="a00250_ad97bd17455f6ca6ef3f38190789fc956_cgraph_org.svg" target="_base">
           <rect id="button" ry="5" rx="5" y="6" x="6" height="38" width="38"
                fill="#f2f5e9" fill-opacity="0.5" stroke="#606060" stroke-width="1.0"/>
           <path id="arrow"
             d="M 11.500037,31.436501 C 11.940474,20.09759 22.043105,11.32322 32.158766,21.979434 L 37.068811,17.246167 C 37.068811,17.246167 37.088388,32 37.088388,32 L 22.160133,31.978069 C 22.160133,31.978069 26.997745,27.140456 26.997745,27.140456 C 18.528582,18.264221 13.291696,25.230495 11.500037,31.436501 z"
             style="fill:#404040;"/>
          </a>
         </g>
        </svg>
</svg>
