<?xml version="1.0" encoding="UTF-8" standalone="no"?>
<!DOCTYPE svg PUBLIC "-//W3C//DTD SVG 1.1//EN"
 "http://www.w3.org/Graphics/SVG/1.1/DTD/svg11.dtd">
<!-- Generated by graphviz version 2.38.0 (20140413.2041)
 -->
<!-- Title: project.android.sensor.representation.Vector4f.getW Pages: 1 -->
<svg width="357pt" height="260pt"
 viewBox="0.00 0.00 357.00 260.00" xmlns="http://www.w3.org/2000/svg" xmlns:xlink="http://www.w3.org/1999/xlink">
<g id="graph0" class="graph" transform="scale(1 1) rotate(0) translate(4 256)">
<title>project.android.sensor.representation.Vector4f.getW</title>
<polygon fill="white" stroke="none" points="-4,4 -4,-256 353,-256 353,4 -4,4"/>
<!-- Node31 -->
<g id="node1" class="node"><title>Node31</title>
<polygon fill="#bfbfbf" stroke="black" points="0,-112.5 0,-138.5 152,-138.5 152,-112.5 0,-112.5"/>
<text text-anchor="start" x="8" y="-128.1" font-family="Helvetica,sans-Serif" font-size="8.00">project.android.sensor.representation.</text>
<text text-anchor="middle" x="76" y="-119.1" font-family="Helvetica,sans-Serif" font-size="8.00">Vector4f.getW</text>
</g>
<!-- Node32 -->
<g id="node2" class="node"><title>Node32</title>
<g id="a_node2"><a xlink:href="a00234.html#ab9a9911056de6fc82ef1859c2eb42bad" target="_top" xlink:title="Overrides the SensorEventListener.onSensorChanged() method of the Android API. ">
<polygon fill="white" stroke="black" points="188,-225.5 188,-251.5 349,-251.5 349,-225.5 188,-225.5"/>
<text text-anchor="start" x="196" y="-241.1" font-family="Helvetica,sans-Serif" font-size="8.00">project.android.sensor.orientation.</text>
<text text-anchor="middle" x="268.5" y="-232.1" font-family="Helvetica,sans-Serif" font-size="8.00">KalmanFilterProvider.onSensorChanged</text>
</a>
</g>
</g>
<!-- Node31&#45;&gt;Node32 -->
<g id="edge1" class="edge"><title>Node31&#45;&gt;Node32</title>
<path fill="none" stroke="midnightblue" d="M96.6497,-146.018C117.498,-166.653 152.299,-197.989 188,-216.5 194.611,-219.928 201.816,-222.871 209.102,-225.385"/>
<polygon fill="midnightblue" stroke="midnightblue" points="98.8983,-143.315 89.3699,-138.682 93.9297,-148.246 98.8983,-143.315"/>
</g>
<!-- Node33 -->
<g id="node3" class="node"><title>Node33</title>
<g id="a_node3"><a xlink:href="a00250.html#aebabee6a927fe71e587aef336a787709" target="_top" xlink:title="Multiples this Quaternion with a scalar. ">
<polygon fill="white" stroke="black" points="192.5,-180.5 192.5,-206.5 344.5,-206.5 344.5,-180.5 192.5,-180.5"/>
<text text-anchor="start" x="200.5" y="-196.1" font-family="Helvetica,sans-Serif" font-size="8.00">project.android.sensor.representation.</text>
<text text-anchor="middle" x="268.5" y="-187.1" font-family="Helvetica,sans-Serif" font-size="8.00">Quaternion.multiplyByScalar</text>
</a>
</g>
</g>
<!-- Node31&#45;&gt;Node33 -->
<g id="edge2" class="edge"><title>Node31&#45;&gt;Node33</title>
<path fill="none" stroke="midnightblue" d="M115.145,-142.671C136.356,-151.872 163.369,-163.024 188,-171.5 197.208,-174.669 207.134,-177.706 216.746,-180.459"/>
<polygon fill="midnightblue" stroke="midnightblue" points="116.402,-139.4 105.838,-138.597 113.596,-145.813 116.402,-139.4"/>
</g>
<!-- Node34 -->
<g id="node4" class="node"><title>Node34</title>
<g id="a_node4"><a xlink:href="a00250.html#a0e949c250006b4448e606f093ef7c047" target="_top" xlink:title="Gets an axis angle representation of this Quaternion. ">
<polygon fill="white" stroke="black" points="192.5,-135.5 192.5,-161.5 344.5,-161.5 344.5,-135.5 192.5,-135.5"/>
<text text-anchor="start" x="200.5" y="-151.1" font-family="Helvetica,sans-Serif" font-size="8.00">project.android.sensor.representation.</text>
<text text-anchor="middle" x="268.5" y="-142.1" font-family="Helvetica,sans-Serif" font-size="8.00">Quaternion.toAxisAngle</text>
</a>
</g>
</g>
<!-- Node31&#45;&gt;Node34 -->
<g id="edge3" class="edge"><title>Node31&#45;&gt;Node34</title>
<path fill="none" stroke="midnightblue" d="M162.02,-135.765C172.091,-136.981 182.316,-138.215 192.239,-139.413"/>
<polygon fill="midnightblue" stroke="midnightblue" points="162.365,-132.281 152.017,-134.557 161.526,-139.231 162.365,-132.281"/>
</g>
<!-- Node35 -->
<g id="node5" class="node"><title>Node35</title>
<g id="a_node5"><a xlink:href="a00250.html#ad65d775928e1fddeb2f15e772fec5caf" target="_top" xlink:title="Returns the heading, attitude and bank of this Quaternion as euler angles in the double array respect...">
<polygon fill="white" stroke="black" points="192.5,-90.5 192.5,-116.5 344.5,-116.5 344.5,-90.5 192.5,-90.5"/>
<text text-anchor="start" x="200.5" y="-106.1" font-family="Helvetica,sans-Serif" font-size="8.00">project.android.sensor.representation.</text>
<text text-anchor="middle" x="268.5" y="-97.1" font-family="Helvetica,sans-Serif" font-size="8.00">Quaternion.toEulerAngles</text>
</a>
</g>
</g>
<!-- Node31&#45;&gt;Node35 -->
<g id="edge4" class="edge"><title>Node31&#45;&gt;Node35</title>
<path fill="none" stroke="midnightblue" d="M162.02,-115.681C172.091,-114.518 182.316,-113.337 192.239,-112.192"/>
<polygon fill="midnightblue" stroke="midnightblue" points="161.55,-112.212 152.017,-116.837 162.353,-119.166 161.55,-112.212"/>
</g>
<!-- Node36 -->
<g id="node6" class="node"><title>Node36</title>
<g id="a_node6"><a xlink:href="a00250.html#ad97bd17455f6ca6ef3f38190789fc956" target="_top" xlink:title="Returns a String representing this Quaternion. ">
<polygon fill="white" stroke="black" points="192.5,-45.5 192.5,-71.5 344.5,-71.5 344.5,-45.5 192.5,-45.5"/>
<text text-anchor="start" x="200.5" y="-61.1" font-family="Helvetica,sans-Serif" font-size="8.00">project.android.sensor.representation.</text>
<text text-anchor="middle" x="268.5" y="-52.1" font-family="Helvetica,sans-Serif" font-size="8.00">Quaternion.toString</text>
</a>
</g>
</g>
<!-- Node31&#45;&gt;Node36 -->
<g id="edge5" class="edge"><title>Node31&#45;&gt;Node36</title>
<path fill="none" stroke="midnightblue" d="M117.321,-108.438C138.231,-99.866 164.294,-89.6068 188,-81.5 198.196,-78.0131 209.242,-74.5952 219.764,-71.5052"/>
<polygon fill="midnightblue" stroke="midnightblue" points="115.71,-105.317 107.804,-112.369 118.382,-111.787 115.71,-105.317"/>
</g>
<!-- Node37 -->
<g id="node7" class="node"><title>Node37</title>
<g id="a_node7"><a xlink:href="a00254.html#ad0c35f3031117ce87b4d7e5b377474f9" target="_top" xlink:title="Constructor. ">
<polygon fill="white" stroke="black" points="192.5,-0.5 192.5,-26.5 344.5,-26.5 344.5,-0.5 192.5,-0.5"/>
<text text-anchor="start" x="200.5" y="-16.1" font-family="Helvetica,sans-Serif" font-size="8.00">project.android.sensor.representation.</text>
<text text-anchor="middle" x="268.5" y="-7.1" font-family="Helvetica,sans-Serif" font-size="8.00">Vector3f.Vector3f</text>
</a>
</g>
</g>
<!-- Node31&#45;&gt;Node37 -->
<g id="edge6" class="edge"><title>Node31&#45;&gt;Node37</title>
<path fill="none" stroke="midnightblue" d="M97.1276,-105.207C118.118,-85.107 152.813,-54.7617 188,-36.5 195.397,-32.6612 203.522,-29.3812 211.667,-26.6039"/>
<polygon fill="midnightblue" stroke="midnightblue" points="94.503,-102.877 89.7815,-112.362 99.3872,-107.892 94.503,-102.877"/>
</g>
</g>
</svg>
