<?xml version="1.0" encoding="UTF-8" standalone="no"?>
<!DOCTYPE svg PUBLIC "-//W3C//DTD SVG 1.1//EN"
 "http://www.w3.org/Graphics/SVG/1.1/DTD/svg11.dtd">
<!-- Generated by graphviz version 2.38.0 (20140413.2041)
 -->
<!-- Title: project.android.net.KeyboardThread.addToBuffer Pages: 1 -->
<svg width="292pt" height="215pt"
 viewBox="0.00 0.00 292.00 215.00" xmlns="http://www.w3.org/2000/svg" xmlns:xlink="http://www.w3.org/1999/xlink">
<g id="graph0" class="graph" transform="scale(1 1) rotate(0) translate(4 211)">
<title>project.android.net.KeyboardThread.addToBuffer</title>
<polygon fill="white" stroke="none" points="-4,4 -4,-211 288,-211 288,4 -4,4"/>
<!-- Node3 -->
<g id="node1" class="node"><title>Node3</title>
<polygon fill="#bfbfbf" stroke="black" points="0,-90.5 0,-116.5 120,-116.5 120,-90.5 0,-90.5"/>
<text text-anchor="start" x="8" y="-106.1" font-family="Helvetica,sans-Serif" font-size="8.00">project.android.net.Keyboard</text>
<text text-anchor="middle" x="60" y="-97.1" font-family="Helvetica,sans-Serif" font-size="8.00">Thread.addToBuffer</text>
</g>
<!-- Node4 -->
<g id="node2" class="node"><title>Node4</title>
<g id="a_node2"><a xlink:href="a00178.html#a52cf37f3ffceeb5e37acb1ca135f314f" target="_top" xlink:title="Overrides the TextWatcher.beforeTextChanged(CharSequence, int, int, int) method of the Android API...">
<polygon fill="white" stroke="black" points="157,-180.5 157,-206.5 283,-206.5 283,-180.5 157,-180.5"/>
<text text-anchor="start" x="165" y="-196.1" font-family="Helvetica,sans-Serif" font-size="8.00">project.android.Keyboard</text>
<text text-anchor="middle" x="220" y="-187.1" font-family="Helvetica,sans-Serif" font-size="8.00">Fragment.beforeTextChanged</text>
</a>
</g>
</g>
<!-- Node3&#45;&gt;Node4 -->
<g id="edge1" class="edge"><title>Node3&#45;&gt;Node4</title>
<path fill="none" stroke="midnightblue" d="M84.1062,-122.917C102.628,-137.749 129.771,-157.891 156,-171.5 162.376,-174.808 169.358,-177.804 176.28,-180.445"/>
<polygon fill="midnightblue" stroke="midnightblue" points="86.204,-120.112 76.2371,-116.518 81.7878,-125.543 86.204,-120.112"/>
</g>
<!-- Node5 -->
<g id="node3" class="node"><title>Node5</title>
<g id="a_node3"><a xlink:href="a00178.html#ab438e74806e3e80deea7cc566517379e" target="_top" xlink:title="Overrides the onTextChanged(CharSequence, int, int, int) method of the Android API. ">
<polygon fill="white" stroke="black" points="164,-135.5 164,-161.5 276,-161.5 276,-135.5 164,-135.5"/>
<text text-anchor="start" x="172" y="-151.1" font-family="Helvetica,sans-Serif" font-size="8.00">project.android.Keyboard</text>
<text text-anchor="middle" x="220" y="-142.1" font-family="Helvetica,sans-Serif" font-size="8.00">Fragment.onTextChanged</text>
</a>
</g>
</g>
<!-- Node3&#45;&gt;Node5 -->
<g id="edge2" class="edge"><title>Node3&#45;&gt;Node5</title>
<path fill="none" stroke="midnightblue" d="M116.476,-119.3C134.999,-124.576 155.42,-130.392 173.129,-135.436"/>
<polygon fill="midnightblue" stroke="midnightblue" points="117.276,-115.889 106.7,-116.516 115.359,-122.621 117.276,-115.889"/>
</g>
<!-- Node6 -->
<g id="node4" class="node"><title>Node6</title>
<g id="a_node4"><a xlink:href="a00178.html#ab0a50c181d72ffa7b51f6839866122ff" target="_top" xlink:title="Overrides the View.onKeyListener.onKey(View, int, KeyEvent) method of the Android API...">
<polygon fill="white" stroke="black" points="166.5,-90.5 166.5,-116.5 273.5,-116.5 273.5,-90.5 166.5,-90.5"/>
<text text-anchor="start" x="174.5" y="-106.1" font-family="Helvetica,sans-Serif" font-size="8.00">project.android.Keyboard</text>
<text text-anchor="middle" x="220" y="-97.1" font-family="Helvetica,sans-Serif" font-size="8.00">Fragment.onKey</text>
</a>
</g>
</g>
<!-- Node3&#45;&gt;Node6 -->
<g id="edge3" class="edge"><title>Node3&#45;&gt;Node6</title>
<path fill="none" stroke="midnightblue" d="M130.347,-103.5C142.445,-103.5 154.848,-103.5 166.401,-103.5"/>
<polygon fill="midnightblue" stroke="midnightblue" points="130.283,-100 120.283,-103.5 130.283,-107 130.283,-100"/>
</g>
<!-- Node7 -->
<g id="node5" class="node"><title>Node7</title>
<g id="a_node5"><a xlink:href="a00178.html#a1a3785323fa29a8095834b697d3e3478" target="_top" xlink:title="Overrides the CompoundButton.onCheckChanged(CompoundButton, boolean) method of the Android API...">
<polygon fill="white" stroke="black" points="156,-45.5 156,-71.5 284,-71.5 284,-45.5 156,-45.5"/>
<text text-anchor="start" x="164" y="-61.1" font-family="Helvetica,sans-Serif" font-size="8.00">project.android.Keyboard</text>
<text text-anchor="middle" x="220" y="-52.1" font-family="Helvetica,sans-Serif" font-size="8.00">Fragment.onCheckedChanged</text>
</a>
</g>
</g>
<!-- Node3&#45;&gt;Node7 -->
<g id="edge4" class="edge"><title>Node3&#45;&gt;Node7</title>
<path fill="none" stroke="midnightblue" d="M116.476,-87.6998C134.999,-82.4243 155.42,-76.6082 173.129,-71.5645"/>
<polygon fill="midnightblue" stroke="midnightblue" points="115.359,-84.3788 106.7,-90.4841 117.276,-91.111 115.359,-84.3788"/>
</g>
<!-- Node8 -->
<g id="node6" class="node"><title>Node8</title>
<g id="a_node6"><a xlink:href="a00178.html#a58e0e1b80354dfdc7ce4711d37ae028a" target="_top" xlink:title="Overrides the View.onClickListener.onClick(View) method of the Android API. ">
<polygon fill="white" stroke="black" points="166.5,-0.5 166.5,-26.5 273.5,-26.5 273.5,-0.5 166.5,-0.5"/>
<text text-anchor="start" x="174.5" y="-16.1" font-family="Helvetica,sans-Serif" font-size="8.00">project.android.Keyboard</text>
<text text-anchor="middle" x="220" y="-7.1" font-family="Helvetica,sans-Serif" font-size="8.00">Fragment.onClick</text>
</a>
</g>
</g>
<!-- Node3&#45;&gt;Node8 -->
<g id="edge5" class="edge"><title>Node3&#45;&gt;Node8</title>
<path fill="none" stroke="midnightblue" d="M84.8725,-83.9724C103.428,-69.4778 130.259,-49.9714 156,-36.5 163.015,-32.8287 170.748,-29.485 178.324,-26.5539"/>
<polygon fill="midnightblue" stroke="midnightblue" points="82.627,-81.2861 76.9629,-90.2397 86.9743,-86.7725 82.627,-81.2861"/>
</g>
</g>
</svg>
