<?xml version="1.0" encoding="UTF-8" standalone="no"?>
<!DOCTYPE svg PUBLIC "-//W3C//DTD SVG 1.1//EN"
 "http://www.w3.org/Graphics/SVG/1.1/DTD/svg11.dtd">
<!-- Generated by graphviz version 2.38.0 (20140413.2041)
 -->
<!-- Title: project.android.sensor.representation.Quaternion.multiplyByQuat Pages: 1 -->
<svg width="536pt" height="125pt"
 viewBox="0.00 0.00 536.00 125.00" xmlns="http://www.w3.org/2000/svg" xmlns:xlink="http://www.w3.org/1999/xlink">
<g id="graph0" class="graph" transform="scale(1 1) rotate(0) translate(4 121)">
<title>project.android.sensor.representation.Quaternion.multiplyByQuat</title>
<polygon fill="white" stroke="none" points="-4,4 -4,-121 532,-121 532,4 -4,4"/>
<!-- Node8 -->
<g id="node1" class="node"><title>Node8</title>
<polygon fill="#bfbfbf" stroke="black" points="0,-45.5 0,-71.5 152,-71.5 152,-45.5 0,-45.5"/>
<text text-anchor="start" x="8" y="-61.1" font-family="Helvetica,sans-Serif" font-size="8.00">project.android.sensor.representation.</text>
<text text-anchor="middle" x="76" y="-52.1" font-family="Helvetica,sans-Serif" font-size="8.00">Quaternion.multiplyByQuat</text>
</g>
<!-- Node9 -->
<g id="node2" class="node"><title>Node9</title>
<g id="a_node2"><a xlink:href="a00250.html#ae1525db68042617d145ba7466a5b59b7" target="_top" xlink:title="Constructor. ">
<polygon fill="white" stroke="black" points="188,-90.5 188,-116.5 340,-116.5 340,-90.5 188,-90.5"/>
<text text-anchor="start" x="196" y="-106.1" font-family="Helvetica,sans-Serif" font-size="8.00">project.android.sensor.representation.</text>
<text text-anchor="middle" x="264" y="-97.1" font-family="Helvetica,sans-Serif" font-size="8.00">Quaternion.Quaternion</text>
</a>
</g>
</g>
<!-- Node8&#45;&gt;Node9 -->
<g id="edge1" class="edge"><title>Node8&#45;&gt;Node9</title>
<path fill="none" stroke="midnightblue" d="M130.799,-71.5159C152.105,-76.6706 176.772,-82.6384 198.987,-88.0129"/>
<polygon fill="midnightblue" stroke="midnightblue" points="198.457,-91.4858 209,-90.4355 200.104,-84.6821 198.457,-91.4858"/>
</g>
<!-- Node10 -->
<g id="node3" class="node"><title>Node10</title>
<g id="a_node3"><a xlink:href="a00258.html#ad64f74d289c05e667cd27cf017ab8b95" target="_top" xlink:title="Copies another Vector4f to this one. ">
<polygon fill="white" stroke="black" points="188,-45.5 188,-71.5 340,-71.5 340,-45.5 188,-45.5"/>
<text text-anchor="start" x="196" y="-61.1" font-family="Helvetica,sans-Serif" font-size="8.00">project.android.sensor.representation.</text>
<text text-anchor="middle" x="264" y="-52.1" font-family="Helvetica,sans-Serif" font-size="8.00">Vector4f.copyVec4</text>
</a>
</g>
</g>
<!-- Node8&#45;&gt;Node10 -->
<g id="edge2" class="edge"><title>Node8&#45;&gt;Node10</title>
<path fill="none" stroke="midnightblue" d="M152.117,-58.5C160.596,-58.5 169.281,-58.5 177.875,-58.5"/>
<polygon fill="midnightblue" stroke="midnightblue" points="177.905,-62.0001 187.905,-58.5 177.905,-55.0001 177.905,-62.0001"/>
</g>
<!-- Node14 -->
<g id="node7" class="node"><title>Node14</title>
<g id="a_node7"><a xlink:href="a00250.html#af231ee91935ad5dabce7e497ece57417" target="_top" xlink:title="Multiplies this Quaternion with another. ">
<polygon fill="white" stroke="black" points="188,-0.5 188,-26.5 340,-26.5 340,-0.5 188,-0.5"/>
<text text-anchor="start" x="196" y="-16.1" font-family="Helvetica,sans-Serif" font-size="8.00">project.android.sensor.representation.</text>
<text text-anchor="middle" x="264" y="-7.1" font-family="Helvetica,sans-Serif" font-size="8.00">Quaternion.multiplyByQuat</text>
</a>
</g>
</g>
<!-- Node8&#45;&gt;Node14 -->
<g id="edge6" class="edge"><title>Node8&#45;&gt;Node14</title>
<path fill="none" stroke="midnightblue" d="M130.799,-45.4841C152.105,-40.3294 176.772,-34.3616 198.987,-28.9871"/>
<polygon fill="midnightblue" stroke="midnightblue" points="200.104,-32.3179 209,-26.5645 198.457,-25.5142 200.104,-32.3179"/>
</g>
<!-- Node11 -->
<g id="node4" class="node"><title>Node11</title>
<g id="a_node4"><a xlink:href="a00254.html#aba432e0cfec33788bed219adf0bf0c5e" target="_top" xlink:title="Returns the X&#45;dimension of this Vector3f. ">
<polygon fill="white" stroke="black" points="376,-90.5 376,-116.5 528,-116.5 528,-90.5 376,-90.5"/>
<text text-anchor="start" x="384" y="-106.1" font-family="Helvetica,sans-Serif" font-size="8.00">project.android.sensor.representation.</text>
<text text-anchor="middle" x="452" y="-97.1" font-family="Helvetica,sans-Serif" font-size="8.00">Vector3f.getX</text>
</a>
</g>
</g>
<!-- Node10&#45;&gt;Node11 -->
<g id="edge3" class="edge"><title>Node10&#45;&gt;Node11</title>
<path fill="none" stroke="midnightblue" d="M318.799,-71.5159C340.105,-76.6706 364.772,-82.6384 386.987,-88.0129"/>
<polygon fill="midnightblue" stroke="midnightblue" points="386.457,-91.4858 397,-90.4355 388.104,-84.6821 386.457,-91.4858"/>
</g>
<!-- Node12 -->
<g id="node5" class="node"><title>Node12</title>
<g id="a_node5"><a xlink:href="a00254.html#aefe347d692330f7dfec6b146302809e3" target="_top" xlink:title="Returns the Y&#45;dimension of this Vector3f. ">
<polygon fill="white" stroke="black" points="376,-45.5 376,-71.5 528,-71.5 528,-45.5 376,-45.5"/>
<text text-anchor="start" x="384" y="-61.1" font-family="Helvetica,sans-Serif" font-size="8.00">project.android.sensor.representation.</text>
<text text-anchor="middle" x="452" y="-52.1" font-family="Helvetica,sans-Serif" font-size="8.00">Vector3f.getY</text>
</a>
</g>
</g>
<!-- Node10&#45;&gt;Node12 -->
<g id="edge4" class="edge"><title>Node10&#45;&gt;Node12</title>
<path fill="none" stroke="midnightblue" d="M340.117,-58.5C348.596,-58.5 357.281,-58.5 365.875,-58.5"/>
<polygon fill="midnightblue" stroke="midnightblue" points="365.905,-62.0001 375.905,-58.5 365.905,-55.0001 365.905,-62.0001"/>
</g>
<!-- Node13 -->
<g id="node6" class="node"><title>Node13</title>
<g id="a_node6"><a xlink:href="a00254.html#a6e8d105f170e17b3d1bb706ea75fb3ea" target="_top" xlink:title="Returns the Z&#45;dimension of this Vector3f. ">
<polygon fill="white" stroke="black" points="376,-0.5 376,-26.5 528,-26.5 528,-0.5 376,-0.5"/>
<text text-anchor="start" x="384" y="-16.1" font-family="Helvetica,sans-Serif" font-size="8.00">project.android.sensor.representation.</text>
<text text-anchor="middle" x="452" y="-7.1" font-family="Helvetica,sans-Serif" font-size="8.00">Vector3f.getZ</text>
</a>
</g>
</g>
<!-- Node10&#45;&gt;Node13 -->
<g id="edge5" class="edge"><title>Node10&#45;&gt;Node13</title>
<path fill="none" stroke="midnightblue" d="M318.799,-45.4841C340.105,-40.3294 364.772,-34.3616 386.987,-28.9871"/>
<polygon fill="midnightblue" stroke="midnightblue" points="388.104,-32.3179 397,-26.5645 386.457,-25.5142 388.104,-32.3179"/>
</g>
</g>
</svg>
