<?xml version="1.0" encoding="UTF-8" standalone="no"?>
<!DOCTYPE svg PUBLIC "-//W3C//DTD SVG 1.1//EN"
 "http://www.w3.org/Graphics/SVG/1.1/DTD/svg11.dtd">
<!-- Generated by graphviz version 2.38.0 (20140413.2041)
 -->
<!-- Title: project.android.sensor.representation.Vector4f.Vector4f Pages: 1 -->
<svg width="348pt" height="125pt"
 viewBox="0.00 0.00 348.00 125.00" xmlns="http://www.w3.org/2000/svg" xmlns:xlink="http://www.w3.org/1999/xlink">
<g id="graph0" class="graph" transform="scale(1 1) rotate(0) translate(4 121)">
<title>project.android.sensor.representation.Vector4f.Vector4f</title>
<polygon fill="white" stroke="none" points="-4,4 -4,-121 344,-121 344,4 -4,4"/>
<!-- Node4 -->
<g id="node1" class="node"><title>Node4</title>
<polygon fill="#bfbfbf" stroke="black" points="0,-45.5 0,-71.5 152,-71.5 152,-45.5 0,-45.5"/>
<text text-anchor="start" x="8" y="-61.1" font-family="Helvetica,sans-Serif" font-size="8.00">project.android.sensor.representation.</text>
<text text-anchor="middle" x="76" y="-52.1" font-family="Helvetica,sans-Serif" font-size="8.00">Vector4f.Vector4f</text>
</g>
<!-- Node5 -->
<g id="node2" class="node"><title>Node5</title>
<g id="a_node2"><a xlink:href="a00254.html#aba432e0cfec33788bed219adf0bf0c5e" target="_top" xlink:title="Returns the X&#45;dimension of this Vector3f. ">
<polygon fill="white" stroke="black" points="188,-90.5 188,-116.5 340,-116.5 340,-90.5 188,-90.5"/>
<text text-anchor="start" x="196" y="-106.1" font-family="Helvetica,sans-Serif" font-size="8.00">project.android.sensor.representation.</text>
<text text-anchor="middle" x="264" y="-97.1" font-family="Helvetica,sans-Serif" font-size="8.00">Vector3f.getX</text>
</a>
</g>
</g>
<!-- Node4&#45;&gt;Node5 -->
<g id="edge1" class="edge"><title>Node4&#45;&gt;Node5</title>
<path fill="none" stroke="midnightblue" d="M130.799,-71.5159C152.105,-76.6706 176.772,-82.6384 198.987,-88.0129"/>
<polygon fill="midnightblue" stroke="midnightblue" points="198.457,-91.4858 209,-90.4355 200.104,-84.6821 198.457,-91.4858"/>
</g>
<!-- Node6 -->
<g id="node3" class="node"><title>Node6</title>
<g id="a_node3"><a xlink:href="a00254.html#aefe347d692330f7dfec6b146302809e3" target="_top" xlink:title="Returns the Y&#45;dimension of this Vector3f. ">
<polygon fill="white" stroke="black" points="188,-45.5 188,-71.5 340,-71.5 340,-45.5 188,-45.5"/>
<text text-anchor="start" x="196" y="-61.1" font-family="Helvetica,sans-Serif" font-size="8.00">project.android.sensor.representation.</text>
<text text-anchor="middle" x="264" y="-52.1" font-family="Helvetica,sans-Serif" font-size="8.00">Vector3f.getY</text>
</a>
</g>
</g>
<!-- Node4&#45;&gt;Node6 -->
<g id="edge2" class="edge"><title>Node4&#45;&gt;Node6</title>
<path fill="none" stroke="midnightblue" d="M152.117,-58.5C160.596,-58.5 169.281,-58.5 177.875,-58.5"/>
<polygon fill="midnightblue" stroke="midnightblue" points="177.905,-62.0001 187.905,-58.5 177.905,-55.0001 177.905,-62.0001"/>
</g>
<!-- Node7 -->
<g id="node4" class="node"><title>Node7</title>
<g id="a_node4"><a xlink:href="a00254.html#a6e8d105f170e17b3d1bb706ea75fb3ea" target="_top" xlink:title="Returns the Z&#45;dimension of this Vector3f. ">
<polygon fill="white" stroke="black" points="188,-0.5 188,-26.5 340,-26.5 340,-0.5 188,-0.5"/>
<text text-anchor="start" x="196" y="-16.1" font-family="Helvetica,sans-Serif" font-size="8.00">project.android.sensor.representation.</text>
<text text-anchor="middle" x="264" y="-7.1" font-family="Helvetica,sans-Serif" font-size="8.00">Vector3f.getZ</text>
</a>
</g>
</g>
<!-- Node4&#45;&gt;Node7 -->
<g id="edge3" class="edge"><title>Node4&#45;&gt;Node7</title>
<path fill="none" stroke="midnightblue" d="M130.799,-45.4841C152.105,-40.3294 176.772,-34.3616 198.987,-28.9871"/>
<polygon fill="midnightblue" stroke="midnightblue" points="200.104,-32.3179 209,-26.5645 198.457,-25.5142 200.104,-32.3179"/>
</g>
</g>
</svg>
