<?xml version="1.0" encoding="UTF-8" standalone="no"?>
<!DOCTYPE svg PUBLIC "-//W3C//DTD SVG 1.1//EN"
 "http://www.w3.org/Graphics/SVG/1.1/DTD/svg11.dtd">
<!-- Generated by graphviz version 2.38.0 (20140413.2041)
 -->
<!-- Title: project.android.net.ServerInfo.getStopFlag Pages: 1 -->
<svg width="276pt" height="35pt"
 viewBox="0.00 0.00 276.00 35.00" xmlns="http://www.w3.org/2000/svg" xmlns:xlink="http://www.w3.org/1999/xlink">
<g id="graph0" class="graph" transform="scale(1 1) rotate(0) translate(4 31)">
<title>project.android.net.ServerInfo.getStopFlag</title>
<polygon fill="white" stroke="none" points="-4,4 -4,-31 272,-31 272,4 -4,4"/>
<!-- Node35 -->
<g id="node1" class="node"><title>Node35</title>
<polygon fill="#bfbfbf" stroke="black" points="0,-0.5 0,-26.5 110,-26.5 110,-0.5 0,-0.5"/>
<text text-anchor="start" x="8" y="-16.1" font-family="Helvetica,sans-Serif" font-size="8.00">project.android.net.Server</text>
<text text-anchor="middle" x="55" y="-7.1" font-family="Helvetica,sans-Serif" font-size="8.00">Info.getStopFlag</text>
</g>
<!-- Node36 -->
<g id="node2" class="node"><title>Node36</title>
<g id="a_node2"><a xlink:href="a00190.html#a03c170017a27365b50ab860fa21e3d46" target="_top" xlink:title="Performs the broadcast receiving operation. ">
<polygon fill="white" stroke="black" points="146,-0.5 146,-26.5 268,-26.5 268,-0.5 146,-0.5"/>
<text text-anchor="start" x="154" y="-16.1" font-family="Helvetica,sans-Serif" font-size="8.00">project.android.net.Broadcast</text>
<text text-anchor="middle" x="207" y="-7.1" font-family="Helvetica,sans-Serif" font-size="8.00">ReceiverThread.run</text>
</a>
</g>
</g>
<!-- Node35&#45;&gt;Node36 -->
<g id="edge1" class="edge"><title>Node35&#45;&gt;Node36</title>
<path fill="none" stroke="midnightblue" d="M120.347,-13.5C128.803,-13.5 137.443,-13.5 145.827,-13.5"/>
<polygon fill="midnightblue" stroke="midnightblue" points="120.153,-10.0001 110.153,-13.5 120.153,-17.0001 120.153,-10.0001"/>
</g>
</g>
</svg>
