<?xml version="1.0" encoding="UTF-8" standalone="no"?>
<!DOCTYPE svg PUBLIC "-//W3C//DTD SVG 1.1//EN"
 "http://www.w3.org/Graphics/SVG/1.1/DTD/svg11.dtd">
<!-- Generated by graphviz version 2.38.0 (20140413.2041)
 -->
<!-- Title: project.android.net.ServerInfo.ServerInfo Pages: 1 -->
<svg width="264pt" height="53pt"
 viewBox="0.00 0.00 264.00 53.00" xmlns="http://www.w3.org/2000/svg" xmlns:xlink="http://www.w3.org/1999/xlink">
<g id="graph0" class="graph" transform="scale(1 1) rotate(0) translate(4 49)">
<title>project.android.net.ServerInfo.ServerInfo</title>
<polygon fill="white" stroke="none" points="-4,4 -4,-49 260,-49 260,4 -4,4"/>
<!-- Node1 -->
<g id="node1" class="node"><title>Node1</title>
<polygon fill="#bfbfbf" stroke="black" points="0,-0.5 0,-26.5 110,-26.5 110,-0.5 0,-0.5"/>
<text text-anchor="start" x="8" y="-16.1" font-family="Helvetica,sans-Serif" font-size="8.00">project.android.net.Server</text>
<text text-anchor="middle" x="55" y="-7.1" font-family="Helvetica,sans-Serif" font-size="8.00">Info.ServerInfo</text>
</g>
<!-- Node2 -->
<g id="node2" class="node"><title>Node2</title>
<g id="a_node2"><a xlink:href="a00222.html#a549978f3a0edc18dc5c54f782a5bed18" target="_top" xlink:title="Compares two ServerInfo objects. ">
<polygon fill="white" stroke="black" points="146,-0.5 146,-26.5 256,-26.5 256,-0.5 146,-0.5"/>
<text text-anchor="start" x="154" y="-16.1" font-family="Helvetica,sans-Serif" font-size="8.00">project.android.net.Server</text>
<text text-anchor="middle" x="201" y="-7.1" font-family="Helvetica,sans-Serif" font-size="8.00">Info.equals</text>
</a>
</g>
</g>
<!-- Node1&#45;&gt;Node2 -->
<g id="edge1" class="edge"><title>Node1&#45;&gt;Node2</title>
<path fill="none" stroke="midnightblue" d="M120.27,-13.5C128.75,-13.5 137.375,-13.5 145.667,-13.5"/>
<polygon fill="midnightblue" stroke="midnightblue" points="120.03,-10.0001 110.03,-13.5 120.03,-17.0001 120.03,-10.0001"/>
</g>
<!-- Node2&#45;&gt;Node2 -->
<g id="edge2" class="edge"><title>Node2&#45;&gt;Node2</title>
<path fill="none" stroke="midnightblue" d="M174.722,-36.9394C177.644,-41.6416 186.404,-45 201,-45 224.953,-45 233.187,-35.9561 225.702,-26.7708"/>
<polygon fill="midnightblue" stroke="midnightblue" points="178.225,-37.1889 176.298,-26.7708 171.308,-36.1166 178.225,-37.1889"/>
</g>
</g>
</svg>
