<?xml version="1.0" encoding="UTF-8" standalone="no"?>
<!DOCTYPE svg PUBLIC "-//W3C//DTD SVG 1.1//EN"
 "http://www.w3.org/Graphics/SVG/1.1/DTD/svg11.dtd">
<!-- Generated by graphviz version 2.38.0 (20140413.2041)
 -->
<!-- Title: project.android.sensor.representation.Quaternion.toAxisAngle Pages: 1 -->
<svg width="348pt" height="80pt"
 viewBox="0.00 0.00 348.00 80.00" xmlns="http://www.w3.org/2000/svg" xmlns:xlink="http://www.w3.org/1999/xlink">
<g id="graph0" class="graph" transform="scale(1 1) rotate(0) translate(4 76)">
<title>project.android.sensor.representation.Quaternion.toAxisAngle</title>
<polygon fill="white" stroke="none" points="-4,4 -4,-76 344,-76 344,4 -4,4"/>
<!-- Node62 -->
<g id="node1" class="node"><title>Node62</title>
<polygon fill="#bfbfbf" stroke="black" points="0,-22.5 0,-48.5 152,-48.5 152,-22.5 0,-22.5"/>
<text text-anchor="start" x="8" y="-38.1" font-family="Helvetica,sans-Serif" font-size="8.00">project.android.sensor.representation.</text>
<text text-anchor="middle" x="76" y="-29.1" font-family="Helvetica,sans-Serif" font-size="8.00">Quaternion.toAxisAngle</text>
</g>
<!-- Node63 -->
<g id="node2" class="node"><title>Node63</title>
<g id="a_node2"><a xlink:href="a00258.html#ac1059d3ba0cf2ae04a9fb47c8f1edb3c" target="_top" xlink:title="Returns the W&#45;dimension of this Vector4f. ">
<polygon fill="white" stroke="black" points="188,-45.5 188,-71.5 340,-71.5 340,-45.5 188,-45.5"/>
<text text-anchor="start" x="196" y="-61.1" font-family="Helvetica,sans-Serif" font-size="8.00">project.android.sensor.representation.</text>
<text text-anchor="middle" x="264" y="-52.1" font-family="Helvetica,sans-Serif" font-size="8.00">Vector4f.getW</text>
</a>
</g>
</g>
<!-- Node62&#45;&gt;Node63 -->
<g id="edge1" class="edge"><title>Node62&#45;&gt;Node63</title>
<path fill="none" stroke="midnightblue" d="M152.117,-44.7887C160.596,-45.8371 169.281,-46.911 177.875,-47.9738"/>
<polygon fill="midnightblue" stroke="midnightblue" points="177.551,-51.4603 187.905,-49.214 178.41,-44.5132 177.551,-51.4603"/>
</g>
<!-- Node64 -->
<g id="node3" class="node"><title>Node64</title>
<g id="a_node3"><a xlink:href="a00250.html#a6a9bc1e2c5ba665cfb62da4e16128adb" target="_top" xlink:title="Normalizes this Quaternion. ">
<polygon fill="white" stroke="black" points="188,-0.5 188,-26.5 340,-26.5 340,-0.5 188,-0.5"/>
<text text-anchor="start" x="196" y="-16.1" font-family="Helvetica,sans-Serif" font-size="8.00">project.android.sensor.representation.</text>
<text text-anchor="middle" x="264" y="-7.1" font-family="Helvetica,sans-Serif" font-size="8.00">Quaternion.normalize</text>
</a>
</g>
</g>
<!-- Node62&#45;&gt;Node64 -->
<g id="edge2" class="edge"><title>Node62&#45;&gt;Node64</title>
<path fill="none" stroke="midnightblue" d="M152.117,-26.6152C160.596,-25.6123 169.281,-24.5851 177.875,-23.5686"/>
<polygon fill="midnightblue" stroke="midnightblue" points="178.385,-27.0327 187.905,-22.3822 177.563,-20.0812 178.385,-27.0327"/>
</g>
</g>
</svg>
