<?xml version="1.0" encoding="UTF-8" standalone="no"?>
<!DOCTYPE svg PUBLIC "-//W3C//DTD SVG 1.1//EN"
 "http://www.w3.org/Graphics/SVG/1.1/DTD/svg11.dtd">
<!-- Generated by graphviz version 2.38.0 (20140413.2041)
 -->
<!-- Title: project.android.sensor.orientation.OrientationProvider.getQuaternion Pages: 1 -->
<svg width="711pt" height="125pt"
 viewBox="0.00 0.00 711.00 125.00" xmlns="http://www.w3.org/2000/svg" xmlns:xlink="http://www.w3.org/1999/xlink">
<g id="graph0" class="graph" transform="scale(1 1) rotate(0) translate(4 121)">
<title>project.android.sensor.orientation.OrientationProvider.getQuaternion</title>
<polygon fill="white" stroke="none" points="-4,4 -4,-121 707,-121 707,4 -4,4"/>
<!-- Node7 -->
<g id="node1" class="node"><title>Node7</title>
<polygon fill="#bfbfbf" stroke="black" points="0,-45.5 0,-71.5 139,-71.5 139,-45.5 0,-45.5"/>
<text text-anchor="start" x="8" y="-61.1" font-family="Helvetica,sans-Serif" font-size="8.00">project.android.sensor.orientation.</text>
<text text-anchor="middle" x="69.5" y="-52.1" font-family="Helvetica,sans-Serif" font-size="8.00">OrientationProvider.getQuaternion</text>
</g>
<!-- Node8 -->
<g id="node2" class="node"><title>Node8</title>
<g id="a_node2"><a xlink:href="a00250.html#a63276a34f5007701782c0d5c1aeb467c" target="_top" xlink:title="Copies the values from the given Quaternion to this one. ">
<polygon fill="white" stroke="black" points="175,-45.5 175,-71.5 327,-71.5 327,-45.5 175,-45.5"/>
<text text-anchor="start" x="183" y="-61.1" font-family="Helvetica,sans-Serif" font-size="8.00">project.android.sensor.representation.</text>
<text text-anchor="middle" x="251" y="-52.1" font-family="Helvetica,sans-Serif" font-size="8.00">Quaternion.set</text>
</a>
</g>
</g>
<!-- Node7&#45;&gt;Node8 -->
<g id="edge1" class="edge"><title>Node7&#45;&gt;Node8</title>
<path fill="none" stroke="midnightblue" d="M139.13,-58.5C147.524,-58.5 156.179,-58.5 164.779,-58.5"/>
<polygon fill="midnightblue" stroke="midnightblue" points="164.83,-62.0001 174.83,-58.5 164.83,-55.0001 164.83,-62.0001"/>
</g>
<!-- Node9 -->
<g id="node3" class="node"><title>Node9</title>
<g id="a_node3"><a xlink:href="a00258.html#ad64f74d289c05e667cd27cf017ab8b95" target="_top" xlink:title="Copies another Vector4f to this one. ">
<polygon fill="white" stroke="black" points="363,-45.5 363,-71.5 515,-71.5 515,-45.5 363,-45.5"/>
<text text-anchor="start" x="371" y="-61.1" font-family="Helvetica,sans-Serif" font-size="8.00">project.android.sensor.representation.</text>
<text text-anchor="middle" x="439" y="-52.1" font-family="Helvetica,sans-Serif" font-size="8.00">Vector4f.copyVec4</text>
</a>
</g>
</g>
<!-- Node8&#45;&gt;Node9 -->
<g id="edge2" class="edge"><title>Node8&#45;&gt;Node9</title>
<path fill="none" stroke="midnightblue" d="M327.117,-58.5C335.596,-58.5 344.281,-58.5 352.875,-58.5"/>
<polygon fill="midnightblue" stroke="midnightblue" points="352.905,-62.0001 362.905,-58.5 352.905,-55.0001 352.905,-62.0001"/>
</g>
<!-- Node10 -->
<g id="node4" class="node"><title>Node10</title>
<g id="a_node4"><a xlink:href="a00254.html#aba432e0cfec33788bed219adf0bf0c5e" target="_top" xlink:title="Returns the X&#45;dimension of this Vector3f. ">
<polygon fill="white" stroke="black" points="551,-90.5 551,-116.5 703,-116.5 703,-90.5 551,-90.5"/>
<text text-anchor="start" x="559" y="-106.1" font-family="Helvetica,sans-Serif" font-size="8.00">project.android.sensor.representation.</text>
<text text-anchor="middle" x="627" y="-97.1" font-family="Helvetica,sans-Serif" font-size="8.00">Vector3f.getX</text>
</a>
</g>
</g>
<!-- Node9&#45;&gt;Node10 -->
<g id="edge3" class="edge"><title>Node9&#45;&gt;Node10</title>
<path fill="none" stroke="midnightblue" d="M493.799,-71.5159C515.105,-76.6706 539.772,-82.6384 561.987,-88.0129"/>
<polygon fill="midnightblue" stroke="midnightblue" points="561.457,-91.4858 572,-90.4355 563.104,-84.6821 561.457,-91.4858"/>
</g>
<!-- Node11 -->
<g id="node5" class="node"><title>Node11</title>
<g id="a_node5"><a xlink:href="a00254.html#aefe347d692330f7dfec6b146302809e3" target="_top" xlink:title="Returns the Y&#45;dimension of this Vector3f. ">
<polygon fill="white" stroke="black" points="551,-45.5 551,-71.5 703,-71.5 703,-45.5 551,-45.5"/>
<text text-anchor="start" x="559" y="-61.1" font-family="Helvetica,sans-Serif" font-size="8.00">project.android.sensor.representation.</text>
<text text-anchor="middle" x="627" y="-52.1" font-family="Helvetica,sans-Serif" font-size="8.00">Vector3f.getY</text>
</a>
</g>
</g>
<!-- Node9&#45;&gt;Node11 -->
<g id="edge4" class="edge"><title>Node9&#45;&gt;Node11</title>
<path fill="none" stroke="midnightblue" d="M515.117,-58.5C523.596,-58.5 532.281,-58.5 540.875,-58.5"/>
<polygon fill="midnightblue" stroke="midnightblue" points="540.905,-62.0001 550.905,-58.5 540.905,-55.0001 540.905,-62.0001"/>
</g>
<!-- Node12 -->
<g id="node6" class="node"><title>Node12</title>
<g id="a_node6"><a xlink:href="a00254.html#a6e8d105f170e17b3d1bb706ea75fb3ea" target="_top" xlink:title="Returns the Z&#45;dimension of this Vector3f. ">
<polygon fill="white" stroke="black" points="551,-0.5 551,-26.5 703,-26.5 703,-0.5 551,-0.5"/>
<text text-anchor="start" x="559" y="-16.1" font-family="Helvetica,sans-Serif" font-size="8.00">project.android.sensor.representation.</text>
<text text-anchor="middle" x="627" y="-7.1" font-family="Helvetica,sans-Serif" font-size="8.00">Vector3f.getZ</text>
</a>
</g>
</g>
<!-- Node9&#45;&gt;Node12 -->
<g id="edge5" class="edge"><title>Node9&#45;&gt;Node12</title>
<path fill="none" stroke="midnightblue" d="M493.799,-45.4841C515.105,-40.3294 539.772,-34.3616 561.987,-28.9871"/>
<polygon fill="midnightblue" stroke="midnightblue" points="563.104,-32.3179 572,-26.5645 561.457,-25.5142 563.104,-32.3179"/>
</g>
</g>
</svg>
