<?xml version="1.0" encoding="UTF-8" standalone="no"?>
<!DOCTYPE svg PUBLIC "-//W3C//DTD SVG 1.1//EN"
 "http://www.w3.org/Graphics/SVG/1.1/DTD/svg11.dtd">
<!-- Generated by graphviz version 2.38.0 (20140413.2041)
 -->
<!-- Title: project.android.net.ClientIOThread.run Pages: 1 -->
<!--zoomable 201 -->
<svg id="main" version="1.1" xmlns="http://www.w3.org/2000/svg" xmlns:xlink="http://www.w3.org/1999/xlink" xml:space="preserve" onload="init(evt)">
<style type="text/css"><![CDATA[
.edge:hover path { stroke: red; }
.edge:hover polygon { stroke: red; fill: red; }
]]></style>
<script type="text/javascript"><![CDATA[
var edges = document.getElementsByTagName('g');
if (edges && edges.length) {
  for (var i=0;i<edges.length;i++) {
    if (edges[i].id.substr(0,4)=='edge') {
      edges[i].setAttribute('class','edge');
    }
  }
}
]]></script>
        <defs>
                <circle id="rim" cx="0" cy="0" r="7"/>
                <circle id="rim2" cx="0" cy="0" r="3.5"/>
                <g id="zoomPlus">
                        <use xlink:href="#rim" fill="#404040">
                                <set attributeName="fill" to="#808080" begin="zoomplus.mouseover" end="zoomplus.mouseout"/>
                        </use>
                        <path d="M-4,0h8M0,-4v8" fill="none" stroke="white" stroke-width="1.5" pointer-events="none"/>
                </g>
                <g id="zoomMin">
                        <use xlink:href="#rim" fill="#404040">
                                <set attributeName="fill" to="#808080" begin="zoomminus.mouseover" end="zoomminus.mouseout"/>
                        </use>
                        <path d="M-4,0h8" fill="none" stroke="white" stroke-width="1.5" pointer-events="none"/>
                </g>
                <g id="dirArrow">
                        <path fill="none" stroke="white" stroke-width="1.5" d="M0,-3.0v7 M-2.5,-0.5L0,-3.0L2.5,-0.5"/>
                </g>
               <g id="resetDef">
                       <use xlink:href="#rim2" fill="#404040">
                               <set attributeName="fill" to="#808080" begin="reset.mouseover" end="reset.mouseout"/>
                       </use>
               </g>
        </defs>

<script type="text/javascript">
var viewWidth = 1265;
var viewHeight = 201;
var sectionId = 'dynsection-2';
</script>
<script xlink:href="svgpan.js"/>
<svg id="graph" class="graph">
<g id="viewport">
<title>project.android.net.ClientIOThread.run</title>
<polygon fill="white" stroke="none" points="-4,4 -4,-196.5 1261,-196.5 1261,4 -4,4"/>
<!-- Node17 -->
<g id="node1" class="node"><title>Node17</title>
<polygon fill="#bfbfbf" stroke="black" points="0,-63.5 0,-89.5 106,-89.5 106,-63.5 0,-63.5"/>
<text text-anchor="start" x="8" y="-79.1" font-family="Helvetica,sans-Serif" font-size="8.00">project.android.net.Client</text>
<text text-anchor="middle" x="53" y="-70.1" font-family="Helvetica,sans-Serif" font-size="8.00">IOThread.run</text>
</g>
<!-- Node18 -->
<g id="node2" class="node"><title>Node18</title>
<g id="a_node2"><a xlink:href="a00182.html#a2025eaa4f93363e6f4a03b26d7c4f8f6" target="_top" xlink:title="Returns the project.android.ConnectionFragment object. ">
<polygon fill="white" stroke="black" points="142,-108.5 142,-134.5 269,-134.5 269,-108.5 142,-108.5"/>
<text text-anchor="start" x="150" y="-124.1" font-family="Helvetica,sans-Serif" font-size="8.00">project.android.MainActivity.get</text>
<text text-anchor="middle" x="205.5" y="-115.1" font-family="Helvetica,sans-Serif" font-size="8.00">ConnectionFragment</text>
</a>
</g>
</g>
<!-- Node17&#45;&gt;Node18 -->
<g id="edge1" class="edge"><title>Node17&#45;&gt;Node18</title>
<path fill="none" stroke="midnightblue" d="M97.5308,-89.5159C114.149,-94.4849 133.294,-100.209 150.754,-105.43"/>
<polygon fill="midnightblue" stroke="midnightblue" points="150.223,-108.924 160.807,-108.436 152.228,-102.217 150.223,-108.924"/>
</g>
<!-- Node19 -->
<g id="node3" class="node"><title>Node19</title>
<g id="a_node3"><a xlink:href="a00166.html#a5ae4f9d7872792288afb3de65ab4c2b0" target="_top" xlink:title="Sets an icon for an inactive server. ">
<polygon fill="white" stroke="black" points="149,-63.5 149,-89.5 262,-89.5 262,-63.5 149,-63.5"/>
<text text-anchor="start" x="157" y="-79.1" font-family="Helvetica,sans-Serif" font-size="8.00">project.android.Connection</text>
<text text-anchor="middle" x="205.5" y="-70.1" font-family="Helvetica,sans-Serif" font-size="8.00">Fragment.resetIcon</text>
</a>
</g>
</g>
<!-- Node17&#45;&gt;Node19 -->
<g id="edge2" class="edge"><title>Node17&#45;&gt;Node19</title>
<path fill="none" stroke="midnightblue" d="M106.215,-76.5C116.638,-76.5 127.713,-76.5 138.528,-76.5"/>
<polygon fill="midnightblue" stroke="midnightblue" points="138.788,-80.0001 148.788,-76.5 138.788,-73.0001 138.788,-80.0001"/>
</g>
<!-- Node31 -->
<g id="node15" class="node"><title>Node31</title>
<g id="a_node15"><a xlink:href="a00226.html#a1843f8e6646edd0fbea0ae49e620aa92" target="_top" xlink:title="Decrypts ciphertext using AES 256&#45;bit bit decryption algorithm. ">
<polygon fill="white" stroke="black" points="149.5,-18.5 149.5,-44.5 261.5,-44.5 261.5,-18.5 149.5,-18.5"/>
<text text-anchor="start" x="157.5" y="-34.1" font-family="Helvetica,sans-Serif" font-size="8.00">project.android.security.</text>
<text text-anchor="middle" x="205.5" y="-25.1" font-family="Helvetica,sans-Serif" font-size="8.00">EKEProvider.decryptString</text>
</a>
</g>
</g>
<!-- Node17&#45;&gt;Node31 -->
<g id="edge16" class="edge"><title>Node17&#45;&gt;Node31</title>
<path fill="none" stroke="midnightblue" d="M97.5308,-63.4841C114.149,-58.5151 133.294,-52.7907 150.754,-47.5704"/>
<polygon fill="midnightblue" stroke="midnightblue" points="152.228,-50.7826 160.807,-44.5645 150.223,-44.076 152.228,-50.7826"/>
</g>
<!-- Node20 -->
<g id="node4" class="node"><title>Node20</title>
<g id="a_node4"><a xlink:href="a00166.html#a863b30e1ce16c16e6dba6bebe8d8c45e" target="_top" xlink:title="Returns the View of the clicked list item. ">
<polygon fill="white" stroke="black" points="305,-42.5 305,-68.5 424,-68.5 424,-42.5 305,-42.5"/>
<text text-anchor="start" x="313" y="-58.1" font-family="Helvetica,sans-Serif" font-size="8.00">project.android.Connection</text>
<text text-anchor="middle" x="364.5" y="-49.1" font-family="Helvetica,sans-Serif" font-size="8.00">Fragment.getViewByPosition</text>
</a>
</g>
</g>
<!-- Node19&#45;&gt;Node20 -->
<g id="edge3" class="edge"><title>Node19&#45;&gt;Node20</title>
<path fill="none" stroke="midnightblue" d="M262.294,-69.0371C272.889,-67.62 284.087,-66.1221 295.021,-64.6596"/>
<polygon fill="midnightblue" stroke="midnightblue" points="295.516,-68.1246 304.964,-63.3297 294.588,-61.1864 295.516,-68.1246"/>
</g>
<!-- Node21 -->
<g id="node5" class="node"><title>Node21</title>
<g id="a_node5"><a xlink:href="a00170.html#aeff09458fb87bd73b69188560508baf5" target="_top" xlink:title="Overrides ArrayAdapter.getView(int, View, ViewGroup) method. ">
<polygon fill="white" stroke="black" points="460,-47 460,-64 619,-64 619,-47 460,-47"/>
<text text-anchor="middle" x="539.5" y="-53.6" font-family="Helvetica,sans-Serif" font-size="8.00">project.android.CustomAdapter.getView</text>
</a>
</g>
</g>
<!-- Node20&#45;&gt;Node21 -->
<g id="edge4" class="edge"><title>Node20&#45;&gt;Node21</title>
<path fill="none" stroke="midnightblue" d="M424.07,-55.5C432.313,-55.5 440.936,-55.5 449.59,-55.5"/>
<polygon fill="midnightblue" stroke="midnightblue" points="449.744,-59.0001 459.744,-55.5 449.744,-52.0001 449.744,-59.0001"/>
</g>
<!-- Node22 -->
<g id="node6" class="node"><title>Node22</title>
<g id="a_node6"><a xlink:href="a00166.html#aee2a392b8b0500023dba15b60d3315d2" target="_top" xlink:title="Returns a list of ServerInfo objects. ">
<polygon fill="white" stroke="black" points="655,-84.5 655,-110.5 768,-110.5 768,-84.5 655,-84.5"/>
<text text-anchor="start" x="663" y="-100.1" font-family="Helvetica,sans-Serif" font-size="8.00">project.android.Connection</text>
<text text-anchor="middle" x="711.5" y="-91.1" font-family="Helvetica,sans-Serif" font-size="8.00">Fragment.getNetworkList</text>
</a>
</g>
</g>
<!-- Node21&#45;&gt;Node22 -->
<g id="edge5" class="edge"><title>Node21&#45;&gt;Node22</title>
<path fill="none" stroke="midnightblue" d="M575.312,-64.1007C596.144,-69.2474 623.242,-75.9422 647.702,-81.9853"/>
<polygon fill="midnightblue" stroke="midnightblue" points="647.092,-85.4396 657.639,-84.4403 648.771,-78.6439 647.092,-85.4396"/>
</g>
<!-- Node23 -->
<g id="node7" class="node"><title>Node23</title>
<g id="a_node7"><a xlink:href="a00222.html#a914c65a49cf5940901d475693ee8e205" target="_top" xlink:title="Returns the IPv4 address of the server. ">
<polygon fill="white" stroke="black" points="812,-39.5 812,-65.5 922,-65.5 922,-39.5 812,-39.5"/>
<text text-anchor="start" x="820" y="-55.1" font-family="Helvetica,sans-Serif" font-size="8.00">project.android.net.Server</text>
<text text-anchor="middle" x="867" y="-46.1" font-family="Helvetica,sans-Serif" font-size="8.00">Info.getAddress</text>
</a>
</g>
</g>
<!-- Node21&#45;&gt;Node23 -->
<g id="edge15" class="edge"><title>Node21&#45;&gt;Node23</title>
<path fill="none" stroke="midnightblue" d="M619.294,-54.7738C675.21,-54.2584 749.333,-53.5753 801.687,-53.0927"/>
<polygon fill="midnightblue" stroke="midnightblue" points="801.889,-56.5911 811.856,-52.999 801.824,-49.5914 801.889,-56.5911"/>
</g>
<!-- Node30 -->
<g id="node14" class="node"><title>Node30</title>
<g id="a_node14"><a xlink:href="a00222.html#adc1c8edd1eafda5cad71f9babd18dfd4" target="_top" xlink:title="Returns the canonical host name of the server. ">
<polygon fill="white" stroke="black" points="656.5,-0.5 656.5,-26.5 766.5,-26.5 766.5,-0.5 656.5,-0.5"/>
<text text-anchor="start" x="664.5" y="-16.1" font-family="Helvetica,sans-Serif" font-size="8.00">project.android.net.Server</text>
<text text-anchor="middle" x="711.5" y="-7.1" font-family="Helvetica,sans-Serif" font-size="8.00">Info.getServerInfo</text>
</a>
</g>
</g>
<!-- Node21&#45;&gt;Node30 -->
<g id="edge14" class="edge"><title>Node21&#45;&gt;Node30</title>
<path fill="none" stroke="midnightblue" d="M575.312,-46.8993C596.144,-41.7526 623.242,-35.0578 647.702,-29.0147"/>
<polygon fill="midnightblue" stroke="midnightblue" points="648.771,-32.3561 657.639,-26.5597 647.092,-25.5604 648.771,-32.3561"/>
</g>
<!-- Node22&#45;&gt;Node19 -->
<g id="edge6" class="edge"><title>Node22&#45;&gt;Node19</title>
<path fill="none" stroke="midnightblue" d="M654.772,-95.178C561.171,-91.278 372.82,-83.43 272.657,-79.2565"/>
<polygon fill="midnightblue" stroke="midnightblue" points="272.5,-75.747 262.363,-78.8276 272.208,-82.741 272.5,-75.747"/>
</g>
<!-- Node22&#45;&gt;Node23 -->
<g id="edge7" class="edge"><title>Node22&#45;&gt;Node23</title>
<path fill="none" stroke="midnightblue" d="M756.899,-84.4841C774.007,-79.4687 793.74,-73.6836 811.681,-68.4241"/>
<polygon fill="midnightblue" stroke="midnightblue" points="812.824,-71.7364 821.436,-65.5645 810.855,-65.0191 812.824,-71.7364"/>
</g>
<!-- Node24 -->
<g id="node8" class="node"><title>Node24</title>
<g id="a_node8"><a xlink:href="a00222.html#a19b6bb0a1264932dfc136820ec21620f" target="_top" xlink:title="Sets the pairing key used during client&#45;server authentication. ">
<polygon fill="white" stroke="black" points="812,-129.5 812,-155.5 922,-155.5 922,-129.5 812,-129.5"/>
<text text-anchor="start" x="820" y="-145.1" font-family="Helvetica,sans-Serif" font-size="8.00">project.android.net.Server</text>
<text text-anchor="middle" x="867" y="-136.1" font-family="Helvetica,sans-Serif" font-size="8.00">Info.setPairingKey</text>
</a>
</g>
</g>
<!-- Node22&#45;&gt;Node24 -->
<g id="edge8" class="edge"><title>Node22&#45;&gt;Node24</title>
<path fill="none" stroke="midnightblue" d="M756.899,-110.516C774.007,-115.531 793.74,-121.316 811.681,-126.576"/>
<polygon fill="midnightblue" stroke="midnightblue" points="810.855,-129.981 821.436,-129.436 812.824,-123.264 810.855,-129.981"/>
</g>
<!-- Node25 -->
<g id="node9" class="node"><title>Node25</title>
<g id="a_node9"><a xlink:href="a00194.html#aa23e2b087d09db0524a34b73cd5e07d3" target="_top" xlink:title="Sends a stop signal if the user disconnects the server. ">
<polygon fill="white" stroke="black" points="804.5,-84.5 804.5,-110.5 929.5,-110.5 929.5,-84.5 804.5,-84.5"/>
<text text-anchor="start" x="812.5" y="-100.1" font-family="Helvetica,sans-Serif" font-size="8.00">project.android.net.Client.send</text>
<text text-anchor="middle" x="867" y="-91.1" font-family="Helvetica,sans-Serif" font-size="8.00">StopSignal</text>
</a>
</g>
</g>
<!-- Node22&#45;&gt;Node25 -->
<g id="edge9" class="edge"><title>Node22&#45;&gt;Node25</title>
<path fill="none" stroke="midnightblue" d="M768.351,-97.5C776.792,-97.5 785.598,-97.5 794.316,-97.5"/>
<polygon fill="midnightblue" stroke="midnightblue" points="794.484,-101 804.484,-97.5 794.484,-94.0001 794.484,-101"/>
</g>
<!-- Node29 -->
<g id="node13" class="node"><title>Node29</title>
<g id="a_node13"><a xlink:href="a00194.html#a2f8cb3f32f139e5c370c8b74f539368a" target="_top" xlink:title="Closes the client socket. ">
<polygon fill="white" stroke="black" points="804,-175 804,-192 930,-192 930,-175 804,-175"/>
<text text-anchor="middle" x="867" y="-181.6" font-family="Helvetica,sans-Serif" font-size="8.00">project.android.net.Client.close</text>
</a>
</g>
</g>
<!-- Node22&#45;&gt;Node29 -->
<g id="edge13" class="edge"><title>Node22&#45;&gt;Node29</title>
<path fill="none" stroke="midnightblue" d="M726.64,-110.569C743.761,-125.755 774.041,-150.626 804,-165.5 808.649,-167.808 813.646,-169.871 818.711,-171.7"/>
<polygon fill="midnightblue" stroke="midnightblue" points="817.871,-175.109 828.465,-174.936 820.075,-168.465 817.871,-175.109"/>
</g>
<!-- Node26 -->
<g id="node10" class="node"><title>Node26</title>
<g id="a_node10"><a xlink:href="a00194.html#a3d6c629d64e1911979c9f483c8785b5f" target="_top" xlink:title="Sends mouse button or keyboard data. ">
<polygon fill="white" stroke="black" points="966,-89 966,-106 1109,-106 1109,-89 966,-89"/>
<text text-anchor="middle" x="1037.5" y="-95.6" font-family="Helvetica,sans-Serif" font-size="8.00">project.android.net.Client.sendData</text>
</a>
</g>
</g>
<!-- Node25&#45;&gt;Node26 -->
<g id="edge10" class="edge"><title>Node25&#45;&gt;Node26</title>
<path fill="none" stroke="midnightblue" d="M929.786,-97.5C938.225,-97.5 946.988,-97.5 955.702,-97.5"/>
<polygon fill="midnightblue" stroke="midnightblue" points="955.886,-101 965.886,-97.5 955.886,-94.0001 955.886,-101"/>
</g>
<!-- Node27 -->
<g id="node11" class="node"><title>Node27</title>
<g id="a_node11"><a xlink:href="a00210.html#af8add0417bec5bd0d019410c91f69e38" target="_top" xlink:title="Returns a JSon&#45;string of an object. ">
<polygon fill="white" stroke="black" points="1149.5,-107.5 1149.5,-133.5 1252.5,-133.5 1252.5,-107.5 1149.5,-107.5"/>
<text text-anchor="start" x="1157.5" y="-123.1" font-family="Helvetica,sans-Serif" font-size="8.00">project.android.net.Data</text>
<text text-anchor="middle" x="1201" y="-114.1" font-family="Helvetica,sans-Serif" font-size="8.00">Wrapper.getGsonString</text>
</a>
</g>
</g>
<!-- Node26&#45;&gt;Node27 -->
<g id="edge11" class="edge"><title>Node26&#45;&gt;Node27</title>
<path fill="none" stroke="midnightblue" d="M1098.64,-106.064C1111.93,-107.957 1126.02,-109.964 1139.33,-111.86"/>
<polygon fill="midnightblue" stroke="midnightblue" points="1138.94,-115.34 1149.34,-113.285 1139.93,-108.41 1138.94,-115.34"/>
</g>
<!-- Node28 -->
<g id="node12" class="node"><title>Node28</title>
<g id="a_node12"><a xlink:href="a00226.html#a73624750dc6ff111d72bcb4b54c4995c" target="_top" xlink:title="Encrypts plaintext using AES 256&#45;bit encryption algorithm. ">
<polygon fill="white" stroke="black" points="1145,-62.5 1145,-88.5 1257,-88.5 1257,-62.5 1145,-62.5"/>
<text text-anchor="start" x="1153" y="-78.1" font-family="Helvetica,sans-Serif" font-size="8.00">project.android.security.</text>
<text text-anchor="middle" x="1201" y="-69.1" font-family="Helvetica,sans-Serif" font-size="8.00">EKEProvider.encryptString</text>
</a>
</g>
</g>
<!-- Node26&#45;&gt;Node28 -->
<g id="edge12" class="edge"><title>Node26&#45;&gt;Node28</title>
<path fill="none" stroke="midnightblue" d="M1100.94,-88.9942C1112.02,-87.4853 1123.58,-85.9102 1134.73,-84.3909"/>
<polygon fill="midnightblue" stroke="midnightblue" points="1135.4,-87.8326 1144.83,-83.0148 1134.45,-80.8967 1135.4,-87.8326"/>
</g>
</g>
</svg>
        <g id="navigator" transform="translate(0 0)" fill="#404254">
                <rect fill="#f2f5e9" fill-opacity="0.5" stroke="#606060" stroke-width=".5" x="0" y="0" width="60" height="60"/>
                <use id="zoomplus" xlink:href="#zoomPlus" x="17" y="9" onmousedown="handleZoom(evt,'in')"/>
                <use id="zoomminus" xlink:href="#zoomMin" x="42" y="9" onmousedown="handleZoom(evt,'out')"/>
                <use id="reset" xlink:href="#resetDef" x="30" y="36" onmousedown="handleReset()"/>
                <g id="arrowUp" xlink:href="#dirArrow" transform="translate(30 24)" onmousedown="handlePan(0,-1)">
                  <use xlink:href="#rim" fill="#404040">
                        <set attributeName="fill" to="#808080" begin="arrowUp.mouseover" end="arrowUp.mouseout"/>
                  </use>
                  <path fill="none" stroke="white" stroke-width="1.5" d="M0,-3.0v7 M-2.5,-0.5L0,-3.0L2.5,-0.5"/>
                </g>
                <g id="arrowRight" xlink:href="#dirArrow" transform="rotate(90) translate(36 -43)" onmousedown="handlePan(1,0)">
                  <use xlink:href="#rim" fill="#404040">
                        <set attributeName="fill" to="#808080" begin="arrowRight.mouseover" end="arrowRight.mouseout"/>
                  </use>
                  <path fill="none" stroke="white" stroke-width="1.5" d="M0,-3.0v7 M-2.5,-0.5L0,-3.0L2.5,-0.5"/>
                </g>
                <g id="arrowDown" xlink:href="#dirArrow" transform="rotate(180) translate(-30 -48)" onmousedown="handlePan(0,1)">
                  <use xlink:href="#rim" fill="#404040">
                        <set attributeName="fill" to="#808080" begin="arrowDown.mouseover" end="arrowDown.mouseout"/>
                  </use>
                  <path fill="none" stroke="white" stroke-width="1.5" d="M0,-3.0v7 M-2.5,-0.5L0,-3.0L2.5,-0.5"/>
                </g>
                <g id="arrowLeft" xlink:href="#dirArrow" transform="rotate(270) translate(-36 17)" onmousedown="handlePan(-1,0)">
                  <use xlink:href="#rim" fill="#404040">
                        <set attributeName="fill" to="#808080" begin="arrowLeft.mouseover" end="arrowLeft.mouseout"/>
                  </use>
                  <path fill="none" stroke="white" stroke-width="1.5" d="M0,-3.0v7 M-2.5,-0.5L0,-3.0L2.5,-0.5"/>
                </g>
        </g>
        <svg viewBox="0 0 15 15" width="100%" height="30px" preserveAspectRatio="xMaxYMin meet">
         <g id="arrow_out" transform="scale(0.3 0.3)">
          <a xlink:href="a00202_a9f6765867ad54f586cc7b329213a2ac3_cgraph_org.svg" target="_base">
           <rect id="button" ry="5" rx="5" y="6" x="6" height="38" width="38"
                fill="#f2f5e9" fill-opacity="0.5" stroke="#606060" stroke-width="1.0"/>
           <path id="arrow"
             d="M 11.500037,31.436501 C 11.940474,20.09759 22.043105,11.32322 32.158766,21.979434 L 37.068811,17.246167 C 37.068811,17.246167 37.088388,32 37.088388,32 L 22.160133,31.978069 C 22.160133,31.978069 26.997745,27.140456 26.997745,27.140456 C 18.528582,18.264221 13.291696,25.230495 11.500037,31.436501 z"
             style="fill:#404040;"/>
          </a>
         </g>
        </svg>
</svg>
