<?xml version="1.0" encoding="UTF-8" standalone="no"?>
<!DOCTYPE svg PUBLIC "-//W3C//DTD SVG 1.1//EN"
 "http://www.w3.org/Graphics/SVG/1.1/DTD/svg11.dtd">
<!-- Generated by graphviz version 2.38.0 (20140413.2041)
 -->
<!-- Title: project.android.security.KeyStoreManager.getKSKeyPair Pages: 1 -->
<svg width="288pt" height="35pt"
 viewBox="0.00 0.00 288.00 35.00" xmlns="http://www.w3.org/2000/svg" xmlns:xlink="http://www.w3.org/1999/xlink">
<g id="graph0" class="graph" transform="scale(1 1) rotate(0) translate(4 31)">
<title>project.android.security.KeyStoreManager.getKSKeyPair</title>
<polygon fill="white" stroke="none" points="-4,4 -4,-31 284,-31 284,4 -4,4"/>
<!-- Node3 -->
<g id="node1" class="node"><title>Node3</title>
<polygon fill="#bfbfbf" stroke="black" points="0,-0.5 0,-26.5 134,-26.5 134,-0.5 0,-0.5"/>
<text text-anchor="start" x="8" y="-16.1" font-family="Helvetica,sans-Serif" font-size="8.00">project.android.security.</text>
<text text-anchor="middle" x="67" y="-7.1" font-family="Helvetica,sans-Serif" font-size="8.00">KeyStoreManager.getKSKeyPair</text>
</g>
<!-- Node4 -->
<g id="node2" class="node"><title>Node4</title>
<g id="a_node2"><a xlink:href="a00226.html#a7d7b75da1704e880cb65d4e2bdb27890" target="_top" xlink:title="Constructor. ">
<polygon fill="white" stroke="black" points="170,-0.5 170,-26.5 280,-26.5 280,-0.5 170,-0.5"/>
<text text-anchor="start" x="178" y="-16.1" font-family="Helvetica,sans-Serif" font-size="8.00">project.android.security.</text>
<text text-anchor="middle" x="225" y="-7.1" font-family="Helvetica,sans-Serif" font-size="8.00">EKEProvider.EKEProvider</text>
</a>
</g>
</g>
<!-- Node3&#45;&gt;Node4 -->
<g id="edge1" class="edge"><title>Node3&#45;&gt;Node4</title>
<path fill="none" stroke="midnightblue" d="M144.171,-13.5C152.732,-13.5 161.324,-13.5 169.531,-13.5"/>
<polygon fill="midnightblue" stroke="midnightblue" points="144.158,-10.0001 134.158,-13.5 144.158,-17.0001 144.158,-10.0001"/>
</g>
</g>
</svg>
