<?xml version="1.0" encoding="UTF-8" standalone="no"?>
<!DOCTYPE svg PUBLIC "-//W3C//DTD SVG 1.1//EN"
 "http://www.w3.org/Graphics/SVG/1.1/DTD/svg11.dtd">
<!-- Generated by graphviz version 2.38.0 (20140413.2041)
 -->
<!-- Title: Graph Legend Pages: 1 -->
<svg width="450pt" height="149pt"
 viewBox="0.00 0.00 449.50 149.00" xmlns="http://www.w3.org/2000/svg" xmlns:xlink="http://www.w3.org/1999/xlink">
<g id="graph0" class="graph" transform="scale(1 1) rotate(0) translate(4 145)">
<title>Graph Legend</title>
<polygon fill="white" stroke="none" points="-4,4 -4,-145 445.5,-145 445.5,4 -4,4"/>
<!-- Node9 -->
<g id="node1" class="node"><title>Node9</title>
<polygon fill="#bfbfbf" stroke="black" points="256,-17 208,-17 208,-0 256,-0 256,-17"/>
<text text-anchor="middle" x="232" y="-6.6" font-family="Helvetica,sans-Serif" font-size="8.00">Inherited</text>
</g>
<!-- Node10 -->
<g id="node2" class="node"><title>Node10</title>
<g id="a_node2"><a xlink:href="$classPublicBase.html" xlink:title="PublicBase">
<polygon fill="none" stroke="black" points="56,-79 0,-79 0,-62 56,-62 56,-79"/>
<text text-anchor="middle" x="28" y="-68.6" font-family="Helvetica,sans-Serif" font-size="8.00">PublicBase</text>
</a>
</g>
</g>
<!-- Node10&#45;&gt;Node9 -->
<g id="edge1" class="edge"><title>Node10&#45;&gt;Node9</title>
<path fill="none" stroke="midnightblue" d="M63.519,-59.0532C104.927,-46.8743 172.236,-27.0776 207.956,-16.5717"/>
<polygon fill="midnightblue" stroke="midnightblue" points="62.4428,-55.7214 53.8367,-61.901 64.418,-62.437 62.4428,-55.7214"/>
</g>
<!-- Node11 -->
<g id="node3" class="node"><title>Node11</title>
<g id="a_node3"><a xlink:href="$classTruncated.html" xlink:title="Truncated">
<polygon fill="none" stroke="red" points="54.5,-141 1.5,-141 1.5,-124 54.5,-124 54.5,-141"/>
<text text-anchor="middle" x="28" y="-130.6" font-family="Helvetica,sans-Serif" font-size="8.00">Truncated</text>
</a>
</g>
</g>
<!-- Node11&#45;&gt;Node10 -->
<g id="edge2" class="edge"><title>Node11&#45;&gt;Node10</title>
<path fill="none" stroke="midnightblue" d="M28,-113.436C28,-101.979 28,-87.7467 28,-79.1562"/>
<polygon fill="midnightblue" stroke="midnightblue" points="24.5001,-113.656 28,-123.656 31.5001,-113.656 24.5001,-113.656"/>
</g>
<!-- Node13 -->
<g id="node4" class="node"><title>Node13</title>
<g id="a_node4"><a xlink:href="$classProtectedBase.html" xlink:title="ProtectedBase">
<polygon fill="none" stroke="black" points="143.5,-79 74.5,-79 74.5,-62 143.5,-62 143.5,-79"/>
<text text-anchor="middle" x="109" y="-68.6" font-family="Helvetica,sans-Serif" font-size="8.00">ProtectedBase</text>
</a>
</g>
</g>
<!-- Node13&#45;&gt;Node9 -->
<g id="edge3" class="edge"><title>Node13&#45;&gt;Node9</title>
<path fill="none" stroke="darkgreen" d="M133.696,-57.4532C158.43,-45.3878 195.728,-27.1937 216.548,-17.0373"/>
<polygon fill="darkgreen" stroke="darkgreen" points="132.031,-54.371 124.578,-61.901 135.1,-60.6624 132.031,-54.371"/>
</g>
<!-- Node14 -->
<g id="node5" class="node"><title>Node14</title>
<g id="a_node5"><a xlink:href="$classPrivateBase.html" xlink:title="PrivateBase">
<polygon fill="none" stroke="black" points="220.5,-79 161.5,-79 161.5,-62 220.5,-62 220.5,-79"/>
<text text-anchor="middle" x="191" y="-68.6" font-family="Helvetica,sans-Serif" font-size="8.00">PrivateBase</text>
</a>
</g>
</g>
<!-- Node14&#45;&gt;Node9 -->
<g id="edge4" class="edge"><title>Node14&#45;&gt;Node9</title>
<path fill="none" stroke="#8b1a1a" d="M202.137,-53.2021C210.149,-41.4765 220.592,-26.1941 226.768,-17.1562"/>
<polygon fill="#8b1a1a" stroke="#8b1a1a" points="199.112,-51.4249 196.36,-61.656 204.892,-55.3743 199.112,-51.4249"/>
</g>
<!-- Node15 -->
<g id="node6" class="node"><title>Node15</title>
<polygon fill="none" stroke="#bfbfbf" points="309.5,-79 238.5,-79 238.5,-62 309.5,-62 309.5,-79"/>
<text text-anchor="middle" x="274" y="-68.6" font-family="Helvetica,sans-Serif" font-size="8.00">Undocumented</text>
</g>
<!-- Node15&#45;&gt;Node9 -->
<g id="edge5" class="edge"><title>Node15&#45;&gt;Node9</title>
<path fill="none" stroke="midnightblue" d="M262.591,-53.2021C254.384,-41.4765 243.686,-26.1941 237.359,-17.1562"/>
<polygon fill="midnightblue" stroke="midnightblue" points="259.907,-55.4708 268.509,-61.656 265.642,-51.4566 259.907,-55.4708"/>
</g>
<!-- Node16 -->
<g id="node7" class="node"><title>Node16</title>
<g id="a_node7"><a xlink:href="$classTempl.html" xlink:title="Templ&lt; int &gt;">
<polygon fill="none" stroke="black" points="388.5,-79 327.5,-79 327.5,-62 388.5,-62 388.5,-79"/>
<text text-anchor="middle" x="358" y="-68.6" font-family="Helvetica,sans-Serif" font-size="8.00">Templ&lt; int &gt;</text>
</a>
</g>
</g>
<!-- Node16&#45;&gt;Node9 -->
<g id="edge6" class="edge"><title>Node16&#45;&gt;Node9</title>
<path fill="none" stroke="midnightblue" d="M332.702,-57.4532C307.364,-45.3878 269.157,-27.1937 247.828,-17.0373"/>
<polygon fill="midnightblue" stroke="midnightblue" points="331.509,-60.7616 342.042,-61.901 334.518,-54.4416 331.509,-60.7616"/>
</g>
<!-- Node17 -->
<g id="node8" class="node"><title>Node17</title>
<g id="a_node8"><a xlink:href="$classTempl.html" xlink:title="Templ&lt; T &gt;">
<polygon fill="none" stroke="black" points="387,-141 329,-141 329,-124 387,-124 387,-141"/>
<text text-anchor="middle" x="358" y="-130.6" font-family="Helvetica,sans-Serif" font-size="8.00">Templ&lt; T &gt;</text>
</a>
</g>
</g>
<!-- Node17&#45;&gt;Node16 -->
<g id="edge7" class="edge"><title>Node17&#45;&gt;Node16</title>
<path fill="none" stroke="orange" stroke-dasharray="5,2" d="M358,-113.436C358,-101.979 358,-87.7467 358,-79.1562"/>
<polygon fill="orange" stroke="orange" points="354.5,-113.656 358,-123.656 361.5,-113.656 354.5,-113.656"/>
<text text-anchor="middle" x="369" y="-99.6" font-family="Helvetica,sans-Serif" font-size="8.00">&lt; int &gt;</text>
</g>
<!-- Node18 -->
<g id="node9" class="node"><title>Node18</title>
<g id="a_node9"><a xlink:href="$classUsed.html" xlink:title="Used">
<polygon fill="none" stroke="black" points="441.5,-79 406.5,-79 406.5,-62 441.5,-62 441.5,-79"/>
<text text-anchor="middle" x="424" y="-68.6" font-family="Helvetica,sans-Serif" font-size="8.00">Used</text>
</a>
</g>
</g>
<!-- Node18&#45;&gt;Node9 -->
<g id="edge8" class="edge"><title>Node18&#45;&gt;Node9</title>
<path fill="none" stroke="#9a32cd" stroke-dasharray="5,2" d="M396.501,-60.9067C358.898,-49.1557 292.027,-28.2584 256.22,-17.0686"/>
<polygon fill="#9a32cd" stroke="#9a32cd" points="395.692,-64.3208 406.281,-63.9629 397.78,-57.6394 395.692,-64.3208"/>
<text text-anchor="middle" x="364.5" y="-37.6" font-family="Helvetica,sans-Serif" font-size="8.00">m_usedClass</text>
</g>
</g>
</svg>
