<?xml version="1.0" encoding="UTF-8" standalone="no"?>
<!DOCTYPE svg PUBLIC "-//W3C//DTD SVG 1.1//EN"
 "http://www.w3.org/Graphics/SVG/1.1/DTD/svg11.dtd">
<!-- Generated by graphviz version 2.38.0 (20140413.2041)
 -->
<!-- Title: Graphical Class Hierarchy Pages: 1 -->
<svg width="279pt" height="117pt"
 viewBox="0.00 0.00 279.00 117.00" xmlns="http://www.w3.org/2000/svg" xmlns:xlink="http://www.w3.org/1999/xlink">
<g id="graph0" class="graph" transform="scale(1 1) rotate(0) translate(4 113)">
<title>Graphical Class Hierarchy</title>
<polygon fill="white" stroke="none" points="-4,4 -4,-113 275,-113 275,4 -4,4"/>
<!-- Node1 -->
<g id="node1" class="node"><title>Node1</title>
<polygon fill="white" stroke="#bfbfbf" points="19.5,-46 19.5,-63 102.5,-63 102.5,-46 19.5,-46"/>
<text text-anchor="middle" x="61" y="-52.6" font-family="Helvetica,sans-Serif" font-size="8.00">AppCompatActivity</text>
</g>
<!-- Node2 -->
<g id="node2" class="node"><title>Node2</title>
<g id="a_node2"><a xlink:href="a00015.html" target="_top" xlink:title="Class representing the Activity that is launched at app startup. ">
<polygon fill="white" stroke="black" points="158,-66 158,-83 271,-83 271,-66 158,-66"/>
<text text-anchor="middle" x="214.5" y="-72.6" font-family="Helvetica,sans-Serif" font-size="8.00">project.android.MainActivity</text>
</a>
</g>
</g>
<!-- Node1&#45;&gt;Node2 -->
<g id="edge1" class="edge"><title>Node1&#45;&gt;Node2</title>
<path fill="none" stroke="midnightblue" d="M112.875,-61.2161C127.366,-63.1292 143.224,-65.2227 157.977,-67.1703"/>
<polygon fill="midnightblue" stroke="midnightblue" points="112.971,-57.6986 102.599,-59.8596 112.055,-64.6384 112.971,-57.6986"/>
</g>
<!-- Node3 -->
<g id="node3" class="node"><title>Node3</title>
<g id="a_node3"><a xlink:href="a00023.html" target="_top" xlink:title="Class representing the Activity for app settings. ">
<polygon fill="white" stroke="black" points="164,-10.5 164,-36.5 265,-36.5 265,-10.5 164,-10.5"/>
<text text-anchor="start" x="172" y="-26.1" font-family="Helvetica,sans-Serif" font-size="8.00">project.android.Settings</text>
<text text-anchor="middle" x="214.5" y="-17.1" font-family="Helvetica,sans-Serif" font-size="8.00">Activity</text>
</a>
</g>
</g>
<!-- Node1&#45;&gt;Node3 -->
<g id="edge2" class="edge"><title>Node1&#45;&gt;Node3</title>
<path fill="none" stroke="midnightblue" d="M112.614,-44.1434C129.123,-40.7653 147.429,-37.0195 163.865,-33.6563"/>
<polygon fill="midnightblue" stroke="midnightblue" points="111.695,-40.7589 102.599,-46.1926 113.098,-47.6168 111.695,-40.7589"/>
</g>
<!-- Node4 -->
<g id="node4" class="node"><title>Node4</title>
<polygon fill="white" stroke="#bfbfbf" points="5.5,-82.5 5.5,-108.5 116.5,-108.5 116.5,-82.5 5.5,-82.5"/>
<text text-anchor="start" x="13.5" y="-98.1" font-family="Helvetica,sans-Serif" font-size="8.00">OnNavigationItemSelected</text>
<text text-anchor="middle" x="61" y="-89.1" font-family="Helvetica,sans-Serif" font-size="8.00">Listener</text>
</g>
<!-- Node4&#45;&gt;Node2 -->
<g id="edge3" class="edge"><title>Node4&#45;&gt;Node2</title>
<path fill="none" stroke="midnightblue" d="M126.888,-86.5056C137.202,-85.0759 147.79,-83.6083 157.867,-82.2115"/>
<polygon fill="midnightblue" stroke="midnightblue" points="126.12,-83.0786 116.695,-87.9185 127.081,-90.0123 126.12,-83.0786"/>
</g>
<!-- Node5 -->
<g id="node5" class="node"><title>Node5</title>
<polygon fill="white" stroke="#bfbfbf" points="0,-0.5 0,-26.5 122,-26.5 122,-0.5 0,-0.5"/>
<text text-anchor="start" x="8" y="-16.1" font-family="Helvetica,sans-Serif" font-size="8.00">OnSharedPreferenceChange</text>
<text text-anchor="middle" x="61" y="-7.1" font-family="Helvetica,sans-Serif" font-size="8.00">Listener</text>
</g>
<!-- Node5&#45;&gt;Node3 -->
<g id="edge4" class="edge"><title>Node5&#45;&gt;Node3</title>
<path fill="none" stroke="midnightblue" d="M132.361,-18.1443C142.915,-18.841 153.61,-19.5469 163.619,-20.2076"/>
<polygon fill="midnightblue" stroke="midnightblue" points="132.521,-14.6473 122.312,-17.481 132.06,-21.6321 132.521,-14.6473"/>
</g>
</g>
</svg>
