<?xml version="1.0" encoding="UTF-8" standalone="no"?>
<!DOCTYPE svg PUBLIC "-//W3C//DTD SVG 1.1//EN"
 "http://www.w3.org/Graphics/SVG/1.1/DTD/svg11.dtd">
<!-- Generated by graphviz version 2.38.0 (20140413.2041)
 -->
<!-- Title: Graphical Class Hierarchy Pages: 1 -->
<svg width="217pt" height="125pt"
 viewBox="0.00 0.00 217.00 125.00" xmlns="http://www.w3.org/2000/svg" xmlns:xlink="http://www.w3.org/1999/xlink">
<g id="graph0" class="graph" transform="scale(1 1) rotate(0) translate(4 121)">
<title>Graphical Class Hierarchy</title>
<polygon fill="white" stroke="none" points="-4,4 -4,-121 213,-121 213,4 -4,4"/>
<!-- Node1 -->
<g id="node1" class="node"><title>Node1</title>
<polygon fill="white" stroke="#bfbfbf" points="0,-50 0,-67 51,-67 51,-50 0,-50"/>
<text text-anchor="middle" x="25.5" y="-56.6" font-family="Helvetica,sans-Serif" font-size="8.00">Runnable</text>
</g>
<!-- Node2 -->
<g id="node2" class="node"><title>Node2</title>
<g id="a_node2"><a xlink:href="a00002.html" target="_top" xlink:title="Class representing the server broadcast receiver module. ">
<polygon fill="white" stroke="black" points="87,-90.5 87,-116.5 209,-116.5 209,-90.5 87,-90.5"/>
<text text-anchor="start" x="95" y="-106.1" font-family="Helvetica,sans-Serif" font-size="8.00">project.android.net.Broadcast</text>
<text text-anchor="middle" x="148" y="-97.1" font-family="Helvetica,sans-Serif" font-size="8.00">ReceiverThread</text>
</a>
</g>
</g>
<!-- Node1&#45;&gt;Node2 -->
<g id="edge1" class="edge"><title>Node1&#45;&gt;Node2</title>
<path fill="none" stroke="midnightblue" d="M58.4603,-70.7312C67.6639,-74.2314 77.7231,-78.036 87,-81.5 94.7954,-84.4108 103.173,-87.5043 111.123,-90.4237"/>
<polygon fill="midnightblue" stroke="midnightblue" points="59.4776,-67.3733 48.8867,-67.083 56.9849,-73.9145 59.4776,-67.3733"/>
</g>
<!-- Node3 -->
<g id="node3" class="node"><title>Node3</title>
<g id="a_node3"><a xlink:href="a00005.html" target="_top" xlink:title="Class representing the client&#45;server interaction module. ">
<polygon fill="white" stroke="black" points="95,-45.5 95,-71.5 201,-71.5 201,-45.5 95,-45.5"/>
<text text-anchor="start" x="103" y="-61.1" font-family="Helvetica,sans-Serif" font-size="8.00">project.android.net.Client</text>
<text text-anchor="middle" x="148" y="-52.1" font-family="Helvetica,sans-Serif" font-size="8.00">IOThread</text>
</a>
</g>
</g>
<!-- Node1&#45;&gt;Node3 -->
<g id="edge2" class="edge"><title>Node1&#45;&gt;Node3</title>
<path fill="none" stroke="midnightblue" d="M61.44,-58.5C71.7747,-58.5 83.3237,-58.5 94.5098,-58.5"/>
<polygon fill="midnightblue" stroke="midnightblue" points="61.1758,-55.0001 51.1757,-58.5 61.1757,-62.0001 61.1758,-55.0001"/>
</g>
<!-- Node4 -->
<g id="node4" class="node"><title>Node4</title>
<g id="a_node4"><a xlink:href="a00013.html" target="_top" xlink:title="Created by sudipto on 23/3/17. ">
<polygon fill="white" stroke="black" points="88,-0.5 88,-26.5 208,-26.5 208,-0.5 88,-0.5"/>
<text text-anchor="start" x="96" y="-16.1" font-family="Helvetica,sans-Serif" font-size="8.00">project.android.net.Keyboard</text>
<text text-anchor="middle" x="148" y="-7.1" font-family="Helvetica,sans-Serif" font-size="8.00">Thread</text>
</a>
</g>
</g>
<!-- Node1&#45;&gt;Node4 -->
<g id="edge3" class="edge"><title>Node1&#45;&gt;Node4</title>
<path fill="none" stroke="midnightblue" d="M59.0959,-46.3273C75.4,-40.2386 95.1545,-32.8614 111.803,-26.6439"/>
<polygon fill="midnightblue" stroke="midnightblue" points="57.5924,-43.1526 49.4488,-49.9299 60.0413,-49.7102 57.5924,-43.1526"/>
</g>
</g>
</svg>
