<?xml version="1.0" encoding="UTF-8" standalone="no"?>
<!DOCTYPE svg PUBLIC "-//W3C//DTD SVG 1.1//EN"
 "http://www.w3.org/Graphics/SVG/1.1/DTD/svg11.dtd">
<!-- Generated by graphviz version 2.38.0 (20140413.2041)
 -->
<!-- Title: Graphical Class Hierarchy Pages: 1 -->
<svg width="447pt" height="35pt"
 viewBox="0.00 0.00 447.00 35.00" xmlns="http://www.w3.org/2000/svg" xmlns:xlink="http://www.w3.org/1999/xlink">
<g id="graph0" class="graph" transform="scale(1 1) rotate(0) translate(4 31)">
<title>Graphical Class Hierarchy</title>
<polygon fill="white" stroke="none" points="-4,4 -4,-31 443,-31 443,4 -4,4"/>
<!-- Node1 -->
<g id="node1" class="node"><title>Node1</title>
<polygon fill="white" stroke="#bfbfbf" points="0,-5 0,-22 91,-22 91,-5 0,-5"/>
<text text-anchor="middle" x="45.5" y="-11.6" font-family="Helvetica,sans-Serif" font-size="8.00">SensorEventListener</text>
</g>
<!-- Node2 -->
<g id="node2" class="node"><title>Node2</title>
<g id="a_node2"><a xlink:href="a00020.html" target="_top" xlink:title="Classes implementing this interface provide an orientation of the device either by directly accessing...">
<polygon fill="white" stroke="black" points="127,-0.5 127,-26.5 265,-26.5 265,-0.5 127,-0.5"/>
<text text-anchor="start" x="135" y="-16.1" font-family="Helvetica,sans-Serif" font-size="8.00">project.android.sensor.orientation.</text>
<text text-anchor="middle" x="196" y="-7.1" font-family="Helvetica,sans-Serif" font-size="8.00">OrientationProvider</text>
</a>
</g>
</g>
<!-- Node1&#45;&gt;Node2 -->
<g id="edge1" class="edge"><title>Node1&#45;&gt;Node2</title>
<path fill="none" stroke="midnightblue" d="M101.077,-13.5C109.466,-13.5 118.216,-13.5 126.855,-13.5"/>
<polygon fill="midnightblue" stroke="midnightblue" points="101.055,-10.0001 91.0549,-13.5 101.055,-17.0001 101.055,-10.0001"/>
</g>
<!-- Node3 -->
<g id="node3" class="node"><title>Node3</title>
<g id="a_node3"><a xlink:href="a00011.html" target="_top" xlink:title="KalmanFilterProvider that delivers the relative orientation from the Gyroscope. ">
<polygon fill="white" stroke="black" points="301,-0.5 301,-26.5 439,-26.5 439,-0.5 301,-0.5"/>
<text text-anchor="start" x="309" y="-16.1" font-family="Helvetica,sans-Serif" font-size="8.00">project.android.sensor.orientation.</text>
<text text-anchor="middle" x="370" y="-7.1" font-family="Helvetica,sans-Serif" font-size="8.00">KalmanFilterProvider</text>
</a>
</g>
</g>
<!-- Node2&#45;&gt;Node3 -->
<g id="edge2" class="edge"><title>Node2&#45;&gt;Node3</title>
<path fill="none" stroke="midnightblue" d="M275.637,-13.5C284.025,-13.5 292.508,-13.5 300.762,-13.5"/>
<polygon fill="midnightblue" stroke="midnightblue" points="275.473,-10.0001 265.473,-13.5 275.473,-17.0001 275.473,-10.0001"/>
</g>
</g>
</svg>
