<?xml version="1.0" encoding="UTF-8" standalone="no"?>
<!DOCTYPE svg PUBLIC "-//W3C//DTD SVG 1.1//EN"
 "http://www.w3.org/Graphics/SVG/1.1/DTD/svg11.dtd">
<!-- Generated by graphviz version 2.38.0 (20140413.2041)
 -->
<!-- Title: Graphical Class Hierarchy Pages: 1 -->
<svg width="291pt" height="230pt"
 viewBox="0.00 0.00 291.00 229.50" xmlns="http://www.w3.org/2000/svg" xmlns:xlink="http://www.w3.org/1999/xlink">
<g id="graph0" class="graph" transform="scale(1 1) rotate(0) translate(4 225.5)">
<title>Graphical Class Hierarchy</title>
<polygon fill="white" stroke="none" points="-4,4 -4,-225.5 287,-225.5 287,4 -4,4"/>
<!-- Node1 -->
<g id="node1" class="node"><title>Node1</title>
<polygon fill="white" stroke="#bfbfbf" points="32,-82 32,-99 84,-99 84,-82 32,-82"/>
<text text-anchor="middle" x="58" y="-88.6" font-family="Helvetica,sans-Serif" font-size="8.00">Fragment</text>
</g>
<!-- Node2 -->
<g id="node2" class="node"><title>Node2</title>
<g id="a_node2"><a xlink:href="a00001.html" target="_top" xlink:title="Class representing the Fragment for displaying app information. ">
<polygon fill="white" stroke="black" points="153.5,-82 153.5,-99 281.5,-99 281.5,-82 153.5,-82"/>
<text text-anchor="middle" x="217.5" y="-88.6" font-family="Helvetica,sans-Serif" font-size="8.00">project.android.AboutFragment</text>
</a>
</g>
</g>
<!-- Node1&#45;&gt;Node2 -->
<g id="edge1" class="edge"><title>Node1&#45;&gt;Node2</title>
<path fill="none" stroke="midnightblue" d="M94.5198,-90.5C111.842,-90.5 133.209,-90.5 153.194,-90.5"/>
<polygon fill="midnightblue" stroke="midnightblue" points="94.3051,-87.0001 84.3051,-90.5 94.3051,-94.0001 94.3051,-87.0001"/>
</g>
<!-- Node3 -->
<g id="node3" class="node"><title>Node3</title>
<g id="a_node3"><a xlink:href="a00006.html" target="_top" xlink:title="Class representing the Fragment that provides GUI frontend for the network module. ">
<polygon fill="white" stroke="black" points="161,-118.5 161,-144.5 274,-144.5 274,-118.5 161,-118.5"/>
<text text-anchor="start" x="169" y="-134.1" font-family="Helvetica,sans-Serif" font-size="8.00">project.android.Connection</text>
<text text-anchor="middle" x="217.5" y="-125.1" font-family="Helvetica,sans-Serif" font-size="8.00">Fragment</text>
</a>
</g>
</g>
<!-- Node1&#45;&gt;Node3 -->
<g id="edge2" class="edge"><title>Node1&#45;&gt;Node3</title>
<path fill="none" stroke="midnightblue" d="M94.2086,-99.6654C115.485,-105.204 142.946,-112.352 166.453,-118.472"/>
<polygon fill="midnightblue" stroke="midnightblue" points="94.8643,-96.2195 84.3051,-97.0874 93.1008,-102.994 94.8643,-96.2195"/>
</g>
<!-- Node4 -->
<g id="node4" class="node"><title>Node4</title>
<g id="a_node4"><a xlink:href="a00012.html" target="_top" xlink:title="Class representing the Fragment for providing the GUI frontend for the keyboard module. ">
<polygon fill="white" stroke="black" points="164,-163.5 164,-189.5 271,-189.5 271,-163.5 164,-163.5"/>
<text text-anchor="start" x="172" y="-179.1" font-family="Helvetica,sans-Serif" font-size="8.00">project.android.Keyboard</text>
<text text-anchor="middle" x="217.5" y="-170.1" font-family="Helvetica,sans-Serif" font-size="8.00">Fragment</text>
</a>
</g>
</g>
<!-- Node1&#45;&gt;Node4 -->
<g id="edge3" class="edge"><title>Node1&#45;&gt;Node4</title>
<path fill="none" stroke="midnightblue" d="M85.2506,-103.812C95.1536,-109.198 106.351,-115.738 116,-122.5 133.292,-134.617 133.747,-142.886 152,-153.5 158.475,-157.265 165.669,-160.57 172.836,-163.413"/>
<polygon fill="midnightblue" stroke="midnightblue" points="86.7191,-100.629 76.2453,-99.0314 83.4369,-106.812 86.7191,-100.629"/>
</g>
<!-- Node5 -->
<g id="node5" class="node"><title>Node5</title>
<g id="a_node5"><a xlink:href="a00018.html" target="_top" xlink:title="Class representing the Fragment for providing the GUI frontend for the 3D mouse module. ">
<polygon fill="white" stroke="black" points="152,-46 152,-63 283,-63 283,-46 152,-46"/>
<text text-anchor="middle" x="217.5" y="-52.6" font-family="Helvetica,sans-Serif" font-size="8.00">project.android.MouseFragment</text>
</a>
</g>
</g>
<!-- Node1&#45;&gt;Node5 -->
<g id="edge4" class="edge"><title>Node1&#45;&gt;Node5</title>
<path fill="none" stroke="midnightblue" d="M94.2098,-82.4521C119.482,-76.6755 153.48,-68.9046 179.214,-63.0226"/>
<polygon fill="midnightblue" stroke="midnightblue" points="93.2738,-79.0756 84.3051,-84.716 94.8336,-85.8997 93.2738,-79.0756"/>
</g>
<!-- Node6 -->
<g id="node6" class="node"><title>Node6</title>
<g id="a_node6"><a xlink:href="a00025.html" target="_top" xlink:title="Class representing the Fragment for providing the GUI frontend for the 2D mouse module. ">
<polygon fill="white" stroke="black" points="163.5,-0.5 163.5,-26.5 271.5,-26.5 271.5,-0.5 163.5,-0.5"/>
<text text-anchor="start" x="171.5" y="-16.1" font-family="Helvetica,sans-Serif" font-size="8.00">project.android.Touchpad</text>
<text text-anchor="middle" x="217.5" y="-7.1" font-family="Helvetica,sans-Serif" font-size="8.00">Fragment</text>
</a>
</g>
</g>
<!-- Node1&#45;&gt;Node6 -->
<g id="edge5" class="edge"><title>Node1&#45;&gt;Node6</title>
<path fill="none" stroke="midnightblue" d="M93.9759,-82.3667C101.539,-79.8242 109.277,-76.5817 116,-72.5 135.342,-60.7572 132.877,-48.5953 152,-36.5 158.029,-32.687 164.774,-29.398 171.57,-26.5967"/>
<polygon fill="midnightblue" stroke="midnightblue" points="92.7905,-79.0687 84.2347,-85.3176 94.8199,-85.768 92.7905,-79.0687"/>
</g>
<!-- Node7 -->
<g id="node7" class="node"><title>Node7</title>
<polygon fill="white" stroke="#bfbfbf" points="27,-132 27,-149 89,-149 89,-132 27,-132"/>
<text text-anchor="middle" x="58" y="-138.6" font-family="Helvetica,sans-Serif" font-size="8.00">TextWatcher</text>
</g>
<!-- Node7&#45;&gt;Node4 -->
<g id="edge6" class="edge"><title>Node7&#45;&gt;Node4</title>
<path fill="none" stroke="midnightblue" d="M99.2244,-149.694C118.886,-154.188 142.799,-159.654 163.891,-164.475"/>
<polygon fill="midnightblue" stroke="midnightblue" points="99.8961,-146.257 89.3676,-147.441 98.3363,-153.081 99.8961,-146.257"/>
</g>
<!-- Node8 -->
<g id="node8" class="node"><title>Node8</title>
<polygon fill="white" stroke="#bfbfbf" points="0,-204 0,-221 116,-221 116,-204 0,-204"/>
<text text-anchor="middle" x="58" y="-210.6" font-family="Helvetica,sans-Serif" font-size="8.00">OnCheckedChangeListener</text>
</g>
<!-- Node8&#45;&gt;Node4 -->
<g id="edge7" class="edge"><title>Node8&#45;&gt;Node4</title>
<path fill="none" stroke="midnightblue" d="M106.132,-201.727C124.342,-197.565 145.257,-192.784 163.949,-188.512"/>
<polygon fill="midnightblue" stroke="midnightblue" points="105.294,-198.328 96.3253,-203.969 106.854,-205.152 105.294,-198.328"/>
</g>
<!-- Node9 -->
<g id="node9" class="node"><title>Node9</title>
<polygon fill="white" stroke="#bfbfbf" points="22,-46 22,-63 94,-63 94,-46 22,-46"/>
<text text-anchor="middle" x="58" y="-52.6" font-family="Helvetica,sans-Serif" font-size="8.00">OnClickListener</text>
</g>
<!-- Node9&#45;&gt;Node4 -->
<g id="edge8" class="edge"><title>Node9&#45;&gt;Node4</title>
<path fill="none" stroke="midnightblue" d="M103.526,-64.335C108.05,-66.5304 112.324,-69.2156 116,-72.5 145.377,-98.7489 123.109,-126.717 152,-153.5 156.272,-157.46 161.272,-160.747 166.564,-163.473"/>
<polygon fill="midnightblue" stroke="midnightblue" points="104.584,-60.9874 94.0015,-60.4816 101.959,-67.4765 104.584,-60.9874"/>
</g>
<!-- Node9&#45;&gt;Node5 -->
<g id="edge9" class="edge"><title>Node9&#45;&gt;Node5</title>
<path fill="none" stroke="midnightblue" d="M104.693,-54.5C119.411,-54.5 136.011,-54.5 151.829,-54.5"/>
<polygon fill="midnightblue" stroke="midnightblue" points="104.346,-51.0001 94.3461,-54.5 104.346,-58.0001 104.346,-51.0001"/>
</g>
<!-- Node9&#45;&gt;Node6 -->
<g id="edge10" class="edge"><title>Node9&#45;&gt;Node6</title>
<path fill="none" stroke="midnightblue" d="M101.769,-43.3664C121.742,-38.1672 145.648,-31.9441 166.456,-26.5274"/>
<polygon fill="midnightblue" stroke="midnightblue" points="100.813,-39.9986 92.0172,-45.9051 102.576,-46.7729 100.813,-39.9986"/>
</g>
<!-- Node10 -->
<g id="node10" class="node"><title>Node10</title>
<polygon fill="white" stroke="#bfbfbf" points="23.5,-168 23.5,-185 92.5,-185 92.5,-168 23.5,-168"/>
<text text-anchor="middle" x="58" y="-174.6" font-family="Helvetica,sans-Serif" font-size="8.00">OnKeyListener</text>
</g>
<!-- Node10&#45;&gt;Node4 -->
<g id="edge11" class="edge"><title>Node10&#45;&gt;Node4</title>
<path fill="none" stroke="midnightblue" d="M102.91,-176.5C121.818,-176.5 144.082,-176.5 163.866,-176.5"/>
<polygon fill="midnightblue" stroke="midnightblue" points="102.788,-173 92.7877,-176.5 102.788,-180 102.788,-173"/>
</g>
<!-- Node11 -->
<g id="node11" class="node"><title>Node11</title>
<polygon fill="white" stroke="#bfbfbf" points="19,-7 19,-24 97,-24 97,-7 19,-7"/>
<text text-anchor="middle" x="58" y="-13.6" font-family="Helvetica,sans-Serif" font-size="8.00">OnTouchListener</text>
</g>
<!-- Node11&#45;&gt;Node5 -->
<g id="edge12" class="edge"><title>Node11&#45;&gt;Node5</title>
<path fill="none" stroke="midnightblue" d="M103.496,-26.518C128.389,-32.682 158.954,-40.2505 182.017,-45.9612"/>
<polygon fill="midnightblue" stroke="midnightblue" points="104.112,-23.065 93.564,-24.0587 102.43,-29.8598 104.112,-23.065"/>
</g>
<!-- Node11&#45;&gt;Node6 -->
<g id="edge13" class="edge"><title>Node11&#45;&gt;Node6</title>
<path fill="none" stroke="midnightblue" d="M107.244,-14.8874C124.963,-14.6624 145.119,-14.4064 163.253,-14.1762"/>
<polygon fill="midnightblue" stroke="midnightblue" points="107.081,-11.3891 97.1264,-15.0159 107.17,-18.3885 107.081,-11.3891"/>
</g>
</g>
</svg>
