<?xml version="1.0" encoding="UTF-8" standalone="no"?>
<!DOCTYPE svg PUBLIC "-//W3C//DTD SVG 1.1//EN"
 "http://www.w3.org/Graphics/SVG/1.1/DTD/svg11.dtd">
<!-- Generated by graphviz version 2.38.0 (20140413.2041)
 -->
<!-- Title: project.android.CustomAdapter.getCount Pages: 1 -->
<!--zoomable 270 -->
<svg id="main" version="1.1" xmlns="http://www.w3.org/2000/svg" xmlns:xlink="http://www.w3.org/1999/xlink" xml:space="preserve" onload="init(evt)">
<style type="text/css"><![CDATA[
.edge:hover path { stroke: red; }
.edge:hover polygon { stroke: red; fill: red; }
]]></style>
<script type="text/javascript"><![CDATA[
var edges = document.getElementsByTagName('g');
if (edges && edges.length) {
  for (var i=0;i<edges.length;i++) {
    if (edges[i].id.substr(0,4)=='edge') {
      edges[i].setAttribute('class','edge');
    }
  }
}
]]></script>
        <defs>
                <circle id="rim" cx="0" cy="0" r="7"/>
                <circle id="rim2" cx="0" cy="0" r="3.5"/>
                <g id="zoomPlus">
                        <use xlink:href="#rim" fill="#404040">
                                <set attributeName="fill" to="#808080" begin="zoomplus.mouseover" end="zoomplus.mouseout"/>
                        </use>
                        <path d="M-4,0h8M0,-4v8" fill="none" stroke="white" stroke-width="1.5" pointer-events="none"/>
                </g>
                <g id="zoomMin">
                        <use xlink:href="#rim" fill="#404040">
                                <set attributeName="fill" to="#808080" begin="zoomminus.mouseover" end="zoomminus.mouseout"/>
                        </use>
                        <path d="M-4,0h8" fill="none" stroke="white" stroke-width="1.5" pointer-events="none"/>
                </g>
                <g id="dirArrow">
                        <path fill="none" stroke="white" stroke-width="1.5" d="M0,-3.0v7 M-2.5,-0.5L0,-3.0L2.5,-0.5"/>
                </g>
               <g id="resetDef">
                       <use xlink:href="#rim2" fill="#404040">
                               <set attributeName="fill" to="#808080" begin="reset.mouseover" end="reset.mouseout"/>
                       </use>
               </g>
        </defs>

<script type="text/javascript">
var viewWidth = 981;
var viewHeight = 270;
var sectionId = 'dynsection-2';
</script>
<script xlink:href="../../svgpan.js"/>
<svg id="graph" class="graph">
<g id="viewport">
<title>project.android.CustomAdapter.getCount</title>
<polygon fill="white" stroke="none" points="-4,4 -4,-266.487 977,-266.487 977,4 -4,4"/>
<!-- Node3 -->
<g id="node1" class="node"><title>Node3</title>
<polygon fill="#bfbfbf" stroke="black" points="0,-126.5 0,-152.5 142,-152.5 142,-126.5 0,-126.5"/>
<text text-anchor="start" x="8" y="-142.1" font-family="Helvetica,sans-Serif" font-size="8.00">project.android.CustomAdapter.get</text>
<text text-anchor="middle" x="71" y="-133.1" font-family="Helvetica,sans-Serif" font-size="8.00">Count</text>
</g>
<!-- Node4 -->
<g id="node2" class="node"><title>Node4</title>
<g id="a_node2"><a xlink:href="../../d9/d38/a00166.html#aee2a392b8b0500023dba15b60d3315d2" target="_top" xlink:title="Returns a list of ServerInfo objects. ">
<polygon fill="white" stroke="black" points="178,-126.5 178,-152.5 291,-152.5 291,-126.5 178,-126.5"/>
<text text-anchor="start" x="186" y="-142.1" font-family="Helvetica,sans-Serif" font-size="8.00">project.android.Connection</text>
<text text-anchor="middle" x="234.5" y="-133.1" font-family="Helvetica,sans-Serif" font-size="8.00">Fragment.getNetworkList</text>
</a>
</g>
</g>
<!-- Node3&#45;&gt;Node4 -->
<g id="edge1" class="edge"><title>Node3&#45;&gt;Node4</title>
<path fill="none" stroke="midnightblue" d="M142.366,-139.5C150.827,-139.5 159.442,-139.5 167.831,-139.5"/>
<polygon fill="midnightblue" stroke="midnightblue" points="167.928,-143 177.928,-139.5 167.928,-136 167.928,-143"/>
</g>
<!-- Node5 -->
<g id="node3" class="node"><title>Node5</title>
<g id="a_node3"><a xlink:href="../../d9/d38/a00166.html#a5ae4f9d7872792288afb3de65ab4c2b0" target="_top" xlink:title="Sets an icon for an inactive server. ">
<polygon fill="white" stroke="black" points="333.5,-104.5 333.5,-130.5 446.5,-130.5 446.5,-104.5 333.5,-104.5"/>
<text text-anchor="start" x="341.5" y="-120.1" font-family="Helvetica,sans-Serif" font-size="8.00">project.android.Connection</text>
<text text-anchor="middle" x="390" y="-111.1" font-family="Helvetica,sans-Serif" font-size="8.00">Fragment.resetIcon</text>
</a>
</g>
</g>
<!-- Node4&#45;&gt;Node5 -->
<g id="edge2" class="edge"><title>Node4&#45;&gt;Node5</title>
<path fill="none" stroke="midnightblue" d="M291.351,-131.495C301.745,-130.006 312.692,-128.437 323.348,-126.909"/>
<polygon fill="midnightblue" stroke="midnightblue" points="324.045,-130.345 333.447,-125.462 323.052,-123.416 324.045,-130.345"/>
</g>
<!-- Node9 -->
<g id="node7" class="node"><title>Node9</title>
<g id="a_node7"><a xlink:href="../../d0/d24/a00222.html#a914c65a49cf5940901d475693ee8e205" target="_top" xlink:title="Returns the IPv4 address of the server. ">
<polygon fill="white" stroke="black" points="863,-229.5 863,-255.5 973,-255.5 973,-229.5 863,-229.5"/>
<text text-anchor="start" x="871" y="-245.1" font-family="Helvetica,sans-Serif" font-size="8.00">project.android.net.Server</text>
<text text-anchor="middle" x="918" y="-236.1" font-family="Helvetica,sans-Serif" font-size="8.00">Info.getAddress</text>
</a>
</g>
</g>
<!-- Node4&#45;&gt;Node9 -->
<g id="edge8" class="edge"><title>Node4&#45;&gt;Node9</title>
<path fill="none" stroke="midnightblue" d="M247.661,-152.575C263.94,-169.107 294.549,-196.927 327,-209.5 506.966,-279.225 741.049,-264.293 852.523,-251.475"/>
<polygon fill="midnightblue" stroke="midnightblue" points="853.08,-254.933 862.6,-250.283 852.258,-247.982 853.08,-254.933"/>
</g>
<!-- Node10 -->
<g id="node8" class="node"><title>Node10</title>
<g id="a_node8"><a xlink:href="../../d0/d24/a00222.html#a19b6bb0a1264932dfc136820ec21620f" target="_top" xlink:title="Sets the pairing key used during client&#45;server authentication. ">
<polygon fill="white" stroke="black" points="335,-149.5 335,-175.5 445,-175.5 445,-149.5 335,-149.5"/>
<text text-anchor="start" x="343" y="-165.1" font-family="Helvetica,sans-Serif" font-size="8.00">project.android.net.Server</text>
<text text-anchor="middle" x="390" y="-156.1" font-family="Helvetica,sans-Serif" font-size="8.00">Info.setPairingKey</text>
</a>
</g>
</g>
<!-- Node4&#45;&gt;Node10 -->
<g id="edge9" class="edge"><title>Node4&#45;&gt;Node10</title>
<path fill="none" stroke="midnightblue" d="M291.351,-147.869C302.246,-149.501 313.749,-151.225 324.887,-152.893"/>
<polygon fill="midnightblue" stroke="midnightblue" points="324.576,-156.386 334.985,-154.406 325.614,-149.463 324.576,-156.386"/>
</g>
<!-- Node11 -->
<g id="node9" class="node"><title>Node11</title>
<g id="a_node9"><a xlink:href="../../dc/d57/a00194.html#aa23e2b087d09db0524a34b73cd5e07d3" target="_top" xlink:title="Sends a stop signal if the user disconnects the server. ">
<polygon fill="white" stroke="black" points="327.5,-22.5 327.5,-48.5 452.5,-48.5 452.5,-22.5 327.5,-22.5"/>
<text text-anchor="start" x="335.5" y="-38.1" font-family="Helvetica,sans-Serif" font-size="8.00">project.android.net.Client.send</text>
<text text-anchor="middle" x="390" y="-29.1" font-family="Helvetica,sans-Serif" font-size="8.00">StopSignal</text>
</a>
</g>
</g>
<!-- Node4&#45;&gt;Node11 -->
<g id="edge10" class="edge"><title>Node4&#45;&gt;Node11</title>
<path fill="none" stroke="midnightblue" d="M247.339,-126.337C263.735,-108.782 294.972,-77.6949 327,-58.5 330.447,-56.4344 334.11,-54.5036 337.866,-52.7095"/>
<polygon fill="midnightblue" stroke="midnightblue" points="339.59,-55.7744 347.323,-48.5323 336.761,-49.3712 339.59,-55.7744"/>
</g>
<!-- Node15 -->
<g id="node13" class="node"><title>Node15</title>
<g id="a_node13"><a xlink:href="../../dc/d57/a00194.html#a2f8cb3f32f139e5c370c8b74f539368a" target="_top" xlink:title="Closes the client socket. ">
<polygon fill="white" stroke="black" points="327,-68 327,-85 453,-85 453,-68 327,-68"/>
<text text-anchor="middle" x="390" y="-74.6" font-family="Helvetica,sans-Serif" font-size="8.00">project.android.net.Client.close</text>
</a>
</g>
</g>
<!-- Node4&#45;&gt;Node15 -->
<g id="edge14" class="edge"><title>Node4&#45;&gt;Node15</title>
<path fill="none" stroke="midnightblue" d="M259.068,-126.487C277.252,-116.8 303.232,-103.714 327,-94.5 332.967,-92.1871 339.356,-90.0105 345.682,-88.0245"/>
<polygon fill="midnightblue" stroke="midnightblue" points="346.935,-91.3024 355.502,-85.0683 344.917,-84.5996 346.935,-91.3024"/>
</g>
<!-- Node6 -->
<g id="node4" class="node"><title>Node6</title>
<g id="a_node4"><a xlink:href="../../d9/d38/a00166.html#a863b30e1ce16c16e6dba6bebe8d8c45e" target="_top" xlink:title="Returns the View of the clicked list item. ">
<polygon fill="white" stroke="black" points="501,-126.5 501,-152.5 620,-152.5 620,-126.5 501,-126.5"/>
<text text-anchor="start" x="509" y="-142.1" font-family="Helvetica,sans-Serif" font-size="8.00">project.android.Connection</text>
<text text-anchor="middle" x="560.5" y="-133.1" font-family="Helvetica,sans-Serif" font-size="8.00">Fragment.getViewByPosition</text>
</a>
</g>
</g>
<!-- Node5&#45;&gt;Node6 -->
<g id="edge3" class="edge"><title>Node5&#45;&gt;Node6</title>
<path fill="none" stroke="midnightblue" d="M446.64,-124.765C460.738,-126.605 476.048,-128.604 490.711,-130.519"/>
<polygon fill="midnightblue" stroke="midnightblue" points="490.367,-134.003 500.736,-131.828 491.273,-127.062 490.367,-134.003"/>
</g>
<!-- Node7 -->
<g id="node5" class="node"><title>Node7</title>
<g id="a_node5"><a xlink:href="../../d5/dcb/a00170.html#aeff09458fb87bd73b69188560508baf5" target="_top" xlink:title="Overrides ArrayAdapter.getView(int, View, ViewGroup) method. ">
<polygon fill="white" stroke="black" points="668,-192 668,-209 827,-209 827,-192 668,-192"/>
<text text-anchor="middle" x="747.5" y="-198.6" font-family="Helvetica,sans-Serif" font-size="8.00">project.android.CustomAdapter.getView</text>
</a>
</g>
</g>
<!-- Node6&#45;&gt;Node7 -->
<g id="edge4" class="edge"><title>Node6&#45;&gt;Node7</title>
<path fill="none" stroke="midnightblue" d="M601.187,-152.586C633.76,-163.326 679.472,-178.399 710.882,-188.756"/>
<polygon fill="midnightblue" stroke="midnightblue" points="709.949,-192.133 720.542,-191.941 712.141,-185.485 709.949,-192.133"/>
</g>
<!-- Node7&#45;&gt;Node4 -->
<g id="edge5" class="edge"><title>Node7&#45;&gt;Node4</title>
<path fill="none" stroke="midnightblue" d="M667.764,-207.572C582.379,-212.974 442.779,-215.16 327,-185.5 304.559,-179.751 281.26,-167.939 263.789,-157.724"/>
<polygon fill="midnightblue" stroke="midnightblue" points="265.593,-154.725 255.219,-152.569 261.984,-160.723 265.593,-154.725"/>
</g>
<!-- Node8 -->
<g id="node6" class="node"><title>Node8</title>
<g id="a_node6"><a xlink:href="../../d0/d24/a00222.html#adc1c8edd1eafda5cad71f9babd18dfd4" target="_top" xlink:title="Returns the canonical host name of the server. ">
<polygon fill="white" stroke="black" points="863,-184.5 863,-210.5 973,-210.5 973,-184.5 863,-184.5"/>
<text text-anchor="start" x="871" y="-200.1" font-family="Helvetica,sans-Serif" font-size="8.00">project.android.net.Server</text>
<text text-anchor="middle" x="918" y="-191.1" font-family="Helvetica,sans-Serif" font-size="8.00">Info.getServerInfo</text>
</a>
</g>
</g>
<!-- Node7&#45;&gt;Node8 -->
<g id="edge6" class="edge"><title>Node7&#45;&gt;Node8</title>
<path fill="none" stroke="midnightblue" d="M827.323,-199.097C835.755,-198.947 844.259,-198.795 852.496,-198.648"/>
<polygon fill="midnightblue" stroke="midnightblue" points="852.826,-202.143 862.762,-198.466 852.701,-195.144 852.826,-202.143"/>
</g>
<!-- Node7&#45;&gt;Node9 -->
<g id="edge7" class="edge"><title>Node7&#45;&gt;Node9</title>
<path fill="none" stroke="midnightblue" d="M783.005,-209.101C803.653,-214.247 830.512,-220.942 854.757,-226.985"/>
<polygon fill="midnightblue" stroke="midnightblue" points="854.056,-230.418 864.606,-229.44 855.749,-223.626 854.056,-230.418"/>
</g>
<!-- Node12 -->
<g id="node10" class="node"><title>Node12</title>
<g id="a_node10"><a xlink:href="../../dc/d57/a00194.html#a3d6c629d64e1911979c9f483c8785b5f" target="_top" xlink:title="Sends mouse button or keyboard data. ">
<polygon fill="white" stroke="black" points="489,-27 489,-44 632,-44 632,-27 489,-27"/>
<text text-anchor="middle" x="560.5" y="-33.6" font-family="Helvetica,sans-Serif" font-size="8.00">project.android.net.Client.sendData</text>
</a>
</g>
</g>
<!-- Node11&#45;&gt;Node12 -->
<g id="edge11" class="edge"><title>Node11&#45;&gt;Node12</title>
<path fill="none" stroke="midnightblue" d="M452.786,-35.5C461.225,-35.5 469.988,-35.5 478.702,-35.5"/>
<polygon fill="midnightblue" stroke="midnightblue" points="478.886,-39.0001 488.886,-35.5 478.886,-32.0001 478.886,-39.0001"/>
</g>
<!-- Node13 -->
<g id="node11" class="node"><title>Node13</title>
<g id="a_node11"><a xlink:href="../../da/de7/a00210.html#af8add0417bec5bd0d019410c91f69e38" target="_top" xlink:title="Returns a JSon&#45;string of an object. ">
<polygon fill="white" stroke="black" points="696,-45.5 696,-71.5 799,-71.5 799,-45.5 696,-45.5"/>
<text text-anchor="start" x="704" y="-61.1" font-family="Helvetica,sans-Serif" font-size="8.00">project.android.net.Data</text>
<text text-anchor="middle" x="747.5" y="-52.1" font-family="Helvetica,sans-Serif" font-size="8.00">Wrapper.getGsonString</text>
</a>
</g>
</g>
<!-- Node12&#45;&gt;Node13 -->
<g id="edge12" class="edge"><title>Node12&#45;&gt;Node13</title>
<path fill="none" stroke="midnightblue" d="M630.124,-44.0317C648.348,-46.2973 667.898,-48.7279 685.674,-50.9379"/>
<polygon fill="midnightblue" stroke="midnightblue" points="685.556,-54.4501 695.912,-52.2106 686.42,-47.5035 685.556,-54.4501"/>
</g>
<!-- Node14 -->
<g id="node12" class="node"><title>Node14</title>
<g id="a_node12"><a xlink:href="../../dc/d55/a00226.html#a73624750dc6ff111d72bcb4b54c4995c" target="_top" xlink:title="Encrypts plaintext using AES 256&#45;bit encryption algorithm. ">
<polygon fill="white" stroke="black" points="691.5,-0.5 691.5,-26.5 803.5,-26.5 803.5,-0.5 691.5,-0.5"/>
<text text-anchor="start" x="699.5" y="-16.1" font-family="Helvetica,sans-Serif" font-size="8.00">project.android.security.</text>
<text text-anchor="middle" x="747.5" y="-7.1" font-family="Helvetica,sans-Serif" font-size="8.00">EKEProvider.encryptString</text>
</a>
</g>
</g>
<!-- Node12&#45;&gt;Node14 -->
<g id="edge13" class="edge"><title>Node12&#45;&gt;Node14</title>
<path fill="none" stroke="midnightblue" d="M632.232,-27.0886C648.298,-25.1781 665.293,-23.1571 681.124,-21.2744"/>
<polygon fill="midnightblue" stroke="midnightblue" points="681.822,-24.7162 691.338,-20.0598 680.995,-17.7652 681.822,-24.7162"/>
</g>
</g>
</svg>
        <g id="navigator" transform="translate(0 0)" fill="#404254">
                <rect fill="#f2f5e9" fill-opacity="0.5" stroke="#606060" stroke-width=".5" x="0" y="0" width="60" height="60"/>
                <use id="zoomplus" xlink:href="#zoomPlus" x="17" y="9" onmousedown="handleZoom(evt,'in')"/>
                <use id="zoomminus" xlink:href="#zoomMin" x="42" y="9" onmousedown="handleZoom(evt,'out')"/>
                <use id="reset" xlink:href="#resetDef" x="30" y="36" onmousedown="handleReset()"/>
                <g id="arrowUp" xlink:href="#dirArrow" transform="translate(30 24)" onmousedown="handlePan(0,-1)">
                  <use xlink:href="#rim" fill="#404040">
                        <set attributeName="fill" to="#808080" begin="arrowUp.mouseover" end="arrowUp.mouseout"/>
                  </use>
                  <path fill="none" stroke="white" stroke-width="1.5" d="M0,-3.0v7 M-2.5,-0.5L0,-3.0L2.5,-0.5"/>
                </g>
                <g id="arrowRight" xlink:href="#dirArrow" transform="rotate(90) translate(36 -43)" onmousedown="handlePan(1,0)">
                  <use xlink:href="#rim" fill="#404040">
                        <set attributeName="fill" to="#808080" begin="arrowRight.mouseover" end="arrowRight.mouseout"/>
                  </use>
                  <path fill="none" stroke="white" stroke-width="1.5" d="M0,-3.0v7 M-2.5,-0.5L0,-3.0L2.5,-0.5"/>
                </g>
                <g id="arrowDown" xlink:href="#dirArrow" transform="rotate(180) translate(-30 -48)" onmousedown="handlePan(0,1)">
                  <use xlink:href="#rim" fill="#404040">
                        <set attributeName="fill" to="#808080" begin="arrowDown.mouseover" end="arrowDown.mouseout"/>
                  </use>
                  <path fill="none" stroke="white" stroke-width="1.5" d="M0,-3.0v7 M-2.5,-0.5L0,-3.0L2.5,-0.5"/>
                </g>
                <g id="arrowLeft" xlink:href="#dirArrow" transform="rotate(270) translate(-36 17)" onmousedown="handlePan(-1,0)">
                  <use xlink:href="#rim" fill="#404040">
                        <set attributeName="fill" to="#808080" begin="arrowLeft.mouseover" end="arrowLeft.mouseout"/>
                  </use>
                  <path fill="none" stroke="white" stroke-width="1.5" d="M0,-3.0v7 M-2.5,-0.5L0,-3.0L2.5,-0.5"/>
                </g>
        </g>
        <svg viewBox="0 0 15 15" width="100%" height="30px" preserveAspectRatio="xMaxYMin meet">
         <g id="arrow_out" transform="scale(0.3 0.3)">
          <a xlink:href="a00170_a9b4dd18431aa7ebd37321a0d2b1d2539_cgraph_org.svg" target="_base">
           <rect id="button" ry="5" rx="5" y="6" x="6" height="38" width="38"
                fill="#f2f5e9" fill-opacity="0.5" stroke="#606060" stroke-width="1.0"/>
           <path id="arrow"
             d="M 11.500037,31.436501 C 11.940474,20.09759 22.043105,11.32322 32.158766,21.979434 L 37.068811,17.246167 C 37.068811,17.246167 37.088388,32 37.088388,32 L 22.160133,31.978069 C 22.160133,31.978069 26.997745,27.140456 26.997745,27.140456 C 18.528582,18.264221 13.291696,25.230495 11.500037,31.436501 z"
             style="fill:#404040;"/>
          </a>
         </g>
        </svg>
</svg>
