<?xml version="1.0" encoding="UTF-8" standalone="no"?>
<!DOCTYPE svg PUBLIC "-//W3C//DTD SVG 1.1//EN"
 "http://www.w3.org/Graphics/SVG/1.1/DTD/svg11.dtd">
<!-- Generated by graphviz version 2.38.0 (20140413.2041)
 -->
<!-- Title: project.android.KeyboardFragment.beforeTextChanged Pages: 1 -->
<svg width="290pt" height="35pt"
 viewBox="0.00 0.00 290.00 35.00" xmlns="http://www.w3.org/2000/svg" xmlns:xlink="http://www.w3.org/1999/xlink">
<g id="graph0" class="graph" transform="scale(1 1) rotate(0) translate(4 31)">
<title>project.android.KeyboardFragment.beforeTextChanged</title>
<polygon fill="white" stroke="none" points="-4,4 -4,-31 286,-31 286,4 -4,4"/>
<!-- Node0 -->
<g id="node1" class="node"><title>Node0</title>
<polygon fill="#bfbfbf" stroke="black" points="0,-0.5 0,-26.5 126,-26.5 126,-0.5 0,-0.5"/>
<text text-anchor="start" x="8" y="-16.1" font-family="Helvetica,sans-Serif" font-size="8.00">project.android.Keyboard</text>
<text text-anchor="middle" x="63" y="-7.1" font-family="Helvetica,sans-Serif" font-size="8.00">Fragment.beforeTextChanged</text>
</g>
<!-- Node1 -->
<g id="node2" class="node"><title>Node1</title>
<g id="a_node2"><a xlink:href="../../d3/dd1/a00214.html#a91720e014b8532cad7428c471ef3d0c6" target="_top" xlink:title="Inserts keyboard data to the buffer. ">
<polygon fill="white" stroke="black" points="162,-0.5 162,-26.5 282,-26.5 282,-0.5 162,-0.5"/>
<text text-anchor="start" x="170" y="-16.1" font-family="Helvetica,sans-Serif" font-size="8.00">project.android.net.Keyboard</text>
<text text-anchor="middle" x="222" y="-7.1" font-family="Helvetica,sans-Serif" font-size="8.00">Thread.addToBuffer</text>
</a>
</g>
</g>
<!-- Node0&#45;&gt;Node1 -->
<g id="edge1" class="edge"><title>Node0&#45;&gt;Node1</title>
<path fill="none" stroke="midnightblue" d="M126.051,-13.5C134.552,-13.5 143.323,-13.5 151.94,-13.5"/>
<polygon fill="midnightblue" stroke="midnightblue" points="151.96,-17.0001 161.96,-13.5 151.96,-10.0001 151.96,-17.0001"/>
</g>
</g>
</svg>
