<?xml version="1.0" encoding="UTF-8" standalone="no"?>
<!DOCTYPE svg PUBLIC "-//W3C//DTD SVG 1.1//EN"
 "http://www.w3.org/Graphics/SVG/1.1/DTD/svg11.dtd">
<!-- Generated by graphviz version 2.38.0 (20140413.2041)
 -->
<!-- Title: project.android.KeyboardFragment.onCheckedChanged Pages: 1 -->
<svg width="292pt" height="35pt"
 viewBox="0.00 0.00 292.00 35.00" xmlns="http://www.w3.org/2000/svg" xmlns:xlink="http://www.w3.org/1999/xlink">
<g id="graph0" class="graph" transform="scale(1 1) rotate(0) translate(4 31)">
<title>project.android.KeyboardFragment.onCheckedChanged</title>
<polygon fill="white" stroke="none" points="-4,4 -4,-31 288,-31 288,4 -4,4"/>
<!-- Node3 -->
<g id="node1" class="node"><title>Node3</title>
<polygon fill="#bfbfbf" stroke="black" points="0,-0.5 0,-26.5 128,-26.5 128,-0.5 0,-0.5"/>
<text text-anchor="start" x="8" y="-16.1" font-family="Helvetica,sans-Serif" font-size="8.00">project.android.Keyboard</text>
<text text-anchor="middle" x="64" y="-7.1" font-family="Helvetica,sans-Serif" font-size="8.00">Fragment.onCheckedChanged</text>
</g>
<!-- Node4 -->
<g id="node2" class="node"><title>Node4</title>
<g id="a_node2"><a xlink:href="../../d3/dd1/a00214.html#a91720e014b8532cad7428c471ef3d0c6" target="_top" xlink:title="Inserts keyboard data to the buffer. ">
<polygon fill="white" stroke="black" points="164,-0.5 164,-26.5 284,-26.5 284,-0.5 164,-0.5"/>
<text text-anchor="start" x="172" y="-16.1" font-family="Helvetica,sans-Serif" font-size="8.00">project.android.net.Keyboard</text>
<text text-anchor="middle" x="224" y="-7.1" font-family="Helvetica,sans-Serif" font-size="8.00">Thread.addToBuffer</text>
</a>
</g>
</g>
<!-- Node3&#45;&gt;Node4 -->
<g id="edge1" class="edge"><title>Node3&#45;&gt;Node4</title>
<path fill="none" stroke="midnightblue" d="M128.354,-13.5C136.716,-13.5 145.322,-13.5 153.776,-13.5"/>
<polygon fill="midnightblue" stroke="midnightblue" points="153.986,-17.0001 163.986,-13.5 153.986,-10.0001 153.986,-17.0001"/>
</g>
</g>
</svg>
