<?xml version="1.0" encoding="UTF-8" standalone="no"?>
<!DOCTYPE svg PUBLIC "-//W3C//DTD SVG 1.1//EN"
 "http://www.w3.org/Graphics/SVG/1.1/DTD/svg11.dtd">
<!-- Generated by graphviz version 2.38.0 (20140413.2041)
 -->
<!-- Title: project.android.KeyboardFragment.onDestroyView Pages: 1 -->
<svg width="272pt" height="35pt"
 viewBox="0.00 0.00 272.00 35.00" xmlns="http://www.w3.org/2000/svg" xmlns:xlink="http://www.w3.org/1999/xlink">
<g id="graph0" class="graph" transform="scale(1 1) rotate(0) translate(4 31)">
<title>project.android.KeyboardFragment.onDestroyView</title>
<polygon fill="white" stroke="none" points="-4,4 -4,-31 268,-31 268,4 -4,4"/>
<!-- Node11 -->
<g id="node1" class="node"><title>Node11</title>
<polygon fill="#bfbfbf" stroke="black" points="0,-0.5 0,-26.5 108,-26.5 108,-0.5 0,-0.5"/>
<text text-anchor="start" x="8" y="-16.1" font-family="Helvetica,sans-Serif" font-size="8.00">project.android.Keyboard</text>
<text text-anchor="middle" x="54" y="-7.1" font-family="Helvetica,sans-Serif" font-size="8.00">Fragment.onDestroyView</text>
</g>
<!-- Node12 -->
<g id="node2" class="node"><title>Node12</title>
<g id="a_node2"><a xlink:href="../../d3/dd1/a00214.html#a61fb6b4dab9e1d8855caa2675a1d02f4" target="_top" xlink:title="Sets stop flag. ">
<polygon fill="white" stroke="black" points="144,-0.5 144,-26.5 264,-26.5 264,-0.5 144,-0.5"/>
<text text-anchor="start" x="152" y="-16.1" font-family="Helvetica,sans-Serif" font-size="8.00">project.android.net.Keyboard</text>
<text text-anchor="middle" x="204" y="-7.1" font-family="Helvetica,sans-Serif" font-size="8.00">Thread.setStopFlag</text>
</a>
</g>
</g>
<!-- Node11&#45;&gt;Node12 -->
<g id="edge1" class="edge"><title>Node11&#45;&gt;Node12</title>
<path fill="none" stroke="midnightblue" d="M108.013,-13.5C116.36,-13.5 125.094,-13.5 133.742,-13.5"/>
<polygon fill="midnightblue" stroke="midnightblue" points="133.825,-17.0001 143.825,-13.5 133.825,-10.0001 133.825,-17.0001"/>
</g>
</g>
</svg>
