<?xml version="1.0" encoding="UTF-8" standalone="no"?>
<!DOCTYPE svg PUBLIC "-//W3C//DTD SVG 1.1//EN"
 "http://www.w3.org/Graphics/SVG/1.1/DTD/svg11.dtd">
<!-- Generated by graphviz version 2.38.0 (20140413.2041)
 -->
<!-- Title: project.android.security.EKEProvider.EKEProvider Pages: 1 -->
<svg width="290pt" height="125pt"
 viewBox="0.00 0.00 290.00 125.00" xmlns="http://www.w3.org/2000/svg" xmlns:xlink="http://www.w3.org/1999/xlink">
<g id="graph0" class="graph" transform="scale(1 1) rotate(0) translate(4 121)">
<title>project.android.security.EKEProvider.EKEProvider</title>
<polygon fill="white" stroke="none" points="-4,4 -4,-121 286,-121 286,4 -4,4"/>
<!-- Node0 -->
<g id="node1" class="node"><title>Node0</title>
<polygon fill="#bfbfbf" stroke="black" points="0,-45.5 0,-71.5 110,-71.5 110,-45.5 0,-45.5"/>
<text text-anchor="start" x="8" y="-61.1" font-family="Helvetica,sans-Serif" font-size="8.00">project.android.security.</text>
<text text-anchor="middle" x="55" y="-52.1" font-family="Helvetica,sans-Serif" font-size="8.00">EKEProvider.EKEProvider</text>
</g>
<!-- Node1 -->
<g id="node2" class="node"><title>Node1</title>
<g id="a_node2"><a xlink:href="../../d1/da8/a00230.html#adbd6dd5275f56246abf6d22f9869307d" target="_top" xlink:title="Checks if a KeyStore exists. ">
<polygon fill="white" stroke="black" points="146,-90.5 146,-116.5 282,-116.5 282,-90.5 146,-90.5"/>
<text text-anchor="start" x="154" y="-106.1" font-family="Helvetica,sans-Serif" font-size="8.00">project.android.security.</text>
<text text-anchor="middle" x="214" y="-97.1" font-family="Helvetica,sans-Serif" font-size="8.00">KeyStoreManager.keyStoreExists</text>
</a>
</g>
</g>
<!-- Node0&#45;&gt;Node1 -->
<g id="edge1" class="edge"><title>Node0&#45;&gt;Node1</title>
<path fill="none" stroke="midnightblue" d="M101.411,-71.5159C118.99,-76.5545 139.28,-82.37 157.697,-87.6489"/>
<polygon fill="midnightblue" stroke="midnightblue" points="156.842,-91.0447 167.419,-90.4355 158.771,-84.3156 156.842,-91.0447"/>
</g>
<!-- Node2 -->
<g id="node3" class="node"><title>Node2</title>
<g id="a_node3"><a xlink:href="../../d1/da8/a00230.html#aeff5bbda21fbcb2fb7b53a74a14f5071" target="_top" xlink:title="Returns the private&#45;public key pair. ">
<polygon fill="white" stroke="black" points="147,-45.5 147,-71.5 281,-71.5 281,-45.5 147,-45.5"/>
<text text-anchor="start" x="155" y="-61.1" font-family="Helvetica,sans-Serif" font-size="8.00">project.android.security.</text>
<text text-anchor="middle" x="214" y="-52.1" font-family="Helvetica,sans-Serif" font-size="8.00">KeyStoreManager.getKSKeyPair</text>
</a>
</g>
</g>
<!-- Node0&#45;&gt;Node2 -->
<g id="edge2" class="edge"><title>Node0&#45;&gt;Node2</title>
<path fill="none" stroke="midnightblue" d="M110.03,-58.5C118.666,-58.5 127.741,-58.5 136.776,-58.5"/>
<polygon fill="midnightblue" stroke="midnightblue" points="136.933,-62.0001 146.933,-58.5 136.933,-55.0001 136.933,-62.0001"/>
</g>
<!-- Node3 -->
<g id="node4" class="node"><title>Node3</title>
<g id="a_node4"><a xlink:href="../../d1/da8/a00230.html#ad9b1d9bfc573010894959fcc5a63d00e" target="_top" xlink:title="Method to store the private key and the certificate in the KeyStore. ">
<polygon fill="white" stroke="black" points="147.5,-0.5 147.5,-26.5 280.5,-26.5 280.5,-0.5 147.5,-0.5"/>
<text text-anchor="start" x="155.5" y="-16.1" font-family="Helvetica,sans-Serif" font-size="8.00">project.android.security.</text>
<text text-anchor="middle" x="214" y="-7.1" font-family="Helvetica,sans-Serif" font-size="8.00">KeyStoreManager.setMasterKey</text>
</a>
</g>
</g>
<!-- Node0&#45;&gt;Node3 -->
<g id="edge3" class="edge"><title>Node0&#45;&gt;Node3</title>
<path fill="none" stroke="midnightblue" d="M101.411,-45.4841C118.99,-40.4455 139.28,-34.63 157.697,-29.3511"/>
<polygon fill="midnightblue" stroke="midnightblue" points="158.771,-32.6844 167.419,-26.5645 156.842,-25.9553 158.771,-32.6844"/>
</g>
</g>
</svg>
