<?xml version="1.0" encoding="UTF-8" standalone="no"?>
<!DOCTYPE svg PUBLIC "-//W3C//DTD SVG 1.1//EN"
 "http://www.w3.org/Graphics/SVG/1.1/DTD/svg11.dtd">
<!-- Generated by graphviz version 2.38.0 (20140413.2041)
 -->
<!-- Title: project.android.sensor.orientation.KalmanFilterProvider.onSensorChanged Pages: 1 -->
<!--zoomable 395 -->
<svg id="main" version="1.1" xmlns="http://www.w3.org/2000/svg" xmlns:xlink="http://www.w3.org/1999/xlink" xml:space="preserve" onload="init(evt)">
<style type="text/css"><![CDATA[
.edge:hover path { stroke: red; }
.edge:hover polygon { stroke: red; fill: red; }
]]></style>
<script type="text/javascript"><![CDATA[
var edges = document.getElementsByTagName('g');
if (edges && edges.length) {
  for (var i=0;i<edges.length;i++) {
    if (edges[i].id.substr(0,4)=='edge') {
      edges[i].setAttribute('class','edge');
    }
  }
}
]]></script>
        <defs>
                <circle id="rim" cx="0" cy="0" r="7"/>
                <circle id="rim2" cx="0" cy="0" r="3.5"/>
                <g id="zoomPlus">
                        <use xlink:href="#rim" fill="#404040">
                                <set attributeName="fill" to="#808080" begin="zoomplus.mouseover" end="zoomplus.mouseout"/>
                        </use>
                        <path d="M-4,0h8M0,-4v8" fill="none" stroke="white" stroke-width="1.5" pointer-events="none"/>
                </g>
                <g id="zoomMin">
                        <use xlink:href="#rim" fill="#404040">
                                <set attributeName="fill" to="#808080" begin="zoomminus.mouseover" end="zoomminus.mouseout"/>
                        </use>
                        <path d="M-4,0h8" fill="none" stroke="white" stroke-width="1.5" pointer-events="none"/>
                </g>
                <g id="dirArrow">
                        <path fill="none" stroke="white" stroke-width="1.5" d="M0,-3.0v7 M-2.5,-0.5L0,-3.0L2.5,-0.5"/>
                </g>
               <g id="resetDef">
                       <use xlink:href="#rim2" fill="#404040">
                               <set attributeName="fill" to="#808080" begin="reset.mouseover" end="reset.mouseout"/>
                       </use>
               </g>
        </defs>

<script type="text/javascript">
var viewWidth = 733;
var viewHeight = 395;
var sectionId = 'dynsection-2';
</script>
<script xlink:href="../../svgpan.js"/>
<svg id="graph" class="graph">
<g id="viewport">
<title>project.android.sensor.orientation.KalmanFilterProvider.onSensorChanged</title>
<polygon fill="white" stroke="none" points="-4,4 -4,-391 729,-391 729,4 -4,4"/>
<!-- Node3 -->
<g id="node1" class="node"><title>Node3</title>
<polygon fill="#bfbfbf" stroke="black" points="0,-180.5 0,-206.5 161,-206.5 161,-180.5 0,-180.5"/>
<text text-anchor="start" x="8" y="-196.1" font-family="Helvetica,sans-Serif" font-size="8.00">project.android.sensor.orientation.</text>
<text text-anchor="middle" x="80.5" y="-187.1" font-family="Helvetica,sans-Serif" font-size="8.00">KalmanFilterProvider.onSensorChanged</text>
</g>
<!-- Node4 -->
<g id="node2" class="node"><title>Node4</title>
<g id="a_node2"><a xlink:href="../../d7/d2f/a00258.html#a887ec4cfb002f50f8eec8f73501110f3" target="_top" xlink:title="Sets the X&#45;dimension of this Vector4f. ">
<polygon fill="white" stroke="black" points="197,-360.5 197,-386.5 349,-386.5 349,-360.5 197,-360.5"/>
<text text-anchor="start" x="205" y="-376.1" font-family="Helvetica,sans-Serif" font-size="8.00">project.android.sensor.representation.</text>
<text text-anchor="middle" x="273" y="-367.1" font-family="Helvetica,sans-Serif" font-size="8.00">Vector4f.setX</text>
</a>
</g>
</g>
<!-- Node3&#45;&gt;Node4 -->
<g id="edge1" class="edge"><title>Node3&#45;&gt;Node4</title>
<path fill="none" stroke="midnightblue" d="M87.4646,-206.808C101.785,-237.228 141.117,-312.239 197,-351.5 199.264,-353.091 201.643,-354.567 204.105,-355.938"/>
<polygon fill="midnightblue" stroke="midnightblue" points="202.8,-359.197 213.32,-360.454 205.881,-352.911 202.8,-359.197"/>
</g>
<!-- Node5 -->
<g id="node3" class="node"><title>Node5</title>
<g id="a_node3"><a xlink:href="../../d7/d2f/a00258.html#a85c790b5bbb7c702cb0e49585b261082" target="_top" xlink:title="Sets the Y&#45;dimension of this Vector4f. ">
<polygon fill="white" stroke="black" points="197,-315.5 197,-341.5 349,-341.5 349,-315.5 197,-315.5"/>
<text text-anchor="start" x="205" y="-331.1" font-family="Helvetica,sans-Serif" font-size="8.00">project.android.sensor.representation.</text>
<text text-anchor="middle" x="273" y="-322.1" font-family="Helvetica,sans-Serif" font-size="8.00">Vector4f.setY</text>
</a>
</g>
</g>
<!-- Node3&#45;&gt;Node5 -->
<g id="edge2" class="edge"><title>Node3&#45;&gt;Node5</title>
<path fill="none" stroke="midnightblue" d="M91.4019,-206.788C109.664,-230.364 151.009,-279.56 197,-306.5 200.019,-308.268 203.19,-309.903 206.452,-311.414"/>
<polygon fill="midnightblue" stroke="midnightblue" points="205.262,-314.711 215.838,-315.351 207.97,-308.256 205.262,-314.711"/>
</g>
<!-- Node6 -->
<g id="node4" class="node"><title>Node6</title>
<g id="a_node4"><a xlink:href="../../d7/d2f/a00258.html#a8bd26391867c8d1d4b105a63764d394f" target="_top" xlink:title="Sets the Z&#45;dimension of this Vector4f. ">
<polygon fill="white" stroke="black" points="197,-270.5 197,-296.5 349,-296.5 349,-270.5 197,-270.5"/>
<text text-anchor="start" x="205" y="-286.1" font-family="Helvetica,sans-Serif" font-size="8.00">project.android.sensor.representation.</text>
<text text-anchor="middle" x="273" y="-277.1" font-family="Helvetica,sans-Serif" font-size="8.00">Vector4f.setZ</text>
</a>
</g>
</g>
<!-- Node3&#45;&gt;Node6 -->
<g id="edge3" class="edge"><title>Node3&#45;&gt;Node6</title>
<path fill="none" stroke="midnightblue" d="M100.344,-206.574C122.596,-221.533 161.128,-245.963 197,-261.5 201.629,-263.505 206.494,-265.391 211.431,-267.151"/>
<polygon fill="midnightblue" stroke="midnightblue" points="210.373,-270.488 220.967,-270.378 212.617,-263.857 210.373,-270.488"/>
</g>
<!-- Node7 -->
<g id="node5" class="node"><title>Node7</title>
<g id="a_node5"><a xlink:href="../../d7/d2f/a00258.html#af52ccfec44e8d3fa81707b1fd816b153" target="_top" xlink:title="Sets the W&#45;dimension of this Vector4f. ">
<polygon fill="white" stroke="black" points="197,-225.5 197,-251.5 349,-251.5 349,-225.5 197,-225.5"/>
<text text-anchor="start" x="205" y="-241.1" font-family="Helvetica,sans-Serif" font-size="8.00">project.android.sensor.representation.</text>
<text text-anchor="middle" x="273" y="-232.1" font-family="Helvetica,sans-Serif" font-size="8.00">Vector4f.setW</text>
</a>
</g>
</g>
<!-- Node3&#45;&gt;Node7 -->
<g id="edge4" class="edge"><title>Node3&#45;&gt;Node7</title>
<path fill="none" stroke="midnightblue" d="M136.6,-206.516C158.521,-211.694 183.913,-217.692 206.745,-223.085"/>
<polygon fill="midnightblue" stroke="midnightblue" points="206.157,-226.543 216.694,-225.436 207.766,-219.73 206.157,-226.543"/>
</g>
<!-- Node8 -->
<g id="node6" class="node"><title>Node8</title>
<g id="a_node6"><a xlink:href="../../d0/da7/a00250.html#af231ee91935ad5dabce7e497ece57417" target="_top" xlink:title="Multiplies this Quaternion with another. ">
<polygon fill="white" stroke="black" points="197,-180.5 197,-206.5 349,-206.5 349,-180.5 197,-180.5"/>
<text text-anchor="start" x="205" y="-196.1" font-family="Helvetica,sans-Serif" font-size="8.00">project.android.sensor.representation.</text>
<text text-anchor="middle" x="273" y="-187.1" font-family="Helvetica,sans-Serif" font-size="8.00">Quaternion.multiplyByQuat</text>
</a>
</g>
</g>
<!-- Node3&#45;&gt;Node8 -->
<g id="edge5" class="edge"><title>Node3&#45;&gt;Node8</title>
<path fill="none" stroke="midnightblue" d="M161.185,-193.5C169.594,-193.5 178.168,-193.5 186.637,-193.5"/>
<polygon fill="midnightblue" stroke="midnightblue" points="186.897,-197 196.897,-193.5 186.897,-190 186.897,-197"/>
</g>
<!-- Node9 -->
<g id="node7" class="node"><title>Node9</title>
<g id="a_node7"><a xlink:href="../../d0/da7/a00250.html#a63276a34f5007701782c0d5c1aeb467c" target="_top" xlink:title="Copies the values from the given Quaternion to this one. ">
<polygon fill="white" stroke="black" points="197,-135.5 197,-161.5 349,-161.5 349,-135.5 197,-135.5"/>
<text text-anchor="start" x="205" y="-151.1" font-family="Helvetica,sans-Serif" font-size="8.00">project.android.sensor.representation.</text>
<text text-anchor="middle" x="273" y="-142.1" font-family="Helvetica,sans-Serif" font-size="8.00">Quaternion.set</text>
</a>
</g>
</g>
<!-- Node3&#45;&gt;Node9 -->
<g id="edge6" class="edge"><title>Node3&#45;&gt;Node9</title>
<path fill="none" stroke="midnightblue" d="M136.6,-180.484C158.521,-175.306 183.913,-169.308 206.745,-163.915"/>
<polygon fill="midnightblue" stroke="midnightblue" points="207.766,-167.27 216.694,-161.564 206.157,-160.457 207.766,-167.27"/>
</g>
<!-- Node14 -->
<g id="node12" class="node"><title>Node14</title>
<g id="a_node12"><a xlink:href="../../d7/d2f/a00258.html#ac1059d3ba0cf2ae04a9fb47c8f1edb3c" target="_top" xlink:title="Returns the W&#45;dimension of this Vector4f. ">
<polygon fill="white" stroke="black" points="197,-90.5 197,-116.5 349,-116.5 349,-90.5 197,-90.5"/>
<text text-anchor="start" x="205" y="-106.1" font-family="Helvetica,sans-Serif" font-size="8.00">project.android.sensor.representation.</text>
<text text-anchor="middle" x="273" y="-97.1" font-family="Helvetica,sans-Serif" font-size="8.00">Vector4f.getW</text>
</a>
</g>
</g>
<!-- Node3&#45;&gt;Node14 -->
<g id="edge11" class="edge"><title>Node3&#45;&gt;Node14</title>
<path fill="none" stroke="midnightblue" d="M100.808,-180.453C123.179,-165.781 161.52,-141.988 197,-126.5 202.357,-124.161 208.027,-121.96 213.753,-119.916"/>
<polygon fill="midnightblue" stroke="midnightblue" points="215.062,-123.168 223.397,-116.629 212.803,-116.542 215.062,-123.168"/>
</g>
<!-- Node15 -->
<g id="node13" class="node"><title>Node15</title>
<g id="a_node13"><a xlink:href="../../d7/d2f/a00258.html#a06c8c2baabcd970238ab0af20bc7fcdd" target="_top" xlink:title="Returns the array representation of this Vector4f. ">
<polygon fill="white" stroke="black" points="197,-45.5 197,-71.5 349,-71.5 349,-45.5 197,-45.5"/>
<text text-anchor="start" x="205" y="-61.1" font-family="Helvetica,sans-Serif" font-size="8.00">project.android.sensor.representation.</text>
<text text-anchor="middle" x="273" y="-52.1" font-family="Helvetica,sans-Serif" font-size="8.00">Vector4f.array</text>
</a>
</g>
</g>
<!-- Node3&#45;&gt;Node15 -->
<g id="edge12" class="edge"><title>Node3&#45;&gt;Node15</title>
<path fill="none" stroke="midnightblue" d="M91.4624,-180.39C109.82,-157.117 151.313,-108.502 197,-81.5 200.693,-79.3172 204.613,-77.3234 208.648,-75.505"/>
<polygon fill="midnightblue" stroke="midnightblue" points="210.298,-78.611 218.219,-71.5743 207.639,-72.1358 210.298,-78.611"/>
</g>
<!-- Node16 -->
<g id="node14" class="node"><title>Node16</title>
<g id="a_node14"><a xlink:href="../../da/d2e/a00238.html#aefb2a1b0264403d2b69042b40dbaeea0" target="_top" xlink:title="Stops the sensor fusion (e.g., when pausing/suspending the activity). ">
<polygon fill="white" stroke="black" points="204,-0.5 204,-26.5 342,-26.5 342,-0.5 204,-0.5"/>
<text text-anchor="start" x="212" y="-16.1" font-family="Helvetica,sans-Serif" font-size="8.00">project.android.sensor.orientation.</text>
<text text-anchor="middle" x="273" y="-7.1" font-family="Helvetica,sans-Serif" font-size="8.00">OrientationProvider.sensorStop</text>
</a>
</g>
</g>
<!-- Node3&#45;&gt;Node16 -->
<g id="edge13" class="edge"><title>Node3&#45;&gt;Node16</title>
<path fill="none" stroke="midnightblue" d="M87.5215,-180.323C101.962,-150.196 141.528,-75.8553 197,-36.5 199.864,-34.4683 202.911,-32.6125 206.077,-30.9179"/>
<polygon fill="midnightblue" stroke="midnightblue" points="207.725,-34.0099 215.254,-26.5563 204.72,-27.6875 207.725,-34.0099"/>
</g>
<!-- Node10 -->
<g id="node8" class="node"><title>Node10</title>
<g id="a_node8"><a xlink:href="../../d7/d2f/a00258.html#ad64f74d289c05e667cd27cf017ab8b95" target="_top" xlink:title="Copies another Vector4f to this one. ">
<polygon fill="white" stroke="black" points="385,-135.5 385,-161.5 537,-161.5 537,-135.5 385,-135.5"/>
<text text-anchor="start" x="393" y="-151.1" font-family="Helvetica,sans-Serif" font-size="8.00">project.android.sensor.representation.</text>
<text text-anchor="middle" x="461" y="-142.1" font-family="Helvetica,sans-Serif" font-size="8.00">Vector4f.copyVec4</text>
</a>
</g>
</g>
<!-- Node9&#45;&gt;Node10 -->
<g id="edge7" class="edge"><title>Node9&#45;&gt;Node10</title>
<path fill="none" stroke="midnightblue" d="M349.117,-148.5C357.596,-148.5 366.281,-148.5 374.875,-148.5"/>
<polygon fill="midnightblue" stroke="midnightblue" points="374.905,-152 384.905,-148.5 374.905,-145 374.905,-152"/>
</g>
<!-- Node11 -->
<g id="node9" class="node"><title>Node11</title>
<g id="a_node9"><a xlink:href="../../d7/d03/a00254.html#aba432e0cfec33788bed219adf0bf0c5e" target="_top" xlink:title="Returns the X&#45;dimension of this Vector3f. ">
<polygon fill="white" stroke="black" points="573,-180.5 573,-206.5 725,-206.5 725,-180.5 573,-180.5"/>
<text text-anchor="start" x="581" y="-196.1" font-family="Helvetica,sans-Serif" font-size="8.00">project.android.sensor.representation.</text>
<text text-anchor="middle" x="649" y="-187.1" font-family="Helvetica,sans-Serif" font-size="8.00">Vector3f.getX</text>
</a>
</g>
</g>
<!-- Node10&#45;&gt;Node11 -->
<g id="edge8" class="edge"><title>Node10&#45;&gt;Node11</title>
<path fill="none" stroke="midnightblue" d="M515.799,-161.516C537.105,-166.671 561.772,-172.638 583.987,-178.013"/>
<polygon fill="midnightblue" stroke="midnightblue" points="583.457,-181.486 594,-180.436 585.104,-174.682 583.457,-181.486"/>
</g>
<!-- Node12 -->
<g id="node10" class="node"><title>Node12</title>
<g id="a_node10"><a xlink:href="../../d7/d03/a00254.html#aefe347d692330f7dfec6b146302809e3" target="_top" xlink:title="Returns the Y&#45;dimension of this Vector3f. ">
<polygon fill="white" stroke="black" points="573,-135.5 573,-161.5 725,-161.5 725,-135.5 573,-135.5"/>
<text text-anchor="start" x="581" y="-151.1" font-family="Helvetica,sans-Serif" font-size="8.00">project.android.sensor.representation.</text>
<text text-anchor="middle" x="649" y="-142.1" font-family="Helvetica,sans-Serif" font-size="8.00">Vector3f.getY</text>
</a>
</g>
</g>
<!-- Node10&#45;&gt;Node12 -->
<g id="edge9" class="edge"><title>Node10&#45;&gt;Node12</title>
<path fill="none" stroke="midnightblue" d="M537.117,-148.5C545.596,-148.5 554.281,-148.5 562.875,-148.5"/>
<polygon fill="midnightblue" stroke="midnightblue" points="562.905,-152 572.905,-148.5 562.905,-145 562.905,-152"/>
</g>
<!-- Node13 -->
<g id="node11" class="node"><title>Node13</title>
<g id="a_node11"><a xlink:href="../../d7/d03/a00254.html#a6e8d105f170e17b3d1bb706ea75fb3ea" target="_top" xlink:title="Returns the Z&#45;dimension of this Vector3f. ">
<polygon fill="white" stroke="black" points="573,-90.5 573,-116.5 725,-116.5 725,-90.5 573,-90.5"/>
<text text-anchor="start" x="581" y="-106.1" font-family="Helvetica,sans-Serif" font-size="8.00">project.android.sensor.representation.</text>
<text text-anchor="middle" x="649" y="-97.1" font-family="Helvetica,sans-Serif" font-size="8.00">Vector3f.getZ</text>
</a>
</g>
</g>
<!-- Node10&#45;&gt;Node13 -->
<g id="edge10" class="edge"><title>Node10&#45;&gt;Node13</title>
<path fill="none" stroke="midnightblue" d="M515.799,-135.484C537.105,-130.329 561.772,-124.362 583.987,-118.987"/>
<polygon fill="midnightblue" stroke="midnightblue" points="585.104,-122.318 594,-116.564 583.457,-115.514 585.104,-122.318"/>
</g>
</g>
</svg>
        <g id="navigator" transform="translate(0 0)" fill="#404254">
                <rect fill="#f2f5e9" fill-opacity="0.5" stroke="#606060" stroke-width=".5" x="0" y="0" width="60" height="60"/>
                <use id="zoomplus" xlink:href="#zoomPlus" x="17" y="9" onmousedown="handleZoom(evt,'in')"/>
                <use id="zoomminus" xlink:href="#zoomMin" x="42" y="9" onmousedown="handleZoom(evt,'out')"/>
                <use id="reset" xlink:href="#resetDef" x="30" y="36" onmousedown="handleReset()"/>
                <g id="arrowUp" xlink:href="#dirArrow" transform="translate(30 24)" onmousedown="handlePan(0,-1)">
                  <use xlink:href="#rim" fill="#404040">
                        <set attributeName="fill" to="#808080" begin="arrowUp.mouseover" end="arrowUp.mouseout"/>
                  </use>
                  <path fill="none" stroke="white" stroke-width="1.5" d="M0,-3.0v7 M-2.5,-0.5L0,-3.0L2.5,-0.5"/>
                </g>
                <g id="arrowRight" xlink:href="#dirArrow" transform="rotate(90) translate(36 -43)" onmousedown="handlePan(1,0)">
                  <use xlink:href="#rim" fill="#404040">
                        <set attributeName="fill" to="#808080" begin="arrowRight.mouseover" end="arrowRight.mouseout"/>
                  </use>
                  <path fill="none" stroke="white" stroke-width="1.5" d="M0,-3.0v7 M-2.5,-0.5L0,-3.0L2.5,-0.5"/>
                </g>
                <g id="arrowDown" xlink:href="#dirArrow" transform="rotate(180) translate(-30 -48)" onmousedown="handlePan(0,1)">
                  <use xlink:href="#rim" fill="#404040">
                        <set attributeName="fill" to="#808080" begin="arrowDown.mouseover" end="arrowDown.mouseout"/>
                  </use>
                  <path fill="none" stroke="white" stroke-width="1.5" d="M0,-3.0v7 M-2.5,-0.5L0,-3.0L2.5,-0.5"/>
                </g>
                <g id="arrowLeft" xlink:href="#dirArrow" transform="rotate(270) translate(-36 17)" onmousedown="handlePan(-1,0)">
                  <use xlink:href="#rim" fill="#404040">
                        <set attributeName="fill" to="#808080" begin="arrowLeft.mouseover" end="arrowLeft.mouseout"/>
                  </use>
                  <path fill="none" stroke="white" stroke-width="1.5" d="M0,-3.0v7 M-2.5,-0.5L0,-3.0L2.5,-0.5"/>
                </g>
        </g>
        <svg viewBox="0 0 15 15" width="100%" height="30px" preserveAspectRatio="xMaxYMin meet">
         <g id="arrow_out" transform="scale(0.3 0.3)">
          <a xlink:href="a00234_ab9a9911056de6fc82ef1859c2eb42bad_cgraph_org.svg" target="_base">
           <rect id="button" ry="5" rx="5" y="6" x="6" height="38" width="38"
                fill="#f2f5e9" fill-opacity="0.5" stroke="#606060" stroke-width="1.0"/>
           <path id="arrow"
             d="M 11.500037,31.436501 C 11.940474,20.09759 22.043105,11.32322 32.158766,21.979434 L 37.068811,17.246167 C 37.068811,17.246167 37.088388,32 37.088388,32 L 22.160133,31.978069 C 22.160133,31.978069 26.997745,27.140456 26.997745,27.140456 C 18.528582,18.264221 13.291696,25.230495 11.500037,31.436501 z"
             style="fill:#404040;"/>
          </a>
         </g>
        </svg>
</svg>
