<?xml version="1.0" encoding="UTF-8" standalone="no"?>
<!DOCTYPE svg PUBLIC "-//W3C//DTD SVG 1.1//EN"
 "http://www.w3.org/Graphics/SVG/1.1/DTD/svg11.dtd">
<!-- Generated by graphviz version 2.38.0 (20140413.2041)
 -->
<!-- Title: project.android.MainActivity Pages: 1 -->
<svg width="397pt" height="247pt"
 viewBox="0.00 0.00 396.50 247.00" xmlns="http://www.w3.org/2000/svg" xmlns:xlink="http://www.w3.org/1999/xlink">
<g id="graph0" class="graph" transform="scale(1 1) rotate(0) translate(4 243)">
<title>project.android.MainActivity</title>
<polygon fill="white" stroke="none" points="-4,4 -4,-243 392.5,-243 392.5,4 -4,4"/>
<!-- Node0 -->
<g id="node1" class="node"><title>Node0</title>
<polygon fill="#bfbfbf" stroke="black" points="162.5,-0.5 162.5,-132.5 284.5,-132.5 284.5,-0.5 162.5,-0.5"/>
<text text-anchor="middle" x="223.5" y="-122.1" font-family="Helvetica,sans-Serif" font-size="8.00">project.android.MainActivity</text>
<polyline fill="none" stroke="black" points="162.5,-115.5 284.5,-115.5 "/>
<text text-anchor="start" x="170.5" y="-105.1" font-family="Helvetica,sans-Serif" font-size="8.00">+ DEVICE_NAME</text>
<text text-anchor="start" x="170.5" y="-96.1" font-family="Helvetica,sans-Serif" font-size="8.00">+ sPublicKey</text>
<polyline fill="none" stroke="black" points="162.5,-89.5 284.5,-89.5 "/>
<text text-anchor="start" x="170.5" y="-79.1" font-family="Helvetica,sans-Serif" font-size="8.00">+ onBackPressed()</text>
<text text-anchor="start" x="170.5" y="-70.1" font-family="Helvetica,sans-Serif" font-size="8.00">+ onCreateOptionsMenu()</text>
<text text-anchor="start" x="170.5" y="-61.1" font-family="Helvetica,sans-Serif" font-size="8.00">+ onDestroy()</text>
<text text-anchor="start" x="170.5" y="-52.1" font-family="Helvetica,sans-Serif" font-size="8.00">+ onNavigationItemSelected()</text>
<text text-anchor="start" x="170.5" y="-43.1" font-family="Helvetica,sans-Serif" font-size="8.00">+ onOptionsItemSelected()</text>
<text text-anchor="start" x="170.5" y="-34.1" font-family="Helvetica,sans-Serif" font-size="8.00">+ onPause()</text>
<text text-anchor="start" x="170.5" y="-25.1" font-family="Helvetica,sans-Serif" font-size="8.00">+ onResume()</text>
<text text-anchor="start" x="170.5" y="-16.1" font-family="Helvetica,sans-Serif" font-size="8.00">+ getConnectionFragment()</text>
<text text-anchor="start" x="170.5" y="-7.1" font-family="Helvetica,sans-Serif" font-size="8.00"># onCreate()</text>
</g>
<!-- Node1 -->
<g id="node2" class="node"><title>Node1</title>
<polygon fill="white" stroke="#bfbfbf" points="0,-183 0,-234 83,-234 83,-183 0,-183"/>
<text text-anchor="middle" x="41.5" y="-223.6" font-family="Helvetica,sans-Serif" font-size="8.00">AppCompatActivity</text>
<polyline fill="none" stroke="#bfbfbf" points="0,-217 83,-217 "/>
<text text-anchor="middle" x="41.5" y="-206.6" font-family="Helvetica,sans-Serif" font-size="8.00"> </text>
<polyline fill="none" stroke="#bfbfbf" points="0,-200 83,-200 "/>
<text text-anchor="middle" x="41.5" y="-189.6" font-family="Helvetica,sans-Serif" font-size="8.00"> </text>
</g>
<!-- Node1&#45;&gt;Node0 -->
<g id="edge1" class="edge"><title>Node1&#45;&gt;Node0</title>
<path fill="none" stroke="midnightblue" d="M81.6838,-176.589C105.327,-158.402 135.707,-135.033 162.279,-114.593"/>
<polygon fill="none" stroke="midnightblue" points="79.4113,-173.922 73.619,-182.793 83.6793,-179.47 79.4113,-173.922"/>
</g>
<!-- Node2 -->
<g id="node3" class="node"><title>Node2</title>
<polygon fill="white" stroke="#bfbfbf" points="101.5,-178.5 101.5,-238.5 225.5,-238.5 225.5,-178.5 101.5,-178.5"/>
<text text-anchor="start" x="109.5" y="-228.1" font-family="Helvetica,sans-Serif" font-size="8.00">NavigationView::OnNavigation</text>
<text text-anchor="middle" x="163.5" y="-219.1" font-family="Helvetica,sans-Serif" font-size="8.00">ItemSelectedListener</text>
<polyline fill="none" stroke="#bfbfbf" points="101.5,-212.5 225.5,-212.5 "/>
<text text-anchor="middle" x="163.5" y="-202.1" font-family="Helvetica,sans-Serif" font-size="8.00"> </text>
<polyline fill="none" stroke="#bfbfbf" points="101.5,-195.5 225.5,-195.5 "/>
<text text-anchor="middle" x="163.5" y="-185.1" font-family="Helvetica,sans-Serif" font-size="8.00"> </text>
</g>
<!-- Node2&#45;&gt;Node0 -->
<g id="edge2" class="edge"><title>Node2&#45;&gt;Node0</title>
<path fill="none" stroke="midnightblue" d="M180.015,-168.966C184.853,-157.677 190.282,-145.009 195.621,-132.551"/>
<polygon fill="none" stroke="midnightblue" points="176.654,-167.922 175.932,-178.492 183.088,-170.679 176.654,-167.922"/>
</g>
<!-- Node3 -->
<g id="node4" class="node"><title>Node3</title>
<polygon fill="white" stroke="#bfbfbf" points="243.5,-183 243.5,-234 329.5,-234 329.5,-183 243.5,-183"/>
<text text-anchor="middle" x="286.5" y="-223.6" font-family="Helvetica,sans-Serif" font-size="8.00">SharedPreferences</text>
<polyline fill="none" stroke="#bfbfbf" points="243.5,-217 329.5,-217 "/>
<text text-anchor="middle" x="286.5" y="-206.6" font-family="Helvetica,sans-Serif" font-size="8.00"> </text>
<polyline fill="none" stroke="#bfbfbf" points="243.5,-200 329.5,-200 "/>
<text text-anchor="middle" x="286.5" y="-189.6" font-family="Helvetica,sans-Serif" font-size="8.00"> </text>
</g>
<!-- Node3&#45;&gt;Node0 -->
<g id="edge3" class="edge"><title>Node3&#45;&gt;Node0</title>
<path fill="none" stroke="#404040" d="M275.382,-182.793C270.393,-171.706 264.208,-157.962 257.867,-143.871"/>
<polygon fill="none" stroke="#404040" points="257.692,-143.482 251.582,-139.652 252.768,-132.539 258.878,-136.369 257.692,-143.482"/>
<text text-anchor="middle" x="292.5" y="-153.6" font-family="Helvetica,sans-Serif" font-size="8.00"> +sSharedPrefs</text>
</g>
<!-- Node4 -->
<g id="node5" class="node"><title>Node4</title>
<polygon fill="white" stroke="#bfbfbf" points="349,-183 349,-234 378,-234 378,-183 349,-183"/>
<text text-anchor="middle" x="363.5" y="-223.6" font-family="Helvetica,sans-Serif" font-size="8.00">File</text>
<polyline fill="none" stroke="#bfbfbf" points="349,-217 378,-217 "/>
<text text-anchor="middle" x="363.5" y="-206.6" font-family="Helvetica,sans-Serif" font-size="8.00"> </text>
<polyline fill="none" stroke="#bfbfbf" points="349,-200 378,-200 "/>
<text text-anchor="middle" x="363.5" y="-189.6" font-family="Helvetica,sans-Serif" font-size="8.00"> </text>
</g>
<!-- Node4&#45;&gt;Node0 -->
<g id="edge4" class="edge"><title>Node4&#45;&gt;Node0</title>
<path fill="none" stroke="#404040" d="M348.926,-183.32C342.114,-172.884 333.522,-160.839 324.5,-151 315.224,-140.883 304.711,-130.898 294.059,-121.543"/>
<polygon fill="none" stroke="#404040" points="293.794,-121.316 286.637,-120.441 284.691,-113.498 291.849,-114.372 293.794,-121.316"/>
<text text-anchor="middle" x="360.5" y="-153.6" font-family="Helvetica,sans-Serif" font-size="8.00"> +sRemouseDir</text>
</g>
</g>
</svg>
