<?xml version="1.0" encoding="UTF-8" standalone="no"?>
<!DOCTYPE svg PUBLIC "-//W3C//DTD SVG 1.1//EN"
 "http://www.w3.org/Graphics/SVG/1.1/DTD/svg11.dtd">
<!-- Generated by graphviz version 2.38.0 (20140413.2041)
 -->
<!-- Title: project.android.net.NetworkService.onStartCommand Pages: 1 -->
<!--zoomable 207 -->
<svg id="main" version="1.1" xmlns="http://www.w3.org/2000/svg" xmlns:xlink="http://www.w3.org/1999/xlink" xml:space="preserve" onload="init(evt)">
<style type="text/css"><![CDATA[
.edge:hover path { stroke: red; }
.edge:hover polygon { stroke: red; fill: red; }
]]></style>
<script type="text/javascript"><![CDATA[
var edges = document.getElementsByTagName('g');
if (edges && edges.length) {
  for (var i=0;i<edges.length;i++) {
    if (edges[i].id.substr(0,4)=='edge') {
      edges[i].setAttribute('class','edge');
    }
  }
}
]]></script>
        <defs>
                <circle id="rim" cx="0" cy="0" r="7"/>
                <circle id="rim2" cx="0" cy="0" r="3.5"/>
                <g id="zoomPlus">
                        <use xlink:href="#rim" fill="#404040">
                                <set attributeName="fill" to="#808080" begin="zoomplus.mouseover" end="zoomplus.mouseout"/>
                        </use>
                        <path d="M-4,0h8M0,-4v8" fill="none" stroke="white" stroke-width="1.5" pointer-events="none"/>
                </g>
                <g id="zoomMin">
                        <use xlink:href="#rim" fill="#404040">
                                <set attributeName="fill" to="#808080" begin="zoomminus.mouseover" end="zoomminus.mouseout"/>
                        </use>
                        <path d="M-4,0h8" fill="none" stroke="white" stroke-width="1.5" pointer-events="none"/>
                </g>
                <g id="dirArrow">
                        <path fill="none" stroke="white" stroke-width="1.5" d="M0,-3.0v7 M-2.5,-0.5L0,-3.0L2.5,-0.5"/>
                </g>
               <g id="resetDef">
                       <use xlink:href="#rim2" fill="#404040">
                               <set attributeName="fill" to="#808080" begin="reset.mouseover" end="reset.mouseout"/>
                       </use>
               </g>
        </defs>

<script type="text/javascript">
var viewWidth = 1275;
var viewHeight = 207;
var sectionId = 'dynsection-1';
</script>
<script xlink:href="../../svgpan.js"/>
<svg id="graph" class="graph">
<g id="viewport">
<title>project.android.net.NetworkService.onStartCommand</title>
<polygon fill="white" stroke="none" points="-4,4 -4,-203 1271,-203 1271,4 -4,4"/>
<!-- Node4 -->
<g id="node1" class="node"><title>Node4</title>
<polygon fill="#bfbfbf" stroke="black" points="0,-44.5 0,-70.5 116,-70.5 116,-44.5 0,-44.5"/>
<text text-anchor="start" x="8" y="-60.1" font-family="Helvetica,sans-Serif" font-size="8.00">project.android.net.Network</text>
<text text-anchor="middle" x="58" y="-51.1" font-family="Helvetica,sans-Serif" font-size="8.00">Service.onStartCommand</text>
</g>
<!-- Node5 -->
<g id="node2" class="node"><title>Node5</title>
<g id="a_node2"><a xlink:href="../../d7/d25/a00182.html#a2025eaa4f93363e6f4a03b26d7c4f8f6" target="_top" xlink:title="Returns the project.android.ConnectionFragment object. ">
<polygon fill="white" stroke="black" points="152,-67.5 152,-93.5 279,-93.5 279,-67.5 152,-67.5"/>
<text text-anchor="start" x="160" y="-83.1" font-family="Helvetica,sans-Serif" font-size="8.00">project.android.MainActivity.get</text>
<text text-anchor="middle" x="215.5" y="-74.1" font-family="Helvetica,sans-Serif" font-size="8.00">ConnectionFragment</text>
</a>
</g>
</g>
<!-- Node4&#45;&gt;Node5 -->
<g id="edge1" class="edge"><title>Node4&#45;&gt;Node5</title>
<path fill="none" stroke="midnightblue" d="M116.019,-65.9338C124.43,-67.1778 133.19,-68.4734 141.864,-69.7564"/>
<polygon fill="midnightblue" stroke="midnightblue" points="141.578,-73.252 151.982,-71.253 142.602,-66.3274 141.578,-73.252"/>
</g>
<!-- Node6 -->
<g id="node3" class="node"><title>Node6</title>
<g id="a_node3"><a xlink:href="../../d9/d38/a00166.html#af0e6f7c8aa02553792fd18fbb5e98a2e" target="_top" xlink:title="Sets an icon for an active server. ">
<polygon fill="white" stroke="black" points="159,-22.5 159,-48.5 272,-48.5 272,-22.5 159,-22.5"/>
<text text-anchor="start" x="167" y="-38.1" font-family="Helvetica,sans-Serif" font-size="8.00">project.android.Connection</text>
<text text-anchor="middle" x="215.5" y="-29.1" font-family="Helvetica,sans-Serif" font-size="8.00">Fragment.setIcon</text>
</a>
</g>
</g>
<!-- Node4&#45;&gt;Node6 -->
<g id="edge2" class="edge"><title>Node4&#45;&gt;Node6</title>
<path fill="none" stroke="midnightblue" d="M116.019,-49.4329C126.704,-47.9213 137.952,-46.3299 148.873,-44.7849"/>
<polygon fill="midnightblue" stroke="midnightblue" points="149.374,-48.249 158.785,-43.3825 148.393,-41.318 149.374,-48.249"/>
</g>
<!-- Node7 -->
<g id="node4" class="node"><title>Node7</title>
<g id="a_node4"><a xlink:href="../../d9/d38/a00166.html#a863b30e1ce16c16e6dba6bebe8d8c45e" target="_top" xlink:title="Returns the View of the clicked list item. ">
<polygon fill="white" stroke="black" points="315,-64.5 315,-90.5 434,-90.5 434,-64.5 315,-64.5"/>
<text text-anchor="start" x="323" y="-80.1" font-family="Helvetica,sans-Serif" font-size="8.00">project.android.Connection</text>
<text text-anchor="middle" x="374.5" y="-71.1" font-family="Helvetica,sans-Serif" font-size="8.00">Fragment.getViewByPosition</text>
</a>
</g>
</g>
<!-- Node6&#45;&gt;Node7 -->
<g id="edge3" class="edge"><title>Node6&#45;&gt;Node7</title>
<path fill="none" stroke="midnightblue" d="M265.315,-48.5588C280.969,-52.7466 298.471,-57.4284 314.758,-61.7856"/>
<polygon fill="midnightblue" stroke="midnightblue" points="314.15,-65.246 324.715,-64.4492 315.959,-58.4838 314.15,-65.246"/>
</g>
<!-- Node11 -->
<g id="node8" class="node"><title>Node11</title>
<g id="a_node8"><a xlink:href="../../d0/d24/a00222.html#a914c65a49cf5940901d475693ee8e205" target="_top" xlink:title="Returns the IPv4 address of the server. ">
<polygon fill="white" stroke="black" points="822,-0.5 822,-26.5 932,-26.5 932,-0.5 822,-0.5"/>
<text text-anchor="start" x="830" y="-16.1" font-family="Helvetica,sans-Serif" font-size="8.00">project.android.net.Server</text>
<text text-anchor="middle" x="877" y="-7.1" font-family="Helvetica,sans-Serif" font-size="8.00">Info.getAddress</text>
</a>
</g>
</g>
<!-- Node6&#45;&gt;Node11 -->
<g id="edge18" class="edge"><title>Node6&#45;&gt;Node11</title>
<path fill="none" stroke="midnightblue" d="M272.051,-31.7339C356.763,-26.1986 523.342,-16.1299 665,-12.5 715.206,-11.2135 727.778,-12.2438 778,-12.5 788.877,-12.5555 800.434,-12.6456 811.651,-12.7497"/>
<polygon fill="midnightblue" stroke="midnightblue" points="811.795,-16.2511 821.829,-12.8485 811.863,-9.25145 811.795,-16.2511"/>
</g>
<!-- Node18 -->
<g id="node15" class="node"><title>Node18</title>
<g id="a_node15"><a xlink:href="../../d0/d24/a00222.html#adc1c8edd1eafda5cad71f9babd18dfd4" target="_top" xlink:title="Returns the canonical host name of the server. ">
<polygon fill="white" stroke="black" points="666.5,-22.5 666.5,-48.5 776.5,-48.5 776.5,-22.5 666.5,-22.5"/>
<text text-anchor="start" x="674.5" y="-38.1" font-family="Helvetica,sans-Serif" font-size="8.00">project.android.net.Server</text>
<text text-anchor="middle" x="721.5" y="-29.1" font-family="Helvetica,sans-Serif" font-size="8.00">Info.getServerInfo</text>
</a>
</g>
</g>
<!-- Node6&#45;&gt;Node18 -->
<g id="edge17" class="edge"><title>Node6&#45;&gt;Node18</title>
<path fill="none" stroke="midnightblue" d="M272.363,-35.5C366.549,-35.5 556.402,-35.5 656.066,-35.5"/>
<polygon fill="midnightblue" stroke="midnightblue" points="656.3,-39.0001 666.3,-35.5 656.3,-32.0001 656.3,-39.0001"/>
</g>
<!-- Node8 -->
<g id="node5" class="node"><title>Node8</title>
<g id="a_node5"><a xlink:href="../../d5/dcb/a00170.html#aeff09458fb87bd73b69188560508baf5" target="_top" xlink:title="Overrides ArrayAdapter.getView(int, View, ViewGroup) method. ">
<polygon fill="white" stroke="black" points="470,-69 470,-86 629,-86 629,-69 470,-69"/>
<text text-anchor="middle" x="549.5" y="-75.6" font-family="Helvetica,sans-Serif" font-size="8.00">project.android.CustomAdapter.getView</text>
</a>
</g>
</g>
<!-- Node7&#45;&gt;Node8 -->
<g id="edge4" class="edge"><title>Node7&#45;&gt;Node8</title>
<path fill="none" stroke="midnightblue" d="M434.07,-77.5C442.313,-77.5 450.936,-77.5 459.59,-77.5"/>
<polygon fill="midnightblue" stroke="midnightblue" points="459.744,-81.0001 469.744,-77.5 459.744,-74.0001 459.744,-81.0001"/>
</g>
<!-- Node9 -->
<g id="node6" class="node"><title>Node9</title>
<g id="a_node6"><a xlink:href="../../d9/d38/a00166.html#aee2a392b8b0500023dba15b60d3315d2" target="_top" xlink:title="Returns a list of ServerInfo objects. ">
<polygon fill="white" stroke="black" points="665,-106.5 665,-132.5 778,-132.5 778,-106.5 665,-106.5"/>
<text text-anchor="start" x="673" y="-122.1" font-family="Helvetica,sans-Serif" font-size="8.00">project.android.Connection</text>
<text text-anchor="middle" x="721.5" y="-113.1" font-family="Helvetica,sans-Serif" font-size="8.00">Fragment.getNetworkList</text>
</a>
</g>
</g>
<!-- Node8&#45;&gt;Node9 -->
<g id="edge5" class="edge"><title>Node8&#45;&gt;Node9</title>
<path fill="none" stroke="midnightblue" d="M585.312,-86.1007C606.144,-91.2474 633.242,-97.9422 657.702,-103.985"/>
<polygon fill="midnightblue" stroke="midnightblue" points="657.092,-107.44 667.639,-106.44 658.771,-100.644 657.092,-107.44"/>
</g>
<!-- Node8&#45;&gt;Node11 -->
<g id="edge16" class="edge"><title>Node8&#45;&gt;Node11</title>
<path fill="none" stroke="midnightblue" d="M629.15,-79.3804C673.809,-78.2949 730.172,-73.2497 778,-57.5 795.81,-51.635 797.073,-43.5676 814,-35.5 817.828,-33.6757 821.849,-31.9178 825.928,-30.2455"/>
<polygon fill="midnightblue" stroke="midnightblue" points="827.445,-33.4101 835.483,-26.5076 824.895,-26.8911 827.445,-33.4101"/>
</g>
<!-- Node8&#45;&gt;Node18 -->
<g id="edge15" class="edge"><title>Node8&#45;&gt;Node18</title>
<path fill="none" stroke="midnightblue" d="M585.312,-68.8993C606.144,-63.7526 633.242,-57.0578 657.702,-51.0147"/>
<polygon fill="midnightblue" stroke="midnightblue" points="658.771,-54.3561 667.639,-48.5597 657.092,-47.5604 658.771,-54.3561"/>
</g>
<!-- Node10 -->
<g id="node7" class="node"><title>Node10</title>
<g id="a_node7"><a xlink:href="../../d9/d38/a00166.html#a5ae4f9d7872792288afb3de65ab4c2b0" target="_top" xlink:title="Sets an icon for an inactive server. ">
<polygon fill="white" stroke="black" points="820.5,-172.5 820.5,-198.5 933.5,-198.5 933.5,-172.5 820.5,-172.5"/>
<text text-anchor="start" x="828.5" y="-188.1" font-family="Helvetica,sans-Serif" font-size="8.00">project.android.Connection</text>
<text text-anchor="middle" x="877" y="-179.1" font-family="Helvetica,sans-Serif" font-size="8.00">Fragment.resetIcon</text>
</a>
</g>
</g>
<!-- Node9&#45;&gt;Node10 -->
<g id="edge6" class="edge"><title>Node9&#45;&gt;Node10</title>
<path fill="none" stroke="midnightblue" d="M748.663,-132.512C766.821,-141.365 791.664,-153.128 814,-162.5 819.029,-164.61 824.326,-166.729 829.618,-168.78"/>
<polygon fill="midnightblue" stroke="midnightblue" points="828.491,-172.096 839.082,-172.385 830.982,-165.555 828.491,-172.096"/>
</g>
<!-- Node9&#45;&gt;Node11 -->
<g id="edge8" class="edge"><title>Node9&#45;&gt;Node11</title>
<path fill="none" stroke="midnightblue" d="M755.453,-106.488C763.368,-102.425 771.425,-97.4236 778,-91.5 799.982,-71.6948 790.812,-53.8789 814,-35.5 815.782,-34.0877 817.661,-32.7621 819.613,-31.5181"/>
<polygon fill="midnightblue" stroke="midnightblue" points="821.494,-34.4773 828.548,-26.5719 818.104,-28.3531 821.494,-34.4773"/>
</g>
<!-- Node12 -->
<g id="node9" class="node"><title>Node12</title>
<g id="a_node9"><a xlink:href="../../d0/d24/a00222.html#a19b6bb0a1264932dfc136820ec21620f" target="_top" xlink:title="Sets the pairing key used during client&#45;server authentication. ">
<polygon fill="white" stroke="black" points="822,-45.5 822,-71.5 932,-71.5 932,-45.5 822,-45.5"/>
<text text-anchor="start" x="830" y="-61.1" font-family="Helvetica,sans-Serif" font-size="8.00">project.android.net.Server</text>
<text text-anchor="middle" x="877" y="-52.1" font-family="Helvetica,sans-Serif" font-size="8.00">Info.setPairingKey</text>
</a>
</g>
</g>
<!-- Node9&#45;&gt;Node12 -->
<g id="edge9" class="edge"><title>Node9&#45;&gt;Node12</title>
<path fill="none" stroke="midnightblue" d="M753.298,-106.364C770.991,-98.9042 793.668,-89.4896 814,-81.5 819.408,-79.3749 825.1,-77.1912 830.754,-75.055"/>
<polygon fill="midnightblue" stroke="midnightblue" points="832.04,-78.3111 840.175,-71.5237 829.582,-71.7565 832.04,-78.3111"/>
</g>
<!-- Node13 -->
<g id="node10" class="node"><title>Node13</title>
<g id="a_node10"><a xlink:href="../../dc/d57/a00194.html#aa23e2b087d09db0524a34b73cd5e07d3" target="_top" xlink:title="Sends a stop signal if the user disconnects the server. ">
<polygon fill="white" stroke="black" points="814.5,-127.5 814.5,-153.5 939.5,-153.5 939.5,-127.5 814.5,-127.5"/>
<text text-anchor="start" x="822.5" y="-143.1" font-family="Helvetica,sans-Serif" font-size="8.00">project.android.net.Client.send</text>
<text text-anchor="middle" x="877" y="-134.1" font-family="Helvetica,sans-Serif" font-size="8.00">StopSignal</text>
</a>
</g>
</g>
<!-- Node9&#45;&gt;Node13 -->
<g id="edge10" class="edge"><title>Node9&#45;&gt;Node13</title>
<path fill="none" stroke="midnightblue" d="M778.351,-127.141C786.792,-128.296 795.598,-129.5 804.316,-130.693"/>
<polygon fill="midnightblue" stroke="midnightblue" points="804.102,-134.196 814.484,-132.084 805.051,-127.261 804.102,-134.196"/>
</g>
<!-- Node17 -->
<g id="node14" class="node"><title>Node17</title>
<g id="a_node14"><a xlink:href="../../dc/d57/a00194.html#a2f8cb3f32f139e5c370c8b74f539368a" target="_top" xlink:title="Closes the client socket. ">
<polygon fill="white" stroke="black" points="814,-91 814,-108 940,-108 940,-91 814,-91"/>
<text text-anchor="middle" x="877" y="-97.6" font-family="Helvetica,sans-Serif" font-size="8.00">project.android.net.Client.close</text>
</a>
</g>
</g>
<!-- Node9&#45;&gt;Node17 -->
<g id="edge14" class="edge"><title>Node9&#45;&gt;Node17</title>
<path fill="none" stroke="midnightblue" d="M778.351,-112.223C786.669,-111.139 795.341,-110.009 803.935,-108.89"/>
<polygon fill="midnightblue" stroke="midnightblue" points="804.497,-112.346 813.961,-107.583 803.592,-105.405 804.497,-112.346"/>
</g>
<!-- Node10&#45;&gt;Node7 -->
<g id="edge7" class="edge"><title>Node10&#45;&gt;Node7</title>
<path fill="none" stroke="midnightblue" d="M820.43,-174.101C777.859,-165.323 717.683,-152.816 665,-141.5 589.001,-125.176 501.925,-105.84 443.287,-92.7265"/>
<polygon fill="midnightblue" stroke="midnightblue" points="443.926,-89.2831 433.403,-90.5148 442.398,-96.1141 443.926,-89.2831"/>
</g>
<!-- Node14 -->
<g id="node11" class="node"><title>Node14</title>
<g id="a_node11"><a xlink:href="../../dc/d57/a00194.html#a3d6c629d64e1911979c9f483c8785b5f" target="_top" xlink:title="Sends mouse button or keyboard data. ">
<polygon fill="white" stroke="black" points="976,-132 976,-149 1119,-149 1119,-132 976,-132"/>
<text text-anchor="middle" x="1047.5" y="-138.6" font-family="Helvetica,sans-Serif" font-size="8.00">project.android.net.Client.sendData</text>
</a>
</g>
</g>
<!-- Node13&#45;&gt;Node14 -->
<g id="edge11" class="edge"><title>Node13&#45;&gt;Node14</title>
<path fill="none" stroke="midnightblue" d="M939.786,-140.5C948.225,-140.5 956.988,-140.5 965.702,-140.5"/>
<polygon fill="midnightblue" stroke="midnightblue" points="965.886,-144 975.886,-140.5 965.886,-137 965.886,-144"/>
</g>
<!-- Node15 -->
<g id="node12" class="node"><title>Node15</title>
<g id="a_node12"><a xlink:href="../../da/de7/a00210.html#af8add0417bec5bd0d019410c91f69e38" target="_top" xlink:title="Returns a JSon&#45;string of an object. ">
<polygon fill="white" stroke="black" points="1159.5,-150.5 1159.5,-176.5 1262.5,-176.5 1262.5,-150.5 1159.5,-150.5"/>
<text text-anchor="start" x="1167.5" y="-166.1" font-family="Helvetica,sans-Serif" font-size="8.00">project.android.net.Data</text>
<text text-anchor="middle" x="1211" y="-157.1" font-family="Helvetica,sans-Serif" font-size="8.00">Wrapper.getGsonString</text>
</a>
</g>
</g>
<!-- Node14&#45;&gt;Node15 -->
<g id="edge12" class="edge"><title>Node14&#45;&gt;Node15</title>
<path fill="none" stroke="midnightblue" d="M1108.64,-149.064C1121.93,-150.957 1136.02,-152.964 1149.33,-154.86"/>
<polygon fill="midnightblue" stroke="midnightblue" points="1148.94,-158.34 1159.34,-156.285 1149.93,-151.41 1148.94,-158.34"/>
</g>
<!-- Node16 -->
<g id="node13" class="node"><title>Node16</title>
<g id="a_node13"><a xlink:href="../../dc/d55/a00226.html#a73624750dc6ff111d72bcb4b54c4995c" target="_top" xlink:title="Encrypts plaintext using AES 256&#45;bit encryption algorithm. ">
<polygon fill="white" stroke="black" points="1155,-105.5 1155,-131.5 1267,-131.5 1267,-105.5 1155,-105.5"/>
<text text-anchor="start" x="1163" y="-121.1" font-family="Helvetica,sans-Serif" font-size="8.00">project.android.security.</text>
<text text-anchor="middle" x="1211" y="-112.1" font-family="Helvetica,sans-Serif" font-size="8.00">EKEProvider.encryptString</text>
</a>
</g>
</g>
<!-- Node14&#45;&gt;Node16 -->
<g id="edge13" class="edge"><title>Node14&#45;&gt;Node16</title>
<path fill="none" stroke="midnightblue" d="M1110.94,-131.994C1122.02,-130.485 1133.58,-128.91 1144.73,-127.391"/>
<polygon fill="midnightblue" stroke="midnightblue" points="1145.4,-130.833 1154.83,-126.015 1144.45,-123.897 1145.4,-130.833"/>
</g>
</g>
</svg>
        <g id="navigator" transform="translate(0 0)" fill="#404254">
                <rect fill="#f2f5e9" fill-opacity="0.5" stroke="#606060" stroke-width=".5" x="0" y="0" width="60" height="60"/>
                <use id="zoomplus" xlink:href="#zoomPlus" x="17" y="9" onmousedown="handleZoom(evt,'in')"/>
                <use id="zoomminus" xlink:href="#zoomMin" x="42" y="9" onmousedown="handleZoom(evt,'out')"/>
                <use id="reset" xlink:href="#resetDef" x="30" y="36" onmousedown="handleReset()"/>
                <g id="arrowUp" xlink:href="#dirArrow" transform="translate(30 24)" onmousedown="handlePan(0,-1)">
                  <use xlink:href="#rim" fill="#404040">
                        <set attributeName="fill" to="#808080" begin="arrowUp.mouseover" end="arrowUp.mouseout"/>
                  </use>
                  <path fill="none" stroke="white" stroke-width="1.5" d="M0,-3.0v7 M-2.5,-0.5L0,-3.0L2.5,-0.5"/>
                </g>
                <g id="arrowRight" xlink:href="#dirArrow" transform="rotate(90) translate(36 -43)" onmousedown="handlePan(1,0)">
                  <use xlink:href="#rim" fill="#404040">
                        <set attributeName="fill" to="#808080" begin="arrowRight.mouseover" end="arrowRight.mouseout"/>
                  </use>
                  <path fill="none" stroke="white" stroke-width="1.5" d="M0,-3.0v7 M-2.5,-0.5L0,-3.0L2.5,-0.5"/>
                </g>
                <g id="arrowDown" xlink:href="#dirArrow" transform="rotate(180) translate(-30 -48)" onmousedown="handlePan(0,1)">
                  <use xlink:href="#rim" fill="#404040">
                        <set attributeName="fill" to="#808080" begin="arrowDown.mouseover" end="arrowDown.mouseout"/>
                  </use>
                  <path fill="none" stroke="white" stroke-width="1.5" d="M0,-3.0v7 M-2.5,-0.5L0,-3.0L2.5,-0.5"/>
                </g>
                <g id="arrowLeft" xlink:href="#dirArrow" transform="rotate(270) translate(-36 17)" onmousedown="handlePan(-1,0)">
                  <use xlink:href="#rim" fill="#404040">
                        <set attributeName="fill" to="#808080" begin="arrowLeft.mouseover" end="arrowLeft.mouseout"/>
                  </use>
                  <path fill="none" stroke="white" stroke-width="1.5" d="M0,-3.0v7 M-2.5,-0.5L0,-3.0L2.5,-0.5"/>
                </g>
        </g>
        <svg viewBox="0 0 15 15" width="100%" height="30px" preserveAspectRatio="xMaxYMin meet">
         <g id="arrow_out" transform="scale(0.3 0.3)">
          <a xlink:href="a00218_a6b623423ab726a2d5008717960032b6d_cgraph_org.svg" target="_base">
           <rect id="button" ry="5" rx="5" y="6" x="6" height="38" width="38"
                fill="#f2f5e9" fill-opacity="0.5" stroke="#606060" stroke-width="1.0"/>
           <path id="arrow"
             d="M 11.500037,31.436501 C 11.940474,20.09759 22.043105,11.32322 32.158766,21.979434 L 37.068811,17.246167 C 37.068811,17.246167 37.088388,32 37.088388,32 L 22.160133,31.978069 C 22.160133,31.978069 26.997745,27.140456 26.997745,27.140456 C 18.528582,18.264221 13.291696,25.230495 11.500037,31.436501 z"
             style="fill:#404040;"/>
          </a>
         </g>
        </svg>
</svg>
