<?xml version="1.0" encoding="UTF-8" standalone="no"?>
<!DOCTYPE svg PUBLIC "-//W3C//DTD SVG 1.1//EN"
 "http://www.w3.org/Graphics/SVG/1.1/DTD/svg11.dtd">
<!-- Generated by graphviz version 2.38.0 (20140413.2041)
 -->
<!-- Title: project.android.KeyboardFragment Pages: 1 -->
<svg width="484pt" height="247pt"
 viewBox="0.00 0.00 484.00 247.00" xmlns="http://www.w3.org/2000/svg" xmlns:xlink="http://www.w3.org/1999/xlink">
<g id="graph0" class="graph" transform="scale(1 1) rotate(0) translate(4 243)">
<title>project.android.KeyboardFragment</title>
<polygon fill="white" stroke="none" points="-4,4 -4,-243 480,-243 480,4 -4,4"/>
<!-- Node0 -->
<g id="node1" class="node"><title>Node0</title>
<polygon fill="#bfbfbf" stroke="black" points="162.5,-0.5 162.5,-141.5 269.5,-141.5 269.5,-0.5 162.5,-0.5"/>
<text text-anchor="start" x="170.5" y="-131.1" font-family="Helvetica,sans-Serif" font-size="8.00">project.android.Keyboard</text>
<text text-anchor="middle" x="216" y="-122.1" font-family="Helvetica,sans-Serif" font-size="8.00">Fragment</text>
<polyline fill="none" stroke="black" points="162.5,-115.5 269.5,-115.5 "/>
<text text-anchor="middle" x="216" y="-105.1" font-family="Helvetica,sans-Serif" font-size="8.00"> </text>
<polyline fill="none" stroke="black" points="162.5,-98.5 269.5,-98.5 "/>
<text text-anchor="start" x="170.5" y="-88.1" font-family="Helvetica,sans-Serif" font-size="8.00">+ afterTextChanged()</text>
<text text-anchor="start" x="170.5" y="-79.1" font-family="Helvetica,sans-Serif" font-size="8.00">+ beforeTextChanged()</text>
<text text-anchor="start" x="170.5" y="-70.1" font-family="Helvetica,sans-Serif" font-size="8.00">+ onCheckedChanged()</text>
<text text-anchor="start" x="170.5" y="-61.1" font-family="Helvetica,sans-Serif" font-size="8.00">+ onClick()</text>
<text text-anchor="start" x="170.5" y="-52.1" font-family="Helvetica,sans-Serif" font-size="8.00">+ onCreateView()</text>
<text text-anchor="start" x="170.5" y="-43.1" font-family="Helvetica,sans-Serif" font-size="8.00">+ onDestroyView()</text>
<text text-anchor="start" x="170.5" y="-34.1" font-family="Helvetica,sans-Serif" font-size="8.00">+ onKey()</text>
<text text-anchor="start" x="170.5" y="-25.1" font-family="Helvetica,sans-Serif" font-size="8.00">+ onPause()</text>
<text text-anchor="start" x="170.5" y="-16.1" font-family="Helvetica,sans-Serif" font-size="8.00">+ onResume()</text>
<text text-anchor="start" x="170.5" y="-7.1" font-family="Helvetica,sans-Serif" font-size="8.00">+ onTextChanged()</text>
</g>
<!-- Node1 -->
<g id="node2" class="node"><title>Node1</title>
<polygon fill="white" stroke="#bfbfbf" points="0,-183 0,-234 52,-234 52,-183 0,-183"/>
<text text-anchor="middle" x="26" y="-223.6" font-family="Helvetica,sans-Serif" font-size="8.00">Fragment</text>
<polyline fill="none" stroke="#bfbfbf" points="0,-217 52,-217 "/>
<text text-anchor="middle" x="26" y="-206.6" font-family="Helvetica,sans-Serif" font-size="8.00"> </text>
<polyline fill="none" stroke="#bfbfbf" points="0,-200 52,-200 "/>
<text text-anchor="middle" x="26" y="-189.6" font-family="Helvetica,sans-Serif" font-size="8.00"> </text>
</g>
<!-- Node1&#45;&gt;Node0 -->
<g id="edge1" class="edge"><title>Node1&#45;&gt;Node0</title>
<path fill="none" stroke="midnightblue" d="M60.1795,-178.626C60.4536,-178.416 60.7272,-178.207 61,-178 93.8284,-153.04 132.06,-126.865 162.339,-106.77"/>
<polygon fill="none" stroke="midnightblue" points="57.815,-176.034 52.1415,-184.982 62.1566,-181.525 57.815,-176.034"/>
</g>
<!-- Node2 -->
<g id="node3" class="node"><title>Node2</title>
<polygon fill="white" stroke="#bfbfbf" points="70.5,-183 70.5,-234 161.5,-234 161.5,-183 70.5,-183"/>
<text text-anchor="middle" x="116" y="-223.6" font-family="Helvetica,sans-Serif" font-size="8.00">View::OnKeyListener</text>
<polyline fill="none" stroke="#bfbfbf" points="70.5,-217 161.5,-217 "/>
<text text-anchor="middle" x="116" y="-206.6" font-family="Helvetica,sans-Serif" font-size="8.00"> </text>
<polyline fill="none" stroke="#bfbfbf" points="70.5,-200 161.5,-200 "/>
<text text-anchor="middle" x="116" y="-189.6" font-family="Helvetica,sans-Serif" font-size="8.00"> </text>
</g>
<!-- Node2&#45;&gt;Node0 -->
<g id="edge2" class="edge"><title>Node2&#45;&gt;Node0</title>
<path fill="none" stroke="midnightblue" d="M140.09,-174.857C147.533,-164.772 156.035,-153.253 164.591,-141.659"/>
<polygon fill="none" stroke="midnightblue" points="137.231,-172.838 134.109,-182.962 142.863,-176.994 137.231,-172.838"/>
</g>
<!-- Node3 -->
<g id="node4" class="node"><title>Node3</title>
<polygon fill="white" stroke="#bfbfbf" points="180,-183 180,-234 252,-234 252,-183 180,-183"/>
<text text-anchor="middle" x="216" y="-223.6" font-family="Helvetica,sans-Serif" font-size="8.00">OnClickListener</text>
<polyline fill="none" stroke="#bfbfbf" points="180,-217 252,-217 "/>
<text text-anchor="middle" x="216" y="-206.6" font-family="Helvetica,sans-Serif" font-size="8.00"> </text>
<polyline fill="none" stroke="#bfbfbf" points="180,-200 252,-200 "/>
<text text-anchor="middle" x="216" y="-189.6" font-family="Helvetica,sans-Serif" font-size="8.00"> </text>
</g>
<!-- Node3&#45;&gt;Node0 -->
<g id="edge3" class="edge"><title>Node3&#45;&gt;Node0</title>
<path fill="none" stroke="midnightblue" d="M216,-172.719C216,-163.159 216,-152.441 216,-141.659"/>
<polygon fill="none" stroke="midnightblue" points="212.5,-172.962 216,-182.962 219.5,-172.962 212.5,-172.962"/>
</g>
<!-- Node4 -->
<g id="node5" class="node"><title>Node4</title>
<polygon fill="white" stroke="#bfbfbf" points="270,-178.5 270,-238.5 396,-238.5 396,-178.5 270,-178.5"/>
<text text-anchor="start" x="278" y="-228.1" font-family="Helvetica,sans-Serif" font-size="8.00">CompoundButton::OnChecked</text>
<text text-anchor="middle" x="333" y="-219.1" font-family="Helvetica,sans-Serif" font-size="8.00">ChangeListener</text>
<polyline fill="none" stroke="#bfbfbf" points="270,-212.5 396,-212.5 "/>
<text text-anchor="middle" x="333" y="-202.1" font-family="Helvetica,sans-Serif" font-size="8.00"> </text>
<polyline fill="none" stroke="#bfbfbf" points="270,-195.5 396,-195.5 "/>
<text text-anchor="middle" x="333" y="-185.1" font-family="Helvetica,sans-Serif" font-size="8.00"> </text>
</g>
<!-- Node4&#45;&gt;Node0 -->
<g id="edge4" class="edge"><title>Node4&#45;&gt;Node0</title>
<path fill="none" stroke="midnightblue" d="M301.352,-170.848C291.571,-159.52 280.511,-146.711 269.673,-134.16"/>
<polygon fill="none" stroke="midnightblue" points="298.716,-173.15 307.901,-178.432 304.014,-168.576 298.716,-173.15"/>
</g>
<!-- Node5 -->
<g id="node6" class="node"><title>Node5</title>
<polygon fill="white" stroke="#bfbfbf" points="414,-183 414,-234 476,-234 476,-183 414,-183"/>
<text text-anchor="middle" x="445" y="-223.6" font-family="Helvetica,sans-Serif" font-size="8.00">TextWatcher</text>
<polyline fill="none" stroke="#bfbfbf" points="414,-217 476,-217 "/>
<text text-anchor="middle" x="445" y="-206.6" font-family="Helvetica,sans-Serif" font-size="8.00"> </text>
<polyline fill="none" stroke="#bfbfbf" points="414,-200 476,-200 "/>
<text text-anchor="middle" x="445" y="-189.6" font-family="Helvetica,sans-Serif" font-size="8.00"> </text>
</g>
<!-- Node5&#45;&gt;Node0 -->
<g id="edge5" class="edge"><title>Node5&#45;&gt;Node0</title>
<path fill="none" stroke="midnightblue" d="M405.272,-178.176C405.181,-178.117 405.091,-178.059 405,-178 360.594,-149.33 308.001,-120.201 269.584,-99.7533"/>
<polygon fill="none" stroke="midnightblue" points="403.569,-181.248 413.817,-183.934 407.48,-175.443 403.569,-181.248"/>
</g>
</g>
</svg>
