<?xml version="1.0" encoding="UTF-8" standalone="no"?>
<!DOCTYPE svg PUBLIC "-//W3C//DTD SVG 1.1//EN"
 "http://www.w3.org/Graphics/SVG/1.1/DTD/svg11.dtd">
<!-- Generated by graphviz version 2.38.0 (20140413.2041)
 -->
<!-- Title: project.android.ConnectionFragment Pages: 1 -->
<!--zoomable 355 -->
<svg id="main" version="1.1" xmlns="http://www.w3.org/2000/svg" xmlns:xlink="http://www.w3.org/1999/xlink" xml:space="preserve" onload="init(evt)">
<style type="text/css"><![CDATA[
.edge:hover path { stroke: red; }
.edge:hover polygon { stroke: red; fill: red; }
]]></style>
<script type="text/javascript"><![CDATA[
var edges = document.getElementsByTagName('g');
if (edges && edges.length) {
  for (var i=0;i<edges.length;i++) {
    if (edges[i].id.substr(0,4)=='edge') {
      edges[i].setAttribute('class','edge');
    }
  }
}
]]></script>
        <defs>
                <circle id="rim" cx="0" cy="0" r="7"/>
                <circle id="rim2" cx="0" cy="0" r="3.5"/>
                <g id="zoomPlus">
                        <use xlink:href="#rim" fill="#404040">
                                <set attributeName="fill" to="#808080" begin="zoomplus.mouseover" end="zoomplus.mouseout"/>
                        </use>
                        <path d="M-4,0h8M0,-4v8" fill="none" stroke="white" stroke-width="1.5" pointer-events="none"/>
                </g>
                <g id="zoomMin">
                        <use xlink:href="#rim" fill="#404040">
                                <set attributeName="fill" to="#808080" begin="zoomminus.mouseover" end="zoomminus.mouseout"/>
                        </use>
                        <path d="M-4,0h8" fill="none" stroke="white" stroke-width="1.5" pointer-events="none"/>
                </g>
                <g id="dirArrow">
                        <path fill="none" stroke="white" stroke-width="1.5" d="M0,-3.0v7 M-2.5,-0.5L0,-3.0L2.5,-0.5"/>
                </g>
               <g id="resetDef">
                       <use xlink:href="#rim2" fill="#404040">
                               <set attributeName="fill" to="#808080" begin="reset.mouseover" end="reset.mouseout"/>
                       </use>
               </g>
        </defs>

<script type="text/javascript">
var viewWidth = 606;
var viewHeight = 355;
var sectionId = 'dynsection-0';
</script>
<script xlink:href="../../svgpan.js"/>
<svg id="graph" class="graph">
<g id="viewport">
<title>project.android.ConnectionFragment</title>
<polygon fill="white" stroke="none" points="-4,4 -4,-351 601.5,-351 601.5,4 -4,4"/>
<!-- Node0 -->
<g id="node1" class="node"><title>Node0</title>
<polygon fill="#bfbfbf" stroke="black" points="207,-0.5 207,-168.5 341,-168.5 341,-0.5 207,-0.5"/>
<text text-anchor="start" x="215" y="-158.1" font-family="Helvetica,sans-Serif" font-size="8.00">project.android.Connection</text>
<text text-anchor="middle" x="274" y="-149.1" font-family="Helvetica,sans-Serif" font-size="8.00">Fragment</text>
<polyline fill="none" stroke="black" points="207,-142.5 341,-142.5 "/>
<text text-anchor="middle" x="274" y="-132.1" font-family="Helvetica,sans-Serif" font-size="8.00"> </text>
<polyline fill="none" stroke="black" points="207,-125.5 341,-125.5 "/>
<text text-anchor="start" x="215" y="-115.1" font-family="Helvetica,sans-Serif" font-size="8.00">+ addItem()</text>
<text text-anchor="start" x="215" y="-106.1" font-family="Helvetica,sans-Serif" font-size="8.00">+ dismissAlertDialog()</text>
<text text-anchor="start" x="215" y="-97.1" font-family="Helvetica,sans-Serif" font-size="8.00">+ getViewByPosition()</text>
<text text-anchor="start" x="215" y="-88.1" font-family="Helvetica,sans-Serif" font-size="8.00">+ onCreateView()</text>
<text text-anchor="start" x="215" y="-79.1" font-family="Helvetica,sans-Serif" font-size="8.00">+ onPause()</text>
<text text-anchor="start" x="215" y="-70.1" font-family="Helvetica,sans-Serif" font-size="8.00">+ onRequestPermissionsResult()</text>
<text text-anchor="start" x="215" y="-61.1" font-family="Helvetica,sans-Serif" font-size="8.00">+ onResume()</text>
<text text-anchor="start" x="215" y="-52.1" font-family="Helvetica,sans-Serif" font-size="8.00">+ onViewCreated()</text>
<text text-anchor="start" x="215" y="-43.1" font-family="Helvetica,sans-Serif" font-size="8.00">+ removeItem()</text>
<text text-anchor="start" x="215" y="-34.1" font-family="Helvetica,sans-Serif" font-size="8.00">+ resetIcon()</text>
<text text-anchor="start" x="215" y="-25.1" font-family="Helvetica,sans-Serif" font-size="8.00">+ resetIcon()</text>
<text text-anchor="start" x="215" y="-16.1" font-family="Helvetica,sans-Serif" font-size="8.00">+ setIcon()</text>
<text text-anchor="start" x="215" y="-7.1" font-family="Helvetica,sans-Serif" font-size="8.00">~ getNetworkList()</text>
</g>
<!-- Node1 -->
<g id="node2" class="node"><title>Node1</title>
<polygon fill="white" stroke="#bfbfbf" points="0,-255 0,-306 52,-306 52,-255 0,-255"/>
<text text-anchor="middle" x="26" y="-295.6" font-family="Helvetica,sans-Serif" font-size="8.00">Fragment</text>
<polyline fill="none" stroke="#bfbfbf" points="0,-289 52,-289 "/>
<text text-anchor="middle" x="26" y="-278.6" font-family="Helvetica,sans-Serif" font-size="8.00"> </text>
<polyline fill="none" stroke="#bfbfbf" points="0,-272 52,-272 "/>
<text text-anchor="middle" x="26" y="-261.6" font-family="Helvetica,sans-Serif" font-size="8.00"> </text>
</g>
<!-- Node1&#45;&gt;Node0 -->
<g id="edge1" class="edge"><title>Node1&#45;&gt;Node0</title>
<path fill="none" stroke="midnightblue" d="M39.8236,-245.474C45.3267,-234.595 52.4183,-223.041 61,-214 102.18,-170.618 161.146,-136.565 206.601,-114.444"/>
<polygon fill="none" stroke="midnightblue" points="36.5315,-244.247 35.3989,-254.781 42.8535,-247.253 36.5315,-244.247"/>
</g>
<!-- Node2 -->
<g id="node3" class="node"><title>Node2</title>
<g id="a_node3"><a xlink:href="../../d0/d24/a00222.html" target="_top" xlink:title="Encapsulation of the data sent during UDP broadcast by the server. ">
<polygon fill="white" stroke="black" points="70.5,-219 70.5,-342 193.5,-342 193.5,-219 70.5,-219"/>
<text text-anchor="middle" x="132" y="-331.6" font-family="Helvetica,sans-Serif" font-size="8.00">project.android.net.ServerInfo</text>
<polyline fill="none" stroke="black" points="70.5,-325 193.5,-325 "/>
<text text-anchor="start" x="78.5" y="-314.6" font-family="Helvetica,sans-Serif" font-size="8.00">~ SERVER_INFO_LENGTH</text>
<polyline fill="none" stroke="black" points="70.5,-308 193.5,-308 "/>
<text text-anchor="start" x="78.5" y="-297.6" font-family="Helvetica,sans-Serif" font-size="8.00">+ ServerInfo()</text>
<text text-anchor="start" x="78.5" y="-288.6" font-family="Helvetica,sans-Serif" font-size="8.00">+ equals()</text>
<text text-anchor="start" x="78.5" y="-279.6" font-family="Helvetica,sans-Serif" font-size="8.00">+ getAddress()</text>
<text text-anchor="start" x="78.5" y="-270.6" font-family="Helvetica,sans-Serif" font-size="8.00">+ getServerInfo()</text>
<text text-anchor="start" x="78.5" y="-261.6" font-family="Helvetica,sans-Serif" font-size="8.00">+ setPairingKey()</text>
<text text-anchor="start" x="78.5" y="-252.6" font-family="Helvetica,sans-Serif" font-size="8.00">~ getPairingKey()</text>
<text text-anchor="start" x="78.5" y="-243.6" font-family="Helvetica,sans-Serif" font-size="8.00">~ getServerPubKey()</text>
<text text-anchor="start" x="78.5" y="-234.6" font-family="Helvetica,sans-Serif" font-size="8.00">~ getStopFlag()</text>
<text text-anchor="start" x="78.5" y="-225.6" font-family="Helvetica,sans-Serif" font-size="8.00">~ setServerAddress()</text>
</a>
</g>
</g>
<!-- Node2&#45;&gt;Node0 -->
<g id="edge2" class="edge"><title>Node2&#45;&gt;Node0</title>
<path fill="none" stroke="#404040" d="M176.346,-218.915C185.71,-206.122 195.797,-192.341 205.81,-178.661"/>
<polygon fill="none" stroke="#404040" points="205.989,-178.417 206.305,-171.213 213.076,-168.734 212.76,-175.938 205.989,-178.417"/>
<text text-anchor="middle" x="225" y="-189.6" font-family="Helvetica,sans-Serif" font-size="8.00"> +mServerInfo</text>
</g>
<!-- Node3 -->
<g id="node4" class="node"><title>Node3</title>
<polygon fill="white" stroke="#bfbfbf" points="212,-250.5 212,-310.5 336,-310.5 336,-250.5 212,-250.5"/>
<text text-anchor="start" x="220" y="-300.1" font-family="Helvetica,sans-Serif" font-size="8.00">ArrayList&lt; project.android.net.</text>
<text text-anchor="middle" x="274" y="-291.1" font-family="Helvetica,sans-Serif" font-size="8.00">ServerInfo &gt;</text>
<polyline fill="none" stroke="#bfbfbf" points="212,-284.5 336,-284.5 "/>
<text text-anchor="middle" x="274" y="-274.1" font-family="Helvetica,sans-Serif" font-size="8.00"> </text>
<polyline fill="none" stroke="#bfbfbf" points="212,-267.5 336,-267.5 "/>
<text text-anchor="middle" x="274" y="-257.1" font-family="Helvetica,sans-Serif" font-size="8.00"> </text>
</g>
<!-- Node3&#45;&gt;Node0 -->
<g id="edge3" class="edge"><title>Node3&#45;&gt;Node0</title>
<path fill="none" stroke="#404040" d="M274,-250.456C274,-231.659 274,-206.018 274,-180.557"/>
<polygon fill="none" stroke="#404040" points="274,-180.501 270,-174.501 274,-168.501 278,-174.501 274,-180.501"/>
<text text-anchor="middle" x="307" y="-189.6" font-family="Helvetica,sans-Serif" font-size="8.00"> +sSelectedServer</text>
</g>
<!-- Node4 -->
<g id="node5" class="node"><title>Node4</title>
<g id="a_node5"><a xlink:href="../../dc/d57/a00194.html" target="_top" xlink:title="Class representing the client. ">
<polygon fill="white" stroke="black" points="354,-214.5 354,-346.5 460,-346.5 460,-214.5 354,-214.5"/>
<text text-anchor="middle" x="407" y="-336.1" font-family="Helvetica,sans-Serif" font-size="8.00">project.android.net.Client</text>
<polyline fill="none" stroke="black" points="354,-329.5 460,-329.5 "/>
<text text-anchor="middle" x="407" y="-319.1" font-family="Helvetica,sans-Serif" font-size="8.00"> </text>
<polyline fill="none" stroke="black" points="354,-312.5 460,-312.5 "/>
<text text-anchor="start" x="362" y="-302.1" font-family="Helvetica,sans-Serif" font-size="8.00">+ Client()</text>
<text text-anchor="start" x="362" y="-293.1" font-family="Helvetica,sans-Serif" font-size="8.00">+ close()</text>
<text text-anchor="start" x="362" y="-284.1" font-family="Helvetica,sans-Serif" font-size="8.00">+ sendData()</text>
<text text-anchor="start" x="362" y="-275.1" font-family="Helvetica,sans-Serif" font-size="8.00">+ sendData()</text>
<text text-anchor="start" x="362" y="-266.1" font-family="Helvetica,sans-Serif" font-size="8.00">+ sendData()</text>
<text text-anchor="start" x="362" y="-257.1" font-family="Helvetica,sans-Serif" font-size="8.00">+ sendData()</text>
<text text-anchor="start" x="362" y="-248.1" font-family="Helvetica,sans-Serif" font-size="8.00">+ sendStopSignal()</text>
<text text-anchor="start" x="362" y="-239.1" font-family="Helvetica,sans-Serif" font-size="8.00">~ getSocketReader()</text>
<text text-anchor="start" x="362" y="-230.1" font-family="Helvetica,sans-Serif" font-size="8.00">~ sendPairingKey()</text>
<text text-anchor="start" x="362" y="-221.1" font-family="Helvetica,sans-Serif" font-size="8.00">~ setEKEProvider()</text>
</a>
</g>
</g>
<!-- Node4&#45;&gt;Node0 -->
<g id="edge4" class="edge"><title>Node4&#45;&gt;Node0</title>
<path fill="none" stroke="#404040" d="M362.647,-214.277C356.395,-205.112 350.041,-195.815 344,-187 342.136,-184.28 340.242,-181.519 338.33,-178.733"/>
<polygon fill="none" stroke="#404040" points="338.136,-178.452 331.442,-175.771 331.341,-168.561 338.036,-171.241 338.136,-178.452"/>
<text text-anchor="middle" x="380.5" y="-189.6" font-family="Helvetica,sans-Serif" font-size="8.00"> +sSecuredClient</text>
</g>
<!-- Node5 -->
<g id="node6" class="node"><title>Node5</title>
<polygon fill="white" stroke="#bfbfbf" points="478.5,-255 478.5,-306 597.5,-306 597.5,-255 478.5,-255"/>
<text text-anchor="middle" x="538" y="-295.6" font-family="Helvetica,sans-Serif" font-size="8.00">HashMap&lt; String, Boolean &gt;</text>
<polyline fill="none" stroke="#bfbfbf" points="478.5,-289 597.5,-289 "/>
<text text-anchor="middle" x="538" y="-278.6" font-family="Helvetica,sans-Serif" font-size="8.00"> </text>
<polyline fill="none" stroke="#bfbfbf" points="478.5,-272 597.5,-272 "/>
<text text-anchor="middle" x="538" y="-261.6" font-family="Helvetica,sans-Serif" font-size="8.00"> </text>
</g>
<!-- Node5&#45;&gt;Node0 -->
<g id="edge5" class="edge"><title>Node5&#45;&gt;Node0</title>
<path fill="none" stroke="#404040" d="M514.048,-254.748C501.192,-241.993 484.782,-226.529 469,-214 432.007,-184.631 388.3,-155.38 351.65,-132.223"/>
<polygon fill="none" stroke="#404040" points="351.181,-131.928 343.972,-132.126 341.017,-125.549 348.225,-125.35 351.181,-131.928"/>
<text text-anchor="middle" x="478" y="-189.6" font-family="Helvetica,sans-Serif" font-size="8.00"> +sConnectionAlive</text>
</g>
</g>
</svg>
        <g id="navigator" transform="translate(0 0)" fill="#404254">
                <rect fill="#f2f5e9" fill-opacity="0.5" stroke="#606060" stroke-width=".5" x="0" y="0" width="60" height="60"/>
                <use id="zoomplus" xlink:href="#zoomPlus" x="17" y="9" onmousedown="handleZoom(evt,'in')"/>
                <use id="zoomminus" xlink:href="#zoomMin" x="42" y="9" onmousedown="handleZoom(evt,'out')"/>
                <use id="reset" xlink:href="#resetDef" x="30" y="36" onmousedown="handleReset()"/>
                <g id="arrowUp" xlink:href="#dirArrow" transform="translate(30 24)" onmousedown="handlePan(0,-1)">
                  <use xlink:href="#rim" fill="#404040">
                        <set attributeName="fill" to="#808080" begin="arrowUp.mouseover" end="arrowUp.mouseout"/>
                  </use>
                  <path fill="none" stroke="white" stroke-width="1.5" d="M0,-3.0v7 M-2.5,-0.5L0,-3.0L2.5,-0.5"/>
                </g>
                <g id="arrowRight" xlink:href="#dirArrow" transform="rotate(90) translate(36 -43)" onmousedown="handlePan(1,0)">
                  <use xlink:href="#rim" fill="#404040">
                        <set attributeName="fill" to="#808080" begin="arrowRight.mouseover" end="arrowRight.mouseout"/>
                  </use>
                  <path fill="none" stroke="white" stroke-width="1.5" d="M0,-3.0v7 M-2.5,-0.5L0,-3.0L2.5,-0.5"/>
                </g>
                <g id="arrowDown" xlink:href="#dirArrow" transform="rotate(180) translate(-30 -48)" onmousedown="handlePan(0,1)">
                  <use xlink:href="#rim" fill="#404040">
                        <set attributeName="fill" to="#808080" begin="arrowDown.mouseover" end="arrowDown.mouseout"/>
                  </use>
                  <path fill="none" stroke="white" stroke-width="1.5" d="M0,-3.0v7 M-2.5,-0.5L0,-3.0L2.5,-0.5"/>
                </g>
                <g id="arrowLeft" xlink:href="#dirArrow" transform="rotate(270) translate(-36 17)" onmousedown="handlePan(-1,0)">
                  <use xlink:href="#rim" fill="#404040">
                        <set attributeName="fill" to="#808080" begin="arrowLeft.mouseover" end="arrowLeft.mouseout"/>
                  </use>
                  <path fill="none" stroke="white" stroke-width="1.5" d="M0,-3.0v7 M-2.5,-0.5L0,-3.0L2.5,-0.5"/>
                </g>
        </g>
        <svg viewBox="0 0 15 15" width="100%" height="30px" preserveAspectRatio="xMaxYMin meet">
         <g id="arrow_out" transform="scale(0.3 0.3)">
          <a xlink:href="a00164_org.svg" target="_base">
           <rect id="button" ry="5" rx="5" y="6" x="6" height="38" width="38"
                fill="#f2f5e9" fill-opacity="0.5" stroke="#606060" stroke-width="1.0"/>
           <path id="arrow"
             d="M 11.500037,31.436501 C 11.940474,20.09759 22.043105,11.32322 32.158766,21.979434 L 37.068811,17.246167 C 37.068811,17.246167 37.088388,32 37.088388,32 L 22.160133,31.978069 C 22.160133,31.978069 26.997745,27.140456 26.997745,27.140456 C 18.528582,18.264221 13.291696,25.230495 11.500037,31.436501 z"
             style="fill:#404040;"/>
          </a>
         </g>
        </svg>
</svg>
