<?xml version="1.0" encoding="UTF-8" standalone="no"?>
<!DOCTYPE svg PUBLIC "-//W3C//DTD SVG 1.1//EN"
 "http://www.w3.org/Graphics/SVG/1.1/DTD/svg11.dtd">
<!-- Generated by graphviz version 2.38.0 (20140413.2041)
 -->
<!-- Title: project.android.net.BroadcastReceiverThread.BroadcastReceiverThread Pages: 1 -->
<svg width="315pt" height="44pt"
 viewBox="0.00 0.00 315.00 44.00" xmlns="http://www.w3.org/2000/svg" xmlns:xlink="http://www.w3.org/1999/xlink">
<g id="graph0" class="graph" transform="scale(1 1) rotate(0) translate(4 40)">
<title>project.android.net.BroadcastReceiverThread.BroadcastReceiverThread</title>
<polygon fill="white" stroke="none" points="-4,4 -4,-40 311,-40 311,4 -4,4"/>
<!-- Node0 -->
<g id="node1" class="node"><title>Node0</title>
<polygon fill="#bfbfbf" stroke="black" points="0,-0.5 0,-35.5 144,-35.5 144,-0.5 0,-0.5"/>
<text text-anchor="start" x="8" y="-25.1" font-family="Helvetica,sans-Serif" font-size="8.00">project.android.net.Broadcast</text>
<text text-anchor="start" x="8" y="-16.1" font-family="Helvetica,sans-Serif" font-size="8.00">ReceiverThread.BroadcastReceiver</text>
<text text-anchor="middle" x="72" y="-7.1" font-family="Helvetica,sans-Serif" font-size="8.00">Thread</text>
</g>
<!-- Node1 -->
<g id="node2" class="node"><title>Node1</title>
<g id="a_node2"><a xlink:href="../../d7/d25/a00182.html#a2025eaa4f93363e6f4a03b26d7c4f8f6" target="_top" xlink:title="Returns the project.android.ConnectionFragment object. ">
<polygon fill="white" stroke="black" points="180,-5 180,-31 307,-31 307,-5 180,-5"/>
<text text-anchor="start" x="188" y="-20.6" font-family="Helvetica,sans-Serif" font-size="8.00">project.android.MainActivity.get</text>
<text text-anchor="middle" x="243.5" y="-11.6" font-family="Helvetica,sans-Serif" font-size="8.00">ConnectionFragment</text>
</a>
</g>
</g>
<!-- Node0&#45;&gt;Node1 -->
<g id="edge1" class="edge"><title>Node0&#45;&gt;Node1</title>
<path fill="none" stroke="midnightblue" d="M144.392,-18C152.754,-18 161.294,-18 169.675,-18"/>
<polygon fill="midnightblue" stroke="midnightblue" points="169.797,-21.5001 179.796,-18 169.796,-14.5001 169.797,-21.5001"/>
</g>
</g>
</svg>
