<?xml version="1.0" encoding="UTF-8" standalone="no"?>
<!DOCTYPE svg PUBLIC "-//W3C//DTD SVG 1.1//EN"
 "http://www.w3.org/Graphics/SVG/1.1/DTD/svg11.dtd">
<!-- Generated by graphviz version 2.38.0 (20140413.2041)
 -->
<!-- Title: project.android.net.BroadcastReceiverThread.run Pages: 1 -->
<svg width="431pt" height="237pt"
 viewBox="0.00 0.00 431.00 237.01" xmlns="http://www.w3.org/2000/svg" xmlns:xlink="http://www.w3.org/1999/xlink">
<g id="graph0" class="graph" transform="scale(1 1) rotate(0) translate(4 233.007)">
<title>project.android.net.BroadcastReceiverThread.run</title>
<polygon fill="white" stroke="none" points="-4,4 -4,-233.007 427,-233.007 427,4 -4,4"/>
<!-- Node3 -->
<g id="node1" class="node"><title>Node3</title>
<polygon fill="#bfbfbf" stroke="black" points="0,-112.5 0,-138.5 122,-138.5 122,-112.5 0,-112.5"/>
<text text-anchor="start" x="8" y="-128.1" font-family="Helvetica,sans-Serif" font-size="8.00">project.android.net.Broadcast</text>
<text text-anchor="middle" x="61" y="-119.1" font-family="Helvetica,sans-Serif" font-size="8.00">ReceiverThread.run</text>
</g>
<!-- Node4 -->
<g id="node2" class="node"><title>Node4</title>
<g id="a_node2"><a xlink:href="../../d0/d24/a00222.html#a914c65a49cf5940901d475693ee8e205" target="_top" xlink:title="Returns the IPv4 address of the server. ">
<polygon fill="white" stroke="black" points="313,-156.5 313,-182.5 423,-182.5 423,-156.5 313,-156.5"/>
<text text-anchor="start" x="321" y="-172.1" font-family="Helvetica,sans-Serif" font-size="8.00">project.android.net.Server</text>
<text text-anchor="middle" x="368" y="-163.1" font-family="Helvetica,sans-Serif" font-size="8.00">Info.getAddress</text>
</a>
</g>
</g>
<!-- Node3&#45;&gt;Node4 -->
<g id="edge1" class="edge"><title>Node3&#45;&gt;Node4</title>
<path fill="none" stroke="midnightblue" d="M70.708,-138.643C85.6235,-159.812 118.322,-200.683 158,-216.5 207.129,-236.085 225.635,-229.104 277,-216.5 299.389,-211.006 322.391,-198.859 339.536,-188.291"/>
<polygon fill="midnightblue" stroke="midnightblue" points="341.864,-190.958 348.418,-182.634 338.103,-185.054 341.864,-190.958"/>
</g>
<!-- Node5 -->
<g id="node3" class="node"><title>Node5</title>
<g id="a_node3"><a xlink:href="../../d0/d24/a00222.html#a5edc2db7c6ec4fffda531750db1d1232" target="_top" xlink:title="Sets the IPv4 server address. ">
<polygon fill="white" stroke="black" points="162.5,-180.5 162.5,-206.5 272.5,-206.5 272.5,-180.5 162.5,-180.5"/>
<text text-anchor="start" x="170.5" y="-196.1" font-family="Helvetica,sans-Serif" font-size="8.00">project.android.net.Server</text>
<text text-anchor="middle" x="217.5" y="-187.1" font-family="Helvetica,sans-Serif" font-size="8.00">Info.setServerAddress</text>
</a>
</g>
</g>
<!-- Node3&#45;&gt;Node5 -->
<g id="edge2" class="edge"><title>Node3&#45;&gt;Node5</title>
<path fill="none" stroke="midnightblue" d="M87.7964,-138.615C106.965,-148.174 133.862,-161.201 158,-171.5 162.154,-173.272 166.504,-175.05 170.876,-176.785"/>
<polygon fill="midnightblue" stroke="midnightblue" points="169.827,-180.132 180.416,-180.493 172.364,-173.608 169.827,-180.132"/>
</g>
<!-- Node6 -->
<g id="node4" class="node"><title>Node6</title>
<g id="a_node4"><a xlink:href="../../d0/d24/a00222.html#a634b659a2b29b7f535176089efa7b7f6" target="_top" xlink:title="Returns the status of the server. ">
<polygon fill="white" stroke="black" points="162.5,-135.5 162.5,-161.5 272.5,-161.5 272.5,-135.5 162.5,-135.5"/>
<text text-anchor="start" x="170.5" y="-151.1" font-family="Helvetica,sans-Serif" font-size="8.00">project.android.net.Server</text>
<text text-anchor="middle" x="217.5" y="-142.1" font-family="Helvetica,sans-Serif" font-size="8.00">Info.getStopFlag</text>
</a>
</g>
</g>
<!-- Node3&#45;&gt;Node6 -->
<g id="edge3" class="edge"><title>Node3&#45;&gt;Node6</title>
<path fill="none" stroke="midnightblue" d="M122.176,-134.458C131.986,-135.919 142.183,-137.437 152.09,-138.911"/>
<polygon fill="midnightblue" stroke="midnightblue" points="151.874,-142.418 162.28,-140.428 152.905,-135.494 151.874,-142.418"/>
</g>
<!-- Node7 -->
<g id="node5" class="node"><title>Node7</title>
<g id="a_node5"><a xlink:href="../../d9/d38/a00166.html#aa3204a474571d554c95ddb6bdd2ca012" target="_top" xlink:title="Removes the ServerInfo object of an inactive server from the list of servers. ">
<polygon fill="white" stroke="black" points="161,-90.5 161,-116.5 274,-116.5 274,-90.5 161,-90.5"/>
<text text-anchor="start" x="169" y="-106.1" font-family="Helvetica,sans-Serif" font-size="8.00">project.android.Connection</text>
<text text-anchor="middle" x="217.5" y="-97.1" font-family="Helvetica,sans-Serif" font-size="8.00">Fragment.removeItem</text>
</a>
</g>
</g>
<!-- Node3&#45;&gt;Node7 -->
<g id="edge4" class="edge"><title>Node3&#45;&gt;Node7</title>
<path fill="none" stroke="midnightblue" d="M122.176,-116.931C131.51,-115.602 141.193,-114.223 150.644,-112.878"/>
<polygon fill="midnightblue" stroke="midnightblue" points="151.373,-116.309 160.78,-111.434 150.386,-109.379 151.373,-116.309"/>
</g>
<!-- Node8 -->
<g id="node6" class="node"><title>Node8</title>
<g id="a_node6"><a xlink:href="../../d9/d38/a00166.html#a81fb8a4eaf36bfa8403d89c809e1a885" target="_top" xlink:title="Method to dismiss the alert dialog prompting the pairing key input. ">
<polygon fill="white" stroke="black" points="158,-45.5 158,-71.5 277,-71.5 277,-45.5 158,-45.5"/>
<text text-anchor="start" x="166" y="-61.1" font-family="Helvetica,sans-Serif" font-size="8.00">project.android.Connection</text>
<text text-anchor="middle" x="217.5" y="-52.1" font-family="Helvetica,sans-Serif" font-size="8.00">Fragment.dismissAlertDialog</text>
</a>
</g>
</g>
<!-- Node3&#45;&gt;Node8 -->
<g id="edge6" class="edge"><title>Node3&#45;&gt;Node8</title>
<path fill="none" stroke="midnightblue" d="M89.5467,-112.385C108.64,-103.416 134.718,-91.4033 158,-81.5 162.773,-79.4696 167.791,-77.4004 172.797,-75.3766"/>
<polygon fill="midnightblue" stroke="midnightblue" points="174.356,-78.523 182.344,-71.5631 171.759,-72.0224 174.356,-78.523"/>
</g>
<!-- Node9 -->
<g id="node7" class="node"><title>Node9</title>
<g id="a_node7"><a xlink:href="../../d9/d38/a00166.html#ae377ff5842d0ff978ce109e1f51c1917" target="_top" xlink:title="Adds the ServerInfo object of an active server to the list of servers. ">
<polygon fill="white" stroke="black" points="161,-0.5 161,-26.5 274,-26.5 274,-0.5 161,-0.5"/>
<text text-anchor="start" x="169" y="-16.1" font-family="Helvetica,sans-Serif" font-size="8.00">project.android.Connection</text>
<text text-anchor="middle" x="217.5" y="-7.1" font-family="Helvetica,sans-Serif" font-size="8.00">Fragment.addItem</text>
</a>
</g>
</g>
<!-- Node3&#45;&gt;Node9 -->
<g id="edge7" class="edge"><title>Node3&#45;&gt;Node9</title>
<path fill="none" stroke="midnightblue" d="M73.2011,-112.381C89.9736,-93.425 123.363,-58.2679 158,-36.5 161.191,-34.4948 164.585,-32.6121 168.07,-30.8553"/>
<polygon fill="midnightblue" stroke="midnightblue" points="169.838,-33.8929 177.429,-26.5014 166.885,-27.5461 169.838,-33.8929"/>
</g>
<!-- Node7&#45;&gt;Node4 -->
<g id="edge5" class="edge"><title>Node7&#45;&gt;Node4</title>
<path fill="none" stroke="midnightblue" d="M253.004,-116.595C260.931,-119.733 269.294,-123.149 277,-126.5 295.187,-134.408 315.113,-143.846 331.583,-151.863"/>
<polygon fill="midnightblue" stroke="midnightblue" points="330.321,-155.142 340.842,-156.396 333.4,-148.855 330.321,-155.142"/>
</g>
</g>
</svg>
