<?xml version="1.0" encoding="UTF-8" standalone="no"?>
<!DOCTYPE svg PUBLIC "-//W3C//DTD SVG 1.1//EN"
 "http://www.w3.org/Graphics/SVG/1.1/DTD/svg11.dtd">
<!-- Generated by graphviz version 2.38.0 (20140413.2041)
 -->
<!-- Title: project.android.net.DataWrapper.getGsonString Pages: 1 -->
<svg width="1395pt" height="115pt"
 viewBox="0.00 0.00 1395.00 115.00" xmlns="http://www.w3.org/2000/svg" xmlns:xlink="http://www.w3.org/1999/xlink">
<g id="graph0" class="graph" transform="scale(1 1) rotate(0) translate(4 111)">
<title>project.android.net.DataWrapper.getGsonString</title>
<polygon fill="white" stroke="none" points="-4,4 -4,-111 1391,-111 1391,4 -4,4"/>
<!-- Node12 -->
<g id="node1" class="node"><title>Node12</title>
<polygon fill="#bfbfbf" stroke="black" points="0,-39.5 0,-65.5 103,-65.5 103,-39.5 0,-39.5"/>
<text text-anchor="start" x="8" y="-55.1" font-family="Helvetica,sans-Serif" font-size="8.00">project.android.net.Data</text>
<text text-anchor="middle" x="51.5" y="-46.1" font-family="Helvetica,sans-Serif" font-size="8.00">Wrapper.getGsonString</text>
</g>
<!-- Node13 -->
<g id="node2" class="node"><title>Node13</title>
<g id="a_node2"><a xlink:href="../../dc/d57/a00194.html#a3d6c629d64e1911979c9f483c8785b5f" target="_top" xlink:title="Sends mouse button or keyboard data. ">
<polygon fill="white" stroke="black" points="139,-44 139,-61 282,-61 282,-44 139,-44"/>
<text text-anchor="middle" x="210.5" y="-50.6" font-family="Helvetica,sans-Serif" font-size="8.00">project.android.net.Client.sendData</text>
</a>
</g>
</g>
<!-- Node12&#45;&gt;Node13 -->
<g id="edge1" class="edge"><title>Node12&#45;&gt;Node13</title>
<path fill="none" stroke="midnightblue" d="M113.111,-52.5C121.507,-52.5 130.192,-52.5 138.752,-52.5"/>
<polygon fill="midnightblue" stroke="midnightblue" points="113.04,-49.0001 103.04,-52.5 113.04,-56.0001 113.04,-49.0001"/>
</g>
<!-- Node14 -->
<g id="node3" class="node"><title>Node14</title>
<g id="a_node3"><a xlink:href="../../dc/d57/a00194.html#aa23e2b087d09db0524a34b73cd5e07d3" target="_top" xlink:title="Sends a stop signal if the user disconnects the server. ">
<polygon fill="white" stroke="black" points="318,-39.5 318,-65.5 443,-65.5 443,-39.5 318,-39.5"/>
<text text-anchor="start" x="326" y="-55.1" font-family="Helvetica,sans-Serif" font-size="8.00">project.android.net.Client.send</text>
<text text-anchor="middle" x="380.5" y="-46.1" font-family="Helvetica,sans-Serif" font-size="8.00">StopSignal</text>
</a>
</g>
</g>
<!-- Node13&#45;&gt;Node14 -->
<g id="edge2" class="edge"><title>Node13&#45;&gt;Node14</title>
<path fill="none" stroke="midnightblue" d="M292.311,-52.5C300.909,-52.5 309.552,-52.5 317.878,-52.5"/>
<polygon fill="midnightblue" stroke="midnightblue" points="292.26,-49.0001 282.26,-52.5 292.26,-56.0001 292.26,-49.0001"/>
</g>
<!-- Node15 -->
<g id="node4" class="node"><title>Node15</title>
<g id="a_node4"><a xlink:href="../../d9/d38/a00166.html#aee2a392b8b0500023dba15b60d3315d2" target="_top" xlink:title="Returns a list of ServerInfo objects. ">
<polygon fill="white" stroke="black" points="479,-39.5 479,-65.5 592,-65.5 592,-39.5 479,-39.5"/>
<text text-anchor="start" x="487" y="-55.1" font-family="Helvetica,sans-Serif" font-size="8.00">project.android.Connection</text>
<text text-anchor="middle" x="535.5" y="-46.1" font-family="Helvetica,sans-Serif" font-size="8.00">Fragment.getNetworkList</text>
</a>
</g>
</g>
<!-- Node14&#45;&gt;Node15 -->
<g id="edge3" class="edge"><title>Node14&#45;&gt;Node15</title>
<path fill="none" stroke="midnightblue" d="M453.315,-52.5C461.909,-52.5 470.581,-52.5 478.897,-52.5"/>
<polygon fill="midnightblue" stroke="midnightblue" points="453.29,-49.0001 443.29,-52.5 453.29,-56.0001 453.29,-49.0001"/>
</g>
<!-- Node16 -->
<g id="node5" class="node"><title>Node16</title>
<g id="a_node5"><a xlink:href="../../d5/dcb/a00170.html#a9b4dd18431aa7ebd37321a0d2b1d2539" target="_top" xlink:title="Overrides the ArrayAdapter.getCount() method. ">
<polygon fill="white" stroke="black" points="636.5,-80.5 636.5,-106.5 778.5,-106.5 778.5,-80.5 636.5,-80.5"/>
<text text-anchor="start" x="644.5" y="-96.1" font-family="Helvetica,sans-Serif" font-size="8.00">project.android.CustomAdapter.get</text>
<text text-anchor="middle" x="707.5" y="-87.1" font-family="Helvetica,sans-Serif" font-size="8.00">Count</text>
</a>
</g>
</g>
<!-- Node15&#45;&gt;Node16 -->
<g id="edge4" class="edge"><title>Node15&#45;&gt;Node16</title>
<path fill="none" stroke="midnightblue" d="M600.649,-67.9712C617.723,-72.0891 635.994,-76.4956 652.467,-80.4686"/>
<polygon fill="midnightblue" stroke="midnightblue" points="601.298,-64.5276 590.756,-65.5854 599.657,-71.3324 601.298,-64.5276"/>
</g>
<!-- Node17 -->
<g id="node6" class="node"><title>Node17</title>
<g id="a_node6"><a xlink:href="../../d5/dcb/a00170.html#aeff09458fb87bd73b69188560508baf5" target="_top" xlink:title="Overrides ArrayAdapter.getView(int, View, ViewGroup) method. ">
<polygon fill="white" stroke="black" points="628,-44 628,-61 787,-61 787,-44 628,-44"/>
<text text-anchor="middle" x="707.5" y="-50.6" font-family="Helvetica,sans-Serif" font-size="8.00">project.android.CustomAdapter.getView</text>
</a>
</g>
</g>
<!-- Node15&#45;&gt;Node17 -->
<g id="edge5" class="edge"><title>Node15&#45;&gt;Node17</title>
<path fill="none" stroke="midnightblue" d="M602.252,-52.5C610.648,-52.5 619.31,-52.5 627.884,-52.5"/>
<polygon fill="midnightblue" stroke="midnightblue" points="602.164,-49.0001 592.164,-52.5 602.164,-56.0001 602.164,-49.0001"/>
</g>
<!-- Node18 -->
<g id="node7" class="node"><title>Node18</title>
<g id="a_node7"><a xlink:href="../../d9/d38/a00166.html#a863b30e1ce16c16e6dba6bebe8d8c45e" target="_top" xlink:title="Returns the View of the clicked list item. ">
<polygon fill="white" stroke="black" points="823,-42.5 823,-68.5 942,-68.5 942,-42.5 823,-42.5"/>
<text text-anchor="start" x="831" y="-58.1" font-family="Helvetica,sans-Serif" font-size="8.00">project.android.Connection</text>
<text text-anchor="middle" x="882.5" y="-49.1" font-family="Helvetica,sans-Serif" font-size="8.00">Fragment.getViewByPosition</text>
</a>
</g>
</g>
<!-- Node17&#45;&gt;Node18 -->
<g id="edge6" class="edge"><title>Node17&#45;&gt;Node18</title>
<path fill="none" stroke="midnightblue" d="M797.348,-54.0407C806.038,-54.1914 814.697,-54.3416 822.972,-54.4851"/>
<polygon fill="midnightblue" stroke="midnightblue" points="797.213,-50.5379 787.154,-53.8639 797.091,-57.5369 797.213,-50.5379"/>
</g>
<!-- Node19 -->
<g id="node8" class="node"><title>Node19</title>
<g id="a_node8"><a xlink:href="../../d9/d38/a00166.html#a5ae4f9d7872792288afb3de65ab4c2b0" target="_top" xlink:title="Sets an icon for an inactive server. ">
<polygon fill="white" stroke="black" points="978,-0.5 978,-26.5 1091,-26.5 1091,-0.5 978,-0.5"/>
<text text-anchor="start" x="986" y="-16.1" font-family="Helvetica,sans-Serif" font-size="8.00">project.android.Connection</text>
<text text-anchor="middle" x="1034.5" y="-7.1" font-family="Helvetica,sans-Serif" font-size="8.00">Fragment.resetIcon</text>
</a>
</g>
</g>
<!-- Node18&#45;&gt;Node19 -->
<g id="edge7" class="edge"><title>Node18&#45;&gt;Node19</title>
<path fill="none" stroke="midnightblue" d="M940.094,-39.6538C955.531,-35.3313 972.077,-30.6984 986.89,-26.5508"/>
<polygon fill="midnightblue" stroke="midnightblue" points="938.825,-36.3744 930.139,-42.4412 940.712,-43.1152 938.825,-36.3744"/>
</g>
<!-- Node22 -->
<g id="node11" class="node"><title>Node22</title>
<g id="a_node11"><a xlink:href="../../d9/d38/a00166.html#af0e6f7c8aa02553792fd18fbb5e98a2e" target="_top" xlink:title="Sets an icon for an active server. ">
<polygon fill="white" stroke="black" points="978,-45.5 978,-71.5 1091,-71.5 1091,-45.5 978,-45.5"/>
<text text-anchor="start" x="986" y="-61.1" font-family="Helvetica,sans-Serif" font-size="8.00">project.android.Connection</text>
<text text-anchor="middle" x="1034.5" y="-52.1" font-family="Helvetica,sans-Serif" font-size="8.00">Fragment.setIcon</text>
</a>
</g>
</g>
<!-- Node18&#45;&gt;Node22 -->
<g id="edge11" class="edge"><title>Node18&#45;&gt;Node22</title>
<path fill="none" stroke="midnightblue" d="M952.568,-56.8814C961.008,-57.0502 969.547,-57.2209 977.757,-57.3851"/>
<polygon fill="midnightblue" stroke="midnightblue" points="952.421,-53.3778 942.353,-56.6771 952.281,-60.3764 952.421,-53.3778"/>
</g>
<!-- Node19&#45;&gt;Node15 -->
<g id="edge8" class="edge"><title>Node19&#45;&gt;Node15</title>
<path fill="none" stroke="midnightblue" d="M967.386,-14.0373C886.91,-15.3556 747.013,-19.7882 628,-34.5 616.431,-35.9301 604.132,-37.9795 592.429,-40.1869"/>
<polygon fill="midnightblue" stroke="midnightblue" points="967.913,-17.5298 977.859,-13.8779 967.806,-10.5306 967.913,-17.5298"/>
</g>
<!-- Node20 -->
<g id="node9" class="node"><title>Node20</title>
<g id="a_node9"><a xlink:href="../../db/d53/a00202.html#a9f6765867ad54f586cc7b329213a2ac3" target="_top" xlink:title="Performs operations for reading data from a server. ">
<polygon fill="white" stroke="black" points="1132,-0.5 1132,-26.5 1238,-26.5 1238,-0.5 1132,-0.5"/>
<text text-anchor="start" x="1140" y="-16.1" font-family="Helvetica,sans-Serif" font-size="8.00">project.android.net.Client</text>
<text text-anchor="middle" x="1185" y="-7.1" font-family="Helvetica,sans-Serif" font-size="8.00">IOThread.run</text>
</a>
</g>
</g>
<!-- Node19&#45;&gt;Node20 -->
<g id="edge9" class="edge"><title>Node19&#45;&gt;Node20</title>
<path fill="none" stroke="midnightblue" d="M1101.35,-13.5C1111.58,-13.5 1122.03,-13.5 1131.9,-13.5"/>
<polygon fill="midnightblue" stroke="midnightblue" points="1101.22,-10.0001 1091.22,-13.5 1101.22,-17.0001 1101.22,-10.0001"/>
</g>
<!-- Node21 -->
<g id="node10" class="node"><title>Node21</title>
<g id="a_node10"><a xlink:href="../../db/d53/a00202.html#aa57b04eb44ae7982a7a79cdb7c484144" target="_top" xlink:title="Constructor. ">
<polygon fill="white" stroke="black" points="1279,-0.5 1279,-26.5 1387,-26.5 1387,-0.5 1279,-0.5"/>
<text text-anchor="start" x="1287" y="-16.1" font-family="Helvetica,sans-Serif" font-size="8.00">project.android.net.Client</text>
<text text-anchor="middle" x="1333" y="-7.1" font-family="Helvetica,sans-Serif" font-size="8.00">IOThread.ClientIOThread</text>
</a>
</g>
</g>
<!-- Node20&#45;&gt;Node21 -->
<g id="edge10" class="edge"><title>Node20&#45;&gt;Node21</title>
<path fill="none" stroke="midnightblue" d="M1248.58,-13.5C1258.58,-13.5 1268.84,-13.5 1278.59,-13.5"/>
<polygon fill="midnightblue" stroke="midnightblue" points="1248.3,-10.0001 1238.3,-13.5 1248.3,-17.0001 1248.3,-10.0001"/>
</g>
<!-- Node23 -->
<g id="node12" class="node"><title>Node23</title>
<g id="a_node12"><a xlink:href="../../dc/d9a/a00218.html#a6b623423ab726a2d5008717960032b6d" target="_top" xlink:title="Overrides the Service.onStartCommand(Intent, int, int) method of the Android API. ...">
<polygon fill="white" stroke="black" points="1127,-45.5 1127,-71.5 1243,-71.5 1243,-45.5 1127,-45.5"/>
<text text-anchor="start" x="1135" y="-61.1" font-family="Helvetica,sans-Serif" font-size="8.00">project.android.net.Network</text>
<text text-anchor="middle" x="1185" y="-52.1" font-family="Helvetica,sans-Serif" font-size="8.00">Service.onStartCommand</text>
</a>
</g>
</g>
<!-- Node22&#45;&gt;Node23 -->
<g id="edge12" class="edge"><title>Node22&#45;&gt;Node23</title>
<path fill="none" stroke="midnightblue" d="M1101.49,-58.5C1109.99,-58.5 1118.64,-58.5 1126.98,-58.5"/>
<polygon fill="midnightblue" stroke="midnightblue" points="1101.22,-55.0001 1091.22,-58.5 1101.22,-62.0001 1101.22,-55.0001"/>
</g>
</g>
</svg>
