<?xml version="1.0" encoding="UTF-8" standalone="no"?>
<!DOCTYPE svg PUBLIC "-//W3C//DTD SVG 1.1//EN"
 "http://www.w3.org/Graphics/SVG/1.1/DTD/svg11.dtd">
<!-- Generated by graphviz version 2.38.0 (20140413.2041)
 -->
<!-- Title: project.android.net.DataWrapper.DataWrapper Pages: 1 -->
<svg width="250pt" height="35pt"
 viewBox="0.00 0.00 250.00 35.00" xmlns="http://www.w3.org/2000/svg" xmlns:xlink="http://www.w3.org/1999/xlink">
<g id="graph0" class="graph" transform="scale(1 1) rotate(0) translate(4 31)">
<title>project.android.net.DataWrapper.DataWrapper</title>
<polygon fill="white" stroke="none" points="-4,4 -4,-31 246,-31 246,4 -4,4"/>
<!-- Node6 -->
<g id="node1" class="node"><title>Node6</title>
<polygon fill="#bfbfbf" stroke="black" points="0,-0.5 0,-26.5 103,-26.5 103,-0.5 0,-0.5"/>
<text text-anchor="start" x="8" y="-16.1" font-family="Helvetica,sans-Serif" font-size="8.00">project.android.net.Data</text>
<text text-anchor="middle" x="51.5" y="-7.1" font-family="Helvetica,sans-Serif" font-size="8.00">Wrapper.DataWrapper</text>
</g>
<!-- Node7 -->
<g id="node2" class="node"><title>Node7</title>
<g id="a_node2"><a xlink:href="../../da/de7/a00210.html#a02de9ed428c40249a41ffcf08f37adcc" target="_top" xlink:title="Checks if the stored project.android.sensor.representation.Quaternion object is the initial one...">
<polygon fill="white" stroke="black" points="139,-0.5 139,-26.5 242,-26.5 242,-0.5 139,-0.5"/>
<text text-anchor="start" x="147" y="-16.1" font-family="Helvetica,sans-Serif" font-size="8.00">project.android.net.Data</text>
<text text-anchor="middle" x="190.5" y="-7.1" font-family="Helvetica,sans-Serif" font-size="8.00">Wrapper.isInitQuat</text>
</a>
</g>
</g>
<!-- Node6&#45;&gt;Node7 -->
<g id="edge1" class="edge"><title>Node6&#45;&gt;Node7</title>
<path fill="none" stroke="midnightblue" d="M103.125,-13.5C111.361,-13.5 119.969,-13.5 128.424,-13.5"/>
<polygon fill="midnightblue" stroke="midnightblue" points="128.626,-17.0001 138.626,-13.5 128.626,-10.0001 128.626,-17.0001"/>
</g>
</g>
</svg>
