<?xml version="1.0" encoding="UTF-8" standalone="no"?>
<!DOCTYPE svg PUBLIC "-//W3C//DTD SVG 1.1//EN"
 "http://www.w3.org/Graphics/SVG/1.1/DTD/svg11.dtd">
<!-- Generated by graphviz version 2.38.0 (20140413.2041)
 -->
<!-- Title: project.android.sensor.orientation.OrientationProvider.sensorStop Pages: 1 -->
<svg width="343pt" height="170pt"
 viewBox="0.00 0.00 343.00 170.00" xmlns="http://www.w3.org/2000/svg" xmlns:xlink="http://www.w3.org/1999/xlink">
<g id="graph0" class="graph" transform="scale(1 1) rotate(0) translate(4 166)">
<title>project.android.sensor.orientation.OrientationProvider.sensorStop</title>
<polygon fill="white" stroke="none" points="-4,4 -4,-166 339,-166 339,4 -4,4"/>
<!-- Node21 -->
<g id="node1" class="node"><title>Node21</title>
<polygon fill="#bfbfbf" stroke="black" points="0,-67.5 0,-93.5 138,-93.5 138,-67.5 0,-67.5"/>
<text text-anchor="start" x="8" y="-83.1" font-family="Helvetica,sans-Serif" font-size="8.00">project.android.sensor.orientation.</text>
<text text-anchor="middle" x="69" y="-74.1" font-family="Helvetica,sans-Serif" font-size="8.00">OrientationProvider.sensorStop</text>
</g>
<!-- Node22 -->
<g id="node2" class="node"><title>Node22</title>
<g id="a_node2"><a xlink:href="../../d8/d00/a00186.html#a64ea9266b82c3fc2d94c2ad23d37795e" target="_top" xlink:title="Overrides the Fragment.onDestroyView() method of the Android API. ">
<polygon fill="white" stroke="black" points="183,-135.5 183,-161.5 326,-161.5 326,-135.5 183,-135.5"/>
<text text-anchor="start" x="191" y="-151.1" font-family="Helvetica,sans-Serif" font-size="8.00">project.android.MouseFragment.on</text>
<text text-anchor="middle" x="254.5" y="-142.1" font-family="Helvetica,sans-Serif" font-size="8.00">DestroyView</text>
</a>
</g>
</g>
<!-- Node21&#45;&gt;Node22 -->
<g id="edge1" class="edge"><title>Node21&#45;&gt;Node22</title>
<path fill="none" stroke="midnightblue" d="M105.758,-97.8714C125.579,-107.103 150.833,-118.221 174,-126.5 182.901,-129.681 192.496,-132.683 201.836,-135.389"/>
<polygon fill="midnightblue" stroke="midnightblue" points="107.035,-94.6044 96.4971,-93.5116 104.054,-100.938 107.035,-94.6044"/>
</g>
<!-- Node23 -->
<g id="node3" class="node"><title>Node23</title>
<g id="a_node3"><a xlink:href="../../d8/d00/a00186.html#a68e80442d6235af1dcbdda8c193d9061" target="_top" xlink:title="Overrides the View.onTouchListener.onTouch(View, MotionEvent) method of the Android API...">
<polygon fill="white" stroke="black" points="183,-90.5 183,-116.5 326,-116.5 326,-90.5 183,-90.5"/>
<text text-anchor="start" x="191" y="-106.1" font-family="Helvetica,sans-Serif" font-size="8.00">project.android.MouseFragment.on</text>
<text text-anchor="middle" x="254.5" y="-97.1" font-family="Helvetica,sans-Serif" font-size="8.00">Touch</text>
</a>
</g>
</g>
<!-- Node21&#45;&gt;Node23 -->
<g id="edge2" class="edge"><title>Node21&#45;&gt;Node23</title>
<path fill="none" stroke="midnightblue" d="M148.095,-90.2884C159.612,-91.732 171.423,-93.2124 182.779,-94.6358"/>
<polygon fill="midnightblue" stroke="midnightblue" points="148.426,-86.8026 138.068,-89.0317 147.555,-93.7483 148.426,-86.8026"/>
</g>
<!-- Node24 -->
<g id="node4" class="node"><title>Node24</title>
<g id="a_node4"><a xlink:href="../../d8/d00/a00186.html#ad7acbd4610541a7769c197f1e3f326bb" target="_top" xlink:title="Overrides the View.onClickListener.onClick(View) method of the Android API. ">
<polygon fill="white" stroke="black" points="183,-45.5 183,-71.5 326,-71.5 326,-45.5 183,-45.5"/>
<text text-anchor="start" x="191" y="-61.1" font-family="Helvetica,sans-Serif" font-size="8.00">project.android.MouseFragment.on</text>
<text text-anchor="middle" x="254.5" y="-52.1" font-family="Helvetica,sans-Serif" font-size="8.00">Click</text>
</a>
</g>
</g>
<!-- Node21&#45;&gt;Node24 -->
<g id="edge3" class="edge"><title>Node21&#45;&gt;Node24</title>
<path fill="none" stroke="midnightblue" d="M148.095,-71.1372C159.612,-69.7563 171.423,-68.3403 182.779,-66.9788"/>
<polygon fill="midnightblue" stroke="midnightblue" points="147.58,-67.6737 138.068,-72.3393 148.413,-74.6239 147.58,-67.6737"/>
</g>
<!-- Node25 -->
<g id="node5" class="node"><title>Node25</title>
<g id="a_node5"><a xlink:href="../../da/d31/a00234.html#ab9a9911056de6fc82ef1859c2eb42bad" target="_top" xlink:title="Overrides the SensorEventListener.onSensorChanged() method of the Android API. ">
<polygon fill="white" stroke="black" points="174,-0.5 174,-26.5 335,-26.5 335,-0.5 174,-0.5"/>
<text text-anchor="start" x="182" y="-16.1" font-family="Helvetica,sans-Serif" font-size="8.00">project.android.sensor.orientation.</text>
<text text-anchor="middle" x="254.5" y="-7.1" font-family="Helvetica,sans-Serif" font-size="8.00">KalmanFilterProvider.onSensorChanged</text>
</a>
</g>
</g>
<!-- Node21&#45;&gt;Node25 -->
<g id="edge4" class="edge"><title>Node21&#45;&gt;Node25</title>
<path fill="none" stroke="midnightblue" d="M107.526,-63.3511C127.117,-54.7245 151.612,-44.4431 174,-36.5 183.885,-32.993 194.597,-29.6158 204.86,-26.5796"/>
<polygon fill="midnightblue" stroke="midnightblue" points="106.051,-60.1766 98.3337,-67.4356 108.893,-66.5736 106.051,-60.1766"/>
</g>
</g>
</svg>
