<?xml version="1.0" encoding="UTF-8" standalone="no"?>
<!DOCTYPE svg PUBLIC "-//W3C//DTD SVG 1.1//EN"
 "http://www.w3.org/Graphics/SVG/1.1/DTD/svg11.dtd">
<!-- Generated by graphviz version 2.38.0 (20140413.2041)
 -->
<!-- Title: project.android.sensor.orientation.OrientationProvider.getRotationMatrix Pages: 1 -->
<svg width="347pt" height="35pt"
 viewBox="0.00 0.00 347.00 35.00" xmlns="http://www.w3.org/2000/svg" xmlns:xlink="http://www.w3.org/1999/xlink">
<g id="graph0" class="graph" transform="scale(1 1) rotate(0) translate(4 31)">
<title>project.android.sensor.orientation.OrientationProvider.getRotationMatrix</title>
<polygon fill="white" stroke="none" points="-4,4 -4,-31 343,-31 343,4 -4,4"/>
<!-- Node14 -->
<g id="node1" class="node"><title>Node14</title>
<polygon fill="#bfbfbf" stroke="black" points="0,-0.5 0,-26.5 151,-26.5 151,-0.5 0,-0.5"/>
<text text-anchor="start" x="8" y="-16.1" font-family="Helvetica,sans-Serif" font-size="8.00">project.android.sensor.orientation.</text>
<text text-anchor="middle" x="75.5" y="-7.1" font-family="Helvetica,sans-Serif" font-size="8.00">OrientationProvider.getRotationMatrix</text>
</g>
<!-- Node15 -->
<g id="node2" class="node"><title>Node15</title>
<g id="a_node2"><a xlink:href="../../d4/d9a/a00246.html#a21ff2fef7e31db93c5dfcab93554b52f" target="_top" xlink:title="Sets the matrix from a float[16] array. ">
<polygon fill="white" stroke="black" points="187,-0.5 187,-26.5 339,-26.5 339,-0.5 187,-0.5"/>
<text text-anchor="start" x="195" y="-16.1" font-family="Helvetica,sans-Serif" font-size="8.00">project.android.sensor.representation.</text>
<text text-anchor="middle" x="263" y="-7.1" font-family="Helvetica,sans-Serif" font-size="8.00">MatrixF4x4.set</text>
</a>
</g>
</g>
<!-- Node14&#45;&gt;Node15 -->
<g id="edge1" class="edge"><title>Node14&#45;&gt;Node15</title>
<path fill="none" stroke="midnightblue" d="M151.148,-13.5C159.614,-13.5 168.29,-13.5 176.877,-13.5"/>
<polygon fill="midnightblue" stroke="midnightblue" points="176.901,-17.0001 186.9,-13.5 176.9,-10.0001 176.901,-17.0001"/>
</g>
</g>
</svg>
