<?xml version="1.0" encoding="UTF-8" standalone="no"?>
<!DOCTYPE svg PUBLIC "-//W3C//DTD SVG 1.1//EN"
 "http://www.w3.org/Graphics/SVG/1.1/DTD/svg11.dtd">
<!-- Generated by graphviz version 2.38.0 (20140413.2041)
 -->
<!-- Title: project.android.sensor.representation.Vector4f.setW Pages: 1 -->
<svg width="357pt" height="170pt"
 viewBox="0.00 0.00 357.00 170.00" xmlns="http://www.w3.org/2000/svg" xmlns:xlink="http://www.w3.org/1999/xlink">
<g id="graph0" class="graph" transform="scale(1 1) rotate(0) translate(4 166)">
<title>project.android.sensor.representation.Vector4f.setW</title>
<polygon fill="white" stroke="none" points="-4,4 -4,-166 353,-166 353,4 -4,4"/>
<!-- Node58 -->
<g id="node1" class="node"><title>Node58</title>
<polygon fill="#bfbfbf" stroke="black" points="0,-67.5 0,-93.5 152,-93.5 152,-67.5 0,-67.5"/>
<text text-anchor="start" x="8" y="-83.1" font-family="Helvetica,sans-Serif" font-size="8.00">project.android.sensor.representation.</text>
<text text-anchor="middle" x="76" y="-74.1" font-family="Helvetica,sans-Serif" font-size="8.00">Vector4f.setW</text>
</g>
<!-- Node59 -->
<g id="node2" class="node"><title>Node59</title>
<g id="a_node2"><a xlink:href="../../da/d31/a00234.html#ab9a9911056de6fc82ef1859c2eb42bad" target="_top" xlink:title="Overrides the SensorEventListener.onSensorChanged() method of the Android API. ">
<polygon fill="white" stroke="black" points="188,-135.5 188,-161.5 349,-161.5 349,-135.5 188,-135.5"/>
<text text-anchor="start" x="196" y="-151.1" font-family="Helvetica,sans-Serif" font-size="8.00">project.android.sensor.orientation.</text>
<text text-anchor="middle" x="268.5" y="-142.1" font-family="Helvetica,sans-Serif" font-size="8.00">KalmanFilterProvider.onSensorChanged</text>
</a>
</g>
</g>
<!-- Node58&#45;&gt;Node59 -->
<g id="edge1" class="edge"><title>Node58&#45;&gt;Node59</title>
<path fill="none" stroke="midnightblue" d="M115.145,-97.6709C136.356,-106.872 163.369,-118.024 188,-126.5 197.208,-129.669 207.134,-132.706 216.746,-135.459"/>
<polygon fill="midnightblue" stroke="midnightblue" points="116.402,-94.4005 105.838,-93.5974 113.596,-100.813 116.402,-94.4005"/>
</g>
<!-- Node60 -->
<g id="node3" class="node"><title>Node60</title>
<g id="a_node3"><a xlink:href="../../d0/da7/a00250.html#aebabee6a927fe71e587aef336a787709" target="_top" xlink:title="Multiples this Quaternion with a scalar. ">
<polygon fill="white" stroke="black" points="192.5,-90.5 192.5,-116.5 344.5,-116.5 344.5,-90.5 192.5,-90.5"/>
<text text-anchor="start" x="200.5" y="-106.1" font-family="Helvetica,sans-Serif" font-size="8.00">project.android.sensor.representation.</text>
<text text-anchor="middle" x="268.5" y="-97.1" font-family="Helvetica,sans-Serif" font-size="8.00">Quaternion.multiplyByScalar</text>
</a>
</g>
</g>
<!-- Node58&#45;&gt;Node60 -->
<g id="edge2" class="edge"><title>Node58&#45;&gt;Node60</title>
<path fill="none" stroke="midnightblue" d="M162.02,-90.7649C172.091,-91.9808 182.316,-93.2154 192.239,-94.4133"/>
<polygon fill="midnightblue" stroke="midnightblue" points="162.365,-87.2812 152.017,-89.5572 161.526,-94.2307 162.365,-87.2812"/>
</g>
<!-- Node61 -->
<g id="node4" class="node"><title>Node61</title>
<g id="a_node4"><a xlink:href="../../d0/da7/a00250.html#ad65d775928e1fddeb2f15e772fec5caf" target="_top" xlink:title="Returns the heading, attitude and bank of this Quaternion as euler angles in the double array respect...">
<polygon fill="white" stroke="black" points="192.5,-45.5 192.5,-71.5 344.5,-71.5 344.5,-45.5 192.5,-45.5"/>
<text text-anchor="start" x="200.5" y="-61.1" font-family="Helvetica,sans-Serif" font-size="8.00">project.android.sensor.representation.</text>
<text text-anchor="middle" x="268.5" y="-52.1" font-family="Helvetica,sans-Serif" font-size="8.00">Quaternion.toEulerAngles</text>
</a>
</g>
</g>
<!-- Node58&#45;&gt;Node61 -->
<g id="edge3" class="edge"><title>Node58&#45;&gt;Node61</title>
<path fill="none" stroke="midnightblue" d="M162.02,-70.6814C172.091,-69.5184 182.316,-68.3375 192.239,-67.1916"/>
<polygon fill="midnightblue" stroke="midnightblue" points="161.55,-67.2124 152.017,-71.8366 162.353,-74.1662 161.55,-67.2124"/>
</g>
<!-- Node62 -->
<g id="node5" class="node"><title>Node62</title>
<g id="a_node5"><a xlink:href="../../d0/da7/a00250.html#ad97bd17455f6ca6ef3f38190789fc956" target="_top" xlink:title="Returns a String representing this Quaternion. ">
<polygon fill="white" stroke="black" points="192.5,-0.5 192.5,-26.5 344.5,-26.5 344.5,-0.5 192.5,-0.5"/>
<text text-anchor="start" x="200.5" y="-16.1" font-family="Helvetica,sans-Serif" font-size="8.00">project.android.sensor.representation.</text>
<text text-anchor="middle" x="268.5" y="-7.1" font-family="Helvetica,sans-Serif" font-size="8.00">Quaternion.toString</text>
</a>
</g>
</g>
<!-- Node58&#45;&gt;Node62 -->
<g id="edge4" class="edge"><title>Node58&#45;&gt;Node62</title>
<path fill="none" stroke="midnightblue" d="M117.321,-63.4384C138.231,-54.866 164.294,-44.6068 188,-36.5 198.196,-33.0131 209.242,-29.5952 219.764,-26.5052"/>
<polygon fill="midnightblue" stroke="midnightblue" points="115.71,-60.3167 107.804,-67.369 118.382,-66.7867 115.71,-60.3167"/>
</g>
</g>
</svg>
