<?xml version="1.0" encoding="UTF-8" standalone="no"?>
<!DOCTYPE svg PUBLIC "-//W3C//DTD SVG 1.1//EN"
 "http://www.w3.org/Graphics/SVG/1.1/DTD/svg11.dtd">
<!-- Generated by graphviz version 2.38.0 (20140413.2041)
 -->
<!-- Title: project.android.net.ClientIOThread.ClientIOThread Pages: 1 -->
<!--zoomable 211 -->
<svg id="main" version="1.1" xmlns="http://www.w3.org/2000/svg" xmlns:xlink="http://www.w3.org/1999/xlink" xml:space="preserve" onload="init(evt)">
<style type="text/css"><![CDATA[
.edge:hover path { stroke: red; }
.edge:hover polygon { stroke: red; fill: red; }
]]></style>
<script type="text/javascript"><![CDATA[
var edges = document.getElementsByTagName('g');
if (edges && edges.length) {
  for (var i=0;i<edges.length;i++) {
    if (edges[i].id.substr(0,4)=='edge') {
      edges[i].setAttribute('class','edge');
    }
  }
}
]]></script>
        <defs>
                <circle id="rim" cx="0" cy="0" r="7"/>
                <circle id="rim2" cx="0" cy="0" r="3.5"/>
                <g id="zoomPlus">
                        <use xlink:href="#rim" fill="#404040">
                                <set attributeName="fill" to="#808080" begin="zoomplus.mouseover" end="zoomplus.mouseout"/>
                        </use>
                        <path d="M-4,0h8M0,-4v8" fill="none" stroke="white" stroke-width="1.5" pointer-events="none"/>
                </g>
                <g id="zoomMin">
                        <use xlink:href="#rim" fill="#404040">
                                <set attributeName="fill" to="#808080" begin="zoomminus.mouseover" end="zoomminus.mouseout"/>
                        </use>
                        <path d="M-4,0h8" fill="none" stroke="white" stroke-width="1.5" pointer-events="none"/>
                </g>
                <g id="dirArrow">
                        <path fill="none" stroke="white" stroke-width="1.5" d="M0,-3.0v7 M-2.5,-0.5L0,-3.0L2.5,-0.5"/>
                </g>
               <g id="resetDef">
                       <use xlink:href="#rim2" fill="#404040">
                               <set attributeName="fill" to="#808080" begin="reset.mouseover" end="reset.mouseout"/>
                       </use>
               </g>
        </defs>

<script type="text/javascript">
var viewWidth = 1409;
var viewHeight = 211;
var sectionId = 'dynsection-1';
</script>
<script xlink:href="../../svgpan.js"/>
<svg id="graph" class="graph">
<g id="viewport">
<title>project.android.net.ClientIOThread.ClientIOThread</title>
<polygon fill="white" stroke="none" points="-4,4 -4,-207 1405,-207 1405,4 -4,4"/>
<!-- Node0 -->
<g id="node1" class="node"><title>Node0</title>
<polygon fill="#bfbfbf" stroke="black" points="0,-89 0,-115 108,-115 108,-89 0,-89"/>
<text text-anchor="start" x="8" y="-104.6" font-family="Helvetica,sans-Serif" font-size="8.00">project.android.net.Client</text>
<text text-anchor="middle" x="54" y="-95.6" font-family="Helvetica,sans-Serif" font-size="8.00">IOThread.ClientIOThread</text>
</g>
<!-- Node1 -->
<g id="node2" class="node"><title>Node1</title>
<g id="a_node2"><a xlink:href="../../d0/d24/a00222.html#a914c65a49cf5940901d475693ee8e205" target="_top" xlink:title="Returns the IPv4 address of the server. ">
<polygon fill="white" stroke="black" points="956,-155 956,-181 1066,-181 1066,-155 956,-155"/>
<text text-anchor="start" x="964" y="-170.6" font-family="Helvetica,sans-Serif" font-size="8.00">project.android.net.Server</text>
<text text-anchor="middle" x="1011" y="-161.6" font-family="Helvetica,sans-Serif" font-size="8.00">Info.getAddress</text>
</a>
</g>
</g>
<!-- Node0&#45;&gt;Node1 -->
<g id="edge1" class="edge"><title>Node0&#45;&gt;Node1</title>
<path fill="none" stroke="midnightblue" d="M76.9395,-115.204C124.579,-142.581 241.803,-203 348.5,-203 348.5,-203 348.5,-203 684.5,-203 775.541,-203 880.088,-189.297 945.596,-179.039"/>
<polygon fill="midnightblue" stroke="midnightblue" points="946.439,-182.45 955.766,-177.425 945.341,-175.536 946.439,-182.45"/>
</g>
<!-- Node2 -->
<g id="node3" class="node"><title>Node2</title>
<g id="a_node3"><a xlink:href="../../db/d53/a00202.html#a9f6765867ad54f586cc7b329213a2ac3" target="_top" xlink:title="Performs operations for reading data from a server. ">
<polygon fill="white" stroke="black" points="144,-89 144,-115 250,-115 250,-89 144,-89"/>
<text text-anchor="start" x="152" y="-104.6" font-family="Helvetica,sans-Serif" font-size="8.00">project.android.net.Client</text>
<text text-anchor="middle" x="197" y="-95.6" font-family="Helvetica,sans-Serif" font-size="8.00">IOThread.run</text>
</a>
</g>
</g>
<!-- Node0&#45;&gt;Node2 -->
<g id="edge2" class="edge"><title>Node0&#45;&gt;Node2</title>
<path fill="none" stroke="midnightblue" d="M108.306,-102C116.512,-102 125.048,-102 133.433,-102"/>
<polygon fill="midnightblue" stroke="midnightblue" points="133.553,-105.5 143.553,-102 133.553,-98.5001 133.553,-105.5"/>
</g>
<!-- Node12 -->
<g id="node13" class="node"><title>Node12</title>
<g id="a_node13"><a xlink:href="../../dc/d55/a00226.html#a73624750dc6ff111d72bcb4b54c4995c" target="_top" xlink:title="Encrypts plaintext using AES 256&#45;bit encryption algorithm. ">
<polygon fill="white" stroke="black" points="1289,-3 1289,-29 1401,-29 1401,-3 1289,-3"/>
<text text-anchor="start" x="1297" y="-18.6" font-family="Helvetica,sans-Serif" font-size="8.00">project.android.security.</text>
<text text-anchor="middle" x="1345" y="-9.6" font-family="Helvetica,sans-Serif" font-size="8.00">EKEProvider.encryptString</text>
</a>
</g>
</g>
<!-- Node0&#45;&gt;Node12 -->
<g id="edge19" class="edge"><title>Node0&#45;&gt;Node12</title>
<path fill="none" stroke="midnightblue" d="M76.5629,-88.8741C123.937,-61.3255 241.421,-0 348.5,-0 348.5,-0 348.5,-0 1012,-0 1104.76,-0 1211.93,-6.30858 1278.84,-11.0031"/>
<polygon fill="midnightblue" stroke="midnightblue" points="1278.6,-14.4945 1288.82,-11.7123 1279.09,-7.51213 1278.6,-14.4945"/>
</g>
<!-- Node3 -->
<g id="node4" class="node"><title>Node3</title>
<g id="a_node4"><a xlink:href="../../d7/d25/a00182.html#a2025eaa4f93363e6f4a03b26d7c4f8f6" target="_top" xlink:title="Returns the project.android.ConnectionFragment object. ">
<polygon fill="white" stroke="black" points="286,-134 286,-160 413,-160 413,-134 286,-134"/>
<text text-anchor="start" x="294" y="-149.6" font-family="Helvetica,sans-Serif" font-size="8.00">project.android.MainActivity.get</text>
<text text-anchor="middle" x="349.5" y="-140.6" font-family="Helvetica,sans-Serif" font-size="8.00">ConnectionFragment</text>
</a>
</g>
</g>
<!-- Node2&#45;&gt;Node3 -->
<g id="edge3" class="edge"><title>Node2&#45;&gt;Node3</title>
<path fill="none" stroke="midnightblue" d="M241.531,-115.016C258.149,-119.985 277.294,-125.709 294.754,-130.93"/>
<polygon fill="midnightblue" stroke="midnightblue" points="294.223,-134.424 304.807,-133.936 296.228,-127.717 294.223,-134.424"/>
</g>
<!-- Node4 -->
<g id="node5" class="node"><title>Node4</title>
<g id="a_node5"><a xlink:href="../../d9/d38/a00166.html#a5ae4f9d7872792288afb3de65ab4c2b0" target="_top" xlink:title="Sets an icon for an inactive server. ">
<polygon fill="white" stroke="black" points="293,-89 293,-115 406,-115 406,-89 293,-89"/>
<text text-anchor="start" x="301" y="-104.6" font-family="Helvetica,sans-Serif" font-size="8.00">project.android.Connection</text>
<text text-anchor="middle" x="349.5" y="-95.6" font-family="Helvetica,sans-Serif" font-size="8.00">Fragment.resetIcon</text>
</a>
</g>
</g>
<!-- Node2&#45;&gt;Node4 -->
<g id="edge4" class="edge"><title>Node2&#45;&gt;Node4</title>
<path fill="none" stroke="midnightblue" d="M250.215,-102C260.638,-102 271.713,-102 282.528,-102"/>
<polygon fill="midnightblue" stroke="midnightblue" points="282.788,-105.5 292.788,-102 282.788,-98.5001 282.788,-105.5"/>
</g>
<!-- Node15 -->
<g id="node16" class="node"><title>Node15</title>
<g id="a_node16"><a xlink:href="../../dc/d55/a00226.html#a1843f8e6646edd0fbea0ae49e620aa92" target="_top" xlink:title="Decrypts ciphertext using AES 256&#45;bit bit decryption algorithm. ">
<polygon fill="white" stroke="black" points="293.5,-44 293.5,-70 405.5,-70 405.5,-44 293.5,-44"/>
<text text-anchor="start" x="301.5" y="-59.6" font-family="Helvetica,sans-Serif" font-size="8.00">project.android.security.</text>
<text text-anchor="middle" x="349.5" y="-50.6" font-family="Helvetica,sans-Serif" font-size="8.00">EKEProvider.decryptString</text>
</a>
</g>
</g>
<!-- Node2&#45;&gt;Node15 -->
<g id="edge18" class="edge"><title>Node2&#45;&gt;Node15</title>
<path fill="none" stroke="midnightblue" d="M241.531,-88.9841C258.149,-84.0151 277.294,-78.2907 294.754,-73.0704"/>
<polygon fill="midnightblue" stroke="midnightblue" points="296.228,-76.2826 304.807,-70.0645 294.223,-69.576 296.228,-76.2826"/>
</g>
<!-- Node5 -->
<g id="node6" class="node"><title>Node5</title>
<g id="a_node6"><a xlink:href="../../d9/d38/a00166.html#a863b30e1ce16c16e6dba6bebe8d8c45e" target="_top" xlink:title="Returns the View of the clicked list item. ">
<polygon fill="white" stroke="black" points="449,-108 449,-134 568,-134 568,-108 449,-108"/>
<text text-anchor="start" x="457" y="-123.6" font-family="Helvetica,sans-Serif" font-size="8.00">project.android.Connection</text>
<text text-anchor="middle" x="508.5" y="-114.6" font-family="Helvetica,sans-Serif" font-size="8.00">Fragment.getViewByPosition</text>
</a>
</g>
</g>
<!-- Node4&#45;&gt;Node5 -->
<g id="edge5" class="edge"><title>Node4&#45;&gt;Node5</title>
<path fill="none" stroke="midnightblue" d="M406.294,-108.752C416.889,-110.034 428.087,-111.389 439.021,-112.713"/>
<polygon fill="midnightblue" stroke="midnightblue" points="438.616,-116.189 448.964,-113.916 439.457,-109.24 438.616,-116.189"/>
</g>
<!-- Node6 -->
<g id="node7" class="node"><title>Node6</title>
<g id="a_node7"><a xlink:href="../../d5/dcb/a00170.html#aeff09458fb87bd73b69188560508baf5" target="_top" xlink:title="Overrides ArrayAdapter.getView(int, View, ViewGroup) method. ">
<polygon fill="white" stroke="black" points="604,-113.5 604,-130.5 763,-130.5 763,-113.5 604,-113.5"/>
<text text-anchor="middle" x="683.5" y="-120.1" font-family="Helvetica,sans-Serif" font-size="8.00">project.android.CustomAdapter.getView</text>
</a>
</g>
</g>
<!-- Node5&#45;&gt;Node6 -->
<g id="edge6" class="edge"><title>Node5&#45;&gt;Node6</title>
<path fill="none" stroke="midnightblue" d="M568.07,-121.339C576.313,-121.386 584.936,-121.436 593.59,-121.486"/>
<polygon fill="midnightblue" stroke="midnightblue" points="593.724,-124.987 603.744,-121.545 593.764,-117.987 593.724,-124.987"/>
</g>
<!-- Node6&#45;&gt;Node1 -->
<g id="edge17" class="edge"><title>Node6&#45;&gt;Node1</title>
<path fill="none" stroke="midnightblue" d="M722.514,-130.526C744.727,-135.284 773.352,-141.034 799,-145 847.95,-152.569 903.667,-158.53 945.55,-162.486"/>
<polygon fill="midnightblue" stroke="midnightblue" points="945.335,-165.981 955.617,-163.423 945.984,-159.011 945.335,-165.981"/>
</g>
<!-- Node7 -->
<g id="node8" class="node"><title>Node7</title>
<g id="a_node8"><a xlink:href="../../d9/d38/a00166.html#aee2a392b8b0500023dba15b60d3315d2" target="_top" xlink:title="Returns a list of ServerInfo objects. ">
<polygon fill="white" stroke="black" points="799,-65 799,-91 912,-91 912,-65 799,-65"/>
<text text-anchor="start" x="807" y="-80.6" font-family="Helvetica,sans-Serif" font-size="8.00">project.android.Connection</text>
<text text-anchor="middle" x="855.5" y="-71.6" font-family="Helvetica,sans-Serif" font-size="8.00">Fragment.getNetworkList</text>
</a>
</g>
</g>
<!-- Node6&#45;&gt;Node7 -->
<g id="edge7" class="edge"><title>Node6&#45;&gt;Node7</title>
<path fill="none" stroke="midnightblue" d="M717.681,-113.412C739.444,-107.779 768.536,-100.25 794.297,-93.5819"/>
<polygon fill="midnightblue" stroke="midnightblue" points="795.181,-96.9685 803.985,-91.0744 793.427,-90.1918 795.181,-96.9685"/>
</g>
<!-- Node14 -->
<g id="node15" class="node"><title>Node14</title>
<g id="a_node15"><a xlink:href="../../d0/d24/a00222.html#adc1c8edd1eafda5cad71f9babd18dfd4" target="_top" xlink:title="Returns the canonical host name of the server. ">
<polygon fill="white" stroke="black" points="800.5,-110 800.5,-136 910.5,-136 910.5,-110 800.5,-110"/>
<text text-anchor="start" x="808.5" y="-125.6" font-family="Helvetica,sans-Serif" font-size="8.00">project.android.net.Server</text>
<text text-anchor="middle" x="855.5" y="-116.6" font-family="Helvetica,sans-Serif" font-size="8.00">Info.getServerInfo</text>
</a>
</g>
</g>
<!-- Node6&#45;&gt;Node14 -->
<g id="edge16" class="edge"><title>Node6&#45;&gt;Node14</title>
<path fill="none" stroke="midnightblue" d="M763.031,-122.462C772.035,-122.515 781.137,-122.568 789.929,-122.62"/>
<polygon fill="midnightblue" stroke="midnightblue" points="790.062,-126.121 800.083,-122.68 790.103,-119.121 790.062,-126.121"/>
</g>
<!-- Node7&#45;&gt;Node1 -->
<g id="edge9" class="edge"><title>Node7&#45;&gt;Node1</title>
<path fill="none" stroke="midnightblue" d="M896.939,-91.1215C902.241,-93.6621 907.416,-96.6106 912,-100 932.594,-115.228 927.239,-130.001 948,-145 950.652,-146.916 953.482,-148.691 956.418,-150.331"/>
<polygon fill="midnightblue" stroke="midnightblue" points="954.959,-153.515 965.468,-154.86 958.092,-147.255 954.959,-153.515"/>
</g>
<!-- Node7&#45;&gt;Node4 -->
<g id="edge8" class="edge"><title>Node7&#45;&gt;Node4</title>
<path fill="none" stroke="midnightblue" d="M798.772,-80.6537C705.076,-85.1154 516.439,-94.0982 416.354,-98.8641"/>
<polygon fill="midnightblue" stroke="midnightblue" points="416.185,-95.3681 406.363,-99.3399 416.518,-102.36 416.185,-95.3681"/>
</g>
<!-- Node8 -->
<g id="node9" class="node"><title>Node8</title>
<g id="a_node9"><a xlink:href="../../d0/d24/a00222.html#a19b6bb0a1264932dfc136820ec21620f" target="_top" xlink:title="Sets the pairing key used during client&#45;server authentication. ">
<polygon fill="white" stroke="black" points="956,-110 956,-136 1066,-136 1066,-110 956,-110"/>
<text text-anchor="start" x="964" y="-125.6" font-family="Helvetica,sans-Serif" font-size="8.00">project.android.net.Server</text>
<text text-anchor="middle" x="1011" y="-116.6" font-family="Helvetica,sans-Serif" font-size="8.00">Info.setPairingKey</text>
</a>
</g>
</g>
<!-- Node7&#45;&gt;Node8 -->
<g id="edge10" class="edge"><title>Node7&#45;&gt;Node8</title>
<path fill="none" stroke="midnightblue" d="M900.899,-91.0159C918.007,-96.0313 937.74,-101.816 955.681,-107.076"/>
<polygon fill="midnightblue" stroke="midnightblue" points="954.855,-110.481 965.436,-109.936 956.824,-103.764 954.855,-110.481"/>
</g>
<!-- Node9 -->
<g id="node10" class="node"><title>Node9</title>
<g id="a_node10"><a xlink:href="../../dc/d57/a00194.html#aa23e2b087d09db0524a34b73cd5e07d3" target="_top" xlink:title="Sends a stop signal if the user disconnects the server. ">
<polygon fill="white" stroke="black" points="948.5,-65 948.5,-91 1073.5,-91 1073.5,-65 948.5,-65"/>
<text text-anchor="start" x="956.5" y="-80.6" font-family="Helvetica,sans-Serif" font-size="8.00">project.android.net.Client.send</text>
<text text-anchor="middle" x="1011" y="-71.6" font-family="Helvetica,sans-Serif" font-size="8.00">StopSignal</text>
</a>
</g>
</g>
<!-- Node7&#45;&gt;Node9 -->
<g id="edge11" class="edge"><title>Node7&#45;&gt;Node9</title>
<path fill="none" stroke="midnightblue" d="M912.351,-78C920.792,-78 929.598,-78 938.316,-78"/>
<polygon fill="midnightblue" stroke="midnightblue" points="938.484,-81.5001 948.484,-78 938.484,-74.5001 938.484,-81.5001"/>
</g>
<!-- Node13 -->
<g id="node14" class="node"><title>Node13</title>
<g id="a_node14"><a xlink:href="../../dc/d57/a00194.html#a2f8cb3f32f139e5c370c8b74f539368a" target="_top" xlink:title="Closes the client socket. ">
<polygon fill="white" stroke="black" points="948,-28.5 948,-45.5 1074,-45.5 1074,-28.5 948,-28.5"/>
<text text-anchor="middle" x="1011" y="-35.1" font-family="Helvetica,sans-Serif" font-size="8.00">project.android.net.Client.close</text>
</a>
</g>
</g>
<!-- Node7&#45;&gt;Node13 -->
<g id="edge15" class="edge"><title>Node7&#45;&gt;Node13</title>
<path fill="none" stroke="midnightblue" d="M905.49,-64.9146C925.664,-59.5263 948.794,-53.3481 968.158,-48.1761"/>
<polygon fill="midnightblue" stroke="midnightblue" points="969.147,-51.5348 977.905,-45.5727 967.34,-44.7719 969.147,-51.5348"/>
</g>
<!-- Node10 -->
<g id="node11" class="node"><title>Node10</title>
<g id="a_node11"><a xlink:href="../../dc/d57/a00194.html#a3d6c629d64e1911979c9f483c8785b5f" target="_top" xlink:title="Sends mouse button or keyboard data. ">
<polygon fill="white" stroke="black" points="1110,-60.5 1110,-77.5 1253,-77.5 1253,-60.5 1110,-60.5"/>
<text text-anchor="middle" x="1181.5" y="-67.1" font-family="Helvetica,sans-Serif" font-size="8.00">project.android.net.Client.sendData</text>
</a>
</g>
</g>
<!-- Node9&#45;&gt;Node10 -->
<g id="edge12" class="edge"><title>Node9&#45;&gt;Node10</title>
<path fill="none" stroke="midnightblue" d="M1073.79,-74.6998C1082.23,-74.2491 1090.99,-73.7811 1099.7,-73.3156"/>
<polygon fill="midnightblue" stroke="midnightblue" points="1100.09,-76.8002 1109.89,-72.7717 1099.71,-69.8101 1100.09,-76.8002"/>
</g>
<!-- Node11 -->
<g id="node12" class="node"><title>Node11</title>
<g id="a_node12"><a xlink:href="../../da/de7/a00210.html#af8add0417bec5bd0d019410c91f69e38" target="_top" xlink:title="Returns a JSon&#45;string of an object. ">
<polygon fill="white" stroke="black" points="1293.5,-56 1293.5,-82 1396.5,-82 1396.5,-56 1293.5,-56"/>
<text text-anchor="start" x="1301.5" y="-71.6" font-family="Helvetica,sans-Serif" font-size="8.00">project.android.net.Data</text>
<text text-anchor="middle" x="1345" y="-62.6" font-family="Helvetica,sans-Serif" font-size="8.00">Wrapper.getGsonString</text>
</a>
</g>
</g>
<!-- Node10&#45;&gt;Node11 -->
<g id="edge13" class="edge"><title>Node10&#45;&gt;Node11</title>
<path fill="none" stroke="midnightblue" d="M1253.34,-69C1263.17,-69 1273.2,-69 1282.84,-69"/>
<polygon fill="midnightblue" stroke="midnightblue" points="1283.11,-72.5001 1293.11,-69 1283.11,-65.5001 1283.11,-72.5001"/>
</g>
<!-- Node10&#45;&gt;Node12 -->
<g id="edge14" class="edge"><title>Node10&#45;&gt;Node12</title>
<path fill="none" stroke="midnightblue" d="M1208.45,-60.4846C1231.58,-52.8938 1266.07,-41.5753 1294.47,-32.2551"/>
<polygon fill="midnightblue" stroke="midnightblue" points="1295.82,-35.4949 1304.23,-29.0512 1293.64,-28.8439 1295.82,-35.4949"/>
</g>
</g>
</svg>
        <g id="navigator" transform="translate(0 0)" fill="#404254">
                <rect fill="#f2f5e9" fill-opacity="0.5" stroke="#606060" stroke-width=".5" x="0" y="0" width="60" height="60"/>
                <use id="zoomplus" xlink:href="#zoomPlus" x="17" y="9" onmousedown="handleZoom(evt,'in')"/>
                <use id="zoomminus" xlink:href="#zoomMin" x="42" y="9" onmousedown="handleZoom(evt,'out')"/>
                <use id="reset" xlink:href="#resetDef" x="30" y="36" onmousedown="handleReset()"/>
                <g id="arrowUp" xlink:href="#dirArrow" transform="translate(30 24)" onmousedown="handlePan(0,-1)">
                  <use xlink:href="#rim" fill="#404040">
                        <set attributeName="fill" to="#808080" begin="arrowUp.mouseover" end="arrowUp.mouseout"/>
                  </use>
                  <path fill="none" stroke="white" stroke-width="1.5" d="M0,-3.0v7 M-2.5,-0.5L0,-3.0L2.5,-0.5"/>
                </g>
                <g id="arrowRight" xlink:href="#dirArrow" transform="rotate(90) translate(36 -43)" onmousedown="handlePan(1,0)">
                  <use xlink:href="#rim" fill="#404040">
                        <set attributeName="fill" to="#808080" begin="arrowRight.mouseover" end="arrowRight.mouseout"/>
                  </use>
                  <path fill="none" stroke="white" stroke-width="1.5" d="M0,-3.0v7 M-2.5,-0.5L0,-3.0L2.5,-0.5"/>
                </g>
                <g id="arrowDown" xlink:href="#dirArrow" transform="rotate(180) translate(-30 -48)" onmousedown="handlePan(0,1)">
                  <use xlink:href="#rim" fill="#404040">
                        <set attributeName="fill" to="#808080" begin="arrowDown.mouseover" end="arrowDown.mouseout"/>
                  </use>
                  <path fill="none" stroke="white" stroke-width="1.5" d="M0,-3.0v7 M-2.5,-0.5L0,-3.0L2.5,-0.5"/>
                </g>
                <g id="arrowLeft" xlink:href="#dirArrow" transform="rotate(270) translate(-36 17)" onmousedown="handlePan(-1,0)">
                  <use xlink:href="#rim" fill="#404040">
                        <set attributeName="fill" to="#808080" begin="arrowLeft.mouseover" end="arrowLeft.mouseout"/>
                  </use>
                  <path fill="none" stroke="white" stroke-width="1.5" d="M0,-3.0v7 M-2.5,-0.5L0,-3.0L2.5,-0.5"/>
                </g>
        </g>
        <svg viewBox="0 0 15 15" width="100%" height="30px" preserveAspectRatio="xMaxYMin meet">
         <g id="arrow_out" transform="scale(0.3 0.3)">
          <a xlink:href="a00202_aa57b04eb44ae7982a7a79cdb7c484144_cgraph_org.svg" target="_base">
           <rect id="button" ry="5" rx="5" y="6" x="6" height="38" width="38"
                fill="#f2f5e9" fill-opacity="0.5" stroke="#606060" stroke-width="1.0"/>
           <path id="arrow"
             d="M 11.500037,31.436501 C 11.940474,20.09759 22.043105,11.32322 32.158766,21.979434 L 37.068811,17.246167 C 37.068811,17.246167 37.088388,32 37.088388,32 L 22.160133,31.978069 C 22.160133,31.978069 26.997745,27.140456 26.997745,27.140456 C 18.528582,18.264221 13.291696,25.230495 11.500037,31.436501 z"
             style="fill:#404040;"/>
          </a>
         </g>
        </svg>
</svg>
