<?xml version="1.0" encoding="UTF-8" standalone="no"?>
<!DOCTYPE svg PUBLIC "-//W3C//DTD SVG 1.1//EN"
 "http://www.w3.org/Graphics/SVG/1.1/DTD/svg11.dtd">
<!-- Generated by graphviz version 2.38.0 (20140413.2041)
 -->
<!-- Title: project.android.net.ServerInfo.getAddress Pages: 1 -->
<!--zoomable 256 -->
<svg id="main" version="1.1" xmlns="http://www.w3.org/2000/svg" xmlns:xlink="http://www.w3.org/1999/xlink" xml:space="preserve" onload="init(evt)">
<style type="text/css"><![CDATA[
.edge:hover path { stroke: red; }
.edge:hover polygon { stroke: red; fill: red; }
]]></style>
<script type="text/javascript"><![CDATA[
var edges = document.getElementsByTagName('g');
if (edges && edges.length) {
  for (var i=0;i<edges.length;i++) {
    if (edges[i].id.substr(0,4)=='edge') {
      edges[i].setAttribute('class','edge');
    }
  }
}
]]></script>
        <defs>
                <circle id="rim" cx="0" cy="0" r="7"/>
                <circle id="rim2" cx="0" cy="0" r="3.5"/>
                <g id="zoomPlus">
                        <use xlink:href="#rim" fill="#404040">
                                <set attributeName="fill" to="#808080" begin="zoomplus.mouseover" end="zoomplus.mouseout"/>
                        </use>
                        <path d="M-4,0h8M0,-4v8" fill="none" stroke="white" stroke-width="1.5" pointer-events="none"/>
                </g>
                <g id="zoomMin">
                        <use xlink:href="#rim" fill="#404040">
                                <set attributeName="fill" to="#808080" begin="zoomminus.mouseover" end="zoomminus.mouseout"/>
                        </use>
                        <path d="M-4,0h8" fill="none" stroke="white" stroke-width="1.5" pointer-events="none"/>
                </g>
                <g id="dirArrow">
                        <path fill="none" stroke="white" stroke-width="1.5" d="M0,-3.0v7 M-2.5,-0.5L0,-3.0L2.5,-0.5"/>
                </g>
               <g id="resetDef">
                       <use xlink:href="#rim2" fill="#404040">
                               <set attributeName="fill" to="#808080" begin="reset.mouseover" end="reset.mouseout"/>
                       </use>
               </g>
        </defs>

<script type="text/javascript">
var viewWidth = 1062;
var viewHeight = 256;
var sectionId = 'dynsection-4';
</script>
<script xlink:href="../../svgpan.js"/>
<svg id="graph" class="graph">
<g id="viewport">
<title>project.android.net.ServerInfo.getAddress</title>
<polygon fill="white" stroke="none" points="-4,4 -4,-252.369 1058,-252.369 1058,4 -4,4"/>
<!-- Node7 -->
<g id="node1" class="node"><title>Node7</title>
<polygon fill="#bfbfbf" stroke="black" points="0,-88.3693 0,-114.369 110,-114.369 110,-88.3693 0,-88.3693"/>
<text text-anchor="start" x="8" y="-103.969" font-family="Helvetica,sans-Serif" font-size="8.00">project.android.net.Server</text>
<text text-anchor="middle" x="55" y="-94.9693" font-family="Helvetica,sans-Serif" font-size="8.00">Info.getAddress</text>
</g>
<!-- Node8 -->
<g id="node2" class="node"><title>Node8</title>
<g id="a_node2"><a xlink:href="../../d9/d38/a00166.html#aee2a392b8b0500023dba15b60d3315d2" target="_top" xlink:title="Returns a list of ServerInfo objects. ">
<polygon fill="white" stroke="black" points="146,-151.369 146,-177.369 259,-177.369 259,-151.369 146,-151.369"/>
<text text-anchor="start" x="154" y="-166.969" font-family="Helvetica,sans-Serif" font-size="8.00">project.android.Connection</text>
<text text-anchor="middle" x="202.5" y="-157.969" font-family="Helvetica,sans-Serif" font-size="8.00">Fragment.getNetworkList</text>
</a>
</g>
</g>
<!-- Node7&#45;&gt;Node8 -->
<g id="edge1" class="edge"><title>Node7&#45;&gt;Node8</title>
<path fill="none" stroke="midnightblue" d="M95.6374,-118.532C119.519,-128.873 149.453,-141.833 171.391,-151.332"/>
<polygon fill="midnightblue" stroke="midnightblue" points="96.7151,-115.185 86.1477,-114.423 93.9337,-121.608 96.7151,-115.185"/>
</g>
<!-- Node10 -->
<g id="node4" class="node"><title>Node10</title>
<g id="a_node4"><a xlink:href="../../d5/dcb/a00170.html#aeff09458fb87bd73b69188560508baf5" target="_top" xlink:title="Overrides ArrayAdapter.getView(int, View, ViewGroup) method. ">
<polygon fill="white" stroke="black" points="295,-114.869 295,-131.869 454,-131.869 454,-114.869 295,-114.869"/>
<text text-anchor="middle" x="374.5" y="-121.469" font-family="Helvetica,sans-Serif" font-size="8.00">project.android.CustomAdapter.getView</text>
</a>
</g>
</g>
<!-- Node7&#45;&gt;Node10 -->
<g id="edge14" class="edge"><title>Node7&#45;&gt;Node10</title>
<path fill="none" stroke="midnightblue" d="M120.339,-105.827C170.731,-109.319 241.058,-114.192 294.803,-117.916"/>
<polygon fill="midnightblue" stroke="midnightblue" points="120.437,-102.326 110.219,-105.126 119.954,-109.309 120.437,-102.326"/>
</g>
<!-- Node14 -->
<g id="node8" class="node"><title>Node14</title>
<g id="a_node8"><a xlink:href="../../db/d53/a00202.html#aa57b04eb44ae7982a7a79cdb7c484144" target="_top" xlink:title="Constructor. ">
<polygon fill="white" stroke="black" points="946,-203.369 946,-229.369 1054,-229.369 1054,-203.369 946,-203.369"/>
<text text-anchor="start" x="954" y="-218.969" font-family="Helvetica,sans-Serif" font-size="8.00">project.android.net.Client</text>
<text text-anchor="middle" x="1000" y="-209.969" font-family="Helvetica,sans-Serif" font-size="8.00">IOThread.ClientIOThread</text>
</a>
</g>
</g>
<!-- Node7&#45;&gt;Node14 -->
<g id="edge16" class="edge"><title>Node7&#45;&gt;Node14</title>
<path fill="none" stroke="midnightblue" d="M72.9423,-122.304C89.6173,-141.592 116.769,-169.676 146,-186.369 237.004,-238.341 268.701,-248.369 373.5,-248.369 373.5,-248.369 373.5,-248.369 702.5,-248.369 788.058,-248.369 886.705,-235.036 945.892,-225.582"/>
<polygon fill="midnightblue" stroke="midnightblue" points="75.5896,-120.014 66.4618,-114.635 70.243,-124.532 75.5896,-120.014"/>
</g>
<!-- Node15 -->
<g id="node9" class="node"><title>Node15</title>
<g id="a_node9"><a xlink:href="../../d9/d38/a00166.html#af0e6f7c8aa02553792fd18fbb5e98a2e" target="_top" xlink:title="Sets an icon for an active server. ">
<polygon fill="white" stroke="black" points="645,-88.3693 645,-114.369 758,-114.369 758,-88.3693 645,-88.3693"/>
<text text-anchor="start" x="653" y="-103.969" font-family="Helvetica,sans-Serif" font-size="8.00">project.android.Connection</text>
<text text-anchor="middle" x="701.5" y="-94.9693" font-family="Helvetica,sans-Serif" font-size="8.00">Fragment.setIcon</text>
</a>
</g>
</g>
<!-- Node7&#45;&gt;Node15 -->
<g id="edge13" class="edge"><title>Node7&#45;&gt;Node15</title>
<path fill="none" stroke="midnightblue" d="M120.41,-100.949C223.557,-100.345 432.182,-99.4032 609,-100.369 620.597,-100.433 633.02,-100.541 644.856,-100.664"/>
<polygon fill="midnightblue" stroke="midnightblue" points="120.14,-97.4506 110.161,-101.01 120.182,-104.451 120.14,-97.4506"/>
</g>
<!-- Node17 -->
<g id="node11" class="node"><title>Node17</title>
<g id="a_node11"><a xlink:href="../../d9/d38/a00166.html#aa3204a474571d554c95ddb6bdd2ca012" target="_top" xlink:title="Removes the ServerInfo object of an inactive server from the list of servers. ">
<polygon fill="white" stroke="black" points="146,-26.3693 146,-52.3693 259,-52.3693 259,-26.3693 146,-26.3693"/>
<text text-anchor="start" x="154" y="-41.9693" font-family="Helvetica,sans-Serif" font-size="8.00">project.android.Connection</text>
<text text-anchor="middle" x="202.5" y="-32.9693" font-family="Helvetica,sans-Serif" font-size="8.00">Fragment.removeItem</text>
</a>
</g>
</g>
<!-- Node7&#45;&gt;Node17 -->
<g id="edge11" class="edge"><title>Node7&#45;&gt;Node17</title>
<path fill="none" stroke="midnightblue" d="M96.2218,-84.2301C119.751,-74.2041 148.996,-61.7421 170.688,-52.499"/>
<polygon fill="midnightblue" stroke="midnightblue" points="94.6844,-81.0807 86.8568,-88.2207 97.4285,-87.5204 94.6844,-81.0807"/>
</g>
<!-- Node18 -->
<g id="node12" class="node"><title>Node18</title>
<g id="a_node12"><a xlink:href="../../d7/d6e/a00190.html#a03c170017a27365b50ab860fa21e3d46" target="_top" xlink:title="Performs the broadcast receiving operation. ">
<polygon fill="white" stroke="black" points="313.5,-5.36935 313.5,-31.3693 435.5,-31.3693 435.5,-5.36935 313.5,-5.36935"/>
<text text-anchor="start" x="321.5" y="-20.9693" font-family="Helvetica,sans-Serif" font-size="8.00">project.android.net.Broadcast</text>
<text text-anchor="middle" x="374.5" y="-11.9693" font-family="Helvetica,sans-Serif" font-size="8.00">ReceiverThread.run</text>
</a>
</g>
</g>
<!-- Node7&#45;&gt;Node18 -->
<g id="edge15" class="edge"><title>Node7&#45;&gt;Node18</title>
<path fill="none" stroke="midnightblue" d="M70.9586,-79.8831C86.8355,-59.1477 114.021,-29.0837 146,-16.3693 199.587,4.93579 266.047,1.28924 313.268,-5.77811"/>
<polygon fill="midnightblue" stroke="midnightblue" points="67.9983,-77.9996 64.8655,-88.1207 73.6262,-82.1623 67.9983,-77.9996"/>
</g>
<!-- Node9 -->
<g id="node3" class="node"><title>Node9</title>
<g id="a_node3"><a xlink:href="../../d5/dcb/a00170.html#a9b4dd18431aa7ebd37321a0d2b1d2539" target="_top" xlink:title="Overrides the ArrayAdapter.getCount() method. ">
<polygon fill="white" stroke="black" points="303.5,-193.369 303.5,-219.369 445.5,-219.369 445.5,-193.369 303.5,-193.369"/>
<text text-anchor="start" x="311.5" y="-208.969" font-family="Helvetica,sans-Serif" font-size="8.00">project.android.CustomAdapter.get</text>
<text text-anchor="middle" x="374.5" y="-199.969" font-family="Helvetica,sans-Serif" font-size="8.00">Count</text>
</a>
</g>
</g>
<!-- Node8&#45;&gt;Node9 -->
<g id="edge2" class="edge"><title>Node8&#45;&gt;Node9</title>
<path fill="none" stroke="midnightblue" d="M266.143,-179.846C284.062,-184.273 303.408,-189.052 320.675,-193.319"/>
<polygon fill="midnightblue" stroke="midnightblue" points="266.905,-176.429 256.357,-177.428 265.226,-183.225 266.905,-176.429"/>
</g>
<!-- Node8&#45;&gt;Node10 -->
<g id="edge3" class="edge"><title>Node8&#45;&gt;Node10</title>
<path fill="none" stroke="midnightblue" d="M267.501,-148.934C291.457,-143.156 317.787,-136.806 338.212,-131.88"/>
<polygon fill="midnightblue" stroke="midnightblue" points="266.657,-145.537 257.756,-151.284 268.298,-152.342 266.657,-145.537"/>
</g>
<!-- Node11 -->
<g id="node5" class="node"><title>Node11</title>
<g id="a_node5"><a xlink:href="../../d9/d38/a00166.html#a863b30e1ce16c16e6dba6bebe8d8c45e" target="_top" xlink:title="Returns the View of the clicked list item. ">
<polygon fill="white" stroke="black" points="490,-110.369 490,-136.369 609,-136.369 609,-110.369 490,-110.369"/>
<text text-anchor="start" x="498" y="-125.969" font-family="Helvetica,sans-Serif" font-size="8.00">project.android.Connection</text>
<text text-anchor="middle" x="549.5" y="-116.969" font-family="Helvetica,sans-Serif" font-size="8.00">Fragment.getViewByPosition</text>
</a>
</g>
</g>
<!-- Node10&#45;&gt;Node11 -->
<g id="edge4" class="edge"><title>Node10&#45;&gt;Node11</title>
<path fill="none" stroke="midnightblue" d="M464.348,-123.369C473.038,-123.369 481.697,-123.369 489.972,-123.369"/>
<polygon fill="midnightblue" stroke="midnightblue" points="464.154,-119.869 454.154,-123.369 464.154,-126.869 464.154,-119.869"/>
</g>
<!-- Node12 -->
<g id="node6" class="node"><title>Node12</title>
<g id="a_node6"><a xlink:href="../../d9/d38/a00166.html#a5ae4f9d7872792288afb3de65ab4c2b0" target="_top" xlink:title="Sets an icon for an inactive server. ">
<polygon fill="white" stroke="black" points="645,-152.369 645,-178.369 758,-178.369 758,-152.369 645,-152.369"/>
<text text-anchor="start" x="653" y="-167.969" font-family="Helvetica,sans-Serif" font-size="8.00">project.android.Connection</text>
<text text-anchor="middle" x="701.5" y="-158.969" font-family="Helvetica,sans-Serif" font-size="8.00">Fragment.resetIcon</text>
</a>
</g>
</g>
<!-- Node11&#45;&gt;Node12 -->
<g id="edge5" class="edge"><title>Node11&#45;&gt;Node12</title>
<path fill="none" stroke="midnightblue" d="M607.094,-139.216C622.531,-143.538 639.077,-148.171 653.89,-152.319"/>
<polygon fill="midnightblue" stroke="midnightblue" points="607.712,-135.754 597.139,-136.428 605.825,-142.495 607.712,-135.754"/>
</g>
<!-- Node11&#45;&gt;Node15 -->
<g id="edge9" class="edge"><title>Node11&#45;&gt;Node15</title>
<path fill="none" stroke="midnightblue" d="M619.29,-113.28C627.82,-112.029 636.457,-110.762 644.757,-109.545"/>
<polygon fill="midnightblue" stroke="midnightblue" points="618.74,-109.823 609.353,-114.738 619.756,-116.749 618.74,-109.823"/>
</g>
<!-- Node12&#45;&gt;Node8 -->
<g id="edge6" class="edge"><title>Node12&#45;&gt;Node8</title>
<path fill="none" stroke="midnightblue" d="M634.767,-165.237C536.09,-165.039 351.419,-164.667 259.066,-164.481"/>
<polygon fill="midnightblue" stroke="midnightblue" points="634.905,-168.737 644.912,-165.258 634.92,-161.737 634.905,-168.737"/>
</g>
<!-- Node13 -->
<g id="node7" class="node"><title>Node13</title>
<g id="a_node7"><a xlink:href="../../db/d53/a00202.html#a9f6765867ad54f586cc7b329213a2ac3" target="_top" xlink:title="Performs operations for reading data from a server. ">
<polygon fill="white" stroke="black" points="799,-172.369 799,-198.369 905,-198.369 905,-172.369 799,-172.369"/>
<text text-anchor="start" x="807" y="-187.969" font-family="Helvetica,sans-Serif" font-size="8.00">project.android.net.Client</text>
<text text-anchor="middle" x="852" y="-178.969" font-family="Helvetica,sans-Serif" font-size="8.00">IOThread.run</text>
</a>
</g>
</g>
<!-- Node12&#45;&gt;Node13 -->
<g id="edge7" class="edge"><title>Node12&#45;&gt;Node13</title>
<path fill="none" stroke="midnightblue" d="M768.348,-174.238C778.579,-175.616 789.026,-177.023 798.897,-178.352"/>
<polygon fill="midnightblue" stroke="midnightblue" points="768.596,-170.74 758.218,-172.874 767.662,-177.677 768.596,-170.74"/>
</g>
<!-- Node13&#45;&gt;Node14 -->
<g id="edge8" class="edge"><title>Node13&#45;&gt;Node14</title>
<path fill="none" stroke="midnightblue" d="M915.268,-198.591C925.361,-200.734 935.735,-202.936 945.593,-205.03"/>
<polygon fill="midnightblue" stroke="midnightblue" points="915.806,-195.127 905.297,-196.474 914.352,-201.974 915.806,-195.127"/>
</g>
<!-- Node16 -->
<g id="node10" class="node"><title>Node16</title>
<g id="a_node10"><a xlink:href="../../dc/d9a/a00218.html#a6b623423ab726a2d5008717960032b6d" target="_top" xlink:title="Overrides the Service.onStartCommand(Intent, int, int) method of the Android API. ...">
<polygon fill="white" stroke="black" points="794,-88.3693 794,-114.369 910,-114.369 910,-88.3693 794,-88.3693"/>
<text text-anchor="start" x="802" y="-103.969" font-family="Helvetica,sans-Serif" font-size="8.00">project.android.net.Network</text>
<text text-anchor="middle" x="852" y="-94.9693" font-family="Helvetica,sans-Serif" font-size="8.00">Service.onStartCommand</text>
</a>
</g>
</g>
<!-- Node15&#45;&gt;Node16 -->
<g id="edge10" class="edge"><title>Node15&#45;&gt;Node16</title>
<path fill="none" stroke="midnightblue" d="M768.486,-101.369C776.989,-101.369 785.638,-101.369 793.979,-101.369"/>
<polygon fill="midnightblue" stroke="midnightblue" points="768.218,-97.8694 758.218,-101.369 768.218,-104.869 768.218,-97.8694"/>
</g>
<!-- Node17&#45;&gt;Node18 -->
<g id="edge12" class="edge"><title>Node17&#45;&gt;Node18</title>
<path fill="none" stroke="midnightblue" d="M269.507,-31.2155C283.934,-29.4334 299.129,-27.5563 313.314,-25.8041"/>
<polygon fill="midnightblue" stroke="midnightblue" points="268.66,-27.7935 259.164,-32.4932 269.518,-34.7407 268.66,-27.7935"/>
</g>
</g>
</svg>
        <g id="navigator" transform="translate(0 0)" fill="#404254">
                <rect fill="#f2f5e9" fill-opacity="0.5" stroke="#606060" stroke-width=".5" x="0" y="0" width="60" height="60"/>
                <use id="zoomplus" xlink:href="#zoomPlus" x="17" y="9" onmousedown="handleZoom(evt,'in')"/>
                <use id="zoomminus" xlink:href="#zoomMin" x="42" y="9" onmousedown="handleZoom(evt,'out')"/>
                <use id="reset" xlink:href="#resetDef" x="30" y="36" onmousedown="handleReset()"/>
                <g id="arrowUp" xlink:href="#dirArrow" transform="translate(30 24)" onmousedown="handlePan(0,-1)">
                  <use xlink:href="#rim" fill="#404040">
                        <set attributeName="fill" to="#808080" begin="arrowUp.mouseover" end="arrowUp.mouseout"/>
                  </use>
                  <path fill="none" stroke="white" stroke-width="1.5" d="M0,-3.0v7 M-2.5,-0.5L0,-3.0L2.5,-0.5"/>
                </g>
                <g id="arrowRight" xlink:href="#dirArrow" transform="rotate(90) translate(36 -43)" onmousedown="handlePan(1,0)">
                  <use xlink:href="#rim" fill="#404040">
                        <set attributeName="fill" to="#808080" begin="arrowRight.mouseover" end="arrowRight.mouseout"/>
                  </use>
                  <path fill="none" stroke="white" stroke-width="1.5" d="M0,-3.0v7 M-2.5,-0.5L0,-3.0L2.5,-0.5"/>
                </g>
                <g id="arrowDown" xlink:href="#dirArrow" transform="rotate(180) translate(-30 -48)" onmousedown="handlePan(0,1)">
                  <use xlink:href="#rim" fill="#404040">
                        <set attributeName="fill" to="#808080" begin="arrowDown.mouseover" end="arrowDown.mouseout"/>
                  </use>
                  <path fill="none" stroke="white" stroke-width="1.5" d="M0,-3.0v7 M-2.5,-0.5L0,-3.0L2.5,-0.5"/>
                </g>
                <g id="arrowLeft" xlink:href="#dirArrow" transform="rotate(270) translate(-36 17)" onmousedown="handlePan(-1,0)">
                  <use xlink:href="#rim" fill="#404040">
                        <set attributeName="fill" to="#808080" begin="arrowLeft.mouseover" end="arrowLeft.mouseout"/>
                  </use>
                  <path fill="none" stroke="white" stroke-width="1.5" d="M0,-3.0v7 M-2.5,-0.5L0,-3.0L2.5,-0.5"/>
                </g>
        </g>
        <svg viewBox="0 0 15 15" width="100%" height="30px" preserveAspectRatio="xMaxYMin meet">
         <g id="arrow_out" transform="scale(0.3 0.3)">
          <a xlink:href="a00222_a914c65a49cf5940901d475693ee8e205_icgraph_org.svg" target="_base">
           <rect id="button" ry="5" rx="5" y="6" x="6" height="38" width="38"
                fill="#f2f5e9" fill-opacity="0.5" stroke="#606060" stroke-width="1.0"/>
           <path id="arrow"
             d="M 11.500037,31.436501 C 11.940474,20.09759 22.043105,11.32322 32.158766,21.979434 L 37.068811,17.246167 C 37.068811,17.246167 37.088388,32 37.088388,32 L 22.160133,31.978069 C 22.160133,31.978069 26.997745,27.140456 26.997745,27.140456 C 18.528582,18.264221 13.291696,25.230495 11.500037,31.436501 z"
             style="fill:#404040;"/>
          </a>
         </g>
        </svg>
</svg>
