<?xml version="1.0" encoding="UTF-8" standalone="no"?>
<!DOCTYPE svg PUBLIC "-//W3C//DTD SVG 1.1//EN"
 "http://www.w3.org/Graphics/SVG/1.1/DTD/svg11.dtd">
<!-- Generated by graphviz version 2.38.0 (20140413.2041)
 -->
<!-- Title: project.android.net.ServerInfo.setPairingKey Pages: 1 -->
<!--zoomable 115 -->
<svg id="main" version="1.1" xmlns="http://www.w3.org/2000/svg" xmlns:xlink="http://www.w3.org/1999/xlink" xml:space="preserve" onload="init(evt)">
<style type="text/css"><![CDATA[
.edge:hover path { stroke: red; }
.edge:hover polygon { stroke: red; fill: red; }
]]></style>
<script type="text/javascript"><![CDATA[
var edges = document.getElementsByTagName('g');
if (edges && edges.length) {
  for (var i=0;i<edges.length;i++) {
    if (edges[i].id.substr(0,4)=='edge') {
      edges[i].setAttribute('class','edge');
    }
  }
}
]]></script>
        <defs>
                <circle id="rim" cx="0" cy="0" r="7"/>
                <circle id="rim2" cx="0" cy="0" r="3.5"/>
                <g id="zoomPlus">
                        <use xlink:href="#rim" fill="#404040">
                                <set attributeName="fill" to="#808080" begin="zoomplus.mouseover" end="zoomplus.mouseout"/>
                        </use>
                        <path d="M-4,0h8M0,-4v8" fill="none" stroke="white" stroke-width="1.5" pointer-events="none"/>
                </g>
                <g id="zoomMin">
                        <use xlink:href="#rim" fill="#404040">
                                <set attributeName="fill" to="#808080" begin="zoomminus.mouseover" end="zoomminus.mouseout"/>
                        </use>
                        <path d="M-4,0h8" fill="none" stroke="white" stroke-width="1.5" pointer-events="none"/>
                </g>
                <g id="dirArrow">
                        <path fill="none" stroke="white" stroke-width="1.5" d="M0,-3.0v7 M-2.5,-0.5L0,-3.0L2.5,-0.5"/>
                </g>
               <g id="resetDef">
                       <use xlink:href="#rim2" fill="#404040">
                               <set attributeName="fill" to="#808080" begin="reset.mouseover" end="reset.mouseout"/>
                       </use>
               </g>
        </defs>

<script type="text/javascript">
var viewWidth = 1062;
var viewHeight = 115;
var sectionId = 'dynsection-7';
</script>
<script xlink:href="../../svgpan.js"/>
<svg id="graph" class="graph">
<g id="viewport">
<title>project.android.net.ServerInfo.setPairingKey</title>
<polygon fill="white" stroke="none" points="-4,4 -4,-111 1058,-111 1058,4 -4,4"/>
<!-- Node38 -->
<g id="node1" class="node"><title>Node38</title>
<polygon fill="#bfbfbf" stroke="black" points="0,-39.5 0,-65.5 110,-65.5 110,-39.5 0,-39.5"/>
<text text-anchor="start" x="8" y="-55.1" font-family="Helvetica,sans-Serif" font-size="8.00">project.android.net.Server</text>
<text text-anchor="middle" x="55" y="-46.1" font-family="Helvetica,sans-Serif" font-size="8.00">Info.setPairingKey</text>
</g>
<!-- Node39 -->
<g id="node2" class="node"><title>Node39</title>
<g id="a_node2"><a xlink:href="../../d9/d38/a00166.html#aee2a392b8b0500023dba15b60d3315d2" target="_top" xlink:title="Returns a list of ServerInfo objects. ">
<polygon fill="white" stroke="black" points="146,-39.5 146,-65.5 259,-65.5 259,-39.5 146,-39.5"/>
<text text-anchor="start" x="154" y="-55.1" font-family="Helvetica,sans-Serif" font-size="8.00">project.android.Connection</text>
<text text-anchor="middle" x="202.5" y="-46.1" font-family="Helvetica,sans-Serif" font-size="8.00">Fragment.getNetworkList</text>
</a>
</g>
</g>
<!-- Node38&#45;&gt;Node39 -->
<g id="edge1" class="edge"><title>Node38&#45;&gt;Node39</title>
<path fill="none" stroke="midnightblue" d="M120.407,-52.5C128.88,-52.5 137.507,-52.5 145.818,-52.5"/>
<polygon fill="midnightblue" stroke="midnightblue" points="120.179,-49.0001 110.179,-52.5 120.179,-56.0001 120.179,-49.0001"/>
</g>
<!-- Node40 -->
<g id="node3" class="node"><title>Node40</title>
<g id="a_node3"><a xlink:href="../../d5/dcb/a00170.html#a9b4dd18431aa7ebd37321a0d2b1d2539" target="_top" xlink:title="Overrides the ArrayAdapter.getCount() method. ">
<polygon fill="white" stroke="black" points="303.5,-80.5 303.5,-106.5 445.5,-106.5 445.5,-80.5 303.5,-80.5"/>
<text text-anchor="start" x="311.5" y="-96.1" font-family="Helvetica,sans-Serif" font-size="8.00">project.android.CustomAdapter.get</text>
<text text-anchor="middle" x="374.5" y="-87.1" font-family="Helvetica,sans-Serif" font-size="8.00">Count</text>
</a>
</g>
</g>
<!-- Node39&#45;&gt;Node40 -->
<g id="edge2" class="edge"><title>Node39&#45;&gt;Node40</title>
<path fill="none" stroke="midnightblue" d="M267.649,-67.9712C284.723,-72.0891 302.994,-76.4956 319.467,-80.4686"/>
<polygon fill="midnightblue" stroke="midnightblue" points="268.298,-64.5276 257.756,-65.5854 266.657,-71.3324 268.298,-64.5276"/>
</g>
<!-- Node41 -->
<g id="node4" class="node"><title>Node41</title>
<g id="a_node4"><a xlink:href="../../d5/dcb/a00170.html#aeff09458fb87bd73b69188560508baf5" target="_top" xlink:title="Overrides ArrayAdapter.getView(int, View, ViewGroup) method. ">
<polygon fill="white" stroke="black" points="295,-44 295,-61 454,-61 454,-44 295,-44"/>
<text text-anchor="middle" x="374.5" y="-50.6" font-family="Helvetica,sans-Serif" font-size="8.00">project.android.CustomAdapter.getView</text>
</a>
</g>
</g>
<!-- Node39&#45;&gt;Node41 -->
<g id="edge3" class="edge"><title>Node39&#45;&gt;Node41</title>
<path fill="none" stroke="midnightblue" d="M269.252,-52.5C277.648,-52.5 286.31,-52.5 294.884,-52.5"/>
<polygon fill="midnightblue" stroke="midnightblue" points="269.164,-49.0001 259.164,-52.5 269.164,-56.0001 269.164,-49.0001"/>
</g>
<!-- Node42 -->
<g id="node5" class="node"><title>Node42</title>
<g id="a_node5"><a xlink:href="../../d9/d38/a00166.html#a863b30e1ce16c16e6dba6bebe8d8c45e" target="_top" xlink:title="Returns the View of the clicked list item. ">
<polygon fill="white" stroke="black" points="490,-42.5 490,-68.5 609,-68.5 609,-42.5 490,-42.5"/>
<text text-anchor="start" x="498" y="-58.1" font-family="Helvetica,sans-Serif" font-size="8.00">project.android.Connection</text>
<text text-anchor="middle" x="549.5" y="-49.1" font-family="Helvetica,sans-Serif" font-size="8.00">Fragment.getViewByPosition</text>
</a>
</g>
</g>
<!-- Node41&#45;&gt;Node42 -->
<g id="edge4" class="edge"><title>Node41&#45;&gt;Node42</title>
<path fill="none" stroke="midnightblue" d="M464.348,-54.0407C473.038,-54.1914 481.697,-54.3416 489.972,-54.4851"/>
<polygon fill="midnightblue" stroke="midnightblue" points="464.213,-50.5379 454.154,-53.8639 464.091,-57.5369 464.213,-50.5379"/>
</g>
<!-- Node43 -->
<g id="node6" class="node"><title>Node43</title>
<g id="a_node6"><a xlink:href="../../d9/d38/a00166.html#a5ae4f9d7872792288afb3de65ab4c2b0" target="_top" xlink:title="Sets an icon for an inactive server. ">
<polygon fill="white" stroke="black" points="645,-0.5 645,-26.5 758,-26.5 758,-0.5 645,-0.5"/>
<text text-anchor="start" x="653" y="-16.1" font-family="Helvetica,sans-Serif" font-size="8.00">project.android.Connection</text>
<text text-anchor="middle" x="701.5" y="-7.1" font-family="Helvetica,sans-Serif" font-size="8.00">Fragment.resetIcon</text>
</a>
</g>
</g>
<!-- Node42&#45;&gt;Node43 -->
<g id="edge5" class="edge"><title>Node42&#45;&gt;Node43</title>
<path fill="none" stroke="midnightblue" d="M607.094,-39.6538C622.531,-35.3313 639.077,-30.6984 653.89,-26.5508"/>
<polygon fill="midnightblue" stroke="midnightblue" points="605.825,-36.3744 597.139,-42.4412 607.712,-43.1152 605.825,-36.3744"/>
</g>
<!-- Node46 -->
<g id="node9" class="node"><title>Node46</title>
<g id="a_node9"><a xlink:href="../../d9/d38/a00166.html#af0e6f7c8aa02553792fd18fbb5e98a2e" target="_top" xlink:title="Sets an icon for an active server. ">
<polygon fill="white" stroke="black" points="645,-45.5 645,-71.5 758,-71.5 758,-45.5 645,-45.5"/>
<text text-anchor="start" x="653" y="-61.1" font-family="Helvetica,sans-Serif" font-size="8.00">project.android.Connection</text>
<text text-anchor="middle" x="701.5" y="-52.1" font-family="Helvetica,sans-Serif" font-size="8.00">Fragment.setIcon</text>
</a>
</g>
</g>
<!-- Node42&#45;&gt;Node46 -->
<g id="edge9" class="edge"><title>Node42&#45;&gt;Node46</title>
<path fill="none" stroke="midnightblue" d="M619.568,-56.8814C628.008,-57.0502 636.547,-57.2209 644.757,-57.3851"/>
<polygon fill="midnightblue" stroke="midnightblue" points="619.421,-53.3778 609.353,-56.6771 619.281,-60.3764 619.421,-53.3778"/>
</g>
<!-- Node43&#45;&gt;Node39 -->
<g id="edge6" class="edge"><title>Node43&#45;&gt;Node39</title>
<path fill="none" stroke="midnightblue" d="M634.386,-14.0373C553.91,-15.3556 414.013,-19.7882 295,-34.5 283.431,-35.9301 271.132,-37.9795 259.429,-40.1869"/>
<polygon fill="midnightblue" stroke="midnightblue" points="634.913,-17.5298 644.859,-13.8779 634.806,-10.5306 634.913,-17.5298"/>
</g>
<!-- Node44 -->
<g id="node7" class="node"><title>Node44</title>
<g id="a_node7"><a xlink:href="../../db/d53/a00202.html#a9f6765867ad54f586cc7b329213a2ac3" target="_top" xlink:title="Performs operations for reading data from a server. ">
<polygon fill="white" stroke="black" points="799,-0.5 799,-26.5 905,-26.5 905,-0.5 799,-0.5"/>
<text text-anchor="start" x="807" y="-16.1" font-family="Helvetica,sans-Serif" font-size="8.00">project.android.net.Client</text>
<text text-anchor="middle" x="852" y="-7.1" font-family="Helvetica,sans-Serif" font-size="8.00">IOThread.run</text>
</a>
</g>
</g>
<!-- Node43&#45;&gt;Node44 -->
<g id="edge7" class="edge"><title>Node43&#45;&gt;Node44</title>
<path fill="none" stroke="midnightblue" d="M768.348,-13.5C778.579,-13.5 789.026,-13.5 798.897,-13.5"/>
<polygon fill="midnightblue" stroke="midnightblue" points="768.218,-10.0001 758.218,-13.5 768.218,-17.0001 768.218,-10.0001"/>
</g>
<!-- Node45 -->
<g id="node8" class="node"><title>Node45</title>
<g id="a_node8"><a xlink:href="../../db/d53/a00202.html#aa57b04eb44ae7982a7a79cdb7c484144" target="_top" xlink:title="Constructor. ">
<polygon fill="white" stroke="black" points="946,-0.5 946,-26.5 1054,-26.5 1054,-0.5 946,-0.5"/>
<text text-anchor="start" x="954" y="-16.1" font-family="Helvetica,sans-Serif" font-size="8.00">project.android.net.Client</text>
<text text-anchor="middle" x="1000" y="-7.1" font-family="Helvetica,sans-Serif" font-size="8.00">IOThread.ClientIOThread</text>
</a>
</g>
</g>
<!-- Node44&#45;&gt;Node45 -->
<g id="edge8" class="edge"><title>Node44&#45;&gt;Node45</title>
<path fill="none" stroke="midnightblue" d="M915.583,-13.5C925.577,-13.5 935.837,-13.5 945.593,-13.5"/>
<polygon fill="midnightblue" stroke="midnightblue" points="915.297,-10.0001 905.297,-13.5 915.297,-17.0001 915.297,-10.0001"/>
</g>
<!-- Node47 -->
<g id="node10" class="node"><title>Node47</title>
<g id="a_node10"><a xlink:href="../../dc/d9a/a00218.html#a6b623423ab726a2d5008717960032b6d" target="_top" xlink:title="Overrides the Service.onStartCommand(Intent, int, int) method of the Android API. ...">
<polygon fill="white" stroke="black" points="794,-45.5 794,-71.5 910,-71.5 910,-45.5 794,-45.5"/>
<text text-anchor="start" x="802" y="-61.1" font-family="Helvetica,sans-Serif" font-size="8.00">project.android.net.Network</text>
<text text-anchor="middle" x="852" y="-52.1" font-family="Helvetica,sans-Serif" font-size="8.00">Service.onStartCommand</text>
</a>
</g>
</g>
<!-- Node46&#45;&gt;Node47 -->
<g id="edge10" class="edge"><title>Node46&#45;&gt;Node47</title>
<path fill="none" stroke="midnightblue" d="M768.486,-58.5C776.989,-58.5 785.638,-58.5 793.979,-58.5"/>
<polygon fill="midnightblue" stroke="midnightblue" points="768.218,-55.0001 758.218,-58.5 768.218,-62.0001 768.218,-55.0001"/>
</g>
</g>
</svg>
        <g id="navigator" transform="translate(0 0)" fill="#404254">
                <rect fill="#f2f5e9" fill-opacity="0.5" stroke="#606060" stroke-width=".5" x="0" y="0" width="60" height="60"/>
                <use id="zoomplus" xlink:href="#zoomPlus" x="17" y="9" onmousedown="handleZoom(evt,'in')"/>
                <use id="zoomminus" xlink:href="#zoomMin" x="42" y="9" onmousedown="handleZoom(evt,'out')"/>
                <use id="reset" xlink:href="#resetDef" x="30" y="36" onmousedown="handleReset()"/>
                <g id="arrowUp" xlink:href="#dirArrow" transform="translate(30 24)" onmousedown="handlePan(0,-1)">
                  <use xlink:href="#rim" fill="#404040">
                        <set attributeName="fill" to="#808080" begin="arrowUp.mouseover" end="arrowUp.mouseout"/>
                  </use>
                  <path fill="none" stroke="white" stroke-width="1.5" d="M0,-3.0v7 M-2.5,-0.5L0,-3.0L2.5,-0.5"/>
                </g>
                <g id="arrowRight" xlink:href="#dirArrow" transform="rotate(90) translate(36 -43)" onmousedown="handlePan(1,0)">
                  <use xlink:href="#rim" fill="#404040">
                        <set attributeName="fill" to="#808080" begin="arrowRight.mouseover" end="arrowRight.mouseout"/>
                  </use>
                  <path fill="none" stroke="white" stroke-width="1.5" d="M0,-3.0v7 M-2.5,-0.5L0,-3.0L2.5,-0.5"/>
                </g>
                <g id="arrowDown" xlink:href="#dirArrow" transform="rotate(180) translate(-30 -48)" onmousedown="handlePan(0,1)">
                  <use xlink:href="#rim" fill="#404040">
                        <set attributeName="fill" to="#808080" begin="arrowDown.mouseover" end="arrowDown.mouseout"/>
                  </use>
                  <path fill="none" stroke="white" stroke-width="1.5" d="M0,-3.0v7 M-2.5,-0.5L0,-3.0L2.5,-0.5"/>
                </g>
                <g id="arrowLeft" xlink:href="#dirArrow" transform="rotate(270) translate(-36 17)" onmousedown="handlePan(-1,0)">
                  <use xlink:href="#rim" fill="#404040">
                        <set attributeName="fill" to="#808080" begin="arrowLeft.mouseover" end="arrowLeft.mouseout"/>
                  </use>
                  <path fill="none" stroke="white" stroke-width="1.5" d="M0,-3.0v7 M-2.5,-0.5L0,-3.0L2.5,-0.5"/>
                </g>
        </g>
        <svg viewBox="0 0 15 15" width="100%" height="30px" preserveAspectRatio="xMaxYMin meet">
         <g id="arrow_out" transform="scale(0.3 0.3)">
          <a xlink:href="a00222_a19b6bb0a1264932dfc136820ec21620f_icgraph_org.svg" target="_base">
           <rect id="button" ry="5" rx="5" y="6" x="6" height="38" width="38"
                fill="#f2f5e9" fill-opacity="0.5" stroke="#606060" stroke-width="1.0"/>
           <path id="arrow"
             d="M 11.500037,31.436501 C 11.940474,20.09759 22.043105,11.32322 32.158766,21.979434 L 37.068811,17.246167 C 37.068811,17.246167 37.088388,32 37.088388,32 L 22.160133,31.978069 C 22.160133,31.978069 26.997745,27.140456 26.997745,27.140456 C 18.528582,18.264221 13.291696,25.230495 11.500037,31.436501 z"
             style="fill:#404040;"/>
          </a>
         </g>
        </svg>
</svg>
