<?xml version="1.0" encoding="UTF-8" standalone="no"?>
<!DOCTYPE svg PUBLIC "-//W3C//DTD SVG 1.1//EN"
 "http://www.w3.org/Graphics/SVG/1.1/DTD/svg11.dtd">
<!-- Generated by graphviz version 2.38.0 (20140413.2041)
 -->
<!-- Title: project.android.net.ServerInfo.getServerInfo Pages: 1 -->
<svg width="947pt" height="125pt"
 viewBox="0.00 0.00 947.00 125.00" xmlns="http://www.w3.org/2000/svg" xmlns:xlink="http://www.w3.org/1999/xlink">
<g id="graph0" class="graph" transform="scale(1 1) rotate(0) translate(4 121)">
<title>project.android.net.ServerInfo.getServerInfo</title>
<polygon fill="white" stroke="none" points="-4,4 -4,-121 943,-121 943,4 -4,4"/>
<!-- Node22 -->
<g id="node1" class="node"><title>Node22</title>
<polygon fill="#bfbfbf" stroke="black" points="0,-23.5 0,-49.5 110,-49.5 110,-23.5 0,-23.5"/>
<text text-anchor="start" x="8" y="-39.1" font-family="Helvetica,sans-Serif" font-size="8.00">project.android.net.Server</text>
<text text-anchor="middle" x="55" y="-30.1" font-family="Helvetica,sans-Serif" font-size="8.00">Info.getServerInfo</text>
</g>
<!-- Node23 -->
<g id="node2" class="node"><title>Node23</title>
<g id="a_node2"><a xlink:href="../../d9/d38/a00166.html#af0e6f7c8aa02553792fd18fbb5e98a2e" target="_top" xlink:title="Sets an icon for an active server. ">
<polygon fill="white" stroke="black" points="496,-1.5 496,-27.5 609,-27.5 609,-1.5 496,-1.5"/>
<text text-anchor="start" x="504" y="-17.1" font-family="Helvetica,sans-Serif" font-size="8.00">project.android.Connection</text>
<text text-anchor="middle" x="552.5" y="-8.1" font-family="Helvetica,sans-Serif" font-size="8.00">Fragment.setIcon</text>
</a>
</g>
</g>
<!-- Node22&#45;&gt;Node23 -->
<g id="edge1" class="edge"><title>Node22&#45;&gt;Node23</title>
<path fill="none" stroke="midnightblue" d="M120.518,-33.6354C218.544,-29.2831 403.345,-21.078 495.829,-16.9718"/>
<polygon fill="midnightblue" stroke="midnightblue" points="120.279,-30.1425 110.445,-34.0827 120.59,-37.1356 120.279,-30.1425"/>
</g>
<!-- Node25 -->
<g id="node4" class="node"><title>Node25</title>
<g id="a_node4"><a xlink:href="../../d5/dcb/a00170.html#aeff09458fb87bd73b69188560508baf5" target="_top" xlink:title="Overrides ArrayAdapter.getView(int, View, ViewGroup) method. ">
<polygon fill="white" stroke="black" points="146,-50 146,-67 305,-67 305,-50 146,-50"/>
<text text-anchor="middle" x="225.5" y="-56.6" font-family="Helvetica,sans-Serif" font-size="8.00">project.android.CustomAdapter.getView</text>
</a>
</g>
</g>
<!-- Node22&#45;&gt;Node25 -->
<g id="edge3" class="edge"><title>Node22&#45;&gt;Node25</title>
<path fill="none" stroke="midnightblue" d="M120.291,-44.8941C133.024,-46.5565 146.402,-48.3032 159.169,-49.9701"/>
<polygon fill="midnightblue" stroke="midnightblue" points="120.611,-41.4062 110.242,-43.582 119.705,-48.3473 120.611,-41.4062"/>
</g>
<!-- Node24 -->
<g id="node3" class="node"><title>Node24</title>
<g id="a_node3"><a xlink:href="../../dc/d9a/a00218.html#a6b623423ab726a2d5008717960032b6d" target="_top" xlink:title="Overrides the Service.onStartCommand(Intent, int, int) method of the Android API. ...">
<polygon fill="white" stroke="black" points="645,-0.5 645,-26.5 761,-26.5 761,-0.5 645,-0.5"/>
<text text-anchor="start" x="653" y="-16.1" font-family="Helvetica,sans-Serif" font-size="8.00">project.android.net.Network</text>
<text text-anchor="middle" x="703" y="-7.1" font-family="Helvetica,sans-Serif" font-size="8.00">Service.onStartCommand</text>
</a>
</g>
</g>
<!-- Node23&#45;&gt;Node24 -->
<g id="edge2" class="edge"><title>Node23&#45;&gt;Node24</title>
<path fill="none" stroke="midnightblue" d="M619.486,-14.0556C627.989,-13.9984 636.638,-13.9402 644.979,-13.884"/>
<polygon fill="midnightblue" stroke="midnightblue" points="619.195,-10.5574 609.218,-14.1248 619.242,-17.5573 619.195,-10.5574"/>
</g>
<!-- Node26 -->
<g id="node5" class="node"><title>Node26</title>
<g id="a_node5"><a xlink:href="../../d9/d38/a00166.html#a863b30e1ce16c16e6dba6bebe8d8c45e" target="_top" xlink:title="Returns the View of the clicked list item. ">
<polygon fill="white" stroke="black" points="341,-45.5 341,-71.5 460,-71.5 460,-45.5 341,-45.5"/>
<text text-anchor="start" x="349" y="-61.1" font-family="Helvetica,sans-Serif" font-size="8.00">project.android.Connection</text>
<text text-anchor="middle" x="400.5" y="-52.1" font-family="Helvetica,sans-Serif" font-size="8.00">Fragment.getViewByPosition</text>
</a>
</g>
</g>
<!-- Node25&#45;&gt;Node26 -->
<g id="edge4" class="edge"><title>Node25&#45;&gt;Node26</title>
<path fill="none" stroke="midnightblue" d="M315.348,-58.5C324.038,-58.5 332.697,-58.5 340.972,-58.5"/>
<polygon fill="midnightblue" stroke="midnightblue" points="315.154,-55.0001 305.154,-58.5 315.154,-62.0001 315.154,-55.0001"/>
</g>
<!-- Node26&#45;&gt;Node23 -->
<g id="edge11" class="edge"><title>Node26&#45;&gt;Node23</title>
<path fill="none" stroke="midnightblue" d="M455.809,-42.5694C472.645,-37.6308 490.991,-32.2494 507.073,-27.5319"/>
<polygon fill="midnightblue" stroke="midnightblue" points="454.709,-39.2444 446.099,-45.4177 456.68,-45.9614 454.709,-39.2444"/>
</g>
<!-- Node27 -->
<g id="node6" class="node"><title>Node27</title>
<g id="a_node6"><a xlink:href="../../d9/d38/a00166.html#a5ae4f9d7872792288afb3de65ab4c2b0" target="_top" xlink:title="Sets an icon for an inactive server. ">
<polygon fill="white" stroke="black" points="496,-46.5 496,-72.5 609,-72.5 609,-46.5 496,-46.5"/>
<text text-anchor="start" x="504" y="-62.1" font-family="Helvetica,sans-Serif" font-size="8.00">project.android.Connection</text>
<text text-anchor="middle" x="552.5" y="-53.1" font-family="Helvetica,sans-Serif" font-size="8.00">Fragment.resetIcon</text>
</a>
</g>
</g>
<!-- Node26&#45;&gt;Node27 -->
<g id="edge5" class="edge"><title>Node26&#45;&gt;Node27</title>
<path fill="none" stroke="midnightblue" d="M470.568,-58.9605C479.008,-59.0167 487.547,-59.0736 495.757,-59.1284"/>
<polygon fill="midnightblue" stroke="midnightblue" points="470.377,-55.4592 460.353,-58.8924 470.33,-62.459 470.377,-55.4592"/>
</g>
<!-- Node28 -->
<g id="node7" class="node"><title>Node28</title>
<g id="a_node7"><a xlink:href="../../d9/d38/a00166.html#aee2a392b8b0500023dba15b60d3315d2" target="_top" xlink:title="Returns a list of ServerInfo objects. ">
<polygon fill="white" stroke="black" points="646.5,-90.5 646.5,-116.5 759.5,-116.5 759.5,-90.5 646.5,-90.5"/>
<text text-anchor="start" x="654.5" y="-106.1" font-family="Helvetica,sans-Serif" font-size="8.00">project.android.Connection</text>
<text text-anchor="middle" x="703" y="-97.1" font-family="Helvetica,sans-Serif" font-size="8.00">Fragment.getNetworkList</text>
</a>
</g>
</g>
<!-- Node27&#45;&gt;Node28 -->
<g id="edge6" class="edge"><title>Node27&#45;&gt;Node28</title>
<path fill="none" stroke="midnightblue" d="M607.266,-75.4306C623.934,-80.3692 642.096,-85.7506 658.017,-90.4681"/>
<polygon fill="midnightblue" stroke="midnightblue" points="608.235,-72.0675 597.653,-72.5823 606.246,-78.7791 608.235,-72.0675"/>
</g>
<!-- Node30 -->
<g id="node9" class="node"><title>Node30</title>
<g id="a_node9"><a xlink:href="../../db/d53/a00202.html#a9f6765867ad54f586cc7b329213a2ac3" target="_top" xlink:title="Performs operations for reading data from a server. ">
<polygon fill="white" stroke="black" points="650,-45.5 650,-71.5 756,-71.5 756,-45.5 650,-45.5"/>
<text text-anchor="start" x="658" y="-61.1" font-family="Helvetica,sans-Serif" font-size="8.00">project.android.net.Client</text>
<text text-anchor="middle" x="703" y="-52.1" font-family="Helvetica,sans-Serif" font-size="8.00">IOThread.run</text>
</a>
</g>
</g>
<!-- Node27&#45;&gt;Node30 -->
<g id="edge9" class="edge"><title>Node27&#45;&gt;Node30</title>
<path fill="none" stroke="midnightblue" d="M619.348,-59.0566C629.579,-58.9877 640.026,-58.9173 649.897,-58.8509"/>
<polygon fill="midnightblue" stroke="midnightblue" points="619.195,-55.5574 609.218,-59.1248 619.242,-62.5573 619.195,-55.5574"/>
</g>
<!-- Node28&#45;&gt;Node25 -->
<g id="edge8" class="edge"><title>Node28&#45;&gt;Node25</title>
<path fill="none" stroke="midnightblue" d="M636.09,-101.796C563.538,-99.341 443.574,-93.5688 341,-80.5 315.298,-77.2253 286.673,-71.7253 264.473,-67.044"/>
<polygon fill="midnightblue" stroke="midnightblue" points="636.334,-105.306 646.443,-102.135 636.563,-98.3099 636.334,-105.306"/>
</g>
<!-- Node29 -->
<g id="node8" class="node"><title>Node29</title>
<g id="a_node8"><a xlink:href="../../d5/dcb/a00170.html#a9b4dd18431aa7ebd37321a0d2b1d2539" target="_top" xlink:title="Overrides the ArrayAdapter.getCount() method. ">
<polygon fill="white" stroke="black" points="797,-90.5 797,-116.5 939,-116.5 939,-90.5 797,-90.5"/>
<text text-anchor="start" x="805" y="-106.1" font-family="Helvetica,sans-Serif" font-size="8.00">project.android.CustomAdapter.get</text>
<text text-anchor="middle" x="868" y="-97.1" font-family="Helvetica,sans-Serif" font-size="8.00">Count</text>
</a>
</g>
</g>
<!-- Node28&#45;&gt;Node29 -->
<g id="edge7" class="edge"><title>Node28&#45;&gt;Node29</title>
<path fill="none" stroke="midnightblue" d="M769.927,-103.5C778.813,-103.5 787.955,-103.5 796.911,-103.5"/>
<polygon fill="midnightblue" stroke="midnightblue" points="769.639,-100 759.639,-103.5 769.639,-107 769.639,-100"/>
</g>
<!-- Node31 -->
<g id="node10" class="node"><title>Node31</title>
<g id="a_node10"><a xlink:href="../../db/d53/a00202.html#aa57b04eb44ae7982a7a79cdb7c484144" target="_top" xlink:title="Constructor. ">
<polygon fill="white" stroke="black" points="814,-45.5 814,-71.5 922,-71.5 922,-45.5 814,-45.5"/>
<text text-anchor="start" x="822" y="-61.1" font-family="Helvetica,sans-Serif" font-size="8.00">project.android.net.Client</text>
<text text-anchor="middle" x="868" y="-52.1" font-family="Helvetica,sans-Serif" font-size="8.00">IOThread.ClientIOThread</text>
</a>
</g>
</g>
<!-- Node30&#45;&gt;Node31 -->
<g id="edge10" class="edge"><title>Node30&#45;&gt;Node31</title>
<path fill="none" stroke="midnightblue" d="M766.166,-58.5C781.865,-58.5 798.579,-58.5 813.792,-58.5"/>
<polygon fill="midnightblue" stroke="midnightblue" points="766.022,-55.0001 756.022,-58.5 766.022,-62.0001 766.022,-55.0001"/>
</g>
</g>
</svg>
