<?xml version="1.0" encoding="UTF-8" standalone="no"?>
<!DOCTYPE svg PUBLIC "-//W3C//DTD SVG 1.1//EN"
 "http://www.w3.org/Graphics/SVG/1.1/DTD/svg11.dtd">
<!-- Generated by graphviz version 2.38.0 (20140413.2041)
 -->
<!-- Title: project.android.net.ServerInfo.equals Pages: 1 -->
<svg width="264pt" height="53pt"
 viewBox="0.00 0.00 264.00 53.00" xmlns="http://www.w3.org/2000/svg" xmlns:xlink="http://www.w3.org/1999/xlink">
<g id="graph0" class="graph" transform="scale(1 1) rotate(0) translate(4 49)">
<title>project.android.net.ServerInfo.equals</title>
<polygon fill="white" stroke="none" points="-4,4 -4,-49 260,-49 260,4 -4,4"/>
<!-- Node3 -->
<g id="node1" class="node"><title>Node3</title>
<polygon fill="#bfbfbf" stroke="black" points="0,-0.5 0,-26.5 110,-26.5 110,-0.5 0,-0.5"/>
<text text-anchor="start" x="8" y="-16.1" font-family="Helvetica,sans-Serif" font-size="8.00">project.android.net.Server</text>
<text text-anchor="middle" x="55" y="-7.1" font-family="Helvetica,sans-Serif" font-size="8.00">Info.equals</text>
</g>
<!-- Node3&#45;&gt;Node3 -->
<g id="edge2" class="edge"><title>Node3&#45;&gt;Node3</title>
<path fill="none" stroke="midnightblue" d="M30.2983,-26.7708C22.813,-35.9561 31.0469,-45 55,-45 69.5964,-45 78.3557,-41.6416 81.2779,-36.9394"/>
<polygon fill="midnightblue" stroke="midnightblue" points="84.6922,-36.1166 79.7017,-26.7708 77.7748,-37.1889 84.6922,-36.1166"/>
</g>
<!-- Node4 -->
<g id="node2" class="node"><title>Node4</title>
<g id="a_node2"><a xlink:href="../../d0/d24/a00222.html#a10893c3befccd9050bf58c5c4cb26b9f" target="_top" xlink:title="Constructor. ">
<polygon fill="white" stroke="black" points="146,-0.5 146,-26.5 256,-26.5 256,-0.5 146,-0.5"/>
<text text-anchor="start" x="154" y="-16.1" font-family="Helvetica,sans-Serif" font-size="8.00">project.android.net.Server</text>
<text text-anchor="middle" x="201" y="-7.1" font-family="Helvetica,sans-Serif" font-size="8.00">Info.ServerInfo</text>
</a>
</g>
</g>
<!-- Node3&#45;&gt;Node4 -->
<g id="edge1" class="edge"><title>Node3&#45;&gt;Node4</title>
<path fill="none" stroke="midnightblue" d="M110.03,-13.5C118.314,-13.5 126.936,-13.5 135.42,-13.5"/>
<polygon fill="midnightblue" stroke="midnightblue" points="135.667,-17.0001 145.667,-13.5 135.667,-10.0001 135.667,-17.0001"/>
</g>
</g>
</svg>
