<?xml version="1.0" encoding="UTF-8" standalone="no"?>
<!DOCTYPE svg PUBLIC "-//W3C//DTD SVG 1.1//EN"
 "http://www.w3.org/Graphics/SVG/1.1/DTD/svg11.dtd">
<!-- Generated by graphviz version 2.38.0 (20140413.2041)
 -->
<!-- Title: project.android.sensor.orientation.KalmanFilterProvider Pages: 1 -->
<!--zoomable 749 -->
<svg id="main" version="1.1" xmlns="http://www.w3.org/2000/svg" xmlns:xlink="http://www.w3.org/1999/xlink" xml:space="preserve" onload="init(evt)">
<style type="text/css"><![CDATA[
.edge:hover path { stroke: red; }
.edge:hover polygon { stroke: red; fill: red; }
]]></style>
<script type="text/javascript"><![CDATA[
var edges = document.getElementsByTagName('g');
if (edges && edges.length) {
  for (var i=0;i<edges.length;i++) {
    if (edges[i].id.substr(0,4)=='edge') {
      edges[i].setAttribute('class','edge');
    }
  }
}
]]></script>
        <defs>
                <circle id="rim" cx="0" cy="0" r="7"/>
                <circle id="rim2" cx="0" cy="0" r="3.5"/>
                <g id="zoomPlus">
                        <use xlink:href="#rim" fill="#404040">
                                <set attributeName="fill" to="#808080" begin="zoomplus.mouseover" end="zoomplus.mouseout"/>
                        </use>
                        <path d="M-4,0h8M0,-4v8" fill="none" stroke="white" stroke-width="1.5" pointer-events="none"/>
                </g>
                <g id="zoomMin">
                        <use xlink:href="#rim" fill="#404040">
                                <set attributeName="fill" to="#808080" begin="zoomminus.mouseover" end="zoomminus.mouseout"/>
                        </use>
                        <path d="M-4,0h8" fill="none" stroke="white" stroke-width="1.5" pointer-events="none"/>
                </g>
                <g id="dirArrow">
                        <path fill="none" stroke="white" stroke-width="1.5" d="M0,-3.0v7 M-2.5,-0.5L0,-3.0L2.5,-0.5"/>
                </g>
               <g id="resetDef">
                       <use xlink:href="#rim2" fill="#404040">
                               <set attributeName="fill" to="#808080" begin="reset.mouseover" end="reset.mouseout"/>
                       </use>
               </g>
        </defs>

<script type="text/javascript">
var viewWidth = 526;
var viewHeight = 749;
var sectionId = 'dynsection-0';
</script>
<script xlink:href="../../svgpan.js"/>
<svg id="graph" class="graph">
<g id="viewport">
<title>project.android.sensor.orientation.KalmanFilterProvider</title>
<polygon fill="white" stroke="none" points="-4,4 -4,-745 521.5,-745 521.5,4 -4,4"/>
<!-- Node0 -->
<g id="node1" class="node"><title>Node0</title>
<polygon fill="#bfbfbf" stroke="black" points="218.5,-0.5 218.5,-78.5 356.5,-78.5 356.5,-0.5 218.5,-0.5"/>
<text text-anchor="start" x="226.5" y="-68.1" font-family="Helvetica,sans-Serif" font-size="8.00">project.android.sensor.orientation.</text>
<text text-anchor="middle" x="287.5" y="-59.1" font-family="Helvetica,sans-Serif" font-size="8.00">KalmanFilterProvider</text>
<polyline fill="none" stroke="black" points="218.5,-52.5 356.5,-52.5 "/>
<text text-anchor="middle" x="287.5" y="-42.1" font-family="Helvetica,sans-Serif" font-size="8.00"> </text>
<polyline fill="none" stroke="black" points="218.5,-35.5 356.5,-35.5 "/>
<text text-anchor="start" x="226.5" y="-25.1" font-family="Helvetica,sans-Serif" font-size="8.00">+ KalmanFilterProvider()</text>
<text text-anchor="start" x="226.5" y="-16.1" font-family="Helvetica,sans-Serif" font-size="8.00">+ onAccuracyChanged()</text>
<text text-anchor="start" x="226.5" y="-7.1" font-family="Helvetica,sans-Serif" font-size="8.00">+ onSensorChanged()</text>
</g>
<!-- Node1 -->
<g id="node2" class="node"><title>Node1</title>
<g id="a_node2"><a xlink:href="../../da/d2e/a00238.html" target="_top" xlink:title="Accesses the sensor hardware to read sensor data. ">
<polygon fill="white" stroke="black" points="218.5,-116.5 218.5,-230.5 356.5,-230.5 356.5,-116.5 218.5,-116.5"/>
<text text-anchor="start" x="226.5" y="-220.1" font-family="Helvetica,sans-Serif" font-size="8.00">project.android.sensor.orientation.</text>
<text text-anchor="middle" x="287.5" y="-211.1" font-family="Helvetica,sans-Serif" font-size="8.00">OrientationProvider</text>
<polyline fill="none" stroke="black" points="218.5,-204.5 356.5,-204.5 "/>
<text text-anchor="start" x="226.5" y="-194.1" font-family="Helvetica,sans-Serif" font-size="8.00">~ synchronizationToken</text>
<polyline fill="none" stroke="black" points="218.5,-187.5 356.5,-187.5 "/>
<text text-anchor="start" x="226.5" y="-177.1" font-family="Helvetica,sans-Serif" font-size="8.00">+ getEulerAngles()</text>
<text text-anchor="start" x="226.5" y="-168.1" font-family="Helvetica,sans-Serif" font-size="8.00">+ getQuaternion()</text>
<text text-anchor="start" x="226.5" y="-159.1" font-family="Helvetica,sans-Serif" font-size="8.00">+ getRotationMatrix()</text>
<text text-anchor="start" x="226.5" y="-150.1" font-family="Helvetica,sans-Serif" font-size="8.00">+ sensorStop()</text>
<text text-anchor="start" x="226.5" y="-141.1" font-family="Helvetica,sans-Serif" font-size="8.00">+ checkGyro()</text>
<text text-anchor="start" x="226.5" y="-132.1" font-family="Helvetica,sans-Serif" font-size="8.00">~ OrientationProvider()</text>
<text text-anchor="start" x="226.5" y="-123.1" font-family="Helvetica,sans-Serif" font-size="8.00">~ sensorStart()</text>
</a>
</g>
</g>
<!-- Node1&#45;&gt;Node0 -->
<g id="edge1" class="edge"><title>Node1&#45;&gt;Node0</title>
<path fill="none" stroke="midnightblue" d="M287.5,-106.02C287.5,-96.6684 287.5,-87.3296 287.5,-78.7546"/>
<polygon fill="none" stroke="midnightblue" points="284,-106.137 287.5,-116.137 291,-106.137 284,-106.137"/>
</g>
<!-- Node2 -->
<g id="node3" class="node"><title>Node2</title>
<polygon fill="white" stroke="#bfbfbf" points="0,-380 0,-431 91,-431 91,-380 0,-380"/>
<text text-anchor="middle" x="45.5" y="-420.6" font-family="Helvetica,sans-Serif" font-size="8.00">SensorEventListener</text>
<polyline fill="none" stroke="#bfbfbf" points="0,-414 91,-414 "/>
<text text-anchor="middle" x="45.5" y="-403.6" font-family="Helvetica,sans-Serif" font-size="8.00"> </text>
<polyline fill="none" stroke="#bfbfbf" points="0,-397 91,-397 "/>
<text text-anchor="middle" x="45.5" y="-386.6" font-family="Helvetica,sans-Serif" font-size="8.00"> </text>
</g>
<!-- Node2&#45;&gt;Node1 -->
<g id="edge2" class="edge"><title>Node2&#45;&gt;Node1</title>
<path fill="none" stroke="midnightblue" d="M55.2361,-369.859C63.8379,-344.124 78.4808,-309.397 100.5,-285 132.84,-249.168 179.59,-221.543 218.255,-202.876"/>
<polygon fill="none" stroke="midnightblue" points="51.8374,-368.997 52.1267,-379.587 58.5051,-371.128 51.8374,-368.997"/>
</g>
<!-- Node3 -->
<g id="node4" class="node"><title>Node3</title>
<g id="a_node4"><a xlink:href="../../d0/da7/a00250.html" target="_top" xlink:title="Class to represent a quaternion. ">
<polygon fill="white" stroke="black" points="109.5,-330.5 109.5,-480.5 261.5,-480.5 261.5,-330.5 109.5,-330.5"/>
<text text-anchor="start" x="117.5" y="-470.1" font-family="Helvetica,sans-Serif" font-size="8.00">project.android.sensor.representation.</text>
<text text-anchor="middle" x="185.5" y="-461.1" font-family="Helvetica,sans-Serif" font-size="8.00">Quaternion</text>
<polyline fill="none" stroke="black" points="109.5,-454.5 261.5,-454.5 "/>
<text text-anchor="middle" x="185.5" y="-444.1" font-family="Helvetica,sans-Serif" font-size="8.00"> </text>
<polyline fill="none" stroke="black" points="109.5,-437.5 261.5,-437.5 "/>
<text text-anchor="start" x="117.5" y="-427.1" font-family="Helvetica,sans-Serif" font-size="8.00">+ Quaternion()</text>
<text text-anchor="start" x="117.5" y="-418.1" font-family="Helvetica,sans-Serif" font-size="8.00">+ addQuat()</text>
<text text-anchor="start" x="117.5" y="-409.1" font-family="Helvetica,sans-Serif" font-size="8.00">+ copyFromVec3()</text>
<text text-anchor="start" x="117.5" y="-400.1" font-family="Helvetica,sans-Serif" font-size="8.00">+ getMatrix4x4()</text>
<text text-anchor="start" x="117.5" y="-391.1" font-family="Helvetica,sans-Serif" font-size="8.00">+ multiplyByQuat()</text>
<text text-anchor="start" x="117.5" y="-382.1" font-family="Helvetica,sans-Serif" font-size="8.00">+ multiplyByQuat()</text>
<text text-anchor="start" x="117.5" y="-373.1" font-family="Helvetica,sans-Serif" font-size="8.00">+ multiplyByScalar()</text>
<text text-anchor="start" x="117.5" y="-364.1" font-family="Helvetica,sans-Serif" font-size="8.00">+ normalize()</text>
<text text-anchor="start" x="117.5" y="-355.1" font-family="Helvetica,sans-Serif" font-size="8.00">+ rotateVector()</text>
<text text-anchor="start" x="117.5" y="-346.1" font-family="Helvetica,sans-Serif" font-size="8.00">+ set()</text>
<text text-anchor="start" x="117.5" y="-337.1" font-family="Helvetica,sans-Serif" font-size="8.00">and 10 more...</text>
</a>
</g>
</g>
<!-- Node3&#45;&gt;Node1 -->
<g id="edge3" class="edge"><title>Node3&#45;&gt;Node1</title>
<path fill="none" stroke="#404040" d="M182.642,-330.455C184.359,-303.538 189.645,-273.69 202.5,-249 204.845,-244.496 207.584,-240.142 210.614,-235.953"/>
<polygon fill="none" stroke="#404040" points="210.681,-235.868 211.294,-228.683 218.162,-226.485 217.549,-233.67 210.681,-235.868"/>
<text text-anchor="middle" x="258.5" y="-256.1" font-family="Helvetica,sans-Serif" font-size="8.00"> ~currentOrientationQuaternion</text>
</g>
<!-- Node4 -->
<g id="node5" class="node"><title>Node4</title>
<g id="a_node5"><a xlink:href="../../d7/d2f/a00258.html" target="_top" xlink:title="Class to represent a four dimensional vector. ">
<polygon fill="white" stroke="black" points="109.5,-563.5 109.5,-740.5 261.5,-740.5 261.5,-563.5 109.5,-563.5"/>
<text text-anchor="start" x="117.5" y="-730.1" font-family="Helvetica,sans-Serif" font-size="8.00">project.android.sensor.representation.</text>
<text text-anchor="middle" x="185.5" y="-721.1" font-family="Helvetica,sans-Serif" font-size="8.00">Vector4f</text>
<polyline fill="none" stroke="black" points="109.5,-714.5 261.5,-714.5 "/>
<text text-anchor="start" x="117.5" y="-704.1" font-family="Helvetica,sans-Serif" font-size="8.00">~ mPoints</text>
<polyline fill="none" stroke="black" points="109.5,-697.5 261.5,-697.5 "/>
<text text-anchor="start" x="117.5" y="-687.1" font-family="Helvetica,sans-Serif" font-size="8.00">+ Vector4f()</text>
<text text-anchor="start" x="117.5" y="-678.1" font-family="Helvetica,sans-Serif" font-size="8.00">+ Vector4f()</text>
<text text-anchor="start" x="117.5" y="-669.1" font-family="Helvetica,sans-Serif" font-size="8.00">+ Vector4f()</text>
<text text-anchor="start" x="117.5" y="-660.1" font-family="Helvetica,sans-Serif" font-size="8.00">+ add()</text>
<text text-anchor="start" x="117.5" y="-651.1" font-family="Helvetica,sans-Serif" font-size="8.00">+ add()</text>
<text text-anchor="start" x="117.5" y="-642.1" font-family="Helvetica,sans-Serif" font-size="8.00">+ array()</text>
<text text-anchor="start" x="117.5" y="-633.1" font-family="Helvetica,sans-Serif" font-size="8.00">+ compareTo()</text>
<text text-anchor="start" x="117.5" y="-624.1" font-family="Helvetica,sans-Serif" font-size="8.00">+ getW()</text>
<text text-anchor="start" x="117.5" y="-615.1" font-family="Helvetica,sans-Serif" font-size="8.00">+ getX()</text>
<text text-anchor="start" x="117.5" y="-606.1" font-family="Helvetica,sans-Serif" font-size="8.00">+ getY()</text>
<text text-anchor="start" x="117.5" y="-597.1" font-family="Helvetica,sans-Serif" font-size="8.00">and 12 more...</text>
<text text-anchor="start" x="117.5" y="-588.1" font-family="Helvetica,sans-Serif" font-size="8.00">~ copyFromV3f()</text>
<text text-anchor="start" x="117.5" y="-579.1" font-family="Helvetica,sans-Serif" font-size="8.00">~ copyVec4()</text>
<text text-anchor="start" x="117.5" y="-570.1" font-family="Helvetica,sans-Serif" font-size="8.00">~ dotProduct()</text>
</a>
</g>
</g>
<!-- Node4&#45;&gt;Node3 -->
<g id="edge4" class="edge"><title>Node4&#45;&gt;Node3</title>
<path fill="none" stroke="midnightblue" d="M185.5,-553.142C185.5,-528.941 185.5,-503.41 185.5,-480.555"/>
<polygon fill="none" stroke="midnightblue" points="182,-553.42 185.5,-563.42 189,-553.421 182,-553.42"/>
</g>
<!-- Node5 -->
<g id="node6" class="node"><title>Node5</title>
<g id="a_node6"><a xlink:href="../../d4/d9a/a00246.html" target="_top" xlink:title="Class to represent a 4x4 matrix (float). ">
<polygon fill="white" stroke="black" points="279.5,-285.5 279.5,-525.5 431.5,-525.5 431.5,-285.5 279.5,-285.5"/>
<text text-anchor="start" x="287.5" y="-515.1" font-family="Helvetica,sans-Serif" font-size="8.00">project.android.sensor.representation.</text>
<text text-anchor="middle" x="355.5" y="-506.1" font-family="Helvetica,sans-Serif" font-size="8.00">MatrixF4x4</text>
<polyline fill="none" stroke="black" points="279.5,-499.5 431.5,-499.5 "/>
<text text-anchor="start" x="287.5" y="-489.1" font-family="Helvetica,sans-Serif" font-size="8.00">+ matrix</text>
<text text-anchor="start" x="287.5" y="-480.1" font-family="Helvetica,sans-Serif" font-size="8.00">~ MAT_IND_COL16_3X3</text>
<text text-anchor="start" x="287.5" y="-471.1" font-family="Helvetica,sans-Serif" font-size="8.00">~ MAT_IND_COL9_3X3</text>
<text text-anchor="start" x="287.5" y="-462.1" font-family="Helvetica,sans-Serif" font-size="8.00">~ MAT_IND_ROW16_3X3</text>
<text text-anchor="start" x="287.5" y="-453.1" font-family="Helvetica,sans-Serif" font-size="8.00">~ MAT_IND_ROW9_3X3</text>
<polyline fill="none" stroke="black" points="279.5,-446.5 431.5,-446.5 "/>
<text text-anchor="start" x="287.5" y="-436.1" font-family="Helvetica,sans-Serif" font-size="8.00">+ MatrixF4x4()</text>
<text text-anchor="start" x="287.5" y="-427.1" font-family="Helvetica,sans-Serif" font-size="8.00">+ multiplyMatrix4x4ByMatrix()</text>
<text text-anchor="start" x="287.5" y="-418.1" font-family="Helvetica,sans-Serif" font-size="8.00">+ multiplyVector3fByMatrix()</text>
<text text-anchor="start" x="287.5" y="-409.1" font-family="Helvetica,sans-Serif" font-size="8.00">+ multiplyVector4fByMatrix()</text>
<text text-anchor="start" x="287.5" y="-400.1" font-family="Helvetica,sans-Serif" font-size="8.00">+ set()</text>
<text text-anchor="start" x="287.5" y="-391.1" font-family="Helvetica,sans-Serif" font-size="8.00">+ transpose()</text>
<text text-anchor="start" x="287.5" y="-382.1" font-family="Helvetica,sans-Serif" font-size="8.00">~ getMatrix()</text>
<text text-anchor="start" x="287.5" y="-373.1" font-family="Helvetica,sans-Serif" font-size="8.00">~ isColumnMajor()</text>
<text text-anchor="start" x="287.5" y="-364.1" font-family="Helvetica,sans-Serif" font-size="8.00">~ setColumnMajor()</text>
<text text-anchor="start" x="287.5" y="-355.1" font-family="Helvetica,sans-Serif" font-size="8.00">~ setMatrix()</text>
<text text-anchor="start" x="287.5" y="-346.1" font-family="Helvetica,sans-Serif" font-size="8.00">~ setW0()</text>
<text text-anchor="start" x="287.5" y="-337.1" font-family="Helvetica,sans-Serif" font-size="8.00">~ setW1()</text>
<text text-anchor="start" x="287.5" y="-328.1" font-family="Helvetica,sans-Serif" font-size="8.00">~ setW2()</text>
<text text-anchor="start" x="287.5" y="-319.1" font-family="Helvetica,sans-Serif" font-size="8.00">~ setW3()</text>
<text text-anchor="start" x="287.5" y="-310.1" font-family="Helvetica,sans-Serif" font-size="8.00">~ setX0()</text>
<text text-anchor="start" x="287.5" y="-301.1" font-family="Helvetica,sans-Serif" font-size="8.00">~ setX1()</text>
<text text-anchor="start" x="287.5" y="-292.1" font-family="Helvetica,sans-Serif" font-size="8.00">and 11 more...</text>
</a>
</g>
</g>
<!-- Node5&#45;&gt;Node1 -->
<g id="edge5" class="edge"><title>Node5&#45;&gt;Node1</title>
<path fill="none" stroke="#404040" d="M329.161,-285.095C325.838,-272.828 322.271,-260.613 318.5,-249 317.77,-246.752 317.001,-244.476 316.203,-242.186"/>
<polygon fill="none" stroke="#404040" points="316.118,-241.953 310.3,-237.693 311.995,-230.684 317.813,-234.944 316.118,-241.953"/>
<text text-anchor="start" x="324.5" y="-260.6" font-family="Helvetica,sans-Serif" font-size="8.00"> ~currentOrientationRotation</text>
<text text-anchor="middle" x="375.5" y="-251.6" font-family="Helvetica,sans-Serif" font-size="8.00">Matrix</text>
</g>
<!-- Node6 -->
<g id="node7" class="node"><title>Node6</title>
<polygon fill="white" stroke="#bfbfbf" points="449.5,-380 449.5,-431 517.5,-431 517.5,-380 449.5,-380"/>
<text text-anchor="middle" x="483.5" y="-420.6" font-family="Helvetica,sans-Serif" font-size="8.00">List&lt; Sensor &gt;</text>
<polyline fill="none" stroke="#bfbfbf" points="449.5,-414 517.5,-414 "/>
<text text-anchor="middle" x="483.5" y="-403.6" font-family="Helvetica,sans-Serif" font-size="8.00"> </text>
<polyline fill="none" stroke="#bfbfbf" points="449.5,-397 517.5,-397 "/>
<text text-anchor="middle" x="483.5" y="-386.6" font-family="Helvetica,sans-Serif" font-size="8.00"> </text>
</g>
<!-- Node6&#45;&gt;Node1 -->
<g id="edge6" class="edge"><title>Node6&#45;&gt;Node1</title>
<path fill="none" stroke="#404040" d="M480.829,-379.875C476.062,-346.638 463.294,-287.193 430.5,-249 413.731,-229.471 390.559,-214.359 367.747,-203.011"/>
<polygon fill="none" stroke="#404040" points="367.454,-202.872 360.32,-203.922 356.607,-197.74 363.741,-196.69 367.454,-202.872"/>
<text text-anchor="middle" x="470.5" y="-256.1" font-family="Helvetica,sans-Serif" font-size="8.00"> ~mSensorList</text>
</g>
</g>
</svg>
        <g id="navigator" transform="translate(0 0)" fill="#404254">
                <rect fill="#f2f5e9" fill-opacity="0.5" stroke="#606060" stroke-width=".5" x="0" y="0" width="60" height="60"/>
                <use id="zoomplus" xlink:href="#zoomPlus" x="17" y="9" onmousedown="handleZoom(evt,'in')"/>
                <use id="zoomminus" xlink:href="#zoomMin" x="42" y="9" onmousedown="handleZoom(evt,'out')"/>
                <use id="reset" xlink:href="#resetDef" x="30" y="36" onmousedown="handleReset()"/>
                <g id="arrowUp" xlink:href="#dirArrow" transform="translate(30 24)" onmousedown="handlePan(0,-1)">
                  <use xlink:href="#rim" fill="#404040">
                        <set attributeName="fill" to="#808080" begin="arrowUp.mouseover" end="arrowUp.mouseout"/>
                  </use>
                  <path fill="none" stroke="white" stroke-width="1.5" d="M0,-3.0v7 M-2.5,-0.5L0,-3.0L2.5,-0.5"/>
                </g>
                <g id="arrowRight" xlink:href="#dirArrow" transform="rotate(90) translate(36 -43)" onmousedown="handlePan(1,0)">
                  <use xlink:href="#rim" fill="#404040">
                        <set attributeName="fill" to="#808080" begin="arrowRight.mouseover" end="arrowRight.mouseout"/>
                  </use>
                  <path fill="none" stroke="white" stroke-width="1.5" d="M0,-3.0v7 M-2.5,-0.5L0,-3.0L2.5,-0.5"/>
                </g>
                <g id="arrowDown" xlink:href="#dirArrow" transform="rotate(180) translate(-30 -48)" onmousedown="handlePan(0,1)">
                  <use xlink:href="#rim" fill="#404040">
                        <set attributeName="fill" to="#808080" begin="arrowDown.mouseover" end="arrowDown.mouseout"/>
                  </use>
                  <path fill="none" stroke="white" stroke-width="1.5" d="M0,-3.0v7 M-2.5,-0.5L0,-3.0L2.5,-0.5"/>
                </g>
                <g id="arrowLeft" xlink:href="#dirArrow" transform="rotate(270) translate(-36 17)" onmousedown="handlePan(-1,0)">
                  <use xlink:href="#rim" fill="#404040">
                        <set attributeName="fill" to="#808080" begin="arrowLeft.mouseover" end="arrowLeft.mouseout"/>
                  </use>
                  <path fill="none" stroke="white" stroke-width="1.5" d="M0,-3.0v7 M-2.5,-0.5L0,-3.0L2.5,-0.5"/>
                </g>
        </g>
        <svg viewBox="0 0 15 15" width="100%" height="30px" preserveAspectRatio="xMaxYMin meet">
         <g id="arrow_out" transform="scale(0.3 0.3)">
          <a xlink:href="a00232_org.svg" target="_base">
           <rect id="button" ry="5" rx="5" y="6" x="6" height="38" width="38"
                fill="#f2f5e9" fill-opacity="0.5" stroke="#606060" stroke-width="1.0"/>
           <path id="arrow"
             d="M 11.500037,31.436501 C 11.940474,20.09759 22.043105,11.32322 32.158766,21.979434 L 37.068811,17.246167 C 37.068811,17.246167 37.088388,32 37.088388,32 L 22.160133,31.978069 C 22.160133,31.978069 26.997745,27.140456 26.997745,27.140456 C 18.528582,18.264221 13.291696,25.230495 11.500037,31.436501 z"
             style="fill:#404040;"/>
          </a>
         </g>
        </svg>
</svg>
