<?xml version="1.0" encoding="UTF-8" standalone="no"?>
<!DOCTYPE svg PUBLIC "-//W3C//DTD SVG 1.1//EN"
 "http://www.w3.org/Graphics/SVG/1.1/DTD/svg11.dtd">
<!-- Generated by graphviz version 2.38.0 (20140413.2041)
 -->
<!-- Title: project.android.sensor.representation.Quaternion.toEulerAngles Pages: 1 -->
<svg width="348pt" height="215pt"
 viewBox="0.00 0.00 348.00 215.00" xmlns="http://www.w3.org/2000/svg" xmlns:xlink="http://www.w3.org/1999/xlink">
<g id="graph0" class="graph" transform="scale(1 1) rotate(0) translate(4 211)">
<title>project.android.sensor.representation.Quaternion.toEulerAngles</title>
<polygon fill="white" stroke="none" points="-4,4 -4,-211 344,-211 344,4 -4,4"/>
<!-- Node66 -->
<g id="node1" class="node"><title>Node66</title>
<polygon fill="#bfbfbf" stroke="black" points="0,-90.5 0,-116.5 152,-116.5 152,-90.5 0,-90.5"/>
<text text-anchor="start" x="8" y="-106.1" font-family="Helvetica,sans-Serif" font-size="8.00">project.android.sensor.representation.</text>
<text text-anchor="middle" x="76" y="-97.1" font-family="Helvetica,sans-Serif" font-size="8.00">Quaternion.toEulerAngles</text>
</g>
<!-- Node67 -->
<g id="node2" class="node"><title>Node67</title>
<g id="a_node2"><a xlink:href="../../d7/d2f/a00258.html#ac1059d3ba0cf2ae04a9fb47c8f1edb3c" target="_top" xlink:title="Returns the W&#45;dimension of this Vector4f. ">
<polygon fill="white" stroke="black" points="188,-180.5 188,-206.5 340,-206.5 340,-180.5 188,-180.5"/>
<text text-anchor="start" x="196" y="-196.1" font-family="Helvetica,sans-Serif" font-size="8.00">project.android.sensor.representation.</text>
<text text-anchor="middle" x="264" y="-187.1" font-family="Helvetica,sans-Serif" font-size="8.00">Vector4f.getW</text>
</a>
</g>
</g>
<!-- Node66&#45;&gt;Node67 -->
<g id="edge1" class="edge"><title>Node66&#45;&gt;Node67</title>
<path fill="none" stroke="midnightblue" d="M95.0282,-116.624C116.336,-131.631 153.294,-156.106 188,-171.5 192.611,-173.545 197.464,-175.46 202.392,-177.24"/>
<polygon fill="midnightblue" stroke="midnightblue" points="201.322,-180.573 211.916,-180.494 203.585,-173.949 201.322,-180.573"/>
</g>
<!-- Node68 -->
<g id="node3" class="node"><title>Node68</title>
<g id="a_node3"><a xlink:href="../../d7/d2f/a00258.html#a887ec4cfb002f50f8eec8f73501110f3" target="_top" xlink:title="Sets the X&#45;dimension of this Vector4f. ">
<polygon fill="white" stroke="black" points="188,-135.5 188,-161.5 340,-161.5 340,-135.5 188,-135.5"/>
<text text-anchor="start" x="196" y="-151.1" font-family="Helvetica,sans-Serif" font-size="8.00">project.android.sensor.representation.</text>
<text text-anchor="middle" x="264" y="-142.1" font-family="Helvetica,sans-Serif" font-size="8.00">Vector4f.setX</text>
</a>
</g>
</g>
<!-- Node66&#45;&gt;Node68 -->
<g id="edge2" class="edge"><title>Node66&#45;&gt;Node68</title>
<path fill="none" stroke="midnightblue" d="M130.799,-116.516C152.105,-121.671 176.772,-127.638 198.987,-133.013"/>
<polygon fill="midnightblue" stroke="midnightblue" points="198.457,-136.486 209,-135.436 200.104,-129.682 198.457,-136.486"/>
</g>
<!-- Node69 -->
<g id="node4" class="node"><title>Node69</title>
<g id="a_node4"><a xlink:href="../../d7/d2f/a00258.html#a85c790b5bbb7c702cb0e49585b261082" target="_top" xlink:title="Sets the Y&#45;dimension of this Vector4f. ">
<polygon fill="white" stroke="black" points="188,-90.5 188,-116.5 340,-116.5 340,-90.5 188,-90.5"/>
<text text-anchor="start" x="196" y="-106.1" font-family="Helvetica,sans-Serif" font-size="8.00">project.android.sensor.representation.</text>
<text text-anchor="middle" x="264" y="-97.1" font-family="Helvetica,sans-Serif" font-size="8.00">Vector4f.setY</text>
</a>
</g>
</g>
<!-- Node66&#45;&gt;Node69 -->
<g id="edge3" class="edge"><title>Node66&#45;&gt;Node69</title>
<path fill="none" stroke="midnightblue" d="M152.117,-103.5C160.596,-103.5 169.281,-103.5 177.875,-103.5"/>
<polygon fill="midnightblue" stroke="midnightblue" points="177.905,-107 187.905,-103.5 177.905,-100 177.905,-107"/>
</g>
<!-- Node70 -->
<g id="node5" class="node"><title>Node70</title>
<g id="a_node5"><a xlink:href="../../d7/d2f/a00258.html#a8bd26391867c8d1d4b105a63764d394f" target="_top" xlink:title="Sets the Z&#45;dimension of this Vector4f. ">
<polygon fill="white" stroke="black" points="188,-45.5 188,-71.5 340,-71.5 340,-45.5 188,-45.5"/>
<text text-anchor="start" x="196" y="-61.1" font-family="Helvetica,sans-Serif" font-size="8.00">project.android.sensor.representation.</text>
<text text-anchor="middle" x="264" y="-52.1" font-family="Helvetica,sans-Serif" font-size="8.00">Vector4f.setZ</text>
</a>
</g>
</g>
<!-- Node66&#45;&gt;Node70 -->
<g id="edge4" class="edge"><title>Node66&#45;&gt;Node70</title>
<path fill="none" stroke="midnightblue" d="M130.799,-90.4841C152.105,-85.3294 176.772,-79.3616 198.987,-73.9871"/>
<polygon fill="midnightblue" stroke="midnightblue" points="200.104,-77.3179 209,-71.5645 198.457,-70.5142 200.104,-77.3179"/>
</g>
<!-- Node71 -->
<g id="node6" class="node"><title>Node71</title>
<g id="a_node6"><a xlink:href="../../d7/d2f/a00258.html#af52ccfec44e8d3fa81707b1fd816b153" target="_top" xlink:title="Sets the W&#45;dimension of this Vector4f. ">
<polygon fill="white" stroke="black" points="188,-0.5 188,-26.5 340,-26.5 340,-0.5 188,-0.5"/>
<text text-anchor="start" x="196" y="-16.1" font-family="Helvetica,sans-Serif" font-size="8.00">project.android.sensor.representation.</text>
<text text-anchor="middle" x="264" y="-7.1" font-family="Helvetica,sans-Serif" font-size="8.00">Vector4f.setW</text>
</a>
</g>
</g>
<!-- Node66&#45;&gt;Node71 -->
<g id="edge5" class="edge"><title>Node66&#45;&gt;Node71</title>
<path fill="none" stroke="midnightblue" d="M95.4759,-90.3985C116.902,-75.6772 153.681,-51.8387 188,-36.5 193.337,-34.1147 198.992,-31.8827 204.71,-29.8196"/>
<polygon fill="midnightblue" stroke="midnightblue" points="206.024,-33.0689 214.345,-26.5099 203.75,-26.4486 206.024,-33.0689"/>
</g>
</g>
</svg>
