<?xml version="1.0" encoding="UTF-8" standalone="no"?>
<!DOCTYPE svg PUBLIC "-//W3C//DTD SVG 1.1//EN"
 "http://www.w3.org/Graphics/SVG/1.1/DTD/svg11.dtd">
<!-- Generated by graphviz version 2.38.0 (20140413.2041)
 -->
<!-- Title: project.android.sensor.representation.Vector3f.getY Pages: 1 -->
<!--zoomable 214 -->
<svg id="main" version="1.1" xmlns="http://www.w3.org/2000/svg" xmlns:xlink="http://www.w3.org/1999/xlink" xml:space="preserve" onload="init(evt)">
<style type="text/css"><![CDATA[
.edge:hover path { stroke: red; }
.edge:hover polygon { stroke: red; fill: red; }
]]></style>
<script type="text/javascript"><![CDATA[
var edges = document.getElementsByTagName('g');
if (edges && edges.length) {
  for (var i=0;i<edges.length;i++) {
    if (edges[i].id.substr(0,4)=='edge') {
      edges[i].setAttribute('class','edge');
    }
  }
}
]]></script>
        <defs>
                <circle id="rim" cx="0" cy="0" r="7"/>
                <circle id="rim2" cx="0" cy="0" r="3.5"/>
                <g id="zoomPlus">
                        <use xlink:href="#rim" fill="#404040">
                                <set attributeName="fill" to="#808080" begin="zoomplus.mouseover" end="zoomplus.mouseout"/>
                        </use>
                        <path d="M-4,0h8M0,-4v8" fill="none" stroke="white" stroke-width="1.5" pointer-events="none"/>
                </g>
                <g id="zoomMin">
                        <use xlink:href="#rim" fill="#404040">
                                <set attributeName="fill" to="#808080" begin="zoomminus.mouseover" end="zoomminus.mouseout"/>
                        </use>
                        <path d="M-4,0h8" fill="none" stroke="white" stroke-width="1.5" pointer-events="none"/>
                </g>
                <g id="dirArrow">
                        <path fill="none" stroke="white" stroke-width="1.5" d="M0,-3.0v7 M-2.5,-0.5L0,-3.0L2.5,-0.5"/>
                </g>
               <g id="resetDef">
                       <use xlink:href="#rim2" fill="#404040">
                               <set attributeName="fill" to="#808080" begin="reset.mouseover" end="reset.mouseout"/>
                       </use>
               </g>
        </defs>

<script type="text/javascript">
var viewWidth = 733;
var viewHeight = 214;
var sectionId = 'dynsection-6';
</script>
<script xlink:href="../../svgpan.js"/>
<svg id="graph" class="graph">
<g id="viewport">
<title>project.android.sensor.representation.Vector3f.getY</title>
<polygon fill="white" stroke="none" points="-4,4 -4,-209.72 729,-209.72 729,4 -4,4"/>
<!-- Node30 -->
<g id="node1" class="node"><title>Node30</title>
<polygon fill="#bfbfbf" stroke="black" points="0,-112.5 0,-138.5 152,-138.5 152,-112.5 0,-112.5"/>
<text text-anchor="start" x="8" y="-128.1" font-family="Helvetica,sans-Serif" font-size="8.00">project.android.sensor.representation.</text>
<text text-anchor="middle" x="76" y="-119.1" font-family="Helvetica,sans-Serif" font-size="8.00">Vector3f.getY</text>
</g>
<!-- Node31 -->
<g id="node2" class="node"><title>Node31</title>
<g id="a_node2"><a xlink:href="../../d0/da7/a00250.html#ad97bd17455f6ca6ef3f38190789fc956" target="_top" xlink:title="Returns a String representing this Quaternion. ">
<polygon fill="white" stroke="black" points="376,-133.5 376,-159.5 528,-159.5 528,-133.5 376,-133.5"/>
<text text-anchor="start" x="384" y="-149.1" font-family="Helvetica,sans-Serif" font-size="8.00">project.android.sensor.representation.</text>
<text text-anchor="middle" x="452" y="-140.1" font-family="Helvetica,sans-Serif" font-size="8.00">Quaternion.toString</text>
</a>
</g>
</g>
<!-- Node30&#45;&gt;Node31 -->
<g id="edge1" class="edge"><title>Node30&#45;&gt;Node31</title>
<path fill="none" stroke="midnightblue" d="M100.314,-145.132C121.602,-161.681 154.736,-184.121 188,-193.5 253.02,-211.833 273.795,-206.939 340,-193.5 371.789,-187.047 405.775,-171.179 427.644,-159.662"/>
<polygon fill="midnightblue" stroke="midnightblue" points="102.221,-142.175 92.2206,-138.676 97.8562,-147.648 102.221,-142.175"/>
</g>
<!-- Node32 -->
<g id="node3" class="node"><title>Node32</title>
<g id="a_node3"><a xlink:href="../../d0/da7/a00250.html#ac34b57f25622b82f725ddefd4d61c32d" target="_top" xlink:title="Rotates a 3&#45;D vector by this Quaternion. ">
<polygon fill="white" stroke="black" points="188,-157.5 188,-183.5 340,-183.5 340,-157.5 188,-157.5"/>
<text text-anchor="start" x="196" y="-173.1" font-family="Helvetica,sans-Serif" font-size="8.00">project.android.sensor.representation.</text>
<text text-anchor="middle" x="264" y="-164.1" font-family="Helvetica,sans-Serif" font-size="8.00">Quaternion.rotateVector</text>
</a>
</g>
</g>
<!-- Node30&#45;&gt;Node32 -->
<g id="edge2" class="edge"><title>Node30&#45;&gt;Node32</title>
<path fill="none" stroke="midnightblue" d="M140.804,-140.936C163.003,-146.307 187.673,-152.276 209,-157.436"/>
<polygon fill="midnightblue" stroke="midnightblue" points="141.342,-137.466 130.799,-138.516 139.695,-144.269 141.342,-137.466"/>
</g>
<!-- Node33 -->
<g id="node4" class="node"><title>Node33</title>
<g id="a_node4"><a xlink:href="../../d7/d2f/a00258.html#a52de53b7a9f3dc583d81a7508e2395c7" target="_top" xlink:title="Constructor. ">
<polygon fill="white" stroke="black" points="188,-112.5 188,-138.5 340,-138.5 340,-112.5 188,-112.5"/>
<text text-anchor="start" x="196" y="-128.1" font-family="Helvetica,sans-Serif" font-size="8.00">project.android.sensor.representation.</text>
<text text-anchor="middle" x="264" y="-119.1" font-family="Helvetica,sans-Serif" font-size="8.00">Vector4f.Vector4f</text>
</a>
</g>
</g>
<!-- Node30&#45;&gt;Node33 -->
<g id="edge3" class="edge"><title>Node30&#45;&gt;Node33</title>
<path fill="none" stroke="midnightblue" d="M162.147,-125.5C170.742,-125.5 179.426,-125.5 187.905,-125.5"/>
<polygon fill="midnightblue" stroke="midnightblue" points="162.117,-122 152.117,-125.5 162.117,-129 162.117,-122"/>
</g>
<!-- Node34 -->
<g id="node5" class="node"><title>Node34</title>
<g id="a_node5"><a xlink:href="../../d7/d2f/a00258.html#ad64f74d289c05e667cd27cf017ab8b95" target="_top" xlink:title="Copies another Vector4f to this one. ">
<polygon fill="white" stroke="black" points="188,-22.5 188,-48.5 340,-48.5 340,-22.5 188,-22.5"/>
<text text-anchor="start" x="196" y="-38.1" font-family="Helvetica,sans-Serif" font-size="8.00">project.android.sensor.representation.</text>
<text text-anchor="middle" x="264" y="-29.1" font-family="Helvetica,sans-Serif" font-size="8.00">Vector4f.copyVec4</text>
</a>
</g>
</g>
<!-- Node30&#45;&gt;Node34 -->
<g id="edge4" class="edge"><title>Node30&#45;&gt;Node34</title>
<path fill="none" stroke="midnightblue" d="M103.426,-106.54C125.254,-91.5745 157.497,-71.0301 188,-57.5 195.566,-54.1438 203.785,-51.138 211.916,-48.506"/>
<polygon fill="midnightblue" stroke="midnightblue" points="101.243,-103.795 95.0282,-112.376 105.237,-109.543 101.243,-103.795"/>
</g>
<!-- Node39 -->
<g id="node10" class="node"><title>Node39</title>
<g id="a_node10"><a xlink:href="../../d7/d2f/a00258.html#a2b2b04e7c99078e9619ad815546abeef" target="_top" xlink:title="Copies a Vector3f to this Vector4f using a separate value for W&#45;dimension. ">
<polygon fill="white" stroke="black" points="188,-67.5 188,-93.5 340,-93.5 340,-67.5 188,-67.5"/>
<text text-anchor="start" x="196" y="-83.1" font-family="Helvetica,sans-Serif" font-size="8.00">project.android.sensor.representation.</text>
<text text-anchor="middle" x="264" y="-74.1" font-family="Helvetica,sans-Serif" font-size="8.00">Vector4f.copyFromV3f</text>
</a>
</g>
</g>
<!-- Node30&#45;&gt;Node39 -->
<g id="edge9" class="edge"><title>Node30&#45;&gt;Node39</title>
<path fill="none" stroke="midnightblue" d="M140.804,-110.064C163.003,-104.693 187.673,-98.7244 209,-93.5645"/>
<polygon fill="midnightblue" stroke="midnightblue" points="139.695,-106.731 130.799,-112.484 141.342,-113.534 139.695,-106.731"/>
</g>
<!-- Node35 -->
<g id="node6" class="node"><title>Node35</title>
<g id="a_node6"><a xlink:href="../../d0/da7/a00250.html#a63276a34f5007701782c0d5c1aeb467c" target="_top" xlink:title="Copies the values from the given Quaternion to this one. ">
<polygon fill="white" stroke="black" points="376,-45.5 376,-71.5 528,-71.5 528,-45.5 376,-45.5"/>
<text text-anchor="start" x="384" y="-61.1" font-family="Helvetica,sans-Serif" font-size="8.00">project.android.sensor.representation.</text>
<text text-anchor="middle" x="452" y="-52.1" font-family="Helvetica,sans-Serif" font-size="8.00">Quaternion.set</text>
</a>
</g>
</g>
<!-- Node34&#45;&gt;Node35 -->
<g id="edge5" class="edge"><title>Node34&#45;&gt;Node35</title>
<path fill="none" stroke="midnightblue" d="M350.147,-46.029C358.742,-47.0917 367.426,-48.1656 375.905,-49.214"/>
<polygon fill="midnightblue" stroke="midnightblue" points="350.471,-42.5424 340.117,-44.7887 349.612,-49.4895 350.471,-42.5424"/>
</g>
<!-- Node38 -->
<g id="node9" class="node"><title>Node38</title>
<g id="a_node9"><a xlink:href="../../d0/da7/a00250.html#ad65bf4d90dd8d310b37e9318eae5546f" target="_top" xlink:title="Multiplies this Quaternion by the input one. ">
<polygon fill="white" stroke="black" points="376,-0.5 376,-26.5 528,-26.5 528,-0.5 376,-0.5"/>
<text text-anchor="start" x="384" y="-16.1" font-family="Helvetica,sans-Serif" font-size="8.00">project.android.sensor.representation.</text>
<text text-anchor="middle" x="452" y="-7.1" font-family="Helvetica,sans-Serif" font-size="8.00">Quaternion.multiplyByQuat</text>
</a>
</g>
</g>
<!-- Node34&#45;&gt;Node38 -->
<g id="edge8" class="edge"><title>Node34&#45;&gt;Node38</title>
<path fill="none" stroke="midnightblue" d="M350.147,-25.4288C358.742,-24.4123 367.426,-23.385 375.905,-22.3822"/>
<polygon fill="midnightblue" stroke="midnightblue" points="349.637,-21.9647 340.117,-26.6152 350.459,-28.9162 349.637,-21.9647"/>
</g>
<!-- Node36 -->
<g id="node7" class="node"><title>Node36</title>
<g id="a_node7"><a xlink:href="../../da/d31/a00234.html#ab9a9911056de6fc82ef1859c2eb42bad" target="_top" xlink:title="Overrides the SensorEventListener.onSensorChanged() method of the Android API. ">
<polygon fill="white" stroke="black" points="564,-68.5 564,-94.5 725,-94.5 725,-68.5 564,-68.5"/>
<text text-anchor="start" x="572" y="-84.1" font-family="Helvetica,sans-Serif" font-size="8.00">project.android.sensor.orientation.</text>
<text text-anchor="middle" x="644.5" y="-75.1" font-family="Helvetica,sans-Serif" font-size="8.00">KalmanFilterProvider.onSensorChanged</text>
</a>
</g>
</g>
<!-- Node35&#45;&gt;Node36 -->
<g id="edge6" class="edge"><title>Node35&#45;&gt;Node36</title>
<path fill="none" stroke="midnightblue" d="M538.03,-68.7661C546.617,-69.8029 555.317,-70.8532 563.845,-71.8829"/>
<polygon fill="midnightblue" stroke="midnightblue" points="538.365,-65.2812 528.017,-67.5572 537.526,-72.2307 538.365,-65.2812"/>
</g>
<!-- Node37 -->
<g id="node8" class="node"><title>Node37</title>
<g id="a_node8"><a xlink:href="../../da/d2e/a00238.html#a467add7b43d10e83cd33ef234664f077" target="_top" xlink:title="Gets the current rotation of the device. ">
<polygon fill="white" stroke="black" points="575,-23.5 575,-49.5 714,-49.5 714,-23.5 575,-23.5"/>
<text text-anchor="start" x="583" y="-39.1" font-family="Helvetica,sans-Serif" font-size="8.00">project.android.sensor.orientation.</text>
<text text-anchor="middle" x="644.5" y="-30.1" font-family="Helvetica,sans-Serif" font-size="8.00">OrientationProvider.getQuaternion</text>
</a>
</g>
</g>
<!-- Node35&#45;&gt;Node37 -->
<g id="edge7" class="edge"><title>Node35&#45;&gt;Node37</title>
<path fill="none" stroke="midnightblue" d="M538.218,-48.6585C550.446,-47.2464 562.897,-45.8085 574.752,-44.4393"/>
<polygon fill="midnightblue" stroke="midnightblue" points="537.55,-45.2124 528.017,-49.8366 538.353,-52.1662 537.55,-45.2124"/>
</g>
<!-- Node39&#45;&gt;Node31 -->
<g id="edge10" class="edge"><title>Node39&#45;&gt;Node31</title>
<path fill="none" stroke="midnightblue" d="M319.605,-96.7421C326.495,-98.9393 333.429,-101.223 340,-103.5 366.947,-112.838 397.097,-124.604 419.167,-133.466"/>
<polygon fill="midnightblue" stroke="midnightblue" points="320.178,-93.2535 309.589,-93.5958 318.08,-99.9318 320.178,-93.2535"/>
</g>
</g>
</svg>
        <g id="navigator" transform="translate(0 0)" fill="#404254">
                <rect fill="#f2f5e9" fill-opacity="0.5" stroke="#606060" stroke-width=".5" x="0" y="0" width="60" height="60"/>
                <use id="zoomplus" xlink:href="#zoomPlus" x="17" y="9" onmousedown="handleZoom(evt,'in')"/>
                <use id="zoomminus" xlink:href="#zoomMin" x="42" y="9" onmousedown="handleZoom(evt,'out')"/>
                <use id="reset" xlink:href="#resetDef" x="30" y="36" onmousedown="handleReset()"/>
                <g id="arrowUp" xlink:href="#dirArrow" transform="translate(30 24)" onmousedown="handlePan(0,-1)">
                  <use xlink:href="#rim" fill="#404040">
                        <set attributeName="fill" to="#808080" begin="arrowUp.mouseover" end="arrowUp.mouseout"/>
                  </use>
                  <path fill="none" stroke="white" stroke-width="1.5" d="M0,-3.0v7 M-2.5,-0.5L0,-3.0L2.5,-0.5"/>
                </g>
                <g id="arrowRight" xlink:href="#dirArrow" transform="rotate(90) translate(36 -43)" onmousedown="handlePan(1,0)">
                  <use xlink:href="#rim" fill="#404040">
                        <set attributeName="fill" to="#808080" begin="arrowRight.mouseover" end="arrowRight.mouseout"/>
                  </use>
                  <path fill="none" stroke="white" stroke-width="1.5" d="M0,-3.0v7 M-2.5,-0.5L0,-3.0L2.5,-0.5"/>
                </g>
                <g id="arrowDown" xlink:href="#dirArrow" transform="rotate(180) translate(-30 -48)" onmousedown="handlePan(0,1)">
                  <use xlink:href="#rim" fill="#404040">
                        <set attributeName="fill" to="#808080" begin="arrowDown.mouseover" end="arrowDown.mouseout"/>
                  </use>
                  <path fill="none" stroke="white" stroke-width="1.5" d="M0,-3.0v7 M-2.5,-0.5L0,-3.0L2.5,-0.5"/>
                </g>
                <g id="arrowLeft" xlink:href="#dirArrow" transform="rotate(270) translate(-36 17)" onmousedown="handlePan(-1,0)">
                  <use xlink:href="#rim" fill="#404040">
                        <set attributeName="fill" to="#808080" begin="arrowLeft.mouseover" end="arrowLeft.mouseout"/>
                  </use>
                  <path fill="none" stroke="white" stroke-width="1.5" d="M0,-3.0v7 M-2.5,-0.5L0,-3.0L2.5,-0.5"/>
                </g>
        </g>
        <svg viewBox="0 0 15 15" width="100%" height="30px" preserveAspectRatio="xMaxYMin meet">
         <g id="arrow_out" transform="scale(0.3 0.3)">
          <a xlink:href="a00254_aefe347d692330f7dfec6b146302809e3_icgraph_org.svg" target="_base">
           <rect id="button" ry="5" rx="5" y="6" x="6" height="38" width="38"
                fill="#f2f5e9" fill-opacity="0.5" stroke="#606060" stroke-width="1.0"/>
           <path id="arrow"
             d="M 11.500037,31.436501 C 11.940474,20.09759 22.043105,11.32322 32.158766,21.979434 L 37.068811,17.246167 C 37.068811,17.246167 37.088388,32 37.088388,32 L 22.160133,31.978069 C 22.160133,31.978069 26.997745,27.140456 26.997745,27.140456 C 18.528582,18.264221 13.291696,25.230495 11.500037,31.436501 z"
             style="fill:#404040;"/>
          </a>
         </g>
        </svg>
</svg>
