<?xml version="1.0" encoding="UTF-8" standalone="no"?>
<!DOCTYPE svg PUBLIC "-//W3C//DTD SVG 1.1//EN"
 "http://www.w3.org/Graphics/SVG/1.1/DTD/svg11.dtd">
<!-- Generated by graphviz version 2.38.0 (20140413.2041)
 -->
<!-- Title: project.android.sensor.representation.Vector3f.getZ Pages: 1 -->
<svg width="733pt" height="214pt"
 viewBox="0.00 0.00 733.00 213.72" xmlns="http://www.w3.org/2000/svg" xmlns:xlink="http://www.w3.org/1999/xlink">
<g id="graph0" class="graph" transform="scale(1 1) rotate(0) translate(4 209.72)">
<title>project.android.sensor.representation.Vector3f.getZ</title>
<polygon fill="white" stroke="none" points="-4,4 -4,-209.72 729,-209.72 729,4 -4,4"/>
<!-- Node41 -->
<g id="node1" class="node"><title>Node41</title>
<polygon fill="#bfbfbf" stroke="black" points="0,-112.5 0,-138.5 152,-138.5 152,-112.5 0,-112.5"/>
<text text-anchor="start" x="8" y="-128.1" font-family="Helvetica,sans-Serif" font-size="8.00">project.android.sensor.representation.</text>
<text text-anchor="middle" x="76" y="-119.1" font-family="Helvetica,sans-Serif" font-size="8.00">Vector3f.getZ</text>
</g>
<!-- Node42 -->
<g id="node2" class="node"><title>Node42</title>
<g id="a_node2"><a xlink:href="../../d0/da7/a00250.html#ad97bd17455f6ca6ef3f38190789fc956" target="_top" xlink:title="Returns a String representing this Quaternion. ">
<polygon fill="white" stroke="black" points="376,-133.5 376,-159.5 528,-159.5 528,-133.5 376,-133.5"/>
<text text-anchor="start" x="384" y="-149.1" font-family="Helvetica,sans-Serif" font-size="8.00">project.android.sensor.representation.</text>
<text text-anchor="middle" x="452" y="-140.1" font-family="Helvetica,sans-Serif" font-size="8.00">Quaternion.toString</text>
</a>
</g>
</g>
<!-- Node41&#45;&gt;Node42 -->
<g id="edge1" class="edge"><title>Node41&#45;&gt;Node42</title>
<path fill="none" stroke="midnightblue" d="M100.314,-145.132C121.602,-161.681 154.736,-184.121 188,-193.5 253.02,-211.833 273.795,-206.939 340,-193.5 371.789,-187.047 405.775,-171.179 427.644,-159.662"/>
<polygon fill="midnightblue" stroke="midnightblue" points="102.221,-142.175 92.2206,-138.676 97.8562,-147.648 102.221,-142.175"/>
</g>
<!-- Node43 -->
<g id="node3" class="node"><title>Node43</title>
<g id="a_node3"><a xlink:href="../../d0/da7/a00250.html#ac34b57f25622b82f725ddefd4d61c32d" target="_top" xlink:title="Rotates a 3&#45;D vector by this Quaternion. ">
<polygon fill="white" stroke="black" points="188,-157.5 188,-183.5 340,-183.5 340,-157.5 188,-157.5"/>
<text text-anchor="start" x="196" y="-173.1" font-family="Helvetica,sans-Serif" font-size="8.00">project.android.sensor.representation.</text>
<text text-anchor="middle" x="264" y="-164.1" font-family="Helvetica,sans-Serif" font-size="8.00">Quaternion.rotateVector</text>
</a>
</g>
</g>
<!-- Node41&#45;&gt;Node43 -->
<g id="edge2" class="edge"><title>Node41&#45;&gt;Node43</title>
<path fill="none" stroke="midnightblue" d="M140.804,-140.936C163.003,-146.307 187.673,-152.276 209,-157.436"/>
<polygon fill="midnightblue" stroke="midnightblue" points="141.342,-137.466 130.799,-138.516 139.695,-144.269 141.342,-137.466"/>
</g>
<!-- Node44 -->
<g id="node4" class="node"><title>Node44</title>
<g id="a_node4"><a xlink:href="../../d7/d2f/a00258.html#a52de53b7a9f3dc583d81a7508e2395c7" target="_top" xlink:title="Constructor. ">
<polygon fill="white" stroke="black" points="188,-112.5 188,-138.5 340,-138.5 340,-112.5 188,-112.5"/>
<text text-anchor="start" x="196" y="-128.1" font-family="Helvetica,sans-Serif" font-size="8.00">project.android.sensor.representation.</text>
<text text-anchor="middle" x="264" y="-119.1" font-family="Helvetica,sans-Serif" font-size="8.00">Vector4f.Vector4f</text>
</a>
</g>
</g>
<!-- Node41&#45;&gt;Node44 -->
<g id="edge3" class="edge"><title>Node41&#45;&gt;Node44</title>
<path fill="none" stroke="midnightblue" d="M162.147,-125.5C170.742,-125.5 179.426,-125.5 187.905,-125.5"/>
<polygon fill="midnightblue" stroke="midnightblue" points="162.117,-122 152.117,-125.5 162.117,-129 162.117,-122"/>
</g>
<!-- Node45 -->
<g id="node5" class="node"><title>Node45</title>
<g id="a_node5"><a xlink:href="../../d7/d2f/a00258.html#ad64f74d289c05e667cd27cf017ab8b95" target="_top" xlink:title="Copies another Vector4f to this one. ">
<polygon fill="white" stroke="black" points="188,-22.5 188,-48.5 340,-48.5 340,-22.5 188,-22.5"/>
<text text-anchor="start" x="196" y="-38.1" font-family="Helvetica,sans-Serif" font-size="8.00">project.android.sensor.representation.</text>
<text text-anchor="middle" x="264" y="-29.1" font-family="Helvetica,sans-Serif" font-size="8.00">Vector4f.copyVec4</text>
</a>
</g>
</g>
<!-- Node41&#45;&gt;Node45 -->
<g id="edge4" class="edge"><title>Node41&#45;&gt;Node45</title>
<path fill="none" stroke="midnightblue" d="M103.426,-106.54C125.254,-91.5745 157.497,-71.0301 188,-57.5 195.566,-54.1438 203.785,-51.138 211.916,-48.506"/>
<polygon fill="midnightblue" stroke="midnightblue" points="101.243,-103.795 95.0282,-112.376 105.237,-109.543 101.243,-103.795"/>
</g>
<!-- Node50 -->
<g id="node10" class="node"><title>Node50</title>
<g id="a_node10"><a xlink:href="../../d7/d2f/a00258.html#a2b2b04e7c99078e9619ad815546abeef" target="_top" xlink:title="Copies a Vector3f to this Vector4f using a separate value for W&#45;dimension. ">
<polygon fill="white" stroke="black" points="188,-67.5 188,-93.5 340,-93.5 340,-67.5 188,-67.5"/>
<text text-anchor="start" x="196" y="-83.1" font-family="Helvetica,sans-Serif" font-size="8.00">project.android.sensor.representation.</text>
<text text-anchor="middle" x="264" y="-74.1" font-family="Helvetica,sans-Serif" font-size="8.00">Vector4f.copyFromV3f</text>
</a>
</g>
</g>
<!-- Node41&#45;&gt;Node50 -->
<g id="edge9" class="edge"><title>Node41&#45;&gt;Node50</title>
<path fill="none" stroke="midnightblue" d="M140.804,-110.064C163.003,-104.693 187.673,-98.7244 209,-93.5645"/>
<polygon fill="midnightblue" stroke="midnightblue" points="139.695,-106.731 130.799,-112.484 141.342,-113.534 139.695,-106.731"/>
</g>
<!-- Node46 -->
<g id="node6" class="node"><title>Node46</title>
<g id="a_node6"><a xlink:href="../../d0/da7/a00250.html#a63276a34f5007701782c0d5c1aeb467c" target="_top" xlink:title="Copies the values from the given Quaternion to this one. ">
<polygon fill="white" stroke="black" points="376,-45.5 376,-71.5 528,-71.5 528,-45.5 376,-45.5"/>
<text text-anchor="start" x="384" y="-61.1" font-family="Helvetica,sans-Serif" font-size="8.00">project.android.sensor.representation.</text>
<text text-anchor="middle" x="452" y="-52.1" font-family="Helvetica,sans-Serif" font-size="8.00">Quaternion.set</text>
</a>
</g>
</g>
<!-- Node45&#45;&gt;Node46 -->
<g id="edge5" class="edge"><title>Node45&#45;&gt;Node46</title>
<path fill="none" stroke="midnightblue" d="M350.147,-46.029C358.742,-47.0917 367.426,-48.1656 375.905,-49.214"/>
<polygon fill="midnightblue" stroke="midnightblue" points="350.471,-42.5424 340.117,-44.7887 349.612,-49.4895 350.471,-42.5424"/>
</g>
<!-- Node49 -->
<g id="node9" class="node"><title>Node49</title>
<g id="a_node9"><a xlink:href="../../d0/da7/a00250.html#ad65bf4d90dd8d310b37e9318eae5546f" target="_top" xlink:title="Multiplies this Quaternion by the input one. ">
<polygon fill="white" stroke="black" points="376,-0.5 376,-26.5 528,-26.5 528,-0.5 376,-0.5"/>
<text text-anchor="start" x="384" y="-16.1" font-family="Helvetica,sans-Serif" font-size="8.00">project.android.sensor.representation.</text>
<text text-anchor="middle" x="452" y="-7.1" font-family="Helvetica,sans-Serif" font-size="8.00">Quaternion.multiplyByQuat</text>
</a>
</g>
</g>
<!-- Node45&#45;&gt;Node49 -->
<g id="edge8" class="edge"><title>Node45&#45;&gt;Node49</title>
<path fill="none" stroke="midnightblue" d="M350.147,-25.4288C358.742,-24.4123 367.426,-23.385 375.905,-22.3822"/>
<polygon fill="midnightblue" stroke="midnightblue" points="349.637,-21.9647 340.117,-26.6152 350.459,-28.9162 349.637,-21.9647"/>
</g>
<!-- Node47 -->
<g id="node7" class="node"><title>Node47</title>
<g id="a_node7"><a xlink:href="../../da/d31/a00234.html#ab9a9911056de6fc82ef1859c2eb42bad" target="_top" xlink:title="Overrides the SensorEventListener.onSensorChanged() method of the Android API. ">
<polygon fill="white" stroke="black" points="564,-68.5 564,-94.5 725,-94.5 725,-68.5 564,-68.5"/>
<text text-anchor="start" x="572" y="-84.1" font-family="Helvetica,sans-Serif" font-size="8.00">project.android.sensor.orientation.</text>
<text text-anchor="middle" x="644.5" y="-75.1" font-family="Helvetica,sans-Serif" font-size="8.00">KalmanFilterProvider.onSensorChanged</text>
</a>
</g>
</g>
<!-- Node46&#45;&gt;Node47 -->
<g id="edge6" class="edge"><title>Node46&#45;&gt;Node47</title>
<path fill="none" stroke="midnightblue" d="M538.03,-68.7661C546.617,-69.8029 555.317,-70.8532 563.845,-71.8829"/>
<polygon fill="midnightblue" stroke="midnightblue" points="538.365,-65.2812 528.017,-67.5572 537.526,-72.2307 538.365,-65.2812"/>
</g>
<!-- Node48 -->
<g id="node8" class="node"><title>Node48</title>
<g id="a_node8"><a xlink:href="../../da/d2e/a00238.html#a467add7b43d10e83cd33ef234664f077" target="_top" xlink:title="Gets the current rotation of the device. ">
<polygon fill="white" stroke="black" points="575,-23.5 575,-49.5 714,-49.5 714,-23.5 575,-23.5"/>
<text text-anchor="start" x="583" y="-39.1" font-family="Helvetica,sans-Serif" font-size="8.00">project.android.sensor.orientation.</text>
<text text-anchor="middle" x="644.5" y="-30.1" font-family="Helvetica,sans-Serif" font-size="8.00">OrientationProvider.getQuaternion</text>
</a>
</g>
</g>
<!-- Node46&#45;&gt;Node48 -->
<g id="edge7" class="edge"><title>Node46&#45;&gt;Node48</title>
<path fill="none" stroke="midnightblue" d="M538.218,-48.6585C550.446,-47.2464 562.897,-45.8085 574.752,-44.4393"/>
<polygon fill="midnightblue" stroke="midnightblue" points="537.55,-45.2124 528.017,-49.8366 538.353,-52.1662 537.55,-45.2124"/>
</g>
<!-- Node50&#45;&gt;Node42 -->
<g id="edge10" class="edge"><title>Node50&#45;&gt;Node42</title>
<path fill="none" stroke="midnightblue" d="M319.605,-96.7421C326.495,-98.9393 333.429,-101.223 340,-103.5 366.947,-112.838 397.097,-124.604 419.167,-133.466"/>
<polygon fill="midnightblue" stroke="midnightblue" points="320.178,-93.2535 309.589,-93.5958 318.08,-99.9318 320.178,-93.2535"/>
</g>
</g>
</svg>
